<svg width="1440" height="1214" viewBox="0 0 1440 1214" fill="none" xmlns="http://www.w3.org/2000/svg">
<g opacity="0.2">
<mask id="mask0" mask-type="alpha" maskUnits="userSpaceOnUse" x="1331" y="520" width="133" height="265">
<path d="M1463.36 520.152C1446.03 520.152 1428.86 523.567 1412.85 530.2C1396.83 536.834 1382.28 546.557 1370.02 558.814C1357.76 571.072 1348.04 585.623 1341.41 601.638C1334.77 617.653 1331.36 634.818 1331.36 652.152C1331.36 669.487 1334.77 686.652 1341.41 702.667C1348.04 718.682 1357.76 733.233 1370.02 745.49C1382.28 757.748 1396.83 767.471 1412.85 774.104C1428.86 780.738 1446.03 784.152 1463.36 784.152L1463.36 520.152Z" fill="#CBD5E0"/>
</mask>
<g mask="url(#mask0)">
<path d="M1417.01 1274.8L2019.46 672.342M1414.89 1272.68L2017.34 670.221M1412.76 1270.55L2015.22 668.099M1410.64 1268.43L2013.1 665.978M1408.52 1266.31L2010.98 663.856M1406.4 1264.19L2008.86 661.735M1404.28 1262.07L2006.73 659.614M1402.16 1259.95L2004.61 657.492M1400.04 1257.83L2002.49 655.371M1397.91 1255.7L2000.37 653.25M1395.79 1253.58L1998.25 651.128M1393.67 1251.46L1996.13 649.007M1391.55 1249.34L1994.01 646.886M1389.43 1247.22L1991.88 644.764M1387.31 1245.1L1989.76 642.643M1385.19 1242.98L1987.64 640.521M1383.07 1240.86L1985.52 638.4M1380.94 1238.73L1983.4 636.279M1378.82 1236.61L1981.28 634.157M1376.7 1234.49L1979.16 632.036M1374.58 1232.37L1977.03 629.915M1372.46 1230.25L1974.91 627.793M1370.34 1228.13L1972.79 625.672M1368.22 1226.01L1970.67 623.551M1366.09 1223.88L1968.55 621.429M1363.97 1221.76L1966.43 619.308M1361.85 1219.64L1964.31 617.186M1359.73 1217.52L1962.19 615.065M1357.61 1215.4L1960.06 612.944M1355.49 1213.28L1957.94 610.822M1353.37 1211.16L1955.82 608.701M1351.24 1209.03L1953.7 606.58M1349.12 1206.91L1951.58 604.458M1347 1204.79L1949.46 602.337M1344.88 1202.67L1947.34 600.216M1342.76 1200.55L1945.21 598.094M1340.64 1198.43L1943.09 595.973M1338.52 1196.31L1940.97 593.851M1336.4 1194.19L1938.85 591.73M1334.27 1192.06L1936.73 589.609M1332.15 1189.94L1934.61 587.487M1330.03 1187.82L1932.49 585.366M1327.91 1185.7L1930.36 583.245M1325.79 1183.58L1928.24 581.123M1323.67 1181.46L1926.12 579.002M1321.55 1179.34L1924 576.881M1319.42 1177.21L1921.88 574.759M1317.3 1175.09L1919.76 572.638M1315.18 1172.97L1917.64 570.516M1313.06 1170.85L1915.52 568.395M1310.94 1168.73L1913.39 566.274M1308.82 1166.61L1911.27 564.152M1306.7 1164.49L1909.15 562.031M1304.58 1162.36L1907.03 559.91M1302.45 1160.24L1904.91 557.788M1300.33 1158.12L1902.79 555.667M1298.21 1156L1900.67 553.546M1296.09 1153.88L1898.54 551.424M1293.97 1151.76L1896.42 549.303M1291.85 1149.64L1894.3 547.181M1289.73 1147.52L1892.18 545.06M1287.6 1145.39L1890.06 542.939M1285.48 1143.27L1887.94 540.817M1283.36 1141.15L1885.82 538.696M1281.24 1139.03L1883.7 536.575M1279.12 1136.91L1881.57 534.453M1277 1134.79L1879.45 532.332M1274.88 1132.67L1877.33 530.211M1272.75 1130.54L1875.21 528.089M1270.63 1128.42L1873.09 525.968M1268.51 1126.3L1870.97 523.847M1266.39 1124.18L1868.85 521.725M1264.27 1122.06L1866.72 519.604M1262.15 1119.94L1864.6 517.482M1260.03 1117.82L1862.48 515.361M1257.91 1115.69L1860.36 513.24M1255.78 1113.57L1858.24 511.118M1253.66 1111.45L1856.12 508.997M1251.54 1109.33L1854 506.876M1249.42 1107.21L1851.87 504.754M1247.3 1105.09L1849.75 502.633M1245.18 1102.97L1847.63 500.511M1243.06 1100.85L1845.51 498.39M1240.93 1098.72L1843.39 496.269M1238.81 1096.6L1841.27 494.147M1236.69 1094.48L1839.15 492.026M1234.57 1092.36L1837.02 489.905M1232.45 1090.24L1834.9 487.783M1230.33 1088.12L1832.78 485.662M1228.21 1086L1830.66 483.541M1226.08 1083.87L1828.54 481.419M1223.96 1081.75L1826.42 479.298M1221.84 1079.63L1824.3 477.176M1219.72 1077.51L1822.18 475.055M1217.6 1075.39L1820.05 472.934M1215.48 1073.27L1817.93 470.812M1213.36 1071.15L1815.81 468.691M1211.24 1069.02L1813.69 466.57M1209.11 1066.9L1811.57 464.448M1206.99 1064.78L1809.45 462.327M1204.87 1062.66L1807.33 460.206M1202.75 1060.54L1805.2 458.084M1200.63 1058.42L1803.08 455.963M1198.51 1056.3L1800.96 453.842M1196.39 1054.18L1798.84 451.72M1194.26 1052.05L1796.72 449.599M1192.14 1049.93L1794.6 447.477M1190.02 1047.81L1792.48 445.356M1187.9 1045.69L1790.36 443.235M1185.78 1043.57L1788.23 441.113M1183.66 1041.45L1786.11 438.992M1181.54 1039.33L1783.99 436.871M1179.41 1037.2L1781.87 434.749M1177.29 1035.08L1779.75 432.628M1175.17 1032.96L1777.63 430.507M1173.05 1030.84L1775.51 428.385M1170.93 1028.72L1773.38 426.264M1168.81 1026.6L1771.26 424.142M1166.69 1024.48L1769.14 422.021M1164.57 1022.35L1767.02 419.9M1162.44 1020.23L1764.9 417.778M1160.32 1018.11L1762.78 415.657M1158.2 1015.99L1760.66 413.536M1156.08 1013.87L1758.53 411.414M1153.96 1011.75L1756.41 409.293M1151.84 1009.63L1754.29 407.172M1149.72 1007.51L1752.17 405.05M1147.59 1005.38L1750.05 402.929M1145.47 1003.26L1747.93 400.807M1143.35 1001.14L1745.81 398.686M1141.23 999.02L1743.69 396.565M1139.11 996.898L1741.56 394.443M1136.99 994.777L1739.44 392.322M1134.87 992.656L1737.32 390.201M1132.74 990.534L1735.2 388.079M1130.62 988.413L1733.08 385.958M1128.5 986.292L1730.96 383.837M1126.38 984.17L1728.84 381.715M1124.26 982.049L1726.71 379.594M1122.14 979.927L1724.59 377.472M1120.02 977.806L1722.47 375.351M1117.9 975.685L1720.35 373.23M1115.77 973.563L1718.23 371.108M1113.65 971.442L1716.11 368.987M1111.53 969.321L1713.99 366.866M1109.41 967.199L1711.86 364.744M1107.29 965.078L1709.74 362.623M1105.17 962.957L1707.62 360.502M1103.05 960.835L1705.5 358.38M1100.92 958.714L1703.38 356.259M1098.8 956.592L1701.26 354.137M1096.68 954.471L1699.14 352.016M1094.56 952.35L1697.02 349.895M1092.44 950.228L1694.89 347.773M1090.32 948.107L1692.77 345.652M1088.2 945.986L1690.65 343.531M1086.07 943.864L1688.53 341.409M1083.95 941.743L1686.41 339.288M1081.83 939.622L1684.29 337.167M1079.71 937.5L1682.17 335.045M1077.59 935.379L1680.04 332.924M1075.47 933.257L1677.92 330.803M1073.35 931.136L1675.8 328.681M1071.23 929.015L1673.68 326.56M1069.1 926.893L1671.56 324.438M1066.98 924.772L1669.44 322.317M1064.86 922.651L1667.32 320.196M1062.74 920.529L1665.19 318.074M1060.62 918.408L1663.07 315.953M1058.5 916.287L1660.95 313.832M1056.38 914.165L1658.83 311.71M1054.25 912.044L1656.71 309.589M1052.13 909.922L1654.59 307.467M1050.01 907.801L1652.47 305.346M1047.89 905.68L1650.35 303.225M1045.77 903.558L1648.22 301.103M1043.65 901.437L1646.1 298.982M1041.53 899.316L1643.98 296.861M1039.4 897.194L1641.86 294.739M1037.28 895.073L1639.74 292.618M1035.16 892.952L1637.62 290.497M1033.04 890.83L1635.5 288.375M1030.92 888.709L1633.37 286.254M1028.8 886.588L1631.25 284.133M1026.68 884.466L1629.13 282.011M1024.56 882.345L1627.01 279.89M1022.43 880.223L1624.89 277.768M1020.31 878.102L1622.77 275.647M1018.19 875.981L1620.65 273.526M1016.07 873.859L1618.52 271.404M1013.95 871.738L1616.4 269.283M1011.83 869.617L1614.28 267.162M1009.71 867.495L1612.16 265.04M1007.58 865.374L1610.04 262.919M1005.46 863.253L1607.92 260.798M1003.34 861.131L1605.8 258.676M1001.22 859.01L1603.68 256.555M999.099 856.888L1601.55 254.433M996.977 854.767L1599.43 252.312M994.856 852.646L1597.31 250.191M992.735 850.524L1595.19 248.069M990.613 848.403L1593.07 245.948M988.492 846.282L1590.95 243.827M986.371 844.16L1588.83 241.705M984.249 842.039L1586.7 239.584M982.128 839.918L1584.58 237.463M980.007 837.796L1582.46 235.341M977.885 835.675L1580.34 233.22M975.764 833.553L1578.22 231.098M973.642 831.432L1576.1 228.977M971.521 829.311L1573.98 226.856M969.4 827.189L1571.85 224.734M967.278 825.068L1569.73 222.613M965.157 822.947L1567.61 220.492M963.036 820.825L1565.49 218.37M960.914 818.704L1563.37 216.249M958.793 816.583L1561.25 214.128M956.672 814.461L1559.13 212.006M954.55 812.34L1557.01 209.885M952.429 810.218L1554.88 207.764M950.307 808.097L1552.76 205.642M948.186 805.976L1550.64 203.521M946.065 803.854L1548.52 201.399M943.943 801.733L1546.4 199.278M941.822 799.612L1544.28 197.157M939.701 797.49L1542.16 195.035M937.579 795.369L1540.03 192.914M935.458 793.248L1537.91 190.793M933.337 791.126L1535.79 188.671M931.215 789.005L1533.67 186.55M929.094 786.883L1531.55 184.429M926.972 784.762L1529.43 182.307M924.851 782.641L1527.31 180.186M922.73 780.519L1525.18 178.064M920.608 778.398L1523.06 175.943M918.487 776.277L1520.94 173.822M916.366 774.155L1518.82 171.7M914.244 772.034L1516.7 169.579M912.123 769.913L1514.58 167.458M910.002 767.791L1512.46 165.336M907.88 765.67L1510.34 163.215M905.759 763.548L1508.21 161.093M903.637 761.427L1506.09 158.972M901.516 759.306L1503.97 156.851M899.395 757.184L1501.85 154.729M897.273 755.063L1499.73 152.608M895.152 752.942L1497.61 150.487M893.031 750.82L1495.49 148.365M890.909 748.699L1493.36 146.244M888.788 746.578L1491.24 144.123M886.667 744.456L1489.12 142.001M884.545 742.335L1487 139.88M882.424 740.213L1484.88 137.759M880.302 738.092L1482.76 135.637M878.181 735.971L1480.64 133.516M876.06 733.849L1478.51 131.395M873.938 731.728L1476.39 129.273M871.817 729.607L1474.27 127.152M869.696 727.485L1472.15 125.03M867.574 725.364L1470.03 122.909M865.453 723.243L1467.91 120.788M863.332 721.121L1465.79 118.666M861.21 719L1463.67 116.545M859.089 716.879L1461.54 114.424M856.968 714.757L1459.42 112.302M854.846 712.636L1457.3 110.181M852.725 710.514L1455.18 108.06M850.603 708.393L1453.06 105.938M848.482 706.272L1450.94 103.817M846.361 704.15L1448.82 101.695M844.239 702.029L1446.69 99.5741M842.118 699.908L1444.57 97.4527M839.997 697.786L1442.45 95.3313M837.875 695.665L1440.33 93.2099M835.754 693.544L1438.21 91.0886M833.633 691.422L1436.09 88.9673M831.511 689.301L1433.97 86.8458M829.39 687.179L1431.84 84.7245M827.268 685.058L1429.72 82.6031M825.147 682.937L1427.6 80.4818M823.026 680.815L1425.48 78.3604M820.904 678.694L1423.36 76.239M818.783 676.573L1421.24 74.1176M816.662 674.451L1419.12 71.9963M814.54 672.33L1417 69.875M812.419 670.209L1414.87 67.7536M810.298 668.087L1412.75 65.6322M808.176 665.966L1410.63 63.5108M806.055 663.844L1408.51 61.3895M803.933 661.723L1406.39 59.2682M801.812 659.602L1404.27 57.1468M799.691 657.48L1402.15 55.0254M797.569 655.359L1400.02 52.904M795.448 653.238L1397.9 50.7827M793.327 651.116L1395.78 48.6613M791.205 648.995L1393.66 46.5399M789.084 646.874L1391.54 44.4186M786.963 644.752L1389.42 42.2972M784.841 642.631L1387.3 40.1759M782.72 640.509L1385.17 38.0545M780.598 638.388L1383.05 35.9331M778.477 636.267L1380.93 33.8117M776.356 634.145L1378.81 31.6904M774.234 632.024L1376.69 29.5691" stroke="#219BB2"/>
</g>
</g>
<g opacity="0.2">
<mask id="mask1" mask-type="alpha" maskUnits="userSpaceOnUse" x="489" y="853" width="149" height="75">
<path d="M489.36 853.152C489.36 862.87 491.274 872.493 494.993 881.471C498.712 890.449 504.163 898.607 511.034 905.478C517.906 912.35 526.064 917.801 535.042 921.519C544.02 925.238 553.643 927.152 563.36 927.152C573.078 927.152 582.701 925.238 591.679 921.519C600.657 917.801 608.815 912.35 615.686 905.478C622.558 898.607 628.009 890.449 631.727 881.471C635.446 872.493 637.36 862.87 637.36 853.152L489.36 853.152Z" fill="#CBD5E0"/>
</mask>
<g mask="url(#mask1)">
<path d="M912.42 879.138L574.68 541.398M911.231 880.327L573.491 542.587M910.041 881.517L572.302 543.777M908.852 882.706L571.112 544.966M907.663 883.895L569.923 546.155M906.474 885.084L568.734 547.344M905.284 886.274L567.545 548.534M904.095 887.463L566.355 549.723M902.906 888.652L565.166 550.912M901.717 889.841L563.977 552.101M900.527 891.031L562.788 553.291M899.338 892.22L561.598 554.48M898.149 893.409L560.409 555.669M896.96 894.598L559.22 556.858M895.77 895.788L558.031 558.048M894.581 896.977L556.841 559.237M893.392 898.166L555.652 560.426M892.203 899.355L554.463 561.615M891.013 900.545L553.274 562.805M889.824 901.734L552.084 563.994M888.635 902.923L550.895 565.183M887.446 904.112L549.706 566.372M886.256 905.302L548.517 567.562M885.067 906.491L547.327 568.751M883.878 907.68L546.138 569.94M882.689 908.869L544.949 571.129M881.499 910.059L543.76 572.319M880.31 911.248L542.57 573.508M879.121 912.437L541.381 574.697M877.932 913.626L540.192 575.886M876.742 914.816L539.003 577.076M875.553 916.005L537.813 578.265M874.364 917.194L536.624 579.454M873.175 918.383L535.435 580.643M871.986 919.573L534.246 581.833M870.796 920.762L533.056 583.022M869.607 921.951L531.867 584.211M868.418 923.14L530.678 585.4M867.229 924.33L529.489 586.59M866.039 925.519L528.299 587.779M864.85 926.708L527.11 588.968M863.661 927.897L525.921 590.157M862.472 929.087L524.732 591.347M861.282 930.276L523.542 592.536M860.093 931.465L522.353 593.725M858.904 932.654L521.164 594.914M857.715 933.844L519.975 596.104M856.525 935.033L518.785 597.293M855.336 936.222L517.596 598.482M854.147 937.411L516.407 599.671M852.958 938.601L515.218 600.861M851.768 939.79L514.028 602.05M850.579 940.979L512.839 603.239M849.39 942.168L511.65 604.428M848.201 943.358L510.461 605.618M847.011 944.547L509.271 606.807M845.822 945.736L508.082 607.996M844.633 946.925L506.893 609.185M843.444 948.115L505.704 610.375M842.254 949.304L504.514 611.564M841.065 950.493L503.325 612.753M839.876 951.682L502.136 613.942M838.687 952.872L500.947 615.132M837.497 954.061L499.757 616.321M836.308 955.25L498.568 617.51M835.119 956.439L497.379 618.699M833.93 957.629L496.19 619.889M832.74 958.818L495 621.078M831.551 960.007L493.811 622.267M830.362 961.196L492.622 623.456M829.173 962.386L491.433 624.646M827.983 963.575L490.243 625.835M826.794 964.764L489.054 627.024M825.605 965.953L487.865 628.213M824.416 967.143L486.676 629.403M823.226 968.332L485.486 630.592M822.037 969.521L484.297 631.781M820.848 970.71L483.108 632.97M819.659 971.9L481.919 634.16M818.469 973.089L480.729 635.349M817.28 974.278L479.54 636.538M816.091 975.467L478.351 637.727M814.902 976.657L477.162 638.917M813.712 977.846L475.972 640.106M812.523 979.035L474.783 641.295M811.334 980.224L473.594 642.484M810.145 981.413L472.405 643.674M808.955 982.603L471.215 644.863M807.766 983.792L470.026 646.052M806.577 984.981L468.837 647.241M805.388 986.171L467.648 648.431M804.198 987.36L466.458 649.62M803.009 988.549L465.269 650.809M801.82 989.738L464.08 651.998M800.631 990.927L462.891 653.188M799.441 992.117L461.701 654.377M798.252 993.306L460.512 655.566M797.063 994.495L459.323 656.755M795.874 995.684L458.134 657.945M794.684 996.874L456.944 659.134M793.495 998.063L455.755 660.323M792.306 999.252L454.566 661.512M791.117 1000.44L453.377 662.702M789.927 1001.63L452.187 663.891M788.738 1002.82L450.998 665.08M787.549 1004.01L449.809 666.269M786.36 1005.2L448.62 667.459M785.17 1006.39L447.43 668.648M783.981 1007.58L446.241 669.837M782.792 1008.77L445.052 671.026M781.603 1009.96L443.863 672.215M780.413 1011.14L442.673 673.405M779.224 1012.33L441.484 674.594M778.035 1013.52L440.295 675.783M776.846 1014.71L439.106 676.972M775.656 1015.9L437.916 678.162M774.467 1017.09L436.727 679.351M773.278 1018.28L435.538 680.54M772.089 1019.47L434.349 681.73M770.899 1020.66L433.159 682.919M769.71 1021.85L431.97 684.108M768.521 1023.04L430.781 685.297M767.332 1024.23L429.592 686.486M766.142 1025.42L428.402 687.676M764.953 1026.6L427.213 688.865M763.764 1027.79L426.024 690.054M762.575 1028.98L424.835 691.243M761.385 1030.17L423.645 692.433M760.196 1031.36L422.456 693.622M759.007 1032.55L421.267 694.811M757.818 1033.74L420.078 696M756.628 1034.93L418.888 697.19M755.439 1036.12L417.699 698.379M754.25 1037.31L416.51 699.568M753.061 1038.5L415.321 700.757M751.871 1039.69L414.131 701.947M750.682 1040.88L412.942 703.136M749.493 1042.07L411.753 704.325M748.304 1043.25L410.564 705.514M747.114 1044.44L409.374 706.704M745.925 1045.63L408.185 707.893M744.736 1046.82L406.996 709.082M743.547 1048.01L405.807 710.271M742.357 1049.2L404.617 711.461M741.168 1050.39L403.428 712.65M739.979 1051.58L402.239 713.839M738.79 1052.77L401.05 715.028M737.6 1053.96L399.86 716.218M736.411 1055.15L398.671 717.407M735.222 1056.34L397.482 718.596M734.033 1057.53L396.293 719.785M732.843 1058.71L395.103 720.975M731.654 1059.9L393.914 722.164M730.465 1061.09L392.725 723.353M729.276 1062.28L391.536 724.542M728.086 1063.47L390.347 725.732M726.897 1064.66L389.157 726.921M725.708 1065.85L387.968 728.11M724.519 1067.04L386.779 729.299M723.329 1068.23L385.59 730.489M722.14 1069.42L384.4 731.678M720.951 1070.61L383.211 732.867M719.762 1071.8L382.022 734.056M718.572 1072.99L380.833 735.246M717.383 1074.17L379.643 736.435M716.194 1075.36L378.454 737.624M715.005 1076.55L377.265 738.813M713.815 1077.74L376.076 740.003M712.626 1078.93L374.886 741.192M711.437 1080.12L373.697 742.381M710.248 1081.31L372.508 743.57M709.058 1082.5L371.319 744.76M707.869 1083.69L370.129 745.949M706.68 1084.88L368.94 747.138M705.491 1086.07L367.751 748.327M704.301 1087.26L366.562 749.517M703.112 1088.45L365.372 750.706M701.923 1089.64L364.183 751.895M700.734 1090.82L362.994 753.084M699.544 1092.01L361.805 754.274M698.355 1093.2L360.615 755.463M697.166 1094.39L359.426 756.652M695.977 1095.58L358.237 757.841M694.787 1096.77L357.048 759.031M693.598 1097.96L355.858 760.22M692.409 1099.15L354.669 761.409M691.22 1100.34L353.48 762.598M690.03 1101.53L352.291 763.788M688.841 1102.72L351.101 764.977M687.652 1103.91L349.912 766.166M686.463 1105.1L348.723 767.355M685.273 1106.28L347.534 768.545M684.084 1107.47L346.344 769.734M682.895 1108.66L345.155 770.923M681.706 1109.85L343.966 772.112M680.516 1111.04L342.777 773.302M679.327 1112.23L341.587 774.491M678.138 1113.42L340.398 775.68M676.949 1114.61L339.209 776.869M675.759 1115.8L338.02 778.059M674.57 1116.99L336.83 779.248M673.381 1118.18L335.641 780.437M672.192 1119.37L334.452 781.626M671.002 1120.56L333.263 782.816M669.813 1121.74L332.073 784.005M668.624 1122.93L330.884 785.194M667.435 1124.12L329.695 786.383M666.245 1125.31L328.506 787.573M665.056 1126.5L327.316 788.762M663.867 1127.69L326.127 789.951M662.678 1128.88L324.938 791.14M661.488 1130.07L323.749 792.33M660.299 1131.26L322.559 793.519M659.11 1132.45L321.37 794.708M657.921 1133.64L320.181 795.897M656.731 1134.83L318.992 797.087M655.542 1136.02L317.802 798.276M654.353 1137.21L316.613 799.465M653.164 1138.39L315.424 800.654M651.974 1139.58L314.235 801.844M650.785 1140.77L313.045 803.033M649.596 1141.96L311.856 804.222M648.407 1143.15L310.667 805.411M647.217 1144.34L309.478 806.601M646.028 1145.53L308.288 807.79M644.839 1146.72L307.099 808.979M643.65 1147.91L305.91 810.168M642.46 1149.1L304.721 811.358M641.271 1150.29L303.531 812.547M640.082 1151.48L302.342 813.736M638.893 1152.67L301.153 814.925M637.703 1153.85L299.964 816.115M636.514 1155.04L298.774 817.304M635.325 1156.23L297.585 818.493M634.136 1157.42L296.396 819.682M632.946 1158.61L295.207 820.872M631.757 1159.8L294.017 822.061M630.568 1160.99L292.828 823.25M629.379 1162.18L291.639 824.439M628.189 1163.37L290.45 825.629M627 1164.56L289.26 826.818M625.811 1165.75L288.071 828.007M624.622 1166.94L286.882 829.196M623.432 1168.13L285.693 830.386M622.243 1169.31L284.503 831.575M621.054 1170.5L283.314 832.764M619.865 1171.69L282.125 833.953M618.675 1172.88L280.936 835.143M617.486 1174.07L279.746 836.332M616.297 1175.26L278.557 837.521M615.108 1176.45L277.368 838.71M613.918 1177.64L276.179 839.9M612.729 1178.83L274.989 841.089M611.54 1180.02L273.8 842.278M610.351 1181.21L272.611 843.467M609.162 1182.4L271.422 844.657M607.972 1183.59L270.232 845.846M606.783 1184.77L269.043 847.035M605.594 1185.96L267.854 848.224M604.405 1187.15L266.665 849.414M603.215 1188.34L265.475 850.603M602.026 1189.53L264.286 851.792M600.837 1190.72L263.097 852.981M599.648 1191.91L261.908 854.171M598.458 1193.1L260.718 855.36M597.269 1194.29L259.529 856.549M596.08 1195.48L258.34 857.738M594.891 1196.67L257.151 858.928M593.701 1197.86L255.961 860.117M592.512 1199.05L254.772 861.306M591.323 1200.24L253.583 862.495M590.134 1201.42L252.394 863.685M588.944 1202.61L251.204 864.874M587.755 1203.8L250.015 866.063M586.566 1204.99L248.826 867.252M585.377 1206.18L247.637 868.442M584.187 1207.37L246.447 869.631M582.998 1208.56L245.258 870.82M581.809 1209.75L244.069 872.009M580.62 1210.94L242.88 873.198M579.43 1212.13L241.69 874.388M578.241 1213.32L240.501 875.577M577.052 1214.51L239.312 876.766M575.863 1215.7L238.123 877.956M574.673 1216.88L236.933 879.145M573.484 1218.07L235.744 880.334M572.295 1219.26L234.555 881.523M571.106 1220.45L233.366 882.713M569.916 1221.64L232.176 883.902M568.727 1222.83L230.987 885.091M567.538 1224.02L229.798 886.28M566.349 1225.21L228.609 887.469M565.159 1226.4L227.419 888.659M563.97 1227.59L226.23 889.848M562.781 1228.78L225.041 891.037M561.592 1229.97L223.852 892.226M560.402 1231.16L222.662 893.416M559.213 1232.34L221.473 894.605M558.024 1233.53L220.284 895.794M556.835 1234.72L219.095 896.983M555.645 1235.91L217.905 898.173M554.456 1237.1L216.716 899.362M553.267 1238.29L215.527 900.551M552.078 1239.48L214.338 901.74" stroke="#219BB2" stroke-width="0.560606"/>
</g>
</g>
<g opacity="0.3">
<path d="M809.328 190.244C1189.5 259.557 996.312 -186.815 1302.69 -276.187" stroke="#4DB8D6" stroke-width="0.6"/>
<path d="M813.676 195.244C1193.85 264.557 1000.66 -181.815 1307.04 -271.187" stroke="#4DB8D6" stroke-width="0.6"/>
<path d="M818.026 200.244C1198.2 269.557 1005.01 -176.815 1311.39 -266.187" stroke="#4DB8D6" stroke-width="0.6"/>
<path d="M822.375 205.248C1202.55 274.561 1009.36 -171.812 1315.74 -261.183" stroke="#4DB8D6" stroke-width="0.6"/>
<path d="M826.725 210.248C1206.9 279.561 1013.71 -166.812 1320.09 -256.183" stroke="#4DB8D6" stroke-width="0.6"/>
<path d="M831.074 215.248C1211.25 284.561 1018.06 -161.812 1324.44 -251.183" stroke="#4DB8D6" stroke-width="0.6"/>
<path d="M835.423 220.248C1215.6 289.561 1022.41 -156.812 1328.79 -246.183" stroke="#4DB8D6" stroke-width="0.6"/>
<path d="M839.774 225.252C1219.95 294.565 1026.76 -151.808 1333.14 -241.179" stroke="#4DB8D6" stroke-width="0.6"/>
<path d="M844.122 230.252C1224.3 299.565 1031.11 -146.808 1337.49 -236.179" stroke="#4DB8D6" stroke-width="0.6"/>
<path d="M848.472 235.252C1228.65 304.565 1035.46 -141.808 1341.84 -231.179" stroke="#4DB8D6" stroke-width="0.6"/>
<path d="M852.821 240.256C1232.99 309.568 1039.8 -136.804 1346.18 -226.175" stroke="#4DB8D6" stroke-width="0.6"/>
<path d="M857.171 245.256C1237.34 314.568 1044.15 -131.804 1350.53 -221.175" stroke="#4DB8D6" stroke-width="0.6"/>
<path d="M861.521 250.256C1241.69 319.568 1048.5 -126.804 1354.88 -216.175" stroke="#4DB8D6" stroke-width="0.6"/>
<path d="M865.87 255.256C1246.04 324.568 1052.85 -121.804 1359.23 -211.175" stroke="#4DB8D6" stroke-width="0.6"/>
<path d="M870.219 260.26C1250.39 329.572 1057.2 -116.8 1363.58 -206.171" stroke="#4DB8D6" stroke-width="0.6"/>
<path d="M874.57 265.26C1254.74 334.572 1061.55 -111.8 1367.93 -201.171" stroke="#4DB8D6" stroke-width="0.6"/>
<path d="M878.919 270.26C1259.09 339.572 1065.9 -106.8 1372.28 -196.171" stroke="#4DB8D6" stroke-width="0.6"/>
<path d="M883.268 275.26C1263.44 344.572 1070.25 -101.8 1376.63 -191.171" stroke="#4DB8D6" stroke-width="0.6"/>
<path d="M887.617 280.264C1267.79 349.576 1074.6 -96.7959 1380.98 -186.167" stroke="#4DB8D6" stroke-width="0.6"/>
<path d="M891.967 285.264C1272.14 354.576 1078.95 -91.7959 1385.33 -181.167" stroke="#4DB8D6" stroke-width="0.6"/>
<path d="M896.317 290.264C1276.49 359.576 1083.3 -86.7959 1389.68 -176.167" stroke="#4DB8D6" stroke-width="0.6"/>
<path d="M900.666 295.264C1280.84 364.576 1087.65 -81.7959 1394.03 -171.167" stroke="#4DB8D6" stroke-width="0.6"/>
<path d="M905.015 300.268C1285.19 369.58 1092 -76.792 1398.38 -166.164" stroke="#4DB8D6" stroke-width="0.6"/>
<path d="M909.365 305.268C1289.54 374.58 1096.35 -71.792 1402.73 -161.164" stroke="#4DB8D6" stroke-width="0.6"/>
<path d="M913.715 310.268C1293.89 379.58 1100.7 -66.792 1407.08 -156.164" stroke="#4DB8D6" stroke-width="0.6"/>
<path d="M918.064 315.272C1298.24 384.584 1105.05 -61.7881 1411.43 -151.16" stroke="#4DB8D6" stroke-width="0.6"/>
<path d="M922.412 320.272C1302.59 389.584 1109.4 -56.7881 1415.78 -146.16" stroke="#4DB8D6" stroke-width="0.6"/>
<path d="M926.763 325.272C1306.94 394.584 1113.75 -51.7881 1420.13 -141.16" stroke="#4DB8D6" stroke-width="0.6"/>
<path d="M931.113 330.272C1311.29 399.584 1118.1 -46.7881 1424.48 -136.16" stroke="#4DB8D6" stroke-width="0.6"/>
<path d="M935.462 335.276C1315.64 404.588 1122.45 -41.7842 1428.83 -131.156" stroke="#4DB8D6" stroke-width="0.6"/>
<path d="M939.811 340.276C1319.98 409.588 1126.79 -36.7842 1433.17 -126.156" stroke="#4DB8D6" stroke-width="0.6"/>
<path d="M944.161 345.276C1324.33 414.588 1131.14 -31.7842 1437.52 -121.156" stroke="#4DB8D6" stroke-width="0.6"/>
<path d="M948.51 350.276C1328.68 419.588 1135.49 -26.7842 1441.87 -116.156" stroke="#4DB8D6" stroke-width="0.6"/>
<path d="M952.86 355.28C1333.03 424.592 1139.84 -21.7803 1446.22 -111.152" stroke="#4DB8D6" stroke-width="0.6"/>
<path d="M957.209 360.28C1337.38 429.592 1144.19 -16.7803 1450.57 -106.152" stroke="#4DB8D6" stroke-width="0.6"/>
<path d="M961.559 365.28C1341.73 434.592 1148.54 -11.7803 1454.92 -101.152" stroke="#4DB8D6" stroke-width="0.6"/>
<path d="M965.908 370.283C1346.08 439.596 1152.89 -6.7764 1459.27 -96.1479" stroke="#4DB8D6" stroke-width="0.6"/>
<path d="M970.258 375.283C1350.43 444.596 1157.24 -1.7764 1463.62 -91.1479" stroke="#4DB8D6" stroke-width="0.6"/>
<path d="M974.607 380.283C1354.78 449.596 1161.59 3.2236 1467.97 -86.1479" stroke="#4DB8D6" stroke-width="0.6"/>
<path d="M978.957 385.283C1359.13 454.596 1165.94 8.2236 1472.32 -81.1479" stroke="#4DB8D6" stroke-width="0.6"/>
<path d="M983.306 390.287C1363.48 459.6 1170.29 13.2275 1476.67 -76.144" stroke="#4DB8D6" stroke-width="0.6"/>
<path d="M987.656 395.287C1367.83 464.6 1174.64 18.2275 1481.02 -71.144" stroke="#4DB8D6" stroke-width="0.6"/>
<path d="M992.005 400.287C1372.18 469.6 1178.99 23.2275 1485.37 -66.144" stroke="#4DB8D6" stroke-width="0.6"/>
<path d="M996.355 405.287C1376.53 474.6 1183.34 28.2275 1489.72 -61.144" stroke="#4DB8D6" stroke-width="0.6"/>
<path d="M1000.7 410.291C1380.88 479.604 1187.69 33.2314 1494.07 -56.1401" stroke="#4DB8D6" stroke-width="0.6"/>
<path d="M1005.05 415.291C1385.23 484.604 1192.04 38.2314 1498.42 -51.1401" stroke="#4DB8D6" stroke-width="0.6"/>
<path d="M1009.4 420.291C1389.58 489.604 1196.39 43.2314 1502.77 -46.1401" stroke="#4DB8D6" stroke-width="0.6"/>
<path d="M1013.75 425.295C1393.93 494.608 1200.74 48.2353 1507.12 -41.1362" stroke="#4DB8D6" stroke-width="0.6"/>
<path d="M1018.1 430.295C1398.28 499.608 1205.09 53.2353 1511.47 -36.1362" stroke="#4DB8D6" stroke-width="0.6"/>
<path d="M1022.45 435.295C1402.62 504.608 1209.44 58.2353 1515.81 -31.1362" stroke="#4DB8D6" stroke-width="0.6"/>
<path d="M1026.8 440.295C1406.97 509.608 1213.78 63.2353 1520.16 -26.1362" stroke="#4DB8D6" stroke-width="0.6"/>
<path d="M1031.15 445.299C1411.32 514.611 1218.13 68.2392 1524.51 -21.1323" stroke="#4DB8D6" stroke-width="0.6"/>
<path d="M1035.5 450.299C1415.67 519.611 1222.48 73.2392 1528.86 -16.1323" stroke="#4DB8D6" stroke-width="0.6"/>
<path d="M1039.85 455.299C1420.02 524.611 1226.83 78.2392 1533.21 -11.1323" stroke="#4DB8D6" stroke-width="0.6"/>
<path d="M1028.51 491.278C1023.77 130.978 1430.88 382.729 1570.01 116.618" stroke="#4DB8D6" stroke-width="0.6"/>
<path d="M1024.31 486.454C1019.57 126.154 1426.68 377.905 1565.81 111.794" stroke="#4DB8D6" stroke-width="0.6"/>
<path d="M1020.12 481.626C1015.38 121.326 1422.49 373.077 1561.62 106.966" stroke="#4DB8D6" stroke-width="0.6"/>
<path d="M1015.92 476.801C1011.18 116.501 1418.29 368.253 1557.42 102.142" stroke="#4DB8D6" stroke-width="0.6"/>
<path d="M1011.72 471.977C1006.98 111.677 1414.09 363.429 1553.23 97.3175" stroke="#4DB8D6" stroke-width="0.6"/>
<path d="M1007.53 467.153C1002.79 106.853 1409.9 358.604 1549.03 92.4933" stroke="#4DB8D6" stroke-width="0.6"/>
<path d="M1003.33 462.329C998.593 102.029 1405.7 353.78 1544.83 87.6691" stroke="#4DB8D6" stroke-width="0.6"/>
<path d="M999.135 457.504C994.398 97.2045 1401.51 348.956 1540.64 82.8449" stroke="#4DB8D6" stroke-width="0.6"/>
<path d="M994.937 452.676C990.2 92.3763 1397.31 344.128 1536.44 78.0167" stroke="#4DB8D6" stroke-width="0.6"/>
<path d="M990.742 447.856C986.004 87.556 1393.11 339.307 1532.25 73.1964" stroke="#4DB8D6" stroke-width="0.6"/>
<path d="M986.545 443.028C981.808 82.7279 1388.92 334.479 1528.05 68.3683" stroke="#4DB8D6" stroke-width="0.6"/>
<path d="M982.349 438.204C977.612 77.9037 1384.72 329.655 1523.85 63.5441" stroke="#4DB8D6" stroke-width="0.6"/>
<path d="M978.154 433.379C973.417 73.0795 1380.52 324.831 1519.66 58.7199" stroke="#4DB8D6" stroke-width="0.6"/>
<path d="M973.958 428.555C969.22 68.2553 1376.33 320.007 1515.46 53.8956" stroke="#4DB8D6" stroke-width="0.6"/>
<path d="M969.76 423.731C965.023 63.431 1372.13 315.182 1511.26 49.0714" stroke="#4DB8D6" stroke-width="0.6"/>
<path d="M965.565 418.903C960.828 58.6029 1367.93 310.354 1507.07 44.2433" stroke="#4DB8D6" stroke-width="0.6"/>
<path d="M961.368 414.079C956.63 53.7787 1363.74 305.53 1502.87 39.4191" stroke="#4DB8D6" stroke-width="0.6"/>
<path d="M957.172 409.254C952.435 48.9545 1359.54 300.706 1498.68 34.5949" stroke="#4DB8D6" stroke-width="0.6"/>
<path d="M952.974 404.43C948.237 44.1303 1355.34 295.882 1494.48 29.7706" stroke="#4DB8D6" stroke-width="0.6"/>
<path d="M948.779 399.606C944.042 39.306 1351.15 291.057 1490.28 24.9464" stroke="#4DB8D6" stroke-width="0.6"/>
<path d="M944.583 394.782C939.845 34.4818 1346.95 286.233 1486.09 20.1222" stroke="#4DB8D6" stroke-width="0.6"/>
<path d="M940.387 389.954C935.65 29.6537 1342.76 281.405 1481.89 15.2941" stroke="#4DB8D6" stroke-width="0.6"/>
<path d="M936.191 385.129C931.454 24.8295 1338.56 276.581 1477.69 10.4699" stroke="#4DB8D6" stroke-width="0.6"/>
<path d="M931.995 380.305C927.257 20.0053 1334.36 271.757 1473.5 5.64563" stroke="#4DB8D6" stroke-width="0.6"/>
<path d="M927.797 375.481C923.06 15.181 1330.17 266.932 1469.3 0.821415" stroke="#4DB8D6" stroke-width="0.6"/>
<path d="M923.602 370.657C918.865 10.3568 1325.97 262.108 1465.11 -4.0028" stroke="#4DB8D6" stroke-width="0.6"/>
<path d="M919.406 365.833C914.668 5.5326 1321.78 257.284 1460.91 -8.82702" stroke="#4DB8D6" stroke-width="0.6"/>
<path d="M915.211 361.008C910.473 0.708381 1317.58 252.46 1456.71 -13.6512" stroke="#4DB8D6" stroke-width="0.6"/>
<path d="M911.013 356.18C906.276 -4.11974 1313.38 247.632 1452.52 -18.4794" stroke="#4DB8D6" stroke-width="0.6"/>
<path d="M906.817 351.356C902.08 -8.94396 1309.19 242.807 1448.32 -23.3036" stroke="#4DB8D6" stroke-width="0.6"/>
<path d="M902.621 346.532C897.883 -13.7682 1304.99 237.983 1444.12 -28.1278" stroke="#4DB8D6" stroke-width="0.6"/>
<path d="M898.424 341.708C893.687 -18.5924 1300.79 233.159 1439.93 -32.952" stroke="#4DB8D6" stroke-width="0.6"/>
<path d="M894.228 336.883C889.491 -23.4166 1296.6 228.335 1435.73 -37.7762" stroke="#4DB8D6" stroke-width="0.6"/>
<path d="M890.032 332.059C885.294 -28.2408 1292.4 223.511 1431.54 -42.6005" stroke="#4DB8D6" stroke-width="0.6"/>
<path d="M885.836 327.231C881.098 -33.069 1288.21 218.682 1427.34 -47.4286" stroke="#4DB8D6" stroke-width="0.6"/>
<path d="M881.639 322.407C876.902 -37.8932 1284.01 213.858 1423.14 -52.2528" stroke="#4DB8D6" stroke-width="0.6"/>
<path d="M877.443 317.583C872.706 -42.7174 1279.81 209.034 1418.95 -57.077" stroke="#4DB8D6" stroke-width="0.6"/>
<path d="M873.248 312.758C868.51 -47.5416 1275.62 204.21 1414.75 -61.9012" stroke="#4DB8D6" stroke-width="0.6"/>
<path d="M869.05 307.934C864.313 -52.3658 1271.42 199.386 1410.55 -66.7255" stroke="#4DB8D6" stroke-width="0.6"/>
<path d="M864.854 303.11C860.117 -57.1901 1267.22 194.561 1406.36 -71.5497" stroke="#4DB8D6" stroke-width="0.6"/>
<path d="M860.659 298.282C855.921 -62.0182 1263.03 189.733 1402.16 -76.3778" stroke="#4DB8D6" stroke-width="0.6"/>
<path d="M856.461 293.458C851.724 -66.8424 1258.83 184.909 1397.96 -81.202" stroke="#4DB8D6" stroke-width="0.6"/>
<path d="M852.266 288.633C847.529 -71.6666 1254.64 180.085 1393.77 -86.0262" stroke="#4DB8D6" stroke-width="0.6"/>
<path d="M848.07 283.809C843.333 -76.4908 1250.44 175.261 1389.57 -90.8505" stroke="#4DB8D6" stroke-width="0.6"/>
<path d="M843.874 278.985C839.136 -81.3151 1246.24 170.436 1385.38 -95.6747" stroke="#4DB8D6" stroke-width="0.6"/>
<path d="M839.677 274.161C834.94 -86.1393 1242.05 165.612 1381.18 -100.499" stroke="#4DB8D6" stroke-width="0.6"/>
<path d="M835.48 269.333C830.743 -90.9674 1237.85 160.784 1376.98 -105.327" stroke="#4DB8D6" stroke-width="0.6"/>
<path d="M831.285 264.508C826.547 -95.7916 1233.65 155.96 1372.79 -110.151" stroke="#4DB8D6" stroke-width="0.6"/>
<path d="M827.088 259.684C822.351 -100.616 1229.46 151.136 1368.59 -114.975" stroke="#4DB8D6" stroke-width="0.6"/>
<path d="M822.891 254.86C818.154 -105.44 1225.26 146.311 1364.39 -119.8" stroke="#4DB8D6" stroke-width="0.6"/>
<path d="M818.696 250.036C813.958 -110.264 1221.07 141.487 1360.2 -124.624" stroke="#4DB8D6" stroke-width="0.6"/>
<path d="M814.5 245.211C809.762 -115.088 1216.87 136.663 1356 -129.448" stroke="#4DB8D6" stroke-width="0.6"/>
<path d="M810.303 240.383C805.566 -119.917 1212.67 131.835 1351.81 -134.276" stroke="#4DB8D6" stroke-width="0.6"/>
<path d="M806.107 235.559C801.37 -124.741 1208.48 127.011 1347.61 -139.1" stroke="#4DB8D6" stroke-width="0.6"/>
</g>
<g opacity="0.3">
<path d="M-97.2541 948.039C359.626 1031.34 127.457 494.9 495.654 387.497" stroke="#4DB8D6" stroke-width="0.6"/>
<path d="M-92.0315 954.051C364.849 1037.35 132.679 500.912 500.877 393.508" stroke="#4DB8D6" stroke-width="0.6"/>
<path d="M-86.8039 960.063C370.076 1043.36 137.907 506.924 506.104 399.52" stroke="#4DB8D6" stroke-width="0.6"/>
<path d="M-81.5774 966.07C375.303 1049.37 143.134 512.932 511.331 405.528" stroke="#4DB8D6" stroke-width="0.6"/>
<path d="M-76.3488 972.082C380.531 1055.38 148.362 518.943 516.559 411.54" stroke="#4DB8D6" stroke-width="0.6"/>
<path d="M-71.1242 978.09C385.756 1061.39 153.587 524.951 521.784 417.547" stroke="#4DB8D6" stroke-width="0.6"/>
<path d="M-65.8957 984.102C390.984 1067.4 158.815 530.963 527.013 423.559" stroke="#4DB8D6" stroke-width="0.6"/>
<path d="M-60.6682 990.113C396.212 1073.41 164.043 536.975 532.24 429.571" stroke="#4DB8D6" stroke-width="0.6"/>
<path d="M-55.4426 996.121C401.438 1079.42 169.268 542.982 537.466 435.579" stroke="#4DB8D6" stroke-width="0.6"/>
<path d="M-50.2151 1002.13C406.665 1085.43 174.496 548.994 542.693 441.59" stroke="#4DB8D6" stroke-width="0.6"/>
<path d="M-44.9885 1008.14C411.892 1091.44 179.722 555.002 547.92 447.598" stroke="#4DB8D6" stroke-width="0.6"/>
<path d="M-39.76 1014.15C417.12 1097.45 184.951 561.014 553.148 453.61" stroke="#4DB8D6" stroke-width="0.6"/>
<path d="M-34.5334 1020.16C422.347 1103.46 190.177 567.025 558.375 459.622" stroke="#4DB8D6" stroke-width="0.6"/>
<path d="M-29.3059 1026.17C427.574 1109.47 195.405 573.033 563.602 465.629" stroke="#4DB8D6" stroke-width="0.6"/>
<path d="M-24.0793 1032.18C432.801 1115.48 200.632 579.041 568.829 471.637" stroke="#4DB8D6" stroke-width="0.6"/>
<path d="M-18.8508 1038.2C438.029 1121.49 205.86 585.057 574.057 477.653" stroke="#4DB8D6" stroke-width="0.6"/>
<path d="M-13.6242 1044.2C443.256 1127.5 211.087 591.064 579.284 483.661" stroke="#4DB8D6" stroke-width="0.6"/>
<path d="M-8.39767 1050.21C448.482 1133.51 216.313 597.076 584.511 489.672" stroke="#4DB8D6" stroke-width="0.6"/>
<path d="M-3.17209 1056.22C453.708 1139.52 221.539 603.084 589.736 495.68" stroke="#4DB8D6" stroke-width="0.6"/>
<path d="M2.05643 1062.23C458.937 1145.53 226.767 609.096 594.965 501.692" stroke="#4DB8D6" stroke-width="0.6"/>
<path d="M7.28397 1068.24C464.164 1151.54 231.995 615.104 600.192 507.7" stroke="#4DB8D6" stroke-width="0.6"/>
<path d="M12.5105 1074.25C469.391 1157.55 237.221 621.115 605.419 513.711" stroke="#4DB8D6" stroke-width="0.6"/>
<path d="M17.7361 1080.26C474.616 1163.56 242.447 627.123 610.644 519.719" stroke="#4DB8D6" stroke-width="0.6"/>
<path d="M22.9646 1086.27C479.845 1169.57 247.676 633.135 615.873 525.731" stroke="#4DB8D6" stroke-width="0.6"/>
<path d="M28.1912 1092.29C485.071 1175.58 252.902 639.147 621.099 531.743" stroke="#4DB8D6" stroke-width="0.6"/>
<path d="M33.4187 1098.29C490.299 1181.59 258.13 645.154 626.327 537.751" stroke="#4DB8D6" stroke-width="0.6"/>
<path d="M38.6443 1104.3C495.524 1187.6 263.355 651.166 631.553 543.762" stroke="#4DB8D6" stroke-width="0.6"/>
<path d="M43.8738 1110.31C500.754 1193.61 268.585 657.174 636.782 549.77" stroke="#4DB8D6" stroke-width="0.6"/>
<path d="M49.1004 1116.32C505.98 1199.62 273.811 663.186 642.009 555.782" stroke="#4DB8D6" stroke-width="0.6"/>
<path d="M54.3279 1122.34C511.208 1205.63 279.039 669.197 647.236 561.793" stroke="#4DB8D6" stroke-width="0.6"/>
<path d="M59.5545 1128.34C516.435 1211.64 284.265 675.205 652.463 567.801" stroke="#4DB8D6" stroke-width="0.6"/>
<path d="M64.7801 1134.36C521.66 1217.65 289.491 681.217 657.688 573.813" stroke="#4DB8D6" stroke-width="0.6"/>
<path d="M70.0086 1140.36C526.889 1223.66 294.719 687.225 662.917 579.821" stroke="#4DB8D6" stroke-width="0.6"/>
<path d="M75.2351 1146.38C532.115 1229.67 299.946 693.236 668.143 585.833" stroke="#4DB8D6" stroke-width="0.6"/>
<path d="M80.4627 1152.39C537.343 1235.68 305.174 699.248 673.371 591.844" stroke="#4DB8D6" stroke-width="0.6"/>
<path d="M85.6892 1158.39C542.569 1241.69 310.4 705.256 678.598 597.852" stroke="#4DB8D6" stroke-width="0.6"/>
<path d="M90.9158 1164.41C547.796 1247.7 315.627 711.268 683.824 603.864" stroke="#4DB8D6" stroke-width="0.6"/>
<path d="M96.1433 1170.41C553.023 1253.71 320.854 717.275 689.052 609.872" stroke="#4DB8D6" stroke-width="0.6"/>
<path d="M101.37 1176.43C558.25 1259.72 326.081 723.287 694.278 615.883" stroke="#4DB8D6" stroke-width="0.6"/>
<path d="M106.599 1182.44C563.48 1265.73 331.31 729.299 699.508 621.895" stroke="#4DB8D6" stroke-width="0.6"/>
<path d="M111.824 1188.45C568.704 1271.74 336.535 735.307 704.732 627.903" stroke="#4DB8D6" stroke-width="0.6"/>
<path d="M117.053 1194.46C573.933 1277.75 341.763 741.318 709.961 633.915" stroke="#4DB8D6" stroke-width="0.6"/>
<path d="M122.279 1200.46C579.159 1283.76 346.99 747.326 715.187 639.922" stroke="#4DB8D6" stroke-width="0.6"/>
<path d="M127.507 1206.48C584.387 1289.77 352.218 753.338 720.415 645.934" stroke="#4DB8D6" stroke-width="0.6"/>
<path d="M132.733 1212.48C589.613 1295.78 357.444 759.346 725.641 651.942" stroke="#4DB8D6" stroke-width="0.6"/>
<path d="M137.96 1218.5C594.84 1301.79 362.671 765.357 730.868 657.954" stroke="#4DB8D6" stroke-width="0.6"/>
<path d="M143.186 1224.51C600.066 1307.81 367.897 771.369 736.095 663.965" stroke="#4DB8D6" stroke-width="0.6"/>
<path d="M148.415 1230.52C605.295 1313.81 373.126 777.377 741.323 669.973" stroke="#4DB8D6" stroke-width="0.6"/>
<path d="M153.641 1236.53C610.521 1319.82 378.352 783.389 746.55 675.985" stroke="#4DB8D6" stroke-width="0.6"/>
<path d="M158.868 1242.54C615.748 1325.83 383.579 789.397 751.776 681.993" stroke="#4DB8D6" stroke-width="0.6"/>
<path d="M164.095 1248.55C620.976 1331.84 388.806 795.408 757.004 688.004" stroke="#4DB8D6" stroke-width="0.6"/>
<path d="M169.323 1254.56C626.203 1337.86 394.034 801.42 762.231 694.016" stroke="#4DB8D6" stroke-width="0.6"/>
<path d="M174.55 1260.57C631.43 1343.86 399.26 807.428 767.458 700.024" stroke="#4DB8D6" stroke-width="0.6"/>
<path d="M179.776 1266.57C636.656 1349.87 404.487 813.436 772.684 706.032" stroke="#4DB8D6" stroke-width="0.6"/>
<path d="M166.15 1309.81C160.457 876.811 649.705 1179.36 816.912 859.554" stroke="#4DB8D6" stroke-width="0.6"/>
<path d="M161.105 1304.02C155.412 871.018 644.661 1173.57 811.867 853.761" stroke="#4DB8D6" stroke-width="0.6"/>
<path d="M156.063 1298.21C150.37 865.217 639.619 1167.76 806.825 847.96" stroke="#4DB8D6" stroke-width="0.6"/>
<path d="M151.018 1292.42C145.325 859.42 634.574 1161.97 801.78 842.164" stroke="#4DB8D6" stroke-width="0.6"/>
<path d="M145.975 1286.62C140.282 853.62 629.531 1156.17 796.737 836.363" stroke="#4DB8D6" stroke-width="0.6"/>
<path d="M140.935 1280.82C135.242 847.823 624.491 1150.37 791.697 830.566" stroke="#4DB8D6" stroke-width="0.6"/>
<path d="M135.891 1275.02C130.198 842.026 619.447 1144.57 786.653 824.769" stroke="#4DB8D6" stroke-width="0.6"/>
<path d="M130.849 1269.22C125.156 836.225 614.405 1138.77 781.611 818.968" stroke="#4DB8D6" stroke-width="0.6"/>
<path d="M125.804 1263.43C120.11 830.428 609.359 1132.98 776.565 813.171" stroke="#4DB8D6" stroke-width="0.6"/>
<path d="M120.763 1257.63C115.07 824.631 604.319 1127.18 771.525 807.374" stroke="#4DB8D6" stroke-width="0.6"/>
<path d="M115.72 1251.83C110.026 818.831 599.275 1121.38 766.481 801.574" stroke="#4DB8D6" stroke-width="0.6"/>
<path d="M110.677 1246.03C104.983 813.034 594.232 1115.58 761.438 795.777" stroke="#4DB8D6" stroke-width="0.6"/>
<path d="M105.634 1240.23C99.9404 807.233 589.189 1109.78 756.395 789.976" stroke="#4DB8D6" stroke-width="0.6"/>
<path d="M100.592 1234.43C94.8984 801.436 584.147 1103.98 751.353 784.179" stroke="#4DB8D6" stroke-width="0.6"/>
<path d="M95.5476 1228.63C89.8544 795.635 579.103 1098.18 746.309 778.378" stroke="#4DB8D6" stroke-width="0.6"/>
<path d="M90.5056 1222.84C84.8124 789.838 574.061 1092.39 741.267 772.581" stroke="#4DB8D6" stroke-width="0.6"/>
<path d="M85.4607 1217.04C79.7675 784.042 569.016 1086.59 736.222 766.785" stroke="#4DB8D6" stroke-width="0.6"/>
<path d="M80.4197 1211.24C74.7265 778.241 563.975 1080.79 731.181 760.984" stroke="#4DB8D6" stroke-width="0.6"/>
<path d="M75.3738 1205.44C69.6806 772.444 558.929 1074.99 726.135 755.187" stroke="#4DB8D6" stroke-width="0.6"/>
<path d="M70.3328 1199.64C64.6396 766.647 553.888 1069.19 721.094 749.39" stroke="#4DB8D6" stroke-width="0.6"/>
<path d="M65.2898 1193.84C59.5966 760.846 548.845 1063.39 716.052 743.589" stroke="#4DB8D6" stroke-width="0.6"/>
<path d="M60.2478 1188.05C54.5546 755.049 543.803 1057.6 711.01 737.792" stroke="#4DB8D6" stroke-width="0.6"/>
<path d="M55.2049 1182.25C49.5116 749.252 538.76 1051.8 705.967 731.996" stroke="#4DB8D6" stroke-width="0.6"/>
<path d="M50.1619 1176.45C44.4687 743.452 533.717 1046 700.924 726.195" stroke="#4DB8D6" stroke-width="0.6"/>
<path d="M45.118 1170.65C39.4247 737.651 528.673 1040.2 695.88 720.394" stroke="#4DB8D6" stroke-width="0.6"/>
<path d="M40.076 1164.85C34.3827 731.854 523.631 1034.4 690.838 714.597" stroke="#4DB8D6" stroke-width="0.6"/>
<path d="M35.033 1159.05C29.3398 726.057 518.588 1028.6 685.795 708.8" stroke="#4DB8D6" stroke-width="0.6"/>
<path d="M29.992 1153.26C24.2987 720.26 513.547 1022.81 680.754 703.003" stroke="#4DB8D6" stroke-width="0.6"/>
<path d="M24.9471 1147.46C19.2538 714.459 508.502 1017.01 675.709 697.203" stroke="#4DB8D6" stroke-width="0.6"/>
<path d="M19.9051 1141.66C14.2118 708.663 503.46 1011.21 670.667 691.406" stroke="#4DB8D6" stroke-width="0.6"/>
<path d="M14.8611 1135.86C9.16789 702.862 498.416 1005.41 665.623 685.605" stroke="#4DB8D6" stroke-width="0.6"/>
<path d="M9.81815 1130.06C4.12492 697.065 493.373 999.612 660.58 679.808" stroke="#4DB8D6" stroke-width="0.6"/>
<path d="M4.77518 1124.27C-0.918048 691.268 488.33 993.815 655.537 674.011" stroke="#4DB8D6" stroke-width="0.6"/>
<path d="M-0.266811 1118.46C-5.96004 685.467 483.288 988.014 650.495 668.21" stroke="#4DB8D6" stroke-width="0.6"/>
<path d="M-5.31076 1112.67C-11.004 679.67 478.244 982.217 645.451 662.414" stroke="#4DB8D6" stroke-width="0.6"/>
<path d="M-10.3537 1106.87C-16.047 673.87 473.202 976.417 640.408 656.613" stroke="#4DB8D6" stroke-width="0.6"/>
<path d="M-15.3977 1101.07C-21.0909 668.073 468.158 970.62 635.364 650.816" stroke="#4DB8D6" stroke-width="0.6"/>
<path d="M-20.4377 1095.27C-26.1309 662.276 463.118 964.823 630.324 645.019" stroke="#4DB8D6" stroke-width="0.6"/>
<path d="M-25.4826 1089.47C-31.1759 656.475 458.073 959.022 625.279 639.218" stroke="#4DB8D6" stroke-width="0.6"/>
<path d="M-30.5256 1083.68C-36.2188 650.678 453.03 953.225 620.236 633.421" stroke="#4DB8D6" stroke-width="0.6"/>
<path d="M-35.5676 1077.87C-41.2608 644.877 447.988 947.424 615.194 627.621" stroke="#4DB8D6" stroke-width="0.6"/>
<path d="M-40.6106 1072.08C-46.3038 639.081 442.945 941.628 610.151 621.824" stroke="#4DB8D6" stroke-width="0.6"/>
<path d="M-45.6526 1066.28C-51.3458 633.284 437.903 935.831 605.109 616.027" stroke="#4DB8D6" stroke-width="0.6"/>
<path d="M-50.6965 1060.48C-56.3897 627.487 432.859 930.034 600.065 610.23" stroke="#4DB8D6" stroke-width="0.6"/>
<path d="M-55.7395 1054.68C-61.4327 621.686 427.816 924.233 595.022 604.429" stroke="#4DB8D6" stroke-width="0.6"/>
<path d="M-60.7824 1048.89C-66.4757 615.889 422.773 918.436 589.979 598.632" stroke="#4DB8D6" stroke-width="0.6"/>
<path d="M-65.8254 1043.09C-71.5186 610.092 417.73 912.639 584.936 592.835" stroke="#4DB8D6" stroke-width="0.6"/>
<path d="M-70.8684 1037.29C-76.5616 604.292 412.687 906.839 579.893 587.035" stroke="#4DB8D6" stroke-width="0.6"/>
<path d="M-75.9113 1031.49C-81.6046 598.495 407.644 901.042 574.85 581.238" stroke="#4DB8D6" stroke-width="0.6"/>
<path d="M-80.9553 1025.69C-86.6485 592.698 402.6 895.245 569.806 575.441" stroke="#4DB8D6" stroke-width="0.6"/>
<path d="M-85.9963 1019.89C-91.6895 586.897 397.559 889.444 564.765 569.64" stroke="#4DB8D6" stroke-width="0.6"/>
<path d="M-91.0393 1014.1C-96.7325 581.1 392.516 883.647 559.722 563.843" stroke="#4DB8D6" stroke-width="0.6"/>
<path d="M-96.0832 1008.3C-101.776 575.299 387.472 877.846 554.678 558.042" stroke="#4DB8D6" stroke-width="0.6"/>
<path d="M-101.125 1002.5C-106.818 569.502 382.43 872.049 549.636 552.246" stroke="#4DB8D6" stroke-width="0.6"/>
</g>
<circle opacity="0.5" cx="142.36" cy="83.1523" r="203" stroke="#219BB2" stroke-opacity="0.1" stroke-width="85.1748"/>
</svg>
