<svg width="40" height="40" viewBox="0 0 40 40" fill="none" xmlns="http://www.w3.org/2000/svg">
<g clip-path="url(#clip0)">
<path d="M25.3272 23.8522H14.6729V19.7119C14.6729 17.1206 16.7735 15.02 19.3647 15.02H20.6354C23.2266 15.02 25.3272 17.1206 25.3272 19.7119V23.8522Z" fill="#FFF7BF"/>
<path d="M20.0002 15.0203C22.2106 15.0203 24.0024 13.218 24.0024 10.9948C24.0024 8.77154 22.2106 6.96924 20.0002 6.96924C17.7899 6.96924 15.998 8.77154 15.998 10.9948C15.998 13.218 17.7899 15.0203 20.0002 15.0203Z" fill="#FFDCD5"/>
<path d="M39.2197 24.6569H25.3281V20.7961C25.3281 17.4176 28.067 14.6787 31.4455 14.6787H33.1023C36.4809 14.6787 39.2198 17.4175 39.2198 20.7961V24.6569H39.2197Z" fill="#B8ECBC"/>
<path d="M32.2738 14.679C35.1557 14.679 37.4919 12.3291 37.4919 9.43031C37.4919 6.53155 35.1557 4.18164 32.2738 4.18164C29.3919 4.18164 27.0557 6.53155 27.0557 9.43031C27.0557 12.3291 29.3919 14.679 32.2738 14.679Z" fill="#FFDCD5"/>
<path d="M7.72691 14.679C10.6088 14.679 12.945 12.3291 12.945 9.43031C12.945 6.53155 10.6088 4.18164 7.72691 4.18164C4.84502 4.18164 2.50879 6.53155 2.50879 9.43031C2.50879 12.3291 4.84502 14.679 7.72691 14.679Z" fill="#FFDCD5"/>
<path d="M11.7099 24.6569H0.78125V20.7961C0.78125 17.4176 3.52008 14.6787 6.89867 14.6787H8.55547C11.9341 14.6787 14.6729 17.4175 14.6729 20.7961V21.145" fill="#EAAACB"/>
<path d="M23.4496 20.9878C21.9428 20.9878 20.8141 21.6659 20.0371 22.5417C20.0241 22.5548 20.0121 22.5687 20.0003 22.5829C19.2211 21.6873 18.0804 20.9878 16.5504 20.9878C13.8243 20.9878 11.71 23.2544 11.71 26.1644C11.71 31.8497 20.0003 35.8179 20.0003 35.8179L20.0371 35.8169C20.0371 35.8169 28.29 31.8497 28.29 26.1644C28.29 23.2544 26.1757 20.9878 23.4496 20.9878Z" fill="#FF7D97"/>
<path d="M35.6741 14.3952C37.2426 13.3064 38.2723 11.487 38.2723 9.43031C38.2723 6.10539 35.581 3.40039 32.273 3.40039C28.9648 3.40039 26.2736 6.10539 26.2736 9.43031C26.2736 11.487 27.3034 13.3065 28.8719 14.3952C27.4703 14.9605 26.2955 15.9734 25.5255 17.2559C24.9761 16.1666 24.0731 15.2847 22.9684 14.762C24.0735 13.8807 24.7834 12.5197 24.7834 10.9952C24.7834 8.34469 22.6376 6.18836 20 6.18836C17.3624 6.18836 15.2166 8.34469 15.2166 10.9952C15.2166 12.5197 15.9266 13.8807 17.0317 14.762C15.927 15.2847 15.024 16.1666 14.4745 17.2559C13.7045 15.9735 12.5298 14.9606 11.1282 14.3952C12.6967 13.3064 13.7265 11.487 13.7265 9.43031C13.7265 6.10539 11.0352 3.40039 7.72711 3.40039C4.41906 3.40039 1.72773 6.10539 1.72773 9.43031C1.72773 11.487 2.7575 13.3065 4.32602 14.3952C1.7925 15.4171 0 17.9013 0 20.7963V24.6571C0 25.0886 0.349766 25.4384 0.78125 25.4384H10.9682C10.9421 25.676 10.9287 25.9184 10.9287 26.1646C10.9287 32.2718 19.3062 36.3522 19.6629 36.5229C19.7683 36.5733 19.8835 36.5995 20.0002 36.5995C20.008 36.5995 20.0158 36.5994 20.0236 36.5991L20.0605 36.598C20.1697 36.5948 20.277 36.5686 20.3755 36.5212C20.7306 36.3505 29.0713 32.271 29.0713 26.1647C29.0713 25.9184 29.0578 25.6761 29.0317 25.4384H29.2578C29.6893 25.4384 30.0391 25.0887 30.0391 24.6572C30.0391 24.2257 29.6893 23.8759 29.2578 23.8759H28.6562C28.1629 22.5852 27.2598 21.5336 26.1084 20.8922V20.7964C26.1084 17.8541 28.5023 15.4602 31.4446 15.4602H33.1014C36.0438 15.4602 38.4376 17.8541 38.4376 20.7964V23.8759H36.3214C35.8899 23.8759 35.5402 24.2257 35.5402 24.6572C35.5402 25.0887 35.8899 25.4384 36.3214 25.4384H39.2188C39.6502 25.4384 40 25.0887 40 24.6572V20.7964C40 17.9013 38.2075 15.4171 35.6741 14.3952ZM20 7.75078C21.776 7.75078 23.2209 9.20617 23.2209 10.9951C23.2209 12.784 21.776 14.2394 20 14.2394C18.224 14.2394 16.7791 12.784 16.7791 10.9951C16.7791 9.20617 18.224 7.75078 20 7.75078ZM19.3647 15.8019H20.6354C22.7917 15.8019 24.546 17.5562 24.546 19.7125V20.3154C24.1923 20.2441 23.8259 20.2068 23.4498 20.2068C22.1464 20.2068 20.9675 20.645 20 21.482C19.2257 20.8135 18.0969 20.2068 16.5505 20.2068C16.1743 20.2068 15.8079 20.2441 15.4542 20.3154V19.7125C15.4541 17.5562 17.2084 15.8019 19.3647 15.8019ZM3.29016 9.43031C3.29016 6.96695 5.28055 4.96289 7.72703 4.96289C10.1735 4.96289 12.1639 6.96695 12.1639 9.43031C12.1639 11.8937 10.1735 13.8977 7.72703 13.8977C5.28047 13.8977 3.29016 11.8936 3.29016 9.43031ZM1.5625 23.8759V20.7963C1.5625 17.854 3.95633 15.4602 6.89867 15.4602H8.55547C11.4978 15.4602 13.8916 17.854 13.8916 20.7963V20.8921C12.7403 21.5335 11.8372 22.5852 11.3439 23.8759H1.5625ZM27.5088 26.1646C27.5088 30.6877 21.4834 34.1691 20.017 34.949C18.5413 34.1674 12.4913 30.6857 12.4913 26.1646C12.4913 23.6999 14.2742 21.7693 16.5504 21.7693C17.9606 21.7693 18.8844 22.4907 19.4109 23.096C19.5613 23.2688 19.7801 23.3623 20.0102 23.363C20.2377 23.3605 20.454 23.2574 20.6005 23.0834C20.6077 23.0759 20.6147 23.0683 20.6216 23.0605C21.3817 22.2038 22.3333 21.7694 23.4498 21.7694C25.7258 21.7693 27.5088 23.6999 27.5088 26.1646ZM27.8361 9.43031C27.8361 6.96695 29.8265 4.96289 32.273 4.96289C34.7195 4.96289 36.7098 6.96695 36.7098 9.43031C36.7098 11.8937 34.7195 13.8977 32.273 13.8977C29.8265 13.8977 27.8361 11.8936 27.8361 9.43031Z" fill="black"/>
<path d="M33.5254 24.3583C33.3995 24.051 33.0799 23.8539 32.7488 23.878C32.4242 23.9016 32.1435 24.1298 32.0539 24.4424C31.964 24.7561 32.0845 25.1015 32.3495 25.2919C32.6105 25.4794 32.9708 25.4849 33.238 25.3067C33.5442 25.1024 33.6669 24.6977 33.5254 24.3583Z" fill="black"/>
</g>
<defs>
<clipPath id="clip0">
<rect width="40" height="40" fill="white"/>
</clipPath>
</defs>
</svg>
