<svg width="30" height="30" xmlns="http://www.w3.org/2000/svg">

 <g>
  <title>background</title>
  <rect fill="none" id="canvas_background" height="602" width="802" y="-1" x="-1"/>
 </g>
 <g>
  <title>Layer 1</title>
  <g id="svg_1" opacity="0.5">
   <path id="svg_2" fill="#81C784" d="m3.75,14.02343c-0.37296,0 -0.73065,0.1482 -0.99437,0.4119c-0.26372,0.2637 -0.41188,0.6214 -0.41188,0.9944l0,4.2187l1.875,0l0,-4.2187c0,-0.373 0.14816,-0.7307 0.41188,-0.9944c0.26372,-0.2637 0.62141,-0.4119 0.99437,-0.4119l-1.875,0z"/>
   <path id="svg_3" fill="#66BB6A" d="m2.34375,19.64843l1.875,0l0,-2.8867c-0.52532,0.5373 -1.16671,0.9473 -1.875,1.1983l0,1.6884z"/>
   <path id="svg_4" fill="#F09B73" d="m3.28125,26.67973c1.5533,0 2.8125,-1.679 2.8125,-3.75c0,-2.0711 -1.2592,-3.75 -2.8125,-3.75c-1.5533,0 -2.8125,1.6789 -2.8125,3.75c0,2.071 1.2592,3.75 2.8125,3.75z"/>
   <path id="svg_5" fill="#F09B73" d="m13.5938,22.46073l-1.8675,-2.3343c-0.5795,0.6869 -0.9451,1.6879 -0.9451,2.8031c0,2.071 1.2592,3.75 2.8126,3.75c1.5533,0 2.8124,-1.679 2.8124,-3.75c0,-1.1152 -0.3655,-2.1162 -0.945,-2.8031l-1.8674,2.3343z"/>
   <path id="svg_6" fill="#F09B73" d="m24.375,22.46073l-1.8674,-2.3343c-0.5796,0.6869 -0.9451,1.6879 -0.9451,2.8031c0,2.071 1.2592,3.75 2.8125,3.75c1.5533,0 2.8125,-1.679 2.8125,-3.75c0,-1.1152 -0.3655,-2.1162 -0.9451,-2.8031l-1.8674,2.3343z"/>
   <path id="svg_7" fill="#81C784" d="m15.4688,14.02343c0,1.6828 -0.8395,2.3437 -1.875,2.3437c-1.0356,0 -1.875,-0.6609 -1.875,-2.3437c0,-1.68275 1.875,-3.28125 1.875,-3.28125c0,0 1.875,1.5985 1.875,3.28125z"/>
   <path id="svg_8" fill="#81C784" d="m19.2188,10.74218l1.4062,0c0.9946,0 1.9484,0.39509 2.6516,1.09835c0.7033,0.70326 1.0984,1.65709 1.0984,2.6516l-1.4062,0c-0.9946,0 -1.9484,-0.395 -2.6517,-1.0983c-0.7033,-0.70326 -1.0983,-1.65709 -1.0983,-2.65165z"/>
   <path id="svg_9" fill="#FFEAD2" d="m15.4612,20.12663c-0.4967,-0.5888 -1.1506,-0.9469 -1.8675,-0.9469c-0.7168,0 -1.3707,0.3581 -1.8674,0.9469l1.8674,2.3343l1.8675,-2.3343z"/>
   <path id="svg_10" fill="#FFEAD2" d="m26.2425,20.12663c-0.4967,-0.5888 -1.1506,-0.9469 -1.8675,-0.9469c-0.7169,0 -1.3707,0.3581 -1.8674,0.9469l1.8674,2.3343l1.8675,-2.3343z"/>
   <path id="svg_11" fill="#66BB6A" d="m15.063,12.57226c-0.6967,1.23047 -1.8301,2.15427 -3.1758,2.58857c0.2953,0.8509 0.9481,1.2061 1.7066,1.2061c1.0355,0 1.875,-0.661 1.875,-2.3437c0,-0.50503 -0.1694,-1.00197 -0.4058,-1.45097z"/>
   <path id="svg_12" fill="#E58B6C" d="m5.79799,21.25583c-0.3439,1.0364 -0.97025,1.9563 -1.80856,2.656c-0.83831,0.6997 -1.8553,1.1516 -2.93648,1.3047c0.51428,0.8895 1.32082,1.4631 2.22832,1.4631c1.55332,0 2.8125,-1.6789 2.8125,-3.75c0.00224,-0.5711 -0.09794,-1.138 -0.29578,-1.6738z"/>
   <path id="svg_13" fill="#F2BBA5" d="m1.875,24.33593c0.25888,0 0.46875,-0.2099 0.46875,-0.4688c0,-0.2588 -0.20987,-0.4687 -0.46875,-0.4687c-0.25888,0 -0.46875,0.2099 -0.46875,0.4687c0,0.2589 0.20987,0.4688 0.46875,0.4688z"/>
   <path id="svg_14" fill="#C8E6C9" d="m3.51562,15.89843c0.38833,0 0.70313,-0.3148 0.70313,-0.7031c0,-0.3884 -0.3148,-0.7032 -0.70313,-0.7032c-0.38832,0 -0.70312,0.3148 -0.70312,0.7032c0,0.3883 0.3148,0.7031 0.70312,0.7031z"/>
   <path id="svg_15" fill="#C8E6C9" d="m20.3906,12.14843c0.3884,0 0.7032,-0.3148 0.7032,-0.70312c0,-0.38833 -0.3148,-0.70313 -0.7032,-0.70313c-0.3883,0 -0.7031,0.3148 -0.7031,0.70313c0,0.38832 0.3148,0.70312 0.7031,0.70312z"/>
   <path id="svg_16" fill="#C8E6C9" d="m2.8125,17.30473c0.25888,0 0.46875,-0.2099 0.46875,-0.4688c0,-0.2589 -0.20987,-0.4688 -0.46875,-0.4688c-0.25888,0 -0.46875,0.2099 -0.46875,0.4688c0,0.2589 0.20987,0.4688 0.46875,0.4688z"/>
   <path id="svg_17" fill="#C8E6C9" d="m22.0312,12.61718c0.2589,0 0.4688,-0.20987 0.4688,-0.46875c0,-0.25888 -0.2099,-0.46875 -0.4688,-0.46875c-0.2588,0 -0.4687,0.20987 -0.4687,0.46875c0,0.25888 0.2099,0.46875 0.4687,0.46875z"/>
   <path id="svg_18" fill="#C8E6C9" d="m12.6562,14.02343c0.2589,0 0.4688,-0.2099 0.4688,-0.46875c0,-0.25888 -0.2099,-0.46875 -0.4688,-0.46875c-0.2588,0 -0.4687,0.20987 -0.4687,0.46875c0,0.25885 0.2099,0.46875 0.4687,0.46875z"/>
   <path id="svg_19" fill="#E58B6C" d="m16.1102,21.25683c-0.344,1.0362 -0.9703,1.9559 -1.8086,2.6555c-0.8382,0.6996 -1.8551,1.1513 -2.9362,1.3044c0.5143,0.8895 1.3209,1.4631 2.2284,1.4631c1.5533,0 2.8125,-1.6789 2.8125,-3.75c0.0022,-0.5709 -0.0981,-1.1375 -0.2961,-1.673z"/>
   <path id="svg_20" fill="#F2BBA5" d="m11.9531,22.46093c0.3884,0 0.7031,-0.3148 0.7031,-0.7031c0,-0.3884 -0.3147,-0.7031 -0.7031,-0.7031c-0.3883,0 -0.7031,0.3147 -0.7031,0.7031c0,0.3883 0.3148,0.7031 0.7031,0.7031z"/>
   <path id="svg_21" fill="#F2BBA5" d="m1.17188,22.92973c0.38832,0 0.70312,-0.3148 0.70312,-0.7032c0,-0.3883 -0.3148,-0.7031 -0.70312,-0.7031c-0.38833,0 -0.70313,0.3148 -0.70313,0.7031c0,0.3884 0.3148,0.7032 0.70313,0.7032z"/>
   <path id="svg_22" fill="#F2BBA5" d="m12.6562,23.86713c0.2589,0 0.4688,-0.2098 0.4688,-0.4687c0,-0.2589 -0.2099,-0.4687 -0.4688,-0.4687c-0.2588,0 -0.4687,0.2098 -0.4687,0.4687c0,0.2589 0.2099,0.4687 0.4687,0.4687z"/>
   <path id="svg_23" fill="#E58B6C" d="m26.8914,21.25683c-0.3439,1.0362 -0.9703,1.9559 -1.8085,2.6555c-0.8383,0.6996 -1.8552,1.1513 -2.9362,1.3044c0.5143,0.8895 1.3208,1.4631 2.2283,1.4631c1.5533,0 2.8125,-1.6789 2.8125,-3.75c0.0022,-0.5709 -0.0981,-1.1375 -0.2961,-1.673z"/>
   <path id="svg_24" fill="#F2BBA5" d="m22.7344,22.46093c0.3883,0 0.7031,-0.3148 0.7031,-0.7031c0,-0.3884 -0.3148,-0.7031 -0.7031,-0.7031c-0.3884,0 -0.7032,0.3147 -0.7032,0.7031c0,0.3883 0.3148,0.7031 0.7032,0.7031z"/>
   <path id="svg_25" fill="#F2BBA5" d="m23.4375,23.86713c0.2589,0 0.4687,-0.2098 0.4687,-0.4687c0,-0.2589 -0.2098,-0.4687 -0.4687,-0.4687c-0.2589,0 -0.4687,0.2098 -0.4687,0.4687c0,0.2589 0.2098,0.4687 0.4687,0.4687z"/>
   <path id="svg_26" fill="#66BB6A" d="m23.2637,11.82812c-0.5088,0.91902 -1.2851,1.66155 -2.2258,2.12901c0.5828,0.351 1.2505,0.536 1.9308,0.535l1.4063,0c0.0006,-0.4955 -0.0974,-0.98624 -0.2882,-1.44359c-0.1908,-0.45734 -0.4706,-0.87219 -0.8231,-1.22042z"/>
   <path id="svg_27" fill="#66BB6A" d="m29.5313,10.74218l-1.4063,0c-0.0477,0 -0.095,0.00182 -0.1423,0.00363c-0.2938,1.43754 -1.0306,2.74691 -2.1068,3.74412c0.9777,-0.0244 1.9072,-0.43 2.5901,-1.13021c0.6829,-0.70017 1.0652,-1.63948 1.0653,-2.61754z"/>
   <path id="svg_28" fill="black" d="m4.6875,19.11883l0,-3.6891c0.00029,-0.2486 0.09916,-0.4869 0.27491,-0.6626c0.17575,-0.1758 0.41404,-0.2747 0.66259,-0.275c0.12432,0 0.24355,-0.0493 0.33146,-0.1372c0.0879,-0.088 0.13729,-0.2072 0.13729,-0.3315c0,-0.1243 -0.04939,-0.2435 -0.13729,-0.33146c-0.08791,-0.0879 -0.20714,-0.13729 -0.33146,-0.13729l-1.875,0c-0.49711,0.00056 -0.9737,0.19825 -1.32521,0.54975c-0.35151,0.3516 -0.54923,0.8281 -0.54979,1.3253l0,3.6839c-0.65285,0.3952 -0.06404,1.1553 0.43688,0.832c0.15474,-0.1007 0.32341,-0.1782 0.50062,-0.23l0,3.2141c0,0.1243 0.04939,0.2435 0.13729,0.3314c0.08791,0.0879 0.20714,0.1373 0.33146,0.1373c0.12432,0 0.24355,-0.0494 0.33146,-0.1373c0.0879,-0.0879 0.13729,-0.2071 0.13729,-0.3314l0,-3.2153c1.06846,0.3047 1.875,1.6306 1.875,3.2153c0,1.8093 -1.05141,3.2812 -2.34375,3.2812c-1.29234,0 -2.34375,-1.4719 -2.34375,-3.2812c0,-0.704 -0.9375,-0.7123 -0.9375,0c0,2.3261 1.47193,4.2187 3.28125,4.2187c1.80932,0 3.28125,-1.8926 3.28125,-4.2187c0,-1.6796 -0.76758,-3.1326 -1.875,-3.8109zm-0.9375,-0.3642c-0.30978,-0.0581 -0.62764,-0.0583 -0.9375,-0.0006l0,-3.3243c0.00029,-0.2486 0.09916,-0.4869 0.27491,-0.6626c0.17575,-0.1758 0.41404,-0.2747 0.66259,-0.275l0.25195,0c-0.42416,0.7311 -0.18129,1.1887 -0.25195,4.2625z"/>
   <path id="svg_29" fill="black" d="m15.7224,19.72293c-0.4611,-0.5066 -1.0319,-0.8522 -1.6599,-0.9683l0,-1.9583c1.1832,-0.2051 1.875,-1.2085 1.875,-2.7729c0,-1.58577 -1.7625,-3.74483 -2.3399,-3.74999c-0.1127,-0.0007 -0.2219,0.03898 -0.3079,0.11185c-0.0833,0.0712 -2.0397,1.76063 -2.0397,3.63814c0,1.5645 0.6918,2.5681 1.875,2.7729l0,1.957c-1.3086,0.2363 -2.21,1.3778 -2.5916,2.6461c-0.0178,0.0589 -0.0237,0.1208 -0.0176,0.182c0.0062,0.0613 0.0244,0.1207 0.0535,0.1749c0.0292,0.0543 0.0687,0.1022 0.1164,0.1412c0.0476,0.0389 0.1025,0.0681 0.1615,0.0858c0.0589,0.0178 0.1208,0.0237 0.182,0.0176c0.0613,-0.0062 0.1207,-0.0244 0.1749,-0.0535c0.0543,-0.0292 0.1022,-0.0687 0.1412,-0.1164c0.0389,-0.0476 0.0681,-0.1025 0.0858,-0.1615c0.0787,-0.2647 0.186,-0.5201 0.32,-0.7617c2.284,2.716 1.3985,2.7194 3.6861,-0.0009c1.2081,2.1534 0.0974,5.304 -1.8434,5.304c-0.7169,0 -1.387,-0.4577 -1.8385,-1.2557c-0.0612,-0.1082 -0.1629,-0.1876 -0.2827,-0.2208c-0.1198,-0.0333 -0.2479,-0.0175 -0.3561,0.0437c-0.1082,0.0612 -0.1877,0.1629 -0.2209,0.2827c-0.0333,0.1198 -0.0175,0.2479 0.0437,0.3561c0.6135,1.0842 1.6056,1.7315 2.6545,1.7315c2.7052,0 4.6533,-4.6512 2.1286,-7.4255zm-1.6599,-7.80887c0.4533,0.55963 0.9375,1.33793 0.9375,2.10937c0,0.7253 -0.1758,1.5683 -0.9375,1.8081l0,-3.91747zm-1.875,2.10937c0,-0.77173 0.4843,-1.55009 0.9375,-2.10937l0,3.91777c-0.7617,-0.2401 -0.9375,-1.0831 -0.9375,-1.8084zm1.4063,7.6871l-1.2461,-1.5575c0.7512,-0.6637 1.7201,-0.682 2.4923,0l-1.2462,1.5575z"/>
   <path id="svg_30" fill="black" d="m25.7812,14.96093c1.1185,-0.0013 2.1909,-0.4461 2.9818,-1.237c0.7909,-0.79093 1.2357,-1.86325 1.237,-2.98175c0,-0.12432 -0.0494,-0.24355 -0.1373,-0.33146c-0.0879,-0.0879 -0.2071,-0.13729 -0.3315,-0.13729l-1.4062,0c-0.775,0.00073 -1.5349,0.21477 -2.1963,0.61866c-0.6615,0.40389 -1.199,0.98204 -1.5537,1.67112c-0.3547,-0.68908 -0.8922,-1.26723 -1.5537,-1.67112c-0.6614,-0.40389 -1.4213,-0.61793 -2.1963,-0.61866l-1.4062,0c-0.1244,0 -0.2436,0.04939 -0.3315,0.13729c-0.0879,0.08791 -0.1373,0.20714 -0.1373,0.33146c0.0013,1.1185 0.4461,2.19082 1.237,2.98175c0.7909,0.7909 1.8633,1.2357 2.9818,1.237l0.9374,0l0,3.7925c-1.2996,0.2348 -2.2064,1.3657 -2.5916,2.6461c-0.0177,0.0589 -0.0237,0.1208 -0.0175,0.182c0.0061,0.0613 0.0243,0.1207 0.0534,0.175c0.0292,0.0542 0.0687,0.1021 0.1164,0.1411c0.0477,0.0389 0.1025,0.0681 0.1615,0.0858c0.119,0.0359 0.2474,0.0229 0.357,-0.0359c0.0542,-0.0291 0.1021,-0.0687 0.1411,-0.1164c0.0389,-0.0476 0.0681,-0.1025 0.0859,-0.1615c0.0787,-0.2647 0.1859,-0.5201 0.3199,-0.7617c2.284,2.716 1.3985,2.7194 3.6861,-0.0008c1.2082,2.1532 0.0975,5.3038 -1.8434,5.3038c-0.7168,0 -1.387,-0.4577 -1.8385,-1.2557c-0.0612,-0.1082 -0.1629,-0.1876 -0.2827,-0.2208c-0.1198,-0.0333 -0.2479,-0.0175 -0.3561,0.0437c-0.1082,0.0612 -0.1877,0.1629 -0.2209,0.2827c-0.0332,0.1198 -0.0175,0.2479 0.0437,0.3561c1.8555,3.2789 5.9357,1.596 5.9357,-2.4872c0,-1.8636 -1.0323,-3.8461 -2.8124,-4.1751l0,-3.7937l0.9374,0zm2.3438,-3.75l0.9042,0c-0.1138,0.78054 -0.5045,1.49412 -1.1008,2.01047c-0.5963,0.51633 -1.3584,0.80103 -2.1472,0.80203l-0.9041,0c0.1137,-0.78054 0.5044,-1.49412 1.1007,-2.01047c0.5963,-0.51636 1.3584,-0.80102 2.1472,-0.80203zm-5.1562,2.8125c-0.7888,-0.001 -1.5509,-0.2857 -2.1472,-0.80203c-0.5963,-0.51635 -0.987,-1.22993 -1.1008,-2.01047l0.9042,0c0.7888,0.00101 1.5509,0.28567 2.1472,0.80203c0.5963,0.51635 0.987,1.22993 1.1007,2.01047l-0.9041,0zm2.6524,6.1293l-1.2462,1.5578l-1.2461,-1.5576c0.7512,-0.6635 1.72,-0.682 2.4923,-0.0002z"/>
   <path id="svg_31" fill="black" d="m10.1752,17.50053l-1.34763,-1.3476c-0.08791,-0.0879 -0.20714,-0.1373 -0.33146,-0.1373c-0.12433,0 -0.24356,0.0494 -0.33147,0.1373c-0.08791,0.0879 -0.1373,0.2071 -0.1373,0.3315c0,0.1243 0.04939,0.2435 0.1373,0.3314l1.01625,1.0162l-1.01625,1.0162c-0.0653,0.0657 -0.10972,0.1492 -0.12766,0.24c-0.01795,0.0908 -0.00861,0.185 0.02682,0.2705c0.03544,0.0856 0.0954,0.1587 0.17232,0.2103c0.07693,0.0515 0.16739,0.0792 0.25999,0.0794c0.33984,0 0.35156,-0.2203 1.67909,-1.4849c0.0436,-0.0436 0.0781,-0.0952 0.1016,-0.1521c0.0236,-0.0569 0.0357,-0.1178 0.0357,-0.1794c0,-0.0616 -0.0121,-0.1225 -0.0357,-0.1794c-0.0235,-0.0569 -0.058,-0.1085 -0.1016,-0.1521z"/>
   <path id="svg_32" fill="black" d="m19.5502,16.15293c-0.0435,-0.0435 -0.0952,-0.0781 -0.1521,-0.1016c-0.0568,-0.0236 -0.1178,-0.0357 -0.1793,-0.0357c-0.0616,0 -0.1226,0.0121 -0.1794,0.0357c-0.0569,0.0235 -0.1086,0.0581 -0.1521,0.1016c-0.0435,0.0435 -0.0781,0.0952 -0.1016,0.1521c-0.0236,0.0568 -0.0357,0.1178 -0.0357,0.1794c0,0.0615 0.0121,0.1225 0.0357,0.1793c0.0235,0.0569 0.0581,0.1086 0.1016,0.1521l1.0162,1.0162l-1.0162,1.0162c-0.0653,0.0657 -0.1097,0.1492 -0.1277,0.24c-0.0179,0.0908 -0.0086,0.185 0.0269,0.2705c0.0354,0.0856 0.0954,0.1587 0.1723,0.2103c0.0769,0.0515 0.1674,0.0792 0.26,0.0794c0.3398,0 0.3515,-0.2203 1.6791,-1.4849c0.0435,-0.0436 0.078,-0.0952 0.1016,-0.1521c0.0236,-0.0569 0.0357,-0.1178 0.0357,-0.1794c0,-0.0616 -0.0121,-0.1225 -0.0357,-0.1794c-0.0236,-0.0569 -0.0581,-0.1085 -0.1016,-0.1521l-1.3477,-1.3476z"/>
   <path id="svg_33" fill="black" d="m0.9375,21.52343c0.25888,0 0.46875,-0.2099 0.46875,-0.4687c0,-0.2589 -0.20987,-0.4688 -0.46875,-0.4688c-0.25888,0 -0.46875,0.2099 -0.46875,0.4688c0,0.2588 0.20987,0.4687 0.46875,0.4687z"/>
   <path id="svg_34" fill="black" d="m10.7812,23.86713c0.2589,0 0.4688,-0.2098 0.4688,-0.4687c0,-0.2589 -0.2099,-0.4687 -0.4688,-0.4687c-0.2588,0 -0.4687,0.2098 -0.4687,0.4687c0,0.2589 0.2099,0.4687 0.4687,0.4687z"/>
   <path id="svg_35" fill="black" d="m21.5625,23.86713c0.2589,0 0.4687,-0.2098 0.4687,-0.4687c0,-0.2589 -0.2098,-0.4687 -0.4687,-0.4687c-0.2589,0 -0.4687,0.2098 -0.4687,0.4687c0,0.2589 0.2098,0.4687 0.4687,0.4687z"/>
  </g>
 </g>
</svg>