<svg width="60" height="60" viewBox="0 0 60 60" fill="none" xmlns="http://www.w3.org/2000/svg">
<path d="M55.6949 11.7062L50.922 7.94107L51.3181 1.87446C51.3662 1.14792 50.9853 0.552625 50.4416 0.239744C49.899 -0.0743082 49.1924 -0.104776 48.5877 0.298336L43.5324 3.67323L37.8842 1.4233C36.533 0.884256 35.1479 2.13226 35.5417 3.53261L37.1904 9.3836L33.3046 14.0592C32.3742 15.1783 33.1335 16.8822 34.5866 16.9396L40.6614 17.1798L43.9062 22.3207C44.6855 23.5535 46.5394 23.3507 47.0421 21.9914L49.1479 16.2881L55.0399 14.7893C56.4496 14.4307 56.8375 12.6062 55.6949 11.7062Z" fill="#FED843"/>
<path d="M17.1098 49.4531H1.7587C0.787953 49.4531 0.000946045 50.2401 0.000946045 51.2109V58.2419C0.000946045 59.2127 0.787953 59.9997 1.7587 59.9997H17.1098C18.0805 59.9997 18.8675 59.2127 18.8675 58.2419V51.2109C18.8675 50.2401 18.0805 49.4531 17.1098 49.4531Z" fill="#FED843"/>
<path d="M31.7577 42.4219H17.1098C16.139 42.4219 15.352 43.2089 15.352 44.1796V59.9995H31.7577C32.7285 59.9995 33.5155 59.2125 33.5155 58.2417V44.1796C33.5155 43.2089 32.7285 42.4219 31.7577 42.4219Z" fill="#FFB64C"/>
<path d="M45.2339 35.3911H31.7578C30.787 35.3911 30 36.1781 30 37.1489V59.9997H45.2339C46.2046 59.9997 46.9916 59.2127 46.9916 58.242V37.1489C46.9916 36.1781 46.2046 35.3911 45.2339 35.3911Z" fill="#FED843"/>
<path d="M58.2413 59.9995H43.4761V30.1176C43.4761 29.1469 44.2631 28.3599 45.2339 28.3599H58.2413C59.212 28.3599 59.999 29.1469 59.999 30.1176V58.2417C59.999 59.2125 59.212 59.9995 58.2413 59.9995Z" fill="#FFB64C"/>
<path d="M8.9069 38.9072C7.93615 38.9072 7.14914 38.1202 7.14914 37.1494C7.14914 34.2417 9.51473 31.8761 12.4224 31.8761H19.4534C20.4227 31.8761 21.2112 31.0876 21.2112 30.1184C21.2112 27.2107 23.5768 24.8451 26.4845 24.8451H33.5155C34.4847 24.8451 35.2733 24.0566 35.2733 23.0873C35.2733 22.1166 36.0603 21.3296 37.031 21.3296C38.0018 21.3296 38.7888 22.1166 38.7888 23.0873C38.7888 25.995 36.4232 28.3606 33.5155 28.3606H26.4845C25.5152 28.3606 24.7267 29.1491 24.7267 30.1184C24.7267 33.0261 22.3611 35.3916 19.4534 35.3916H12.4224C11.4532 35.3916 10.6647 36.1802 10.6647 37.1494C10.6647 38.1202 9.87765 38.9072 8.9069 38.9072Z" fill="#EFE2DD"/>
<path d="M55.0399 14.7893L49.1479 16.2881L47.0421 21.9914C46.5393 23.3507 44.6855 23.5535 43.9062 22.3207L40.6614 17.1798L50.4416 0.239746C50.9853 0.552627 51.3661 1.14792 51.3181 1.87446L50.922 7.94107L55.6949 11.7062C56.8375 12.6062 56.4496 14.4307 55.0399 14.7893Z" fill="#FFB64C"/>
</svg>
