<svg width="643" height="316" viewBox="0 0 643 316" fill="none" xmlns="http://www.w3.org/2000/svg">
<g clip-path="url(#clip0)">
<path d="M60.7765 132L38.2598 154.517L19.802 136.056L0 155.861" stroke="#F4FAFB" stroke-width="7.96325" stroke-linecap="round" stroke-linejoin="round"/>
<path d="M15 24H39.6523V44.2074H61.334V66.4876" stroke="#F4FAFB" stroke-width="7.96325" stroke-linecap="round" stroke-linejoin="round"/>
<path d="M292.861 60.7765L270.344 38.2622L288.804 19.802L269 0" stroke="#F4FAFB" stroke-width="7.96325" stroke-linecap="round" stroke-linejoin="round"/>
<path d="M255.331 108.239L216.225 147.346" stroke="#F4FAFB" stroke-width="7.96325" stroke-linecap="round" stroke-linejoin="round"/>
<path d="M164 40L184.618 60.62" stroke="#F4FAFB" stroke-width="7.96325" stroke-linecap="round" stroke-linejoin="round"/>
<path d="M374.045 251.438L394.665 272.058" stroke="#F4FAFB" stroke-width="7.96325" stroke-linecap="round" stroke-linejoin="round"/>
<path d="M414 14L434.62 34.62" stroke="#F4FAFB" stroke-width="7.96325" stroke-linecap="round" stroke-linejoin="round"/>
<path d="M577 118L607.118 148.118" stroke="#F4FAFB" stroke-width="7.96325" stroke-linecap="round" stroke-linejoin="round"/>
<path d="M139 108.239L158.059 127.298" stroke="#F4FAFB" stroke-width="7.96325" stroke-linecap="round" stroke-linejoin="round"/>
<path d="M144 216L186.292 258.292" stroke="#F4FAFB" stroke-width="7.96325" stroke-linecap="round" stroke-linejoin="round"/>
<path d="M269.812 152.86C273.822 152.86 277.073 149.609 277.073 145.599C277.073 141.589 273.822 138.338 269.812 138.338C265.802 138.338 262.551 141.589 262.551 145.599C262.551 149.609 265.802 152.86 269.812 152.86Z" fill="#F4FAFB"/>
<path d="M410.291 238.434V213.784H430.501V192.102H452.781" stroke="#F4FAFB" stroke-width="7.96325" stroke-linecap="round" stroke-linejoin="round"/>
<path d="M87.7765 267L65.2598 289.517L46.802 271.056L27 290.861" stroke="#F4FAFB" stroke-width="7.96325" stroke-linecap="round" stroke-linejoin="round"/>
<path d="M524 172L563.107 211.107" stroke="#F4FAFB" stroke-width="7.96325" stroke-linecap="round" stroke-linejoin="round"/>
<path d="M333.951 85.5393L373.058 124.646" stroke="#F4FAFB" stroke-width="7.96325" stroke-linecap="round" stroke-linejoin="round"/>
<path d="M453.996 252.097L473.055 233.038" stroke="#F4FAFB" stroke-width="7.96325" stroke-linecap="round" stroke-linejoin="round"/>
<path d="M296.441 174.339L315.5 155.28" stroke="#F4FAFB" stroke-width="7.96325" stroke-linecap="round" stroke-linejoin="round"/>
<path d="M601 316.292L643.292 274" stroke="#F4FAFB" stroke-width="7.96325" stroke-linecap="round" stroke-linejoin="round"/>
<path d="M493.529 139.887C497.539 139.887 500.79 136.636 500.79 132.626C500.79 128.616 497.539 125.365 493.529 125.365C489.518 125.365 486.268 128.616 486.268 132.626C486.268 136.636 489.518 139.887 493.529 139.887Z" fill="#F4FAFB"/>
<path d="M503.587 66.5697C507.598 66.5697 510.848 63.3188 510.848 59.3086C510.848 55.2985 507.598 52.0476 503.587 52.0476C499.577 52.0476 496.326 55.2985 496.326 59.3086C496.326 63.3188 499.577 66.5697 503.587 66.5697Z" fill="#F4FAFB"/>
<path d="M267.618 272.632C271.629 272.632 274.879 269.381 274.879 265.371C274.879 261.361 271.629 258.11 267.618 258.11C263.608 258.11 260.357 261.361 260.357 265.371C260.357 269.381 263.608 272.632 267.618 272.632Z" fill="#F4FAFB"/>
<path d="M512.575 269.01C516.586 269.01 519.837 265.759 519.837 261.749C519.837 257.739 516.586 254.488 512.575 254.488C508.565 254.488 505.314 257.739 505.314 261.749C505.314 265.759 508.565 269.01 512.575 269.01Z" fill="#F4FAFB"/>
<path d="M389.872 85.3656C393.883 85.3656 397.133 82.1146 397.133 78.1045C397.133 74.0944 393.883 70.8435 389.872 70.8435C385.862 70.8435 382.611 74.0944 382.611 78.1045C382.611 82.1146 385.862 85.3656 389.872 85.3656Z" fill="#F4FAFB"/>
<path d="M75.261 196.522C79.2712 196.522 82.5221 193.271 82.5221 189.261C82.5221 185.251 79.2712 182 75.261 182C71.2509 182 68 185.251 68 189.261C68 193.271 71.2509 196.522 75.261 196.522Z" fill="#F4FAFB"/>
<path d="M411.09 168.936L431.71 148.316" stroke="#F2F6F9" stroke-width="7.96325" stroke-linecap="round" stroke-linejoin="round"/>
<path d="M373.967 84.8009L372.596 90.8337L372.314 90.7323C369.84 89.8057 368.627 88.4568 367.092 87.1706L368.462 81.1499C368.571 81.2392 368.677 81.3309 368.779 81.4202L369.261 81.8304L369.502 82.0428L369.744 82.2551L370.004 82.4795C370.079 82.5447 370.159 82.6098 370.246 82.675C370.371 82.7787 370.487 82.8825 370.632 82.9815L370.873 83.1648C371.035 83.2831 371.201 83.4062 371.373 83.5147C371.426 83.5534 371.484 83.5896 371.539 83.6258C371.71 83.7392 371.891 83.8453 372.077 83.9539C372.171 84.0046 372.263 84.0577 372.357 84.106C372.555 84.2097 372.758 84.3111 372.973 84.4076L373.12 84.4728C373.308 84.5548 373.503 84.6344 373.706 84.7141L373.967 84.8009Z" fill="#24272D"/>
<path d="M362.146 78.1045L360.776 84.1252C357.88 83.3699 354.646 82.8124 354.646 82.8124L356.02 76.7917C356.02 76.7917 359.243 77.3419 362.146 78.1045Z" fill="#24272D"/>
<path d="M367.092 87.1608L365.781 92.9064C364.403 91.9918 363.088 91.1207 361.011 90.3992C360.475 90.2134 359.958 90.0493 359.459 89.9021L360.777 84.1251C361.315 84.2675 361.843 84.4123 362.34 84.5643C364.091 85.0819 365.711 85.967 367.092 87.1608V87.1608Z" fill="#24272D"/>
<path d="M369.692 75.6913L368.451 81.1401C368.234 80.9567 368.007 80.7757 367.771 80.5972L367.607 80.4741C367.236 80.2002 366.849 79.948 366.449 79.7188C366.362 79.6657 366.275 79.6174 366.183 79.5692C366.089 79.5161 365.993 79.4678 365.896 79.4196C365.799 79.3713 365.679 79.311 365.568 79.2603L365.401 79.1831C365.29 79.1324 365.174 79.0817 365.056 79.0359L364.878 78.9611C364.757 78.9128 364.636 78.8646 364.508 78.8187C364.381 78.7729 364.253 78.727 364.12 78.6836C363.987 78.6401 363.852 78.5919 363.712 78.5509C363.471 78.4736 363.205 78.4012 362.947 78.3264C362.689 78.2516 362.419 78.1816 362.148 78.1117L363.389 72.6653C363.929 72.8052 364.458 72.95 364.952 73.1045C366.699 73.6177 368.315 74.5 369.692 75.6913Z" fill="#24272D"/>
<path d="M379.263 92.3031L378.088 97.4672C378.088 97.4672 375.576 97.3465 371.862 96.0483L371.439 95.8963L372.595 90.8287C374.749 91.5922 376.987 92.0874 379.263 92.3031Z" fill="#24272D"/>
<path d="M381.877 80.8338L380.636 86.285C380.636 86.285 380.395 86.2682 379.963 86.2151L379.763 86.1909H379.741L379.403 86.1475H379.381C378.238 85.9805 377.103 85.746 375.986 85.4453L375.595 85.3367L375.195 85.2185C374.794 85.0978 374.385 84.9627 373.969 84.8131L375.209 79.3643C377.362 80.127 379.601 80.6208 381.877 80.8338Z" fill="#24272D"/>
<path d="M348.018 108.239L356.478 71.0991" stroke="#1C2028" stroke-width="1.68917"/>
<path d="M223.444 144.076L214.868 172.481L213.828 176.074L226.157 176.805L228.999 163.644L223.444 144.076Z" fill="#3361C2"/>
<path d="M344.959 234.266L340.055 239.744C336.076 244.186 330.571 246.966 324.634 247.532C318.698 248.097 312.767 246.405 308.021 242.794L223.184 178.239L235.905 160.44L344.959 234.266Z" fill="#EA6F57"/>
<path d="M343.205 123.191C343.205 123.191 339.641 101.362 343.205 99.7283C346.769 98.0946 351.967 101.509 351.967 101.509C351.967 101.509 357.015 102.996 357.312 104.776C357.609 106.557 355.531 115.023 354.344 115.619C353.157 116.215 353.152 120.964 353.152 120.964" fill="#EA6F57"/>
<path d="M242.561 177.476L255.748 202.746L265.673 195.061L260.413 184.443L242.561 177.476Z" fill="#3361C2"/>
<path d="M364.438 264.413L363.432 266.686C363.01 267.606 362.68 268.566 362.445 269.551C361.984 271.37 362.672 272.446 361.54 275.316C360.257 278.566 363.905 277.121 364.812 275.694C365.52 274.58 365.237 273.103 366.26 272.413C366.697 272.941 367.633 273.689 368.673 278.313C368.862 279.143 367.911 284.828 371.656 285.617C374.738 285.728 377.006 280.677 377.317 279.053C377.727 276.972 377.645 274.823 377.076 272.779C376.504 270.523 376.535 269.758 375.085 267.007C374.384 265.751 373.577 264.558 372.672 263.441" fill="#EA6F57"/>
<path d="M330.905 259.354L235.29 187.225C232.306 184.974 228.062 185.568 225.81 188.552L225.809 188.554C223.558 191.539 224.152 195.783 227.136 198.034L322.751 270.164C325.735 272.415 329.979 271.821 332.231 268.836L332.232 268.835C334.484 265.85 333.889 261.606 330.905 259.354Z" fill="#80CF69"/>
<path d="M433.833 131.286L321.812 260.287C319.361 263.11 319.663 267.385 322.485 269.836L322.487 269.838C325.309 272.289 329.585 271.988 332.036 269.165L444.055 140.164C446.507 137.341 446.205 133.066 443.384 130.615L443.382 130.614C440.559 128.163 436.283 128.464 433.833 131.286Z" fill="#80CF69"/>
<path d="M354.216 116.446L336.692 120.457C336.692 120.457 338.029 150.138 340.035 156.383C341.395 160.619 347.435 174.485 351.18 182.969C350.668 183.241 350.194 183.541 349.762 183.866C348.14 185.083 346.948 187.222 345.333 190.116C342.561 195.087 338.544 202.29 328.97 210.893C322.31 216.877 338.254 245.492 338.254 245.492L364.113 217.012C364.349 222.056 364.384 227.321 363.895 231.286C362.585 241.921 358.828 264.797 358.828 264.797H377.819C377.819 264.797 382.404 237.085 382.886 229.191C383.369 221.298 381.074 190.845 381.074 190.845L378.963 191.977C378.741 188.771 377.536 185.681 374.227 184.055L374.523 183.97L357.892 150.751L354.216 116.446Z" fill="#3361C2"/>
<mask id="mask0" mask-type="alpha" maskUnits="userSpaceOnUse" x="327" y="116" width="56" height="149">
<path fill-rule="evenodd" clip-rule="evenodd" d="M354.216 116.446L336.692 120.457C336.692 120.457 338.029 150.138 340.035 156.383C341.395 160.619 347.435 174.485 351.18 182.969C350.668 183.241 350.194 183.541 349.762 183.866C348.14 185.083 346.948 187.222 345.333 190.116C342.561 195.087 338.544 202.29 328.97 210.893C322.31 216.877 338.254 245.492 338.254 245.492L364.113 217.012C364.349 222.056 364.384 227.321 363.895 231.286C362.585 241.921 358.828 264.797 358.828 264.797H377.819C377.819 264.797 382.404 237.085 382.886 229.191C383.369 221.298 381.074 190.845 381.074 190.845L378.963 191.977C378.741 188.771 377.536 185.681 374.227 184.055L374.523 183.97L357.892 150.751L354.216 116.446Z" fill="white"/>
</mask>
<g mask="url(#mask0)">
<path d="M329.545 129.726H341.623V140.268H350.797V150.881" stroke="#FFC774" stroke-width="4.34359" stroke-linecap="round" stroke-linejoin="round"/>
<path d="M349.48 125.418H360.776" stroke="#FFC774" stroke-width="4.34359" stroke-linecap="round" stroke-linejoin="round"/>
<path d="M334.738 156.9L353.15 169.301" stroke="#FFC774" stroke-width="4.34359" stroke-linecap="round" stroke-linejoin="round"/>
<path d="M357.039 161.207L370.796 147.45" stroke="#FFC774" stroke-width="4.34359" stroke-linecap="round" stroke-linejoin="round"/>
<path d="M363.277 175.447L360.777 179.158" stroke="#FFC774" stroke-width="4.34359" stroke-linecap="round" stroke-linejoin="round"/>
<path d="M335.133 220.403L341.841 223.434" stroke="#FFC774" stroke-width="4.34359" stroke-linecap="round" stroke-linejoin="round"/>
<path d="M345.902 182.845L356.02 188.383L352.246 198.777L362.027 202.044" stroke="#FFC774" stroke-width="4.34359" stroke-linecap="round" stroke-linejoin="round"/>
<path d="M345.904 213.033L337.861 193.282" stroke="#FFC774" stroke-width="4.34359" stroke-linecap="round" stroke-linejoin="round"/>
<path d="M354.649 211.549L352.248 232.784" stroke="#FFC774" stroke-width="4.34359" stroke-linecap="round" stroke-linejoin="round"/>
<path d="M369.639 224.925L388.898 238.13" stroke="#FFC774" stroke-width="4.34359" stroke-linecap="round" stroke-linejoin="round"/>
<path d="M364.454 236.136L361.008 242.661L369.461 247.432L363.517 255.108L370.071 260.95" stroke="#FFC774" stroke-width="4.34359" stroke-linecap="round" stroke-linejoin="round"/>
<path d="M377.797 247.335L384.532 255.95" stroke="#FFC774" stroke-width="4.34359" stroke-linecap="round" stroke-linejoin="round"/>
</g>
<path d="M394.262 168.194C400.415 164.41 403.002 157.437 400.039 152.619C397.076 147.801 389.687 146.963 383.533 150.747C377.38 154.531 374.794 161.504 377.756 166.322C380.72 171.14 388.109 171.978 394.262 168.194Z" fill="#24272D"/>
<path d="M366.124 191.6C365.326 190.302 364.974 188.78 365.12 187.264C365.267 185.748 365.904 184.321 366.934 183.2L383.071 165.642C384.331 164.29 386.073 163.491 387.921 163.419C389.767 163.348 391.567 164.009 392.928 165.26C394.287 166.511 395.098 168.249 395.182 170.095C395.267 171.941 394.615 173.745 393.375 175.114L377.238 192.671C376.507 193.468 375.599 194.084 374.589 194.471C373.578 194.858 372.491 195.006 371.414 194.902C370.337 194.798 369.299 194.446 368.381 193.873C367.463 193.3 366.69 192.522 366.124 191.6V191.6Z" fill="#EA6F57"/>
<path d="M371.45 180.816L370.521 179.952C369.441 178.947 368.596 177.716 368.046 176.348C367.496 174.979 367.255 173.506 367.338 172.033C367.422 170.561 367.83 169.125 368.532 167.827C369.233 166.53 370.213 165.403 371.399 164.527L377.28 160.184C379.179 158.783 381.51 158.095 383.866 158.242C386.221 158.389 388.448 159.361 390.159 160.987V160.987C392.087 162.823 393.207 165.349 393.274 168.01C393.339 170.671 392.345 173.25 390.511 175.179L385.562 180.382C383.74 182.297 381.238 183.417 378.595 183.498C375.953 183.579 373.386 182.615 371.45 180.816V180.816Z" fill="#EA6F57"/>
<path d="M379.138 164.81L372.77 166.697L374.053 168.876" stroke="#25282D" stroke-width="0.723932"/>
<path d="M379.658 169.301C380.336 169.301 380.886 168.751 380.886 168.072C380.886 167.394 380.336 166.844 379.658 166.844C378.98 166.844 378.43 167.394 378.43 168.072C378.43 168.751 378.98 169.301 379.658 169.301Z" fill="#24272D"/>
<path d="M376.568 164.272C377.246 164.272 377.796 163.722 377.796 163.043C377.796 162.365 377.246 161.815 376.568 161.815C375.89 161.815 375.34 162.365 375.34 163.043C375.34 163.722 375.89 164.272 376.568 164.272Z" fill="#24272D"/>
<path d="M373.348 172.365C373.348 172.365 374.209 173.606 375.652 173.449" stroke="#25282D" stroke-width="0.723932"/>
<path d="M403.98 220.13C391.149 229.609 388.517 215.454 388.517 215.454C388.517 215.454 378.155 231.911 369.325 214.773C360.496 197.635 369.378 186.009 376.422 182.551C379.226 181.176 382.129 181.291 385.071 181.632C380.93 171.808 387.17 168.157 387.17 168.157C387.17 168.157 372.73 157.209 383.828 150.541C394.926 143.874 405.44 153.053 409.448 159.832C410.288 161.259 410.905 162.805 411.284 164.416C412.534 169.6 412.303 174.351 415.736 180.138C425.222 196.122 411.207 206.836 411.207 206.836C411.207 206.836 412.664 213.714 403.98 220.13Z" fill="#24272D"/>
<path d="M389.466 181.343C391.935 180.964 393.629 178.657 393.25 176.189C392.871 173.721 390.564 172.027 388.096 172.406L384.032 173.03C381.563 173.409 379.869 175.717 380.248 178.185C380.627 180.653 382.936 182.346 385.405 181.967L389.466 181.343Z" fill="#EA6F57"/>
<path d="M390.294 176.803L384.531 177.684" stroke="#25282D" stroke-width="0.723932"/>
<path d="M258.061 176.077C258.273 177.766 263.109 199.496 263.109 199.496L304.373 194.361L307.001 232.278C307.185 234.938 307.899 237.533 309.102 239.913C310.304 242.293 311.97 244.408 314.001 246.134C316.033 247.861 318.389 249.164 320.931 249.966C323.474 250.769 326.151 251.055 328.806 250.808V250.808C330.593 250.641 332.323 250.094 333.882 249.203C335.44 248.312 336.79 247.099 337.841 245.644C338.892 244.189 339.62 242.527 339.976 240.767C340.333 239.008 340.308 237.193 339.906 235.444L327.017 179.46C326.172 175.785 323.967 172.566 320.846 170.449C317.725 168.332 313.918 167.474 310.191 168.048L258.061 176.077Z" fill="#EA6F57"/>
</g>
<defs>
<clipPath id="clip0">
<rect width="643" height="316" fill="white"/>
</clipPath>
</defs>
</svg>
