<svg id="Layer_1" data-name="Layer 1" xmlns="http://www.w3.org/2000/svg" xmlns:xlink="http://www.w3.org/1999/xlink" viewBox="0 0 270 270.01"><defs><style>.cls-1{fill:none;}.cls-2{clip-path:url(#clip-path);}.cls-3{fill:rgba(60,63,89,0.1);}.cls-4{clip-path:url(#clip-path-2);}.cls-5{clip-path:url(#clip-path-3);}.cls-6{clip-path:url(#clip-path-4);}</style><clipPath id="clip-path"><rect class="cls-1" y="135.02" width="135" height="135"/></clipPath><clipPath id="clip-path-2"><rect class="cls-1" x="135" y="135.01" width="135" height="135"/></clipPath><clipPath id="clip-path-3"><rect class="cls-1" width="135" height="135"/></clipPath><clipPath id="clip-path-4"><rect class="cls-1" x="135" y="0.01" width="135" height="135"/></clipPath></defs><title>square</title><g class="cls-2"><rect class="cls-3" x="-458.58" y="435.75" width="852" height="1" transform="translate(-318.02 104.74) rotate(-45)"/><rect class="cls-3" x="-460.71" y="433.62" width="852" height="1" transform="translate(-317.13 102.61) rotate(-45)"/><rect class="cls-3" x="-462.82" y="431.5" width="852" height="1" transform="translate(-316.25 100.49) rotate(-45)"/><rect class="cls-3" x="-464.95" y="429.38" width="852" height="1" transform="translate(-315.38 98.37) rotate(-45)"/><rect class="cls-3" x="-467.07" y="427.26" width="852" height="1" transform="translate(-314.5 96.25) rotate(-45)"/><rect class="cls-3" x="-469.18" y="425.14" width="852" height="1" transform="translate(-313.62 94.13) rotate(-45)"/><rect class="cls-3" x="-471.3" y="423.02" width="852" height="1" transform="translate(-312.74 92.01) rotate(-45)"/><rect class="cls-3" x="-473.43" y="420.9" width="852" height="1" transform="translate(-311.87 89.89) rotate(-45)"/><rect class="cls-3" x="-475.55" y="418.77" width="852" height="1" transform="translate(-310.98 87.77) rotate(-45)"/><rect class="cls-3" x="-477.67" y="416.65" width="852" height="1" transform="translate(-310.1 85.64) rotate(-45)"/><rect class="cls-3" x="-479.79" y="414.53" width="852" height="1" transform="translate(-309.22 83.52) rotate(-45)"/><rect class="cls-3" x="-481.92" y="412.41" width="852" height="1" transform="translate(-308.35 81.4) rotate(-45)"/><rect class="cls-3" x="-484.04" y="410.29" width="852" height="1" transform="translate(-307.47 79.28) rotate(-45)"/><rect class="cls-3" x="-486.15" y="408.17" width="852" height="1" transform="translate(-306.59 77.16) rotate(-45)"/><rect class="cls-3" x="-488.28" y="406.05" width="852" height="1" transform="translate(-305.72 75.04) rotate(-45)"/><rect class="cls-3" x="-490.4" y="403.92" width="852" height="1" transform="translate(-304.83 72.91) rotate(-45)"/><rect class="cls-3" x="-492.53" y="401.8" width="852" height="1" transform="translate(-303.95 70.79) rotate(-45)"/><rect class="cls-3" x="-494.64" y="399.68" width="852" height="1" transform="translate(-303.07 68.67) rotate(-45)"/><rect class="cls-3" x="-496.77" y="397.56" width="852" height="1" transform="translate(-302.2 66.55) rotate(-45)"/><rect class="cls-3" x="-498.89" y="395.44" width="852" height="1" transform="translate(-301.32 64.43) rotate(-45)"/><rect class="cls-3" x="-501" y="393.32" width="852" height="1" transform="translate(-300.44 62.31) rotate(-45)"/><rect class="cls-3" x="-503.12" y="391.2" width="852" height="1" transform="translate(-299.56 60.19) rotate(-45)"/><rect class="cls-3" x="-505.25" y="389.07" width="852" height="1" transform="translate(-298.68 58.06) rotate(-45)"/><rect class="cls-3" x="-507.38" y="386.95" width="852" height="1" transform="translate(-297.8 55.94) rotate(-45)"/><rect class="cls-3" x="-509.49" y="384.83" width="852" height="1" transform="translate(-296.92 53.82) rotate(-45)"/><rect class="cls-3" x="-511.62" y="382.71" width="852" height="1" transform="translate(-296.05 51.7) rotate(-45)"/><rect class="cls-3" x="-513.74" y="380.59" width="852" height="1" transform="translate(-295.17 49.58) rotate(-45)"/><rect class="cls-3" x="-515.86" y="378.47" width="852" height="1" transform="translate(-294.29 47.46) rotate(-45)"/><rect class="cls-3" x="-517.98" y="376.35" width="852" height="1" transform="translate(-293.41 45.34) rotate(-45)"/><rect class="cls-3" x="-520.1" y="374.22" width="852" height="1" transform="translate(-292.53 43.21) rotate(-45)"/><rect class="cls-3" x="-522.23" y="372.1" width="852" height="1" transform="translate(-291.65 41.09) rotate(-45)"/><rect class="cls-3" x="-524.35" y="369.98" width="852" height="1" transform="translate(-290.77 38.97) rotate(-45)"/><rect class="cls-3" x="-526.47" y="367.86" width="852" height="1" transform="translate(-289.9 36.85) rotate(-45)"/><rect class="cls-3" x="-528.59" y="365.74" width="852" height="1" transform="translate(-289.02 34.73) rotate(-45)"/><rect class="cls-3" x="-530.71" y="363.62" width="852" height="1" transform="translate(-288.14 32.61) rotate(-45)"/><rect class="cls-3" x="-532.83" y="361.5" width="852" height="1" transform="translate(-287.26 30.49) rotate(-45)"/><rect class="cls-3" x="-534.95" y="359.37" width="852" height="1" transform="translate(-286.37 28.36) rotate(-45)"/><rect class="cls-3" x="-537.07" y="357.25" width="852" height="1" transform="translate(-285.5 26.24) rotate(-45)"/><rect class="cls-3" x="-539.2" y="355.13" width="852" height="1" transform="translate(-284.62 24.12) rotate(-45)"/><rect class="cls-3" x="-541.31" y="353.01" width="852" height="1" transform="translate(-283.74 22) rotate(-45)"/><rect class="cls-3" x="-543.44" y="350.89" width="852" height="1" transform="translate(-282.87 19.88) rotate(-45)"/><rect class="cls-3" x="-545.56" y="348.77" width="852" height="1" transform="translate(-281.99 17.76) rotate(-45)"/><rect class="cls-3" x="-547.68" y="346.65" width="852" height="1" transform="translate(-281.11 15.64) rotate(-45)"/><rect class="cls-3" x="-549.79" y="344.53" width="852" height="1" transform="translate(-280.23 13.52) rotate(-45)"/><rect class="cls-3" x="-551.92" y="342.4" width="852" height="1" transform="translate(-279.34 11.39) rotate(-45)"/><rect class="cls-3" x="-554.04" y="340.28" width="852" height="1" transform="translate(-278.47 9.27) rotate(-45)"/><rect class="cls-3" x="-556.17" y="338.16" width="852" height="1" transform="translate(-277.59 7.15) rotate(-45)"/><rect class="cls-3" x="-558.29" y="336.04" width="852" height="1" transform="translate(-276.72 5.03) rotate(-45)"/><rect class="cls-3" x="-560.41" y="333.92" width="852" height="1" transform="translate(-275.84 2.91) rotate(-45)"/><rect class="cls-3" x="-562.53" y="331.8" width="852" height="1" transform="translate(-274.96 0.79) rotate(-45)"/><rect class="cls-3" x="-564.65" y="329.68" width="852" height="1" transform="translate(-274.08 -1.34) rotate(-45)"/><rect class="cls-3" x="-566.77" y="327.55" width="852" height="1" transform="translate(-273.19 -3.46) rotate(-45)"/><rect class="cls-3" x="-568.89" y="325.43" width="852" height="1" transform="translate(-272.32 -5.58) rotate(-45)"/><rect class="cls-3" x="-571.01" y="323.31" width="852" height="1" transform="translate(-271.44 -7.69) rotate(-45)"/><rect class="cls-3" x="-573.14" y="321.19" width="852" height="1" transform="translate(-270.56 -9.82) rotate(-45)"/><rect class="cls-3" x="-575.26" y="319.07" width="852" height="1" transform="translate(-269.69 -11.94) rotate(-45)"/><rect class="cls-3" x="-577.38" y="316.95" width="852" height="1" transform="translate(-268.81 -14.06) rotate(-45)"/><rect class="cls-3" x="-579.5" y="314.83" width="852" height="1" transform="translate(-267.93 -16.18) rotate(-45)"/><rect class="cls-3" x="-581.62" y="312.7" width="852" height="1" transform="translate(-267.04 -18.31) rotate(-45)"/><rect class="cls-3" x="-583.74" y="310.58" width="852" height="1" transform="translate(-266.16 -20.43) rotate(-45)"/><rect class="cls-3" x="-585.86" y="308.46" width="852" height="1" transform="translate(-265.29 -22.55) rotate(-45)"/><rect class="cls-3" x="-587.99" y="306.34" width="852" height="1" transform="translate(-264.42 -24.67) rotate(-45)"/><rect class="cls-3" x="-590.11" y="304.22" width="852" height="1" transform="translate(-263.54 -26.79) rotate(-45)"/><rect class="cls-3" x="-592.23" y="302.1" width="852" height="1" transform="translate(-262.66 -28.91) rotate(-45)"/><rect class="cls-3" x="-594.35" y="299.98" width="852" height="1" transform="translate(-261.78 -31.03) rotate(-45)"/><rect class="cls-3" x="-596.47" y="297.86" width="852" height="1" transform="translate(-260.9 -33.15) rotate(-45)"/><rect class="cls-3" x="-598.59" y="295.73" width="852" height="1" transform="translate(-260.01 -35.28) rotate(-45)"/><rect class="cls-3" x="-600.71" y="293.61" width="852" height="1" transform="translate(-259.14 -37.4) rotate(-45)"/><rect class="cls-3" x="-602.83" y="291.49" width="852" height="1" transform="translate(-258.26 -39.52) rotate(-45)"/><rect class="cls-3" x="-604.96" y="289.37" width="852" height="1" transform="translate(-257.39 -41.64) rotate(-45)"/><rect class="cls-3" x="-607.08" y="287.25" width="852" height="1" transform="translate(-256.51 -43.76) rotate(-45)"/></g><g class="cls-4"><rect class="cls-3" x="302.08" y="10.24" width="1" height="852" transform="translate(-219.85 341.73) rotate(-45)"/><rect class="cls-3" x="304.2" y="8.12" width="1" height="852" transform="translate(-217.73 342.61) rotate(-45)"/><rect class="cls-3" x="306.33" y="6" width="1" height="852" transform="translate(-215.6 343.49) rotate(-45)"/><rect class="cls-3" x="308.45" y="3.88" width="1" height="852" transform="translate(-213.48 344.37) rotate(-45)"/><rect class="cls-3" x="310.57" y="1.76" width="1" height="852" transform="translate(-211.36 345.25) rotate(-45)"/><rect class="cls-3" x="312.69" y="-0.37" width="1" height="852" transform="translate(-209.24 346.13) rotate(-45)"/><rect class="cls-3" x="314.81" y="-2.49" width="1" height="852" transform="translate(-207.11 347) rotate(-45)"/><rect class="cls-3" x="316.93" y="-4.6" width="1" height="852" transform="translate(-205 347.88) rotate(-45)"/><rect class="cls-3" x="319.05" y="-6.73" width="1" height="852" transform="translate(-202.88 348.76) rotate(-45)"/><rect class="cls-3" x="321.18" y="-8.85" width="1" height="852" transform="translate(-200.76 349.64) rotate(-45)"/><rect class="cls-3" x="323.3" y="-10.97" width="1" height="852" transform="translate(-198.63 350.52) rotate(-45)"/><rect class="cls-3" x="325.42" y="-13.09" width="1" height="852" transform="translate(-196.51 351.4) rotate(-45)"/><rect class="cls-3" x="327.54" y="-15.22" width="1" height="852" transform="translate(-194.39 352.28) rotate(-45)"/><rect class="cls-3" x="329.66" y="-17.34" width="1" height="852" transform="translate(-192.27 353.16) rotate(-45)"/><rect class="cls-3" x="331.78" y="-19.46" width="1" height="852" transform="translate(-190.15 354.03) rotate(-45)"/><rect class="cls-3" x="333.9" y="-21.58" width="1" height="852" transform="translate(-188.03 354.91) rotate(-45)"/><rect class="cls-3" x="336.03" y="-23.7" width="1" height="852" transform="translate(-185.9 355.79) rotate(-45)"/><rect class="cls-3" x="338.15" y="-25.82" width="1" height="852" transform="translate(-183.78 356.67) rotate(-45)"/><rect class="cls-3" x="340.27" y="-27.94" width="1" height="852" transform="translate(-181.66 357.55) rotate(-45)"/><rect class="cls-3" x="342.39" y="-30.06" width="1" height="852" transform="translate(-179.54 358.43) rotate(-45)"/><rect class="cls-3" x="344.51" y="-32.19" width="1" height="852" transform="translate(-177.42 359.31) rotate(-45)"/><rect class="cls-3" x="346.63" y="-34.3" width="1" height="852" transform="translate(-175.3 360.19) rotate(-45)"/><rect class="cls-3" x="348.75" y="-36.43" width="1" height="852" transform="translate(-173.18 361.06) rotate(-45)"/><rect class="cls-3" x="350.87" y="-38.55" width="1" height="852" transform="translate(-171.06 361.94) rotate(-45)"/><rect class="cls-3" x="352.99" y="-40.67" width="1" height="852" transform="translate(-168.93 362.82) rotate(-45)"/><rect class="cls-3" x="355.12" y="-42.79" width="1" height="852" transform="translate(-166.81 363.7) rotate(-45)"/><rect class="cls-3" x="357.24" y="-44.91" width="1" height="852" transform="translate(-164.69 364.58) rotate(-45)"/><rect class="cls-3" x="359.36" y="-47.03" width="1" height="852" transform="translate(-162.57 365.46) rotate(-45)"/><rect class="cls-3" x="361.48" y="-49.16" width="1" height="852" transform="translate(-160.44 366.33) rotate(-45)"/><rect class="cls-3" x="363.6" y="-51.28" width="1" height="852" transform="translate(-158.33 367.21) rotate(-45)"/><rect class="cls-3" x="365.72" y="-53.4" width="1" height="852" transform="translate(-156.21 368.09) rotate(-45)"/><rect class="cls-3" x="367.84" y="-55.52" width="1" height="852" transform="translate(-154.09 368.97) rotate(-45)"/><rect class="cls-3" x="369.96" y="-57.64" width="1" height="852" transform="translate(-151.96 369.85) rotate(-45)"/><rect class="cls-3" x="372.09" y="-59.76" width="1" height="852" transform="translate(-149.84 370.73) rotate(-45)"/><rect class="cls-3" x="374.21" y="-61.88" width="1" height="852" transform="translate(-147.72 371.61) rotate(-45)"/><rect class="cls-3" x="376.33" y="-64" width="1" height="852" transform="translate(-145.6 372.49) rotate(-45)"/><rect class="cls-3" x="378.45" y="-66.13" width="1" height="852" transform="translate(-143.47 373.36) rotate(-45)"/><rect class="cls-3" x="380.57" y="-68.25" width="1" height="852" transform="translate(-141.36 374.24) rotate(-45)"/><rect class="cls-3" x="382.69" y="-70.37" width="1" height="852" transform="translate(-139.24 375.12) rotate(-45)"/><rect class="cls-3" x="384.82" y="-72.49" width="1" height="852" transform="translate(-137.11 376) rotate(-45)"/><rect class="cls-3" x="386.94" y="-74.61" width="1" height="852" transform="translate(-134.99 376.88) rotate(-45)"/><rect class="cls-3" x="389.06" y="-76.73" width="1" height="852" transform="translate(-132.87 377.76) rotate(-45)"/><rect class="cls-3" x="391.18" y="-78.85" width="1" height="852" transform="translate(-130.75 378.64) rotate(-45)"/><rect class="cls-3" x="393.3" y="-80.98" width="1" height="852" transform="translate(-128.63 379.52) rotate(-45)"/><rect class="cls-3" x="395.42" y="-83.1" width="1" height="852" transform="translate(-126.5 380.39) rotate(-45)"/><rect class="cls-3" x="397.54" y="-85.22" width="1" height="852" transform="translate(-124.39 381.27) rotate(-45)"/><rect class="cls-3" x="399.66" y="-87.34" width="1" height="852" transform="translate(-122.27 382.15) rotate(-45)"/><rect class="cls-3" x="401.79" y="-89.46" width="1" height="852" transform="translate(-120.14 383.03) rotate(-45)"/><rect class="cls-3" x="403.91" y="-91.58" width="1" height="852" transform="translate(-118.02 383.91) rotate(-45)"/><rect class="cls-3" x="406.03" y="-93.7" width="1" height="852" transform="translate(-115.9 384.79) rotate(-45)"/><rect class="cls-3" x="408.15" y="-95.83" width="1" height="852" transform="translate(-113.77 385.66) rotate(-45)"/><rect class="cls-3" x="410.27" y="-97.95" width="1" height="852" transform="translate(-111.65 386.54) rotate(-45)"/><rect class="cls-3" x="412.39" y="-100.07" width="1" height="852" transform="translate(-109.54 387.42) rotate(-45)"/><rect class="cls-3" x="414.51" y="-102.2" width="1" height="852" transform="translate(-107.41 388.3) rotate(-45)"/><rect class="cls-3" x="416.63" y="-104.31" width="1" height="852" transform="translate(-105.29 389.18) rotate(-45)"/><rect class="cls-3" x="418.76" y="-106.43" width="1" height="852" transform="translate(-103.17 390.06) rotate(-45)"/><rect class="cls-3" x="420.88" y="-108.55" width="1" height="852" transform="translate(-101.05 390.94) rotate(-45)"/><rect class="cls-3" x="423" y="-110.67" width="1" height="852" transform="translate(-98.93 391.82) rotate(-45)"/><rect class="cls-3" x="425.12" y="-112.8" width="1" height="852" transform="translate(-96.8 392.69) rotate(-45)"/><rect class="cls-3" x="427.24" y="-114.92" width="1" height="852" transform="translate(-94.68 393.57) rotate(-45)"/><rect class="cls-3" x="429.36" y="-117.04" width="1" height="852" transform="translate(-92.57 394.45) rotate(-45)"/><rect class="cls-3" x="431.48" y="-119.16" width="1" height="852" transform="translate(-90.44 395.33) rotate(-45)"/><rect class="cls-3" x="433.61" y="-121.28" width="1" height="852" transform="translate(-88.32 396.21) rotate(-45)"/><rect class="cls-3" x="435.73" y="-123.4" width="1" height="852" transform="translate(-86.2 397.09) rotate(-45)"/><rect class="cls-3" x="437.85" y="-125.52" width="1" height="852" transform="translate(-84.08 397.97) rotate(-45)"/><rect class="cls-3" x="439.97" y="-127.64" width="1" height="852" transform="translate(-81.96 398.85) rotate(-45)"/><rect class="cls-3" x="442.09" y="-129.77" width="1" height="852" transform="translate(-79.83 399.72) rotate(-45)"/><rect class="cls-3" x="444.21" y="-131.89" width="1" height="852" transform="translate(-77.72 400.6) rotate(-45)"/><rect class="cls-3" x="446.33" y="-134.01" width="1" height="852" transform="translate(-75.6 401.48) rotate(-45)"/><rect class="cls-3" x="448.45" y="-136.13" width="1" height="852" transform="translate(-73.47 402.36) rotate(-45)"/><rect class="cls-3" x="450.58" y="-138.25" width="1" height="852" transform="translate(-71.35 403.24) rotate(-45)"/></g><g class="cls-5"><rect class="cls-3" x="-33.08" y="-592.23" width="1" height="852" transform="translate(108 -71.73) rotate(-45)"/><rect class="cls-3" x="-35.21" y="-590.1" width="1" height="852" transform="translate(105.87 -72.6) rotate(-45)"/><rect class="cls-3" x="-37.32" y="-587.98" width="1" height="852" transform="translate(103.75 -73.48) rotate(-45)"/><rect class="cls-3" x="-39.45" y="-585.86" width="1" height="852" transform="translate(101.63 -74.36) rotate(-45)"/><rect class="cls-3" x="-41.57" y="-583.74" width="1" height="852" transform="translate(99.51 -75.24) rotate(-45)"/><rect class="cls-3" x="-43.68" y="-581.62" width="1" height="852" transform="translate(97.39 -76.12) rotate(-45)"/><rect class="cls-3" x="-45.8" y="-579.5" width="1" height="852" transform="translate(95.27 -76.99) rotate(-45)"/><rect class="cls-3" x="-47.93" y="-577.38" width="1" height="852" transform="translate(93.15 -77.88) rotate(-45)"/><rect class="cls-3" x="-50.05" y="-575.25" width="1" height="852" transform="translate(91.02 -78.75) rotate(-45)"/><rect class="cls-3" x="-52.17" y="-573.13" width="1" height="852" transform="translate(88.9 -79.63) rotate(-45)"/><rect class="cls-3" x="-54.29" y="-571.01" width="1" height="852" transform="translate(86.78 -80.51) rotate(-45)"/><rect class="cls-3" x="-56.42" y="-568.89" width="1" height="852" transform="translate(84.66 -81.39) rotate(-45)"/><rect class="cls-3" x="-58.54" y="-566.77" width="1" height="852" transform="translate(82.54 -82.27) rotate(-45)"/><rect class="cls-3" x="-60.65" y="-564.65" width="1" height="852" transform="translate(80.42 -83.15) rotate(-45)"/><rect class="cls-3" x="-62.78" y="-562.53" width="1" height="852" transform="translate(78.3 -84.03) rotate(-45)"/><rect class="cls-3" x="-64.9" y="-560.4" width="1" height="852" transform="translate(76.17 -84.9) rotate(-45)"/><rect class="cls-3" x="-67.03" y="-558.28" width="1" height="852" transform="translate(74.05 -85.78) rotate(-45)"/><rect class="cls-3" x="-69.14" y="-556.16" width="1" height="852" transform="translate(71.93 -86.66) rotate(-45)"/><rect class="cls-3" x="-71.27" y="-554.04" width="1" height="852" transform="translate(69.81 -87.54) rotate(-45)"/><rect class="cls-3" x="-73.39" y="-551.92" width="1" height="852" transform="translate(67.69 -88.42) rotate(-45)"/><rect class="cls-3" x="-75.5" y="-549.8" width="1" height="852" transform="translate(65.57 -89.3) rotate(-45)"/><rect class="cls-3" x="-77.62" y="-547.68" width="1" height="852" transform="translate(63.45 -90.17) rotate(-45)"/><rect class="cls-3" x="-79.75" y="-545.55" width="1" height="852" transform="translate(61.32 -91.05) rotate(-45)"/><rect class="cls-3" x="-81.88" y="-543.43" width="1" height="852" transform="translate(59.2 -91.93) rotate(-45)"/><rect class="cls-3" x="-83.99" y="-541.31" width="1" height="852" transform="translate(57.08 -92.81) rotate(-45)"/><rect class="cls-3" x="-86.12" y="-539.19" width="1" height="852" transform="translate(54.96 -93.7) rotate(-45)"/><rect class="cls-3" x="-88.24" y="-537.07" width="1" height="852" transform="translate(52.84 -94.57) rotate(-45)"/><rect class="cls-3" x="-90.36" y="-534.95" width="1" height="852" transform="translate(50.72 -95.45) rotate(-45)"/><rect class="cls-3" x="-92.48" y="-532.83" width="1" height="852" transform="translate(48.6 -96.33) rotate(-45)"/><rect class="cls-3" x="-94.6" y="-530.7" width="1" height="852" transform="translate(46.47 -97.2) rotate(-45)"/><rect class="cls-3" x="-96.73" y="-528.58" width="1" height="852" transform="translate(44.35 -98.09) rotate(-45)"/><rect class="cls-3" x="-98.85" y="-526.46" width="1" height="852" transform="translate(42.23 -98.96) rotate(-45)"/><rect class="cls-3" x="-100.97" y="-524.34" width="1" height="852" transform="translate(40.11 -99.85) rotate(-45)"/><rect class="cls-3" x="-103.09" y="-522.22" width="1" height="852" transform="translate(37.99 -100.72) rotate(-45)"/><rect class="cls-3" x="-105.21" y="-520.1" width="1" height="852" transform="translate(35.87 -101.6) rotate(-45)"/><rect class="cls-3" x="-107.33" y="-517.98" width="1" height="852" transform="translate(33.75 -102.48) rotate(-45)"/><rect class="cls-3" x="-109.45" y="-515.85" width="1" height="852" transform="translate(31.62 -103.35) rotate(-45)"/><rect class="cls-3" x="-111.57" y="-513.73" width="1" height="852" transform="translate(29.5 -104.23) rotate(-45)"/><rect class="cls-3" x="-113.7" y="-511.61" width="1" height="852" transform="translate(27.38 -105.12) rotate(-45)"/><rect class="cls-3" x="-115.81" y="-509.49" width="1" height="852" transform="translate(25.26 -105.99) rotate(-45)"/><rect class="cls-3" x="-117.94" y="-507.37" width="1" height="852" transform="translate(23.14 -106.88) rotate(-45)"/><rect class="cls-3" x="-120.06" y="-505.25" width="1" height="852" transform="translate(21.02 -107.75) rotate(-45)"/><rect class="cls-3" x="-122.18" y="-503.13" width="1" height="852" transform="translate(18.9 -108.63) rotate(-45)"/><rect class="cls-3" x="-124.29" y="-501.01" width="1" height="852" transform="translate(16.78 -109.51) rotate(-45)"/><rect class="cls-3" x="-126.42" y="-498.88" width="1" height="852" transform="translate(14.65 -110.38) rotate(-45)"/><rect class="cls-3" x="-128.54" y="-496.76" width="1" height="852" transform="translate(12.53 -111.26) rotate(-45)"/><rect class="cls-3" x="-130.67" y="-494.64" width="1" height="852" transform="translate(10.41 -112.14) rotate(-45)"/><rect class="cls-3" x="-132.79" y="-492.52" width="1" height="852" transform="translate(8.29 -113.03) rotate(-45)"/><rect class="cls-3" x="-134.91" y="-490.4" width="1" height="852" transform="translate(6.17 -113.9) rotate(-45)"/><rect class="cls-3" x="-137.03" y="-488.28" width="1" height="852" transform="translate(4.05 -114.78) rotate(-45)"/><rect class="cls-3" x="-139.15" y="-486.16" width="1" height="852" transform="translate(1.93 -115.66) rotate(-45)"/><rect class="cls-3" x="-141.27" y="-484.03" width="1" height="852" transform="translate(-0.2 -116.54) rotate(-45)"/><rect class="cls-3" x="-143.39" y="-481.91" width="1" height="852" transform="translate(-2.32 -117.41) rotate(-45)"/><rect class="cls-3" x="-145.51" y="-479.79" width="1" height="852" transform="translate(-4.44 -118.29) rotate(-45)"/><rect class="cls-3" x="-147.64" y="-477.67" width="1" height="852" transform="translate(-6.56 -119.17) rotate(-45)"/><rect class="cls-3" x="-149.76" y="-475.55" width="1" height="852" transform="translate(-8.68 -120.06) rotate(-45)"/><rect class="cls-3" x="-151.88" y="-473.43" width="1" height="852" transform="translate(-10.8 -120.93) rotate(-45)"/><rect class="cls-3" x="-154" y="-471.31" width="1" height="852" transform="translate(-12.92 -121.81) rotate(-45)"/><rect class="cls-3" x="-156.12" y="-469.18" width="1" height="852" transform="translate(-15.05 -122.69) rotate(-45)"/><rect class="cls-3" x="-158.24" y="-467.06" width="1" height="852" transform="translate(-17.17 -123.56) rotate(-45)"/><rect class="cls-3" x="-160.36" y="-464.94" width="1" height="852" transform="translate(-19.29 -124.44) rotate(-45)"/><rect class="cls-3" x="-162.49" y="-462.82" width="1" height="852" transform="translate(-21.41 -125.33) rotate(-45)"/><rect class="cls-3" x="-164.61" y="-460.7" width="1" height="852" transform="translate(-23.53 -126.21) rotate(-45)"/><rect class="cls-3" x="-166.73" y="-458.58" width="1" height="852" transform="translate(-25.65 -127.09) rotate(-45)"/><rect class="cls-3" x="-168.85" y="-456.46" width="1" height="852" transform="translate(-27.77 -127.96) rotate(-45)"/><rect class="cls-3" x="-170.97" y="-454.34" width="1" height="852" transform="translate(-29.89 -128.84) rotate(-45)"/><rect class="cls-3" x="-173.09" y="-452.21" width="1" height="852" transform="translate(-32.02 -129.72) rotate(-45)"/><rect class="cls-3" x="-175.21" y="-450.09" width="1" height="852" transform="translate(-34.14 -130.59) rotate(-45)"/><rect class="cls-3" x="-177.33" y="-447.97" width="1" height="852" transform="translate(-36.26 -131.47) rotate(-45)"/><rect class="cls-3" x="-179.46" y="-445.85" width="1" height="852" transform="translate(-38.38 -132.36) rotate(-45)"/><rect class="cls-3" x="-181.58" y="-443.73" width="1" height="852" transform="translate(-40.5 -133.24) rotate(-45)"/></g><g class="cls-6"><rect class="cls-3" x="-123.42" y="-166.72" width="852" height="1" transform="translate(206.16 165.27) rotate(-45)"/><rect class="cls-3" x="-121.3" y="-164.6" width="852" height="1" transform="translate(205.28 167.39) rotate(-45)"/><rect class="cls-3" x="-119.17" y="-162.48" width="852" height="1" transform="translate(204.41 169.52) rotate(-45)"/><rect class="cls-3" x="-117.05" y="-160.36" width="852" height="1" transform="translate(203.53 171.64) rotate(-45)"/><rect class="cls-3" x="-114.93" y="-158.24" width="852" height="1" transform="translate(202.65 173.76) rotate(-45)"/><rect class="cls-3" x="-112.81" y="-156.11" width="852" height="1" transform="translate(201.77 175.88) rotate(-45)"/><rect class="cls-3" x="-110.69" y="-153.99" width="852" height="1" transform="translate(200.88 178) rotate(-45)"/><rect class="cls-3" x="-108.57" y="-151.88" width="852" height="1" transform="translate(200.01 180.12) rotate(-45)"/><rect class="cls-3" x="-106.45" y="-149.75" width="852" height="1" transform="translate(199.13 182.24) rotate(-45)"/><rect class="cls-3" x="-104.32" y="-147.63" width="852" height="1" transform="translate(198.26 184.37) rotate(-45)"/><rect class="cls-3" x="-102.2" y="-145.51" width="852" height="1" transform="translate(197.38 186.49) rotate(-45)"/><rect class="cls-3" x="-100.08" y="-143.39" width="852" height="1" transform="translate(196.5 188.61) rotate(-45)"/><rect class="cls-3" x="-97.96" y="-141.26" width="852" height="1" transform="translate(195.62 190.73) rotate(-45)"/><rect class="cls-3" x="-95.84" y="-139.14" width="852" height="1" transform="translate(194.74 192.85) rotate(-45)"/><rect class="cls-3" x="-93.72" y="-137.02" width="852" height="1" transform="translate(193.86 194.97) rotate(-45)"/><rect class="cls-3" x="-91.6" y="-134.9" width="852" height="1" transform="translate(192.98 197.09) rotate(-45)"/><rect class="cls-3" x="-89.47" y="-132.78" width="852" height="1" transform="translate(192.1 199.22) rotate(-45)"/><rect class="cls-3" x="-87.35" y="-130.66" width="852" height="1" transform="translate(191.23 201.34) rotate(-45)"/><rect class="cls-3" x="-85.23" y="-128.54" width="852" height="1" transform="translate(190.35 203.46) rotate(-45)"/><rect class="cls-3" x="-83.11" y="-126.42" width="852" height="1" transform="translate(189.47 205.58) rotate(-45)"/><rect class="cls-3" x="-80.99" y="-124.29" width="852" height="1" transform="translate(188.59 207.7) rotate(-45)"/><rect class="cls-3" x="-78.87" y="-122.18" width="852" height="1" transform="translate(187.71 209.82) rotate(-45)"/><rect class="cls-3" x="-76.75" y="-120.05" width="852" height="1" transform="translate(186.83 211.94) rotate(-45)"/><rect class="cls-3" x="-74.63" y="-117.93" width="852" height="1" transform="translate(185.95 214.06) rotate(-45)"/><rect class="cls-3" x="-72.51" y="-115.81" width="852" height="1" transform="translate(185.07 216.19) rotate(-45)"/><rect class="cls-3" x="-70.38" y="-113.69" width="852" height="1" transform="translate(184.2 218.31) rotate(-45)"/><rect class="cls-3" x="-68.26" y="-111.57" width="852" height="1" transform="translate(183.32 220.43) rotate(-45)"/><rect class="cls-3" x="-66.14" y="-109.45" width="852" height="1" transform="translate(182.44 222.55) rotate(-45)"/><rect class="cls-3" x="-64.02" y="-107.32" width="852" height="1" transform="translate(181.55 224.67) rotate(-45)"/><rect class="cls-3" x="-61.9" y="-105.2" width="852" height="1" transform="translate(180.68 226.79) rotate(-45)"/><rect class="cls-3" x="-59.78" y="-103.08" width="852" height="1" transform="translate(179.8 228.91) rotate(-45)"/><rect class="cls-3" x="-57.66" y="-100.96" width="852" height="1" transform="translate(178.92 231.03) rotate(-45)"/><rect class="cls-3" x="-55.54" y="-98.84" width="852" height="1" transform="translate(178.04 233.16) rotate(-45)"/><rect class="cls-3" x="-53.41" y="-96.72" width="852" height="1" transform="translate(177.17 235.28) rotate(-45)"/><rect class="cls-3" x="-51.29" y="-94.6" width="852" height="1" transform="translate(176.29 237.4) rotate(-45)"/><rect class="cls-3" x="-49.17" y="-92.48" width="852" height="1" transform="translate(175.41 239.52) rotate(-45)"/><rect class="cls-3" x="-47.05" y="-90.35" width="852" height="1" transform="translate(174.52 241.64) rotate(-45)"/><rect class="cls-3" x="-44.93" y="-88.23" width="852" height="1" transform="translate(173.65 243.76) rotate(-45)"/><rect class="cls-3" x="-42.81" y="-86.11" width="852" height="1" transform="translate(172.77 245.88) rotate(-45)"/><rect class="cls-3" x="-40.68" y="-83.99" width="852" height="1" transform="translate(171.89 248.01) rotate(-45)"/><rect class="cls-3" x="-38.56" y="-81.87" width="852" height="1" transform="translate(171.02 250.13) rotate(-45)"/><rect class="cls-3" x="-36.44" y="-79.75" width="852" height="1" transform="translate(170.14 252.25) rotate(-45)"/><rect class="cls-3" x="-34.32" y="-77.63" width="852" height="1" transform="translate(169.26 254.37) rotate(-45)"/><rect class="cls-3" x="-32.2" y="-75.5" width="852" height="1" transform="translate(168.38 256.49) rotate(-45)"/><rect class="cls-3" x="-30.08" y="-73.38" width="852" height="1" transform="translate(167.49 258.61) rotate(-45)"/><rect class="cls-3" x="-27.96" y="-71.26" width="852" height="1" transform="translate(166.62 260.73) rotate(-45)"/><rect class="cls-3" x="-25.84" y="-69.14" width="852" height="1" transform="translate(165.74 262.85) rotate(-45)"/><rect class="cls-3" x="-23.71" y="-67.02" width="852" height="1" transform="translate(164.86 264.98) rotate(-45)"/><rect class="cls-3" x="-21.59" y="-64.9" width="852" height="1" transform="translate(163.99 267.1) rotate(-45)"/><rect class="cls-3" x="-19.47" y="-62.78" width="852" height="1" transform="translate(163.11 269.22) rotate(-45)"/><rect class="cls-3" x="-17.35" y="-60.65" width="852" height="1" transform="translate(162.22 271.34) rotate(-45)"/><rect class="cls-3" x="-15.23" y="-58.53" width="852" height="1" transform="translate(161.34 273.46) rotate(-45)"/><rect class="cls-3" x="-13.11" y="-56.41" width="852" height="1" transform="translate(160.47 275.58) rotate(-45)"/><rect class="cls-3" x="-10.99" y="-54.28" width="852" height="1" transform="translate(159.59 277.71) rotate(-45)"/><rect class="cls-3" x="-8.87" y="-52.17" width="852" height="1" transform="translate(158.71 279.83) rotate(-45)"/><rect class="cls-3" x="-6.74" y="-50.05" width="852" height="1" transform="translate(157.84 281.95) rotate(-45)"/><rect class="cls-3" x="-4.62" y="-47.93" width="852" height="1" transform="translate(156.96 284.07) rotate(-45)"/><rect class="cls-3" x="-2.5" y="-45.81" width="852" height="1" transform="translate(156.08 286.19) rotate(-45)"/><rect class="cls-3" x="-0.38" y="-43.68" width="852" height="1" transform="translate(155.19 288.31) rotate(-45)"/><rect class="cls-3" x="1.74" y="-41.56" width="852" height="1" transform="translate(154.31 290.43) rotate(-45)"/><rect class="cls-3" x="3.86" y="-39.44" width="852" height="1" transform="translate(153.44 292.55) rotate(-45)"/><rect class="cls-3" x="5.98" y="-37.32" width="852" height="1" transform="translate(152.56 294.68) rotate(-45)"/><rect class="cls-3" x="8.11" y="-35.2" width="852" height="1" transform="translate(151.68 296.8) rotate(-45)"/><rect class="cls-3" x="10.23" y="-33.08" width="852" height="1" transform="translate(150.81 298.92) rotate(-45)"/><rect class="cls-3" x="12.35" y="-30.96" width="852" height="1" transform="translate(149.93 301.04) rotate(-45)"/><rect class="cls-3" x="14.47" y="-28.84" width="852" height="1" transform="translate(149.05 303.16) rotate(-45)"/><rect class="cls-3" x="16.59" y="-26.71" width="852" height="1" transform="translate(148.16 305.28) rotate(-45)"/><rect class="cls-3" x="18.71" y="-24.59" width="852" height="1" transform="translate(147.29 307.4) rotate(-45)"/><rect class="cls-3" x="20.83" y="-22.47" width="852" height="1" transform="translate(146.41 309.52) rotate(-45)"/><rect class="cls-3" x="22.95" y="-20.35" width="852" height="1" transform="translate(145.53 311.65) rotate(-45)"/><rect class="cls-3" x="25.08" y="-18.23" width="852" height="1" transform="translate(144.66 313.77) rotate(-45)"/></g></svg>
