<svg width="51" height="34" viewBox="0 0 51 34" fill="none" xmlns="http://www.w3.org/2000/svg">
<rect width="51" height="34" rx="5" fill="#ED1B24"/>
<path fill-rule="evenodd" clip-rule="evenodd" d="M28.9068 5.27966C30.2266 5.89731 30.9037 7.19623 30.6566 8.63678C30.3714 10.3003 29.3111 11.83 27.5359 13.1396C25.5755 14.5859 23.9436 15.1528 23.1444 14.6655C22.7999 14.4554 22.5784 13.8868 22.6513 13.4C22.7771 12.5612 23.4528 11.6036 24.1607 11.2609C24.8562 10.9241 25.596 11.2199 25.596 11.8346C25.596 12.0892 25.5037 12.2193 24.8515 12.8845C24.0264 13.7258 23.9104 13.9971 24.3758 13.9968C24.759 13.9964 25.7208 13.4711 26.5506 12.809C28.2761 11.4319 29.2391 9.63772 28.7761 8.66218C28.6041 8.29967 28.1862 8.08399 27.7826 8.14943C27.2558 8.23497 26.2294 8.73581 25.0788 9.46887C23.6206 10.3978 23.0911 10.6249 22.3696 10.631C21.7343 10.6363 21.3624 10.4728 21.1254 10.084C20.9247 9.75486 20.9139 9.16443 21.0997 8.68328C21.2632 8.25996 21.7889 7.52417 22.1976 7.14651C22.671 6.70929 23.7765 6.00006 24.5493 5.63796C25.6693 5.11313 26.2961 4.97447 27.4174 5.00368C28.2771 5.0261 28.4225 5.05307 28.9068 5.27966ZM22.1983 16.4756C22.4006 16.5839 22.5652 17.0093 22.5021 17.2608C22.3017 18.0591 21.0956 17.9205 21.0956 17.0993C21.0956 16.5686 21.7162 16.2176 22.1983 16.4756ZM27.2336 17.4942L27.258 18.0414L27.5867 18.0668C27.7674 18.0807 27.9147 18.12 27.9139 18.154C27.9131 18.1881 27.9124 18.3836 27.9124 18.5884V18.9606H27.5815H27.2506V20.1915C27.2506 21.5071 27.262 21.5454 27.6854 21.6516C27.8899 21.7029 27.9124 21.7448 27.9124 22.0719V22.4352H27.5042C26.7078 22.4352 26.2354 22.0914 26.0946 21.4095C26.044 21.164 26.0167 20.1747 26.0293 19.0434L26.051 17.0993L26.5474 17.0054C26.8204 16.9537 27.081 16.9194 27.1265 16.9292C27.172 16.939 27.2202 17.1932 27.2336 17.4942ZM33.5573 19.1792C33.5811 21.6487 33.5549 21.512 34.0374 21.682C34.2255 21.7483 34.2437 21.792 34.214 22.1046L34.1807 22.4533L33.6534 22.4197C33.0491 22.3812 32.7493 22.208 32.5247 21.7675C32.3977 21.5185 32.38 21.2148 32.3799 19.2803L32.3798 17.0767L32.8555 16.9952C33.1171 16.9503 33.3771 16.9089 33.4332 16.903C33.5116 16.8949 33.5405 17.4255 33.5573 19.1792ZM19.4095 18.0543C19.5787 18.1013 19.8314 18.2358 19.9709 18.3533C20.4286 18.7383 20.4669 18.8995 20.4669 20.44V21.8449L20.2241 22.0177C19.5842 22.4734 18.3803 22.5861 17.7807 22.2465C16.925 21.7618 16.7354 20.6644 17.3984 20.0338C17.7606 19.6892 18.1975 19.5397 18.8426 19.5397C19.2743 19.5397 19.3087 19.5257 19.3087 19.3487C19.3087 19.1039 19.1536 18.9113 18.9095 18.8533C18.7387 18.8126 18.1065 18.9363 17.7203 19.0861C17.6134 19.1275 17.5489 19.067 17.4514 18.8337C17.3809 18.6649 17.3232 18.5137 17.3232 18.4977C17.3232 18.4269 17.8971 18.1775 18.2746 18.0842C18.801 17.9541 19.0273 17.9481 19.4095 18.0543ZM25.4719 18.0508C25.8248 18.0558 25.872 18.1682 25.6798 18.5449C25.5236 18.8512 25.4724 18.8908 25.2795 18.8553C25.1578 18.8328 24.9094 18.8578 24.7274 18.9108L24.3965 19.0071L24.3551 20.7005L24.3137 22.3939L23.7553 22.4184L23.1969 22.4428V20.6232V18.8036L23.4658 18.6023C24.0101 18.1949 24.7466 17.9369 25.141 18.0154C25.232 18.0335 25.3809 18.0495 25.4719 18.0508ZM22.3696 20.2467V22.4428L21.8112 22.4184L21.2528 22.3939V20.3281V18.2623L21.7492 18.167C22.0222 18.1147 22.2734 18.0671 22.3076 18.0612C22.3417 18.0554 22.3696 19.0389 22.3696 20.2467ZM30.932 18.2381C31.387 18.4922 31.7041 19.136 31.736 19.8707L31.7593 20.4084L30.5771 20.4314L29.3949 20.4543L29.4507 20.7623C29.542 21.267 29.7065 21.5103 30.0135 21.5951C30.3414 21.6856 30.9942 21.5849 31.2759 21.4002C31.4587 21.2805 31.4722 21.2885 31.6388 21.6149C31.8052 21.9411 31.8061 21.9582 31.6614 22.0678C31.1173 22.4802 29.9261 22.5893 29.3024 22.284C27.887 21.5911 27.9245 18.9257 29.3602 18.1804C29.7387 17.984 30.5289 18.0131 30.932 18.2381ZM29.8341 18.9333C29.6846 18.9935 29.4638 19.4498 29.517 19.5886C29.5487 19.6711 29.7077 19.7052 30.0608 19.7052C30.5303 19.7052 30.5598 19.6936 30.5598 19.5095C30.5598 19.1098 30.1682 18.7989 29.8341 18.9333ZM18.3981 20.5522C18.1478 20.8208 18.1986 21.3281 18.498 21.5508C18.6812 21.687 18.7706 21.7029 18.9944 21.639L19.2673 21.561L19.2916 20.964L19.316 20.367H18.9433C18.6639 20.367 18.5274 20.4134 18.3981 20.5522Z" fill="white"/>
<path fill-rule="evenodd" clip-rule="evenodd" d="M20.3642 24.1188C20.5273 24.233 20.5864 24.2321 20.9611 24.1095C21.4209 23.9592 21.8748 23.9996 22.0464 24.2064C22.18 24.3674 22.1569 24.9494 21.9745 26.019L21.8333 26.8462L21.5144 26.8725C20.9674 26.9174 20.971 26.9271 21.138 25.8467C21.2206 25.312 21.2691 24.8435 21.2457 24.8056C21.1801 24.6995 20.83 24.7239 20.7326 24.8415C20.6847 24.8991 20.5865 25.2993 20.5143 25.7308C20.3058 26.9775 20.3508 26.8876 19.9339 26.8876C19.7327 26.8876 19.5511 26.8597 19.5303 26.8256C19.5096 26.7914 19.563 26.354 19.6491 25.8535C19.7353 25.353 19.7885 24.897 19.7674 24.8401C19.715 24.699 19.3531 24.7093 19.2319 24.8553C19.1777 24.9206 19.0797 25.3207 19.0139 25.7446C18.823 26.9764 18.8713 26.8876 18.3919 26.8876C17.9794 26.8876 17.974 26.8843 18.0185 26.6601C18.0433 26.535 18.1451 25.9021 18.2448 25.2537L18.426 24.0748H18.7784C18.9723 24.0748 19.1439 24.1139 19.1598 24.1617C19.1787 24.2181 19.2898 24.2047 19.477 24.1236C19.8493 23.9621 20.1383 23.9606 20.3642 24.1188ZM24.6497 24.2437C24.9484 24.5243 25.0546 25.0008 24.9428 25.5579C24.768 26.4284 24.2668 26.9094 23.5213 26.9224C22.7769 26.9353 22.4538 26.5746 22.4538 25.7309C22.4538 25.213 22.6015 24.7389 22.8499 24.4591C23.276 23.9793 24.2449 23.8633 24.6497 24.2437ZM27.5377 24.0733C27.898 24.2103 27.9251 24.4484 27.7238 25.7048L27.5407 26.8462L27.2222 26.8725C26.6792 26.9171 26.6817 26.9237 26.8497 25.8816C26.9329 25.3656 26.9842 24.897 26.9637 24.8401C26.9218 24.7242 26.605 24.7036 26.4432 24.8062C26.3851 24.8431 26.2814 25.2428 26.2129 25.6943C26.0165 26.988 26.0684 26.8876 25.5959 26.8876C25.2875 26.8876 25.1838 26.8568 25.1838 26.7653C25.1838 26.6408 25.4815 24.7166 25.5649 24.3023C25.6063 24.0962 25.6442 24.0748 25.9694 24.0748C26.1668 24.0748 26.3413 24.1139 26.3572 24.1617C26.376 24.2181 26.4872 24.2047 26.6744 24.1236C27.0149 23.9759 27.2459 23.9624 27.5377 24.0733ZM30.2768 24.2451C30.5514 24.5031 30.5514 24.9683 30.2765 25.2948C30.0714 25.5387 29.6021 25.7294 29.2073 25.7294C28.926 25.7294 28.921 25.929 29.1978 26.1104C29.4027 26.2446 29.7334 26.2389 30.0986 26.0948C30.2419 26.0383 30.2517 26.0617 30.205 26.3495C30.1405 26.747 30.0765 26.8098 29.6578 26.8864C29.1808 26.9736 28.6769 26.8609 28.4271 26.6111C28.0393 26.2234 28.0857 25.1553 28.517 24.5408C28.8943 24.0034 29.8487 23.8429 30.2768 24.2451ZM33.163 24.358C33.2668 24.7701 33.0856 25.2806 32.4983 26.2299C31.6291 27.6351 31.0467 28.1068 30.2913 28.0173C29.7502 27.9532 29.6646 27.8726 29.7295 27.488C29.7718 27.238 29.8138 27.1827 29.9441 27.2053C30.6349 27.3254 30.6806 27.3188 30.9234 27.0645L31.1614 26.8151L30.9115 25.507C30.774 24.7875 30.677 24.1826 30.6959 24.1626C30.7148 24.1427 30.9026 24.1241 31.1132 24.1212L31.4963 24.1162L31.6406 24.9694C31.72 25.4386 31.8049 25.8425 31.8293 25.8669C31.8537 25.8913 31.9761 25.7122 32.1013 25.4687C32.266 25.1483 32.3278 24.9079 32.3251 24.5973C32.3216 24.1735 32.3251 24.1677 32.6202 24.0893C33.0307 23.9805 33.0732 24.0015 33.163 24.358ZM29.2842 24.7473C29.0287 24.9483 29.008 25.1503 29.243 25.1503C29.5025 25.1503 29.7339 24.9971 29.7339 24.8253C29.7339 24.5954 29.5236 24.559 29.2842 24.7473ZM23.6359 24.7201C23.3693 24.8895 23.1769 25.8506 23.3537 26.1296C23.3924 26.1905 23.5127 26.2277 23.6213 26.2123C23.8817 26.1756 24.108 25.7182 24.1082 25.2289C24.1084 24.7434 23.9195 24.5399 23.6359 24.7201Z" fill="#FEC911"/>
</svg>
