<svg width="45" height="45" viewBox="0 0 45 45" fill="none" xmlns="http://www.w3.org/2000/svg">
<g clip-path="url(#clip0)">
<path d="M21.2647 6.45718C16.9373 7.22552 13.936 4.67634 10.9419 8.90845C7.38378 13.9378 13.7476 23.2562 24.1925 20.7783C34.1318 18.4204 36.3306 8.37231 31.0143 4.83665C27.4547 2.4694 25.0917 5.77761 21.2647 6.45718Z" fill="#FFECA1"/>
<path d="M22.7648 14.1671C22.7454 14.1831 22.7261 14.1992 22.7067 14.2153C22.5217 14.3699 22.2479 14.3466 22.0912 14.1634C21.1146 13.0205 19.6284 12.3804 18.1252 12.1785C15.1851 11.7837 13.0972 13.4832 10.7873 15.467C12.6787 19.2342 17.6295 22.3347 24.1924 20.7778C28.2378 19.8182 31.0007 17.5845 32.4968 15.0345C28.6822 13.8124 25.763 11.6856 22.7648 14.1671Z" fill="#FFDF85"/>
<path d="M21.2647 6.45762C22.4764 6.24246 23.5414 5.76372 24.544 5.28516C25.2017 6.73175 25.4937 8.92515 21.7343 9.57879C18.2593 10.183 17.6486 8.30209 17.7823 6.53373C18.852 6.62347 20.0018 6.68183 21.2647 6.45762Z" fill="#CC624E"/>
<path d="M24.7035 5.67383C24.5756 6.68712 23.7825 7.64214 21.5141 8.0365C19.2264 8.43421 18.1804 7.7549 17.7705 6.73985C17.7009 8.44397 18.3946 10.1585 21.7342 9.57793C25.1695 8.98071 25.2218 7.09792 24.7035 5.67383Z" fill="#BC574A"/>
<path d="M33.0298 16.8094C28.6602 16.3368 26.4916 13.05 22.4333 16.2757C17.6106 20.1092 21.1142 30.8355 31.8352 31.3778C42.0373 31.8939 46.9587 22.8618 42.8434 17.9804C40.0882 14.7121 36.8942 17.2274 33.0298 16.8094Z" fill="#FFECA1"/>
<path d="M44.2498 21.2365C43.8848 24.4143 41.3799 27.6637 37.2576 29.0809C37.0743 26.6396 35.8781 24.3879 33.6352 22.887C28.871 19.6988 26.6876 23.5277 22.2259 24.9828C21.1423 23.503 20.5122 21.8457 20.3526 20.2559C19.8597 24.9054 23.8399 30.9737 31.8355 31.3781C40.032 31.7926 44.8185 26.0441 44.2498 21.2365Z" fill="#FFDF85"/>
<path d="M33.0299 16.8093C34.2535 16.9416 35.4098 16.7798 36.5063 16.6007C36.7331 18.1735 36.4 20.361 32.6078 19.9371C29.1025 19.5452 29.0422 17.5686 29.6651 15.9082C30.667 16.2937 31.7547 16.6714 33.0299 16.8093Z" fill="#CC624E"/>
<path d="M32.7905 18.3285C30.5742 18.0807 29.7354 17.1993 29.5755 16.165C29.0573 17.7667 29.2813 19.5655 32.6077 19.9374C36.1738 20.3361 36.6809 18.4255 36.5401 16.8883C36.153 17.8573 35.1304 18.59 32.7905 18.3285Z" fill="#BC574A"/>
<path d="M9.44874 19.0638C13.2523 16.8617 13.9036 12.9782 18.9207 14.2835C24.8829 15.8349 26.0246 27.061 16.4421 31.8996C7.32345 36.504 -0.834729 30.2396 0.950505 24.1096C2.14573 20.0053 6.08481 21.0113 9.44874 19.0638Z" fill="#FFECA1"/>
<path d="M23.4894 20.6123C23.3745 22.062 22.9448 23.5672 22.1552 25.0002C22.1532 25.0006 22.1511 25.0012 22.149 25.0016C17.4859 25.8277 13.8436 23.7555 11.1671 28.5246C10.5757 29.5784 10.2606 30.7262 10.2025 31.9061C5.11968 31.934 1.24423 28.7555 0.755998 25.0388C0.182511 29.4045 4.44459 33.5548 10.2748 33.4878V33.488C10.2809 33.4879 10.2869 33.4876 10.2929 33.4875C12.2121 33.4626 14.3003 32.9815 16.4419 31.9001C21.7947 29.1972 23.8002 24.5016 23.4894 20.6123Z" fill="#FFDF85"/>
<path d="M9.44867 19.0637C8.38361 19.6803 7.2609 20.0008 6.18582 20.2812C6.61552 21.8111 7.80617 23.6762 11.1016 21.7525C14.1477 19.9743 13.4022 18.1428 12.1601 16.877C11.4 17.6352 10.5586 18.421 9.44867 19.0637Z" fill="#CC624E"/>
<path d="M12.3536 17.084C12.6691 18.1134 12.2889 19.2892 10.313 20.4426C8.27942 21.6298 7.04764 21.3738 6.30127 20.6445C6.81473 22.0799 8.06392 23.5258 11.1016 21.7526C13.9855 20.069 13.4707 18.3377 12.3536 17.084Z" fill="#BC574A"/>
<path d="M22.4512 26.457C26.7149 25.3904 28.4129 21.8375 32.8747 24.477C38.177 27.6139 36.1755 38.7189 25.6297 40.7245C15.5944 42.633 9.48242 34.3601 12.8904 28.961C15.1721 25.346 18.6804 27.4002 22.4512 26.457Z" fill="#FFECA1"/>
<path d="M25.6295 39.1422C17.9417 40.6043 12.5565 36.091 11.99 31.4722C11.3546 36.5613 17.0613 42.3538 25.6295 40.7243C32.8802 39.3454 36.0919 33.6651 35.6677 29.2305C35.2935 33.3409 32.0406 37.923 25.6295 39.1422Z" fill="#FFDF85"/>
<path d="M22.451 26.4569C21.2571 26.7555 20.0896 26.7537 18.9788 26.7264C18.9696 28.3155 19.5991 30.4368 23.2975 29.4974C26.7161 28.6292 26.5051 26.663 25.6606 25.1035C24.721 25.6225 23.6954 26.1455 22.451 26.4569Z" fill="#CC624E"/>
<path d="M25.798 25.374C25.8127 26.4468 25.1201 27.4674 22.9094 28.0288C20.6146 28.6117 19.5019 28.0158 18.9896 27.1003C19.0847 28.6234 19.8827 30.3652 23.2975 29.4979C26.5216 28.6791 26.5172 26.8838 25.798 25.374Z" fill="#BC574A"/>
<path d="M43.3853 17.5468C41.3424 15.1235 39.0051 15.5111 36.7449 15.8857C35.5799 16.0788 34.3752 16.2784 33.1188 16.1426C32.9504 16.1245 32.7855 16.1016 32.6235 16.0751C33.2358 15.1933 33.7072 14.2499 34.0296 13.2593C34.1424 12.9124 33.9528 12.5397 33.606 12.4269C33.259 12.314 32.8864 12.5037 32.7735 12.8505C32.4396 13.8768 31.9206 14.8479 31.2292 15.7431C30.6136 15.5546 30.0334 15.328 29.4633 15.1051C27.2239 14.2294 25.1055 13.4034 22.2058 15.605C21.3631 14.6274 20.2962 13.9465 19.0778 13.6294C15.3741 12.6661 13.7411 14.313 12.0123 16.057C11.9854 16.0842 11.9583 16.1114 11.9313 16.1387C10.3471 13.8169 10.1395 11.1261 11.4566 9.26441C13.1947 6.8077 14.8429 6.90596 17.0972 7.10688C17.1289 8.15524 17.4552 8.9691 18.0731 9.52993C18.8166 10.2047 19.8593 10.3681 20.8296 10.3209C21.1697 10.3044 21.5083 10.2629 21.8436 10.2046C23.5928 9.90048 24.7499 9.2348 25.2829 8.22599C25.6758 7.48217 25.7071 6.57769 25.3824 5.58347C27.2971 4.66782 28.7344 4.07069 30.6625 5.35328C32.2959 6.43961 33.2145 8.29858 33.1829 10.4538C33.1775 10.8185 33.4688 11.1185 33.8335 11.1238C33.8368 11.1239 33.8401 11.1239 33.8434 11.1239C34.2036 11.1239 34.4983 10.8346 34.5036 10.4732C34.5421 7.86027 33.4086 5.59331 31.394 4.25342C28.7549 2.49833 26.6194 3.52393 24.554 4.51586C23.4896 5.02712 22.3889 5.55569 21.1446 5.77665C19.7729 6.0202 18.5386 5.90981 17.3448 5.80293C14.8989 5.58391 12.5887 5.37719 10.3782 8.50144C9.4748 9.7784 9.10839 11.3377 9.31853 13.0105C9.49484 14.4138 10.0641 15.807 10.9725 17.0727C10.4215 17.5792 9.81652 18.066 9.09037 18.4864C7.99666 19.1196 6.81444 19.425 5.67107 19.7203C3.4528 20.2933 1.15894 20.8857 0.272743 23.9289C-0.131817 25.3179 -0.0855868 26.7805 0.406249 28.1584C0.533603 28.5153 0.949237 28.6936 1.29605 28.5401C1.60807 28.4021 1.76486 28.0355 1.65025 27.7144C1.25246 26.5999 1.21467 25.4186 1.54092 24.2982C2.18841 22.0751 3.672 21.6049 5.72609 21.0707C6.11879 22.04 6.72576 22.7113 7.50561 23.0267C7.84654 23.1646 8.21384 23.2333 8.60679 23.2333C9.43288 23.2333 10.3714 22.9289 11.4104 22.3224C12.8881 21.4597 13.7116 20.4684 13.858 19.376C13.9688 18.5488 13.6937 17.7163 13.0422 16.8945C14.6364 15.2876 15.8329 14.15 18.7452 14.908C20.258 15.3015 21.4868 16.4296 22.2051 18.0844C23.2137 20.4078 23.0346 23.3901 21.7488 25.9383C20.7049 26.1212 19.6687 26.0941 18.6614 26.0669C16.3711 26.0051 14.0028 25.9415 12.311 28.6218C11.5316 29.8565 11.1731 31.2887 11.2743 32.7634C11.2749 32.772 11.2759 32.7806 11.2765 32.7891C7.94111 33.1162 4.76404 31.9941 2.87053 29.7855C2.63313 29.5084 2.21618 29.4764 1.93924 29.714C1.66229 29.9514 1.6303 30.3684 1.86769 30.6452C3.79593 32.8942 6.85302 34.1657 10.1456 34.1657C10.5893 34.1657 11.0377 34.1407 11.4878 34.0939C11.7284 35.0483 12.1534 35.985 12.746 36.8551C13.9445 38.6151 15.7156 39.9865 17.8678 40.8212C19.3717 41.4044 21.0229 41.6989 22.7458 41.6989C23.7307 41.6989 24.7391 41.6026 25.7565 41.4092C27.5477 41.0685 29.1842 40.4593 30.6203 39.5985C30.9331 39.4111 31.0348 39.0055 30.8472 38.6926C30.6597 38.3796 30.2541 38.2781 29.9412 38.4656C28.6388 39.2462 27.1478 39.8 25.5097 40.1115C22.9556 40.5972 20.4782 40.4168 18.3454 39.5898C16.4436 38.8522 14.8849 37.6496 13.8377 36.1117C12.3128 33.8725 12.1596 31.336 13.4279 29.3267C14.6638 27.3686 16.2196 27.3261 18.3414 27.3797C18.4512 28.4198 18.8493 29.2326 19.5118 29.751C20.0667 30.1852 20.7852 30.4027 21.6589 30.4027C22.2001 30.4027 22.8011 30.3192 23.4593 30.1521C25.1178 29.7308 26.183 29.0052 26.6252 27.9957C26.96 27.2313 26.9254 26.3553 26.5261 25.3855C28.5018 24.2811 29.9659 23.518 32.5559 25.0503C33.9321 25.8644 34.8067 27.3269 35.0187 29.1684C35.3279 31.8543 34.1526 34.8313 31.9516 36.9374C31.6881 37.1896 31.6789 37.6076 31.931 37.8712C32.1833 38.1347 32.6014 38.144 32.8648 37.8918C34.6889 36.1464 35.8711 33.9358 36.2544 31.664C40.213 30.7059 43.3619 28.0653 44.5336 24.686C45.4355 22.0842 45.017 19.4823 43.3853 17.5468ZM21.3755 7.07717C22.4006 6.89515 23.3288 6.53559 24.1762 6.15291C24.31 6.63306 24.3499 7.16436 24.115 7.60899C23.7877 8.22862 22.9241 8.67607 21.6174 8.90318C20.3535 9.12291 19.4598 9.00479 18.9609 8.5518C18.6438 8.26396 18.464 7.81492 18.4233 7.2127C19.3309 7.26613 20.3151 7.26543 21.3755 7.07717ZM12.5489 19.2004C12.4594 19.8683 11.8523 20.5348 10.7445 21.1815C9.59917 21.8502 8.65048 22.0646 8.00079 21.802C7.53462 21.6134 7.22252 21.1815 7.01536 20.7282C7.90982 20.4746 8.85122 20.1511 9.75218 19.6294C10.6843 19.0898 11.4371 18.4559 12.0966 17.83C12.4538 18.3167 12.6057 18.7759 12.5489 19.2004ZM35.9241 17.3518C35.9184 17.8503 35.808 18.3715 35.4582 18.7327C34.9706 19.236 34.0163 19.424 32.6983 19.2769C31.4235 19.1344 30.5984 18.7708 30.2461 18.1965C30.0221 17.8314 29.975 17.35 30.1044 16.7604C30.9609 17.0655 31.906 17.3402 32.9767 17.4559C34.0118 17.5681 35.0036 17.4825 35.9241 17.3518ZM25.4154 27.4654C25.1451 28.0827 24.3775 28.5558 23.1343 28.8715C21.8489 29.198 20.8778 29.1423 20.326 28.7105C19.9299 28.4006 19.7492 27.8993 19.6753 27.4064C20.605 27.4096 21.5991 27.3585 22.6091 27.1059C23.6539 26.8446 24.5525 26.4432 25.3591 26.0236C25.5679 26.5899 25.5873 27.0732 25.4154 27.4654ZM43.2856 24.2529C42.3041 27.084 39.7016 29.3293 36.3874 30.2632C36.3965 29.8464 36.3785 29.4301 36.3309 29.0171C36.0706 26.7553 34.9688 24.9427 33.2285 23.9131C29.9346 21.9645 27.9103 23.097 25.7673 24.2961C25.0253 24.7114 24.2647 25.1361 23.4031 25.4689C24.4342 22.8192 24.4555 19.9509 23.4168 17.5583C23.2834 17.2509 23.1348 16.9585 22.9723 16.6812C25.2553 14.9317 26.7918 15.4798 28.8608 16.2879C28.5981 17.3032 28.6838 18.1759 29.1202 18.8872C29.6966 19.8267 30.8511 20.3995 32.5516 20.5896C32.8916 20.6275 33.214 20.6466 33.519 20.6466C34.7971 20.6465 35.7661 20.3135 36.407 19.6519C36.9922 19.0477 37.2752 18.188 37.2416 17.1427C39.3361 16.7991 40.883 16.628 42.3754 18.3983C43.6993 19.9687 44.0312 22.1027 43.2856 24.2529Z" fill="black"/>
</g>
<defs>
<clipPath id="clip0">
<rect width="45" height="45" fill="white"/>
</clipPath>
</defs>
</svg>
