<svg width="31" height="26" viewBox="0 0 31 26" fill="none" xmlns="http://www.w3.org/2000/svg">
  <path fill-rule="evenodd" clip-rule="evenodd"
    d="M23.914 0.288103C23.914 0.312282 23.8151 0.332066 23.6942 0.332066C23.5733 0.332066 23.4744 0.351849 23.4744 0.376028C23.4744 0.400207 23.3953 0.41999 23.2986 0.41999C23.2018 0.41999 23.1227 0.439773 23.1227 0.463953C23.1227 0.488132 23.0831 0.507915 23.0348 0.507915C22.9864 0.507915 22.9469 0.527698 22.9469 0.551878C22.9469 0.576057 22.9073 0.59584 22.8589 0.59584C22.8106 0.59584 22.771 0.615623 22.771 0.639803C22.771 0.663982 22.7314 0.683765 22.6831 0.683765C22.6347 0.683765 22.5952 0.703548 22.5952 0.727728C22.5952 0.751907 22.5599 0.77169 22.517 0.77169C22.4739 0.77169 22.4102 0.811256 22.3754 0.859615C22.3405 0.907974 22.2864 0.94754 22.2551 0.94754C22.181 0.94754 21.4521 1.67635 21.4521 1.75051C21.4521 1.78177 21.4126 1.83589 21.3642 1.87075C21.3159 1.90561 21.2763 1.96931 21.2763 2.01235C21.2763 2.05535 21.2565 2.09056 21.2323 2.09056C21.2081 2.09056 21.1884 2.13013 21.1884 2.17849C21.1884 2.22685 21.1686 2.26641 21.1444 2.26641C21.1202 2.26641 21.1004 2.30598 21.1004 2.35434C21.1004 2.4027 21.0807 2.44226 21.0565 2.44226C21.0323 2.44226 21.0125 2.50161 21.0125 2.57415C21.0125 2.64669 20.9927 2.70604 20.9686 2.70604C20.9444 2.70604 20.9246 2.7569 20.9246 2.81907C20.9246 3.07554 21.6866 3.05774 10.7064 3.05774C4.0074 3.05774 0.613941 3.07251 0.613941 3.1017C0.613941 3.12588 0.583387 3.14566 0.546019 3.14566C0.45805 3.14566 0.262241 3.34147 0.262241 3.42944C0.262241 3.46681 0.242458 3.49736 0.218279 3.49736C0.193176 3.49736 0.174316 3.62925 0.174316 3.8051C0.174316 3.98095 0.193176 4.11284 0.218279 4.11284C0.242458 4.11284 0.262241 4.14339 0.262241 4.18076C0.262241 4.26873 0.45805 4.46454 0.546019 4.46454C0.583387 4.46454 0.613941 4.48432 0.613941 4.5085C0.613941 4.53769 4.0074 4.55246 10.7064 4.55246C21.6866 4.55246 20.9246 4.53465 20.9246 4.79113C20.9246 4.85329 20.9444 4.90416 20.9686 4.90416C20.9927 4.90416 21.0125 4.96351 21.0125 5.03605C21.0125 5.10859 21.0323 5.16793 21.0565 5.16793C21.0807 5.16793 21.1004 5.2075 21.1004 5.25586C21.1004 5.30422 21.1202 5.34378 21.1444 5.34378C21.1686 5.34378 21.1884 5.38335 21.1884 5.43171C21.1884 5.48007 21.2081 5.51963 21.2323 5.51963C21.2565 5.51963 21.2763 5.55485 21.2763 5.59784C21.2763 5.64088 21.3159 5.70458 21.3642 5.73945C21.4126 5.77431 21.4521 5.82843 21.4521 5.85968C21.4521 5.93385 22.181 6.66266 22.2551 6.66266C22.2864 6.66266 22.3405 6.70222 22.3754 6.75058C22.4102 6.79894 22.4739 6.83851 22.517 6.83851C22.5599 6.83851 22.5952 6.85829 22.5952 6.88247C22.5952 6.90665 22.6347 6.92643 22.6831 6.92643C22.7314 6.92643 22.771 6.94622 22.771 6.97039C22.771 6.99457 22.8106 7.01436 22.8589 7.01436C22.9073 7.01436 22.9469 7.03414 22.9469 7.05832C22.9469 7.0825 22.9864 7.10228 23.0348 7.10228C23.0831 7.10228 23.1227 7.12207 23.1227 7.14624C23.1227 7.17042 23.2018 7.19021 23.2986 7.19021C23.3953 7.19021 23.4744 7.20999 23.4744 7.23417C23.4744 7.25835 23.5733 7.27813 23.6942 7.27813C23.8151 7.27813 23.914 7.29791 23.914 7.32209C23.914 7.34847 24.0899 7.36606 24.3537 7.36606C24.6174 7.36606 24.7933 7.34847 24.7933 7.32209C24.7933 7.29791 24.8922 7.27813 25.0131 7.27813C25.134 7.27813 25.2329 7.25835 25.2329 7.23417C25.2329 7.20999 25.2923 7.19021 25.3648 7.19021C25.4373 7.19021 25.4967 7.17042 25.4967 7.14624C25.4967 7.12207 25.556 7.10228 25.6286 7.10228C25.7011 7.10228 25.7605 7.0825 25.7605 7.05832C25.7605 7.03414 25.8 7.01436 25.8484 7.01436C25.8967 7.01436 25.9363 6.99457 25.9363 6.97039C25.9363 6.94622 25.9715 6.92643 26.0145 6.92643C26.0576 6.92643 26.1213 6.88687 26.1561 6.83851C26.191 6.79015 26.2503 6.75058 26.288 6.75058C26.3257 6.75058 26.385 6.71102 26.4199 6.66266C26.4548 6.6143 26.509 6.57473 26.5404 6.57473C26.6103 6.57473 27.0793 6.1126 27.0793 6.0438C27.0793 6.01672 27.1387 5.93908 27.2112 5.87133C27.2838 5.80359 27.3431 5.7165 27.3431 5.67786C27.3431 5.63917 27.3629 5.60756 27.3871 5.60756C27.4112 5.60756 27.431 5.56799 27.431 5.51963C27.431 5.47128 27.4508 5.43171 27.475 5.43171C27.4992 5.43171 27.519 5.39214 27.519 5.34378C27.519 5.29543 27.5387 5.25586 27.5629 5.25586C27.5871 5.25586 27.6069 5.21629 27.6069 5.16793C27.6069 5.11958 27.6267 5.08001 27.6508 5.08001C27.675 5.08001 27.6948 5.02066 27.6948 4.94812C27.6948 4.87558 27.7146 4.81624 27.7388 4.81624C27.7629 4.81624 27.7827 4.75689 27.7827 4.68435V4.55246H28.8818C29.5852 4.55246 29.9809 4.53663 29.9809 4.5085C29.9809 4.48432 30.0114 4.46454 30.0488 4.46454C30.1367 4.46454 30.3326 4.26873 30.3326 4.18076C30.3326 4.14339 30.3523 4.11284 30.3765 4.11284C30.4016 4.11284 30.4205 3.98095 30.4205 3.8051C30.4205 3.62925 30.4016 3.49736 30.3765 3.49736C30.3523 3.49736 30.3326 3.46681 30.3326 3.42944C30.3326 3.34147 30.1367 3.14566 30.0488 3.14566C30.0114 3.14566 29.9809 3.12588 29.9809 3.1017C29.9809 3.07356 29.5852 3.05774 28.8818 3.05774H27.7827V2.92585C27.7827 2.85331 27.7629 2.79396 27.7388 2.79396C27.7146 2.79396 27.6948 2.73461 27.6948 2.66208C27.6948 2.58954 27.675 2.53019 27.6508 2.53019C27.6267 2.53019 27.6069 2.49062 27.6069 2.44226C27.6069 2.3939 27.5871 2.35434 27.5629 2.35434C27.5387 2.35434 27.519 2.31477 27.519 2.26641C27.519 2.21805 27.4992 2.17849 27.475 2.17849C27.4508 2.17849 27.431 2.13892 27.431 2.09056C27.431 2.0422 27.4112 2.00264 27.3871 2.00264C27.3629 2.00264 27.3431 1.97103 27.3431 1.93234C27.3431 1.8937 27.2838 1.80661 27.2112 1.73886C27.1387 1.67112 27.0793 1.59348 27.0793 1.5664C27.0793 1.4976 26.6103 1.03546 26.5404 1.03546C26.509 1.03546 26.4548 0.995898 26.4199 0.94754C26.385 0.899181 26.3257 0.859615 26.288 0.859615C26.2503 0.859615 26.191 0.820049 26.1561 0.77169C26.1213 0.723331 26.0576 0.683765 26.0145 0.683765C25.9715 0.683765 25.9363 0.663982 25.9363 0.639803C25.9363 0.615623 25.8967 0.59584 25.8484 0.59584C25.8 0.59584 25.7605 0.576057 25.7605 0.551878C25.7605 0.527698 25.7011 0.507915 25.6286 0.507915C25.556 0.507915 25.4967 0.488132 25.4967 0.463953C25.4967 0.439773 25.4373 0.41999 25.3648 0.41999C25.2923 0.41999 25.2329 0.400207 25.2329 0.376028C25.2329 0.351849 25.134 0.332066 25.0131 0.332066C24.8922 0.332066 24.7933 0.312282 24.7933 0.288103C24.7933 0.261726 24.6174 0.244141 24.3537 0.244141C24.0899 0.244141 23.914 0.261726 23.914 0.288103ZM24.8812 1.87075C24.8812 1.89493 24.9406 1.91471 25.0131 1.91471C25.0856 1.91471 25.145 1.9345 25.145 1.95868C25.145 1.98286 25.1846 2.00264 25.2329 2.00264C25.2813 2.00264 25.3208 2.02242 25.3208 2.0466C25.3208 2.07078 25.3509 2.09056 25.3876 2.09056C25.4745 2.09056 26.0242 2.64027 26.0242 2.72718C26.0242 2.76394 26.044 2.79396 26.0682 2.79396C26.0924 2.79396 26.1122 2.83353 26.1122 2.88189C26.1122 2.93025 26.1319 2.96981 26.1561 2.96981C26.1803 2.96981 26.2001 3.00938 26.2001 3.05774C26.2001 3.1061 26.2199 3.14566 26.244 3.14566C26.2682 3.14566 26.288 3.22479 26.288 3.32151C26.288 3.41823 26.3078 3.49736 26.332 3.49736C26.3571 3.49736 26.3759 3.62925 26.3759 3.8051C26.3759 3.98095 26.3571 4.11284 26.332 4.11284C26.3078 4.11284 26.288 4.19197 26.288 4.28869C26.288 4.3854 26.2682 4.46454 26.244 4.46454C26.2199 4.46454 26.2001 4.5041 26.2001 4.55246C26.2001 4.60082 26.1803 4.64039 26.1561 4.64039C26.1319 4.64039 26.1122 4.67995 26.1122 4.72831C26.1122 4.77667 26.0924 4.81624 26.0682 4.81624C26.044 4.81624 26.0242 4.84635 26.0242 4.88315C26.0242 4.96461 25.5654 5.43171 25.4853 5.43171C25.4539 5.43171 25.3997 5.47128 25.3648 5.51963C25.3299 5.56799 25.2662 5.60756 25.2232 5.60756C25.1802 5.60756 25.145 5.62734 25.145 5.65152C25.145 5.6757 25.0856 5.69548 25.0131 5.69548C24.9406 5.69548 24.8812 5.71527 24.8812 5.73945C24.8812 5.76631 24.676 5.78341 24.3537 5.78341C24.0313 5.78341 23.8261 5.76631 23.8261 5.73945C23.8261 5.71527 23.7668 5.69548 23.6942 5.69548C23.6217 5.69548 23.5623 5.6757 23.5623 5.65152C23.5623 5.62734 23.5228 5.60756 23.4744 5.60756C23.4261 5.60756 23.3865 5.58778 23.3865 5.5636C23.3865 5.53942 23.3565 5.51963 23.3198 5.51963C23.233 5.51963 22.5952 4.88183 22.5952 4.79496C22.5952 4.75829 22.5754 4.72831 22.5512 4.72831C22.527 4.72831 22.5072 4.68874 22.5072 4.64039C22.5072 4.59203 22.4875 4.55246 22.4633 4.55246C22.4391 4.55246 22.4193 4.47333 22.4193 4.37661C22.4193 4.27989 22.3995 4.20076 22.3754 4.20076C22.3493 4.20076 22.3314 4.03955 22.3314 3.8051C22.3314 3.57065 22.3493 3.40944 22.3754 3.40944C22.3995 3.40944 22.4193 3.3303 22.4193 3.23359C22.4193 3.13687 22.4391 3.05774 22.4633 3.05774C22.4875 3.05774 22.5072 3.01817 22.5072 2.96981C22.5072 2.92145 22.527 2.88189 22.5512 2.88189C22.5754 2.88189 22.5952 2.85191 22.5952 2.81524C22.5952 2.72837 23.233 2.09056 23.3198 2.09056C23.3565 2.09056 23.3865 2.07078 23.3865 2.0466C23.3865 2.02242 23.4261 2.00264 23.4744 2.00264C23.5228 2.00264 23.5623 1.98286 23.5623 1.95868C23.5623 1.9345 23.6217 1.91471 23.6942 1.91471C23.7668 1.91471 23.8261 1.89493 23.8261 1.87075C23.8261 1.84389 24.0313 1.82679 24.3537 1.82679C24.676 1.82679 24.8812 1.84389 24.8812 1.87075ZM5.88943 9.52022C5.88943 9.5444 5.8103 9.56418 5.71358 9.56418C5.61687 9.56418 5.53773 9.58396 5.53773 9.60814C5.53773 9.63232 5.47839 9.6521 5.40585 9.6521C5.33331 9.6521 5.27396 9.67189 5.27396 9.69607C5.27396 9.72025 5.23439 9.74003 5.18604 9.74003C5.13768 9.74003 5.09811 9.75981 5.09811 9.78399C5.09811 9.80817 5.05854 9.82795 5.01019 9.82795C4.96183 9.82795 4.92226 9.84774 4.92226 9.87192C4.92226 9.8961 4.88705 9.91588 4.84405 9.91588C4.80101 9.91588 4.73731 9.95544 4.70245 10.0038C4.66759 10.0522 4.61347 10.0917 4.58221 10.0917C4.50805 10.0917 3.77924 10.8205 3.77924 10.8947C3.77924 10.926 3.73967 10.9801 3.69131 11.0149C3.64295 11.0498 3.60339 11.1135 3.60339 11.1565C3.60339 11.1995 3.5836 11.2348 3.55942 11.2348C3.53525 11.2348 3.51546 11.2743 3.51546 11.3227C3.51546 11.371 3.49568 11.4106 3.4715 11.4106C3.44732 11.4106 3.42754 11.4502 3.42754 11.4985C3.42754 11.5469 3.40775 11.5865 3.38357 11.5865C3.3594 11.5865 3.33961 11.626 3.33961 11.6744C3.33961 11.7227 3.31983 11.7623 3.29565 11.7623C3.27147 11.7623 3.25169 11.8414 3.25169 11.9382C3.25169 12.0349 3.2319 12.114 3.20773 12.114C3.18355 12.114 3.16376 12.1536 3.16376 12.2019C3.16376 12.284 3.13444 12.2899 2.72414 12.2899C2.46036 12.2899 2.28451 12.2723 2.28451 12.2459C2.28451 12.2182 1.99142 12.2019 1.49319 12.2019C0.994963 12.2019 0.701866 12.2182 0.701866 12.2459C0.701866 12.2701 0.6623 12.2899 0.613941 12.2899C0.565582 12.2899 0.526016 12.3096 0.526016 12.3338C0.526016 12.358 0.48645 12.3778 0.438091 12.3778C0.383094 12.3778 0.350166 12.4071 0.350166 12.456C0.350166 12.499 0.3106 12.5627 0.262241 12.5976C0.187285 12.6516 0.174316 12.7114 0.174316 13.003C0.174316 13.2016 0.192737 13.3449 0.218279 13.3449C0.242458 13.3449 0.262241 13.376 0.262241 13.414C0.262241 13.5029 0.368103 13.6087 0.456951 13.6087C0.494935 13.6087 0.526016 13.6285 0.526016 13.6527C0.526016 13.6769 0.565582 13.6966 0.613941 13.6966C0.6623 13.6966 0.701866 13.7164 0.701866 13.7406C0.701866 13.7683 0.994963 13.7846 1.49319 13.7846C1.99142 13.7846 2.28451 13.7683 2.28451 13.7406C2.28451 13.715 2.43104 13.6966 2.63621 13.6966C2.84139 13.6966 2.98791 13.715 2.98791 13.7406C2.98791 13.7648 3.02748 13.7846 3.07584 13.7846C3.13444 13.7846 3.16376 13.8139 3.16376 13.8725C3.16376 13.9209 3.18355 13.9604 3.20773 13.9604C3.2319 13.9604 3.25169 14.0198 3.25169 14.0923C3.25169 14.1648 3.27147 14.2242 3.29565 14.2242C3.31983 14.2242 3.33961 14.2835 3.33961 14.3561C3.33961 14.4286 3.3594 14.488 3.38357 14.488C3.40775 14.488 3.42754 14.5232 3.42754 14.5662C3.42754 14.6092 3.4671 14.6729 3.51546 14.7078C3.56382 14.7426 3.60339 14.8063 3.60339 14.8494C3.60339 14.8924 3.62317 14.9276 3.64735 14.9276C3.67153 14.9276 3.69131 14.9575 3.69131 14.9941C3.69131 15.075 4.50233 15.8948 4.58225 15.8948C4.61351 15.8948 4.66759 15.9343 4.70245 15.9827C4.73731 16.0311 4.80101 16.0706 4.84405 16.0706C4.88705 16.0706 4.92226 16.0904 4.92226 16.1146C4.92226 16.1388 4.96183 16.1585 5.01019 16.1585C5.05854 16.1585 5.09811 16.1783 5.09811 16.2025C5.09811 16.2267 5.13768 16.2465 5.18604 16.2465C5.23439 16.2465 5.27396 16.2663 5.27396 16.2904C5.27396 16.3146 5.33331 16.3344 5.40585 16.3344C5.47839 16.3344 5.53773 16.3542 5.53773 16.3784C5.53773 16.4025 5.61687 16.4223 5.71358 16.4223C5.8103 16.4223 5.88943 16.4421 5.88943 16.4663C5.88943 16.4938 6.15321 16.5102 6.59283 16.5102C7.03246 16.5102 7.29623 16.4938 7.29623 16.4663C7.29623 16.4421 7.37536 16.4223 7.47208 16.4223C7.5688 16.4223 7.64793 16.4025 7.64793 16.3784C7.64793 16.3542 7.70728 16.3344 7.77982 16.3344C7.85236 16.3344 7.91171 16.3146 7.91171 16.2904C7.91171 16.2663 7.95127 16.2465 7.99963 16.2465C8.04799 16.2465 8.08756 16.2267 8.08756 16.2025C8.08756 16.1783 8.12712 16.1585 8.17548 16.1585C8.22384 16.1585 8.26341 16.1388 8.26341 16.1146C8.26341 16.0904 8.30297 16.0706 8.35133 16.0706C8.39969 16.0706 8.43926 16.0508 8.43926 16.0267C8.43926 16.0025 8.47047 15.9827 8.50863 15.9827C8.54683 15.9827 8.65406 15.9036 8.74699 15.8068C8.83993 15.7101 8.93792 15.631 8.96483 15.631C9.02888 15.631 9.31851 15.3406 9.31851 15.2764C9.31851 15.2491 9.37785 15.1712 9.45039 15.1034C9.52293 15.0357 9.58228 14.9486 9.58228 14.91C9.58228 14.8713 9.60206 14.8397 9.62624 14.8397C9.65042 14.8397 9.6702 14.8001 9.6702 14.7517C9.6702 14.7034 9.68999 14.6638 9.71417 14.6638C9.73835 14.6638 9.75813 14.6243 9.75813 14.5759C9.75813 14.5275 9.77791 14.488 9.80209 14.488C9.82627 14.488 9.84605 14.4484 9.84605 14.4C9.84605 14.3517 9.86584 14.3121 9.89002 14.3121C9.9142 14.3121 9.93398 14.2726 9.93398 14.2242C9.93398 14.1758 9.95376 14.1363 9.97794 14.1363C10.0021 14.1363 10.0219 14.0571 10.0219 13.9604V13.7846H10.5055C10.7986 13.7846 10.9891 13.7673 10.9891 13.7406C10.9891 13.7164 11.0286 13.6966 11.077 13.6966C11.1254 13.6966 11.1649 13.7164 11.1649 13.7406C11.1649 13.7651 11.2822 13.7846 11.4287 13.7846C11.5752 13.7846 11.6925 13.7651 11.6925 13.7406C11.6925 13.7164 11.732 13.6966 11.7804 13.6966C11.8288 13.6966 11.8683 13.7164 11.8683 13.7406C11.8683 13.7676 12.0881 13.7846 12.4398 13.7846C12.7915 13.7846 13.0114 13.7676 13.0114 13.7406C13.0114 13.7164 13.0509 13.6966 13.0993 13.6966C13.1476 13.6966 13.1872 13.7164 13.1872 13.7406C13.1872 13.7648 13.2861 13.7846 13.407 13.7846C13.5279 13.7846 13.6268 13.7648 13.6268 13.7406C13.6268 13.7164 13.6664 13.6966 13.7147 13.6966C13.7631 13.6966 13.8027 13.7164 13.8027 13.7406C13.8027 13.768 14.0518 13.7846 14.4621 13.7846C14.8724 13.7846 15.1215 13.768 15.1215 13.7406C15.1215 13.7164 15.1611 13.6966 15.2095 13.6966C15.2578 13.6966 15.2974 13.7164 15.2974 13.7406C15.2974 13.7651 15.4146 13.7846 15.5612 13.7846C15.7077 13.7846 15.8249 13.7651 15.8249 13.7406C15.8249 13.7164 15.8645 13.6966 15.9129 13.6966C15.9612 13.6966 16.0008 13.7164 16.0008 13.7406C16.0008 13.8093 17.1299 13.7986 17.1622 13.7296C17.1826 13.6857 17.1929 13.6857 17.2134 13.7296C17.2442 13.7955 17.6714 13.8058 17.6714 13.7406C17.6714 13.7164 17.7109 13.6966 17.7593 13.6966C17.8077 13.6966 17.8472 13.7164 17.8472 13.7406C17.8472 13.811 21.7893 13.8 21.8222 13.7296C21.8427 13.6857 21.8529 13.6857 21.8734 13.7296C21.9045 13.7962 22.4193 13.8065 22.4193 13.7406C22.4193 13.7164 22.4589 13.6966 22.5072 13.6966C22.5556 13.6966 22.5952 13.7164 22.5952 13.7406C22.5952 13.7667 22.7564 13.7846 22.9908 13.7846C23.2253 13.7846 23.3865 13.7667 23.3865 13.7406C23.3865 13.7164 23.4261 13.6966 23.4744 13.6966C23.5228 13.6966 23.5623 13.7164 23.5623 13.7406C23.5623 13.768 23.8115 13.7846 24.2218 13.7846C24.6321 13.7846 24.8812 13.768 24.8812 13.7406C24.8812 13.7164 24.9208 13.6966 24.9691 13.6966C25.0175 13.6966 25.0571 13.7164 25.0571 13.7406C25.0571 13.7648 25.1362 13.7846 25.2329 13.7846C25.3296 13.7846 25.4088 13.7648 25.4088 13.7406C25.4088 13.7164 25.4483 13.6966 25.4967 13.6966C25.545 13.6966 25.5846 13.7164 25.5846 13.7406C25.5846 13.7683 25.8777 13.7846 26.3759 13.7846C26.8742 13.7846 27.1673 13.7683 27.1673 13.7406C27.1673 13.7164 27.2068 13.6966 27.2552 13.6966C27.3035 13.6966 27.3431 13.7164 27.3431 13.7406C27.3431 13.7648 27.4222 13.7846 27.519 13.7846C27.6157 13.7846 27.6948 13.7648 27.6948 13.7406C27.6948 13.7164 27.7344 13.6966 27.7827 13.6966C27.8311 13.6966 27.8707 13.7164 27.8707 13.7406C27.8707 13.7687 28.237 13.7846 28.8818 13.7846C29.5266 13.7846 29.8929 13.7687 29.8929 13.7406C29.8929 13.7164 29.9325 13.6966 29.9809 13.6966C30.0292 13.6966 30.0688 13.6769 30.0688 13.6527C30.0688 13.6285 30.1083 13.6087 30.1567 13.6087C30.2117 13.6087 30.2446 13.5794 30.2446 13.5305C30.2446 13.4875 30.2842 13.4238 30.3326 13.3889C30.4071 13.3351 30.4205 13.2751 30.4205 12.9932C30.4205 12.7114 30.4071 12.6514 30.3326 12.5976C30.2842 12.5627 30.2446 12.499 30.2446 12.456C30.2446 12.4071 30.2117 12.3778 30.1567 12.3778C30.1083 12.3778 30.0688 12.358 30.0688 12.3338C30.0688 12.3096 30.0292 12.2899 29.9809 12.2899C29.9325 12.2899 29.8929 12.2701 29.8929 12.2459C29.8929 12.2176 29.4387 12.2019 28.618 12.2019C27.7974 12.2019 27.3431 12.2176 27.3431 12.2459C27.3431 12.2701 27.3035 12.2899 27.2552 12.2899C27.2068 12.2899 27.1673 12.2701 27.1673 12.2459C27.1673 12.2171 26.3759 12.2019 24.8812 12.2019C23.3865 12.2019 22.5952 12.2171 22.5952 12.2459C22.5952 12.2701 22.5556 12.2899 22.5072 12.2899C22.4589 12.2899 22.4193 12.2701 22.4193 12.2459C22.4193 12.2181 22.1116 12.2019 21.584 12.2019C21.0565 12.2019 20.7487 12.2181 20.7487 12.2459C20.7487 12.2701 20.7092 12.2899 20.6608 12.2899C20.6125 12.2899 20.5729 12.2701 20.5729 12.2459C20.5729 12.2171 19.7816 12.2019 18.2868 12.2019C16.7921 12.2019 16.0008 12.2171 16.0008 12.2459C16.0008 12.2701 15.9612 12.2899 15.9129 12.2899C15.8645 12.2899 15.8249 12.2701 15.8249 12.2459C15.8249 12.2176 15.356 12.2019 14.5061 12.2019C13.6561 12.2019 13.1872 12.2176 13.1872 12.2459C13.1872 12.2701 13.1476 12.2899 13.0993 12.2899C13.0509 12.2899 13.0114 12.2701 13.0114 12.2459C13.0114 12.1759 10.5638 12.1868 10.5311 12.2569C10.5106 12.3008 10.5003 12.3008 10.4799 12.2569C10.4494 12.1917 10.2857 12.1825 10.2857 12.2459C10.2857 12.3112 10.1567 12.2991 10.0847 12.227C10.0502 12.1925 10.0219 12.1134 10.0219 12.0512C10.0219 11.989 10.0021 11.9382 9.97794 11.9382C9.95376 11.9382 9.93398 11.8788 9.93398 11.8063C9.93398 11.7337 9.9142 11.6744 9.89002 11.6744C9.86584 11.6744 9.84605 11.6348 9.84605 11.5865C9.84605 11.5381 9.82627 11.4985 9.80209 11.4985C9.77791 11.4985 9.75813 11.459 9.75813 11.4106C9.75813 11.3622 9.73835 11.3227 9.71417 11.3227C9.68999 11.3227 9.6702 11.2831 9.6702 11.2348C9.6702 11.1864 9.65042 11.1468 9.62624 11.1468C9.60206 11.1468 9.58228 11.1152 9.58228 11.0765C9.58228 11.0379 9.52293 10.9508 9.45039 10.8831C9.37785 10.8153 9.31851 10.7374 9.31851 10.7101C9.31851 10.6459 9.02888 10.3555 8.96483 10.3555C8.93792 10.3555 8.83993 10.2764 8.74699 10.1797C8.65406 10.0829 8.54683 10.0038 8.50863 10.0038C8.47047 10.0038 8.43926 9.98402 8.43926 9.95984C8.43926 9.93566 8.39969 9.91588 8.35133 9.91588C8.30297 9.91588 8.26341 9.8961 8.26341 9.87192C8.26341 9.84774 8.22384 9.82795 8.17548 9.82795C8.12712 9.82795 8.08756 9.80817 8.08756 9.78399C8.08756 9.75981 8.04799 9.74003 7.99963 9.74003C7.95127 9.74003 7.91171 9.72025 7.91171 9.69607C7.91171 9.67189 7.85236 9.6521 7.77982 9.6521C7.70728 9.6521 7.64793 9.63232 7.64793 9.60814C7.64793 9.58396 7.5688 9.56418 7.47208 9.56418C7.37536 9.56418 7.29623 9.5444 7.29623 9.52022C7.29623 9.49274 7.03246 9.47625 6.59283 9.47625C6.15321 9.47625 5.88943 9.49274 5.88943 9.52022ZM7.12038 11.0149C7.12038 11.0391 7.17973 11.0589 7.25227 11.0589C7.32481 11.0589 7.38416 11.0787 7.38416 11.1029C7.38416 11.127 7.41577 11.1468 7.45445 11.1468C7.4931 11.1468 7.58019 11.2062 7.64793 11.2787C7.71568 11.3513 7.7934 11.4106 7.82062 11.4106C7.89483 11.4106 8.26341 11.7939 8.26341 11.8711C8.26341 11.9079 8.28319 11.9382 8.30737 11.9382C8.33155 11.9382 8.35133 11.9777 8.35133 12.0261C8.35133 12.0744 8.37111 12.114 8.39529 12.114C8.41947 12.114 8.43926 12.1536 8.43926 12.2019C8.43926 12.2503 8.45904 12.2899 8.48322 12.2899C8.5074 12.2899 8.52718 12.3492 8.52718 12.4217C8.52718 12.4943 8.54696 12.5536 8.57114 12.5536C8.59752 12.5536 8.61511 12.7295 8.61511 12.9932C8.61511 13.257 8.59752 13.4329 8.57114 13.4329C8.54696 13.4329 8.52718 13.4922 8.52718 13.5648C8.52718 13.6373 8.5074 13.6966 8.48322 13.6966C8.45904 13.6966 8.43926 13.7362 8.43926 13.7846C8.43926 13.8329 8.41947 13.8725 8.39529 13.8725C8.37111 13.8725 8.35133 13.9121 8.35133 13.9604C8.35133 14.0088 8.33155 14.0483 8.30737 14.0483C8.28319 14.0483 8.26341 14.0785 8.26341 14.1153C8.26341 14.1967 7.80457 14.6638 7.72451 14.6638C7.69308 14.6638 7.63883 14.7034 7.60397 14.7517C7.56673 14.8034 7.49015 14.8397 7.4184 14.8397C7.35123 14.8397 7.29623 14.8595 7.29623 14.8836C7.29623 14.9078 7.2171 14.9276 7.12038 14.9276C7.02367 14.9276 6.94453 14.9474 6.94453 14.9716C6.94453 14.9972 6.79801 15.0155 6.59283 15.0155C6.38766 15.0155 6.24113 14.9972 6.24113 14.9716C6.24113 14.9474 6.162 14.9276 6.06528 14.9276C5.96857 14.9276 5.88943 14.9078 5.88943 14.8836C5.88943 14.8595 5.84987 14.8397 5.80151 14.8397C5.75315 14.8397 5.71358 14.8199 5.71358 14.7957C5.71358 14.7715 5.67402 14.7517 5.62566 14.7517C5.5773 14.7517 5.53773 14.732 5.53773 14.7078C5.53773 14.6836 5.50762 14.6638 5.47082 14.6638C5.38378 14.6638 4.92226 14.2023 4.92226 14.1153C4.92226 14.0785 4.90248 14.0483 4.8783 14.0483C4.85412 14.0483 4.83434 14.0088 4.83434 13.9604C4.83434 13.9121 4.81455 13.8725 4.79037 13.8725C4.76619 13.8725 4.74641 13.8329 4.74641 13.7846C4.74641 13.7362 4.72663 13.6966 4.70245 13.6966C4.67827 13.6966 4.65849 13.6175 4.65849 13.5208C4.65849 13.4241 4.6387 13.3449 4.61452 13.3449C4.58942 13.3449 4.57056 13.2131 4.57056 13.0372C4.57056 12.8614 4.58942 12.7295 4.61452 12.7295C4.6387 12.7295 4.65849 12.6503 4.65849 12.5536C4.65849 12.4569 4.67827 12.3778 4.70245 12.3778C4.72663 12.3778 4.74641 12.3184 4.74641 12.2459C4.74641 12.1734 4.76619 12.114 4.79037 12.114C4.81455 12.114 4.83434 12.0824 4.83434 12.0437C4.83434 12.0051 4.89368 11.918 4.96622 11.8502C5.03876 11.7825 5.09811 11.7039 5.09811 11.6756C5.09811 11.6473 5.12638 11.5959 5.16093 11.5613C5.19544 11.5268 5.24688 11.4985 5.27515 11.4985C5.30346 11.4985 5.38206 11.4392 5.44981 11.3666C5.51756 11.2941 5.60465 11.2348 5.64329 11.2348C5.68198 11.2348 5.71358 11.215 5.71358 11.1908C5.71358 11.1666 5.75315 11.1468 5.80151 11.1468C5.84987 11.1468 5.88943 11.127 5.88943 11.1029C5.88943 11.0787 5.94878 11.0589 6.02132 11.0589C6.09386 11.0589 6.15321 11.0391 6.15321 11.0149C6.15321 10.9883 6.3437 10.971 6.6368 10.971C6.92989 10.971 7.12038 10.9883 7.12038 11.0149ZM17.4955 18.6644C17.4955 18.6886 17.3966 18.7084 17.2757 18.7084C17.1548 18.7084 17.0559 18.7282 17.0559 18.7523C17.0559 18.7765 16.9965 18.7963 16.924 18.7963C16.8515 18.7963 16.7921 18.8161 16.7921 18.8403C16.7921 18.8644 16.7328 18.8842 16.6602 18.8842C16.5877 18.8842 16.5283 18.904 16.5283 18.9282C16.5283 18.9524 16.4888 18.9721 16.4404 18.9721C16.3921 18.9721 16.3525 18.9919 16.3525 19.0161C16.3525 19.0403 16.3173 19.0601 16.2743 19.0601C16.2312 19.0601 16.1675 19.0996 16.1327 19.148C16.0978 19.1964 16.0385 19.2359 16.0008 19.2359C15.9631 19.2359 15.9038 19.2755 15.8689 19.3238C15.834 19.3722 15.7798 19.4118 15.7484 19.4118C15.6785 19.4118 15.2095 19.8739 15.2095 19.9427C15.2095 19.9698 15.1501 20.0474 15.0776 20.1152C15.005 20.1829 14.9457 20.27 14.9457 20.3086C14.9457 20.3473 14.9259 20.3789 14.9017 20.3789C14.8776 20.3789 14.8578 20.4185 14.8578 20.4669C14.8578 20.5152 14.838 20.5548 14.8138 20.5548C14.7896 20.5548 14.7698 20.5944 14.7698 20.6427C14.7698 20.6911 14.7501 20.7306 14.7259 20.7306C14.7017 20.7306 14.6819 20.7702 14.6819 20.8186C14.6819 20.8669 14.6621 20.9065 14.638 20.9065C14.6138 20.9065 14.594 20.9658 14.594 21.0384C14.594 21.1109 14.5742 21.1703 14.55 21.1703C14.5259 21.1703 14.5061 21.2296 14.5061 21.3022V21.434H7.56001C2.95859 21.434 0.613941 21.4489 0.613941 21.478C0.613941 21.5022 0.583387 21.522 0.546019 21.522C0.45805 21.522 0.262241 21.7178 0.262241 21.8057C0.262241 21.8431 0.242458 21.8737 0.218279 21.8737C0.192869 21.8737 0.174316 22.0134 0.174316 22.2048C0.174316 22.5241 0.179812 22.5415 0.326734 22.6884C0.410526 22.7723 0.509442 22.8408 0.546546 22.8408C0.583607 22.8408 0.613941 22.8606 0.613941 22.8848C0.613941 22.9139 2.95859 22.9288 7.56001 22.9288H14.5061V23.0606C14.5061 23.1332 14.5259 23.1925 14.55 23.1925C14.5742 23.1925 14.594 23.2519 14.594 23.3244C14.594 23.397 14.6138 23.4563 14.638 23.4563C14.6621 23.4563 14.6819 23.4959 14.6819 23.5442C14.6819 23.5926 14.7017 23.6322 14.7259 23.6322C14.7501 23.6322 14.7698 23.6717 14.7698 23.7201C14.7698 23.7684 14.7896 23.808 14.8138 23.808C14.838 23.808 14.8578 23.8476 14.8578 23.8959C14.8578 23.9443 14.8776 23.9839 14.9017 23.9839C14.9259 23.9839 14.9457 24.0155 14.9457 24.0542C14.9457 24.0928 15.005 24.1799 15.0776 24.2476C15.1501 24.3154 15.2095 24.393 15.2095 24.4201C15.2095 24.4843 15.6762 24.951 15.7404 24.951C15.7675 24.951 15.8451 25.0104 15.9129 25.0829C15.9806 25.1555 16.0677 25.2148 16.1064 25.2148C16.145 25.2148 16.1766 25.2346 16.1766 25.2588C16.1766 25.283 16.2162 25.3027 16.2646 25.3027C16.3129 25.3027 16.3525 25.3225 16.3525 25.3467C16.3525 25.3709 16.3921 25.3907 16.4404 25.3907C16.4888 25.3907 16.5283 25.4104 16.5283 25.4346C16.5283 25.4588 16.5877 25.4786 16.6602 25.4786C16.7328 25.4786 16.7921 25.4984 16.7921 25.5225C16.7921 25.5467 16.8515 25.5665 16.924 25.5665C16.9965 25.5665 17.0559 25.5863 17.0559 25.6105C17.0559 25.6347 17.1548 25.6544 17.2757 25.6544C17.3966 25.6544 17.4955 25.6742 17.4955 25.6984C17.4955 25.7248 17.6714 25.7424 17.9351 25.7424C18.1989 25.7424 18.3748 25.7248 18.3748 25.6984C18.3748 25.6742 18.4737 25.6544 18.5946 25.6544C18.7155 25.6544 18.8144 25.6347 18.8144 25.6105C18.8144 25.5863 18.8935 25.5665 18.9902 25.5665C19.087 25.5665 19.1661 25.5467 19.1661 25.5225C19.1661 25.4984 19.2057 25.4786 19.254 25.4786C19.3024 25.4786 19.3419 25.4588 19.3419 25.4346C19.3419 25.4104 19.3815 25.3907 19.4299 25.3907C19.4782 25.3907 19.5178 25.3709 19.5178 25.3467C19.5178 25.3225 19.5574 25.3027 19.6057 25.3027C19.6541 25.3027 19.6936 25.283 19.6936 25.2588C19.6936 25.2346 19.7289 25.2148 19.7719 25.2148C19.8149 25.2148 19.8786 25.1752 19.9135 25.1269C19.9483 25.0785 20.0024 25.039 20.0338 25.039C20.0651 25.039 20.2388 24.8909 20.4197 24.7099C20.6007 24.529 20.7487 24.3553 20.7487 24.324C20.7487 24.2927 20.7883 24.2385 20.8367 24.2037C20.885 24.1688 20.9246 24.1095 20.9246 24.0718C20.9246 24.0341 20.9642 23.9748 21.0125 23.9399C21.0609 23.905 21.1004 23.8413 21.1004 23.7983C21.1004 23.7553 21.1202 23.7201 21.1444 23.7201C21.1686 23.7201 21.1884 23.6607 21.1884 23.5882C21.1884 23.5157 21.2081 23.4563 21.2323 23.4563C21.2565 23.4563 21.2763 23.4167 21.2763 23.3684C21.2763 23.32 21.2961 23.2805 21.3203 23.2805C21.3444 23.2805 21.3642 23.2296 21.3642 23.1674C21.3642 22.9156 21.1233 22.9288 25.7354 22.9288C28.5364 22.9288 29.9809 22.9138 29.9809 22.8848C29.9809 22.8606 30.0114 22.8408 30.0488 22.8408C30.1367 22.8408 30.3326 22.645 30.3326 22.5571C30.3326 22.5197 30.3523 22.4891 30.3765 22.4891C30.4016 22.4891 30.4205 22.3573 30.4205 22.1814C30.4205 22.0056 30.4016 21.8737 30.3765 21.8737C30.3523 21.8737 30.3326 21.8431 30.3326 21.8057C30.3326 21.7178 30.1367 21.522 30.0488 21.522C30.0114 21.522 29.9809 21.5022 29.9809 21.478C29.9809 21.449 28.5364 21.434 25.7354 21.434C21.1233 21.434 21.3642 21.4472 21.3642 21.1954C21.3642 21.1332 21.3444 21.0823 21.3203 21.0823C21.2961 21.0823 21.2763 21.0428 21.2763 20.9944C21.2763 20.9461 21.2565 20.9065 21.2323 20.9065C21.2081 20.9065 21.1884 20.8471 21.1884 20.7746C21.1884 20.7021 21.1686 20.6427 21.1444 20.6427C21.1202 20.6427 21.1004 20.6075 21.1004 20.5645C21.1004 20.5215 21.0609 20.4578 21.0125 20.4229C20.9642 20.388 20.9246 20.3287 20.9246 20.291C20.9246 20.2533 20.885 20.194 20.8367 20.1591C20.7883 20.1243 20.7487 20.0701 20.7487 20.0388C20.7487 19.9646 20.108 19.3238 20.0338 19.3238C20.0024 19.3238 19.9483 19.2843 19.9135 19.2359C19.8786 19.1876 19.8149 19.148 19.7719 19.148C19.7289 19.148 19.6936 19.1282 19.6936 19.104C19.6936 19.0799 19.6541 19.0601 19.6057 19.0601C19.5574 19.0601 19.5178 19.0403 19.5178 19.0161C19.5178 18.9919 19.4782 18.9721 19.4299 18.9721C19.3815 18.9721 19.3419 18.9524 19.3419 18.9282C19.3419 18.904 19.3024 18.8842 19.254 18.8842C19.2057 18.8842 19.1661 18.8644 19.1661 18.8403C19.1661 18.8161 19.087 18.7963 18.9902 18.7963C18.8935 18.7963 18.8144 18.7765 18.8144 18.7523C18.8144 18.7282 18.7155 18.7084 18.5946 18.7084C18.4737 18.7084 18.3748 18.6886 18.3748 18.6644C18.3748 18.638 18.1989 18.6204 17.9351 18.6204C17.6714 18.6204 17.4955 18.638 17.4955 18.6644ZM18.4627 20.2471C18.4627 20.2712 18.522 20.291 18.5946 20.291C18.6671 20.291 18.7265 20.3108 18.7265 20.335C18.7265 20.3592 18.766 20.3789 18.8144 20.3789C18.8628 20.3789 18.9023 20.3987 18.9023 20.4229C18.9023 20.4471 18.9323 20.4669 18.9691 20.4669C19.0503 20.4669 19.6057 21.0138 19.6057 21.0938C19.6057 21.1252 19.6453 21.1794 19.6936 21.2142C19.7453 21.2515 19.7816 21.328 19.7816 21.3998C19.7816 21.467 19.8013 21.522 19.8255 21.522C19.8497 21.522 19.8695 21.5813 19.8695 21.6539C19.8695 21.7264 19.8893 21.7857 19.9135 21.7857C19.9395 21.7857 19.9574 21.9469 19.9574 22.1814C19.9574 22.4159 19.9395 22.5771 19.9135 22.5771C19.8893 22.5771 19.8695 22.6364 19.8695 22.709C19.8695 22.7815 19.8497 22.8408 19.8255 22.8408C19.8013 22.8408 19.7816 22.9002 19.7816 22.9727C19.7816 23.0453 19.7618 23.1046 19.7376 23.1046C19.7134 23.1046 19.6936 23.1346 19.6936 23.1713C19.6936 23.2581 19.0558 23.8959 18.969 23.8959C18.9323 23.8959 18.9023 23.9157 18.9023 23.9399C18.9023 23.9641 18.8628 23.9839 18.8144 23.9839C18.766 23.9839 18.7265 24.0036 18.7265 24.0278C18.7265 24.052 18.6671 24.0718 18.5946 24.0718C18.522 24.0718 18.4627 24.0916 18.4627 24.1157C18.4627 24.1426 18.2575 24.1597 17.9351 24.1597C17.6128 24.1597 17.4076 24.1426 17.4076 24.1157C17.4076 24.0916 17.3482 24.0718 17.2757 24.0718C17.2032 24.0718 17.1438 24.052 17.1438 24.0278C17.1438 24.0036 17.1043 23.9839 17.0559 23.9839C17.0075 23.9839 16.968 23.9641 16.968 23.9399C16.968 23.9157 16.9379 23.8959 16.9012 23.8959C16.8143 23.8959 16.2646 23.3462 16.2646 23.2593C16.2646 23.2226 16.2448 23.1925 16.2206 23.1925C16.1964 23.1925 16.1766 23.153 16.1766 23.1046C16.1766 23.0563 16.1569 23.0167 16.1327 23.0167C16.1085 23.0167 16.0887 22.9771 16.0887 22.9288C16.0887 22.8804 16.0689 22.8408 16.0448 22.8408C16.0206 22.8408 16.0008 22.7617 16.0008 22.665C16.0008 22.5683 15.981 22.4891 15.9568 22.4891C15.9317 22.4891 15.9129 22.3573 15.9129 22.1814C15.9129 22.0056 15.9317 21.8737 15.9568 21.8737C15.981 21.8737 16.0008 21.7945 16.0008 21.6978C16.0008 21.6011 16.0206 21.522 16.0448 21.522C16.0689 21.522 16.0887 21.4824 16.0887 21.434C16.0887 21.3857 16.1085 21.3461 16.1327 21.3461C16.1569 21.3461 16.1766 21.3065 16.1766 21.2582C16.1766 21.2098 16.1964 21.1703 16.2206 21.1703C16.2448 21.1703 16.2646 21.1402 16.2646 21.1035C16.2646 21.0668 16.3928 20.9085 16.5495 20.7518C16.7062 20.5951 16.8645 20.4669 16.9012 20.4669C16.9379 20.4669 16.968 20.4471 16.968 20.4229C16.968 20.3987 17.0075 20.3789 17.0559 20.3789C17.1043 20.3789 17.1438 20.3592 17.1438 20.335C17.1438 20.3108 17.2032 20.291 17.2757 20.291C17.3482 20.291 17.4076 20.2712 17.4076 20.2471C17.4076 20.2202 17.6128 20.2031 17.9351 20.2031C18.2575 20.2031 18.4627 20.2202 18.4627 20.2471Z"
    fill="white" />
</svg>