<svg width="32" height="28" viewBox="0 0 32 28" fill="none" xmlns="http://www.w3.org/2000/svg">
  <path fill-rule="evenodd" clip-rule="evenodd"
    d="M25.2173 0.946215C25.2173 0.971418 25.1142 0.992039 24.9882 0.992039C24.8621 0.992039 24.759 1.01266 24.759 1.03786C24.759 1.06307 24.6765 1.08369 24.5757 1.08369C24.4749 1.08369 24.3924 1.10431 24.3924 1.12951C24.3924 1.15472 24.3512 1.17534 24.3008 1.17534C24.2504 1.17534 24.2091 1.19596 24.2091 1.22116C24.2091 1.24636 24.1679 1.26698 24.1175 1.26698C24.0671 1.26698 24.0258 1.28761 24.0258 1.31281C24.0258 1.33801 23.9846 1.35863 23.9342 1.35863C23.8838 1.35863 23.8425 1.37925 23.8425 1.40446C23.8425 1.42966 23.8058 1.45028 23.761 1.45028C23.7162 1.45028 23.6498 1.49152 23.6134 1.54193C23.5771 1.59234 23.5207 1.63358 23.4881 1.63358C23.4108 1.63358 22.6511 2.39325 22.6511 2.47056C22.6511 2.50314 22.6099 2.55955 22.5595 2.59589C22.5091 2.63223 22.4678 2.69863 22.4678 2.74349C22.4678 2.7883 22.4472 2.82501 22.422 2.82501C22.3968 2.82501 22.3762 2.86625 22.3762 2.91666C22.3762 2.96707 22.3555 3.00831 22.3303 3.00831C22.3051 3.00831 22.2845 3.04955 22.2845 3.09996C22.2845 3.15036 22.2639 3.1916 22.2387 3.1916C22.2135 3.1916 22.1929 3.25347 22.1929 3.32908C22.1929 3.40469 22.1722 3.46655 22.147 3.46655C22.1218 3.46655 22.1012 3.51957 22.1012 3.58436C22.1012 3.8517 22.8955 3.83314 11.4503 3.83314C4.46759 3.83314 0.930411 3.84854 0.930411 3.87897C0.930411 3.90417 0.898563 3.92479 0.859612 3.92479C0.767918 3.92479 0.563817 4.12889 0.563817 4.22059C0.563817 4.25954 0.543196 4.29139 0.517992 4.29139C0.491827 4.29139 0.472168 4.42886 0.472168 4.61216C0.472168 4.79545 0.491827 4.93293 0.517992 4.93293C0.543196 4.93293 0.563817 4.96477 0.563817 5.00373C0.563817 5.09542 0.767918 5.29952 0.859612 5.29952C0.898563 5.29952 0.930411 5.32014 0.930411 5.34534C0.930411 5.37577 4.46759 5.39117 11.4503 5.39117C22.8955 5.39117 22.1012 5.37261 22.1012 5.63995C22.1012 5.70474 22.1218 5.75776 22.147 5.75776C22.1722 5.75776 22.1929 5.81963 22.1929 5.89524C22.1929 5.97085 22.2135 6.03271 22.2387 6.03271C22.2639 6.03271 22.2845 6.07395 22.2845 6.12436C22.2845 6.17476 22.3051 6.21601 22.3303 6.21601C22.3555 6.21601 22.3762 6.25725 22.3762 6.30765C22.3762 6.35806 22.3968 6.3993 22.422 6.3993C22.4472 6.3993 22.4678 6.43601 22.4678 6.48082C22.4678 6.52569 22.5091 6.59209 22.5595 6.62842C22.6099 6.66476 22.6511 6.72117 22.6511 6.75375C22.6511 6.83106 23.4108 7.59073 23.4881 7.59073C23.5207 7.59073 23.5771 7.63198 23.6134 7.68238C23.6498 7.73279 23.7162 7.77403 23.761 7.77403C23.8058 7.77403 23.8425 7.79465 23.8425 7.81985C23.8425 7.84506 23.8838 7.86568 23.9342 7.86568C23.9846 7.86568 24.0258 7.8863 24.0258 7.9115C24.0258 7.93671 24.0671 7.95733 24.1175 7.95733C24.1679 7.95733 24.2091 7.97795 24.2091 8.00315C24.2091 8.02836 24.2504 8.04898 24.3008 8.04898C24.3512 8.04898 24.3924 8.0696 24.3924 8.0948C24.3924 8.12 24.4749 8.14062 24.5757 8.14062C24.6765 8.14062 24.759 8.16125 24.759 8.18645C24.759 8.21165 24.8621 8.23227 24.9882 8.23227C25.1142 8.23227 25.2173 8.25289 25.2173 8.2781C25.2173 8.30559 25.4006 8.32392 25.6755 8.32392C25.9505 8.32392 26.1338 8.30559 26.1338 8.2781C26.1338 8.25289 26.2369 8.23227 26.3629 8.23227C26.4889 8.23227 26.592 8.21165 26.592 8.18645C26.592 8.16125 26.6539 8.14062 26.7295 8.14062C26.8051 8.14062 26.8669 8.12 26.8669 8.0948C26.8669 8.0696 26.9288 8.04898 27.0044 8.04898C27.08 8.04898 27.1419 8.02836 27.1419 8.00315C27.1419 7.97795 27.1831 7.95733 27.2335 7.95733C27.2839 7.95733 27.3252 7.93671 27.3252 7.9115C27.3252 7.8863 27.3619 7.86568 27.4067 7.86568C27.4516 7.86568 27.518 7.82444 27.5543 7.77403C27.5906 7.72362 27.6525 7.68238 27.6918 7.68238C27.7311 7.68238 27.7929 7.64114 27.8293 7.59073C27.8656 7.54033 27.9221 7.49908 27.9549 7.49908C28.0277 7.49908 28.5166 7.01738 28.5166 6.94567C28.5166 6.91744 28.5785 6.83651 28.6541 6.7659C28.7297 6.69528 28.7916 6.6045 28.7916 6.56422C28.7916 6.5239 28.8122 6.49095 28.8374 6.49095C28.8626 6.49095 28.8832 6.44971 28.8832 6.3993C28.8832 6.3489 28.9038 6.30765 28.929 6.30765C28.9542 6.30765 28.9749 6.26641 28.9749 6.21601C28.9749 6.1656 28.9955 6.12436 29.0207 6.12436C29.0459 6.12436 29.0665 6.08312 29.0665 6.03271C29.0665 5.9823 29.0871 5.94106 29.1123 5.94106C29.1375 5.94106 29.1582 5.8792 29.1582 5.80359C29.1582 5.72798 29.1788 5.66611 29.204 5.66611C29.2292 5.66611 29.2498 5.60425 29.2498 5.52864V5.39117H30.3954C31.1286 5.39117 31.541 5.37467 31.541 5.34534C31.541 5.32014 31.5729 5.29952 31.6118 5.29952C31.7035 5.29952 31.9076 5.09542 31.9076 5.00373C31.9076 4.96477 31.9282 4.93293 31.9534 4.93293C31.9796 4.93293 31.9993 4.79545 31.9993 4.61216C31.9993 4.42886 31.9796 4.29139 31.9534 4.29139C31.9282 4.29139 31.9076 4.25954 31.9076 4.22059C31.9076 4.12889 31.7035 3.92479 31.6118 3.92479C31.5729 3.92479 31.541 3.90417 31.541 3.87897C31.541 3.84964 31.1286 3.83314 30.3954 3.83314H29.2498V3.69567C29.2498 3.62006 29.2292 3.5582 29.204 3.5582C29.1788 3.5582 29.1582 3.49634 29.1582 3.42073C29.1582 3.34512 29.1375 3.28325 29.1123 3.28325C29.0871 3.28325 29.0665 3.24201 29.0665 3.1916C29.0665 3.1412 29.0459 3.09996 29.0207 3.09996C28.9955 3.09996 28.9749 3.05871 28.9749 3.00831C28.9749 2.9579 28.9542 2.91666 28.929 2.91666C28.9038 2.91666 28.8832 2.87542 28.8832 2.82501C28.8832 2.7746 28.8626 2.73336 28.8374 2.73336C28.8122 2.73336 28.7916 2.70041 28.7916 2.66009C28.7916 2.61981 28.7297 2.52903 28.6541 2.45842C28.5785 2.3878 28.5166 2.30687 28.5166 2.27865C28.5166 2.20693 28.0277 1.72523 27.9549 1.72523C27.9221 1.72523 27.8656 1.68399 27.8293 1.63358C27.7929 1.58317 27.7311 1.54193 27.6918 1.54193C27.6525 1.54193 27.5906 1.50069 27.5543 1.45028C27.518 1.39988 27.4516 1.35863 27.4067 1.35863C27.3619 1.35863 27.3252 1.33801 27.3252 1.31281C27.3252 1.28761 27.2839 1.26698 27.2335 1.26698C27.1831 1.26698 27.1419 1.24636 27.1419 1.22116C27.1419 1.19596 27.08 1.17534 27.0044 1.17534C26.9288 1.17534 26.8669 1.15472 26.8669 1.12951C26.8669 1.10431 26.8051 1.08369 26.7295 1.08369C26.6539 1.08369 26.592 1.06307 26.592 1.03786C26.592 1.01266 26.4889 0.992039 26.3629 0.992039C26.2369 0.992039 26.1338 0.971418 26.1338 0.946215C26.1338 0.91872 25.9505 0.900391 25.6755 0.900391C25.4006 0.900391 25.2173 0.91872 25.2173 0.946215ZM26.2254 2.59589C26.2254 2.62109 26.2873 2.64171 26.3629 2.64171C26.4385 2.64171 26.5004 2.66233 26.5004 2.68754C26.5004 2.71274 26.5416 2.73336 26.592 2.73336C26.6424 2.73336 26.6836 2.75398 26.6836 2.77919C26.6836 2.80439 26.7149 2.82501 26.7533 2.82501C26.8438 2.82501 27.4168 3.398 27.4168 3.48859C27.4168 3.5269 27.4375 3.5582 27.4627 3.5582C27.4879 3.5582 27.5085 3.59944 27.5085 3.64985C27.5085 3.70025 27.5291 3.7415 27.5543 3.7415C27.5795 3.7415 27.6001 3.78274 27.6001 3.83314C27.6001 3.88355 27.6208 3.92479 27.646 3.92479C27.6712 3.92479 27.6918 4.00728 27.6918 4.10809C27.6918 4.2089 27.7124 4.29139 27.7376 4.29139C27.7638 4.29139 27.7834 4.42886 27.7834 4.61216C27.7834 4.79545 27.7638 4.93293 27.7376 4.93293C27.7124 4.93293 27.6918 5.01541 27.6918 5.11622C27.6918 5.21704 27.6712 5.29952 27.646 5.29952C27.6208 5.29952 27.6001 5.34076 27.6001 5.39117C27.6001 5.44158 27.5795 5.48282 27.5543 5.48282C27.5291 5.48282 27.5085 5.52406 27.5085 5.57447C27.5085 5.62487 27.4879 5.66611 27.4627 5.66611C27.4375 5.66611 27.4168 5.6975 27.4168 5.73586C27.4168 5.82077 26.9386 6.30765 26.8551 6.30765C26.8224 6.30765 26.7658 6.3489 26.7295 6.3993C26.6931 6.44971 26.6267 6.49095 26.5819 6.49095C26.5371 6.49095 26.5004 6.51157 26.5004 6.53678C26.5004 6.56198 26.4385 6.5826 26.3629 6.5826C26.2873 6.5826 26.2254 6.60322 26.2254 6.62842C26.2254 6.65642 26.0115 6.67425 25.6755 6.67425C25.3395 6.67425 25.1256 6.65642 25.1256 6.62842C25.1256 6.60322 25.0638 6.5826 24.9882 6.5826C24.9125 6.5826 24.8507 6.56198 24.8507 6.53678C24.8507 6.51157 24.8094 6.49095 24.759 6.49095C24.7086 6.49095 24.6674 6.47033 24.6674 6.44513C24.6674 6.41992 24.6361 6.3993 24.5979 6.3993C24.5074 6.3993 23.8425 5.73448 23.8425 5.64394C23.8425 5.60572 23.8219 5.57447 23.7967 5.57447C23.7715 5.57447 23.7509 5.53322 23.7509 5.48282C23.7509 5.43241 23.7303 5.39117 23.7051 5.39117C23.6799 5.39117 23.6592 5.30869 23.6592 5.20787C23.6592 5.10706 23.6386 5.02457 23.6134 5.02457C23.5862 5.02457 23.5676 4.85654 23.5676 4.61216C23.5676 4.36778 23.5862 4.19974 23.6134 4.19974C23.6386 4.19974 23.6592 4.11725 23.6592 4.01644C23.6592 3.91563 23.6799 3.83314 23.7051 3.83314C23.7303 3.83314 23.7509 3.7919 23.7509 3.7415C23.7509 3.69109 23.7715 3.64985 23.7967 3.64985C23.8219 3.64985 23.8425 3.61859 23.8425 3.58038C23.8425 3.48983 24.5074 2.82501 24.5979 2.82501C24.6361 2.82501 24.6674 2.80439 24.6674 2.77919C24.6674 2.75398 24.7086 2.73336 24.759 2.73336C24.8094 2.73336 24.8507 2.71274 24.8507 2.68754C24.8507 2.66233 24.9125 2.64171 24.9882 2.64171C25.0638 2.64171 25.1256 2.62109 25.1256 2.59589C25.1256 2.56789 25.3395 2.55006 25.6755 2.55006C26.0115 2.55006 26.2254 2.56789 26.2254 2.59589ZM6.42932 10.5693C6.42932 10.5945 6.34684 10.6151 6.24603 10.6151C6.14521 10.6151 6.06273 10.6358 6.06273 10.661C6.06273 10.6862 6.00087 10.7068 5.92526 10.7068C5.84965 10.7068 5.78778 10.7274 5.78778 10.7526C5.78778 10.7778 5.74654 10.7984 5.69613 10.7984C5.64573 10.7984 5.60449 10.8191 5.60449 10.8443C5.60449 10.8695 5.56324 10.8901 5.51284 10.8901C5.46243 10.8901 5.42119 10.9107 5.42119 10.9359C5.42119 10.9611 5.38448 10.9817 5.33967 10.9817C5.29481 10.9817 5.22841 11.023 5.19207 11.0734C5.15573 11.1238 5.09932 11.165 5.06674 11.165C4.98943 11.165 4.22976 11.9247 4.22976 12.002C4.22976 12.0346 4.18852 12.091 4.13811 12.1273C4.0877 12.1637 4.04646 12.2301 4.04646 12.2749C4.04646 12.3198 4.02584 12.3565 4.00064 12.3565C3.97543 12.3565 3.95481 12.3977 3.95481 12.4481C3.95481 12.4985 3.93419 12.5398 3.90899 12.5398C3.88378 12.5398 3.86316 12.581 3.86316 12.6314C3.86316 12.6818 3.84254 12.7231 3.81734 12.7231C3.79214 12.7231 3.77152 12.7643 3.77152 12.8147C3.77152 12.8651 3.75089 12.9063 3.72569 12.9063C3.70049 12.9063 3.67987 12.9888 3.67987 13.0896C3.67987 13.1905 3.65925 13.2729 3.63404 13.2729C3.60884 13.2729 3.58822 13.3142 3.58822 13.3646C3.58822 13.4501 3.55765 13.4562 3.12998 13.4562C2.85503 13.4562 2.67173 13.4379 2.67173 13.4104C2.67173 13.3815 2.36622 13.3646 1.8469 13.3646C1.32757 13.3646 1.02206 13.3815 1.02206 13.4104C1.02206 13.4356 0.980817 13.4562 0.930411 13.4562C0.880004 13.4562 0.838762 13.4769 0.838762 13.5021C0.838762 13.5273 0.79752 13.5479 0.747114 13.5479C0.689787 13.5479 0.655465 13.5785 0.655465 13.6294C0.655465 13.6743 0.614223 13.7407 0.563817 13.777C0.485686 13.8333 0.472168 13.8956 0.472168 14.1996C0.472168 14.4066 0.491368 14.556 0.517992 14.556C0.543196 14.556 0.563817 14.5884 0.563817 14.628C0.563817 14.7206 0.674161 14.831 0.766772 14.831C0.806364 14.831 0.838762 14.8516 0.838762 14.8768C0.838762 14.902 0.880004 14.9226 0.930411 14.9226C0.980817 14.9226 1.02206 14.9432 1.02206 14.9684C1.02206 14.9973 1.32757 15.0143 1.8469 15.0143C2.36622 15.0143 2.67173 14.9973 2.67173 14.9684C2.67173 14.9417 2.82447 14.9226 3.03833 14.9226C3.25219 14.9226 3.40492 14.9417 3.40492 14.9684C3.40492 14.9936 3.44616 15.0143 3.49657 15.0143C3.55765 15.0143 3.58822 15.0448 3.58822 15.1059C3.58822 15.1563 3.60884 15.1976 3.63404 15.1976C3.65925 15.1976 3.67987 15.2594 3.67987 15.335C3.67987 15.4106 3.70049 15.4725 3.72569 15.4725C3.75089 15.4725 3.77152 15.5344 3.77152 15.61C3.77152 15.6856 3.79214 15.7475 3.81734 15.7475C3.84254 15.7475 3.86316 15.7842 3.86316 15.829C3.86316 15.8738 3.90441 15.9402 3.95481 15.9766C4.00522 16.0129 4.04646 16.0793 4.04646 16.1242C4.04646 16.169 4.06708 16.2057 4.09229 16.2057C4.11749 16.2057 4.13811 16.2369 4.13811 16.275C4.13811 16.3593 4.98348 17.2138 5.06678 17.2138C5.09936 17.2138 5.15573 17.2551 5.19207 17.3055C5.22841 17.3559 5.29481 17.3971 5.33967 17.3971C5.38448 17.3971 5.42119 17.4177 5.42119 17.443C5.42119 17.4682 5.46243 17.4888 5.51284 17.4888C5.56324 17.4888 5.60449 17.5094 5.60449 17.5346C5.60449 17.5598 5.64573 17.5804 5.69613 17.5804C5.74654 17.5804 5.78778 17.601 5.78778 17.6262C5.78778 17.6515 5.84965 17.6721 5.92526 17.6721C6.00087 17.6721 6.06273 17.6927 6.06273 17.7179C6.06273 17.7431 6.14521 17.7637 6.24603 17.7637C6.34684 17.7637 6.42932 17.7843 6.42932 17.8095C6.42932 17.8382 6.70427 17.8554 7.16251 17.8554C7.62075 17.8554 7.8957 17.8382 7.8957 17.8095C7.8957 17.7843 7.97818 17.7637 8.079 17.7637C8.17981 17.7637 8.26229 17.7431 8.26229 17.7179C8.26229 17.6927 8.32416 17.6721 8.39977 17.6721C8.47538 17.6721 8.53724 17.6515 8.53724 17.6262C8.53724 17.601 8.57848 17.5804 8.62889 17.5804C8.67929 17.5804 8.72054 17.5598 8.72054 17.5346C8.72054 17.5094 8.76178 17.4888 8.81218 17.4888C8.86259 17.4888 8.90383 17.4682 8.90383 17.443C8.90383 17.4177 8.94508 17.3971 8.99548 17.3971C9.04589 17.3971 9.08713 17.3765 9.08713 17.3513C9.08713 17.3261 9.11967 17.3055 9.15944 17.3055C9.19926 17.3055 9.31103 17.223 9.4079 17.1222C9.50477 17.0214 9.60691 16.9389 9.63496 16.9389C9.70173 16.9389 10.0036 16.6362 10.0036 16.5693C10.0036 16.5408 10.0655 16.4596 10.1411 16.389C10.2167 16.3184 10.2786 16.2276 10.2786 16.1873C10.2786 16.147 10.2992 16.114 10.3244 16.114C10.3496 16.114 10.3702 16.0728 10.3702 16.0224C10.3702 15.972 10.3908 15.9307 10.416 15.9307C10.4412 15.9307 10.4619 15.8895 10.4619 15.8391C10.4619 15.7887 10.4825 15.7475 10.5077 15.7475C10.5329 15.7475 10.5535 15.7062 10.5535 15.6558C10.5535 15.6054 10.5741 15.5642 10.5993 15.5642C10.6245 15.5642 10.6452 15.5229 10.6452 15.4725C10.6452 15.4221 10.6658 15.3809 10.691 15.3809C10.7162 15.3809 10.7368 15.2984 10.7368 15.1976V15.0143H11.2409C11.5464 15.0143 11.7449 14.9962 11.7449 14.9684C11.7449 14.9432 11.7862 14.9226 11.8366 14.9226C11.887 14.9226 11.9282 14.9432 11.9282 14.9684C11.9282 14.9939 12.0504 15.0143 12.2032 15.0143C12.3559 15.0143 12.4781 14.9939 12.4781 14.9684C12.4781 14.9432 12.5194 14.9226 12.5698 14.9226C12.6202 14.9226 12.6614 14.9432 12.6614 14.9684C12.6614 14.9966 12.8905 15.0143 13.2571 15.0143C13.6237 15.0143 13.8529 14.9966 13.8529 14.9684C13.8529 14.9432 13.8941 14.9226 13.9445 14.9226C13.9949 14.9226 14.0362 14.9432 14.0362 14.9684C14.0362 14.9936 14.1393 15.0143 14.2653 15.0143C14.3913 15.0143 14.4944 14.9936 14.4944 14.9684C14.4944 14.9432 14.5356 14.9226 14.586 14.9226C14.6364 14.9226 14.6777 14.9432 14.6777 14.9684C14.6777 14.9969 14.9374 15.0143 15.3651 15.0143C15.7927 15.0143 16.0524 14.9969 16.0524 14.9684C16.0524 14.9432 16.0937 14.9226 16.1441 14.9226C16.1945 14.9226 16.2357 14.9432 16.2357 14.9684C16.2357 14.9939 16.3579 15.0143 16.5107 15.0143C16.6634 15.0143 16.7856 14.9939 16.7856 14.9684C16.7856 14.9432 16.8268 14.9226 16.8773 14.9226C16.9277 14.9226 16.9689 14.9432 16.9689 14.9684C16.9689 15.0401 18.1459 15.0289 18.1794 14.957C18.2008 14.9112 18.2115 14.9112 18.2329 14.957C18.265 15.0257 18.7102 15.0364 18.7102 14.9684C18.7102 14.9432 18.7515 14.9226 18.8019 14.9226C18.8523 14.9226 18.8935 14.9432 18.8935 14.9684C18.8935 15.0418 23.0025 15.0304 23.0368 14.957C23.0582 14.9112 23.0689 14.9112 23.0902 14.957C23.1226 15.0264 23.6592 15.0371 23.6592 14.9684C23.6592 14.9432 23.7005 14.9226 23.7509 14.9226C23.8013 14.9226 23.8425 14.9432 23.8425 14.9684C23.8425 14.9956 24.0106 15.0143 24.255 15.0143C24.4993 15.0143 24.6674 14.9956 24.6674 14.9684C24.6674 14.9432 24.7086 14.9226 24.759 14.9226C24.8094 14.9226 24.8507 14.9432 24.8507 14.9684C24.8507 14.9969 25.1104 15.0143 25.538 15.0143C25.9657 15.0143 26.2254 14.9969 26.2254 14.9684C26.2254 14.9432 26.2666 14.9226 26.3171 14.9226C26.3675 14.9226 26.4087 14.9432 26.4087 14.9684C26.4087 14.9936 26.4912 15.0143 26.592 15.0143C26.6928 15.0143 26.7753 14.9936 26.7753 14.9684C26.7753 14.9432 26.8165 14.9226 26.8669 14.9226C26.9174 14.9226 26.9586 14.9432 26.9586 14.9684C26.9586 14.9973 27.2641 15.0143 27.7834 15.0143C28.3028 15.0143 28.6083 14.9973 28.6083 14.9684C28.6083 14.9432 28.6495 14.9226 28.6999 14.9226C28.7503 14.9226 28.7916 14.9432 28.7916 14.9684C28.7916 14.9936 28.874 15.0143 28.9749 15.0143C29.0757 15.0143 29.1582 14.9936 29.1582 14.9684C29.1582 14.9432 29.1994 14.9226 29.2498 14.9226C29.3002 14.9226 29.3415 14.9432 29.3415 14.9684C29.3415 14.9977 29.7233 15.0143 30.3954 15.0143C31.0675 15.0143 31.4494 14.9977 31.4494 14.9684C31.4494 14.9432 31.4906 14.9226 31.541 14.9226C31.5914 14.9226 31.6327 14.902 31.6327 14.8768C31.6327 14.8516 31.6739 14.831 31.7243 14.831C31.7816 14.831 31.816 14.8004 31.816 14.7494C31.816 14.7046 31.8572 14.6382 31.9076 14.6018C31.9853 14.5458 31.9993 14.4832 31.9993 14.1894C31.9993 13.8956 31.9853 13.8331 31.9076 13.777C31.8572 13.7407 31.816 13.6743 31.816 13.6294C31.816 13.5785 31.7816 13.5479 31.7243 13.5479C31.6739 13.5479 31.6327 13.5273 31.6327 13.5021C31.6327 13.4769 31.5914 13.4562 31.541 13.4562C31.4906 13.4562 31.4494 13.4356 31.4494 13.4104C31.4494 13.3809 30.9759 13.3646 30.1205 13.3646C29.2651 13.3646 28.7916 13.3809 28.7916 13.4104C28.7916 13.4356 28.7503 13.4562 28.6999 13.4562C28.6495 13.4562 28.6083 13.4356 28.6083 13.4104C28.6083 13.3804 27.7834 13.3646 26.2254 13.3646C24.6674 13.3646 23.8425 13.3804 23.8425 13.4104C23.8425 13.4356 23.8013 13.4562 23.7509 13.4562C23.7005 13.4562 23.6592 13.4356 23.6592 13.4104C23.6592 13.3815 23.3385 13.3646 22.7886 13.3646C22.2387 13.3646 21.9179 13.3815 21.9179 13.4104C21.9179 13.4356 21.8767 13.4562 21.8263 13.4562C21.7759 13.4562 21.7346 13.4356 21.7346 13.4104C21.7346 13.3804 20.9098 13.3646 19.3518 13.3646C17.7937 13.3646 16.9689 13.3804 16.9689 13.4104C16.9689 13.4356 16.9277 13.4562 16.8773 13.4562C16.8268 13.4562 16.7856 13.4356 16.7856 13.4104C16.7856 13.3809 16.2968 13.3646 15.4109 13.3646C14.525 13.3646 14.0362 13.3809 14.0362 13.4104C14.0362 13.4356 13.9949 13.4562 13.9445 13.4562C13.8941 13.4562 13.8529 13.4356 13.8529 13.4104C13.8529 13.3375 11.3017 13.3488 11.2676 13.4219C11.2462 13.4677 11.2355 13.4677 11.2142 13.4219C11.1824 13.3539 11.0117 13.3443 11.0117 13.4104C11.0117 13.4785 10.8773 13.4659 10.8023 13.3908C10.7663 13.3548 10.7368 13.2723 10.7368 13.2075C10.7368 13.1427 10.7162 13.0896 10.691 13.0896C10.6658 13.0896 10.6452 13.0278 10.6452 12.9522C10.6452 12.8766 10.6245 12.8147 10.5993 12.8147C10.5741 12.8147 10.5535 12.7735 10.5535 12.7231C10.5535 12.6726 10.5329 12.6314 10.5077 12.6314C10.4825 12.6314 10.4619 12.5902 10.4619 12.5398C10.4619 12.4893 10.4412 12.4481 10.416 12.4481C10.3908 12.4481 10.3702 12.4069 10.3702 12.3565C10.3702 12.3061 10.3496 12.2648 10.3244 12.2648C10.2992 12.2648 10.2786 12.2319 10.2786 12.1915C10.2786 12.1513 10.2167 12.0605 10.1411 11.9899C10.0655 11.9192 10.0036 11.8381 10.0036 11.8095C10.0036 11.7426 9.70173 11.44 9.63496 11.44C9.60691 11.44 9.50477 11.3575 9.4079 11.2567C9.31103 11.1559 9.19926 11.0734 9.15944 11.0734C9.11967 11.0734 9.08713 11.0528 9.08713 11.0276C9.08713 11.0023 9.04589 10.9817 8.99548 10.9817C8.94508 10.9817 8.90383 10.9611 8.90383 10.9359C8.90383 10.9107 8.86259 10.8901 8.81218 10.8901C8.76178 10.8901 8.72054 10.8695 8.72054 10.8443C8.72054 10.8191 8.67929 10.7984 8.62889 10.7984C8.57848 10.7984 8.53724 10.7778 8.53724 10.7526C8.53724 10.7274 8.47538 10.7068 8.39977 10.7068C8.32416 10.7068 8.26229 10.6862 8.26229 10.661C8.26229 10.6358 8.17981 10.6151 8.079 10.6151C7.97818 10.6151 7.8957 10.5945 7.8957 10.5693C7.8957 10.5407 7.62075 10.5235 7.16251 10.5235C6.70427 10.5235 6.42932 10.5407 6.42932 10.5693ZM7.7124 12.1273C7.7124 12.1525 7.77426 12.1732 7.84987 12.1732C7.92549 12.1732 7.98735 12.1938 7.98735 12.219C7.98735 12.2442 8.0203 12.2648 8.06062 12.2648C8.1009 12.2648 8.19168 12.3267 8.26229 12.4023C8.33291 12.4779 8.41393 12.5398 8.44229 12.5398C8.51964 12.5398 8.90383 12.9392 8.90383 13.0197C8.90383 13.0582 8.92445 13.0896 8.94966 13.0896C8.97486 13.0896 8.99548 13.1309 8.99548 13.1813C8.99548 13.2317 9.0161 13.2729 9.04131 13.2729C9.06651 13.2729 9.08713 13.3142 9.08713 13.3646C9.08713 13.415 9.10775 13.4562 9.13295 13.4562C9.15816 13.4562 9.17878 13.5181 9.17878 13.5937C9.17878 13.6693 9.1994 13.7312 9.2246 13.7312C9.2521 13.7312 9.27043 13.9145 9.27043 14.1894C9.27043 14.4644 9.2521 14.6477 9.2246 14.6477C9.1994 14.6477 9.17878 14.7095 9.17878 14.7851C9.17878 14.8608 9.15816 14.9226 9.13295 14.9226C9.10775 14.9226 9.08713 14.9639 9.08713 15.0143C9.08713 15.0647 9.06651 15.1059 9.04131 15.1059C9.0161 15.1059 8.99548 15.1472 8.99548 15.1976C8.99548 15.248 8.97486 15.2892 8.94966 15.2892C8.92445 15.2892 8.90383 15.3206 8.90383 15.359C8.90383 15.4439 8.42557 15.9307 8.34212 15.9307C8.30936 15.9307 8.25281 15.972 8.21647 16.0224C8.17766 16.0762 8.09783 16.114 8.02304 16.114C7.95302 16.114 7.8957 16.1347 7.8957 16.1599C7.8957 16.1851 7.81322 16.2057 7.7124 16.2057C7.61159 16.2057 7.52911 16.2263 7.52911 16.2515C7.52911 16.2782 7.37637 16.2973 7.16251 16.2973C6.94865 16.2973 6.79592 16.2782 6.79592 16.2515C6.79592 16.2263 6.71343 16.2057 6.61262 16.2057C6.51181 16.2057 6.42932 16.1851 6.42932 16.1599C6.42932 16.1347 6.38808 16.114 6.33767 16.114C6.28727 16.114 6.24603 16.0934 6.24603 16.0682C6.24603 16.043 6.20478 16.0224 6.15438 16.0224C6.10397 16.0224 6.06273 16.0018 6.06273 15.9766C6.06273 15.9514 6.03134 15.9307 5.99298 15.9307C5.90225 15.9307 5.42119 15.4497 5.42119 15.359C5.42119 15.3206 5.40057 15.2892 5.37536 15.2892C5.35016 15.2892 5.32954 15.248 5.32954 15.1976C5.32954 15.1472 5.30892 15.1059 5.28372 15.1059C5.25851 15.1059 5.23789 15.0647 5.23789 15.0143C5.23789 14.9639 5.21727 14.9226 5.19207 14.9226C5.16686 14.9226 5.14624 14.8401 5.14624 14.7393C5.14624 14.6385 5.12562 14.556 5.10042 14.556C5.07425 14.556 5.05459 14.4185 5.05459 14.2353C5.05459 14.052 5.07425 13.9145 5.10042 13.9145C5.12562 13.9145 5.14624 13.832 5.14624 13.7312C5.14624 13.6304 5.16686 13.5479 5.19207 13.5479C5.21727 13.5479 5.23789 13.486 5.23789 13.4104C5.23789 13.3348 5.25851 13.2729 5.28372 13.2729C5.30892 13.2729 5.32954 13.24 5.32954 13.1997C5.32954 13.1594 5.3914 13.0686 5.46701 12.998C5.54262 12.9274 5.60449 12.8454 5.60449 12.8159C5.60449 12.7865 5.63395 12.7329 5.66997 12.6969C5.70594 12.6609 5.75956 12.6314 5.78902 12.6314C5.81853 12.6314 5.90047 12.5695 5.97108 12.4939C6.0417 12.4183 6.13247 12.3565 6.17275 12.3565C6.21308 12.3565 6.24603 12.3358 6.24603 12.3106C6.24603 12.2854 6.28727 12.2648 6.33767 12.2648C6.38808 12.2648 6.42932 12.2442 6.42932 12.219C6.42932 12.1938 6.49119 12.1732 6.5668 12.1732C6.64241 12.1732 6.70427 12.1525 6.70427 12.1273C6.70427 12.0996 6.90282 12.0815 7.20834 12.0815C7.51385 12.0815 7.7124 12.0996 7.7124 12.1273ZM18.5269 20.1008C18.5269 20.126 18.4238 20.1466 18.2978 20.1466C18.1718 20.1466 18.0687 20.1672 18.0687 20.1924C18.0687 20.2176 18.0068 20.2382 17.9312 20.2382C17.8556 20.2382 17.7937 20.2589 17.7937 20.2841C17.7937 20.3093 17.7319 20.3299 17.6563 20.3299C17.5807 20.3299 17.5188 20.3505 17.5188 20.3757C17.5188 20.4009 17.4776 20.4215 17.4271 20.4215C17.3767 20.4215 17.3355 20.4422 17.3355 20.4674C17.3355 20.4926 17.2988 20.5132 17.254 20.5132C17.2091 20.5132 17.1427 20.5544 17.1064 20.6048C17.07 20.6552 17.0082 20.6965 16.9689 20.6965C16.9296 20.6965 16.8678 20.7377 16.8314 20.7881C16.7951 20.8385 16.7385 20.8798 16.7058 20.8798C16.633 20.8798 16.1441 21.3615 16.1441 21.4332C16.1441 21.4614 16.0822 21.5423 16.0066 21.613C15.931 21.6836 15.8691 21.7744 15.8691 21.8146C15.8691 21.855 15.8485 21.8879 15.8233 21.8879C15.7981 21.8879 15.7775 21.9291 15.7775 21.9796C15.7775 22.03 15.7569 22.0712 15.7316 22.0712C15.7064 22.0712 15.6858 22.1124 15.6858 22.1629C15.6858 22.2133 15.6652 22.2545 15.64 22.2545C15.6148 22.2545 15.5942 22.2957 15.5942 22.3461C15.5942 22.3966 15.5736 22.4378 15.5484 22.4378C15.5231 22.4378 15.5025 22.4997 15.5025 22.5753C15.5025 22.6509 15.4819 22.7127 15.4567 22.7127C15.4315 22.7127 15.4109 22.7746 15.4109 22.8502V22.9877H8.17064C3.37436 22.9877 0.930411 23.0032 0.930411 23.0335C0.930411 23.0587 0.898563 23.0793 0.859612 23.0793C0.767918 23.0793 0.563817 23.2834 0.563817 23.3751C0.563817 23.4141 0.543196 23.4459 0.517992 23.4459C0.491506 23.4459 0.472168 23.5916 0.472168 23.7911C0.472168 24.1239 0.477896 24.142 0.63104 24.2952C0.718382 24.3826 0.821486 24.4541 0.860162 24.4541C0.898792 24.4541 0.930411 24.4747 0.930411 24.4999C0.930411 24.5302 3.37436 24.5457 8.17064 24.5457H15.4109V24.6832C15.4109 24.7588 15.4315 24.8207 15.4567 24.8207C15.4819 24.8207 15.5025 24.8825 15.5025 24.9581C15.5025 25.0337 15.5231 25.0956 15.5484 25.0956C15.5736 25.0956 15.5942 25.1368 15.5942 25.1873C15.5942 25.2377 15.6148 25.2789 15.64 25.2789C15.6652 25.2789 15.6858 25.3201 15.6858 25.3705C15.6858 25.421 15.7064 25.4622 15.7316 25.4622C15.7569 25.4622 15.7775 25.5034 15.7775 25.5538C15.7775 25.6043 15.7981 25.6455 15.8233 25.6455C15.8485 25.6455 15.8691 25.6784 15.8691 25.7188C15.8691 25.759 15.931 25.8498 16.0066 25.9204C16.0822 25.9911 16.1441 26.072 16.1441 26.1002C16.1441 26.1671 16.6306 26.6536 16.6975 26.6536C16.7257 26.6536 16.8066 26.7155 16.8773 26.7911C16.9479 26.8667 17.0386 26.9286 17.0789 26.9286C17.1193 26.9286 17.1522 26.9492 17.1522 26.9744C17.1522 26.9996 17.1934 27.0202 17.2438 27.0202C17.2943 27.0202 17.3355 27.0408 17.3355 27.066C17.3355 27.0912 17.3767 27.1119 17.4271 27.1119C17.4776 27.1119 17.5188 27.1325 17.5188 27.1577C17.5188 27.1829 17.5807 27.2035 17.6563 27.2035C17.7319 27.2035 17.7937 27.2241 17.7937 27.2493C17.7937 27.2745 17.8556 27.2952 17.9312 27.2952C18.0068 27.2952 18.0687 27.3158 18.0687 27.341C18.0687 27.3662 18.1718 27.3868 18.2978 27.3868C18.4238 27.3868 18.5269 27.4074 18.5269 27.4326C18.5269 27.4601 18.7102 27.4785 18.9852 27.4785C19.2601 27.4785 19.4434 27.4601 19.4434 27.4326C19.4434 27.4074 19.5465 27.3868 19.6725 27.3868C19.7986 27.3868 19.9017 27.3662 19.9017 27.341C19.9017 27.3158 19.9841 27.2952 20.085 27.2952C20.1858 27.2952 20.2683 27.2745 20.2683 27.2493C20.2683 27.2241 20.3095 27.2035 20.3599 27.2035C20.4103 27.2035 20.4515 27.1829 20.4515 27.1577C20.4515 27.1325 20.4928 27.1119 20.5432 27.1119C20.5936 27.1119 20.6348 27.0912 20.6348 27.066C20.6348 27.0408 20.6761 27.0202 20.7265 27.0202C20.7769 27.0202 20.8181 26.9996 20.8181 26.9744C20.8181 26.9492 20.8548 26.9286 20.8997 26.9286C20.9445 26.9286 21.0109 26.8873 21.0473 26.8369C21.0836 26.7865 21.14 26.7453 21.1727 26.7453C21.2053 26.7453 21.3864 26.5909 21.575 26.4023C21.7636 26.2137 21.9179 26.0327 21.9179 26C21.9179 25.9674 21.9592 25.911 22.0096 25.8746C22.06 25.8383 22.1012 25.7764 22.1012 25.7371C22.1012 25.6979 22.1425 25.636 22.1929 25.5997C22.2433 25.5633 22.2845 25.4969 22.2845 25.4521C22.2845 25.4073 22.3051 25.3705 22.3303 25.3705C22.3555 25.3705 22.3762 25.3087 22.3762 25.2331C22.3762 25.1575 22.3968 25.0956 22.422 25.0956C22.4472 25.0956 22.4678 25.0544 22.4678 25.004C22.4678 24.9535 22.4884 24.9123 22.5136 24.9123C22.5388 24.9123 22.5595 24.8593 22.5595 24.7945C22.5595 24.532 22.3083 24.5457 27.1157 24.5457C30.0354 24.5457 31.541 24.5301 31.541 24.4999C31.541 24.4747 31.5729 24.4541 31.6118 24.4541C31.7035 24.4541 31.9076 24.25 31.9076 24.1583C31.9076 24.1193 31.9282 24.0875 31.9534 24.0875C31.9796 24.0875 31.9993 23.95 31.9993 23.7667C31.9993 23.5834 31.9796 23.4459 31.9534 23.4459C31.9282 23.4459 31.9076 23.4141 31.9076 23.3751C31.9076 23.2834 31.7035 23.0793 31.6118 23.0793C31.5729 23.0793 31.541 23.0587 31.541 23.0335C31.541 23.0033 30.0354 22.9877 27.1157 22.9877C22.3083 22.9877 22.5595 23.0014 22.5595 22.7389C22.5595 22.6741 22.5388 22.6211 22.5136 22.6211C22.4884 22.6211 22.4678 22.5799 22.4678 22.5294C22.4678 22.479 22.4472 22.4378 22.422 22.4378C22.3968 22.4378 22.3762 22.3759 22.3762 22.3003C22.3762 22.2247 22.3555 22.1629 22.3303 22.1629C22.3051 22.1629 22.2845 22.1261 22.2845 22.0813C22.2845 22.0365 22.2433 21.9701 22.1929 21.9337C22.1425 21.8974 22.1012 21.8355 22.1012 21.7963C22.1012 21.757 22.06 21.6951 22.0096 21.6588C21.9592 21.6224 21.9179 21.566 21.9179 21.5334C21.9179 21.456 21.2501 20.7881 21.1727 20.7881C21.14 20.7881 21.0836 20.7469 21.0473 20.6965C21.0109 20.6461 20.9445 20.6048 20.8997 20.6048C20.8548 20.6048 20.8181 20.5842 20.8181 20.559C20.8181 20.5338 20.7769 20.5132 20.7265 20.5132C20.6761 20.5132 20.6348 20.4926 20.6348 20.4674C20.6348 20.4422 20.5936 20.4215 20.5432 20.4215C20.4928 20.4215 20.4515 20.4009 20.4515 20.3757C20.4515 20.3505 20.4103 20.3299 20.3599 20.3299C20.3095 20.3299 20.2683 20.3093 20.2683 20.2841C20.2683 20.2589 20.1858 20.2382 20.085 20.2382C19.9841 20.2382 19.9017 20.2176 19.9017 20.1924C19.9017 20.1672 19.7986 20.1466 19.6725 20.1466C19.5465 20.1466 19.4434 20.126 19.4434 20.1008C19.4434 20.0733 19.2601 20.0549 18.9852 20.0549C18.7102 20.0549 18.5269 20.0733 18.5269 20.1008ZM19.5351 21.7504C19.5351 21.7756 19.5969 21.7963 19.6725 21.7963C19.7481 21.7963 19.81 21.8169 19.81 21.8421C19.81 21.8673 19.8512 21.8879 19.9017 21.8879C19.9521 21.8879 19.9933 21.9085 19.9933 21.9337C19.9933 21.9589 20.0246 21.9796 20.0629 21.9796C20.1475 21.9796 20.7265 22.5497 20.7265 22.6331C20.7265 22.6657 20.7677 22.7222 20.8181 22.7586C20.8719 22.7974 20.9098 22.8772 20.9098 22.952C20.9098 23.022 20.9304 23.0793 20.9556 23.0793C20.9808 23.0793 21.0014 23.1412 21.0014 23.2168C21.0014 23.2924 21.0221 23.3543 21.0473 23.3543C21.0744 23.3543 21.0931 23.5223 21.0931 23.7667C21.0931 24.0111 21.0744 24.1791 21.0473 24.1791C21.0221 24.1791 21.0014 24.241 21.0014 24.3166C21.0014 24.3922 20.9808 24.4541 20.9556 24.4541C20.9304 24.4541 20.9098 24.5159 20.9098 24.5915C20.9098 24.6671 20.8892 24.729 20.864 24.729C20.8388 24.729 20.8181 24.7603 20.8181 24.7985C20.8181 24.889 20.1533 25.5538 20.0628 25.5538C20.0246 25.5538 19.9933 25.5745 19.9933 25.5997C19.9933 25.6249 19.9521 25.6455 19.9017 25.6455C19.8512 25.6455 19.81 25.6661 19.81 25.6913C19.81 25.7165 19.7481 25.7371 19.6725 25.7371C19.5969 25.7371 19.5351 25.7578 19.5351 25.783C19.5351 25.811 19.3212 25.8288 18.9852 25.8288C18.6491 25.8288 18.4353 25.811 18.4353 25.783C18.4353 25.7578 18.3734 25.7371 18.2978 25.7371C18.2222 25.7371 18.1603 25.7165 18.1603 25.6913C18.1603 25.6661 18.1191 25.6455 18.0687 25.6455C18.0183 25.6455 17.977 25.6249 17.977 25.5997C17.977 25.5745 17.9457 25.5538 17.9074 25.5538C17.8168 25.5538 17.2438 24.9809 17.2438 24.8903C17.2438 24.852 17.2232 24.8207 17.198 24.8207C17.1728 24.8207 17.1522 24.7794 17.1522 24.729C17.1522 24.6786 17.1316 24.6374 17.1064 24.6374C17.0812 24.6374 17.0606 24.5961 17.0606 24.5457C17.0606 24.4953 17.0399 24.4541 17.0147 24.4541C16.9895 24.4541 16.9689 24.3716 16.9689 24.2708C16.9689 24.17 16.9483 24.0875 16.9231 24.0875C16.8969 24.0875 16.8773 23.95 16.8773 23.7667C16.8773 23.5834 16.8969 23.4459 16.9231 23.4459C16.9483 23.4459 16.9689 23.3634 16.9689 23.2626C16.9689 23.1618 16.9895 23.0793 17.0147 23.0793C17.0399 23.0793 17.0606 23.0381 17.0606 22.9877C17.0606 22.9373 17.0812 22.896 17.1064 22.896C17.1316 22.896 17.1522 22.8548 17.1522 22.8044C17.1522 22.754 17.1728 22.7127 17.198 22.7127C17.2232 22.7127 17.2438 22.6814 17.2438 22.6431C17.2438 22.6049 17.3775 22.4399 17.5408 22.2765C17.7042 22.1132 17.8692 21.9796 17.9074 21.9796C17.9457 21.9796 17.977 21.9589 17.977 21.9337C17.977 21.9085 18.0183 21.8879 18.0687 21.8879C18.1191 21.8879 18.1603 21.8673 18.1603 21.8421C18.1603 21.8169 18.2222 21.7963 18.2978 21.7963C18.3734 21.7963 18.4353 21.7756 18.4353 21.7504C18.4353 21.7224 18.6491 21.7046 18.9852 21.7046C19.3212 21.7046 19.5351 21.7224 19.5351 21.7504Z"
    fill="#219BB2" />
</svg>