<svg width="45" height="45" viewBox="0 0 45 45" fill="none" xmlns="http://www.w3.org/2000/svg">
<path d="M24.0519 18.651C24.0519 17.7882 22.795 16.2217 23.276 15.5755V5.46124C23.276 3.32783 21.5302 1.58203 19.3968 1.58203C17.263 1.58203 15.5172 3.32783 15.5172 5.46124V12.4719C15.9982 13.1184 15.5172 15.4327 15.5172 16.2948V24.082C16.2255 23.13 18.9017 22.5 20.1723 22.5C21.444 22.5 22.5677 23.1286 23.276 24.082L24.0519 18.651Z" fill="#1A9172"/>
<path d="M19.3968 21.7544C18.9683 21.7544 18.6208 21.407 18.6208 20.9788V8.56497C18.6208 8.13651 18.9683 7.78906 19.3968 7.78906C19.8249 7.78906 20.1723 8.13651 20.1723 8.56497V20.9788C20.1723 21.407 19.8249 21.7544 19.3968 21.7544Z" fill="#BE7C6D"/>
<path d="M19.3967 21.754C19.198 21.754 18.9995 21.6782 18.8481 21.5267C18.5446 21.2236 18.5446 20.733 18.8481 20.4298L20.3999 18.878C20.7031 18.5745 21.1933 18.5745 21.4968 18.878C21.8003 19.1815 21.8003 19.6718 21.4968 19.9753L19.945 21.5267C19.794 21.6782 19.5952 21.754 19.3967 21.754Z" fill="#BE7C6D"/>
<path d="M19.3967 14.7717C19.198 14.7717 18.9995 14.6955 18.8481 14.5444C18.5446 14.2409 18.5446 13.7507 18.8481 13.4472L20.3999 11.8953C20.7031 11.5922 21.1933 11.5922 21.4968 11.8953C21.8003 12.1988 21.8003 12.6891 21.4968 12.9926L19.945 14.5444C19.794 14.6955 19.5952 14.7717 19.3967 14.7717Z" fill="#BE7C6D"/>
<path d="M19.3967 17.8751C19.1979 17.8751 18.9994 17.7992 18.848 17.6478L17.2962 16.096C16.9927 15.7929 16.9927 15.3023 17.2962 14.9991C17.5997 14.6956 18.09 14.6956 18.3935 14.9991L19.945 16.5509C20.2485 16.8541 20.2485 17.3443 19.945 17.6478C19.7939 17.7992 19.5951 17.8751 19.3967 17.8751Z" fill="#BE7C6D"/>
<path d="M7.7587 4.68555C5.62495 4.68555 3.87915 6.43134 3.87915 8.56509V18.6512C3.87915 18.6777 3.88705 18.7024 3.88705 18.7295C4.13596 18.679 4.39207 26.41 4.65506 26.41C6.76237 26.41 8.48414 22.7608 8.52671 24.8582C8.52911 24.8575 8.5322 22.4522 8.53426 22.4515L11.6379 27.1855V8.56509C11.6379 6.43134 9.89211 4.68555 7.7587 4.68555Z" fill="#3D6F44"/>
<path d="M37.2413 4.68555C35.1079 4.68555 33.3621 6.43134 33.3621 8.56509V10.9718L34.138 27.9608C34.1404 27.9615 34.1435 27.9608 34.1459 27.9615C34.1884 25.8644 38.2376 22.5304 40.3449 22.5304C40.6079 22.5304 40.864 18.679 41.1129 18.7295C41.1129 18.7024 41.1208 18.6777 41.1208 18.6512V8.56509C41.1208 6.43134 39.375 4.68555 37.2413 4.68555Z" fill="#61B872"/>
<path d="M28.707 32.6165V14.795C28.056 14.301 27.2544 13.9961 26.3792 13.9961C24.2458 13.9961 22.5 15.7415 22.5 17.8753V22.5586C22.981 23.2047 21.7241 23.9954 21.7241 24.8581V32.6165C21.7241 33.2112 23.1293 33.7687 22.888 34.2731C23.5132 35.5805 24.8401 36.4961 26.3792 36.4961C27.6502 36.4961 28.7746 35.8685 29.4829 34.9165C29.0019 34.27 28.707 33.4793 28.707 32.6165Z" fill="#3D6F44"/>
<path d="M4.65508 36.4963C2.52167 36.4963 0.775879 34.7505 0.775879 32.6167V22.5306C0.775879 20.3972 2.52167 18.6514 4.65508 18.6514C6.78883 18.6514 8.53429 20.3972 8.53429 22.5306V32.6167C8.53429 34.7505 6.78883 36.4963 4.65508 36.4963Z" fill="#61B872"/>
<path d="M4.65515 31.0647C4.4567 31.0647 4.25792 30.9884 4.10652 30.8374C3.80336 30.5339 3.80336 30.0436 4.10652 29.7401L5.65833 28.1883C5.96183 27.8851 6.4521 27.8851 6.75559 28.1883C7.05875 28.4918 7.05875 28.9821 6.75559 29.2856L5.20378 30.8374C5.05237 30.9884 4.85393 31.0647 4.65515 31.0647Z" fill="#BE7C6D"/>
<path d="M4.65512 34.1681C4.45668 34.1681 4.2579 34.0922 4.10649 33.9408L2.55502 32.389C2.25152 32.0858 2.25152 31.5956 2.55502 31.2921C2.85817 30.9886 3.34878 30.9886 3.65193 31.2921L5.20375 32.8439C5.50725 33.147 5.50725 33.6373 5.20375 33.9408C5.05235 34.0922 4.8539 34.1681 4.65512 34.1681Z" fill="#BE7C6D"/>
<path d="M12.4138 31.0647C12.215 31.0647 12.0166 30.9884 11.8652 30.8374C11.5617 30.5339 11.5617 30.0436 11.8652 29.7401L13.417 28.1883C13.7202 27.8851 14.2108 27.8851 14.5139 28.1883C14.8174 28.4918 14.8174 28.9821 14.5139 29.2856L12.9625 30.8374C12.8111 30.9884 12.6123 31.0647 12.4138 31.0647Z" fill="#BE7C6D"/>
<path d="M12.4139 34.1681C12.2151 34.1681 12.0167 34.0922 11.8652 33.9408L10.3134 32.389C10.0103 32.0858 10.0103 31.5956 10.3134 31.2921C10.6169 30.9886 11.1072 30.9886 11.4107 31.2921L12.9625 32.8439C13.2657 33.147 13.2657 33.6373 12.9625 33.9408C12.8111 34.0922 12.6123 34.1681 12.4139 34.1681Z" fill="#BE7C6D"/>
<path d="M12.4138 24.0822C12.215 24.0822 12.0166 24.0063 11.8652 23.8549C11.5617 23.5514 11.5617 23.0611 11.8652 22.7576L13.417 21.2061C13.7202 20.9026 14.2108 20.9026 14.5139 21.2061C14.8174 21.5093 14.8174 21.9999 14.5139 22.3031L12.9625 23.8549C12.8111 24.0063 12.6123 24.0822 12.4138 24.0822Z" fill="#BE7C6D"/>
<path d="M12.4139 27.1854C12.2151 27.1854 12.0167 27.1095 11.8652 26.9581L10.3134 25.4067C10.0103 25.1032 10.0103 24.6129 10.3134 24.3094C10.6169 24.0062 11.1072 24.0062 11.4107 24.3094L12.9625 25.8612C13.2657 26.1644 13.2657 26.655 12.9625 26.9581C12.8111 27.1095 12.6123 27.1854 12.4139 27.1854Z" fill="#BE7C6D"/>
<path d="M19.3968 36.4957C17.263 36.4957 15.5172 34.7499 15.5172 32.6161V24.8577C15.5172 22.724 17.263 20.9785 19.3968 20.9785C21.5302 20.9785 23.276 22.724 23.276 24.8577V32.6161C23.276 34.7499 21.5302 36.4957 19.3968 36.4957Z" fill="#61B872"/>
<path d="M19.3967 33.3927C19.198 33.3927 18.9995 33.3168 18.8481 33.1654C18.5446 32.8623 18.5446 32.3717 18.8481 32.0685L20.3999 30.5167C20.7031 30.2132 21.1933 30.2132 21.4968 30.5167C21.8003 30.8202 21.8003 31.3104 21.4968 31.6136L19.945 33.1654C19.794 33.3168 19.5952 33.3927 19.3967 33.3927Z" fill="#BE7C6D"/>
<path d="M4.65506 39.9327C4.22694 39.9327 3.87915 39.5849 3.87915 39.1568V25.6343C3.87915 25.2058 4.22694 24.8584 4.65506 24.8584C5.08353 24.8584 5.43097 25.2058 5.43097 25.6343V39.1568C5.43097 39.5849 5.08353 39.9327 4.65506 39.9327Z" fill="#BE7C6D"/>
<path d="M40.3449 36.4963C42.4783 36.4963 44.2241 34.7505 44.2241 32.6167V22.5306C44.2241 20.3972 42.4783 18.6514 40.3449 18.6514C38.2112 18.6514 36.4657 20.3972 36.4657 22.5306V32.6167C36.4657 34.7505 38.2112 36.4963 40.3449 36.4963Z" fill="#1A9172"/>
<path d="M40.3449 31.0647C40.1461 31.0647 39.9477 30.9884 39.7963 30.8374L38.2445 29.2856C37.9413 28.9821 37.9413 28.4918 38.2445 28.1883C38.548 27.8851 39.0382 27.8851 39.3417 28.1883L40.8935 29.7401C41.1967 30.0436 41.1967 30.5339 40.8935 30.8374C40.7421 30.9884 40.5433 31.0647 40.3449 31.0647Z" fill="#BE7C6D"/>
<path d="M40.3449 34.1681C40.1461 34.1681 39.9476 34.0922 39.7962 33.9408C39.4927 33.6373 39.4927 33.147 39.7962 32.8439L41.348 31.2921C41.6512 30.9886 42.1418 30.9886 42.445 31.2921C42.7485 31.5956 42.7485 32.0858 42.445 32.389L40.8935 33.9408C40.7421 34.0922 40.5433 34.1681 40.3449 34.1681Z" fill="#BE7C6D"/>
<path d="M32.5861 36.4962C34.7199 36.4962 36.4657 34.7504 36.4657 32.6167V14.7721C36.4657 12.6384 34.7199 10.8926 32.5861 10.8926C30.4527 10.8926 28.7069 12.6384 28.7069 14.7721V32.6167C28.7069 34.7504 30.4527 36.4962 32.5861 36.4962Z" fill="#23A24D"/>
<path d="M32.5862 43.4792C32.1581 43.4792 31.8103 43.1314 31.8103 42.7032V17.8755C31.8103 17.4474 32.1581 17.0996 32.5862 17.0996C33.0147 17.0996 33.3621 17.4474 33.3621 17.8755V42.7032C33.3621 43.1314 33.0147 43.4792 32.5862 43.4792Z" fill="#BE7C6D"/>
<path d="M32.5862 31.0656C32.3877 31.0656 32.1889 30.9894 32.0375 30.8384L30.486 29.2865C30.1825 28.983 30.1825 28.4928 30.486 28.1893C30.7892 27.8861 31.2798 27.8861 31.583 28.1893L33.1348 29.7411C33.4383 30.0446 33.4383 30.5349 33.1348 30.8384C32.9834 30.9894 32.7849 31.0656 32.5862 31.0656Z" fill="#BE7C6D"/>
<path d="M32.5862 34.1691C32.3877 34.1691 32.189 34.0932 32.0375 33.9418C31.7344 33.6383 31.7344 33.148 32.0375 32.8449L33.5894 31.2931C33.8929 30.9896 34.3831 30.9896 34.6866 31.2931C34.9898 31.5965 34.9898 32.0868 34.6866 32.39L33.1348 33.9418C32.9834 34.0932 32.785 34.1691 32.5862 34.1691Z" fill="#BE7C6D"/>
<path d="M32.5862 24.0822C32.3877 24.0822 32.1889 24.0063 32.0375 23.8549L30.486 22.3031C30.1825 21.9999 30.1825 21.5093 30.486 21.2061C30.7892 20.9026 31.2798 20.9026 31.583 21.2061L33.1348 22.7576C33.4383 23.0611 33.4383 23.5514 33.1348 23.8549C32.9834 24.0063 32.7849 24.0822 32.5862 24.0822Z" fill="#BE7C6D"/>
<path d="M32.5862 27.1854C32.3877 27.1854 32.189 27.1095 32.0375 26.9581C31.7344 26.655 31.7344 26.1644 32.0375 25.8612L33.5894 24.3094C33.8929 24.0062 34.3831 24.0062 34.6866 24.3094C34.9898 24.6129 34.9898 25.1032 34.6866 25.4067L33.1348 26.9581C32.9834 27.1095 32.785 27.1854 32.5862 27.1854Z" fill="#BE7C6D"/>
<path d="M26.3792 39.5996C25.9511 39.5996 25.6033 39.2522 25.6033 38.8237V17.8755C25.6033 17.4474 25.9511 17.0996 26.3792 17.0996C26.8076 17.0996 27.1551 17.4474 27.1551 17.8755V38.8237C27.1551 39.2522 26.8076 39.5996 26.3792 39.5996Z" fill="#BE7C6D"/>
<path d="M26.3792 31.0656C26.1808 31.0656 25.982 30.9894 25.831 30.8384L24.2791 29.2865C23.9756 28.983 23.9756 28.4928 24.2791 28.1893C24.5823 27.8861 25.0729 27.8861 25.3761 28.1893L26.9279 29.7411C27.2314 30.0446 27.2314 30.5349 26.9279 30.8384C26.7765 30.9894 26.578 31.0656 26.3792 31.0656Z" fill="#BE7C6D"/>
<path d="M26.3792 24.0822C26.1808 24.0822 25.982 24.0063 25.831 23.8549L24.2791 22.3031C23.9756 21.9999 23.9756 21.5093 24.2791 21.2061C24.5823 20.9026 25.0729 20.9026 25.3761 21.2061L26.9279 22.7576C27.2314 23.0611 27.2314 23.5514 26.9279 23.8549C26.7765 24.0063 26.578 24.0822 26.3792 24.0822Z" fill="#BE7C6D"/>
<path d="M40.345 39.9327C39.9165 39.9327 39.5691 39.5849 39.5691 39.1568V25.6343C39.5691 25.2058 39.9165 24.8584 40.345 24.8584C40.7731 24.8584 41.1209 25.2058 41.1209 25.6343V39.1568C41.1209 39.5849 40.7731 39.9327 40.345 39.9327Z" fill="#BE7C6D"/>
<path d="M15.5171 32.6167V24.8583C15.5171 23.9955 15.8121 23.2048 16.2931 22.5587V14.7721C16.2931 12.6384 14.5473 10.8926 12.4138 10.8926C10.2801 10.8926 8.5343 12.6384 8.5343 14.7721V32.6167C8.5343 34.7504 10.2801 36.4962 12.4138 36.4962C13.953 36.4962 15.2799 35.5806 15.9051 34.2732C15.6637 33.7689 15.5171 33.2113 15.5171 32.6167Z" fill="#23A24D"/>
<path d="M12.4138 41.7746C11.9854 41.7746 11.6379 41.4268 11.6379 40.9986V17.8755C11.6379 17.4474 11.9854 17.0996 12.4138 17.0996C12.842 17.0996 13.1898 17.4474 13.1898 17.8755V40.9986C13.1898 41.4268 12.842 41.7746 12.4138 41.7746Z" fill="#BE7C6D"/>
<path d="M19.3968 41.5073C18.9683 41.5073 18.6208 41.1598 18.6208 40.7313V27.9615C18.6208 27.5333 18.9683 27.1855 19.3968 27.1855C19.8249 27.1855 20.1723 27.5333 20.1723 27.9615V40.7313C20.1723 41.1605 19.8249 41.5073 19.3968 41.5073Z" fill="#BE7C6D"/>
<path d="M34.8431 40.9879C35.0673 40.9879 35.2798 41.0555 35.484 41.151C36.1885 39.4526 37.4067 38.8232 38.793 38.8232C40.1793 38.8232 41.3968 39.4526 42.1019 41.151C42.3062 41.0555 42.5187 40.9879 42.7429 40.9879C43.9888 40.9879 44.9999 41.5194 44.9999 43.4787H32.5861C32.5861 41.5194 33.5965 40.9879 34.8431 40.9879Z" fill="#61B872"/>
<path d="M12.3431 40.9879C12.5673 40.9879 12.7798 41.0555 12.984 41.151C13.6885 39.4526 14.9067 38.8232 16.293 38.8232C17.6793 38.8232 18.8968 39.4526 19.6019 41.151C19.8062 41.0555 20.0187 40.9879 20.2429 40.9879C21.4888 40.9879 22.4999 41.5194 22.4999 43.4787H10.0861C10.0861 41.5194 11.0965 40.9879 12.3431 40.9879Z" fill="#61B872"/>
<path d="M11.25 41.1898C10.9249 41.0518 10.5555 40.9879 10.1569 40.9879C9.93267 40.9879 9.72015 41.0555 9.51588 41.151C8.81069 39.4526 7.59327 38.8232 6.20693 38.8232C4.82059 38.8232 3.60317 39.4526 2.89799 41.151C2.69371 41.0555 2.48119 40.9879 2.257 40.9879C1.01006 40.9879 0 41.5194 0 43.4787H10.0861C10.0861 42.1463 10.5585 41.4837 11.25 41.1898Z" fill="#23A24D"/>
<path d="M30.3291 40.9879C30.1049 40.9879 29.8923 41.0555 29.6884 41.151C28.9839 39.4526 27.7658 38.8232 26.3791 38.8232C24.9928 38.8232 23.7754 39.4526 23.0702 41.151C22.8662 41.0555 22.6534 40.9879 22.4292 40.9879C22.0306 40.9879 21.6612 41.0518 21.3361 41.1898C22.0275 41.4837 22.4999 42.1463 22.4999 43.4787H32.5861C32.5861 41.5194 31.576 40.9879 30.3291 40.9879Z" fill="#3D6F44"/>
</svg>
