<svg width="30" height="30" viewBox="0 0 30 30" fill="none" xmlns="http://www.w3.org/2000/svg">
<g opacity="0.5">
<path d="M3.75 10.3125C3.37704 10.3125 3.01935 10.4607 2.75563 10.7244C2.49191 10.9881 2.34375 11.3458 2.34375 11.7188V15.9375H4.21875V11.7188C4.21875 11.3458 4.36691 10.9881 4.63063 10.7244C4.89435 10.4607 5.25204 10.3125 5.625 10.3125H3.75Z" fill="#81C784"/>
<path d="M2.34375 15.9375H4.21875V13.0508C3.69343 13.5881 3.05204 13.9981 2.34375 14.2491V15.9375Z" fill="#66BB6A"/>
<path d="M3.28125 22.9688C4.83455 22.9688 6.09375 21.2898 6.09375 19.2188C6.09375 17.1477 4.83455 15.4688 3.28125 15.4688C1.72795 15.4688 0.46875 17.1477 0.46875 19.2188C0.46875 21.2898 1.72795 22.9688 3.28125 22.9688Z" fill="#F09B73"/>
<path d="M13.5938 18.7498L11.7263 16.4155C11.1468 17.1024 10.7812 18.1034 10.7812 19.2186C10.7812 21.2896 12.0404 22.9686 13.5938 22.9686C15.1471 22.9686 16.4062 21.2896 16.4062 19.2186C16.4062 18.1034 16.0407 17.1024 15.4612 16.4155L13.5938 18.7498Z" fill="#F09B73"/>
<path d="M24.375 18.7498L22.5076 16.4155C21.928 17.1024 21.5625 18.1034 21.5625 19.2186C21.5625 21.2896 22.8217 22.9686 24.375 22.9686C25.9283 22.9686 27.1875 21.2896 27.1875 19.2186C27.1875 18.1034 26.822 17.1024 26.2424 16.4155L24.375 18.7498Z" fill="#F09B73"/>
<path d="M15.4688 10.3125C15.4688 11.9953 14.6293 12.6562 13.5938 12.6562C12.5582 12.6562 11.7188 11.9953 11.7188 10.3125C11.7188 8.62975 13.5938 7.03125 13.5938 7.03125C13.5938 7.03125 15.4688 8.62975 15.4688 10.3125Z" fill="#81C784"/>
<path d="M19.2188 7.03125H20.625C21.6196 7.03125 22.5734 7.42634 23.2766 8.1296C23.9799 8.83286 24.375 9.78669 24.375 10.7812H22.9688C21.9742 10.7812 21.0204 10.3862 20.3171 9.6829C19.6138 8.97964 19.2188 8.02581 19.2188 7.03125Z" fill="#81C784"/>
<path d="M15.4612 16.4157C14.9645 15.8269 14.3106 15.4688 13.5937 15.4688C12.8769 15.4688 12.223 15.8269 11.7263 16.4157L13.5937 18.75L15.4612 16.4157Z" fill="#FFEAD2"/>
<path d="M26.2425 16.4157C25.7458 15.8269 25.0919 15.4688 24.375 15.4688C23.6581 15.4688 23.0043 15.8269 22.5076 16.4157L24.375 18.75L26.2425 16.4157Z" fill="#FFEAD2"/>
<path d="M15.063 8.86133C14.3663 10.0918 13.2329 11.0156 11.8872 11.4499C12.1825 12.3008 12.8353 12.656 13.5938 12.656C14.6293 12.656 15.4688 11.995 15.4688 10.3123C15.4688 9.80727 15.2994 9.31033 15.063 8.86133Z" fill="#66BB6A"/>
<path d="M5.79799 17.5449C5.45409 18.5813 4.82774 19.5012 3.98943 20.2009C3.15112 20.9006 2.13413 21.3525 1.05295 21.5056C1.56723 22.3951 2.37377 22.9687 3.28127 22.9687C4.83459 22.9687 6.09377 21.2898 6.09377 19.2187C6.09601 18.6476 5.99583 18.0807 5.79799 17.5449Z" fill="#E58B6C"/>
<path d="M1.875 20.625C2.13388 20.625 2.34375 20.4151 2.34375 20.1562C2.34375 19.8974 2.13388 19.6875 1.875 19.6875C1.61612 19.6875 1.40625 19.8974 1.40625 20.1562C1.40625 20.4151 1.61612 20.625 1.875 20.625Z" fill="#F2BBA5"/>
<path d="M3.51562 12.1875C3.90395 12.1875 4.21875 11.8727 4.21875 11.4844C4.21875 11.096 3.90395 10.7812 3.51562 10.7812C3.1273 10.7812 2.8125 11.096 2.8125 11.4844C2.8125 11.8727 3.1273 12.1875 3.51562 12.1875Z" fill="#C8E6C9"/>
<path d="M20.3906 8.4375C20.779 8.4375 21.0938 8.1227 21.0938 7.73438C21.0938 7.34605 20.779 7.03125 20.3906 7.03125C20.0023 7.03125 19.6875 7.34605 19.6875 7.73438C19.6875 8.1227 20.0023 8.4375 20.3906 8.4375Z" fill="#C8E6C9"/>
<path d="M2.8125 13.5938C3.07138 13.5938 3.28125 13.3839 3.28125 13.125C3.28125 12.8661 3.07138 12.6562 2.8125 12.6562C2.55362 12.6562 2.34375 12.8661 2.34375 13.125C2.34375 13.3839 2.55362 13.5938 2.8125 13.5938Z" fill="#C8E6C9"/>
<path d="M22.0312 8.90625C22.2901 8.90625 22.5 8.69638 22.5 8.4375C22.5 8.17862 22.2901 7.96875 22.0312 7.96875C21.7724 7.96875 21.5625 8.17862 21.5625 8.4375C21.5625 8.69638 21.7724 8.90625 22.0312 8.90625Z" fill="#C8E6C9"/>
<path d="M12.6562 10.3125C12.9151 10.3125 13.125 10.1026 13.125 9.84375C13.125 9.58487 12.9151 9.375 12.6562 9.375C12.3974 9.375 12.1875 9.58487 12.1875 9.84375C12.1875 10.1026 12.3974 10.3125 12.6562 10.3125Z" fill="#C8E6C9"/>
<path d="M16.1102 17.5459C15.7662 18.5821 15.1399 19.5018 14.3016 20.2014C13.4634 20.901 12.4465 21.3527 11.3654 21.5058C11.8797 22.3953 12.6863 22.9689 13.5938 22.9689C15.1471 22.9689 16.4063 21.29 16.4063 19.2189C16.4085 18.648 16.3082 18.0814 16.1102 17.5459Z" fill="#E58B6C"/>
<path d="M11.9531 18.75C12.3415 18.75 12.6562 18.4352 12.6562 18.0469C12.6562 17.6585 12.3415 17.3438 11.9531 17.3438C11.5648 17.3438 11.25 17.6585 11.25 18.0469C11.25 18.4352 11.5648 18.75 11.9531 18.75Z" fill="#F2BBA5"/>
<path d="M1.17188 19.2188C1.5602 19.2188 1.875 18.904 1.875 18.5156C1.875 18.1273 1.5602 17.8125 1.17188 17.8125C0.78355 17.8125 0.46875 18.1273 0.46875 18.5156C0.46875 18.904 0.78355 19.2188 1.17188 19.2188Z" fill="#F2BBA5"/>
<path d="M12.6562 20.1562C12.9151 20.1562 13.125 19.9464 13.125 19.6875C13.125 19.4286 12.9151 19.2188 12.6562 19.2188C12.3974 19.2188 12.1875 19.4286 12.1875 19.6875C12.1875 19.9464 12.3974 20.1562 12.6562 20.1562Z" fill="#F2BBA5"/>
<path d="M26.8914 17.5459C26.5475 18.5821 25.9211 19.5018 25.0829 20.2014C24.2446 20.901 23.2277 21.3527 22.1467 21.5058C22.661 22.3953 23.4675 22.9689 24.375 22.9689C25.9283 22.9689 27.1875 21.29 27.1875 19.2189C27.1897 18.648 27.0894 18.0814 26.8914 17.5459Z" fill="#E58B6C"/>
<path d="M22.7344 18.75C23.1227 18.75 23.4375 18.4352 23.4375 18.0469C23.4375 17.6585 23.1227 17.3438 22.7344 17.3438C22.346 17.3438 22.0312 17.6585 22.0312 18.0469C22.0312 18.4352 22.346 18.75 22.7344 18.75Z" fill="#F2BBA5"/>
<path d="M23.4375 20.1562C23.6964 20.1562 23.9062 19.9464 23.9062 19.6875C23.9062 19.4286 23.6964 19.2188 23.4375 19.2188C23.1786 19.2188 22.9688 19.4286 22.9688 19.6875C22.9688 19.9464 23.1786 20.1562 23.4375 20.1562Z" fill="#F2BBA5"/>
<path d="M23.2637 8.11719C22.7549 9.03621 21.9786 9.77874 21.0379 10.2462C21.6207 10.5972 22.2884 10.7822 22.9687 10.7812H24.375C24.3756 10.2857 24.2776 9.79496 24.0868 9.33761C23.896 8.88027 23.6162 8.46542 23.2637 8.11719Z" fill="#66BB6A"/>
<path d="M29.5313 7.03125H28.125C28.0773 7.03125 28.03 7.03307 27.9827 7.03488C27.6889 8.47242 26.9521 9.78179 25.8759 10.779C26.8536 10.7546 27.7831 10.349 28.466 9.64879C29.1489 8.94862 29.5312 8.00931 29.5313 7.03125Z" fill="#66BB6A"/>
<path d="M4.6875 15.4079V11.7188C4.68779 11.4702 4.78666 11.2319 4.96241 11.0562C5.13816 10.8804 5.37645 10.7815 5.625 10.7812C5.74932 10.7812 5.86855 10.7319 5.95646 10.644C6.04436 10.556 6.09375 10.4368 6.09375 10.3125C6.09375 10.1882 6.04436 10.069 5.95646 9.98104C5.86855 9.89314 5.74932 9.84375 5.625 9.84375H3.75C3.25289 9.84431 2.7763 10.042 2.42479 10.3935C2.07328 10.7451 1.87556 11.2216 1.875 11.7188V15.4027C1.22215 15.7979 1.81096 16.558 2.31188 16.2347C2.46662 16.134 2.63529 16.0565 2.8125 16.0047V19.2188C2.8125 19.3431 2.86189 19.4623 2.94979 19.5502C3.0377 19.6381 3.15693 19.6875 3.28125 19.6875C3.40557 19.6875 3.5248 19.6381 3.61271 19.5502C3.70061 19.4623 3.75 19.3431 3.75 19.2188V16.0035C4.81846 16.3082 5.625 17.6341 5.625 19.2188C5.625 21.0281 4.57359 22.5 3.28125 22.5C1.98891 22.5 0.9375 21.0281 0.9375 19.2188C0.9375 18.5148 0 18.5065 0 19.2188C0 21.5449 1.47193 23.4375 3.28125 23.4375C5.09057 23.4375 6.5625 21.5449 6.5625 19.2188C6.5625 17.5392 5.79492 16.0862 4.6875 15.4079ZM3.75 15.0437C3.44022 14.9856 3.12236 14.9854 2.8125 15.0431V11.7188C2.81279 11.4702 2.91166 11.2319 3.08741 11.0562C3.26316 10.8804 3.50145 10.7815 3.75 10.7812H4.00195C3.57779 11.5123 3.82066 11.9699 3.75 15.0437Z" fill="black"/>
<path d="M15.7224 16.012C15.2613 15.5054 14.6905 15.1598 14.0625 15.0437V13.0854C15.2457 12.8803 15.9375 11.8769 15.9375 10.3125C15.9375 8.72673 14.175 6.56767 13.5976 6.56251C13.4849 6.56181 13.3757 6.60149 13.2897 6.67436C13.2064 6.74556 11.25 8.43499 11.25 10.3125C11.25 11.877 11.9418 12.8806 13.125 13.0854V15.0424C11.8164 15.2787 10.915 16.4202 10.5334 17.6885C10.5156 17.7474 10.5097 17.8093 10.5158 17.8705C10.522 17.9318 10.5402 17.9912 10.5693 18.0454C10.5985 18.0997 10.638 18.1476 10.6857 18.1866C10.7333 18.2255 10.7882 18.2547 10.8472 18.2724C10.9061 18.2902 10.968 18.2961 11.0292 18.29C11.0905 18.2838 11.1499 18.2656 11.2041 18.2365C11.2584 18.2073 11.3063 18.1678 11.3453 18.1201C11.3842 18.0725 11.4134 18.0176 11.4311 17.9586C11.5098 17.6939 11.6171 17.4385 11.7511 17.1969C14.0351 19.9129 13.1496 19.9163 15.4372 17.196C16.6453 19.3494 15.5346 22.5 13.5938 22.5C12.8769 22.5 12.2068 22.0423 11.7553 21.2443C11.6941 21.1361 11.5924 21.0567 11.4726 21.0235C11.3528 20.9902 11.2247 21.006 11.1165 21.0672C11.0083 21.1284 10.9288 21.2301 10.8956 21.3499C10.8623 21.4697 10.8781 21.5978 10.9393 21.706C11.5528 22.7902 12.5449 23.4375 13.5938 23.4375C16.299 23.4375 18.2471 18.7863 15.7224 16.012ZM14.0625 8.20313C14.5158 8.76276 15 9.54106 15 10.3125C15 11.0378 14.8242 11.8808 14.0625 12.1206V8.20313ZM12.1875 10.3125C12.1875 9.54077 12.6718 8.76241 13.125 8.20313V12.1209C12.3633 11.8808 12.1875 11.0378 12.1875 10.3125ZM13.5938 17.9996L12.3477 16.4421C13.0989 15.7784 14.0678 15.7601 14.84 16.4421L13.5938 17.9996Z" fill="black"/>
<path d="M25.7812 11.25C26.8997 11.2487 27.9721 10.8039 28.763 10.013C29.5539 9.22207 29.9987 8.14975 30 7.03125C30 6.90693 29.9506 6.7877 29.8627 6.69979C29.7748 6.61189 29.6556 6.5625 29.5312 6.5625H28.125C27.35 6.56323 26.5901 6.77727 25.9287 7.18116C25.2672 7.58505 24.7297 8.1632 24.375 8.85228C24.0203 8.1632 23.4828 7.58505 22.8213 7.18116C22.1599 6.77727 21.4 6.56323 20.625 6.5625H19.2188C19.0944 6.5625 18.9752 6.61189 18.8873 6.69979C18.7994 6.7877 18.75 6.90693 18.75 7.03125C18.7513 8.14975 19.1961 9.22207 19.987 10.013C20.7779 10.8039 21.8503 11.2487 22.9688 11.25H23.9062V15.0425C22.6066 15.2773 21.6998 16.4082 21.3146 17.6886C21.2969 17.7475 21.2909 17.8094 21.2971 17.8706C21.3032 17.9319 21.3214 17.9913 21.3505 18.0456C21.3797 18.0998 21.4192 18.1477 21.4669 18.1867C21.5146 18.2256 21.5694 18.2548 21.6284 18.2725C21.7474 18.3084 21.8758 18.2954 21.9854 18.2366C22.0396 18.2075 22.0875 18.1679 22.1265 18.1202C22.1654 18.0726 22.1946 18.0177 22.2124 17.9587C22.2911 17.694 22.3983 17.4386 22.5323 17.197C24.8163 19.913 23.9308 19.9164 26.2184 17.1962C27.4266 19.3494 26.3159 22.5 24.375 22.5C23.6582 22.5 22.988 22.0423 22.5365 21.2443C22.4753 21.1361 22.3736 21.0567 22.2538 21.0235C22.134 20.9902 22.0059 21.006 21.8977 21.0672C21.7895 21.1284 21.71 21.2301 21.6768 21.3499C21.6436 21.4697 21.6593 21.5978 21.7205 21.706C23.576 24.9849 27.6562 23.302 27.6562 19.2188C27.6562 17.3552 26.6239 15.3727 24.8438 15.0437V11.25H25.7812ZM28.125 7.5H29.0292C28.9154 8.28054 28.5247 8.99412 27.9284 9.51047C27.3321 10.0268 26.57 10.3115 25.7812 10.3125H24.8771C24.9908 9.53196 25.3815 8.81838 25.9778 8.30203C26.5741 7.78567 27.3362 7.50101 28.125 7.5ZM22.9688 10.3125C22.18 10.3115 21.4179 10.0268 20.8216 9.51047C20.2253 8.99412 19.8346 8.28054 19.7208 7.5H20.625C21.4138 7.50101 22.1759 7.78567 22.7722 8.30203C23.3685 8.81838 23.7592 9.53196 23.8729 10.3125H22.9688ZM25.6212 16.4418L24.375 17.9996L23.1289 16.442C23.8801 15.7785 24.8489 15.76 25.6212 16.4418Z" fill="black"/>
<path d="M10.1752 13.7896L8.82757 12.442C8.73966 12.3541 8.62043 12.3047 8.49611 12.3047C8.37178 12.3047 8.25255 12.3541 8.16464 12.442C8.07673 12.5299 8.02734 12.6491 8.02734 12.7735C8.02734 12.8978 8.07673 13.017 8.16464 13.1049L9.18089 14.1211L8.16464 15.1373C8.09934 15.203 8.05492 15.2865 8.03698 15.3773C8.01903 15.4681 8.02837 15.5623 8.0638 15.6478C8.09924 15.7334 8.1592 15.8065 8.23612 15.8581C8.31305 15.9096 8.40351 15.9373 8.49611 15.9375C8.83595 15.9375 8.84767 15.7172 10.1752 14.4526C10.2188 14.409 10.2533 14.3574 10.2768 14.3005C10.3004 14.2436 10.3125 14.1827 10.3125 14.1211C10.3125 14.0595 10.3004 13.9986 10.2768 13.9417C10.2533 13.8848 10.2188 13.8332 10.1752 13.7896Z" fill="black"/>
<path d="M19.5502 12.442C19.5067 12.3985 19.455 12.3639 19.3981 12.3404C19.3413 12.3168 19.2803 12.3047 19.2188 12.3047C19.1572 12.3047 19.0962 12.3168 19.0394 12.3404C18.9825 12.3639 18.9308 12.3985 18.8873 12.442C18.8438 12.4855 18.8092 12.5372 18.7857 12.5941C18.7621 12.6509 18.75 12.7119 18.75 12.7735C18.75 12.835 18.7621 12.896 18.7857 12.9528C18.8092 13.0097 18.8438 13.0614 18.8873 13.1049L19.9035 14.1211L18.8873 15.1373C18.822 15.203 18.7776 15.2865 18.7596 15.3773C18.7417 15.4681 18.751 15.5623 18.7865 15.6478C18.8219 15.7334 18.8819 15.8065 18.9588 15.8581C19.0357 15.9096 19.1262 15.9373 19.2188 15.9375C19.5586 15.9375 19.5703 15.7172 20.8979 14.4526C20.9414 14.409 20.9759 14.3574 20.9995 14.3005C21.0231 14.2436 21.0352 14.1827 21.0352 14.1211C21.0352 14.0595 21.0231 13.9986 20.9995 13.9417C20.9759 13.8848 20.9414 13.8332 20.8979 13.7896L19.5502 12.442Z" fill="black"/>
<path d="M0.9375 17.8125C1.19638 17.8125 1.40625 17.6026 1.40625 17.3438C1.40625 17.0849 1.19638 16.875 0.9375 16.875C0.678617 16.875 0.46875 17.0849 0.46875 17.3438C0.46875 17.6026 0.678617 17.8125 0.9375 17.8125Z" fill="black"/>
<path d="M10.7812 20.1562C11.0401 20.1562 11.25 19.9464 11.25 19.6875C11.25 19.4286 11.0401 19.2188 10.7812 19.2188C10.5224 19.2188 10.3125 19.4286 10.3125 19.6875C10.3125 19.9464 10.5224 20.1562 10.7812 20.1562Z" fill="black"/>
<path d="M21.5625 20.1562C21.8214 20.1562 22.0312 19.9464 22.0312 19.6875C22.0312 19.4286 21.8214 19.2188 21.5625 19.2188C21.3036 19.2188 21.0938 19.4286 21.0938 19.6875C21.0938 19.9464 21.3036 20.1562 21.5625 20.1562Z" fill="black"/>
</g>
</svg>
