<svg width="30" height="30" viewBox="0 0 30 30" fill="none" xmlns="http://www.w3.org/2000/svg">
<g opacity="0.4">
<path d="M19.7375 16.3961C19.6288 16.3961 19.5244 16.3529 19.4475 16.2759C19.3706 16.199 19.3274 16.0947 19.3274 15.9859C19.326 14.7747 18.8443 13.6135 17.9878 12.7571C17.1314 11.9006 15.9702 11.4188 14.759 11.4175C14.6502 11.4175 14.5459 11.3743 14.4689 11.2973C14.392 11.2204 14.3488 11.1161 14.3488 11.0073C14.3488 10.8985 14.392 10.7942 14.4689 10.7173C14.5459 10.6404 14.6502 10.5972 14.759 10.5972C16.1876 10.5988 17.5574 11.167 18.5676 12.1773C19.5778 13.1875 20.1461 14.5572 20.1477 15.9859C20.1477 16.0947 20.1045 16.199 20.0276 16.2759C19.9507 16.3529 19.8463 16.3961 19.7375 16.3961Z" fill="#FED943"/>
<path d="M22.1298 16.396C22.021 16.396 21.9167 16.3528 21.8397 16.2759C21.7628 16.199 21.7196 16.0946 21.7196 15.9858C21.7176 14.1403 20.9835 12.371 19.6785 11.066C18.3735 9.76099 16.6042 9.02695 14.7587 9.0249C14.6499 9.0249 14.5456 8.98169 14.4686 8.90477C14.3917 8.82785 14.3485 8.72353 14.3485 8.61475C14.3485 8.50597 14.3917 8.40164 14.4686 8.32472C14.5456 8.2478 14.6499 8.20459 14.7587 8.20459C16.8217 8.20689 18.7995 9.02743 20.2583 10.4862C21.7171 11.945 22.5376 13.9228 22.5399 15.9858C22.5399 16.0946 22.4967 16.199 22.4198 16.2759C22.3429 16.3528 22.2385 16.396 22.1298 16.396Z" fill="#FD9126"/>
<path d="M24.3282 16.3962C24.2743 16.3962 24.221 16.3856 24.1712 16.365C24.1214 16.3444 24.0762 16.3142 24.0381 16.2761C24 16.238 23.9698 16.1928 23.9492 16.143C23.9286 16.0933 23.918 16.0399 23.918 15.986C23.9153 13.5577 22.9494 11.2295 21.2323 9.51239C19.5152 7.79527 17.187 6.82939 14.7587 6.82666C14.6499 6.82666 14.5456 6.78345 14.4686 6.70653C14.3917 6.62961 14.3485 6.52528 14.3485 6.4165C14.3485 6.30772 14.3917 6.2034 14.4686 6.12648C14.5456 6.04956 14.6499 6.00635 14.7587 6.00635C17.4045 6.00939 19.9411 7.06179 21.812 8.93269C23.6829 10.8036 24.7353 13.3402 24.7384 15.986C24.7384 16.0948 24.6951 16.1991 24.6182 16.2761C24.5413 16.353 24.437 16.3962 24.3282 16.3962Z" fill="#FB4D4F"/>
<path d="M16.5608 14.1953C16.2719 13.9065 15.929 13.6773 15.5515 13.521C15.1741 13.3646 14.7696 13.2842 14.361 13.2842C13.9525 13.2842 13.548 13.3646 13.1706 13.521C12.7931 13.6773 12.4502 13.9065 12.1613 14.1953L11.5719 14.785L10.9824 14.1953C10.399 13.612 9.60772 13.2843 8.78268 13.2843C7.95764 13.2843 7.16639 13.612 6.58295 14.1953C6.29405 14.4842 6.06488 14.8271 5.90852 15.2046C5.75217 15.582 5.67169 15.9865 5.67169 16.3951C5.67169 16.8036 5.75217 17.2081 5.90852 17.5856C6.06488 17.963 6.29405 18.3059 6.58295 18.5948L7.17194 19.1842L11.5714 23.5837L15.9713 19.1842L16.561 18.5948C16.8499 18.3059 17.079 17.963 17.2353 17.5855C17.3916 17.2081 17.4721 16.8035 17.472 16.395C17.472 15.9865 17.3915 15.582 17.2352 15.2045C17.0788 14.8271 16.8497 14.4842 16.5608 14.1953Z" fill="#FB4D4F"/>
<path d="M17.8163 17.8301C17.4588 17.4728 16.9741 17.2721 16.4686 17.2721C15.9632 17.2721 15.4785 17.4728 15.121 17.8301L14.7598 18.1912L14.3984 17.8301C14.0409 17.4727 13.5562 17.272 13.0507 17.272C12.5453 17.272 12.0605 17.4727 11.7031 17.8301C11.3459 18.1876 11.1452 18.6723 11.1452 19.1777C11.1452 19.6831 11.3459 20.1679 11.7031 20.5254L12.0643 20.8866L14.7596 23.5819L17.4549 20.8866L17.8161 20.5254C18.1734 20.1679 18.3741 19.6832 18.3742 19.1778C18.3742 18.6723 18.1735 18.1876 17.8163 17.8301Z" fill="#E5186A"/>
</g>
</svg>
