<svg width="30" height="30" viewBox="0 0 30 30" fill="none" xmlns="http://www.w3.org/2000/svg">
<g opacity="0.5">
<path d="M22.1748 5.46938C21.9629 5.26833 21.6818 5.15625 21.3897 5.15625C21.0975 5.15625 20.8165 5.26833 20.6045 5.46938L20.1562 5.90127L19.7077 5.46938C19.4957 5.26833 19.2147 5.15625 18.9225 5.15625C18.6304 5.15625 18.3494 5.26833 18.1374 5.46938C18.0347 5.56669 17.9529 5.68392 17.897 5.8139C17.8411 5.94388 17.8122 6.08389 17.8122 6.22538C17.8122 6.36688 17.8411 6.50689 17.897 6.63687C17.9529 6.76685 18.0347 6.88407 18.1374 6.98139L20.0216 8.79598C20.0636 8.83621 20.1086 8.87311 20.1562 8.90637C20.2038 8.8731 20.2487 8.8362 20.2906 8.79598L22.1748 6.98139C22.2776 6.88407 22.3594 6.76685 22.4153 6.63687C22.4712 6.50689 22.5 6.36688 22.5 6.22538C22.5 6.08389 22.4712 5.94388 22.4153 5.8139C22.3594 5.68392 22.2776 5.56669 22.1748 5.46938Z" fill="#EB423F"/>
<path d="M9.5186 3.12563C9.30662 2.92458 9.0256 2.8125 8.73344 2.8125C8.44128 2.8125 8.16026 2.92458 7.94828 3.12563L7.49998 3.55752L7.05145 3.12563C6.83947 2.92458 6.55845 2.8125 6.26629 2.8125C5.97414 2.8125 5.69311 2.92458 5.48114 3.12563C5.37842 3.22294 5.29662 3.34017 5.24071 3.47015C5.18481 3.60013 5.15598 3.74014 5.15598 3.88163C5.15598 4.02313 5.18481 4.16314 5.24071 4.29312C5.29662 4.4231 5.37842 4.54032 5.48114 4.63764L7.36539 6.45223C7.40733 6.49245 7.45233 6.52936 7.49998 6.56262C7.54756 6.52935 7.59248 6.49245 7.63434 6.45223L9.5186 4.63764C9.62131 4.54032 9.70311 4.4231 9.75902 4.29312C9.81493 4.16314 9.84376 4.02313 9.84376 3.88163C9.84376 3.74014 9.81493 3.60013 9.75902 3.47015C9.70311 3.34017 9.62131 3.22294 9.5186 3.12563Z" fill="#EB423F"/>
<path d="M15.5473 9.77215C15.4247 9.64645 15.2782 9.54655 15.1165 9.47835C14.9547 9.41014 14.7809 9.375 14.6053 9.375C14.4297 9.375 14.2559 9.41014 14.0941 9.47835C13.9323 9.54655 13.7858 9.64645 13.6632 9.77215L13.125 10.3203L12.5868 9.77215C12.4642 9.64645 12.3177 9.54655 12.1559 9.47835C11.9941 9.41014 11.8203 9.375 11.6447 9.375C11.4691 9.375 11.2953 9.41014 11.1336 9.47835C10.9718 9.54655 10.8253 9.64645 10.7027 9.77215C10.4525 10.0288 10.3125 10.3731 10.3125 10.7315C10.3125 11.09 10.4525 11.4342 10.7027 11.6909L12.9638 13.9937L12.9653 13.9952C12.9861 14.0165 13.0109 14.0335 13.0383 14.0451C13.0658 14.0567 13.0952 14.0626 13.125 14.0626C13.1548 14.0626 13.1843 14.0567 13.2117 14.0451C13.2391 14.0335 13.2639 14.0165 13.2847 13.9952L13.2862 13.9937L15.5473 11.6909C15.7975 11.4342 15.9375 11.09 15.9375 10.7315C15.9375 10.3731 15.7975 10.0288 15.5473 9.77215Z" fill="#EB423F"/>
<path d="M22.0229 16.4063H28.5707C28.5707 16.4063 29.0384 19.6875 25.7645 19.6875V20.1562C25.7628 20.8959 25.542 21.6185 25.1298 22.2327C24.7177 22.8469 24.1327 23.3252 23.4489 23.6071C22.7651 23.889 22.013 23.9619 21.2878 23.8166C20.5625 23.6712 19.8966 23.3142 19.3742 22.7906C18.8517 22.267 18.4962 21.6003 18.3525 20.8747C18.2088 20.1491 18.2834 19.3972 18.5669 18.714C18.8503 18.0308 19.3299 17.447 19.945 17.0362C20.5602 16.6255 21.2833 16.4062 22.0229 16.4063Z" fill="#F7B030"/>
<path d="M19.6644 19.2188C21.2177 19.2188 22.4769 17.9596 22.4769 16.4062C22.4769 14.8529 21.2177 13.5938 19.6644 13.5938C18.1111 13.5938 16.8519 14.8529 16.8519 16.4062C16.8519 17.9596 18.1111 19.2188 19.6644 19.2188Z" fill="#FFB632"/>
<path d="M7.97717 19.6875H1.42938C1.42938 19.6875 0.961681 22.9687 4.23561 22.9687V23.4375C4.23726 24.1772 4.45811 24.8997 4.87026 25.5139C5.2824 26.1282 5.86734 26.6064 6.55118 26.8883C7.23502 27.1702 7.98707 27.2431 8.71233 27.0978C9.43758 26.9525 10.1035 26.5955 10.6259 26.0719C11.1484 25.5482 11.5039 24.8815 11.6476 24.156C11.7913 23.4304 11.7167 22.6785 11.4332 21.9953C11.1498 21.3121 10.6702 20.7282 10.055 20.3175C9.43991 19.9067 8.71684 19.6875 7.97717 19.6875Z" fill="#F7B030"/>
<path d="M10.3125 22.5C11.8658 22.5 13.125 21.2408 13.125 19.6875C13.125 18.1342 11.8658 16.875 10.3125 16.875C8.7592 16.875 7.5 18.1342 7.5 19.6875C7.5 21.2408 8.7592 22.5 10.3125 22.5Z" fill="#FFB632"/>
<path d="M21.3897 4.68761C20.976 4.68571 20.5778 4.84499 20.2796 5.1317L20.1562 5.25047L20.0332 5.1317C19.7338 4.84655 19.3363 4.6875 18.9228 4.6875C18.5094 4.6875 18.1118 4.84655 17.8125 5.1317C17.6644 5.27276 17.5465 5.44242 17.4659 5.63041C17.3854 5.8184 17.3438 6.0208 17.3438 6.22532C17.3438 6.42984 17.3854 6.63224 17.4659 6.82023C17.5465 7.00822 17.6644 7.17788 17.8125 7.31894L19.6966 9.13342C19.756 9.19046 19.8197 9.24283 19.8871 9.29004C19.966 9.34533 20.0599 9.37499 20.1562 9.37499C20.2525 9.37499 20.3465 9.34533 20.4254 9.29004C20.4928 9.24286 20.5564 9.19053 20.6157 9.13353L22.5 7.319C22.6481 7.17794 22.766 7.00828 22.8465 6.82029C22.9271 6.63231 22.9686 6.42992 22.9686 6.22541C22.9686 6.02089 22.9271 5.8185 22.8465 5.63052C22.766 5.44254 22.6481 5.27287 22.5 5.13181C22.2017 4.84504 21.8035 4.68571 21.3897 4.68761ZM21.8497 6.64377L20.1562 8.27461L18.4629 6.64383C18.4056 6.59023 18.3599 6.52544 18.3287 6.45346C18.2974 6.38149 18.2813 6.30387 18.2813 6.22541C18.2813 6.14695 18.2974 6.06933 18.3287 5.99735C18.3599 5.92538 18.4056 5.86058 18.4629 5.80699C18.5875 5.69012 18.752 5.62509 18.9228 5.62509C19.0937 5.62509 19.2582 5.69012 19.3828 5.80699L19.8313 6.23894C19.9186 6.32308 20.0352 6.37009 20.1565 6.37009C20.2778 6.37009 20.3943 6.32308 20.4817 6.23894L20.9297 5.80676C21.0543 5.68986 21.2188 5.62481 21.3896 5.62481C21.5605 5.62481 21.725 5.68986 21.8496 5.80676C21.9069 5.86034 21.9526 5.92513 21.9838 5.99711C22.0151 6.06908 22.0312 6.14671 22.0312 6.22517C22.0312 6.30364 22.0151 6.38126 21.9838 6.45324C21.9526 6.52521 21.9069 6.59 21.8496 6.64359L21.8497 6.64377Z" fill="black"/>
<path d="M9.84373 2.78797C9.54438 2.50281 9.1468 2.34375 8.73337 2.34375C8.31995 2.34375 7.92237 2.50281 7.62302 2.78797L7.49997 2.90674L7.37693 2.78797C7.07758 2.50282 6.68 2.34377 6.26658 2.34377C5.85315 2.34377 5.45558 2.50282 5.15622 2.78797C5.00811 2.92903 4.89019 3.0987 4.80962 3.2867C4.72905 3.4747 4.6875 3.67711 4.6875 3.88165C4.6875 4.08619 4.72905 4.2886 4.80962 4.4766C4.89019 4.6646 5.00811 4.83427 5.15622 4.97533L7.04037 6.7898C7.09972 6.84685 7.16341 6.89921 7.23085 6.94643C7.3097 7.00172 7.40367 7.03138 7.49997 7.03138C7.59628 7.03138 7.69025 7.00172 7.7691 6.94643C7.8365 6.89925 7.90014 6.84692 7.95947 6.78992L9.84373 4.97527C9.99181 4.83422 10.1097 4.66455 10.1903 4.47657C10.2708 4.28858 10.3124 4.0862 10.3124 3.88168C10.3124 3.67716 10.2708 3.47478 10.1903 3.28679C10.1097 3.09881 9.99181 2.92914 9.84373 2.78809V2.78797ZM9.19333 4.30004L7.49997 5.93088L5.80662 4.3001C5.74932 4.2465 5.70364 4.18171 5.67241 4.10973C5.64118 4.03776 5.62506 3.96014 5.62506 3.88168C5.62506 3.80322 5.64118 3.7256 5.67241 3.65363C5.70364 3.58165 5.74932 3.51686 5.80662 3.46326C5.93126 3.3464 6.09571 3.28136 6.26658 3.28136C6.43744 3.28136 6.60189 3.3464 6.72654 3.46326L7.17501 3.89521C7.26236 3.97935 7.37893 4.02636 7.50021 4.02636C7.62149 4.02636 7.73805 3.97935 7.8254 3.89521L8.27341 3.46303C8.39804 3.34614 8.5625 3.28108 8.73337 3.28108C8.90424 3.28108 9.0687 3.34614 9.19333 3.46303C9.25065 3.51661 9.29634 3.5814 9.32758 3.65338C9.35882 3.72536 9.37494 3.80298 9.37494 3.88145C9.37494 3.95991 9.35882 4.03753 9.32758 4.10951C9.29634 4.18149 9.25065 4.24628 9.19333 4.29986V4.30004Z" fill="black"/>
<path d="M12.628 14.3204L12.6315 14.3241C12.6957 14.3894 12.7722 14.4414 12.8566 14.4769C12.9411 14.5125 13.0317 14.5309 13.1233 14.5311C13.2149 14.5314 13.3057 14.5134 13.3903 14.4783C13.4749 14.4432 13.5517 14.3916 13.6162 14.3265C13.618 14.3247 13.62 14.3225 13.622 14.3204L15.8818 12.0192C16.217 11.6744 16.4045 11.2124 16.4045 10.7315C16.4045 10.2506 16.217 9.78858 15.8818 9.44374C15.7155 9.2736 15.517 9.13841 15.2978 9.0461C15.0786 8.9538 14.8431 8.90625 14.6053 8.90625C14.3674 8.90625 14.132 8.9538 13.9127 9.0461C13.6935 9.13841 13.495 9.2736 13.3288 9.44374L13.125 9.65139L12.9213 9.44386C12.755 9.2737 12.5565 9.13849 12.3373 9.04618C12.118 8.95386 11.8826 8.90631 11.6447 8.90631C11.4068 8.90631 11.1714 8.95386 10.9521 9.04618C10.7329 9.13849 10.5344 9.2737 10.3681 9.44386C10.0329 9.7887 9.84538 10.2507 9.84538 10.7316C9.84538 11.2125 10.0329 11.6745 10.3681 12.0193L12.628 14.3204ZM11.0372 10.1005C11.1161 10.0192 11.2106 9.95463 11.3149 9.91051C11.4193 9.86639 11.5314 9.84365 11.6448 9.84365C11.7581 9.84365 11.8702 9.86639 11.9746 9.91051C12.0789 9.95463 12.1734 10.0192 12.2523 10.1005L12.7906 10.6486C12.8342 10.693 12.8863 10.7283 12.9437 10.7524C13.0011 10.7765 13.0628 10.7889 13.125 10.7889C13.1873 10.7889 13.249 10.7765 13.3064 10.7524C13.3638 10.7283 13.4159 10.693 13.4595 10.6486L13.9977 10.1005C14.0767 10.0193 14.1711 9.95465 14.2755 9.91053C14.3798 9.86642 14.492 9.84369 14.6053 9.84369C14.7186 9.84369 14.8307 9.86642 14.9351 9.91053C15.0394 9.95465 15.1339 10.0193 15.2128 10.1005C15.377 10.2695 15.4689 10.4958 15.4689 10.7315C15.4689 10.9671 15.377 11.1935 15.2128 11.3624L13.125 13.4888L11.0372 11.3626C10.873 11.1936 10.7811 10.9673 10.7811 10.7317C10.7811 10.496 10.873 10.2697 11.0372 10.1008V10.1005Z" fill="black"/>
<path d="M28.5709 15.9371H22.9116C22.8506 15.5102 22.706 15.0995 22.4862 14.7285C22.2663 14.3574 21.9755 14.0334 21.6303 13.7749C21.2851 13.5164 20.8923 13.3285 20.4744 13.2219C20.0565 13.1153 19.6217 13.0922 19.1949 13.1538C18.768 13.2154 18.3575 13.3606 17.9868 13.581C17.6161 13.8014 17.2925 14.0927 17.0345 14.4383C16.7766 14.7839 16.5892 15.1769 16.4833 15.595C16.3773 16.0131 16.3548 16.4479 16.4171 16.8746H15.4688C15.3444 16.8746 15.2252 16.924 15.1373 17.0119C15.0494 17.0998 15 17.2191 15 17.3434C15 17.4677 15.0494 17.5869 15.1373 17.6748C15.2252 17.7628 15.3444 17.8121 15.4688 17.8121H16.7003C16.9701 18.377 17.3948 18.8536 17.9249 19.1863C17.787 19.765 17.7732 20.3662 17.8845 20.9506C17.9957 21.5349 18.2295 22.0891 18.5704 22.5765C18.9114 23.064 19.3517 23.4737 19.8624 23.7786C20.3731 24.0836 20.9426 24.277 21.5334 24.3459C22.1243 24.4149 22.723 24.3579 23.2902 24.1787C23.8574 23.9995 24.3802 23.7022 24.8242 23.3063C25.2682 22.9105 25.6233 22.4251 25.8661 21.882C26.109 21.339 26.234 20.7507 26.233 20.1559V20.1342C27.1087 20.0499 27.7996 19.7218 28.291 19.1556C29.2637 18.0348 29.0447 16.4086 29.0351 16.3399C29.0192 16.2281 28.9635 16.1258 28.8782 16.0518C28.793 15.9778 28.6838 15.9371 28.5709 15.9371ZM17.3203 16.4059C17.3203 15.9423 17.4578 15.4892 17.7153 15.1038C17.9728 14.7183 18.3389 14.4179 18.7671 14.2405C19.1954 14.0632 19.6667 14.0167 20.1213 14.1072C20.5759 14.1976 20.9936 14.4208 21.3213 14.7486C21.6491 15.0764 21.8723 15.494 21.9628 15.9486C22.0532 16.4033 22.0068 16.8745 21.8294 17.3028C21.652 17.7311 21.3516 18.0971 20.9662 18.3546C20.5808 18.6122 20.1276 18.7496 19.6641 18.7496C19.0427 18.7489 18.447 18.5018 18.0076 18.0624C17.5682 17.623 17.321 17.0273 17.3203 16.4059ZM27.5792 18.545C27.1894 18.9918 26.5787 19.2184 25.7643 19.2184C25.6399 19.2184 25.5207 19.2678 25.4328 19.3557C25.3449 19.4436 25.2955 19.5628 25.2955 19.6871V20.1559C25.2953 20.6103 25.2004 21.0596 25.017 21.4754C24.8336 21.8911 24.5656 22.2641 24.2302 22.5705C23.8947 22.877 23.4991 23.1103 23.0685 23.2555C22.638 23.4007 22.1819 23.4546 21.7293 23.4139C21.2768 23.3731 20.8377 23.2386 20.44 23.0189C20.0423 22.7991 19.6947 22.4989 19.4193 22.1375C19.144 21.776 18.9469 21.3612 18.8407 20.9194C18.7345 20.4776 18.7214 20.0185 18.8023 19.5714C19.2507 19.6938 19.72 19.7195 20.179 19.6467C20.638 19.574 21.0764 19.4045 21.465 19.1495C21.8535 18.8945 22.1834 18.5598 22.4328 18.1676C22.6822 17.7754 22.8454 17.3347 22.9116 16.8746H28.1243C28.1177 17.3166 28.0286 18.0305 27.5794 18.545H27.5792Z" fill="black"/>
<path d="M18.75 16.4062C19.0089 16.4062 19.2188 16.1964 19.2188 15.9375C19.2188 15.6786 19.0089 15.4688 18.75 15.4688C18.4911 15.4688 18.2812 15.6786 18.2812 15.9375C18.2812 16.1964 18.4911 16.4062 18.75 16.4062Z" fill="black"/>
<path d="M11.25 20.1562C11.5089 20.1562 11.7188 19.9464 11.7188 19.6875C11.7188 19.4286 11.5089 19.2188 11.25 19.2188C10.9911 19.2188 10.7812 19.4286 10.7812 19.6875C10.7812 19.9464 10.9911 20.1562 11.25 20.1562Z" fill="black"/>
<path d="M14.5313 20.1559H13.5597C13.684 19.2947 13.4611 18.4193 12.9401 17.7225C12.419 17.0256 11.6425 16.5642 10.7813 16.4399C9.92004 16.3156 9.04471 16.5385 8.34784 17.0596C7.65096 17.5806 7.18962 18.3572 7.0653 19.2184H1.42911C1.31625 19.2184 1.20717 19.2591 1.12192 19.3331C1.03667 19.407 0.98097 19.5092 0.965043 19.621C0.955258 19.6897 0.736528 21.3159 1.70918 22.4367C2.20055 23.003 2.89149 23.3311 3.76717 23.4152V23.4371C3.76746 24.0316 3.89364 24.6193 4.13739 25.1615C4.38115 25.7037 4.73696 26.1881 5.18142 26.5829C5.62587 26.9777 6.14889 27.2738 6.71605 27.4519C7.28321 27.63 7.88166 27.686 8.47201 27.6162C9.06237 27.5464 9.63124 27.3523 10.1412 27.0468C10.6511 26.7413 11.0906 26.3312 11.4307 25.8436C11.7708 25.3561 12.0037 24.802 12.1143 24.2179C12.2248 23.6338 12.2104 23.0329 12.072 22.4548C12.5929 22.1226 13.0102 21.6509 13.2765 21.0934H14.5313C14.6556 21.0934 14.7748 21.044 14.8627 20.9561C14.9506 20.8682 15 20.749 15 20.6246C15 20.5003 14.9506 20.3811 14.8627 20.2932C14.7748 20.2053 14.6556 20.1559 14.5313 20.1559ZM11.25 23.4371C11.25 24.3051 10.9052 25.1376 10.2914 25.7513C9.67768 26.3651 8.84524 26.7099 7.97725 26.7099C7.10926 26.7099 6.27682 26.3651 5.66306 25.7513C5.0493 25.1376 4.7045 24.3051 4.7045 23.4371V22.9684C4.7045 22.8441 4.65511 22.7248 4.5672 22.6369C4.47929 22.549 4.36007 22.4996 4.23575 22.4996C3.42129 22.4996 2.81057 22.2731 2.42057 21.8262C1.97133 21.3116 1.88233 20.5974 1.87565 20.1559H7.0653C7.13165 20.6178 7.29587 21.0603 7.54698 21.4537C7.79808 21.8471 8.13027 22.1824 8.52135 22.4371C8.91243 22.6918 9.35339 22.8601 9.81472 22.9307C10.2761 23.0013 10.7472 22.9725 11.1965 22.8465C11.232 23.0413 11.2499 23.239 11.25 23.4371ZM10.3125 22.0309C9.84895 22.0309 9.39581 21.8934 9.01039 21.6359C8.62496 21.3784 8.32455 21.0123 8.14716 20.584C7.96977 20.1558 7.92335 19.6845 8.01379 19.2299C8.10422 18.7752 8.32744 18.3576 8.65522 18.0298C8.983 17.7021 9.40062 17.4788 9.85526 17.3884C10.3099 17.298 10.7812 17.3444 11.2094 17.5218C11.6377 17.6992 12.0037 17.9996 12.2613 18.385C12.5188 18.7704 12.6563 19.2236 12.6563 19.6871C12.6556 20.3085 12.4084 20.9043 11.969 21.3436C11.5296 21.783 10.9339 22.0302 10.3125 22.0309Z" fill="black"/>
</g>
</svg>
