<svg width="43" height="34" viewBox="0 0 43 34" fill="none" xmlns="http://www.w3.org/2000/svg">
<path d="M7.81715 33.2613V31.0489C7.81715 30.2009 7.30093 29.6477 6.41597 29.6477C5.97349 29.6477 5.49413 29.7952 5.16227 30.2746C4.90416 29.869 4.53543 29.6477 3.98233 29.6477C3.6136 29.6477 3.24486 29.7584 2.94988 30.164V29.7215H2.17554V33.2613H2.94988V31.307C2.94988 30.6802 3.28174 30.3852 3.79796 30.3852C4.31419 30.3852 4.5723 30.7171 4.5723 31.307V33.2613H5.34664V31.307C5.34664 30.6802 5.71537 30.3852 6.19473 30.3852C6.71095 30.3852 6.96907 30.7171 6.96907 31.307V33.2613H7.81715ZM19.2847 29.7215H18.0311V28.6522H17.2567V29.7215H16.5561V30.4221H17.2567V32.0445C17.2567 32.8557 17.5886 33.3351 18.4735 33.3351C18.8054 33.3351 19.1741 33.2245 19.4322 33.077L19.211 32.4132C18.9898 32.5607 18.7316 32.5976 18.5473 32.5976C18.1785 32.5976 18.0311 32.3764 18.0311 32.0076V30.4221H19.2847V29.7215ZM25.8482 29.6477C25.4057 29.6477 25.1107 29.869 24.9264 30.164V29.7215H24.152V33.2613H24.9264V31.2702C24.9264 30.6802 25.1845 30.3483 25.6638 30.3483C25.8113 30.3483 25.9957 30.3852 26.1432 30.4221L26.3644 29.6846C26.2169 29.6477 25.9957 29.6477 25.8482 29.6477ZM15.9293 30.0165C15.5605 29.7584 15.0443 29.6477 14.4912 29.6477C13.6063 29.6477 13.0163 30.0902 13.0163 30.7908C13.0163 31.3808 13.4588 31.7127 14.2331 31.8233L14.6018 31.8601C15.0074 31.9339 15.2287 32.0445 15.2287 32.2289C15.2287 32.487 14.9337 32.6714 14.4175 32.6714C13.9012 32.6714 13.4956 32.487 13.2375 32.3026L12.8688 32.8926C13.2744 33.1876 13.8275 33.3351 14.3806 33.3351C15.4131 33.3351 16.003 32.8557 16.003 32.192C16.003 31.5652 15.5237 31.2333 14.7862 31.1227L14.4175 31.0858C14.0856 31.0489 13.8275 30.9752 13.8275 30.754C13.8275 30.4958 14.0856 30.3483 14.4912 30.3483C14.9337 30.3483 15.3762 30.5327 15.5974 30.6433L15.9293 30.0165ZM36.5046 29.6477C36.0621 29.6477 35.7671 29.869 35.5827 30.164V29.7215H34.8084V33.2613H35.5827V31.2702C35.5827 30.6802 35.8409 30.3483 36.3202 30.3483C36.4677 30.3483 36.6521 30.3852 36.7996 30.4221L37.0208 29.6846C36.8733 29.6477 36.6521 29.6477 36.5046 29.6477ZM26.6225 31.4914C26.6225 32.5607 27.36 33.3351 28.5031 33.3351C29.0193 33.3351 29.388 33.2245 29.7568 32.9295L29.388 32.3026C29.093 32.5239 28.7981 32.6345 28.4662 32.6345C27.8394 32.6345 27.3969 32.192 27.3969 31.4914C27.3969 30.8277 27.8394 30.3852 28.4662 30.3483C28.7981 30.3483 29.093 30.459 29.388 30.6802L29.7568 30.0534C29.388 29.7584 29.0193 29.6477 28.5031 29.6477C27.36 29.6477 26.6225 30.4221 26.6225 31.4914ZM33.776 31.4914V29.7215H33.0016V30.164C32.7435 29.8321 32.3748 29.6477 31.8954 29.6477C30.8998 29.6477 30.1255 30.4221 30.1255 31.4914C30.1255 32.5607 30.8998 33.3351 31.8954 33.3351C32.4116 33.3351 32.7804 33.1507 33.0016 32.8189V33.2613H33.776V31.4914ZM30.9367 31.4914C30.9367 30.8646 31.3423 30.3483 32.006 30.3483C32.6329 30.3483 33.0754 30.8277 33.0754 31.4914C33.0754 32.1183 32.6329 32.6345 32.006 32.6345C31.3423 32.5976 30.9367 32.1183 30.9367 31.4914ZM21.6815 29.6477C20.6491 29.6477 19.9116 30.3852 19.9116 31.4914C19.9116 32.5976 20.6491 33.3351 21.7184 33.3351C22.2346 33.3351 22.7508 33.1876 23.1564 32.8557L22.7877 32.3026C22.4927 32.5239 22.124 32.6714 21.7553 32.6714C21.2759 32.6714 20.7966 32.4501 20.6859 31.8233H23.3039V31.5283C23.3408 30.3852 22.6771 29.6477 21.6815 29.6477ZM21.6815 30.3115C22.1609 30.3115 22.4927 30.6065 22.5665 31.1596H20.7228C20.7966 30.6802 21.1284 30.3115 21.6815 30.3115ZM40.8925 31.4914V28.3203H40.1182V30.164C39.8601 29.8321 39.4913 29.6477 39.012 29.6477C38.0164 29.6477 37.242 30.4221 37.242 31.4914C37.242 32.5607 38.0164 33.3351 39.012 33.3351C39.5282 33.3351 39.8969 33.1507 40.1182 32.8189V33.2613H40.8925V31.4914ZM38.0533 31.4914C38.0533 30.8646 38.4589 30.3483 39.1226 30.3483C39.7494 30.3483 40.1919 30.8277 40.1919 31.4914C40.1919 32.1183 39.7494 32.6345 39.1226 32.6345C38.4589 32.5976 38.0533 32.1183 38.0533 31.4914ZM12.1682 31.4914V29.7215H11.3939V30.164C11.1357 29.8321 10.767 29.6477 10.2877 29.6477C9.29208 29.6477 8.51774 30.4221 8.51774 31.4914C8.51774 32.5607 9.29208 33.3351 10.2877 33.3351C10.8039 33.3351 11.1726 33.1507 11.3939 32.8189V33.2613H12.1682V31.4914ZM9.29208 31.4914C9.29208 30.8646 9.69769 30.3483 10.3614 30.3483C10.9883 30.3483 11.4307 30.8277 11.4307 31.4914C11.4307 32.1183 10.9883 32.6345 10.3614 32.6345C9.69769 32.5976 9.29208 32.1183 9.29208 31.4914Z" fill="black"/>
<path d="M27.2862 2.83984H15.6711V23.7101H27.2862V2.83984Z" fill="#FF5F00"/>
<path d="M16.4086 13.2744C16.4086 9.03396 18.3998 5.27288 21.4603 2.83924C19.211 1.06933 16.3717 0 13.2744 0C5.9366 0 0 5.9366 0 13.2744C0 20.6122 5.9366 26.5488 13.2744 26.5488C16.3717 26.5488 19.211 25.4795 21.4603 23.7095C18.3998 21.3128 16.4086 17.5148 16.4086 13.2744Z" fill="#EB001B"/>
<path d="M42.9573 13.2744C42.9573 20.6122 37.0207 26.5488 29.6829 26.5488C26.5856 26.5488 23.7463 25.4795 21.4971 23.7095C24.5944 21.2759 26.5487 17.5148 26.5487 13.2744C26.5487 9.03396 24.5576 5.27288 21.4971 2.83924C23.7463 1.06933 26.5856 0 29.6829 0C37.0207 0 42.9573 5.97347 42.9573 13.2744Z" fill="#F79E1B"/>
</svg>
