<svg width="61" height="41" viewBox="0 0 61 41" fill="none" xmlns="http://www.w3.org/2000/svg">
<path d="M1.57007 38.4108L1.68007 16.0708L11.0001 7.00078L53.4701 6.30078L49.6301 38.6208L1.57007 38.4108Z" fill="#FECA18" stroke="white" stroke-width="1.5" stroke-miterlimit="10"/>
<path fill-rule="evenodd" clip-rule="evenodd" d="M22.4101 25.39C22.2047 25.171 21.9339 25.0245 21.6383 24.9722C21.3427 24.9199 21.0381 24.9648 20.7701 25.1C20.5101 25.24 20.4901 25.2 20.4901 24.38V23.5H19.3301V28.43H19.7601C19.9901 28.43 20.2101 28.36 20.2401 28.27C20.2701 28.18 20.3701 28.14 20.6001 28.27C20.8769 28.4029 21.1851 28.4565 21.4905 28.4247C21.796 28.3929 22.0866 28.2771 22.3301 28.09C22.5283 27.9517 22.6857 27.7628 22.786 27.5429C22.8862 27.3231 22.9256 27.0803 22.9001 26.84C23.0001 25.94 22.8201 25.81 22.4101 25.39ZM21.4101 27.5C20.8701 27.85 20.4101 27.57 20.4101 26.84C20.4049 26.5738 20.4352 26.3082 20.5001 26.05C20.6301 25.72 21.3801 25.76 21.5701 26.1C21.7165 26.3107 21.7847 26.566 21.7627 26.8217C21.7408 27.0773 21.6302 27.3173 21.4501 27.5H21.4101Z" fill="#E61C29"/>
<path fill-rule="evenodd" clip-rule="evenodd" d="M23.7101 23.6817C23.2201 24.1617 23.8101 24.8317 24.3801 24.4317C24.7501 24.1717 24.7701 24.0317 24.4701 23.7317C24.1701 23.4317 23.9401 23.4417 23.7101 23.6817Z" fill="#E61C29"/>
<path d="M26.5799 23.5H25.4199V28.43H26.5799V23.5Z" fill="#E61C29"/>
<path fill-rule="evenodd" clip-rule="evenodd" d="M9.56005 25.4217C9.51005 26.3217 9.43005 27.3617 9.38005 27.7417L9.30005 28.4317H10.3L10.41 26.7317C10.49 25.5917 10.56 25.1517 10.63 25.3917C10.7 25.6317 10.89 26.3217 11.08 27.0217C11.41 28.2617 11.42 28.2917 11.86 28.2917C12.3 28.2917 12.31 28.2917 12.8 26.5817C13.24 25.1017 13.31 24.9517 13.34 25.4617C13.34 25.7817 13.41 26.5817 13.46 27.2317L13.55 28.4317H14.55L14.46 26.8717C14.46 26.0217 14.35 24.9717 14.3 24.5517L14.23 23.7917H12.83L12.42 25.2417C12.03 26.5917 11.79 27.0417 11.78 26.4417C11.7017 25.955 11.5915 25.474 11.45 25.0017L11.11 23.8417L9.65005 23.7617L9.56005 25.4217Z" fill="#E61C29"/>
<path fill-rule="evenodd" clip-rule="evenodd" d="M16.9399 25.0005C16.5889 25.0198 16.2468 25.119 15.9399 25.2905C15.63 25.5087 15.3997 25.8221 15.2842 26.1831C15.1687 26.5441 15.1742 26.9329 15.2999 27.2905C15.3818 27.6609 15.6001 27.9869 15.9114 28.2037C16.2226 28.4205 16.6041 28.5122 16.9799 28.4605C17.3573 28.5149 17.7412 28.4245 18.0547 28.2075C18.3682 27.9904 18.588 27.6629 18.6699 27.2905C18.7674 27.0224 18.7963 26.7342 18.7539 26.4521C18.7115 26.17 18.5993 25.903 18.4273 25.6753C18.2553 25.4477 18.0292 25.2667 17.7694 25.1489C17.5096 25.031 17.2244 24.98 16.9399 25.0005ZM17.4499 27.4805C17.3943 27.5654 17.3187 27.6352 17.2298 27.6841C17.1409 27.7329 17.0413 27.7591 16.9399 27.7605C16.5199 27.7605 16.2899 27.3805 16.2899 26.6905C16.2899 26.1705 16.5899 25.6905 16.9399 25.6905C17.1046 25.7179 17.2557 25.7987 17.3699 25.9205C17.5011 26.1482 17.5767 26.4036 17.5906 26.6659C17.6045 26.9283 17.5563 27.1903 17.4499 27.4305V27.4805Z" fill="#E61C29"/>
<path d="M24.54 24.9492H23.53V28.4292H24.54V24.9492Z" fill="#E61C29"/>
<path fill-rule="evenodd" clip-rule="evenodd" d="M30.3499 26.4608C30.3608 26.1755 30.2895 25.8931 30.1444 25.6471C29.9994 25.4012 29.7867 25.2021 29.5317 25.0736C29.2768 24.945 28.9903 24.8925 28.7063 24.9221C28.4223 24.9518 28.1528 25.0624 27.9299 25.2408C27.713 25.4007 27.5339 25.6063 27.4052 25.8431C27.2765 26.0799 27.2014 26.342 27.1852 26.611C27.169 26.88 27.2121 27.1493 27.3114 27.3998C27.4107 27.6503 27.5638 27.876 27.7599 28.0608C28.1299 28.3708 28.3399 28.4308 29.1199 28.4308C30.1199 28.4308 30.2799 28.3208 30.1199 27.8708C30.0499 27.6508 29.9299 27.6108 29.4199 27.6708C29.2472 27.7175 29.0656 27.7209 28.8912 27.6808C28.7168 27.6407 28.5549 27.5583 28.4199 27.4408L28.0499 27.1408H30.2999L30.3499 26.4608ZM28.7299 26.4008C28.1299 26.4008 28.0999 26.4008 28.3299 25.9608C28.3847 25.8783 28.459 25.8106 28.5462 25.7638C28.6334 25.717 28.7309 25.6925 28.8299 25.6925C28.9289 25.6925 29.0264 25.717 29.1136 25.7638C29.2009 25.8106 29.2752 25.8783 29.3299 25.9608C29.5199 26.3108 29.3999 26.4008 28.7299 26.4008Z" fill="#E61C29"/>
<path fill-rule="evenodd" clip-rule="evenodd" d="M9.56005 31.8706C9.50005 32.8106 9.42005 33.8706 9.38005 34.1906L9.30005 34.8106H10.3L10.4 33.2506C10.45 32.3906 10.51 31.6406 10.53 31.5806C10.7235 32.0888 10.8805 32.6102 11 33.1406C11.41 34.7606 11.44 34.8106 11.82 34.8106C12.04 34.8106 12.25 34.7606 12.29 34.6906C12.33 34.6206 12.59 33.8306 12.87 32.9206L13.38 31.2606V32.2606C13.38 32.8206 13.38 33.6206 13.48 34.0406C13.57 34.7906 13.58 34.8006 14.06 34.8006H14.56L14.47 33.2406C14.47 32.3806 14.36 31.3406 14.31 30.9206L14.24 30.1606H13.54C12.9 30.1606 12.84 30.1606 12.75 30.5606C12.5697 31.4435 12.2878 32.3025 11.91 33.1206C11.8357 32.9355 11.7755 32.7449 11.73 32.5506C11.68 32.3106 11.5 31.6806 11.34 31.1406L11.06 30.1406H9.65005L9.56005 31.8706Z" fill="#E61C29"/>
<path fill-rule="evenodd" clip-rule="evenodd" d="M17.6701 31.5399C17.4612 31.4216 17.2252 31.3594 16.9851 31.3594C16.745 31.3594 16.509 31.4216 16.3001 31.5399C16.0527 31.635 15.8299 31.7844 15.648 31.9772C15.4661 32.17 15.3298 32.4011 15.2492 32.6536C15.1685 32.9061 15.1456 33.1734 15.1822 33.4359C15.2187 33.6984 15.3137 33.9494 15.4602 34.1703C15.6067 34.3911 15.8009 34.5763 16.0285 34.7121C16.2561 34.8478 16.5113 34.9308 16.7753 34.9547C17.0392 34.9787 17.3052 34.9431 17.5535 34.8505C17.8019 34.7579 18.0262 34.6108 18.2101 34.4199C18.4177 34.2175 18.5721 33.9669 18.6596 33.6905C18.7471 33.414 18.7649 33.1202 18.7114 32.8353C18.658 32.5503 18.535 32.2829 18.3533 32.0569C18.1716 31.8309 17.937 31.6533 17.6701 31.5399ZM17.0001 34.2299C16.6701 34.2299 16.3201 33.7299 16.3201 33.2299C16.3201 32.5499 16.5501 32.1699 16.9701 32.1699C17.0715 32.1713 17.1711 32.1975 17.26 32.2463C17.3489 32.2952 17.4245 32.3651 17.4801 32.4499C17.7801 33.1099 17.4701 34.2299 17.0001 34.2299Z" fill="#E61C29"/>
<path fill-rule="evenodd" clip-rule="evenodd" d="M20.8201 31.5508C20.5601 31.6608 20.3401 31.6908 20.3401 31.6108C20.3401 31.5308 20.1201 31.4708 19.8401 31.4708H19.3301V34.8108H20.4901V33.6508C20.4901 32.6508 20.4901 32.4808 20.7901 32.3408C21.3201 32.0508 21.5001 32.3408 21.5001 33.6708V34.8108H22.6601V33.7208C22.7428 32.9686 22.5587 32.2112 22.1401 31.5808C21.935 31.4815 21.7111 31.4275 21.4833 31.4223C21.2556 31.4171 21.0294 31.4609 20.8201 31.5508Z" fill="#E61C29"/>
<path fill-rule="evenodd" clip-rule="evenodd" d="M26.4201 32.5583C26.2601 31.9883 25.8301 31.4783 25.5101 31.4783C25.3739 31.4762 25.2389 31.4526 25.1101 31.4083C24.8749 31.3968 24.64 31.4342 24.4201 31.5183C24.1865 31.6075 23.9738 31.7438 23.7952 31.9188C23.6167 32.0939 23.4761 32.3038 23.3823 32.5356C23.2885 32.7673 23.2434 33.0159 23.2499 33.2659C23.2564 33.5158 23.3143 33.7617 23.4201 33.9883C23.5684 34.31 23.8119 34.5784 24.1178 34.7573C24.4236 34.9361 24.7769 35.0167 25.13 34.9883C25.96 34.9883 26.28 34.8483 26.23 34.5083C26.18 34.1683 26.0901 34.1983 25.4301 34.1783C24.7701 34.1583 24.23 33.9583 24.23 33.6683C24.5735 33.5498 24.9389 33.5088 25.3 33.5483C26.55 33.5083 26.6501 33.4083 26.4201 32.5583ZM24.5001 32.3183C24.8001 31.9983 25.0401 31.9883 25.3401 32.3183C25.6401 32.6483 25.6101 32.8183 24.9201 32.8183C24.2301 32.8183 24.1401 32.7183 24.5001 32.3183Z" fill="#E61C29"/>
<path fill-rule="evenodd" clip-rule="evenodd" d="M28.09 34.8502L27.61 35.2502C27.21 35.5802 27.1399 35.7302 27.2099 36.0302C27.2799 36.3302 27.48 36.4902 28.11 36.1102C28.74 35.7302 29.11 35.0002 29.83 32.8902L30.33 31.4702H29.77C29.16 31.4702 29.1 31.5602 28.77 33.0402C28.77 33.3002 28.63 33.5002 28.58 33.5002C28.3915 33.1937 28.2626 32.8544 28.2 32.5002L27.91 31.5002L26.7 31.4102L28.09 34.8502Z" fill="#E61C29"/>
<path d="M9.76994 17.1203C9.85994 15.6503 9.95994 14.3603 9.98994 14.2603C10.0199 14.1603 10.3499 14.0803 10.9899 14.0803H11.9099L12.4599 15.8603C12.7699 16.8603 13.1199 18.0403 13.2499 18.5303L13.4799 19.4303L15.1999 14.0703L17.0999 14.1503L17.2499 17.0003C17.3399 18.5503 17.4299 20.2303 17.4299 20.7303V21.6403H16.1599L16.0799 20.7303C16.0799 20.2303 15.9599 18.9203 15.9099 17.8203L15.8199 15.8203L13.9999 21.4703H12.8199L12.3099 19.8403C11.9999 19.0003 11.6599 17.6603 11.4699 17.0003L11.1399 15.7703L10.9999 18.6503C10.9099 20.2403 10.8199 21.5603 10.8099 21.5803C10.584 21.6052 10.3559 21.6052 10.1299 21.5803H9.43994L9.52994 20.6703C9.56994 20.2103 9.68994 18.6003 9.76994 17.1203Z" fill="black"/>
<path d="M26.5701 17.4494L25.7501 15.9994V21.5794H24.4501L24.3701 14.1094H26.0701L27.3101 16.1794C27.9901 17.3094 28.6801 18.4994 28.8401 18.8194L29.1401 19.3994V14.1094H30.5001L30.4201 21.5794H29.0001L28.2101 20.2694C27.7501 19.5194 27.0001 18.2694 26.5701 17.4494Z" fill="black"/>
<path d="M18 15.2381V14.0781H23.65V15.2381H21.5V21.6281L20.13 21.5481L20.05 15.2381H18Z" fill="black"/>
<path fill-rule="evenodd" clip-rule="evenodd" d="M50.6099 14.0491C49.9499 14.0491 49.7199 13.4591 49.5099 12.8891C48.4045 9.68014 46.2434 6.94097 43.3799 5.11906L41.6599 4.11906L43.1599 2.45906C44.2199 1.28906 44.4799 1.28906 44.7499 1.28906C45.0199 1.28906 45.1999 1.28906 46.3299 2.19906C49.0364 4.54109 50.7934 7.79178 51.2699 11.3391C51.5699 13.0791 51.5699 13.4191 51.2699 13.7691L50.9999 13.9991L50.6099 14.0491Z" fill="white"/>
<path fill-rule="evenodd" clip-rule="evenodd" d="M43.79 2.99938L43 3.88938L43.83 4.38937C46.8553 6.30904 49.1426 9.19539 50.32 12.5794C50.74 13.6694 50.78 13.3294 50.45 11.4594C50.0039 8.11429 48.3544 5.04632 45.81 2.82938C45.5076 2.54906 45.1717 2.30723 44.81 2.10938C44.4264 2.35204 44.0824 2.65221 43.79 2.99938Z" fill="white"/>
<path fill-rule="evenodd" clip-rule="evenodd" d="M37.2499 14.6508C36.6999 14.4908 35.5799 14.2208 34.7799 14.0308C33.5399 13.7508 32.4799 13.5108 32.6799 12.5408C32.7799 12.1008 37.9999 3.43078 37.9999 3.35078L38.6799 2.30078L40.3399 2.76078C41.0999 2.98064 41.8477 3.24101 42.5799 3.54078L43.6699 4.00078L43.3999 5.64078L42.1699 5.72078C41.6028 5.74415 41.0428 5.85548 40.5099 6.05078C39.8821 6.32493 39.3242 6.737 38.8776 7.25636C38.4309 7.77573 38.107 8.38906 37.9299 9.05078C37.7668 9.74015 37.7603 10.4573 37.9108 11.1495C38.0614 11.8418 38.3652 12.4914 38.7999 13.0508L39.1799 13.5508L42.0599 16.1008L37.2499 14.6508Z" fill="white"/>
<path fill-rule="evenodd" clip-rule="evenodd" d="M38.71 3.82125C38.15 4.68125 33.55 12.5713 33.51 12.7213C33.9709 12.9762 34.477 13.1392 35 13.2013C35.82 13.3912 37 13.6713 37.51 13.8313L38.51 14.1213L38.12 13.6213C37.599 12.9758 37.2331 12.2194 37.0505 11.4104C36.8678 10.6013 36.8733 9.76104 37.0665 8.9544C37.2597 8.14776 37.6355 7.39623 38.1649 6.75768C38.6943 6.11913 39.3632 5.6106 40.12 5.27125C40.7612 5.03269 41.4363 4.89767 42.12 4.87125L43.35 4.79125L42.26 4.33125C41.5619 4.03687 40.8474 3.78312 40.12 3.57125L39.12 3.28125L38.71 3.82125Z" fill="white"/>
<path fill-rule="evenodd" clip-rule="evenodd" d="M41.3701 14.7019C40.4897 14.4486 39.679 13.997 39.0001 13.3819C38.8585 13.3013 38.7364 13.1906 38.6424 13.0576C38.5484 12.9246 38.4849 12.7725 38.4563 12.6122C38.4276 12.4519 38.4346 12.2872 38.4768 12.1299C38.5189 11.9726 38.5951 11.8264 38.7001 11.7019C38.7889 11.5717 38.9027 11.4605 39.0349 11.3746C39.1671 11.2888 39.315 11.2301 39.4701 11.2019C39.371 10.9513 39.371 10.6724 39.4701 10.4219C39.5422 10.2109 39.6761 10.0265 39.8545 9.89273C40.0328 9.75896 40.2474 9.682 40.4701 9.67188C40.7901 9.67188 43.4701 10.6719 43.4701 11.6719C43.4842 11.8851 43.4297 12.0972 43.3146 12.2771C43.1994 12.4571 43.0296 12.5954 42.8301 12.6719C42.8486 12.7793 42.8458 12.8894 42.8218 12.9958C42.7978 13.1022 42.753 13.2028 42.6901 13.2919C42.597 13.4354 42.4653 13.5498 42.3101 13.6219C42.3384 13.7571 42.3384 13.8967 42.3101 14.0319C42.2419 14.227 42.1149 14.3962 41.9465 14.5162C41.7782 14.6362 41.5768 14.7011 41.3701 14.7019Z" fill="white"/>
<path fill-rule="evenodd" clip-rule="evenodd" d="M42.69 11.6705C42.69 11.9705 42.42 11.9305 41.69 11.5405C41.4603 11.3845 41.2071 11.2663 40.94 11.1905C41.1162 11.4654 41.3134 11.7262 41.53 11.9705C41.86 12.3605 42.09 12.7405 42.04 12.8105C41.99 12.8805 41.65 12.8805 41.14 12.7405C40.8547 12.6516 40.5587 12.6011 40.26 12.5905C40.26 12.5905 40.5 12.8405 40.86 13.0705C41.47 13.4605 41.72 13.8505 41.36 13.8505C40.7129 13.5352 40.1026 13.1495 39.54 12.7005C39.28 12.4905 39.26 12.4205 39.42 12.2005C39.58 11.9805 39.8 11.9605 41.15 12.3605C41.35 12.4205 41.26 12.2305 40.81 11.6905C40.36 11.1505 40.22 10.8605 40.27 10.6905C40.2855 10.6378 40.3151 10.5903 40.3556 10.5533C40.3962 10.5163 40.4461 10.4911 40.5 10.4805C41.2869 10.7622 42.0255 11.1636 42.69 11.6705Z" fill="white"/>
<path fill-rule="evenodd" clip-rule="evenodd" d="M43.2301 11.5302C42.7809 11.4635 42.357 11.2808 42.0001 11.0002L41.6001 10.7702C41.4095 10.9222 41.1738 11.0066 40.9301 11.0102H40.6701L40.3801 10.8502C40.1816 10.7219 40.0415 10.5208 39.9901 10.2902C39.963 10.0282 39.988 9.76354 40.0635 9.51128C40.139 9.25902 40.2636 9.02415 40.4301 8.82016C41.0901 7.66016 41.5401 7.66016 41.7601 7.66016H41.9201L42.0701 7.72016C42.1955 7.76047 42.3111 7.8267 42.4093 7.91456C42.5075 8.00242 42.5861 8.10995 42.6401 8.23016C42.7379 8.43577 42.7625 8.6686 42.7101 8.89016L43.1401 9.14016C43.9001 9.57016 44.5601 9.94016 44.1901 10.8202C44.1277 11.026 44.0006 11.2063 43.8277 11.3342C43.6547 11.4621 43.4452 11.5308 43.2301 11.5302Z" fill="white"/>
<path fill-rule="evenodd" clip-rule="evenodd" d="M43.36 10.5792C43.29 10.7692 43.13 10.7192 42.36 10.2992C41.36 9.71921 41.36 9.70921 41.12 10.0292C41.02 10.1592 40.87 10.2292 40.78 10.1692C40.69 10.1092 40.78 9.79921 41.09 9.28921C41.4 8.77921 41.62 8.51921 41.7 8.54921C41.78 8.57921 41.85 8.69921 41.7 9.08921C41.63 9.26921 41.81 9.43921 42.45 9.79921C43.54 10.3892 43.46 10.3192 43.36 10.5792Z" fill="white"/>
<path fill-rule="evenodd" clip-rule="evenodd" d="M44.0599 10.2116C43.497 10.1409 42.9625 9.92365 42.5099 9.58156C41.7399 9.13156 40.8699 8.58156 41.0799 7.78156C41.1329 7.58766 41.2384 7.41218 41.3849 7.27453C41.5314 7.13687 41.7131 7.0424 41.9099 7.00156C41.9054 6.94165 41.9054 6.88148 41.9099 6.82156C41.899 6.67099 41.9182 6.51976 41.9663 6.37665C42.0143 6.23354 42.0903 6.1014 42.1899 5.9879C42.2894 5.8744 42.4105 5.78181 42.5461 5.71549C42.6818 5.64917 42.8292 5.61044 42.9799 5.60156C43.8568 5.95396 44.6811 6.42503 45.4299 7.00156C45.7099 7.18156 45.9799 7.55156 45.7199 8.28156C45.6668 8.45071 45.5736 8.60452 45.4482 8.72989C45.3229 8.85525 45.1691 8.94846 44.9999 9.00156V9.10156L45.0799 9.44156L44.8799 9.82156C44.7873 9.95053 44.6635 10.0539 44.5201 10.1221C44.3767 10.1903 44.2184 10.2211 44.0599 10.2116Z" fill="white"/>
<path fill-rule="evenodd" clip-rule="evenodd" d="M45 7.69C45 7.69 45 7.83 45 7.97C45 8.11 44.74 8.21 43.84 8.17C43.26 8.17 42.84 8.17 42.84 8.22C42.84 8.27 43.25 8.5 43.63 8.73C44.01 8.96 44.27 9.21 44.2 9.32C44.13 9.43 43.78 9.32 42.98 8.85C41.56 8.02 41.59 7.79 43.14 7.73H44.25L43.49 7.31C42.74 6.89 42.64 6.78 42.82 6.6C42.8589 6.55254 42.9112 6.51774 42.97 6.5C42.97 6.5 44.88 7.61 45 7.69Z" fill="white"/>
<path fill-rule="evenodd" clip-rule="evenodd" d="M42.2699 15.9991C40.8735 16.0021 39.526 15.4852 38.4899 14.5491C37.6949 13.8611 37.1073 12.9652 36.7929 11.962C36.4785 10.9587 36.4498 9.88775 36.7099 8.86908C36.9307 7.89126 37.4087 6.99014 38.0943 6.25882C38.7799 5.52749 39.6483 4.99249 40.6099 4.70908C41.0965 4.56499 41.6025 4.49751 42.1099 4.50908C43.0007 4.4958 43.885 4.66246 44.7099 4.99908C45.9076 5.61486 46.8856 6.58586 47.5099 7.77908C47.8922 8.53625 48.0616 9.3831 47.9999 10.2291C48.0806 11.0621 47.9356 11.9015 47.5799 12.6591C47.1023 13.6618 46.3496 14.5081 45.4095 15.0994C44.4693 15.6908 43.3805 16.0028 42.2699 15.9991ZM41.9999 6.62908C41.834 6.60595 41.6658 6.60595 41.4999 6.62908C40.9692 6.75805 40.4743 7.00478 40.0519 7.35099C39.6296 7.69721 39.2905 8.13402 39.0599 8.62908C38.7422 9.14236 38.6314 9.75718 38.7499 10.3491C38.7304 10.7936 38.81 11.2368 38.983 11.6467C39.1559 12.0566 39.4179 12.4229 39.7499 12.7191C40.4007 13.3405 41.2565 13.702 42.1557 13.7351C43.0549 13.7683 43.9351 13.4709 44.6299 12.8991C45.0126 12.568 45.3163 12.1555 45.5187 11.6917C45.7212 11.228 45.8173 10.7248 45.7999 10.2191C45.8252 9.5442 45.6483 8.87713 45.292 8.30343C44.9357 7.72972 44.4161 7.27553 43.7999 6.99908C43.2304 6.7575 42.6185 6.63172 41.9999 6.62908Z" fill="white"/>
<path fill-rule="evenodd" clip-rule="evenodd" d="M46.75 8.13124C46.2076 7.11205 45.3715 6.27938 44.35 5.74124C43.2446 5.31164 42.0356 5.22453 40.88 5.49124C40.0549 5.73205 39.3093 6.1891 38.7202 6.81505C38.1312 7.44099 37.7203 8.21306 37.53 9.05124C37.3119 9.92055 37.3395 10.8333 37.6096 11.6879C37.8798 12.5425 38.3819 13.3053 39.06 13.8912C39.6336 14.3965 40.3171 14.7612 41.0561 14.9564C41.7952 15.1515 42.5696 15.1718 43.3179 15.0155C44.0662 14.8592 44.7677 14.5308 45.367 14.0562C45.9662 13.5816 46.4466 12.9738 46.77 12.2812C47.0576 11.6563 47.1716 10.9654 47.1 10.2812C47.1928 9.54582 47.0712 8.79927 46.75 8.13124ZM45.21 13.5512C44.353 14.2694 43.2602 14.6444 42.1427 14.6037C41.0253 14.5631 39.9626 14.1097 39.16 13.3312C38.7575 12.9613 38.4393 12.509 38.2271 12.0052C38.0149 11.5013 37.9135 10.9577 37.93 10.4112C37.7993 9.673 37.9415 8.91243 38.33 8.27124C38.6196 7.67189 39.0391 7.14461 39.5581 6.72773C40.077 6.31084 40.6823 6.01484 41.33 5.86124C42.3206 5.70296 43.3358 5.83855 44.25 6.25124C45.004 6.60547 45.6372 7.17346 46.071 7.88462C46.5048 8.59578 46.7201 9.41875 46.69 10.2512C46.7026 10.8765 46.5764 11.4968 46.3205 12.0674C46.0646 12.638 45.6853 13.1448 45.21 13.5512Z" fill="white"/>
<path fill-rule="evenodd" clip-rule="evenodd" d="M41.3701 14.7019C40.4897 14.4486 39.679 13.997 39.0001 13.3819C38.8585 13.3013 38.7364 13.1906 38.6424 13.0576C38.5484 12.9246 38.4849 12.7725 38.4563 12.6122C38.4276 12.4519 38.4346 12.2872 38.4768 12.1299C38.5189 11.9726 38.5951 11.8264 38.7001 11.7019C38.7889 11.5717 38.9027 11.4605 39.0349 11.3746C39.1671 11.2888 39.315 11.2301 39.4701 11.2019C39.371 10.9513 39.371 10.6724 39.4701 10.4219C39.5422 10.2109 39.6761 10.0265 39.8545 9.89273C40.0328 9.75896 40.2474 9.682 40.4701 9.67188C40.7901 9.67188 43.4701 10.6719 43.4701 11.6719C43.4842 11.8851 43.4297 12.0972 43.3146 12.2771C43.1994 12.4571 43.0296 12.5954 42.8301 12.6719C42.8486 12.7793 42.8458 12.8894 42.8218 12.9958C42.7978 13.1022 42.753 13.2028 42.6901 13.2919C42.597 13.4354 42.4653 13.5498 42.3101 13.6219C42.3384 13.7571 42.3384 13.8967 42.3101 14.0319C42.2419 14.227 42.1149 14.3962 41.9465 14.5162C41.7782 14.6362 41.5768 14.7011 41.3701 14.7019Z" fill="white"/>
<path fill-rule="evenodd" clip-rule="evenodd" d="M42.69 11.6705C42.69 11.9705 42.42 11.9305 41.69 11.5405C41.4603 11.3845 41.2071 11.2663 40.94 11.1905C41.1162 11.4654 41.3134 11.7262 41.53 11.9705C41.86 12.3605 42.09 12.7405 42.04 12.8105C41.99 12.8805 41.65 12.8805 41.14 12.7405C40.8547 12.6516 40.5587 12.6011 40.26 12.5905C40.26 12.5905 40.5 12.8405 40.86 13.0705C41.47 13.4605 41.72 13.8505 41.36 13.8505C40.7129 13.5352 40.1026 13.1495 39.54 12.7005C39.28 12.4905 39.26 12.4205 39.42 12.2005C39.58 11.9805 39.8 11.9605 41.15 12.3605C41.35 12.4205 41.26 12.2305 40.81 11.6905C40.36 11.1505 40.22 10.8605 40.27 10.6905C40.2855 10.6378 40.3151 10.5903 40.3556 10.5533C40.3962 10.5163 40.4461 10.4911 40.5 10.4805C41.2869 10.7622 42.0255 11.1636 42.69 11.6705Z" fill="white"/>
<path fill-rule="evenodd" clip-rule="evenodd" d="M43.2301 11.5302C42.7809 11.4635 42.357 11.2808 42.0001 11.0002L41.6001 10.7702C41.4095 10.9222 41.1738 11.0066 40.9301 11.0102H40.6701L40.3801 10.8502C40.1816 10.7219 40.0415 10.5208 39.9901 10.2902C39.963 10.0282 39.988 9.76354 40.0635 9.51128C40.139 9.25902 40.2636 9.02415 40.4301 8.82016C41.0901 7.66016 41.5401 7.66016 41.7601 7.66016H41.9201L42.0701 7.72016C42.1955 7.76047 42.3111 7.8267 42.4093 7.91456C42.5075 8.00242 42.5861 8.10995 42.6401 8.23016C42.7379 8.43577 42.7625 8.6686 42.7101 8.89016L43.1401 9.14016C43.9001 9.57016 44.5601 9.94016 44.1901 10.8202C44.1277 11.026 44.0006 11.2063 43.8277 11.3342C43.6547 11.4621 43.4452 11.5308 43.2301 11.5302Z" fill="white"/>
<path fill-rule="evenodd" clip-rule="evenodd" d="M43.36 10.5792C43.29 10.7692 43.13 10.7192 42.36 10.2992C41.36 9.71921 41.36 9.70921 41.12 10.0292C41.02 10.1592 40.87 10.2292 40.78 10.1692C40.69 10.1092 40.78 9.79921 41.09 9.28921C41.4 8.77921 41.62 8.51921 41.7 8.54921C41.78 8.57921 41.85 8.69921 41.7 9.08921C41.63 9.26921 41.81 9.43921 42.45 9.79921C43.54 10.3892 43.46 10.3192 43.36 10.5792Z" fill="white"/>
<path fill-rule="evenodd" clip-rule="evenodd" d="M44.0599 10.2116C43.497 10.1409 42.9625 9.92365 42.5099 9.58156C41.7399 9.13156 40.8699 8.58156 41.0799 7.78156C41.1329 7.58766 41.2384 7.41218 41.3849 7.27453C41.5314 7.13687 41.7131 7.0424 41.9099 7.00156C41.9054 6.94165 41.9054 6.88148 41.9099 6.82156C41.899 6.67099 41.9182 6.51976 41.9663 6.37665C42.0143 6.23354 42.0903 6.1014 42.1899 5.9879C42.2894 5.8744 42.4105 5.78181 42.5461 5.71549C42.6818 5.64917 42.8292 5.61044 42.9799 5.60156C43.8568 5.95396 44.6811 6.42503 45.4299 7.00156C45.7099 7.18156 45.9799 7.55156 45.7199 8.28156C45.6668 8.45071 45.5736 8.60452 45.4482 8.72989C45.3229 8.85525 45.1691 8.94846 44.9999 9.00156V9.10156L45.0799 9.44156L44.8799 9.82156C44.7873 9.95053 44.6635 10.0539 44.5201 10.1221C44.3767 10.1903 44.2184 10.2211 44.0599 10.2116Z" fill="white"/>
<path fill-rule="evenodd" clip-rule="evenodd" d="M44.9201 8.00125C44.8401 8.21125 44.6601 8.24125 43.7601 8.20125C43.1801 8.20125 42.7601 8.20125 42.7601 8.25125C42.7601 8.30125 43.1701 8.53125 43.5501 8.76125C43.9301 8.99125 44.1901 9.24125 44.1201 9.35125C44.0501 9.46125 43.7001 9.35125 42.9001 8.88125C41.4801 8.05125 41.5101 7.82125 43.0601 7.76125H44.1701L43.4101 7.34125C42.6601 6.92125 42.5601 6.81125 42.7401 6.63125C42.7791 6.58379 42.8313 6.54899 42.8901 6.53125C42.8901 6.53125 44.8901 7.68125 44.8901 7.76125C44.8901 7.84125 45.0001 7.83125 44.9201 8.00125Z" fill="white"/>
<path fill-rule="evenodd" clip-rule="evenodd" d="M50.2701 39.3388C49.6301 39.3388 40.0801 36.4188 39.5201 36.0588C39.1503 35.7965 38.8497 35.4483 38.6441 35.0442C38.4386 34.6401 38.3342 34.1921 38.3401 33.7388C38.3401 33.1388 39.6801 25.6788 39.7401 25.3688L40.0601 23.5988C41.5201 15.5188 41.5201 15.5188 42.3701 15.5188H42.7301L43.0601 15.8388C43.8001 16.4588 43.7501 17.0188 42.1501 25.8888C41.3701 30.1988 40.8101 33.4388 40.7801 33.7688C40.8564 33.9038 40.9544 34.0254 41.0701 34.1288C41.1401 34.1288 43.0701 34.7288 45.3401 35.4188C47.4201 36.0488 48.9801 36.4788 49.5001 36.5988C50.2401 33.1888 54.5001 10.8788 54.9901 8.07878C54.5001 7.99878 53.3901 7.99878 52.6901 7.99878C49.8101 7.99878 49.4401 7.99878 49.0501 7.26878C48.9071 7.01371 48.8217 6.73039 48.8001 6.43878C48.8001 5.43878 49.6401 5.43878 52.4601 5.43878C53.5831 5.40504 54.707 5.46525 55.8201 5.61878C57.0595 6.27012 58.1152 7.22266 58.8901 8.38878C59.0794 8.77168 59.1819 9.19169 59.1901 9.61878C59.1901 9.79878 54.8201 36.2788 54.3901 37.1188C54.2323 37.4202 54.0262 37.6938 53.7801 37.9288C52.6955 38.5885 51.5096 39.0649 50.2701 39.3388Z" fill="white"/>
<path fill-rule="evenodd" clip-rule="evenodd" d="M49.6499 6.46004C49.6677 6.61578 49.7189 6.76586 49.7999 6.90004C49.9399 7.16004 50.1299 7.18004 52.6899 7.18004C54.9799 7.18004 55.4599 7.18004 55.6899 7.41004C55.8205 7.53401 55.9022 7.70084 55.9199 7.88004C55.9199 8.49004 50.3999 37.09 50.2599 37.27C50.0827 37.4076 49.8643 37.4816 49.6399 37.48C49.3999 37.48 47.3699 36.92 45.1299 36.23L40.8099 34.92C40.5826 34.8049 40.3876 34.6349 40.2427 34.4253C40.0977 34.2158 40.0074 33.9734 39.9799 33.72C39.9799 33.51 40.5999 29.92 41.3499 25.72C42.7399 18.04 42.8999 16.72 42.5199 16.45C42.1399 16.18 42.4099 15.57 40.6199 25.5C39.8499 29.72 39.2299 33.42 39.2299 33.71C39.2217 34.023 39.2871 34.3336 39.4209 34.6167C39.5546 34.8998 39.753 35.1476 39.9999 35.34C40.4399 35.63 49.7899 38.49 50.2899 38.49C51.3376 38.226 52.3461 37.8259 53.2899 37.3C53.4534 37.1369 53.5886 36.9476 53.6899 36.74C53.8899 36.34 58.3899 10.44 58.3899 9.64004C58.3781 9.34975 58.3102 9.0645 58.1899 8.80004C57.5184 7.84285 56.6487 7.04138 55.6399 6.45004C53.6482 6.24774 51.641 6.25109 49.6499 6.46004Z" fill="black"/>
<path fill-rule="evenodd" clip-rule="evenodd" d="M44.0599 10.2116C43.497 10.1409 42.9625 9.92365 42.5099 9.58156C41.7399 9.13156 40.8699 8.58156 41.0799 7.78156C41.1329 7.58766 41.2384 7.41218 41.3849 7.27453C41.5314 7.13687 41.7131 7.0424 41.9099 7.00156C41.9054 6.94165 41.9054 6.88148 41.9099 6.82156C41.899 6.67099 41.9182 6.51976 41.9663 6.37665C42.0143 6.23354 42.0903 6.1014 42.1899 5.9879C42.2894 5.8744 42.4105 5.78181 42.5461 5.71549C42.6818 5.64917 42.8292 5.61044 42.9799 5.60156C43.8568 5.95396 44.6811 6.42503 45.4299 7.00156C45.7099 7.18156 45.9799 7.55156 45.7199 8.28156C45.6668 8.45071 45.5736 8.60452 45.4482 8.72989C45.3229 8.85525 45.1691 8.94846 44.9999 9.00156V9.10156L45.0799 9.44156L44.8799 9.82156C44.7873 9.95053 44.6635 10.0539 44.5201 10.1221C44.3767 10.1903 44.2184 10.2211 44.0599 10.2116Z" fill="white"/>
<path fill-rule="evenodd" clip-rule="evenodd" d="M44.9201 8.00125C44.8401 8.21125 44.6601 8.24125 43.7601 8.20125C43.1801 8.20125 42.7601 8.20125 42.7601 8.25125C42.7601 8.30125 43.1701 8.53125 43.5501 8.76125C43.9301 8.99125 44.1901 9.24125 44.1201 9.35125C44.0501 9.46125 43.7001 9.35125 42.9001 8.88125C41.4801 8.05125 41.5101 7.82125 43.0601 7.76125H44.1701L43.4101 7.34125C42.6601 6.92125 42.5601 6.81125 42.7401 6.63125C42.7791 6.58379 42.8313 6.54899 42.8901 6.53125C42.8901 6.53125 44.8901 7.68125 44.8901 7.76125C44.8901 7.84125 45.0001 7.83125 44.9201 8.00125Z" fill="white"/>
<path fill-rule="evenodd" clip-rule="evenodd" d="M52.0001 25.5181C51.0901 25.5181 51.1601 22.7281 51.1501 22.0981C51.1501 20.8581 50.8801 15.9681 50.7201 14.2881C50.5933 12.6461 50.3155 11.0192 49.8901 9.42813C49.7411 8.98855 49.6307 8.53685 49.5601 8.07812C49.5601 7.81291 49.6654 7.55855 49.853 7.37102C50.0405 7.18348 50.2948 7.07812 50.5601 7.07812C50.6956 7.07921 50.8302 7.09941 50.9601 7.13812C51.0601 7.13812 51.7601 7.19812 52.6901 7.19812H53.6101C53.8655 7.18036 54.1217 7.21758 54.3615 7.30728C54.6013 7.39699 54.819 7.53709 55.0001 7.71812C55.6301 8.47812 55.4201 9.54812 54.5701 14.0281L54.2101 15.9081C52.8401 23.1681 52.8401 23.1781 52.5901 23.4181L52.3401 23.6681L52.0001 25.5181Z" fill="white"/>
<path fill-rule="evenodd" clip-rule="evenodd" d="M50.3701 8.07029C50.4377 8.44401 50.5347 8.81182 50.6601 9.17029C51.1026 10.8064 51.3906 12.4804 51.5201 14.1703C51.6901 15.8903 51.9601 20.7803 51.9701 22.0603C51.9701 22.4903 51.9701 22.8103 52.0301 22.7803C52.0901 22.7503 52.6901 19.5603 53.4101 15.7103C55.0101 7.27029 55.0801 8.01029 52.6501 8.01029C52.0007 8.05149 51.3491 8.04815 50.7001 8.00029C50.4801 7.90029 50.3701 7.93029 50.3701 8.07029Z" fill="black"/>
<path fill-rule="evenodd" clip-rule="evenodd" d="M43.2301 11.5302C42.7809 11.4635 42.357 11.2808 42.0001 11.0002L41.6001 10.7702C41.4095 10.9222 41.1738 11.0066 40.9301 11.0102H40.6701L40.3801 10.8502C40.1816 10.7219 40.0415 10.5208 39.9901 10.2902C39.963 10.0282 39.988 9.76354 40.0635 9.51128C40.139 9.25902 40.2636 9.02415 40.4301 8.82016C41.0901 7.66016 41.5401 7.66016 41.7601 7.66016H41.9201L42.0701 7.72016C42.1955 7.76047 42.3111 7.8267 42.4093 7.91456C42.5075 8.00242 42.5861 8.10995 42.6401 8.23016C42.7379 8.43577 42.7625 8.6686 42.7101 8.89016L43.1401 9.14016C43.9001 9.57016 44.5601 9.94016 44.1901 10.8202C44.1277 11.026 44.0006 11.2063 43.8277 11.3342C43.6547 11.4621 43.4452 11.5308 43.2301 11.5302Z" fill="white"/>
<path fill-rule="evenodd" clip-rule="evenodd" d="M43.36 10.5792C43.29 10.7692 43.13 10.7192 42.36 10.2992C41.36 9.71921 41.36 9.70921 41.12 10.0292C41.02 10.1592 40.87 10.2292 40.78 10.1692C40.69 10.1092 40.78 9.79921 41.09 9.28921C41.4 8.77921 41.62 8.51921 41.7 8.54921C41.78 8.57921 41.85 8.69921 41.7 9.08921C41.63 9.26921 41.81 9.43921 42.45 9.79921C43.54 10.3892 43.46 10.3192 43.36 10.5792Z" fill="white"/>
<path fill-rule="evenodd" clip-rule="evenodd" d="M50.1801 22.1603C49.2401 20.4503 47.0201 18.6803 43.9401 17.1603L42.3201 16.3703L42.5501 14.7603L43.1301 14.6703C43.8735 14.4855 44.5655 14.1349 45.1543 13.6448C45.7431 13.1548 46.2134 12.5379 46.5301 11.8403C46.7367 11.2781 46.8087 10.6753 46.7401 10.0803C46.7401 9.08031 46.7401 8.65031 47.0301 8.33031L47.2801 8.07031H47.6701H48.0001L48.2701 8.29031C48.8501 8.77031 50.4001 12.2203 50.6801 13.0803C51.5059 15.693 52.013 18.3959 52.1901 21.1303L52.2701 22.5803L50.6601 23.0003L50.1801 22.1603Z" fill="white"/>
<path fill-rule="evenodd" clip-rule="evenodd" d="M47.59 10.0587C47.6706 10.7661 47.5815 11.4826 47.33 12.1487C46.9686 12.9799 46.4192 13.716 45.7251 14.299C45.031 14.8821 44.2112 15.2961 43.33 15.5087L42.75 15.6087L44.37 16.4087C47.64 18.0087 49.94 19.8687 50.97 21.7487L51.46 22.6187L51.37 21.1687C51.2001 18.5094 50.7099 15.8804 49.91 13.3387C49.3238 11.7979 48.5834 10.3204 47.7 8.92866C47.59 8.83866 47.56 9.15866 47.59 10.0587Z" fill="white"/>
<path fill-rule="evenodd" clip-rule="evenodd" d="M41.3701 14.7019C40.4897 14.4486 39.679 13.997 39.0001 13.3819C38.8585 13.3013 38.7364 13.1906 38.6424 13.0576C38.5484 12.9246 38.4849 12.7725 38.4563 12.6122C38.4276 12.4519 38.4346 12.2872 38.4768 12.1299C38.5189 11.9726 38.5951 11.8264 38.7001 11.7019C38.7889 11.5717 38.9027 11.4605 39.0349 11.3746C39.1671 11.2888 39.315 11.2301 39.4701 11.2019C39.371 10.9513 39.371 10.6724 39.4701 10.4219C39.5422 10.2109 39.6761 10.0265 39.8545 9.89273C40.0328 9.75896 40.2474 9.682 40.4701 9.67188C40.7901 9.67188 43.4701 10.6719 43.4701 11.6719C43.4842 11.8851 43.4297 12.0972 43.3146 12.2771C43.1994 12.4571 43.0296 12.5954 42.8301 12.6719C42.8486 12.7793 42.8458 12.8894 42.8218 12.9958C42.7978 13.1022 42.753 13.2028 42.6901 13.2919C42.597 13.4354 42.4653 13.5498 42.3101 13.6219C42.3384 13.7571 42.3384 13.8967 42.3101 14.0319C42.2419 14.227 42.1149 14.3962 41.9465 14.5162C41.7782 14.6362 41.5768 14.7011 41.3701 14.7019Z" fill="white"/>
<path fill-rule="evenodd" clip-rule="evenodd" d="M42.69 11.6705C42.69 11.9705 42.42 11.9305 41.69 11.5405C41.4603 11.3845 41.2071 11.2663 40.94 11.1905C41.1162 11.4654 41.3134 11.7262 41.53 11.9705C41.86 12.3605 42.09 12.7405 42.04 12.8105C41.99 12.8805 41.65 12.8805 41.14 12.7405C40.8547 12.6516 40.5587 12.6011 40.26 12.5905C40.26 12.5905 40.5 12.8405 40.86 13.0705C41.47 13.4605 41.72 13.8505 41.36 13.8505C40.7129 13.5352 40.1026 13.1495 39.54 12.7005C39.28 12.4905 39.26 12.4205 39.42 12.2005C39.58 11.9805 39.8 11.9605 41.15 12.3605C41.35 12.4205 41.26 12.2305 40.81 11.6905C40.36 11.1505 40.22 10.8605 40.27 10.6905C40.2855 10.6378 40.3151 10.5903 40.3556 10.5533C40.3962 10.5163 40.4461 10.4911 40.5 10.4805C41.2869 10.7622 42.0255 11.1636 42.69 11.6705Z" fill="white"/>
<path fill-rule="evenodd" clip-rule="evenodd" d="M51 25.2694C50.8905 25.283 50.7796 25.283 50.67 25.2694L42.28 23.1294L42.56 21.8894C42.655 20.4142 42.655 18.9345 42.56 17.4594C42.4946 17.296 42.4713 17.1188 42.4923 16.944C42.5133 16.7693 42.5778 16.6026 42.68 16.4594L42.93 16.1094H43.45C43.84 16.1094 44.22 16.2794 45.53 17.0194C47.1691 17.891 48.6634 19.0109 49.96 20.3394C50.8226 21.3993 51.4743 22.6145 51.88 23.9194C51.9404 24.0954 51.9582 24.2831 51.9322 24.4674C51.9061 24.6516 51.8368 24.827 51.73 24.9794L51.47 25.2894L51 25.2694Z" fill="white"/>
<path fill-rule="evenodd" clip-rule="evenodd" d="M43.35 17.2119C43.4802 18.8193 43.4802 20.4345 43.35 22.0419L43.25 22.4719L46.92 23.4019L50.84 24.4019C51.06 24.4619 51.09 24.4019 51.01 24.0519C50.6366 22.8872 50.0499 21.8022 49.28 20.8519C48.0478 19.5935 46.6275 18.5342 45.07 17.7119C43.48 16.8019 43.2 16.7219 43.35 17.2119Z" fill="white"/>
<path fill-rule="evenodd" clip-rule="evenodd" d="M41.03 34.4398L40.25 32.8998L42.25 23.0898L52.16 24.8498L49.8 36.8798" fill="white"/>
<path fill-rule="evenodd" clip-rule="evenodd" d="M43.79 2.99938L43 3.88938L43.83 4.38937C46.8553 6.30904 49.1426 9.19539 50.32 12.5794C50.74 13.6694 50.78 13.3294 50.45 11.4594C50.0039 8.11429 48.3544 5.04632 45.81 2.82938C45.5099 2.54635 45.1736 2.30425 44.81 2.10938C44.427 2.35279 44.0831 2.65287 43.79 2.99938Z" fill="#136890"/>
<path fill-rule="evenodd" clip-rule="evenodd" d="M38.71 3.82125C38.15 4.68125 33.54 12.5713 33.51 12.7213C33.9702 12.9778 34.4766 13.1409 35 13.2013C35.81 13.3912 36.94 13.6713 37.51 13.8313L38.51 14.1213L38.13 13.6213C37.609 12.9758 37.2431 12.2194 37.0605 11.4104C36.8778 10.6013 36.8833 9.76104 37.0765 8.9544C37.2697 8.14776 37.6455 7.39623 38.1749 6.75768C38.7043 6.11913 39.3732 5.6106 40.13 5.27125C40.7709 5.03153 41.4462 4.89647 42.13 4.87125L43.36 4.79125L42.27 4.33125C41.5719 4.03687 40.8574 3.78312 40.13 3.57125L39.13 3.28125L38.71 3.82125Z" fill="#136890"/>
<path fill-rule="evenodd" clip-rule="evenodd" d="M42.69 11.6705C42.69 11.9705 42.42 11.9305 41.69 11.5405C41.4603 11.3845 41.2071 11.2663 40.94 11.1905C41.1162 11.4654 41.3134 11.7262 41.53 11.9705C41.86 12.3605 42.09 12.7405 42.04 12.8105C41.99 12.8805 41.65 12.8805 41.14 12.7405C40.8547 12.6516 40.5587 12.6011 40.26 12.5905C40.26 12.5905 40.5 12.8405 40.86 13.0705C41.47 13.4605 41.72 13.8505 41.36 13.8505C40.7129 13.5352 40.1026 13.1495 39.54 12.7005C39.28 12.4905 39.26 12.4205 39.42 12.2005C39.58 11.9805 39.8 11.9605 41.15 12.3605C41.35 12.4205 41.26 12.2305 40.81 11.6905C40.36 11.1505 40.22 10.8605 40.27 10.6905C40.2855 10.6378 40.3151 10.5903 40.3556 10.5533C40.3962 10.5163 40.4461 10.4911 40.5 10.4805C41.2869 10.7622 42.0255 11.1636 42.69 11.6705Z" fill="#136890"/>
<path fill-rule="evenodd" clip-rule="evenodd" d="M43.36 10.5792C43.29 10.7692 43.13 10.7192 42.36 10.2992C41.36 9.71921 41.36 9.70921 41.12 10.0292C41.02 10.1592 40.87 10.2292 40.78 10.1692C40.69 10.1092 40.78 9.79921 41.09 9.28921C41.4 8.77921 41.62 8.51921 41.7 8.54921C41.78 8.57921 41.85 8.69921 41.7 9.08921C41.63 9.26921 41.81 9.43921 42.45 9.79921C43.54 10.3892 43.46 10.3192 43.36 10.5792Z" fill="#136890"/>
<path fill-rule="evenodd" clip-rule="evenodd" d="M45 7.69C45 7.69 45 7.83 45 7.97C45 8.11 44.74 8.21 43.84 8.17C43.26 8.17 42.84 8.17 42.84 8.22C42.84 8.27 43.25 8.5 43.63 8.73C44.01 8.96 44.27 9.21 44.2 9.32C44.13 9.43 43.78 9.32 42.98 8.85C41.56 8.02 41.59 7.79 43.14 7.73H44.25L43.49 7.31C42.74 6.89 42.64 6.78 42.82 6.6C42.8589 6.55254 42.9112 6.51774 42.97 6.5C42.97 6.5 44.88 7.61 45 7.69Z" fill="#136890"/>
<path fill-rule="evenodd" clip-rule="evenodd" d="M42.69 11.6705C42.69 11.9705 42.42 11.9305 41.69 11.5405C41.4603 11.3845 41.2071 11.2663 40.94 11.1905C41.1162 11.4654 41.3134 11.7262 41.53 11.9705C41.86 12.3605 42.09 12.7405 42.04 12.8105C41.99 12.8805 41.65 12.8805 41.14 12.7405C40.8547 12.6516 40.5587 12.6011 40.26 12.5905C40.26 12.5905 40.5 12.8405 40.86 13.0705C41.47 13.4605 41.72 13.8505 41.36 13.8505C40.7129 13.5352 40.1026 13.1495 39.54 12.7005C39.28 12.4905 39.26 12.4205 39.42 12.2005C39.58 11.9805 39.8 11.9605 41.15 12.3605C41.35 12.4205 41.26 12.2305 40.81 11.6905C40.36 11.1505 40.22 10.8605 40.27 10.6905C40.2855 10.6378 40.3151 10.5903 40.3556 10.5533C40.3962 10.5163 40.4461 10.4911 40.5 10.4805C41.2869 10.7622 42.0255 11.1636 42.69 11.6705Z" fill="#136890"/>
<path fill-rule="evenodd" clip-rule="evenodd" d="M43.36 10.5792C43.29 10.7692 43.13 10.7192 42.36 10.2992C41.36 9.71921 41.36 9.70921 41.12 10.0292C41.02 10.1592 40.87 10.2292 40.78 10.1692C40.69 10.1092 40.78 9.79921 41.09 9.28921C41.4 8.77921 41.62 8.51921 41.7 8.54921C41.78 8.57921 41.85 8.69921 41.7 9.08921C41.63 9.26921 41.81 9.43921 42.45 9.79921C43.54 10.3892 43.46 10.3192 43.36 10.5792Z" fill="#136890"/>
<path fill-rule="evenodd" clip-rule="evenodd" d="M44.9201 8.00125C44.8401 8.21125 44.6601 8.24125 43.7601 8.20125C43.1801 8.20125 42.7601 8.20125 42.7601 8.25125C42.7601 8.30125 43.1701 8.53125 43.5501 8.76125C43.9301 8.99125 44.1901 9.24125 44.1201 9.35125C44.0501 9.46125 43.7001 9.35125 42.9001 8.88125C41.4801 8.05125 41.5101 7.82125 43.0601 7.76125H44.1701L43.4101 7.34125C42.6601 6.92125 42.5601 6.81125 42.7401 6.63125C42.7791 6.58379 42.8313 6.54899 42.8901 6.53125C42.8901 6.53125 44.8901 7.68125 44.8901 7.76125C44.8901 7.84125 45.0001 7.83125 44.9201 8.00125Z" fill="#136890"/>
<path fill-rule="evenodd" clip-rule="evenodd" d="M49.64 6.46055C49.6625 6.6152 49.7133 6.76436 49.79 6.90055C49.93 7.16055 50.12 7.18055 52.68 7.18055C54.98 7.18055 55.46 7.18055 55.68 7.41055C55.8053 7.53832 55.886 7.70319 55.91 7.88055C55.91 8.49055 50.39 37.0906 50.24 37.2706C50.0687 37.4119 49.852 37.4865 49.63 37.4806C49.39 37.4806 47.36 36.9206 45.12 36.2306L40.8 34.9206C40.5839 34.8342 40.3991 34.6842 40.27 34.4906C40.0928 34.2702 39.9849 34.0022 39.96 33.7206C39.96 33.5206 40.58 29.9206 41.34 25.7206C42.73 18.0406 42.89 16.7206 42.51 16.4506C42.13 16.1806 42.4 15.5706 40.6 25.5006C39.84 29.7206 39.21 33.4206 39.22 33.7106C39.213 34.0244 39.2799 34.3355 39.4154 34.6187C39.5509 34.9018 39.7512 35.1491 40 35.3406C40.44 35.6306 49.79 38.4906 50.29 38.4906C51.3379 38.2273 52.3465 37.8272 53.29 37.3006C53.4535 37.1374 53.5887 36.9481 53.69 36.7406C53.9 36.3406 58.4 10.4406 58.4 9.64055C58.3897 9.34892 58.3181 9.06272 58.19 8.80055C57.5184 7.84337 56.6487 7.04189 55.64 6.45055C53.645 6.24757 51.6343 6.25092 49.64 6.46055Z" fill="black"/>
<path fill-rule="evenodd" clip-rule="evenodd" d="M44.9201 8.00125C44.8401 8.21125 44.6601 8.24125 43.7601 8.20125C43.1801 8.20125 42.7601 8.20125 42.7601 8.25125C42.7601 8.30125 43.1701 8.53125 43.5501 8.76125C43.9301 8.99125 44.1901 9.24125 44.1201 9.35125C44.0501 9.46125 43.7001 9.35125 42.9001 8.88125C41.4801 8.05125 41.5101 7.82125 43.0601 7.76125H44.1701L43.4101 7.34125C42.6601 6.92125 42.5601 6.81125 42.7401 6.63125C42.7791 6.58379 42.8313 6.54899 42.8901 6.53125C42.8901 6.53125 44.8901 7.68125 44.8901 7.76125C44.8901 7.84125 45.0001 7.83125 44.9201 8.00125Z" fill="#136890"/>
<path fill-rule="evenodd" clip-rule="evenodd" d="M50.3701 8.06965C50.4377 8.44338 50.5347 8.81118 50.6601 9.16965C51.0975 10.8069 51.3853 12.4804 51.5201 14.1697C51.6901 15.8897 51.9601 20.7797 51.9601 22.0597C51.9601 22.4897 51.9601 22.8197 52.0301 22.7797C52.1001 22.7397 52.6801 19.5597 53.4101 15.7097C55.0101 7.26965 55.0801 8.00965 52.6501 8.00965C51.9822 8.02635 51.3139 7.99628 50.6501 7.91965C50.4701 7.89965 50.3701 7.92965 50.3701 8.06965Z" fill="black"/>
<path fill-rule="evenodd" clip-rule="evenodd" d="M43.36 10.5792C43.29 10.7692 43.13 10.7192 42.36 10.2992C41.36 9.71921 41.36 9.70921 41.12 10.0292C41.02 10.1592 40.87 10.2292 40.78 10.1692C40.69 10.1092 40.78 9.79921 41.09 9.28921C41.4 8.77921 41.62 8.51921 41.7 8.54921C41.78 8.57921 41.85 8.69921 41.7 9.08921C41.63 9.26921 41.81 9.43921 42.45 9.79921C43.54 10.3892 43.46 10.3192 43.36 10.5792Z" fill="#136890"/>
<path fill-rule="evenodd" clip-rule="evenodd" d="M47.59 10.0587C47.6629 10.7668 47.5705 11.4823 47.32 12.1487C46.9612 12.9817 46.4126 13.7193 45.7182 14.3027C45.0237 14.886 44.2024 15.299 43.32 15.5087L42.74 15.6087L44.36 16.4087C47.64 18.0087 49.93 19.8687 50.97 21.7487L51.45 22.6187L51.37 21.1687C51.2016 18.5084 50.708 15.8788 49.9 13.3387C49.3166 11.7985 48.5795 10.3211 47.7 8.92866C47.59 8.83866 47.55 9.15866 47.59 10.0587Z" fill="#136890"/>
<path fill-rule="evenodd" clip-rule="evenodd" d="M42.69 11.6705C42.69 11.9705 42.42 11.9305 41.69 11.5405C41.4603 11.3845 41.2071 11.2663 40.94 11.1905C41.1162 11.4654 41.3134 11.7262 41.53 11.9705C41.86 12.3605 42.09 12.7405 42.04 12.8105C41.99 12.8805 41.65 12.8805 41.14 12.7405C40.8547 12.6516 40.5587 12.6011 40.26 12.5905C40.26 12.5905 40.5 12.8405 40.86 13.0705C41.47 13.4605 41.72 13.8505 41.36 13.8505C40.7129 13.5352 40.1026 13.1495 39.54 12.7005C39.28 12.4905 39.26 12.4205 39.42 12.2005C39.58 11.9805 39.8 11.9605 41.15 12.3605C41.35 12.4205 41.26 12.2305 40.81 11.6905C40.36 11.1505 40.22 10.8605 40.27 10.6905C40.2855 10.6378 40.3151 10.5903 40.3556 10.5533C40.3962 10.5163 40.4461 10.4911 40.5 10.4805C41.2869 10.7622 42.0255 11.1636 42.69 11.6705Z" fill="#136890"/>
<path fill-rule="evenodd" clip-rule="evenodd" d="M43.35 17.2119C43.4802 18.8193 43.4802 20.4345 43.35 22.0419L43.25 22.4719L46.91 23.4019L50.84 24.4019C51.06 24.4619 51.08 24.4019 51.01 24.0519C50.6326 22.889 50.0463 21.8046 49.28 20.8519C48.0453 19.5964 46.6255 18.5374 45.07 17.7119C43.47 16.8019 43.19 16.7219 43.35 17.2119Z" fill="#E61C29"/>
<path fill-rule="evenodd" clip-rule="evenodd" d="M42.41 25.0002C42.1469 25.5161 42.0862 26.1118 42.24 26.6702C43.2116 27.1126 44.2549 27.3768 45.32 27.4502C45.45 27.4002 45.61 27.0402 45.69 26.6202C45.89 25.6202 45.69 25.4202 44.1 25.0402C42.51 24.6602 42.59 24.6502 42.41 25.0002Z" fill="#303030"/>
<path fill-rule="evenodd" clip-rule="evenodd" d="M47.4199 26.2282C47.1365 26.7504 47.0278 27.3497 47.1099 27.9382C48.0074 28.4345 48.9919 28.7536 50.0099 28.8782C50.5699 28.9682 50.7199 28.7682 50.8699 27.7582C50.9999 26.9082 50.8699 26.8182 49.1799 26.3782C47.4899 25.9382 47.6899 25.9982 47.4199 26.2282Z" fill="#303030"/>
<path fill-rule="evenodd" clip-rule="evenodd" d="M41.7399 27.9383C41.7399 28.0383 41.6199 28.4083 41.5399 28.7483C41.3599 29.5983 41.5399 29.7483 43.1899 30.2183C44.8399 30.6883 44.8799 30.5683 45.0599 29.5083C45.2399 28.4483 45.1199 28.4483 43.5999 28.0583C42.2399 27.7183 41.8299 27.6883 41.7399 27.9383Z" fill="#303030"/>
<path fill-rule="evenodd" clip-rule="evenodd" d="M46.7601 29.2716C46.4656 29.7976 46.38 30.4152 46.5201 31.0016C47.541 31.5333 48.6614 31.8466 49.8101 31.9216C50.0011 31.6435 50.1187 31.3217 50.1519 30.986C50.1851 30.6503 50.1329 30.3116 50.0001 30.0016C49.0218 29.6335 48.0194 29.3328 47.0001 29.1016C46.907 29.1371 46.8244 29.1955 46.7601 29.2716Z" fill="#303030"/>
<path fill-rule="evenodd" clip-rule="evenodd" d="M41.2801 30.7809C40.9395 31.326 40.8147 31.9786 40.9301 32.6109C41.908 33.0874 42.9595 33.3951 44.0401 33.5209C44.2254 33.2581 44.3554 32.9604 44.4225 32.6459C44.4895 32.3313 44.4921 32.0065 44.4301 31.6909C44.3201 31.4809 43.4301 31.1609 41.6701 30.6909C41.6024 30.6794 41.533 30.6815 41.4661 30.6969C41.3991 30.7124 41.3359 30.7409 41.2801 30.7809Z" fill="#303030"/>
<path fill-rule="evenodd" clip-rule="evenodd" d="M46.17 32.3911C46.0019 32.6407 45.8876 32.9225 45.8342 33.2186C45.7808 33.5147 45.7896 33.8186 45.86 34.1111C46.8708 34.7134 48.0147 35.0569 49.19 35.1111C49.389 34.8436 49.518 34.5305 49.5651 34.2004C49.6123 33.8704 49.5761 33.5337 49.46 33.2211C48.9468 32.9503 48.4029 32.7421 47.84 32.6011C46.49 32.1611 46.42 32.1511 46.17 32.3911Z" fill="#303030"/>
<path fill-rule="evenodd" clip-rule="evenodd" d="M38.47 11.7514L39.35 11.6414L42.3 6.62141L41.24 6.44141L38.73 8.00141L38.47 11.7514Z" fill="white"/>
<path fill-rule="evenodd" clip-rule="evenodd" d="M42.3501 14.0081L42.4801 12.7381L45.3001 8.32812L46.4101 9.07812L45.3001 12.9681L42.3501 14.0081Z" fill="white"/>
<path d="M42.2899 14.8606C44.836 14.8606 46.8999 12.7967 46.8999 10.2506C46.8999 7.70459 44.836 5.64062 42.2899 5.64062C39.7439 5.64062 37.6799 7.70459 37.6799 10.2506C37.6799 12.7967 39.7439 14.8606 42.2899 14.8606Z" stroke="#136890" stroke-width="0.5" stroke-miterlimit="10"/>
</svg>
