<svg width="384" height="290" viewBox="0 0 384 290" fill="none" xmlns="http://www.w3.org/2000/svg">
<g clip-path="url(#clip0)">
<path d="M0 8C0 5.19974 0 3.79961 0.544967 2.73005C1.02433 1.78924 1.78924 1.02433 2.73005 0.544967C3.79961 0 5.19974 0 8 0H376C378.8 0 380.2 0 381.27 0.544967C382.211 1.02433 382.976 1.78924 383.455 2.73005C384 3.79961 384 5.19974 384 8V290H0V8Z" fill="#F4FAFB"/>
<mask id="mask0" mask-type="alpha" maskUnits="userSpaceOnUse" x="-374" y="-169" width="1133" height="538">
<rect x="456.604" y="62.5566" width="106.19" height="106.19" transform="rotate(45 456.604 62.5566)" stroke="#219BB2" stroke-width="0.186626"/>
<rect x="305.529" y="62.5566" width="106.19" height="106.19" transform="rotate(45 305.529 62.5566)" stroke="#219BB2" stroke-width="0.186626"/>
<rect x="305.529" y="65.1694" width="102.458" height="102.458" transform="rotate(45 305.529 65.1694)" stroke="#219BB2" stroke-width="0.186626"/>
<rect x="305.529" y="67.7823" width="98.7254" height="98.7254" transform="rotate(45 305.529 67.7823)" stroke="#219BB2" stroke-width="0.186626"/>
<rect x="305.529" y="70.5817" width="94.9929" height="94.9929" transform="rotate(45 305.529 70.5817)" stroke="#219BB2" stroke-width="0.186626"/>
<rect x="305.529" y="73.1945" width="91.2603" height="91.2603" transform="rotate(45 305.529 73.1945)" stroke="#219BB2" stroke-width="0.186626"/>
<rect x="305.529" y="75.8073" width="87.5278" height="87.5278" transform="rotate(45 305.529 75.8073)" stroke="#219BB2" stroke-width="0.186626"/>
<rect x="305.529" y="78.4199" width="83.7953" height="83.7953" transform="rotate(45 305.529 78.4199)" stroke="#219BB2" stroke-width="0.186626"/>
<rect x="305.529" y="81.0327" width="80.0628" height="80.0628" transform="rotate(45 305.529 81.0327)" stroke="#219BB2" stroke-width="0.186626"/>
<rect x="305.529" y="83.6456" width="76.3302" height="76.3302" transform="rotate(45 305.529 83.6456)" stroke="#219BB2" stroke-width="0.186626"/>
<rect x="305.529" y="86.2582" width="72.5977" height="72.5977" transform="rotate(45 305.529 86.2582)" stroke="#219BB2" stroke-width="0.186626"/>
<rect x="305.529" y="89.0575" width="68.8652" height="68.8652" transform="rotate(45 305.529 89.0575)" stroke="#219BB2" stroke-width="0.186626"/>
<rect x="305.529" y="91.6705" width="65.1326" height="65.1326" transform="rotate(45 305.529 91.6705)" stroke="#219BB2" stroke-width="0.186626"/>
<rect x="305.529" y="94.2832" width="61.4001" height="61.4001" transform="rotate(45 305.529 94.2832)" stroke="#219BB2" stroke-width="0.186626"/>
<rect x="305.529" y="96.896" width="57.6676" height="57.6676" transform="rotate(45 305.529 96.896)" stroke="#219BB2" stroke-width="0.186626"/>
<rect x="305.529" y="99.5087" width="53.935" height="53.935" transform="rotate(45 305.529 99.5087)" stroke="#219BB2" stroke-width="0.186626"/>
<rect x="305.529" y="102.121" width="50.2025" height="50.2025" transform="rotate(45 305.529 102.121)" stroke="#219BB2" stroke-width="0.186626"/>
<rect x="305.529" y="104.734" width="46.47" height="46.47" transform="rotate(45 305.529 104.734)" stroke="#219BB2" stroke-width="0.186626"/>
<rect x="305.529" y="107.534" width="42.7375" height="42.7375" transform="rotate(45 305.529 107.534)" stroke="#219BB2" stroke-width="0.186626"/>
<rect x="305.529" y="110.146" width="39.0049" height="39.0049" transform="rotate(45 305.529 110.146)" stroke="#219BB2" stroke-width="0.186626"/>
<rect x="305.529" y="112.759" width="35.2724" height="35.2724" transform="rotate(45 305.529 112.759)" stroke="#219BB2" stroke-width="0.186626"/>
<rect x="305.529" y="115.372" width="31.5399" height="31.5399" transform="rotate(45 305.529 115.372)" stroke="#219BB2" stroke-width="0.186626"/>
<rect x="305.529" y="117.985" width="27.8073" height="27.8073" transform="rotate(45 305.529 117.985)" stroke="#219BB2" stroke-width="0.186626"/>
<rect x="305.529" y="120.598" width="24.0748" height="24.0748" transform="rotate(45 305.529 120.598)" stroke="#219BB2" stroke-width="0.186626"/>
<rect x="305.529" y="123.21" width="20.3423" height="20.3423" transform="rotate(45 305.529 123.21)" stroke="#219BB2" stroke-width="0.186626"/>
<rect x="305.529" y="126.01" width="16.6098" height="16.6098" transform="rotate(45 305.529 126.01)" stroke="#219BB2" stroke-width="0.186626"/>
<rect x="305.529" y="128.623" width="12.8772" height="12.8772" transform="rotate(45 305.529 128.623)" stroke="#219BB2" stroke-width="0.186626"/>
<rect x="305.529" y="131.235" width="9.1447" height="9.1447" transform="rotate(45 305.529 131.235)" stroke="#219BB2" stroke-width="0.186626"/>
<rect x="305.529" y="133.848" width="5.41217" height="5.41217" transform="rotate(45 305.529 133.848)" stroke="#219BB2" stroke-width="0.186626"/>
<rect x="155.016" y="62.5567" width="106.19" height="106.19" transform="rotate(45 155.016 62.5567)" stroke="#219BB2" stroke-width="0.186626"/>
<rect x="155.016" y="65.1694" width="102.458" height="102.458" transform="rotate(45 155.016 65.1694)" stroke="#219BB2" stroke-width="0.186626"/>
<rect x="155.016" y="67.7823" width="98.7254" height="98.7254" transform="rotate(45 155.016 67.7823)" stroke="#219BB2" stroke-width="0.186626"/>
<rect x="155.016" y="70.5817" width="94.9929" height="94.9929" transform="rotate(45 155.016 70.5817)" stroke="#219BB2" stroke-width="0.186626"/>
<rect x="155.016" y="73.1945" width="91.2603" height="91.2603" transform="rotate(45 155.016 73.1945)" stroke="#219BB2" stroke-width="0.186626"/>
<rect x="155.016" y="75.8073" width="87.5278" height="87.5278" transform="rotate(45 155.016 75.8073)" stroke="#219BB2" stroke-width="0.186626"/>
<rect x="155.016" y="78.4199" width="83.7953" height="83.7953" transform="rotate(45 155.016 78.4199)" stroke="#219BB2" stroke-width="0.186626"/>
<rect x="155.016" y="81.0327" width="80.0628" height="80.0628" transform="rotate(45 155.016 81.0327)" stroke="#219BB2" stroke-width="0.186626"/>
<rect x="155.016" y="83.6457" width="76.3302" height="76.3302" transform="rotate(45 155.016 83.6457)" stroke="#219BB2" stroke-width="0.186626"/>
<rect x="155.016" y="86.2583" width="72.5977" height="72.5977" transform="rotate(45 155.016 86.2583)" stroke="#219BB2" stroke-width="0.186626"/>
<rect x="155.016" y="89.0576" width="68.8652" height="68.8652" transform="rotate(45 155.016 89.0576)" stroke="#219BB2" stroke-width="0.186626"/>
<rect x="155.016" y="91.6705" width="65.1326" height="65.1326" transform="rotate(45 155.016 91.6705)" stroke="#219BB2" stroke-width="0.186626"/>
<rect x="155.016" y="94.2833" width="61.4001" height="61.4001" transform="rotate(45 155.016 94.2833)" stroke="#219BB2" stroke-width="0.186626"/>
<rect x="155.016" y="96.8959" width="57.6676" height="57.6676" transform="rotate(45 155.016 96.8959)" stroke="#219BB2" stroke-width="0.186626"/>
<rect x="155.016" y="99.5087" width="53.935" height="53.935" transform="rotate(45 155.016 99.5087)" stroke="#219BB2" stroke-width="0.186626"/>
<rect x="155.016" y="102.121" width="50.2025" height="50.2025" transform="rotate(45 155.016 102.121)" stroke="#219BB2" stroke-width="0.186626"/>
<rect x="155.016" y="104.734" width="46.47" height="46.47" transform="rotate(45 155.016 104.734)" stroke="#219BB2" stroke-width="0.186626"/>
<rect x="155.016" y="107.534" width="42.7375" height="42.7375" transform="rotate(45 155.016 107.534)" stroke="#219BB2" stroke-width="0.186626"/>
<rect x="155.016" y="110.146" width="39.0049" height="39.0049" transform="rotate(45 155.016 110.146)" stroke="#219BB2" stroke-width="0.186626"/>
<rect x="155.016" y="112.759" width="35.2724" height="35.2724" transform="rotate(45 155.016 112.759)" stroke="#219BB2" stroke-width="0.186626"/>
<rect x="155.016" y="115.372" width="31.5399" height="31.5399" transform="rotate(45 155.016 115.372)" stroke="#219BB2" stroke-width="0.186626"/>
<rect x="155.016" y="117.985" width="27.8073" height="27.8073" transform="rotate(45 155.016 117.985)" stroke="#219BB2" stroke-width="0.186626"/>
<rect x="155.016" y="120.598" width="24.0748" height="24.0748" transform="rotate(45 155.016 120.598)" stroke="#219BB2" stroke-width="0.186626"/>
<rect x="155.016" y="123.21" width="20.3423" height="20.3423" transform="rotate(45 155.016 123.21)" stroke="#219BB2" stroke-width="0.186626"/>
<rect x="155.016" y="126.01" width="16.6098" height="16.6098" transform="rotate(45 155.016 126.01)" stroke="#219BB2" stroke-width="0.186626"/>
<rect x="155.016" y="128.623" width="12.8772" height="12.8772" transform="rotate(45 155.016 128.623)" stroke="#219BB2" stroke-width="0.186626"/>
<rect x="155.016" y="131.235" width="9.1447" height="9.1447" transform="rotate(45 155.016 131.235)" stroke="#219BB2" stroke-width="0.186626"/>
<rect x="155.016" y="133.848" width="5.41217" height="5.41217" transform="rotate(45 155.016 133.848)" stroke="#219BB2" stroke-width="0.186626"/>
<rect x="3.93945" y="62.5566" width="106.19" height="106.19" transform="rotate(45 3.93945 62.5566)" stroke="#219BB2" stroke-width="0.186626"/>
<rect x="3.93945" y="65.1694" width="102.458" height="102.458" transform="rotate(45 3.93945 65.1694)" stroke="#219BB2" stroke-width="0.186626"/>
<rect x="3.93945" y="67.7822" width="98.7254" height="98.7254" transform="rotate(45 3.93945 67.7822)" stroke="#219BB2" stroke-width="0.186626"/>
<rect x="3.93945" y="70.5817" width="94.9929" height="94.9929" transform="rotate(45 3.93945 70.5817)" stroke="#219BB2" stroke-width="0.186626"/>
<rect x="3.93945" y="73.1945" width="91.2603" height="91.2603" transform="rotate(45 3.93945 73.1945)" stroke="#219BB2" stroke-width="0.186626"/>
<rect x="3.93945" y="75.8073" width="87.5278" height="87.5278" transform="rotate(45 3.93945 75.8073)" stroke="#219BB2" stroke-width="0.186626"/>
<rect x="3.93945" y="78.4199" width="83.7953" height="83.7953" transform="rotate(45 3.93945 78.4199)" stroke="#219BB2" stroke-width="0.186626"/>
<rect x="3.93945" y="81.0327" width="80.0628" height="80.0628" transform="rotate(45 3.93945 81.0327)" stroke="#219BB2" stroke-width="0.186626"/>
<rect x="3.93945" y="83.6456" width="76.3302" height="76.3302" transform="rotate(45 3.93945 83.6456)" stroke="#219BB2" stroke-width="0.186626"/>
<rect x="3.93945" y="86.2582" width="72.5977" height="72.5977" transform="rotate(45 3.93945 86.2582)" stroke="#219BB2" stroke-width="0.186626"/>
<rect x="3.93945" y="89.0575" width="68.8652" height="68.8652" transform="rotate(45 3.93945 89.0575)" stroke="#219BB2" stroke-width="0.186626"/>
<rect x="3.93945" y="91.6704" width="65.1326" height="65.1326" transform="rotate(45 3.93945 91.6704)" stroke="#219BB2" stroke-width="0.186626"/>
<rect x="3.93945" y="94.2832" width="61.4001" height="61.4001" transform="rotate(45 3.93945 94.2832)" stroke="#219BB2" stroke-width="0.186626"/>
<rect x="3.93945" y="96.8959" width="57.6676" height="57.6676" transform="rotate(45 3.93945 96.8959)" stroke="#219BB2" stroke-width="0.186626"/>
<rect x="3.93945" y="99.5087" width="53.935" height="53.935" transform="rotate(45 3.93945 99.5087)" stroke="#219BB2" stroke-width="0.186626"/>
<rect x="3.93945" y="102.121" width="50.2025" height="50.2025" transform="rotate(45 3.93945 102.121)" stroke="#219BB2" stroke-width="0.186626"/>
<rect x="3.93945" y="104.734" width="46.47" height="46.47" transform="rotate(45 3.93945 104.734)" stroke="#219BB2" stroke-width="0.186626"/>
<rect x="3.93945" y="107.534" width="42.7375" height="42.7375" transform="rotate(45 3.93945 107.534)" stroke="#219BB2" stroke-width="0.186626"/>
<rect x="3.93945" y="110.146" width="39.0049" height="39.0049" transform="rotate(45 3.93945 110.146)" stroke="#219BB2" stroke-width="0.186626"/>
<rect x="3.93945" y="112.759" width="35.2724" height="35.2724" transform="rotate(45 3.93945 112.759)" stroke="#219BB2" stroke-width="0.186626"/>
<rect x="3.93945" y="115.372" width="31.5399" height="31.5399" transform="rotate(45 3.93945 115.372)" stroke="#219BB2" stroke-width="0.186626"/>
<rect x="3.93945" y="117.985" width="27.8073" height="27.8073" transform="rotate(45 3.93945 117.985)" stroke="#219BB2" stroke-width="0.186626"/>
<rect x="3.93945" y="120.598" width="24.0748" height="24.0748" transform="rotate(45 3.93945 120.598)" stroke="#219BB2" stroke-width="0.186626"/>
<rect x="3.93945" y="123.21" width="20.3423" height="20.3423" transform="rotate(45 3.93945 123.21)" stroke="#219BB2" stroke-width="0.186626"/>
<rect x="3.93945" y="126.01" width="16.6098" height="16.6098" transform="rotate(45 3.93945 126.01)" stroke="#219BB2" stroke-width="0.186626"/>
<rect x="3.93945" y="128.622" width="12.8772" height="12.8772" transform="rotate(45 3.93945 128.622)" stroke="#219BB2" stroke-width="0.186626"/>
<rect x="3.93945" y="131.235" width="9.1447" height="9.1447" transform="rotate(45 3.93945 131.235)" stroke="#219BB2" stroke-width="0.186626"/>
<rect x="3.93945" y="133.848" width="5.41217" height="5.41217" transform="rotate(45 3.93945 133.848)" stroke="#219BB2" stroke-width="0.186626"/>
<rect x="-71.3164" y="140.641" width="106.19" height="106.19" transform="rotate(45 -71.3164 140.641)" stroke="#219BB2" stroke-width="0.186626"/>
<rect x="-71.3164" y="143.254" width="102.458" height="102.458" transform="rotate(45 -71.3164 143.254)" stroke="#219BB2" stroke-width="0.186626"/>
<rect x="79.7617" y="140.641" width="106.19" height="106.19" transform="rotate(45 79.7617 140.641)" stroke="#219BB2" stroke-width="0.186626"/>
<rect x="79.7617" y="143.254" width="102.458" height="102.458" transform="rotate(45 79.7617 143.254)" stroke="#219BB2" stroke-width="0.186626"/>
<rect x="79.7617" y="145.867" width="98.7254" height="98.7254" transform="rotate(45 79.7617 145.867)" stroke="#219BB2" stroke-width="0.186626"/>
<rect x="79.7617" y="148.666" width="94.9929" height="94.9929" transform="rotate(45 79.7617 148.666)" stroke="#219BB2" stroke-width="0.186626"/>
<rect x="79.7617" y="151.279" width="91.2603" height="91.2603" transform="rotate(45 79.7617 151.279)" stroke="#219BB2" stroke-width="0.186626"/>
<rect x="79.7617" y="153.892" width="87.5278" height="87.5278" transform="rotate(45 79.7617 153.892)" stroke="#219BB2" stroke-width="0.186626"/>
<rect x="79.7617" y="156.505" width="83.7953" height="83.7953" transform="rotate(45 79.7617 156.505)" stroke="#219BB2" stroke-width="0.186626"/>
<rect x="79.7617" y="159.117" width="80.0628" height="80.0628" transform="rotate(45 79.7617 159.117)" stroke="#219BB2" stroke-width="0.186626"/>
<rect x="79.7617" y="161.73" width="76.3302" height="76.3302" transform="rotate(45 79.7617 161.73)" stroke="#219BB2" stroke-width="0.186626"/>
<rect x="79.7617" y="164.343" width="72.5977" height="72.5977" transform="rotate(45 79.7617 164.343)" stroke="#219BB2" stroke-width="0.186626"/>
<rect x="79.7617" y="167.142" width="68.8652" height="68.8652" transform="rotate(45 79.7617 167.142)" stroke="#219BB2" stroke-width="0.186626"/>
<rect x="79.7617" y="169.755" width="65.1326" height="65.1326" transform="rotate(45 79.7617 169.755)" stroke="#219BB2" stroke-width="0.186626"/>
<rect x="79.7617" y="172.368" width="61.4001" height="61.4001" transform="rotate(45 79.7617 172.368)" stroke="#219BB2" stroke-width="0.186626"/>
<rect x="79.7617" y="174.981" width="57.6676" height="57.6676" transform="rotate(45 79.7617 174.981)" stroke="#219BB2" stroke-width="0.186626"/>
<rect x="79.7617" y="177.593" width="53.935" height="53.935" transform="rotate(45 79.7617 177.593)" stroke="#219BB2" stroke-width="0.186626"/>
<rect x="79.7617" y="180.206" width="50.2025" height="50.2025" transform="rotate(45 79.7617 180.206)" stroke="#219BB2" stroke-width="0.186626"/>
<rect x="79.7617" y="182.819" width="46.47" height="46.47" transform="rotate(45 79.7617 182.819)" stroke="#219BB2" stroke-width="0.186626"/>
<rect x="79.7617" y="185.618" width="42.7375" height="42.7375" transform="rotate(45 79.7617 185.618)" stroke="#219BB2" stroke-width="0.186626"/>
<rect x="79.7617" y="188.231" width="39.0049" height="39.0049" transform="rotate(45 79.7617 188.231)" stroke="#219BB2" stroke-width="0.186626"/>
<rect x="79.7617" y="190.844" width="35.2724" height="35.2724" transform="rotate(45 79.7617 190.844)" stroke="#219BB2" stroke-width="0.186626"/>
<rect x="79.7617" y="193.457" width="31.5399" height="31.5399" transform="rotate(45 79.7617 193.457)" stroke="#219BB2" stroke-width="0.186626"/>
<rect x="79.7617" y="196.069" width="27.8073" height="27.8073" transform="rotate(45 79.7617 196.069)" stroke="#219BB2" stroke-width="0.186626"/>
<rect x="79.7617" y="198.682" width="24.0748" height="24.0748" transform="rotate(45 79.7617 198.682)" stroke="#219BB2" stroke-width="0.186626"/>
<rect x="79.7617" y="201.295" width="20.3423" height="20.3423" transform="rotate(45 79.7617 201.295)" stroke="#219BB2" stroke-width="0.186626"/>
<rect x="79.7617" y="204.094" width="16.6098" height="16.6098" transform="rotate(45 79.7617 204.094)" stroke="#219BB2" stroke-width="0.186626"/>
<rect x="79.7617" y="206.707" width="12.8772" height="12.8772" transform="rotate(45 79.7617 206.707)" stroke="#219BB2" stroke-width="0.186626"/>
<rect x="79.7617" y="209.32" width="9.1447" height="9.1447" transform="rotate(45 79.7617 209.32)" stroke="#219BB2" stroke-width="0.186626"/>
<rect x="79.7617" y="211.933" width="5.41217" height="5.41217" transform="rotate(45 79.7617 211.933)" stroke="#219BB2" stroke-width="0.186626"/>
<rect x="230.836" y="140.641" width="106.19" height="106.19" transform="rotate(45 230.836 140.641)" stroke="#219BB2" stroke-width="0.186626"/>
<rect x="230.836" y="143.254" width="102.458" height="102.458" transform="rotate(45 230.836 143.254)" stroke="#219BB2" stroke-width="0.186626"/>
<rect x="230.836" y="145.867" width="98.7254" height="98.7254" transform="rotate(45 230.836 145.867)" stroke="#219BB2" stroke-width="0.186626"/>
<rect x="230.836" y="148.666" width="94.9929" height="94.9929" transform="rotate(45 230.836 148.666)" stroke="#219BB2" stroke-width="0.186626"/>
<rect x="230.836" y="151.279" width="91.2603" height="91.2603" transform="rotate(45 230.836 151.279)" stroke="#219BB2" stroke-width="0.186626"/>
<rect x="230.836" y="153.892" width="87.5278" height="87.5278" transform="rotate(45 230.836 153.892)" stroke="#219BB2" stroke-width="0.186626"/>
<rect x="230.836" y="156.505" width="83.7953" height="83.7953" transform="rotate(45 230.836 156.505)" stroke="#219BB2" stroke-width="0.186626"/>
<rect x="230.836" y="159.117" width="80.0628" height="80.0628" transform="rotate(45 230.836 159.117)" stroke="#219BB2" stroke-width="0.186626"/>
<rect x="230.836" y="161.73" width="76.3302" height="76.3302" transform="rotate(45 230.836 161.73)" stroke="#219BB2" stroke-width="0.186626"/>
<rect x="230.836" y="164.343" width="72.5977" height="72.5977" transform="rotate(45 230.836 164.343)" stroke="#219BB2" stroke-width="0.186626"/>
<rect x="230.836" y="167.142" width="68.8652" height="68.8652" transform="rotate(45 230.836 167.142)" stroke="#219BB2" stroke-width="0.186626"/>
<rect x="230.836" y="169.755" width="65.1326" height="65.1326" transform="rotate(45 230.836 169.755)" stroke="#219BB2" stroke-width="0.186626"/>
<rect x="230.836" y="172.368" width="61.4001" height="61.4001" transform="rotate(45 230.836 172.368)" stroke="#219BB2" stroke-width="0.186626"/>
<rect x="230.836" y="174.981" width="57.6676" height="57.6676" transform="rotate(45 230.836 174.981)" stroke="#219BB2" stroke-width="0.186626"/>
<rect x="230.836" y="177.593" width="53.935" height="53.935" transform="rotate(45 230.836 177.593)" stroke="#219BB2" stroke-width="0.186626"/>
<rect x="230.836" y="180.206" width="50.2025" height="50.2025" transform="rotate(45 230.836 180.206)" stroke="#219BB2" stroke-width="0.186626"/>
<rect x="230.836" y="182.819" width="46.47" height="46.47" transform="rotate(45 230.836 182.819)" stroke="#219BB2" stroke-width="0.186626"/>
<rect x="230.836" y="185.618" width="42.7375" height="42.7375" transform="rotate(45 230.836 185.618)" stroke="#219BB2" stroke-width="0.186626"/>
<rect x="230.836" y="188.231" width="39.0049" height="39.0049" transform="rotate(45 230.836 188.231)" stroke="#219BB2" stroke-width="0.186626"/>
<rect x="230.836" y="190.844" width="35.2724" height="35.2724" transform="rotate(45 230.836 190.844)" stroke="#219BB2" stroke-width="0.186626"/>
<rect x="230.836" y="193.457" width="31.5399" height="31.5399" transform="rotate(45 230.836 193.457)" stroke="#219BB2" stroke-width="0.186626"/>
<rect x="230.836" y="196.069" width="27.8073" height="27.8073" transform="rotate(45 230.836 196.069)" stroke="#219BB2" stroke-width="0.186626"/>
<rect x="230.836" y="198.682" width="24.0748" height="24.0748" transform="rotate(45 230.836 198.682)" stroke="#219BB2" stroke-width="0.186626"/>
<rect x="230.836" y="201.295" width="20.3423" height="20.3423" transform="rotate(45 230.836 201.295)" stroke="#219BB2" stroke-width="0.186626"/>
<rect x="230.836" y="204.094" width="16.6098" height="16.6098" transform="rotate(45 230.836 204.094)" stroke="#219BB2" stroke-width="0.186626"/>
<rect x="230.836" y="206.707" width="12.8772" height="12.8772" transform="rotate(45 230.836 206.707)" stroke="#219BB2" stroke-width="0.186626"/>
<rect x="230.836" y="209.32" width="9.1447" height="9.1447" transform="rotate(45 230.836 209.32)" stroke="#219BB2" stroke-width="0.186626"/>
<rect x="230.836" y="211.933" width="5.41217" height="5.41217" transform="rotate(45 230.836 211.933)" stroke="#219BB2" stroke-width="0.186626"/>
<rect x="381.35" y="140.641" width="106.19" height="106.19" transform="rotate(45 381.35 140.641)" stroke="#219BB2" stroke-width="0.186626"/>
<rect x="381.35" y="143.254" width="102.458" height="102.458" transform="rotate(45 381.35 143.254)" stroke="#219BB2" stroke-width="0.186626"/>
<rect x="381.35" y="145.867" width="98.7254" height="98.7254" transform="rotate(45 381.35 145.867)" stroke="#219BB2" stroke-width="0.186626"/>
<rect x="381.35" y="148.666" width="94.9929" height="94.9929" transform="rotate(45 381.35 148.666)" stroke="#219BB2" stroke-width="0.186626"/>
<rect x="381.35" y="151.279" width="91.2603" height="91.2603" transform="rotate(45 381.35 151.279)" stroke="#219BB2" stroke-width="0.186626"/>
<rect x="381.35" y="153.892" width="87.5278" height="87.5278" transform="rotate(45 381.35 153.892)" stroke="#219BB2" stroke-width="0.186626"/>
<rect x="381.35" y="156.505" width="83.7953" height="83.7953" transform="rotate(45 381.35 156.505)" stroke="#219BB2" stroke-width="0.186626"/>
<rect x="381.35" y="159.117" width="80.0628" height="80.0628" transform="rotate(45 381.35 159.117)" stroke="#219BB2" stroke-width="0.186626"/>
<rect x="381.35" y="161.73" width="76.3302" height="76.3302" transform="rotate(45 381.35 161.73)" stroke="#219BB2" stroke-width="0.186626"/>
<rect x="381.35" y="164.343" width="72.5977" height="72.5977" transform="rotate(45 381.35 164.343)" stroke="#219BB2" stroke-width="0.186626"/>
<rect x="381.35" y="167.142" width="68.8652" height="68.8652" transform="rotate(45 381.35 167.142)" stroke="#219BB2" stroke-width="0.186626"/>
<rect x="381.35" y="169.755" width="65.1326" height="65.1326" transform="rotate(45 381.35 169.755)" stroke="#219BB2" stroke-width="0.186626"/>
<rect x="381.35" y="172.368" width="61.4001" height="61.4001" transform="rotate(45 381.35 172.368)" stroke="#219BB2" stroke-width="0.186626"/>
<rect x="381.35" y="174.981" width="57.6676" height="57.6676" transform="rotate(45 381.35 174.981)" stroke="#219BB2" stroke-width="0.186626"/>
<rect x="381.35" y="177.593" width="53.935" height="53.935" transform="rotate(45 381.35 177.593)" stroke="#219BB2" stroke-width="0.186626"/>
<rect x="381.35" y="180.206" width="50.2025" height="50.2025" transform="rotate(45 381.35 180.206)" stroke="#219BB2" stroke-width="0.186626"/>
<rect x="381.35" y="182.819" width="46.47" height="46.47" transform="rotate(45 381.35 182.819)" stroke="#219BB2" stroke-width="0.186626"/>
<rect x="381.35" y="185.618" width="42.7375" height="42.7375" transform="rotate(45 381.35 185.618)" stroke="#219BB2" stroke-width="0.186626"/>
<rect x="381.35" y="188.231" width="39.0049" height="39.0049" transform="rotate(45 381.35 188.231)" stroke="#219BB2" stroke-width="0.186626"/>
<rect x="381.35" y="190.844" width="35.2724" height="35.2724" transform="rotate(45 381.35 190.844)" stroke="#219BB2" stroke-width="0.186626"/>
<rect x="381.35" y="193.457" width="31.5399" height="31.5399" transform="rotate(45 381.35 193.457)" stroke="#219BB2" stroke-width="0.186626"/>
<rect x="381.35" y="196.069" width="27.8073" height="27.8073" transform="rotate(45 381.35 196.069)" stroke="#219BB2" stroke-width="0.186626"/>
<rect x="381.35" y="198.682" width="24.0748" height="24.0748" transform="rotate(45 381.35 198.682)" stroke="#219BB2" stroke-width="0.186626"/>
<rect x="381.35" y="201.295" width="20.3423" height="20.3423" transform="rotate(45 381.35 201.295)" stroke="#219BB2" stroke-width="0.186626"/>
<rect x="381.35" y="204.094" width="16.6098" height="16.6098" transform="rotate(45 381.35 204.094)" stroke="#219BB2" stroke-width="0.186626"/>
<rect x="381.35" y="206.707" width="12.8772" height="12.8772" transform="rotate(45 381.35 206.707)" stroke="#219BB2" stroke-width="0.186626"/>
<rect x="381.35" y="209.32" width="9.1447" height="9.1447" transform="rotate(45 381.35 209.32)" stroke="#219BB2" stroke-width="0.186626"/>
<rect x="381.35" y="211.933" width="5.41217" height="5.41217" transform="rotate(45 381.35 211.933)" stroke="#219BB2" stroke-width="0.186626"/>
<rect x="457.172" y="218.16" width="106.19" height="106.19" transform="rotate(45 457.172 218.16)" stroke="#219BB2" stroke-width="0.186626"/>
<rect x="306.096" y="218.16" width="106.19" height="106.19" transform="rotate(45 306.096 218.16)" stroke="#219BB2" stroke-width="0.186626"/>
<rect x="306.096" y="220.773" width="102.458" height="102.458" transform="rotate(45 306.096 220.773)" stroke="#219BB2" stroke-width="0.186626"/>
<rect x="306.096" y="223.386" width="98.7254" height="98.7254" transform="rotate(45 306.096 223.386)" stroke="#219BB2" stroke-width="0.186626"/>
<rect x="306.096" y="226.185" width="94.9929" height="94.9929" transform="rotate(45 306.096 226.185)" stroke="#219BB2" stroke-width="0.186626"/>
<rect x="306.096" y="228.798" width="91.2603" height="91.2603" transform="rotate(45 306.096 228.798)" stroke="#219BB2" stroke-width="0.186626"/>
<rect x="306.096" y="231.411" width="87.5278" height="87.5278" transform="rotate(45 306.096 231.411)" stroke="#219BB2" stroke-width="0.186626"/>
<rect x="306.096" y="234.024" width="83.7953" height="83.7953" transform="rotate(45 306.096 234.024)" stroke="#219BB2" stroke-width="0.186626"/>
<rect x="306.096" y="236.636" width="80.0628" height="80.0628" transform="rotate(45 306.096 236.636)" stroke="#219BB2" stroke-width="0.186626"/>
<rect x="306.096" y="239.249" width="76.3302" height="76.3302" transform="rotate(45 306.096 239.249)" stroke="#219BB2" stroke-width="0.186626"/>
<rect x="306.096" y="241.862" width="72.5977" height="72.5977" transform="rotate(45 306.096 241.862)" stroke="#219BB2" stroke-width="0.186626"/>
<rect x="306.096" y="244.661" width="68.8652" height="68.8652" transform="rotate(45 306.096 244.661)" stroke="#219BB2" stroke-width="0.186626"/>
<rect x="306.096" y="247.274" width="65.1326" height="65.1326" transform="rotate(45 306.096 247.274)" stroke="#219BB2" stroke-width="0.186626"/>
<rect x="306.096" y="249.887" width="61.4001" height="61.4001" transform="rotate(45 306.096 249.887)" stroke="#219BB2" stroke-width="0.186626"/>
<rect x="306.096" y="252.5" width="57.6676" height="57.6676" transform="rotate(45 306.096 252.5)" stroke="#219BB2" stroke-width="0.186626"/>
<rect x="306.096" y="255.112" width="53.935" height="53.935" transform="rotate(45 306.096 255.112)" stroke="#219BB2" stroke-width="0.186626"/>
<rect x="306.096" y="257.725" width="50.2025" height="50.2025" transform="rotate(45 306.096 257.725)" stroke="#219BB2" stroke-width="0.186626"/>
<rect x="306.096" y="260.338" width="46.47" height="46.47" transform="rotate(45 306.096 260.338)" stroke="#219BB2" stroke-width="0.186626"/>
<rect x="306.096" y="263.137" width="42.7375" height="42.7375" transform="rotate(45 306.096 263.137)" stroke="#219BB2" stroke-width="0.186626"/>
<rect x="306.096" y="265.75" width="39.0049" height="39.0049" transform="rotate(45 306.096 265.75)" stroke="#219BB2" stroke-width="0.186626"/>
<rect x="306.096" y="268.363" width="35.2724" height="35.2724" transform="rotate(45 306.096 268.363)" stroke="#219BB2" stroke-width="0.186626"/>
<rect x="306.096" y="270.976" width="31.5399" height="31.5399" transform="rotate(45 306.096 270.976)" stroke="#219BB2" stroke-width="0.186626"/>
<rect x="306.096" y="273.588" width="27.8073" height="27.8073" transform="rotate(45 306.096 273.588)" stroke="#219BB2" stroke-width="0.186626"/>
<rect x="306.096" y="276.201" width="24.0748" height="24.0748" transform="rotate(45 306.096 276.201)" stroke="#219BB2" stroke-width="0.186626"/>
<rect x="306.096" y="278.814" width="20.3423" height="20.3423" transform="rotate(45 306.096 278.814)" stroke="#219BB2" stroke-width="0.186626"/>
<rect x="306.096" y="281.613" width="16.6098" height="16.6098" transform="rotate(45 306.096 281.613)" stroke="#219BB2" stroke-width="0.186626"/>
<rect x="306.096" y="284.226" width="12.8772" height="12.8772" transform="rotate(45 306.096 284.226)" stroke="#219BB2" stroke-width="0.186626"/>
<rect x="306.096" y="286.839" width="9.1447" height="9.1447" transform="rotate(45 306.096 286.839)" stroke="#219BB2" stroke-width="0.186626"/>
<rect x="306.096" y="289.452" width="5.41217" height="5.41217" transform="rotate(45 306.096 289.452)" stroke="#219BB2" stroke-width="0.186626"/>
<rect x="155.582" y="218.16" width="106.19" height="106.19" transform="rotate(45 155.582 218.16)" stroke="#219BB2" stroke-width="0.186626"/>
<rect x="155.582" y="220.773" width="102.458" height="102.458" transform="rotate(45 155.582 220.773)" stroke="#219BB2" stroke-width="0.186626"/>
<rect x="155.582" y="223.386" width="98.7254" height="98.7254" transform="rotate(45 155.582 223.386)" stroke="#219BB2" stroke-width="0.186626"/>
<rect x="155.582" y="226.185" width="94.9929" height="94.9929" transform="rotate(45 155.582 226.185)" stroke="#219BB2" stroke-width="0.186626"/>
<rect x="155.582" y="228.798" width="91.2603" height="91.2603" transform="rotate(45 155.582 228.798)" stroke="#219BB2" stroke-width="0.186626"/>
<rect x="155.582" y="231.411" width="87.5278" height="87.5278" transform="rotate(45 155.582 231.411)" stroke="#219BB2" stroke-width="0.186626"/>
<rect x="155.582" y="234.024" width="83.7953" height="83.7953" transform="rotate(45 155.582 234.024)" stroke="#219BB2" stroke-width="0.186626"/>
<rect x="155.582" y="236.636" width="80.0628" height="80.0628" transform="rotate(45 155.582 236.636)" stroke="#219BB2" stroke-width="0.186626"/>
<rect x="155.582" y="239.249" width="76.3302" height="76.3302" transform="rotate(45 155.582 239.249)" stroke="#219BB2" stroke-width="0.186626"/>
<rect x="155.582" y="241.862" width="72.5977" height="72.5977" transform="rotate(45 155.582 241.862)" stroke="#219BB2" stroke-width="0.186626"/>
<rect x="155.582" y="244.661" width="68.8652" height="68.8652" transform="rotate(45 155.582 244.661)" stroke="#219BB2" stroke-width="0.186626"/>
<rect x="155.582" y="247.274" width="65.1326" height="65.1326" transform="rotate(45 155.582 247.274)" stroke="#219BB2" stroke-width="0.186626"/>
<rect x="155.582" y="249.887" width="61.4001" height="61.4001" transform="rotate(45 155.582 249.887)" stroke="#219BB2" stroke-width="0.186626"/>
<rect x="155.582" y="252.5" width="57.6676" height="57.6676" transform="rotate(45 155.582 252.5)" stroke="#219BB2" stroke-width="0.186626"/>
<rect x="155.582" y="255.112" width="53.935" height="53.935" transform="rotate(45 155.582 255.112)" stroke="#219BB2" stroke-width="0.186626"/>
<rect x="155.582" y="257.725" width="50.2025" height="50.2025" transform="rotate(45 155.582 257.725)" stroke="#219BB2" stroke-width="0.186626"/>
<rect x="155.582" y="260.338" width="46.47" height="46.47" transform="rotate(45 155.582 260.338)" stroke="#219BB2" stroke-width="0.186626"/>
<rect x="155.582" y="263.137" width="42.7375" height="42.7375" transform="rotate(45 155.582 263.137)" stroke="#219BB2" stroke-width="0.186626"/>
<rect x="155.582" y="265.75" width="39.0049" height="39.0049" transform="rotate(45 155.582 265.75)" stroke="#219BB2" stroke-width="0.186626"/>
<rect x="155.582" y="268.363" width="35.2724" height="35.2724" transform="rotate(45 155.582 268.363)" stroke="#219BB2" stroke-width="0.186626"/>
<rect x="155.582" y="270.976" width="31.5399" height="31.5399" transform="rotate(45 155.582 270.976)" stroke="#219BB2" stroke-width="0.186626"/>
<rect x="155.582" y="273.588" width="27.8073" height="27.8073" transform="rotate(45 155.582 273.588)" stroke="#219BB2" stroke-width="0.186626"/>
<rect x="155.582" y="276.201" width="24.0748" height="24.0748" transform="rotate(45 155.582 276.201)" stroke="#219BB2" stroke-width="0.186626"/>
<rect x="155.582" y="278.814" width="20.3423" height="20.3423" transform="rotate(45 155.582 278.814)" stroke="#219BB2" stroke-width="0.186626"/>
<rect x="155.582" y="281.613" width="16.6098" height="16.6098" transform="rotate(45 155.582 281.613)" stroke="#219BB2" stroke-width="0.186626"/>
<rect x="155.582" y="284.226" width="12.8772" height="12.8772" transform="rotate(45 155.582 284.226)" stroke="#219BB2" stroke-width="0.186626"/>
<rect x="155.582" y="286.839" width="9.1447" height="9.1447" transform="rotate(45 155.582 286.839)" stroke="#219BB2" stroke-width="0.186626"/>
<rect x="155.582" y="289.452" width="5.41217" height="5.41217" transform="rotate(45 155.582 289.452)" stroke="#219BB2" stroke-width="0.186626"/>
<rect x="4.50781" y="218.16" width="106.19" height="106.19" transform="rotate(45 4.50781 218.16)" stroke="#219BB2" stroke-width="0.186626"/>
<rect x="4.50781" y="220.773" width="102.458" height="102.458" transform="rotate(45 4.50781 220.773)" stroke="#219BB2" stroke-width="0.186626"/>
<rect x="4.50781" y="223.386" width="98.7254" height="98.7254" transform="rotate(45 4.50781 223.386)" stroke="#219BB2" stroke-width="0.186626"/>
<rect x="4.50781" y="226.185" width="94.9929" height="94.9929" transform="rotate(45 4.50781 226.185)" stroke="#219BB2" stroke-width="0.186626"/>
<rect x="4.50781" y="228.798" width="91.2603" height="91.2603" transform="rotate(45 4.50781 228.798)" stroke="#219BB2" stroke-width="0.186626"/>
<rect x="4.50781" y="231.411" width="87.5278" height="87.5278" transform="rotate(45 4.50781 231.411)" stroke="#219BB2" stroke-width="0.186626"/>
<rect x="4.50781" y="234.024" width="83.7953" height="83.7953" transform="rotate(45 4.50781 234.024)" stroke="#219BB2" stroke-width="0.186626"/>
<rect x="4.50781" y="236.636" width="80.0628" height="80.0628" transform="rotate(45 4.50781 236.636)" stroke="#219BB2" stroke-width="0.186626"/>
<rect x="4.50781" y="239.249" width="76.3302" height="76.3302" transform="rotate(45 4.50781 239.249)" stroke="#219BB2" stroke-width="0.186626"/>
<rect x="4.50781" y="241.862" width="72.5977" height="72.5977" transform="rotate(45 4.50781 241.862)" stroke="#219BB2" stroke-width="0.186626"/>
<rect x="4.50781" y="244.661" width="68.8652" height="68.8652" transform="rotate(45 4.50781 244.661)" stroke="#219BB2" stroke-width="0.186626"/>
<rect x="4.50781" y="247.274" width="65.1326" height="65.1326" transform="rotate(45 4.50781 247.274)" stroke="#219BB2" stroke-width="0.186626"/>
<rect x="4.50781" y="249.887" width="61.4001" height="61.4001" transform="rotate(45 4.50781 249.887)" stroke="#219BB2" stroke-width="0.186626"/>
<rect x="4.50781" y="252.499" width="57.6676" height="57.6676" transform="rotate(45 4.50781 252.499)" stroke="#219BB2" stroke-width="0.186626"/>
<rect x="4.50781" y="255.112" width="53.935" height="53.935" transform="rotate(45 4.50781 255.112)" stroke="#219BB2" stroke-width="0.186626"/>
<rect x="4.50781" y="257.725" width="50.2025" height="50.2025" transform="rotate(45 4.50781 257.725)" stroke="#219BB2" stroke-width="0.186626"/>
<rect x="4.50781" y="260.338" width="46.47" height="46.47" transform="rotate(45 4.50781 260.338)" stroke="#219BB2" stroke-width="0.186626"/>
<rect x="4.50781" y="263.137" width="42.7375" height="42.7375" transform="rotate(45 4.50781 263.137)" stroke="#219BB2" stroke-width="0.186626"/>
<rect x="4.50781" y="265.75" width="39.0049" height="39.0049" transform="rotate(45 4.50781 265.75)" stroke="#219BB2" stroke-width="0.186626"/>
<rect x="4.50781" y="268.363" width="35.2724" height="35.2724" transform="rotate(45 4.50781 268.363)" stroke="#219BB2" stroke-width="0.186626"/>
<rect x="4.50781" y="270.976" width="31.5399" height="31.5399" transform="rotate(45 4.50781 270.976)" stroke="#219BB2" stroke-width="0.186626"/>
<rect x="4.50781" y="273.588" width="27.8073" height="27.8073" transform="rotate(45 4.50781 273.588)" stroke="#219BB2" stroke-width="0.186626"/>
<rect x="4.50781" y="276.201" width="24.0748" height="24.0748" transform="rotate(45 4.50781 276.201)" stroke="#219BB2" stroke-width="0.186626"/>
<rect x="4.50781" y="278.814" width="20.3423" height="20.3423" transform="rotate(45 4.50781 278.814)" stroke="#219BB2" stroke-width="0.186626"/>
<rect x="4.50781" y="281.613" width="16.6098" height="16.6098" transform="rotate(45 4.50781 281.613)" stroke="#219BB2" stroke-width="0.186626"/>
<rect x="4.50781" y="284.226" width="12.8772" height="12.8772" transform="rotate(45 4.50781 284.226)" stroke="#219BB2" stroke-width="0.186626"/>
<rect x="4.50781" y="286.839" width="9.1447" height="9.1447" transform="rotate(45 4.50781 286.839)" stroke="#219BB2" stroke-width="0.186626"/>
<rect x="4.50781" y="289.452" width="5.41217" height="5.41217" transform="rotate(45 4.50781 289.452)" stroke="#219BB2" stroke-width="0.186626"/>
<rect x="456.604" y="-91.3492" width="106.19" height="106.19" transform="rotate(45 456.604 -91.3492)" stroke="#219BB2" stroke-width="0.186626"/>
<rect x="380.99" y="-14.3962" width="106.19" height="106.19" transform="rotate(45 380.99 -14.3962)" stroke="#219BB2" stroke-width="0.186626"/>
<rect x="380.99" y="-11.7833" width="102.458" height="102.458" transform="rotate(45 380.99 -11.7833)" stroke="#219BB2" stroke-width="0.186626"/>
<rect x="380.99" y="-9.17089" width="98.7254" height="98.7254" transform="rotate(45 380.99 -9.17089)" stroke="#219BB2" stroke-width="0.186626"/>
<rect x="380.99" y="-6.37121" width="94.9929" height="94.9929" transform="rotate(45 380.99 -6.37121)" stroke="#219BB2" stroke-width="0.186626"/>
<rect x="380.99" y="-3.75842" width="91.2603" height="91.2603" transform="rotate(45 380.99 -3.75842)" stroke="#219BB2" stroke-width="0.186626"/>
<rect x="380.99" y="-1.14562" width="87.5278" height="87.5278" transform="rotate(45 380.99 -1.14562)" stroke="#219BB2" stroke-width="0.186626"/>
<rect x="380.99" y="1.46693" width="83.7953" height="83.7953" transform="rotate(45 380.99 1.46693)" stroke="#219BB2" stroke-width="0.186626"/>
<rect x="380.99" y="4.07984" width="80.0628" height="80.0628" transform="rotate(45 380.99 4.07984)" stroke="#219BB2" stroke-width="0.186626"/>
<rect x="380.99" y="6.69251" width="76.3302" height="76.3302" transform="rotate(45 380.99 6.69251)" stroke="#219BB2" stroke-width="0.186626"/>
<rect x="380.99" y="9.3053" width="72.5977" height="72.5977" transform="rotate(45 380.99 9.3053)" stroke="#219BB2" stroke-width="0.186626"/>
<rect x="380.99" y="12.1047" width="68.8652" height="68.8652" transform="rotate(45 380.99 12.1047)" stroke="#219BB2" stroke-width="0.186626"/>
<rect x="380.99" y="14.7174" width="65.1326" height="65.1326" transform="rotate(45 380.99 14.7174)" stroke="#219BB2" stroke-width="0.186626"/>
<rect x="380.99" y="17.3303" width="61.4001" height="61.4001" transform="rotate(45 380.99 17.3303)" stroke="#219BB2" stroke-width="0.186626"/>
<rect x="380.99" y="19.943" width="57.6676" height="57.6676" transform="rotate(45 380.99 19.943)" stroke="#219BB2" stroke-width="0.186626"/>
<rect x="380.99" y="22.5558" width="53.935" height="53.935" transform="rotate(45 380.99 22.5558)" stroke="#219BB2" stroke-width="0.186626"/>
<rect x="380.99" y="25.1686" width="50.2025" height="50.2025" transform="rotate(45 380.99 25.1686)" stroke="#219BB2" stroke-width="0.186626"/>
<rect x="380.99" y="27.7814" width="46.47" height="46.47" transform="rotate(45 380.99 27.7814)" stroke="#219BB2" stroke-width="0.186626"/>
<rect x="380.99" y="30.5807" width="42.7375" height="42.7375" transform="rotate(45 380.99 30.5807)" stroke="#219BB2" stroke-width="0.186626"/>
<rect x="380.99" y="33.1936" width="39.0049" height="39.0049" transform="rotate(45 380.99 33.1936)" stroke="#219BB2" stroke-width="0.186626"/>
<rect x="380.99" y="35.8063" width="35.2724" height="35.2724" transform="rotate(45 380.99 35.8063)" stroke="#219BB2" stroke-width="0.186626"/>
<rect x="380.99" y="38.4192" width="31.5399" height="31.5399" transform="rotate(45 380.99 38.4192)" stroke="#219BB2" stroke-width="0.186626"/>
<rect x="380.99" y="41.032" width="27.8073" height="27.8073" transform="rotate(45 380.99 41.032)" stroke="#219BB2" stroke-width="0.186626"/>
<rect x="380.99" y="43.6446" width="24.0748" height="24.0748" transform="rotate(45 380.99 43.6446)" stroke="#219BB2" stroke-width="0.186626"/>
<rect x="380.99" y="46.2575" width="20.3423" height="20.3423" transform="rotate(45 380.99 46.2575)" stroke="#219BB2" stroke-width="0.186626"/>
<rect x="380.99" y="49.0567" width="16.6098" height="16.6098" transform="rotate(45 380.99 49.0567)" stroke="#219BB2" stroke-width="0.186626"/>
<rect x="380.99" y="51.6695" width="12.8772" height="12.8772" transform="rotate(45 380.99 51.6695)" stroke="#219BB2" stroke-width="0.186626"/>
<rect x="380.99" y="54.2822" width="9.1447" height="9.1447" transform="rotate(45 380.99 54.2822)" stroke="#219BB2" stroke-width="0.186626"/>
<rect x="380.99" y="56.8951" width="5.41217" height="5.41217" transform="rotate(45 380.99 56.8951)" stroke="#219BB2" stroke-width="0.186626"/>
<rect x="305.529" y="-91.3492" width="106.19" height="106.19" transform="rotate(45 305.529 -91.3492)" stroke="#219BB2" stroke-width="0.186626"/>
<rect x="305.529" y="-88.7364" width="102.458" height="102.458" transform="rotate(45 305.529 -88.7364)" stroke="#219BB2" stroke-width="0.186626"/>
<rect x="305.529" y="-86.1238" width="98.7254" height="98.7254" transform="rotate(45 305.529 -86.1238)" stroke="#219BB2" stroke-width="0.186626"/>
<rect x="305.529" y="-83.3243" width="94.9929" height="94.9929" transform="rotate(45 305.529 -83.3243)" stroke="#219BB2" stroke-width="0.186626"/>
<rect x="305.529" y="-80.7114" width="91.2603" height="91.2603" transform="rotate(45 305.529 -80.7114)" stroke="#219BB2" stroke-width="0.186626"/>
<rect x="305.529" y="-78.0986" width="87.5278" height="87.5278" transform="rotate(45 305.529 -78.0986)" stroke="#219BB2" stroke-width="0.186626"/>
<rect x="305.529" y="-75.4861" width="83.7953" height="83.7953" transform="rotate(45 305.529 -75.4861)" stroke="#219BB2" stroke-width="0.186626"/>
<rect x="305.529" y="-72.8734" width="80.0628" height="80.0628" transform="rotate(45 305.529 -72.8734)" stroke="#219BB2" stroke-width="0.186626"/>
<rect x="305.529" y="-70.2604" width="76.3302" height="76.3302" transform="rotate(45 305.529 -70.2604)" stroke="#219BB2" stroke-width="0.186626"/>
<rect x="305.529" y="-67.6478" width="72.5977" height="72.5977" transform="rotate(45 305.529 -67.6478)" stroke="#219BB2" stroke-width="0.186626"/>
<rect x="305.529" y="-64.8481" width="68.8652" height="68.8652" transform="rotate(45 305.529 -64.8481)" stroke="#219BB2" stroke-width="0.186626"/>
<rect x="305.529" y="-62.2356" width="65.1326" height="65.1326" transform="rotate(45 305.529 -62.2356)" stroke="#219BB2" stroke-width="0.186626"/>
<rect x="305.529" y="-59.6227" width="61.4001" height="61.4001" transform="rotate(45 305.529 -59.6227)" stroke="#219BB2" stroke-width="0.186626"/>
<rect x="305.529" y="-57.01" width="57.6676" height="57.6676" transform="rotate(45 305.529 -57.01)" stroke="#219BB2" stroke-width="0.186626"/>
<rect x="305.529" y="-54.3972" width="53.935" height="53.935" transform="rotate(45 305.529 -54.3972)" stroke="#219BB2" stroke-width="0.186626"/>
<rect x="305.529" y="-51.7844" width="50.2025" height="50.2025" transform="rotate(45 305.529 -51.7844)" stroke="#219BB2" stroke-width="0.186626"/>
<rect x="305.529" y="-49.1717" width="46.47" height="46.47" transform="rotate(45 305.529 -49.1717)" stroke="#219BB2" stroke-width="0.186626"/>
<rect x="305.529" y="-46.3723" width="42.7375" height="42.7375" transform="rotate(45 305.529 -46.3723)" stroke="#219BB2" stroke-width="0.186626"/>
<rect x="305.529" y="-43.7595" width="39.0049" height="39.0049" transform="rotate(45 305.529 -43.7595)" stroke="#219BB2" stroke-width="0.186626"/>
<rect x="305.529" y="-41.1467" width="35.2724" height="35.2724" transform="rotate(45 305.529 -41.1467)" stroke="#219BB2" stroke-width="0.186626"/>
<rect x="305.529" y="-38.5339" width="31.5399" height="31.5399" transform="rotate(45 305.529 -38.5339)" stroke="#219BB2" stroke-width="0.186626"/>
<rect x="305.529" y="-35.9211" width="27.8073" height="27.8073" transform="rotate(45 305.529 -35.9211)" stroke="#219BB2" stroke-width="0.186626"/>
<rect x="305.529" y="-33.3085" width="24.0748" height="24.0748" transform="rotate(45 305.529 -33.3085)" stroke="#219BB2" stroke-width="0.186626"/>
<rect x="230" y="-14.3962" width="106.19" height="106.19" transform="rotate(45 230 -14.3962)" stroke="#219BB2" stroke-width="0.186626"/>
<rect x="230" y="-11.7833" width="102.458" height="102.458" transform="rotate(45 230 -11.7833)" stroke="#219BB2" stroke-width="0.186626"/>
<rect x="230" y="-9.17089" width="98.7254" height="98.7254" transform="rotate(45 230 -9.17089)" stroke="#219BB2" stroke-width="0.186626"/>
<rect x="230" y="-6.37121" width="94.9929" height="94.9929" transform="rotate(45 230 -6.37121)" stroke="#219BB2" stroke-width="0.186626"/>
<rect x="230" y="-3.75842" width="91.2603" height="91.2603" transform="rotate(45 230 -3.75842)" stroke="#219BB2" stroke-width="0.186626"/>
<rect x="230" y="-1.14562" width="87.5278" height="87.5278" transform="rotate(45 230 -1.14562)" stroke="#219BB2" stroke-width="0.186626"/>
<rect x="230" y="1.46693" width="83.7953" height="83.7953" transform="rotate(45 230 1.46693)" stroke="#219BB2" stroke-width="0.186626"/>
<rect x="230" y="4.07972" width="80.0628" height="80.0628" transform="rotate(45 230 4.07972)" stroke="#219BB2" stroke-width="0.186626"/>
<rect x="230" y="6.69251" width="76.3302" height="76.3302" transform="rotate(45 230 6.69251)" stroke="#219BB2" stroke-width="0.186626"/>
<rect x="230" y="9.3053" width="72.5977" height="72.5977" transform="rotate(45 230 9.3053)" stroke="#219BB2" stroke-width="0.186626"/>
<rect x="230" y="12.1047" width="68.8652" height="68.8652" transform="rotate(45 230 12.1047)" stroke="#219BB2" stroke-width="0.186626"/>
<rect x="230" y="14.7174" width="65.1326" height="65.1326" transform="rotate(45 230 14.7174)" stroke="#219BB2" stroke-width="0.186626"/>
<rect x="230" y="17.3303" width="61.4001" height="61.4001" transform="rotate(45 230 17.3303)" stroke="#219BB2" stroke-width="0.186626"/>
<rect x="230" y="19.943" width="57.6676" height="57.6676" transform="rotate(45 230 19.943)" stroke="#219BB2" stroke-width="0.186626"/>
<rect x="230" y="22.5558" width="53.935" height="53.935" transform="rotate(45 230 22.5558)" stroke="#219BB2" stroke-width="0.186626"/>
<rect x="230" y="25.1686" width="50.2025" height="50.2025" transform="rotate(45 230 25.1686)" stroke="#219BB2" stroke-width="0.186626"/>
<rect x="230" y="27.7813" width="46.47" height="46.47" transform="rotate(45 230 27.7813)" stroke="#219BB2" stroke-width="0.186626"/>
<rect x="230" y="30.5806" width="42.7375" height="42.7375" transform="rotate(45 230 30.5806)" stroke="#219BB2" stroke-width="0.186626"/>
<rect x="230" y="33.1936" width="39.0049" height="39.0049" transform="rotate(45 230 33.1936)" stroke="#219BB2" stroke-width="0.186626"/>
<rect x="230" y="35.8062" width="35.2724" height="35.2724" transform="rotate(45 230 35.8062)" stroke="#219BB2" stroke-width="0.186626"/>
<rect x="230" y="38.4192" width="31.5399" height="31.5399" transform="rotate(45 230 38.4192)" stroke="#219BB2" stroke-width="0.186626"/>
<rect x="230" y="41.0319" width="27.8073" height="27.8073" transform="rotate(45 230 41.0319)" stroke="#219BB2" stroke-width="0.186626"/>
<rect x="230" y="43.6445" width="24.0748" height="24.0748" transform="rotate(45 230 43.6445)" stroke="#219BB2" stroke-width="0.186626"/>
<rect x="230" y="46.2575" width="20.3423" height="20.3423" transform="rotate(45 230 46.2575)" stroke="#219BB2" stroke-width="0.186626"/>
<rect x="230" y="49.0567" width="16.6098" height="16.6098" transform="rotate(45 230 49.0567)" stroke="#219BB2" stroke-width="0.186626"/>
<rect x="230" y="51.6695" width="12.8772" height="12.8772" transform="rotate(45 230 51.6695)" stroke="#219BB2" stroke-width="0.186626"/>
<rect x="230" y="54.2822" width="9.1447" height="9.1447" transform="rotate(45 230 54.2822)" stroke="#219BB2" stroke-width="0.186626"/>
<rect x="230" y="56.895" width="5.41217" height="5.41217" transform="rotate(45 230 56.895)" stroke="#219BB2" stroke-width="0.186626"/>
<rect x="154.449" y="-91.3492" width="106.19" height="106.19" transform="rotate(45 154.449 -91.3492)" stroke="#219BB2" stroke-width="0.186626"/>
<rect x="154.449" y="-88.7364" width="102.458" height="102.458" transform="rotate(45 154.449 -88.7364)" stroke="#219BB2" stroke-width="0.186626"/>
<rect x="154.449" y="-86.1238" width="98.7254" height="98.7254" transform="rotate(45 154.449 -86.1238)" stroke="#219BB2" stroke-width="0.186626"/>
<rect x="154.449" y="-83.3242" width="94.9929" height="94.9929" transform="rotate(45 154.449 -83.3242)" stroke="#219BB2" stroke-width="0.186626"/>
<rect x="154.449" y="-80.7114" width="91.2603" height="91.2603" transform="rotate(45 154.449 -80.7114)" stroke="#219BB2" stroke-width="0.186626"/>
<rect x="154.449" y="-78.0987" width="87.5278" height="87.5278" transform="rotate(45 154.449 -78.0987)" stroke="#219BB2" stroke-width="0.186626"/>
<rect x="154.449" y="-75.4861" width="83.7953" height="83.7953" transform="rotate(45 154.449 -75.4861)" stroke="#219BB2" stroke-width="0.186626"/>
<rect x="154.449" y="-72.8734" width="80.0628" height="80.0628" transform="rotate(45 154.449 -72.8734)" stroke="#219BB2" stroke-width="0.186626"/>
<rect x="154.449" y="-70.2604" width="76.3302" height="76.3302" transform="rotate(45 154.449 -70.2604)" stroke="#219BB2" stroke-width="0.186626"/>
<rect x="154.449" y="-67.6478" width="72.5977" height="72.5977" transform="rotate(45 154.449 -67.6478)" stroke="#219BB2" stroke-width="0.186626"/>
<rect x="154.449" y="-64.8483" width="68.8652" height="68.8652" transform="rotate(45 154.449 -64.8483)" stroke="#219BB2" stroke-width="0.186626"/>
<rect x="154.449" y="-62.2356" width="65.1326" height="65.1326" transform="rotate(45 154.449 -62.2356)" stroke="#219BB2" stroke-width="0.186626"/>
<rect x="154.449" y="-59.6227" width="61.4001" height="61.4001" transform="rotate(45 154.449 -59.6227)" stroke="#219BB2" stroke-width="0.186626"/>
<rect x="154.449" y="-57.01" width="57.6676" height="57.6676" transform="rotate(45 154.449 -57.01)" stroke="#219BB2" stroke-width="0.186626"/>
<rect x="154.449" y="-54.3972" width="53.935" height="53.935" transform="rotate(45 154.449 -54.3972)" stroke="#219BB2" stroke-width="0.186626"/>
<rect x="154.449" y="-51.7844" width="50.2025" height="50.2025" transform="rotate(45 154.449 -51.7844)" stroke="#219BB2" stroke-width="0.186626"/>
<rect x="154.449" y="-49.1717" width="46.47" height="46.47" transform="rotate(45 154.449 -49.1717)" stroke="#219BB2" stroke-width="0.186626"/>
<rect x="154.449" y="-46.3724" width="42.7375" height="42.7375" transform="rotate(45 154.449 -46.3724)" stroke="#219BB2" stroke-width="0.186626"/>
<rect x="154.449" y="-43.7595" width="39.0049" height="39.0049" transform="rotate(45 154.449 -43.7595)" stroke="#219BB2" stroke-width="0.186626"/>
<rect x="154.449" y="-41.1468" width="35.2724" height="35.2724" transform="rotate(45 154.449 -41.1468)" stroke="#219BB2" stroke-width="0.186626"/>
<rect x="154.449" y="-38.5339" width="31.5399" height="31.5399" transform="rotate(45 154.449 -38.5339)" stroke="#219BB2" stroke-width="0.186626"/>
<rect x="154.449" y="-35.9211" width="27.8073" height="27.8073" transform="rotate(45 154.449 -35.9211)" stroke="#219BB2" stroke-width="0.186626"/>
<rect x="154.449" y="-33.3085" width="24.0748" height="24.0748" transform="rotate(45 154.449 -33.3085)" stroke="#219BB2" stroke-width="0.186626"/>
<rect x="79.5781" y="-14.3962" width="106.19" height="106.19" transform="rotate(45 79.5781 -14.3962)" stroke="#219BB2" stroke-width="0.186626"/>
<rect x="79.5781" y="-11.7833" width="102.458" height="102.458" transform="rotate(45 79.5781 -11.7833)" stroke="#219BB2" stroke-width="0.186626"/>
<rect x="79.5781" y="-9.17089" width="98.7254" height="98.7254" transform="rotate(45 79.5781 -9.17089)" stroke="#219BB2" stroke-width="0.186626"/>
<rect x="79.5781" y="-6.37121" width="94.9929" height="94.9929" transform="rotate(45 79.5781 -6.37121)" stroke="#219BB2" stroke-width="0.186626"/>
<rect x="79.5781" y="-3.75842" width="91.2603" height="91.2603" transform="rotate(45 79.5781 -3.75842)" stroke="#219BB2" stroke-width="0.186626"/>
<rect x="79.5781" y="-1.14562" width="87.5278" height="87.5278" transform="rotate(45 79.5781 -1.14562)" stroke="#219BB2" stroke-width="0.186626"/>
<rect x="79.5781" y="1.46693" width="83.7953" height="83.7953" transform="rotate(45 79.5781 1.46693)" stroke="#219BB2" stroke-width="0.186626"/>
<rect x="79.5781" y="4.07984" width="80.0628" height="80.0628" transform="rotate(45 79.5781 4.07984)" stroke="#219BB2" stroke-width="0.186626"/>
<rect x="79.5781" y="6.69251" width="76.3302" height="76.3302" transform="rotate(45 79.5781 6.69251)" stroke="#219BB2" stroke-width="0.186626"/>
<rect x="79.5781" y="9.3053" width="72.5977" height="72.5977" transform="rotate(45 79.5781 9.3053)" stroke="#219BB2" stroke-width="0.186626"/>
<rect x="79.5781" y="12.1047" width="68.8652" height="68.8652" transform="rotate(45 79.5781 12.1047)" stroke="#219BB2" stroke-width="0.186626"/>
<rect x="79.5781" y="14.7174" width="65.1326" height="65.1326" transform="rotate(45 79.5781 14.7174)" stroke="#219BB2" stroke-width="0.186626"/>
<rect x="79.5781" y="17.3303" width="61.4001" height="61.4001" transform="rotate(45 79.5781 17.3303)" stroke="#219BB2" stroke-width="0.186626"/>
<rect x="79.5781" y="19.943" width="57.6676" height="57.6676" transform="rotate(45 79.5781 19.943)" stroke="#219BB2" stroke-width="0.186626"/>
<rect x="79.5781" y="22.5558" width="53.935" height="53.935" transform="rotate(45 79.5781 22.5558)" stroke="#219BB2" stroke-width="0.186626"/>
<rect x="79.5781" y="25.1686" width="50.2025" height="50.2025" transform="rotate(45 79.5781 25.1686)" stroke="#219BB2" stroke-width="0.186626"/>
<rect x="79.5781" y="27.7814" width="46.47" height="46.47" transform="rotate(45 79.5781 27.7814)" stroke="#219BB2" stroke-width="0.186626"/>
<rect x="79.5781" y="30.5807" width="42.7375" height="42.7375" transform="rotate(45 79.5781 30.5807)" stroke="#219BB2" stroke-width="0.186626"/>
<rect x="79.5781" y="33.1936" width="39.0049" height="39.0049" transform="rotate(45 79.5781 33.1936)" stroke="#219BB2" stroke-width="0.186626"/>
<rect x="79.5781" y="35.8063" width="35.2724" height="35.2724" transform="rotate(45 79.5781 35.8063)" stroke="#219BB2" stroke-width="0.186626"/>
<rect x="79.5781" y="38.4192" width="31.5399" height="31.5399" transform="rotate(45 79.5781 38.4192)" stroke="#219BB2" stroke-width="0.186626"/>
<rect x="79.5781" y="41.0319" width="27.8073" height="27.8073" transform="rotate(45 79.5781 41.0319)" stroke="#219BB2" stroke-width="0.186626"/>
<rect x="79.5781" y="43.6446" width="24.0748" height="24.0748" transform="rotate(45 79.5781 43.6446)" stroke="#219BB2" stroke-width="0.186626"/>
<rect x="79.5781" y="46.2575" width="20.3423" height="20.3423" transform="rotate(45 79.5781 46.2575)" stroke="#219BB2" stroke-width="0.186626"/>
<rect x="79.5781" y="49.0567" width="16.6098" height="16.6098" transform="rotate(45 79.5781 49.0567)" stroke="#219BB2" stroke-width="0.186626"/>
<rect x="79.5781" y="51.6695" width="12.8772" height="12.8772" transform="rotate(45 79.5781 51.6695)" stroke="#219BB2" stroke-width="0.186626"/>
<rect x="79.5781" y="54.2822" width="9.1447" height="9.1447" transform="rotate(45 79.5781 54.2822)" stroke="#219BB2" stroke-width="0.186626"/>
<rect x="79.5781" y="56.8951" width="5.41217" height="5.41217" transform="rotate(45 79.5781 56.8951)" stroke="#219BB2" stroke-width="0.186626"/>
<rect x="-71.9727" y="-14.3961" width="106.19" height="106.19" transform="rotate(45 -71.9727 -14.3961)" stroke="#219BB2" stroke-width="0.186626"/>
<rect x="-71.9727" y="-11.7832" width="102.458" height="102.458" transform="rotate(45 -71.9727 -11.7832)" stroke="#219BB2" stroke-width="0.186626"/>
<rect x="3.37305" y="-91.3492" width="106.19" height="106.19" transform="rotate(45 3.37305 -91.3492)" stroke="#219BB2" stroke-width="0.186626"/>
<rect x="3.37305" y="-88.7363" width="102.458" height="102.458" transform="rotate(45 3.37305 -88.7363)" stroke="#219BB2" stroke-width="0.186626"/>
<rect x="3.37305" y="-86.1237" width="98.7254" height="98.7254" transform="rotate(45 3.37305 -86.1237)" stroke="#219BB2" stroke-width="0.186626"/>
<rect x="3.37305" y="-83.3241" width="94.9929" height="94.9929" transform="rotate(45 3.37305 -83.3241)" stroke="#219BB2" stroke-width="0.186626"/>
<rect x="3.37305" y="-80.7114" width="91.2603" height="91.2603" transform="rotate(45 3.37305 -80.7114)" stroke="#219BB2" stroke-width="0.186626"/>
<rect x="3.37305" y="-78.0986" width="87.5278" height="87.5278" transform="rotate(45 3.37305 -78.0986)" stroke="#219BB2" stroke-width="0.186626"/>
<rect x="3.37305" y="-75.4858" width="83.7953" height="83.7953" transform="rotate(45 3.37305 -75.4858)" stroke="#219BB2" stroke-width="0.186626"/>
<rect x="3.37305" y="-72.8733" width="80.0628" height="80.0628" transform="rotate(45 3.37305 -72.8733)" stroke="#219BB2" stroke-width="0.186626"/>
<rect x="3.37305" y="-70.2604" width="76.3302" height="76.3302" transform="rotate(45 3.37305 -70.2604)" stroke="#219BB2" stroke-width="0.186626"/>
<rect x="3.37305" y="-67.6476" width="72.5977" height="72.5977" transform="rotate(45 3.37305 -67.6476)" stroke="#219BB2" stroke-width="0.186626"/>
<rect x="3.37305" y="-64.8481" width="68.8652" height="68.8652" transform="rotate(45 3.37305 -64.8481)" stroke="#219BB2" stroke-width="0.186626"/>
<rect x="3.37305" y="-62.2356" width="65.1326" height="65.1326" transform="rotate(45 3.37305 -62.2356)" stroke="#219BB2" stroke-width="0.186626"/>
<rect x="3.37305" y="-59.6227" width="61.4001" height="61.4001" transform="rotate(45 3.37305 -59.6227)" stroke="#219BB2" stroke-width="0.186626"/>
<rect x="3.37305" y="-57.0099" width="57.6676" height="57.6676" transform="rotate(45 3.37305 -57.0099)" stroke="#219BB2" stroke-width="0.186626"/>
<rect x="3.37305" y="-54.3972" width="53.935" height="53.935" transform="rotate(45 3.37305 -54.3972)" stroke="#219BB2" stroke-width="0.186626"/>
<rect x="3.37305" y="-51.7843" width="50.2025" height="50.2025" transform="rotate(45 3.37305 -51.7843)" stroke="#219BB2" stroke-width="0.186626"/>
<rect x="3.37305" y="-49.1715" width="46.47" height="46.47" transform="rotate(45 3.37305 -49.1715)" stroke="#219BB2" stroke-width="0.186626"/>
<rect x="3.37305" y="-46.3721" width="42.7375" height="42.7375" transform="rotate(45 3.37305 -46.3721)" stroke="#219BB2" stroke-width="0.186626"/>
<rect x="3.37305" y="-43.7595" width="39.0049" height="39.0049" transform="rotate(45 3.37305 -43.7595)" stroke="#219BB2" stroke-width="0.186626"/>
<rect x="3.37305" y="-41.1467" width="35.2724" height="35.2724" transform="rotate(45 3.37305 -41.1467)" stroke="#219BB2" stroke-width="0.186626"/>
<rect x="3.37305" y="-38.5339" width="31.5399" height="31.5399" transform="rotate(45 3.37305 -38.5339)" stroke="#219BB2" stroke-width="0.186626"/>
<rect x="3.37305" y="-35.921" width="27.8073" height="27.8073" transform="rotate(45 3.37305 -35.921)" stroke="#219BB2" stroke-width="0.186626"/>
<rect x="3.37305" y="-33.3085" width="24.0748" height="24.0748" transform="rotate(45 3.37305 -33.3085)" stroke="#219BB2" stroke-width="0.186626"/>
</mask>
<g mask="url(#mask0)">
<rect x="-268.756" y="-3.77734" width="814.796" height="299.324" fill="#219BB2"/>
</g>
<path opacity="0.7" d="M163.569 168.316C163.569 167.748 163.696 167.242 163.95 166.795C164.209 166.344 164.558 165.994 164.999 165.746C165.445 165.492 165.944 165.366 166.495 165.366C167.139 165.366 167.704 165.531 168.189 165.862C168.674 166.192 169.013 166.649 169.205 167.233H167.875C167.743 166.958 167.555 166.751 167.313 166.614C167.076 166.476 166.801 166.407 166.487 166.407C166.151 166.407 165.85 166.487 165.586 166.647C165.327 166.801 165.123 167.021 164.974 167.308C164.831 167.594 164.759 167.93 164.759 168.316C164.759 168.696 164.831 169.032 164.974 169.324C165.123 169.611 165.327 169.834 165.586 169.994C165.85 170.148 166.151 170.225 166.487 170.225C166.801 170.225 167.076 170.156 167.313 170.018C167.555 169.875 167.743 169.666 167.875 169.39H169.205C169.013 169.98 168.674 170.44 168.189 170.77C167.71 171.095 167.145 171.258 166.495 171.258C165.944 171.258 165.445 171.134 164.999 170.886C164.558 170.633 164.209 170.283 163.95 169.837C163.696 169.39 163.569 168.883 163.569 168.316ZM169.896 168.903C169.896 168.44 169.987 168.029 170.169 167.671C170.356 167.313 170.607 167.038 170.921 166.845C171.24 166.652 171.596 166.556 171.987 166.556C172.328 166.556 172.626 166.625 172.879 166.762C173.138 166.9 173.345 167.074 173.499 167.283V166.63H174.664V171.208H173.499V170.539C173.35 170.754 173.144 170.933 172.879 171.076C172.62 171.214 172.32 171.283 171.979 171.283C171.593 171.283 171.24 171.184 170.921 170.985C170.607 170.787 170.356 170.509 170.169 170.151C169.987 169.787 169.896 169.371 169.896 168.903ZM173.499 168.919C173.499 168.638 173.444 168.399 173.334 168.2C173.224 167.996 173.075 167.842 172.888 167.737C172.7 167.627 172.499 167.572 172.284 167.572C172.07 167.572 171.871 167.625 171.689 167.729C171.508 167.834 171.359 167.988 171.243 168.192C171.133 168.39 171.078 168.627 171.078 168.903C171.078 169.178 171.133 169.421 171.243 169.63C171.359 169.834 171.508 169.991 171.689 170.101C171.877 170.211 172.075 170.266 172.284 170.266C172.499 170.266 172.7 170.214 172.888 170.109C173.075 169.999 173.224 169.845 173.334 169.646C173.444 169.443 173.499 169.2 173.499 168.919ZM180.116 166.63V171.208H178.951V170.63C178.802 170.828 178.607 170.985 178.364 171.101C178.128 171.211 177.869 171.266 177.588 171.266C177.229 171.266 176.913 171.192 176.637 171.043C176.362 170.889 176.144 170.666 175.984 170.374C175.83 170.076 175.753 169.724 175.753 169.316V166.63H176.91V169.151C176.91 169.514 177.001 169.795 177.183 169.994C177.364 170.186 177.612 170.283 177.926 170.283C178.246 170.283 178.497 170.186 178.678 169.994C178.86 169.795 178.951 169.514 178.951 169.151V166.63H180.116ZM183.01 171.283C182.635 171.283 182.299 171.217 182.002 171.084C181.704 170.947 181.467 170.762 181.291 170.531C181.12 170.299 181.026 170.043 181.01 169.762H182.175C182.197 169.938 182.283 170.084 182.431 170.2C182.586 170.316 182.776 170.374 183.002 170.374C183.222 170.374 183.393 170.33 183.514 170.241C183.641 170.153 183.704 170.04 183.704 169.903C183.704 169.754 183.627 169.644 183.473 169.572C183.324 169.495 183.084 169.412 182.754 169.324C182.412 169.242 182.131 169.156 181.911 169.068C181.696 168.98 181.509 168.845 181.349 168.663C181.195 168.481 181.117 168.236 181.117 167.928C181.117 167.674 181.189 167.443 181.332 167.233C181.481 167.024 181.69 166.859 181.96 166.738C182.236 166.616 182.558 166.556 182.927 166.556C183.473 166.556 183.908 166.693 184.233 166.969C184.558 167.239 184.737 167.605 184.77 168.068H183.663C183.646 167.886 183.569 167.743 183.431 167.638C183.299 167.528 183.12 167.473 182.894 167.473C182.685 167.473 182.522 167.512 182.407 167.589C182.296 167.666 182.241 167.773 182.241 167.911C182.241 168.065 182.318 168.184 182.473 168.266C182.627 168.343 182.867 168.423 183.192 168.506C183.522 168.589 183.795 168.674 184.01 168.762C184.225 168.85 184.409 168.988 184.563 169.175C184.723 169.357 184.806 169.6 184.811 169.903C184.811 170.167 184.737 170.404 184.588 170.613C184.445 170.823 184.236 170.988 183.96 171.109C183.69 171.225 183.373 171.283 183.01 171.283ZM190.017 168.82C190.017 168.985 190.006 169.134 189.984 169.266H186.637C186.665 169.597 186.78 169.856 186.984 170.043C187.188 170.23 187.439 170.324 187.736 170.324C188.166 170.324 188.472 170.14 188.653 169.77H189.901C189.769 170.211 189.516 170.575 189.141 170.861C188.766 171.142 188.306 171.283 187.761 171.283C187.32 171.283 186.923 171.186 186.571 170.993C186.224 170.795 185.951 170.517 185.753 170.159C185.56 169.801 185.464 169.388 185.464 168.919C185.464 168.445 185.56 168.029 185.753 167.671C185.946 167.313 186.216 167.038 186.563 166.845C186.91 166.652 187.309 166.556 187.761 166.556C188.196 166.556 188.585 166.649 188.926 166.837C189.273 167.024 189.54 167.291 189.728 167.638C189.921 167.98 190.017 168.374 190.017 168.82ZM188.819 168.489C188.813 168.192 188.706 167.955 188.496 167.779C188.287 167.597 188.031 167.506 187.728 167.506C187.441 167.506 187.199 167.594 187.001 167.771C186.808 167.941 186.689 168.181 186.645 168.489H188.819ZM193.987 165.44V171.208H192.831V165.44H193.987ZM200.816 166.564C201.378 166.564 201.83 166.738 202.171 167.085C202.518 167.426 202.692 167.906 202.692 168.523V171.208H201.535V168.68C201.535 168.321 201.444 168.049 201.262 167.861C201.081 167.669 200.833 167.572 200.519 167.572C200.205 167.572 199.954 167.669 199.767 167.861C199.585 168.049 199.494 168.321 199.494 168.68V171.208H198.337V168.68C198.337 168.321 198.246 168.049 198.064 167.861C197.882 167.669 197.635 167.572 197.32 167.572C197.001 167.572 196.748 167.669 196.56 167.861C196.378 168.049 196.287 168.321 196.287 168.68V171.208H195.131V166.63H196.287V167.184C196.436 166.991 196.626 166.839 196.858 166.729C197.095 166.619 197.354 166.564 197.635 166.564C197.993 166.564 198.312 166.641 198.593 166.795C198.874 166.944 199.092 167.159 199.246 167.44C199.395 167.176 199.61 166.963 199.891 166.804C200.177 166.644 200.486 166.564 200.816 166.564ZM203.492 168.903C203.492 168.44 203.583 168.029 203.765 167.671C203.952 167.313 204.203 167.038 204.517 166.845C204.837 166.652 205.192 166.556 205.583 166.556C205.925 166.556 206.222 166.625 206.476 166.762C206.735 166.9 206.941 167.074 207.095 167.283V166.63H208.261V171.208H207.095V170.539C206.947 170.754 206.74 170.933 206.476 171.076C206.217 171.214 205.916 171.283 205.575 171.283C205.189 171.283 204.837 171.184 204.517 170.985C204.203 170.787 203.952 170.509 203.765 170.151C203.583 169.787 203.492 169.371 203.492 168.903ZM207.095 168.919C207.095 168.638 207.04 168.399 206.93 168.2C206.82 167.996 206.671 167.842 206.484 167.737C206.297 167.627 206.095 167.572 205.881 167.572C205.666 167.572 205.467 167.625 205.286 167.729C205.104 167.834 204.955 167.988 204.839 168.192C204.729 168.39 204.674 168.627 204.674 168.903C204.674 169.178 204.729 169.421 204.839 169.63C204.955 169.834 205.104 169.991 205.286 170.101C205.473 170.211 205.671 170.266 205.881 170.266C206.095 170.266 206.297 170.214 206.484 170.109C206.671 169.999 206.82 169.845 206.93 169.646C207.04 169.443 207.095 169.2 207.095 168.919ZM211.184 166.556C211.525 166.556 211.826 166.625 212.085 166.762C212.344 166.895 212.547 167.068 212.696 167.283V166.63H213.861V171.241C213.861 171.666 213.776 172.043 213.605 172.374C213.434 172.71 213.178 172.974 212.837 173.167C212.495 173.365 212.082 173.464 211.597 173.464C210.947 173.464 210.413 173.313 209.994 173.01C209.581 172.707 209.347 172.294 209.291 171.77H210.44C210.501 171.98 210.63 172.145 210.829 172.266C211.032 172.393 211.278 172.456 211.564 172.456C211.9 172.456 212.173 172.354 212.382 172.15C212.591 171.952 212.696 171.649 212.696 171.241V170.531C212.547 170.746 212.341 170.925 212.076 171.068C211.817 171.211 211.52 171.283 211.184 171.283C210.798 171.283 210.446 171.184 210.126 170.985C209.807 170.787 209.553 170.509 209.366 170.151C209.184 169.787 209.093 169.371 209.093 168.903C209.093 168.44 209.184 168.029 209.366 167.671C209.553 167.313 209.804 167.038 210.118 166.845C210.437 166.652 210.793 166.556 211.184 166.556ZM212.696 168.919C212.696 168.638 212.641 168.399 212.531 168.2C212.421 167.996 212.272 167.842 212.085 167.737C211.897 167.627 211.696 167.572 211.481 167.572C211.267 167.572 211.068 167.625 210.886 167.729C210.705 167.834 210.556 167.988 210.44 168.192C210.33 168.39 210.275 168.627 210.275 168.903C210.275 169.178 210.33 169.421 210.44 169.63C210.556 169.834 210.705 169.991 210.886 170.101C211.074 170.211 211.272 170.266 211.481 170.266C211.696 170.266 211.897 170.214 212.085 170.109C212.272 169.999 212.421 169.845 212.531 169.646C212.641 169.443 212.696 169.2 212.696 168.919ZM219.247 168.82C219.247 168.985 219.236 169.134 219.214 169.266H215.867C215.895 169.597 216.011 169.856 216.214 170.043C216.418 170.23 216.669 170.324 216.966 170.324C217.396 170.324 217.702 170.14 217.884 169.77H219.132C218.999 170.211 218.746 170.575 218.371 170.861C217.997 171.142 217.537 171.283 216.991 171.283C216.55 171.283 216.154 171.186 215.801 170.993C215.454 170.795 215.181 170.517 214.983 170.159C214.79 169.801 214.694 169.388 214.694 168.919C214.694 168.445 214.79 168.029 214.983 167.671C215.176 167.313 215.446 167.038 215.793 166.845C216.14 166.652 216.539 166.556 216.991 166.556C217.426 166.556 217.815 166.649 218.156 166.837C218.503 167.024 218.771 167.291 218.958 167.638C219.151 167.98 219.247 168.374 219.247 168.82ZM218.049 168.489C218.043 168.192 217.936 167.955 217.727 167.779C217.517 167.597 217.261 167.506 216.958 167.506C216.672 167.506 216.429 167.594 216.231 167.771C216.038 167.941 215.92 168.181 215.876 168.489H218.049ZM149.547 180.919C149.547 180.445 149.644 180.032 149.836 179.68C150.029 179.322 150.296 179.046 150.638 178.853C150.98 178.655 151.371 178.556 151.811 178.556C152.379 178.556 152.847 178.699 153.216 178.985C153.591 179.266 153.842 179.663 153.968 180.175H152.72C152.654 179.977 152.541 179.823 152.382 179.713C152.227 179.597 152.035 179.539 151.803 179.539C151.473 179.539 151.211 179.66 151.018 179.903C150.825 180.14 150.729 180.478 150.729 180.919C150.729 181.354 150.825 181.693 151.018 181.936C151.211 182.173 151.473 182.291 151.803 182.291C152.271 182.291 152.577 182.082 152.72 181.663H153.968C153.842 182.159 153.591 182.553 153.216 182.845C152.842 183.137 152.373 183.283 151.811 183.283C151.371 183.283 150.98 183.186 150.638 182.993C150.296 182.795 150.029 182.52 149.836 182.167C149.644 181.809 149.547 181.393 149.547 180.919ZM154.518 180.903C154.518 180.44 154.609 180.029 154.791 179.671C154.978 179.313 155.229 179.038 155.543 178.845C155.863 178.652 156.218 178.556 156.609 178.556C156.951 178.556 157.248 178.625 157.502 178.762C157.761 178.9 157.967 179.074 158.121 179.283V178.63H159.287V183.208H158.121V182.539C157.973 182.754 157.766 182.933 157.502 183.076C157.243 183.214 156.942 183.283 156.601 183.283C156.215 183.283 155.863 183.184 155.543 182.985C155.229 182.787 154.978 182.509 154.791 182.151C154.609 181.787 154.518 181.371 154.518 180.903ZM158.121 180.919C158.121 180.638 158.066 180.399 157.956 180.2C157.846 179.996 157.697 179.842 157.51 179.737C157.323 179.627 157.121 179.572 156.907 179.572C156.692 179.572 156.493 179.625 156.312 179.729C156.13 179.834 155.981 179.988 155.865 180.192C155.755 180.39 155.7 180.627 155.7 180.903C155.7 181.178 155.755 181.421 155.865 181.63C155.981 181.834 156.13 181.991 156.312 182.101C156.499 182.211 156.697 182.266 156.907 182.266C157.121 182.266 157.323 182.214 157.51 182.109C157.697 181.999 157.846 181.845 157.956 181.646C158.066 181.443 158.121 181.2 158.121 180.919ZM162.954 178.564C163.499 178.564 163.94 178.738 164.276 179.085C164.612 179.426 164.78 179.906 164.78 180.523V183.208H163.623V180.68C163.623 180.316 163.532 180.038 163.35 179.845C163.168 179.647 162.921 179.547 162.606 179.547C162.287 179.547 162.034 179.647 161.846 179.845C161.664 180.038 161.574 180.316 161.574 180.68V183.208H160.417V178.63H161.574V179.2C161.728 179.002 161.923 178.848 162.16 178.738C162.403 178.622 162.667 178.564 162.954 178.564ZM168.417 178.564C168.963 178.564 169.403 178.738 169.739 179.085C170.075 179.426 170.243 179.906 170.243 180.523V183.208H169.086V180.68C169.086 180.316 168.996 180.038 168.814 179.845C168.632 179.647 168.384 179.547 168.07 179.547C167.75 179.547 167.497 179.647 167.31 179.845C167.128 180.038 167.037 180.316 167.037 180.68V183.208H165.88V178.63H167.037V179.2C167.191 179.002 167.387 178.848 167.624 178.738C167.866 178.622 168.131 178.564 168.417 178.564ZM173.377 183.283C172.936 183.283 172.539 183.186 172.187 182.993C171.834 182.795 171.556 182.517 171.352 182.159C171.154 181.801 171.054 181.388 171.054 180.919C171.054 180.451 171.156 180.038 171.36 179.68C171.569 179.322 171.853 179.046 172.211 178.853C172.569 178.655 172.969 178.556 173.41 178.556C173.85 178.556 174.25 178.655 174.608 178.853C174.966 179.046 175.247 179.322 175.451 179.68C175.66 180.038 175.765 180.451 175.765 180.919C175.765 181.388 175.657 181.801 175.443 182.159C175.233 182.517 174.947 182.795 174.583 182.993C174.225 183.186 173.823 183.283 173.377 183.283ZM173.377 182.274C173.586 182.274 173.781 182.225 173.963 182.126C174.151 182.021 174.299 181.867 174.41 181.663C174.52 181.459 174.575 181.211 174.575 180.919C174.575 180.484 174.459 180.151 174.228 179.919C174.002 179.682 173.724 179.564 173.393 179.564C173.063 179.564 172.784 179.682 172.558 179.919C172.338 180.151 172.228 180.484 172.228 180.919C172.228 181.354 172.335 181.691 172.55 181.927C172.771 182.159 173.046 182.274 173.377 182.274ZM177.96 179.58V181.795C177.96 181.949 177.996 182.062 178.068 182.134C178.145 182.2 178.272 182.233 178.448 182.233H178.985V183.208H178.258C177.283 183.208 176.795 182.735 176.795 181.787V179.58H176.25V178.63H176.795V177.498H177.96V178.63H178.985V179.58H177.96ZM182.943 179.299C183.092 179.079 183.296 178.9 183.555 178.762C183.819 178.625 184.12 178.556 184.456 178.556C184.847 178.556 185.199 178.652 185.513 178.845C185.833 179.038 186.084 179.313 186.265 179.671C186.453 180.024 186.546 180.434 186.546 180.903C186.546 181.371 186.453 181.787 186.265 182.151C186.084 182.509 185.833 182.787 185.513 182.985C185.199 183.184 184.847 183.283 184.456 183.283C184.114 183.283 183.814 183.217 183.555 183.084C183.302 182.947 183.098 182.77 182.943 182.555V183.208H181.786V177.093H182.943V179.299ZM185.365 180.903C185.365 180.627 185.307 180.39 185.191 180.192C185.081 179.988 184.932 179.834 184.745 179.729C184.563 179.625 184.365 179.572 184.15 179.572C183.941 179.572 183.742 179.627 183.555 179.737C183.373 179.842 183.224 179.996 183.109 180.2C182.999 180.404 182.943 180.644 182.943 180.919C182.943 181.195 182.999 181.434 183.109 181.638C183.224 181.842 183.373 181.999 183.555 182.109C183.742 182.214 183.941 182.266 184.15 182.266C184.365 182.266 184.563 182.211 184.745 182.101C184.932 181.991 185.081 181.834 185.191 181.63C185.307 181.426 185.365 181.184 185.365 180.903ZM191.643 180.82C191.643 180.985 191.632 181.134 191.61 181.266H188.263C188.291 181.597 188.406 181.856 188.61 182.043C188.814 182.23 189.065 182.324 189.362 182.324C189.792 182.324 190.098 182.14 190.28 181.77H191.527C191.395 182.211 191.142 182.575 190.767 182.861C190.392 183.142 189.932 183.283 189.387 183.283C188.946 183.283 188.55 183.186 188.197 182.993C187.85 182.795 187.577 182.517 187.379 182.159C187.186 181.801 187.09 181.388 187.09 180.919C187.09 180.445 187.186 180.029 187.379 179.671C187.572 179.313 187.842 179.038 188.189 178.845C188.536 178.652 188.935 178.556 189.387 178.556C189.822 178.556 190.211 178.649 190.552 178.837C190.899 179.024 191.167 179.291 191.354 179.638C191.547 179.98 191.643 180.374 191.643 180.82ZM190.445 180.489C190.439 180.192 190.332 179.955 190.123 179.779C189.913 179.597 189.657 179.506 189.354 179.506C189.068 179.506 188.825 179.594 188.627 179.771C188.434 179.941 188.315 180.181 188.271 180.489H190.445ZM194.159 180.903C194.159 180.44 194.25 180.029 194.432 179.671C194.619 179.313 194.873 179.038 195.192 178.845C195.512 178.652 195.867 178.556 196.258 178.556C196.556 178.556 196.839 178.622 197.109 178.754C197.379 178.881 197.594 179.052 197.754 179.266V177.093H198.927V183.208H197.754V182.531C197.611 182.757 197.41 182.938 197.151 183.076C196.892 183.214 196.592 183.283 196.25 183.283C195.864 183.283 195.512 183.184 195.192 182.985C194.873 182.787 194.619 182.509 194.432 182.151C194.25 181.787 194.159 181.371 194.159 180.903ZM197.762 180.919C197.762 180.638 197.707 180.399 197.597 180.2C197.487 179.996 197.338 179.842 197.151 179.737C196.963 179.627 196.762 179.572 196.547 179.572C196.333 179.572 196.134 179.625 195.952 179.729C195.771 179.834 195.622 179.988 195.506 180.192C195.396 180.39 195.341 180.627 195.341 180.903C195.341 181.178 195.396 181.421 195.506 181.63C195.622 181.834 195.771 181.991 195.952 182.101C196.14 182.211 196.338 182.266 196.547 182.266C196.762 182.266 196.963 182.214 197.151 182.109C197.338 181.999 197.487 181.845 197.597 181.646C197.707 181.443 197.762 181.2 197.762 180.919ZM200.644 178.085C200.44 178.085 200.27 178.021 200.132 177.895C200 177.762 199.933 177.6 199.933 177.407C199.933 177.214 200 177.054 200.132 176.928C200.27 176.796 200.44 176.729 200.644 176.729C200.848 176.729 201.016 176.796 201.148 176.928C201.286 177.054 201.355 177.214 201.355 177.407C201.355 177.6 201.286 177.762 201.148 177.895C201.016 178.021 200.848 178.085 200.644 178.085ZM201.214 178.63V183.208H200.057V178.63H201.214ZM204.109 183.283C203.735 183.283 203.399 183.217 203.101 183.084C202.804 182.947 202.567 182.762 202.39 182.531C202.22 182.299 202.126 182.043 202.11 181.762H203.275C203.297 181.938 203.382 182.084 203.531 182.2C203.685 182.316 203.875 182.374 204.101 182.374C204.321 182.374 204.492 182.33 204.613 182.241C204.74 182.153 204.804 182.04 204.804 181.903C204.804 181.754 204.726 181.644 204.572 181.572C204.423 181.495 204.184 181.412 203.853 181.324C203.512 181.242 203.231 181.156 203.01 181.068C202.795 180.98 202.608 180.845 202.448 180.663C202.294 180.481 202.217 180.236 202.217 179.928C202.217 179.674 202.289 179.443 202.432 179.233C202.581 179.024 202.79 178.859 203.06 178.738C203.335 178.616 203.658 178.556 204.027 178.556C204.572 178.556 205.007 178.693 205.332 178.969C205.657 179.239 205.837 179.605 205.87 180.068H204.762C204.746 179.886 204.669 179.743 204.531 179.638C204.399 179.528 204.22 179.473 203.994 179.473C203.784 179.473 203.622 179.512 203.506 179.589C203.396 179.666 203.341 179.773 203.341 179.911C203.341 180.065 203.418 180.184 203.572 180.266C203.726 180.343 203.966 180.423 204.291 180.506C204.622 180.589 204.894 180.674 205.109 180.762C205.324 180.85 205.509 180.988 205.663 181.175C205.823 181.357 205.905 181.6 205.911 181.903C205.911 182.167 205.837 182.404 205.688 182.613C205.545 182.823 205.335 182.988 205.06 183.109C204.79 183.225 204.473 183.283 204.109 183.283ZM208.018 179.291C208.166 179.082 208.37 178.908 208.629 178.771C208.894 178.627 209.194 178.556 209.53 178.556C209.921 178.556 210.274 178.652 210.588 178.845C210.907 179.038 211.158 179.313 211.34 179.671C211.527 180.024 211.621 180.434 211.621 180.903C211.621 181.371 211.527 181.787 211.34 182.151C211.158 182.509 210.907 182.787 210.588 182.985C210.274 183.184 209.921 183.283 209.53 183.283C209.194 183.283 208.896 183.214 208.637 183.076C208.384 182.938 208.177 182.765 208.018 182.555V185.39H206.861V178.63H208.018V179.291ZM210.439 180.903C210.439 180.627 210.381 180.39 210.265 180.192C210.155 179.988 210.006 179.834 209.819 179.729C209.637 179.625 209.439 179.572 209.224 179.572C209.015 179.572 208.816 179.627 208.629 179.737C208.447 179.842 208.299 179.996 208.183 180.2C208.073 180.404 208.018 180.644 208.018 180.919C208.018 181.195 208.073 181.434 208.183 181.638C208.299 181.842 208.447 181.999 208.629 182.109C208.816 182.214 209.015 182.266 209.224 182.266C209.439 182.266 209.637 182.211 209.819 182.101C210.006 181.991 210.155 181.834 210.265 181.63C210.381 181.426 210.439 181.184 210.439 180.903ZM213.618 177.093V183.208H212.461V177.093H213.618ZM214.464 180.903C214.464 180.44 214.555 180.029 214.737 179.671C214.924 179.313 215.175 179.038 215.489 178.845C215.808 178.652 216.163 178.556 216.555 178.556C216.896 178.556 217.194 178.625 217.447 178.762C217.706 178.9 217.913 179.074 218.067 179.283V178.63H219.232V183.208H218.067V182.539C217.918 182.754 217.712 182.933 217.447 183.076C217.188 183.214 216.888 183.283 216.546 183.283C216.161 183.283 215.808 183.184 215.489 182.985C215.175 182.787 214.924 182.509 214.737 182.151C214.555 181.787 214.464 181.371 214.464 180.903ZM218.067 180.919C218.067 180.638 218.012 180.399 217.902 180.2C217.791 179.996 217.643 179.842 217.455 179.737C217.268 179.627 217.067 179.572 216.852 179.572C216.637 179.572 216.439 179.625 216.257 179.729C216.075 179.834 215.927 179.988 215.811 180.192C215.701 180.39 215.646 180.627 215.646 180.903C215.646 181.178 215.701 181.421 215.811 181.63C215.927 181.834 216.075 181.991 216.257 182.101C216.444 182.211 216.643 182.266 216.852 182.266C217.067 182.266 217.268 182.214 217.455 182.109C217.643 181.999 217.791 181.845 217.902 181.646C218.012 181.443 218.067 181.2 218.067 180.919ZM224.742 178.63L221.907 185.373H220.676L221.668 183.093L219.833 178.63H221.131L222.312 181.828L223.511 178.63H224.742ZM229.621 180.82C229.621 180.985 229.61 181.134 229.588 181.266H226.242C226.269 181.597 226.385 181.856 226.589 182.043C226.792 182.23 227.043 182.324 227.341 182.324C227.77 182.324 228.076 182.14 228.258 181.77H229.506C229.374 182.211 229.12 182.575 228.746 182.861C228.371 183.142 227.911 183.283 227.365 183.283C226.925 183.283 226.528 183.186 226.175 182.993C225.828 182.795 225.556 182.517 225.357 182.159C225.164 181.801 225.068 181.388 225.068 180.919C225.068 180.445 225.164 180.029 225.357 179.671C225.55 179.313 225.82 179.038 226.167 178.845C226.514 178.652 226.914 178.556 227.365 178.556C227.801 178.556 228.189 178.649 228.531 178.837C228.878 179.024 229.145 179.291 229.332 179.638C229.525 179.98 229.621 180.374 229.621 180.82ZM228.423 180.489C228.418 180.192 228.31 179.955 228.101 179.779C227.892 179.597 227.635 179.506 227.332 179.506C227.046 179.506 226.803 179.594 226.605 179.771C226.412 179.941 226.294 180.181 226.25 180.489H228.423ZM230.168 180.903C230.168 180.44 230.259 180.029 230.441 179.671C230.628 179.313 230.882 179.038 231.201 178.845C231.521 178.652 231.876 178.556 232.267 178.556C232.565 178.556 232.849 178.622 233.119 178.754C233.389 178.881 233.603 179.052 233.763 179.266V177.093H234.937V183.208H233.763V182.531C233.62 182.757 233.419 182.938 233.16 183.076C232.901 183.214 232.601 183.283 232.259 183.283C231.874 183.283 231.521 183.184 231.201 182.985C230.882 182.787 230.628 182.509 230.441 182.151C230.259 181.787 230.168 181.371 230.168 180.903ZM233.771 180.919C233.771 180.638 233.716 180.399 233.606 180.2C233.496 179.996 233.347 179.842 233.16 179.737C232.973 179.627 232.772 179.572 232.557 179.572C232.342 179.572 232.143 179.625 231.962 179.729C231.78 179.834 231.631 179.988 231.515 180.192C231.405 180.39 231.35 180.627 231.35 180.903C231.35 181.178 231.405 181.421 231.515 181.63C231.631 181.834 231.78 181.991 231.962 182.101C232.149 182.211 232.347 182.266 232.557 182.266C232.772 182.266 232.973 182.214 233.16 182.109C233.347 181.999 233.496 181.845 233.606 181.646C233.716 181.443 233.771 181.2 233.771 180.919Z" fill="#3C3F59"/>
<g opacity="0.5" clip-path="url(#clip1)">
<path fill-rule="evenodd" clip-rule="evenodd" d="M205.754 107.338C205.523 106.699 205.197 106.103 204.52 106.103H191.337C190.657 106.103 190.334 106.699 190.103 107.338L188.904 110.65L198.194 111.716L206.953 110.65L205.754 107.338Z" fill="#7E707D"/>
<path fill-rule="evenodd" clip-rule="evenodd" d="M206.952 110.65L205.753 107.338C205.522 106.699 205.196 106.103 204.519 106.103H199.779C200.46 106.103 200.786 106.699 201.014 107.338L202.212 110.65H206.952Z" fill="#6A5C6B"/>
<path fill-rule="evenodd" clip-rule="evenodd" d="M179.079 111.716V107.755C179.079 107.106 178.551 106.579 177.903 106.579H174.128C173.483 106.579 172.955 107.106 172.955 107.755V111.716H179.079Z" fill="#7E707D"/>
<path fill-rule="evenodd" clip-rule="evenodd" d="M220.168 124.533V112.979C220.168 111.699 219.122 110.65 217.842 110.65H178.016V124.533H220.168Z" fill="#A6E0FA"/>
<path fill-rule="evenodd" clip-rule="evenodd" d="M220.168 140.556V129.491C204.973 129.491 192.908 129.491 178.016 129.491V142.885H217.842C219.122 142.885 220.168 141.836 220.168 140.556Z" fill="#A6E0FA"/>
<path fill-rule="evenodd" clip-rule="evenodd" d="M210.784 123.468C209.266 118.458 204.615 114.81 199.107 114.81C193.602 114.81 188.951 118.458 187.433 123.468C187.091 124.588 186.908 125.777 186.908 127.012C186.908 128.243 187.091 129.432 187.433 130.556C188.951 135.566 193.602 139.211 199.107 139.211C204.615 139.211 209.266 135.566 210.784 130.556C211.126 129.432 211.308 128.243 211.308 127.012C211.308 125.777 211.126 124.588 210.784 123.468Z" fill="#7E707D"/>
<path fill-rule="evenodd" clip-rule="evenodd" d="M210.785 130.556C211.127 129.432 211.309 128.243 211.309 127.012C211.309 125.777 211.127 124.588 210.785 123.468C209.267 118.458 204.615 114.81 199.107 114.81C198.671 114.81 198.238 114.833 197.811 114.878C202.485 115.595 206.283 118.96 207.625 123.393C207.635 123.419 207.641 123.442 207.648 123.468C207.974 124.569 208.15 125.731 208.15 126.937C208.15 128.171 207.967 129.36 207.625 130.481C207.618 130.507 207.612 130.53 207.602 130.556C206.185 135.129 202.15 138.552 197.244 139.07C197.853 139.162 198.475 139.21 199.107 139.21C204.615 139.211 209.267 135.566 210.785 130.556Z" fill="#6A5C6B"/>
<path fill-rule="evenodd" clip-rule="evenodd" d="M220.167 112.979C220.167 111.699 219.121 110.65 217.841 110.65H213.916C215.196 110.65 216.245 111.699 216.245 112.979V115.175V123.468H220.167V112.979Z" fill="#75CEF9"/>
<path fill-rule="evenodd" clip-rule="evenodd" d="M220.165 140.556V130.556H216.244V140.556C216.244 141.833 215.198 142.882 213.918 142.885H213.921H217.84C219.12 142.885 220.165 141.836 220.165 140.556Z" fill="#75CEF9"/>
<path fill-rule="evenodd" clip-rule="evenodd" d="M206.856 127.012C206.856 125.735 206.547 124.53 205.999 123.468C204.713 120.969 202.11 119.263 199.107 119.263C196.107 119.263 193.505 120.969 192.218 123.468C191.671 124.53 191.361 125.735 191.361 127.012C191.361 128.289 191.671 129.494 192.218 130.556C193.505 133.051 196.107 134.758 199.107 134.758C202.11 134.758 204.713 133.051 205.999 130.556C206.547 129.494 206.856 128.289 206.856 127.012Z" fill="#EFF6FF"/>
<path fill-rule="evenodd" clip-rule="evenodd" d="M206.859 127.012C206.859 125.735 206.55 124.53 206.002 123.468C204.716 120.969 202.113 119.263 199.11 119.263C198.351 119.263 197.615 119.373 196.918 119.579C199.289 119.97 201.299 121.442 202.423 123.468C202.462 123.536 202.498 123.608 202.537 123.676C203.084 124.738 203.39 125.944 203.39 127.22C203.39 128.416 203.123 129.546 202.641 130.556C202.605 130.624 202.573 130.696 202.537 130.765C201.576 132.628 199.882 134.051 197.836 134.654C198.25 134.722 198.677 134.758 199.11 134.758C202.113 134.758 204.716 133.051 206.002 130.556C206.55 129.494 206.859 128.289 206.859 127.012Z" fill="#D9EEFF"/>
<path fill-rule="evenodd" clip-rule="evenodd" d="M187.433 130.556C187.091 129.432 186.908 128.243 186.908 127.012C186.908 125.777 187.091 124.588 187.433 123.468H179.078L177.303 126.474L179.078 130.556H187.433Z" fill="#FFBC85"/>
<path fill-rule="evenodd" clip-rule="evenodd" d="M220.166 130.556V123.468H210.785C211.127 124.589 211.31 125.777 211.31 127.012C211.31 128.243 211.127 129.432 210.785 130.556H220.166V130.556Z" fill="#FFBC85"/>
<path fill-rule="evenodd" clip-rule="evenodd" d="M220.166 129.491V124.533V123.468H216.244V124.533V129.491V130.556H220.166V129.491Z" fill="#F5A96C"/>
<path fill-rule="evenodd" clip-rule="evenodd" d="M179.078 123.468V110.65H172.954C171.508 110.65 170.264 111.383 170.264 112.979V118.973L172.996 126.474C173.12 126.816 170.723 133.312 170.264 134.198V140.556C170.264 141.836 171.309 142.885 172.589 142.885H179.078V130.556V123.468Z" fill="#FDE588"/>
<path fill-rule="evenodd" clip-rule="evenodd" d="M174.514 133.569V119.602C174.514 119.256 174.231 118.973 173.886 118.973H170.264V134.198H173.886C174.231 134.198 174.514 133.914 174.514 133.569Z" fill="#7E707D"/>
<path fill-rule="evenodd" clip-rule="evenodd" d="M179.081 123.468V111.715V110.65H178.015H176.357V111.715V142.885H178.015H179.081V130.556V129.491V124.533V123.468Z" fill="#FDD76F"/>
<path fill-rule="evenodd" clip-rule="evenodd" d="M179.079 107.755C179.079 107.106 178.552 106.579 177.903 106.579H175.184C175.828 106.579 176.356 107.106 176.356 107.755V110.65H178.014H179.079V107.755H179.079Z" fill="#6A5C6B"/>
<path fill-rule="evenodd" clip-rule="evenodd" d="M192.686 149.201L188.879 129.575C188.657 128.422 187.53 127.663 186.38 127.885L165.742 131.888C164.589 132.113 163.83 133.237 164.055 134.39L167.86 154.019C168.084 155.168 169.208 155.927 170.361 155.706L190.999 151.703C192.152 151.478 192.911 150.354 192.686 149.201Z" fill="#EFF6FF"/>
<path fill-rule="evenodd" clip-rule="evenodd" d="M171.892 151.064L187.608 148.015C187.996 147.94 188.27 147.641 188.211 147.351L187.081 141.673L186.253 137.52L183.433 138.067C181.068 138.527 179.781 139.129 178.84 139.794C178.439 140.074 178.104 140.364 177.775 140.66C177.4 140.996 177.035 141.334 176.599 141.673C175.407 142.595 173.68 143.494 169.801 144.188L170.631 148.338L171.084 150.673C171.14 150.963 171.505 151.139 171.892 151.064Z" fill="#A6E0FA"/>
<path fill-rule="evenodd" clip-rule="evenodd" d="M176.837 142.885C177.273 142.546 177.638 142.204 178.013 141.869C178.342 141.575 178.681 141.282 179.078 141.002C180.019 140.341 181.309 139.738 183.674 139.279L186.492 138.732L185.329 132.882C185.27 132.592 184.909 132.416 184.521 132.491L179.078 133.546L178.013 133.754L176.355 134.074L170.264 135.256L168.801 135.54C168.414 135.615 168.143 135.914 168.199 136.204L170.039 145.4C173.918 144.703 175.645 143.804 176.837 142.885Z" fill="#FDE588"/>
<path fill-rule="evenodd" clip-rule="evenodd" d="M186.492 138.732L185.33 132.882C185.271 132.592 184.909 132.416 184.522 132.491L182.141 132.953C182.525 132.882 182.883 133.057 182.939 133.347L184.105 139.194L186.492 138.732Z" fill="#FDD76F"/>
<path fill-rule="evenodd" clip-rule="evenodd" d="M187.318 142.885L186.491 138.732L184.104 139.194L184.836 142.885L184.931 143.348L185.82 147.813C185.876 148.103 185.605 148.403 185.218 148.478L187.605 148.015C187.993 147.94 188.266 147.641 188.208 147.351L187.318 142.885Z" fill="#75CEF9"/>
<path fill-rule="evenodd" clip-rule="evenodd" d="M189.942 135.061L188.877 129.575C188.873 129.546 188.867 129.517 188.86 129.491C188.642 128.572 187.847 127.921 186.938 127.852C186.753 127.839 186.567 127.849 186.378 127.885L181.219 128.888C181.942 128.748 182.658 128.999 183.141 129.491C183.421 129.774 183.626 130.139 183.711 130.556C183.711 130.562 183.714 130.569 183.714 130.575L184.101 132.572L184.522 132.491C184.909 132.416 185.271 132.592 185.329 132.882L186.492 138.732L187.32 142.885L188.209 147.351C188.268 147.641 187.994 147.94 187.606 148.015L187.115 148.11L187.522 150.204C187.743 151.351 186.991 152.471 185.844 152.703L190.997 151.703C192.15 151.478 192.909 150.354 192.685 149.201L191.46 142.885L189.942 135.061Z" fill="#D9EEFF"/>
<path d="M214.185 114.327H211.498C211.03 114.327 210.65 114.707 210.65 115.175C210.65 115.643 211.03 116.022 211.498 116.022H214.185C214.653 116.022 215.032 115.643 215.032 115.175C215.032 114.707 214.653 114.327 214.185 114.327Z" fill="black"/>
<path d="M199.109 118.415C194.37 118.415 190.516 122.272 190.516 127.012C190.516 131.75 194.37 135.605 199.109 135.605C203.849 135.605 207.705 131.75 207.705 127.012C207.705 122.272 203.849 118.415 199.109 118.415ZM199.109 133.911C195.305 133.911 192.21 130.816 192.21 127.012C192.21 123.206 195.305 120.11 199.109 120.11C202.914 120.11 206.01 123.206 206.01 127.012C206.01 130.816 202.914 133.911 199.109 133.911Z" fill="black"/>
<path d="M217.84 109.803H207.546L206.549 107.049C206.388 106.605 205.899 105.256 204.518 105.256H191.336C189.954 105.256 189.465 106.605 189.305 107.049L188.308 109.803H179.926V107.754C179.926 106.639 179.019 105.731 177.903 105.731H174.128C173.014 105.731 172.108 106.639 172.108 107.754V109.84C170.586 110.073 169.417 111.392 169.417 112.979V130.312L165.578 131.057C163.964 131.371 162.907 132.939 163.221 134.551L167.026 154.181C167.304 155.601 168.557 156.592 169.956 156.592C170.142 156.592 170.331 156.574 170.521 156.538L178.797 154.932C179.257 154.843 179.557 154.398 179.468 153.939C179.379 153.479 178.934 153.179 178.474 153.268L170.199 154.874C169.502 155.008 168.825 154.551 168.69 153.857L164.885 134.228C164.749 133.532 165.206 132.856 165.902 132.72L186.539 128.717C186.873 128.653 187.215 128.724 187.501 128.917C187.787 129.11 187.98 129.401 188.045 129.737L191.853 149.363C191.988 150.059 191.532 150.735 190.836 150.871L182.556 152.477C182.096 152.566 181.796 153.011 181.885 153.47C181.974 153.929 182.419 154.229 182.879 154.141L191.159 152.534C192.773 152.22 193.83 150.652 193.516 149.04L192.486 143.732H201.945C202.413 143.732 202.792 143.353 202.792 142.885C202.792 142.417 202.413 142.038 201.945 142.038H192.158L191.265 137.435C193.507 139.123 196.255 140.058 199.108 140.058C204.762 140.058 209.588 136.443 211.395 131.403H219.318V140.556C219.318 141.373 218.655 142.038 217.84 142.038H206.094C205.626 142.038 205.247 142.417 205.247 142.885C205.247 143.353 205.626 143.732 206.094 143.732H217.84C219.59 143.732 221.013 142.307 221.013 140.556V112.979C221.013 111.228 219.59 109.803 217.84 109.803ZM190.898 107.626C191.061 107.178 191.208 106.95 191.336 106.95H204.518C204.677 106.95 204.844 107.318 204.956 107.626L205.743 109.803H190.11L190.898 107.626ZM186.062 127.012C186.062 127.036 186.063 127.059 186.063 127.083L179.926 128.273V124.315H186.343C186.159 125.186 186.062 126.088 186.062 127.012ZM173.803 107.754C173.803 107.576 173.951 107.426 174.128 107.426H177.903C178.084 107.426 178.231 107.573 178.231 107.754V109.803H173.802V107.754H173.803ZM171.112 112.979C171.112 112.162 171.775 111.498 172.59 111.498H172.955H178.231V128.602L175.363 129.159V119.601C175.363 118.788 174.701 118.125 173.887 118.125H171.112V112.979ZM171.112 119.82H173.668V129.487L171.112 129.983V119.82ZM199.108 138.363C195.917 138.363 192.876 137.019 190.728 134.667L189.709 129.416C189.559 128.636 189.112 127.96 188.45 127.513C188.232 127.366 188 127.25 187.759 127.165C187.759 127.114 187.757 127.063 187.757 127.012C187.757 120.751 192.849 115.657 199.107 115.657C205.368 115.657 210.462 120.751 210.462 127.012C210.462 133.271 205.368 138.363 199.108 138.363ZM219.318 129.709H211.876C212.059 128.838 212.157 127.936 212.157 127.012C212.157 126.088 212.059 125.186 211.876 124.315H219.318V129.709ZM219.318 122.621H211.396C209.589 117.579 204.763 113.963 199.108 113.963C193.454 113.963 188.629 117.579 186.823 122.621H179.926V111.498H188.903H206.951H217.84C218.655 111.498 219.318 112.162 219.318 112.979V122.621Z" fill="black"/>
<path d="M188.838 148.163C189.037 147.866 189.11 147.518 189.042 147.185L186.162 132.714C186.009 131.957 185.219 131.494 184.363 131.659L168.644 134.708C167.784 134.874 167.224 135.601 167.371 136.371L170.252 150.832C170.316 151.167 170.514 151.461 170.809 151.661C171.068 151.837 171.385 151.929 171.714 151.929C171.827 151.929 171.941 151.918 172.054 151.896L187.77 148.847C188.215 148.761 188.605 148.512 188.838 148.163ZM170.709 144.41L169.095 136.347L184.561 133.347L185.499 138.062L183.516 138.447C179.734 139.181 178.478 140.313 177.264 141.408C176.088 142.469 174.873 143.564 170.709 144.41ZM171.858 150.208L171.463 148.171L171.042 146.071C175.667 145.13 177.115 143.825 178.399 142.667C179.537 141.641 180.519 140.755 183.839 140.111L185.83 139.724L187.319 147.209L171.858 150.208Z" fill="black"/>
</g>
</g>
<defs>
<clipPath id="clip0">
<path d="M0 8C0 5.19974 0 3.79961 0.544967 2.73005C1.02433 1.78924 1.78924 1.02433 2.73005 0.544967C3.79961 0 5.19974 0 8 0H376C378.8 0 380.2 0 381.27 0.544967C382.211 1.02433 382.976 1.78924 383.455 2.73005C384 3.79961 384 5.19974 384 8V290H0V8Z" fill="white"/>
</clipPath>
<clipPath id="clip1">
<rect width="57.8472" height="57.8472" fill="white" transform="translate(163.166 102)"/>
</clipPath>
</defs>
</svg>
