<svg width="38" height="38" viewBox="0 0 38 38" fill="none" xmlns="http://www.w3.org/2000/svg">
<path fill-rule="evenodd" clip-rule="evenodd" d="M29.146 19.0001C29.146 19.4181 28.842 19.5701 28.538 19.7221L14.288 26.3721C14.022 26.4861 13.908 26.6001 13.604 26.6001C13.186 26.6001 12.654 26.3341 12.654 25.8401V12.1601C12.654 11.6661 13.186 11.4001 13.604 11.4001C13.908 11.4001 14.022 11.5141 14.288 11.6281L28.538 18.2781C28.842 18.4301 29.146 18.5821 29.146 19.0001ZM38 19C38 8.512 29.488 0 19 0C8.512 0 0 8.512 0 19C0 29.488 8.512 38 19 38C29.488 38 38 29.488 38 19Z" fill="#219BB2" fill-opacity="0.3"/>
</svg>
