<svg width="45" height="45" viewBox="0 0 45 45" fill="none" xmlns="http://www.w3.org/2000/svg">
<path d="M40.6346 30.1504H39.0526C38.8894 30.1504 38.733 30.0856 38.6176 29.9702C38.5022 29.8548 38.4374 29.6983 38.4374 29.5352C38.4374 29.372 38.5022 29.2155 38.6176 29.1001C38.733 28.9847 38.8894 28.9199 39.0526 28.9199H40.6346C40.7978 28.9199 40.9543 28.9847 41.0697 29.1001C41.1851 29.2155 41.2499 29.372 41.2499 29.5352C41.2499 29.6983 41.1851 29.8548 41.0697 29.9702C40.9543 30.0856 40.7978 30.1504 40.6346 30.1504Z" fill="#F4A86C"/>
<path d="M19.6105 43.3302C19.4642 43.33 19.3228 43.2777 19.2116 43.1827C19.1004 43.0877 19.0267 42.9561 19.0037 42.8117C18.8938 42.0906 18.8507 41.3609 18.8751 40.632C18.8844 40.469 18.958 40.3165 19.0799 40.2078C19.2017 40.0992 19.3616 40.0434 19.5246 40.0528C19.6875 40.0621 19.8401 40.1358 19.9487 40.2576C20.0573 40.3794 20.1131 40.5393 20.1038 40.7023C20.0848 41.3439 20.1234 41.986 20.2191 42.6208C20.2329 42.7087 20.2275 42.7985 20.2033 42.8841C20.179 42.9697 20.1365 43.0491 20.0787 43.1167C20.0209 43.1843 19.9491 43.2386 19.8682 43.2758C19.7874 43.3131 19.6995 43.3323 19.6105 43.3323V43.3302Z" fill="#D38854"/>
<path d="M18.0946 42.8635C17.9564 42.8637 17.8221 42.8174 17.7134 42.732C17.6048 42.6466 17.528 42.5272 17.4955 42.3928C17.463 42.2585 17.4767 42.1171 17.5344 41.9915C17.592 41.8659 17.6903 41.7634 17.8133 41.7005C18.3291 41.4027 18.7352 40.9465 18.9714 40.3997C19.0006 40.3243 19.0444 40.2555 19.1002 40.1971C19.156 40.1386 19.2228 40.0918 19.2968 40.0592C19.3707 40.0266 19.4504 40.0088 19.5312 40.007C19.612 40.0052 19.6923 40.0193 19.7677 40.0485C19.843 40.0777 19.9119 40.1215 19.9703 40.1773C20.0287 40.2332 20.0756 40.2999 20.1082 40.3739C20.1408 40.4478 20.1585 40.5275 20.1604 40.6083C20.1622 40.6891 20.1481 40.7694 20.1189 40.8448C19.7724 41.6718 19.158 42.3584 18.3744 42.7942C18.288 42.8392 18.192 42.8629 18.0946 42.8635Z" fill="#D38854"/>
<path d="M21.9136 33.8962C21.8088 33.8959 21.7057 33.8689 21.6142 33.8177C21.5227 33.7665 21.4458 33.6928 21.3908 33.6035C21.3358 33.5142 21.3045 33.4124 21.2999 33.3076C21.2953 33.2029 21.3175 33.0987 21.3645 33.0049C24.7279 26.3066 22.8793 16.0287 21.3943 7.7705C21.0459 5.83304 20.7172 4.00315 20.4849 2.37155C20.4714 2.29067 20.4742 2.2079 20.4932 2.12813C20.5122 2.04835 20.5469 1.97317 20.5954 1.90701C20.6438 1.84085 20.705 1.78505 20.7753 1.74288C20.8456 1.7007 20.9237 1.67301 21.0049 1.66144C21.0861 1.64986 21.1687 1.65463 21.248 1.67546C21.3274 1.69629 21.4017 1.73277 21.4667 1.78275C21.5317 1.83273 21.5861 1.8952 21.6266 1.96649C21.6671 2.03778 21.693 2.11645 21.7027 2.19788C21.9322 3.80733 22.2588 5.62632 22.6055 7.55218C24.1228 15.9897 26.0111 26.4923 22.4649 33.5569C22.4137 33.6592 22.335 33.7452 22.2376 33.8051C22.1402 33.865 22.028 33.8966 21.9136 33.8962Z" fill="#8EC100"/>
<path d="M23.683 37.6331C24.4548 35.3394 23.8318 33.0599 22.2916 32.5416C20.7513 32.0233 18.877 33.4625 18.1052 35.7562C17.3334 38.0498 17.9563 40.3293 19.4966 40.8476C21.0369 41.3659 22.9112 39.9267 23.683 37.6331Z" fill="#F4A86C"/>
<path d="M24.8034 37.5352C23.9466 40.0763 21.569 41.5705 19.4892 40.8698C20.6494 37.4277 23.2843 35.0198 25.0998 35.3295C25.1463 36.0771 25.0456 36.8265 24.8034 37.5352Z" fill="#D38854"/>
<path d="M17.2782 34.998C16.4218 37.5391 17.4104 40.1685 19.4892 40.8691C20.6494 37.427 20.0099 33.9156 18.3776 33.0645C17.8881 33.6308 17.5146 34.2878 17.2782 34.998Z" fill="#D38854"/>
<path d="M28.1126 19.0301C29.9153 17.9055 30.8508 16.1506 30.2019 15.1105C29.5531 14.0705 27.5657 14.139 25.763 15.2635C23.9602 16.3881 23.0248 18.143 23.6736 19.1831C24.3224 20.2232 26.3098 20.1547 28.1126 19.0301Z" fill="#9ADB07"/>
<path d="M28.3603 9.91858C30.6999 8.35324 31.8644 5.99015 30.9614 4.64047C30.0584 3.29078 27.4297 3.4656 25.0902 5.03094C22.7506 6.59628 21.5861 8.95937 22.4891 10.3091C23.3921 11.6587 26.0208 11.4839 28.3603 9.91858Z" fill="#9ADB07"/>
<path d="M20.3126 10.4205C19.5592 10.0933 18.733 9.97019 17.917 10.0635C17.101 10.1568 16.3239 10.4633 15.6639 10.952C15.7579 11.7679 16.0649 12.5447 16.5541 13.2044C17.0432 13.8641 17.6974 14.3835 18.4508 14.7105C19.2041 15.0375 20.0303 15.1605 20.8462 15.0672C21.6622 14.9739 22.4393 14.6676 23.0994 14.179C23.0057 13.3631 22.6988 12.5862 22.2096 11.9264C21.7204 11.2666 21.0661 10.7473 20.3126 10.4205Z" fill="#9ADB07"/>
<path d="M42.7148 26.9824H2.28516C2.12199 26.9824 1.9655 26.9176 1.85012 26.8022C1.73474 26.6868 1.66992 26.5304 1.66992 26.3672C1.66992 26.204 1.73474 26.0475 1.85012 25.9322C1.9655 25.8168 2.12199 25.752 2.28516 25.752H42.7148C42.878 25.752 43.0345 25.8168 43.1499 25.9322C43.2653 26.0475 43.3301 26.204 43.3301 26.3672C43.3301 26.5304 43.2653 26.6868 43.1499 26.8022C43.0345 26.9176 42.878 26.9824 42.7148 26.9824Z" fill="#F4A86C"/>
<path d="M8.84777 30.9668H5.97656C5.81339 30.9668 5.6569 30.902 5.54153 30.7866C5.42615 30.6712 5.36133 30.5147 5.36133 30.3516C5.36133 30.1884 5.42615 30.0319 5.54153 29.9165C5.6569 29.8011 5.81339 29.7363 5.97656 29.7363H8.84777C9.01094 29.7363 9.16743 29.8011 9.28281 29.9165C9.39819 30.0319 9.46301 30.1884 9.46301 30.3516C9.46301 30.5147 9.39819 30.6712 9.28281 30.7866C9.16743 30.902 9.01094 30.9668 8.84777 30.9668Z" fill="#F4A86C"/>
<path d="M17.3437 29.7363H15.2227C15.0595 29.7363 14.9031 29.6715 14.7877 29.5561C14.6723 29.4408 14.6075 29.2843 14.6075 29.1211C14.6075 28.9579 14.6723 28.8014 14.7877 28.6861C14.9031 28.5707 15.0595 28.5059 15.2227 28.5059H17.3433C17.5065 28.5059 17.663 28.5707 17.7784 28.6861C17.8938 28.8014 17.9586 28.9579 17.9586 29.1211C17.9586 29.2843 17.8938 29.4408 17.7784 29.5561C17.663 29.6715 17.5065 29.7363 17.3433 29.7363H17.3437Z" fill="#F4A86C"/>
<path d="M13.1748 34.834H8.84778C8.68461 34.834 8.52812 34.7692 8.41274 34.6538C8.29736 34.5384 8.23254 34.3819 8.23254 34.2188C8.23254 34.0556 8.29736 33.8991 8.41274 33.7837C8.52812 33.6683 8.68461 33.6035 8.84778 33.6035H13.1748C13.338 33.6035 13.4945 33.6683 13.6098 33.7837C13.7252 33.8991 13.79 34.0556 13.79 34.2188C13.79 34.3819 13.7252 34.5384 13.6098 34.6538C13.4945 34.7692 13.338 34.834 13.1748 34.834Z" fill="#F4A86C"/>
<path d="M8.08594 39.4629H5.15637C4.9932 39.4629 4.83671 39.3981 4.72134 39.2827C4.60596 39.1673 4.54114 39.0108 4.54114 38.8477C4.54114 38.6845 4.60596 38.528 4.72134 38.4126C4.83671 38.2972 4.9932 38.2324 5.15637 38.2324H8.08594C8.24911 38.2324 8.4056 38.2972 8.52098 38.4126C8.63636 38.528 8.70118 38.6845 8.70118 38.8477C8.70118 39.0108 8.63636 39.1673 8.52098 39.2827C8.4056 39.3981 8.24911 39.4629 8.08594 39.4629Z" fill="#F4A86C"/>
<path d="M33.9845 30.9668H30.9375C30.7743 30.9668 30.6178 30.902 30.5025 30.7866C30.3871 30.6712 30.3223 30.5147 30.3223 30.3516C30.3223 30.1884 30.3871 30.0319 30.5025 29.9165C30.6178 29.8011 30.7743 29.7363 30.9375 29.7363H33.9845C34.1477 29.7363 34.3041 29.8011 34.4195 29.9165C34.5349 30.0319 34.5997 30.1884 34.5997 30.3516C34.5997 30.5147 34.5349 30.6712 34.4195 30.7866C34.3041 30.902 34.1477 30.9668 33.9845 30.9668Z" fill="#F4A86C"/>
<path d="M33.5155 35.1855H30.9083C30.7452 35.1855 30.5887 35.1207 30.4733 35.0053C30.3579 34.89 30.2931 34.7335 30.2931 34.5703C30.2931 34.4071 30.3579 34.2507 30.4733 34.1353C30.5887 34.0199 30.7452 33.9551 30.9083 33.9551H33.5155C33.6787 33.9551 33.8352 34.0199 33.9505 34.1353C34.0659 34.2507 34.1307 34.4071 34.1307 34.5703C34.1307 34.7335 34.0659 34.89 33.9505 35.0053C33.8352 35.1207 33.6787 35.1855 33.5155 35.1855Z" fill="#F4A86C"/>
<path d="M37.5789 38.7881H35.4111C35.248 38.7881 35.0915 38.7233 34.9761 38.6079C34.8607 38.4925 34.7959 38.336 34.7959 38.1729C34.7959 38.0097 34.8607 37.8532 34.9761 37.7378C35.0915 37.6224 35.248 37.5576 35.4111 37.5576H37.5789C37.742 37.5576 37.8985 37.6224 38.0139 37.7378C38.1293 37.8532 38.1941 38.0097 38.1941 38.1729C38.1941 38.336 38.1293 38.4925 38.0139 38.6079C37.8985 38.7233 37.742 38.7881 37.5789 38.7881Z" fill="#F4A86C"/>
<path d="M22.4926 10.9263C22.3784 10.9263 22.2664 10.8945 22.1692 10.8344C22.072 10.7744 21.9934 10.6884 21.9423 10.5862C21.8912 10.484 21.8696 10.3696 21.8799 10.2558C21.8901 10.142 21.9319 10.0334 22.0004 9.94195C23.3508 8.15249 27.237 6.13136 27.4015 6.04593C27.546 5.97529 27.7124 5.96403 27.8651 6.01455C28.0179 6.06507 28.1447 6.17337 28.2186 6.31626C28.2925 6.45915 28.3075 6.62528 28.2605 6.7791C28.2134 6.93292 28.108 7.0622 27.9668 7.13929C27.9288 7.15862 24.1646 9.11648 22.983 10.683C22.9256 10.7587 22.8515 10.8201 22.7664 10.8623C22.6813 10.9045 22.5876 10.9264 22.4926 10.9263Z" fill="#8EC100"/>
<path d="M23.6893 19.7927C23.5662 19.7927 23.4458 19.7556 23.3439 19.6864C23.242 19.6172 23.1633 19.519 23.1178 19.4045C23.0724 19.29 23.0623 19.1645 23.089 19.0442C23.1157 18.924 23.1779 18.8145 23.2675 18.73C24.2132 17.8366 26.7346 16.4416 26.8414 16.3826C26.9123 16.3422 26.9904 16.3163 27.0713 16.3063C27.1522 16.2964 27.2343 16.3027 27.3128 16.3247C27.3913 16.3468 27.4646 16.3842 27.5285 16.4349C27.5923 16.4855 27.6455 16.5483 27.6849 16.6197C27.7243 16.6911 27.7491 16.7696 27.7579 16.8506C27.7667 16.9317 27.7593 17.0137 27.7361 17.0918C27.713 17.17 27.6745 17.2428 27.623 17.3059C27.5714 17.3691 27.5079 17.4214 27.4359 17.4598C26.7458 17.8405 24.8034 18.9715 24.1119 19.6247C23.9979 19.7329 23.8466 19.7931 23.6893 19.7927Z" fill="#8EC100"/>
<path d="M23.0998 14.7947C23.0074 14.7948 22.9161 14.7741 22.8329 14.734C22.7496 14.694 22.6764 14.6357 22.6188 14.5634C22.2855 14.1461 20.1783 13.0932 19.2983 12.9729C19.2183 12.962 19.1411 12.9354 19.0714 12.8946C19.0016 12.8539 18.9405 12.7998 18.8917 12.7355C18.8428 12.6711 18.8071 12.5978 18.7865 12.5196C18.766 12.4415 18.7611 12.3601 18.772 12.28C18.783 12.1999 18.8096 12.1228 18.8503 12.0531C18.8911 11.9833 18.9451 11.9222 19.0095 11.8733C19.0738 11.8245 19.1472 11.7888 19.2253 11.7682C19.3035 11.7477 19.3849 11.7428 19.465 11.7537C20.5411 11.901 22.9781 13.0418 23.58 13.7956C23.6523 13.8861 23.6975 13.9951 23.7106 14.1102C23.7236 14.2252 23.7039 14.3417 23.6537 14.446C23.6036 14.5504 23.525 14.6385 23.427 14.7002C23.329 14.7619 23.2156 14.7946 23.0998 14.7947Z" fill="#8EC100"/>
</svg>
