<svg width="28" height="28" xmlns="http://www.w3.org/2000/svg">
 <defs>
  <clipPath id="clip0">
   <rect width="24.667" height="24.667" fill="white" transform="rotate(-45 0.891601979732507,18.33399963378906) " y="18.334" x="0.8916" id="svg_1"/>
  </clipPath>
 </defs>
 <g>
  <title>background</title>
  <rect x="-1" y="-1" width="30" height="30" id="canvas_background" fill="none"/>
 </g>
 <g>
  <title>Layer 1</title>
  <g clip-path="url(#clip0)" id="svg_2" stroke="null">
   <path d="m6.94739,21.06712c-1.49134,-1.4913 -1.49134,-3.9157 0,-5.407l3.4884,-3.4885l-1.657,-1.657l-3.48839,3.4885c-2.40702,2.407 -2.40706,6.314 -0.00004,8.721c2.40703,2.4071 6.31413,2.4071 8.72113,0l3.4884,-3.4884l-1.657,-1.657l-3.4884,3.4885c-1.4913,1.4913 -3.9158,1.4913 -5.4071,-0.0001z" fill="#219BB2" id="svg_3" stroke="null"/>
   <path d="m16.62739,9.64212l-6.9768,6.9769l1.7442,1.7442l6.9769,-6.9769l-1.7443,-1.7442z" fill="#219BB2" id="svg_4" stroke="null"/>
   <path d="m14.01099,5.28147l-3.4884,3.48845l1.657,1.657l3.4884,-3.4885c1.4913,-1.49126 3.9158,-1.49126 5.4071,0c1.4913,1.4914 1.4913,3.9158 0,5.4071l-3.4884,3.4885l1.657,1.657l3.4884,-3.4885c2.407,-2.407 2.407,-6.3141 0,-8.72109c-2.407,-2.40702 -6.314,-2.40698 -8.7211,0.00004z" fill="#219BB2" id="svg_5" stroke="null"/>
  </g>
 </g>
</svg>