<svg width="40" height="40" viewBox="0 0 40 40" fill="none" xmlns="http://www.w3.org/2000/svg">
<path d="M22.3677 38.7816L28.9965 34.9547C32.9034 32.6992 35.3101 28.5307 35.3101 24.0195V7.68326C35.3101 6.8417 34.6532 6.14232 33.8127 6.09951C26.7093 5.73771 22.8518 2.84482 21.1296 1.06365C20.5136 0.426699 19.4869 0.426699 18.871 1.06365C17.1488 2.84482 13.2912 5.73771 6.18785 6.09951C5.34738 6.14232 4.69043 6.8417 4.69043 7.68326V24.0195C4.69043 28.5307 7.09715 32.6992 11.004 34.9547L17.6329 38.7816C19.0979 39.6274 20.9027 39.6274 22.3677 38.7816Z" fill="#95D6A4"/>
<path d="M15.4237 33.1789C12.4403 33.1789 9.60758 32.5345 7.05664 31.3777C8.08656 32.8143 9.4225 34.0415 11.0046 34.955L17.6334 38.7819C19.0984 39.6277 20.9033 39.6277 22.3683 38.7819L28.9971 34.955C32.904 32.6995 35.3107 28.531 35.3107 24.0198V16.8936C33.4547 26.1807 25.2568 33.1789 15.4237 33.1789Z" fill="#78C2A4"/>
<path d="M20.0008 36.259C19.7241 36.259 19.4513 36.1859 19.2116 36.0476L12.5828 32.2206C9.66203 30.5344 7.84766 27.3918 7.84766 24.0193V9.84273C7.84766 9.44617 8.14195 9.10984 8.53539 9.06031C13.7967 8.39828 17.334 6.44203 19.5136 4.72281C19.7995 4.49734 20.2022 4.49734 20.488 4.72281C22.6677 6.44211 26.2049 8.39828 31.4662 9.06031C31.8597 9.10984 32.154 9.44617 32.154 9.84273V24.0193C32.154 27.3919 30.3396 30.5345 27.4188 32.2207L20.79 36.0477C20.5503 36.1859 20.2774 36.259 20.0008 36.259Z" fill="#FFE07D"/>
<path d="M12.7398 30.4952C11.9055 30.4952 11.0833 30.4437 10.2754 30.3458C10.9327 31.0791 11.7073 31.7156 12.582 32.2206L19.2109 36.0476C19.4505 36.1859 19.7234 36.259 20 36.259C20.2766 36.259 20.5495 36.1859 20.7891 36.0476L27.418 32.2206C30.3388 30.5344 32.1531 27.3918 32.1531 24.0192V16.0977C29.6313 24.4291 21.8945 30.4952 12.7398 30.4952Z" fill="#FFD064"/>
<path d="M25.9992 19.4471H23.4739V14.5543C23.4739 12.6396 21.9163 11.082 20.0016 11.082C18.0869 11.082 16.5292 12.6396 16.5292 14.5543V16.1327H14.0039V14.5543C14.0039 11.2472 16.6945 8.55664 20.0016 8.55664C23.3087 8.55664 25.9992 11.2472 25.9992 14.5543V19.4471Z" fill="#F4FBFF"/>
<path d="M23.4727 17.5527H25.998V19.4467H23.4727V17.5527Z" fill="#DDEAFB"/>
<path d="M26.3133 29.7064H13.6866C13.2507 29.7064 12.8975 29.353 12.8975 28.9173V20.2364C12.8975 19.8005 13.2508 19.4473 13.6866 19.4473H26.3133C26.7491 19.4473 27.1024 19.8006 27.1024 20.2364V28.9173C27.1025 29.353 26.7491 29.7064 26.3133 29.7064Z" fill="#6B61B1"/>
<path d="M26.3133 19.4473H24.5771C25.013 19.4473 25.3663 19.8006 25.3663 20.2364V28.9173C25.3663 29.3531 25.013 29.7064 24.5771 29.7064H26.3133C26.7492 29.7064 27.1025 29.353 27.1025 28.9173V20.2364C27.1025 19.8005 26.7492 19.4473 26.3133 19.4473Z" fill="#5E54AC"/>
<path d="M19.9998 24.6558C20.7407 24.6558 21.3413 24.0551 21.3413 23.3142C21.3413 22.5733 20.7407 21.9727 19.9998 21.9727C19.2588 21.9727 18.6582 22.5733 18.6582 23.3142C18.6582 24.0551 19.2588 24.6558 19.9998 24.6558Z" fill="#3D4FC3"/>
<path d="M35.3107 12.3336C35.6343 12.3336 35.8966 12.0712 35.8966 11.7477V7.68336C35.8966 6.52609 34.9945 5.57336 33.8428 5.51445C26.8934 5.16055 23.1586 2.31867 21.5507 0.656172C21.1417 0.233047 20.5911 0 20.0006 0C19.41 0 18.8595 0.233047 18.4504 0.656172C16.8425 2.31867 13.1077 5.16062 6.15824 5.51453C5.00668 5.57336 4.10449 6.52609 4.10449 7.68336V24.0193C4.10449 28.7247 6.63598 33.1095 10.7111 35.4624L17.3403 39.2891C18.1608 39.763 19.0806 39.9999 20.0007 39.9999C20.9204 39.9999 21.8405 39.763 22.6608 39.2891L29.2901 35.4623C33.3652 33.1094 35.8967 28.7247 35.8967 24.0192V14.4821C35.8967 14.1585 35.6343 13.8962 35.3107 13.8962C34.9871 13.8962 34.7248 14.1585 34.7248 14.4821V24.0193C34.7248 28.3073 32.4179 32.3032 28.7043 34.4474L22.0749 38.2742C20.7953 39.0133 19.2059 39.0132 17.9263 38.2741L11.2971 34.4474C7.58348 32.3031 5.27652 28.3073 5.27652 24.0192V7.68328C5.27652 7.15039 5.69012 6.7118 6.21809 6.68484C13.5689 6.31055 17.565 3.25742 19.2929 1.47078C19.4793 1.27805 19.7307 1.17188 20.0007 1.17188C20.2707 1.17188 20.522 1.27797 20.7084 1.47078C22.4362 3.25734 26.4324 6.31047 33.7832 6.68484C34.3112 6.71187 34.7248 7.15047 34.7248 7.68328V11.7475C34.7247 12.0712 34.9871 12.3336 35.3107 12.3336Z" fill="black"/>
<path d="M7.84863 19.9131C7.52496 19.9131 7.2627 20.1754 7.2627 20.499V24.0195C7.2627 27.6005 9.1891 30.9377 12.2903 32.729L18.9198 36.5558C19.2489 36.7456 19.6229 36.8459 20.0016 36.8459C20.3803 36.8459 20.7543 36.7456 21.0836 36.5557L27.713 32.7289C30.814 30.9377 32.7405 27.6005 32.7405 24.0195V9.84302C32.7405 9.1513 32.2243 8.56505 31.5401 8.47958C26.2846 7.81856 22.8272 5.82185 20.8523 4.26341C20.3516 3.86802 19.6519 3.86786 19.1511 4.26333C17.1761 5.82192 13.7187 7.81864 8.46371 8.47958C7.7791 8.56513 7.26285 9.1513 7.26285 9.84302V17.7645C7.26285 18.0881 7.5252 18.3504 7.84879 18.3504C8.17238 18.3504 8.43473 18.0881 8.43473 17.7645V9.84302C8.43473 9.74106 8.50965 9.65481 8.60934 9.64239C14.1325 8.94763 17.7854 6.83403 19.8772 5.18317C19.9506 5.12536 20.0529 5.12536 20.1262 5.18325C22.218 6.83403 25.8708 8.94763 31.3944 9.64239C31.4937 9.65481 31.5686 9.74106 31.5686 9.84302V24.0195C31.5686 27.1833 29.8667 30.1316 27.1272 31.714L20.498 35.5406C20.1954 35.715 19.8078 35.715 19.5056 35.5407L12.8764 31.714C10.1367 30.1316 8.43473 27.1833 8.43473 24.0195V20.499C8.43457 20.1754 8.1723 19.9131 7.84863 19.9131Z" fill="black"/>
<path d="M13.6866 18.8612C12.9283 18.8612 12.3115 19.478 12.3115 20.2362V28.9171C12.3115 29.6753 12.9284 30.2922 13.6866 30.2922H26.3137C27.072 30.2922 27.6888 29.6753 27.6888 28.9171V24.6809C27.6888 24.3573 27.4264 24.095 27.1029 24.095C26.7792 24.095 26.5169 24.3573 26.5169 24.6809V28.9171C26.5169 29.0291 26.4257 29.1202 26.3137 29.1202H13.6866C13.5746 29.1202 13.4834 29.0291 13.4834 28.9171V20.2362C13.4834 20.1242 13.5746 20.0331 13.6866 20.0331H26.3137C26.4257 20.0331 26.5169 20.1242 26.5169 20.2362V21.9465C26.5169 22.2701 26.7793 22.5324 27.1029 22.5324C27.4265 22.5324 27.6888 22.2701 27.6888 21.9465V20.2362C27.6888 19.5705 27.2131 19.0141 26.5838 18.8882V14.5543C26.5838 10.9241 23.6304 7.9707 20.0001 7.9707C16.3699 7.9707 13.4164 10.9241 13.4164 14.5543V16.1327C13.4164 16.4562 13.6788 16.7186 14.0024 16.7186H16.5278C16.8514 16.7186 17.1137 16.4562 17.1137 16.1327V14.5543C17.1137 12.9627 18.4085 11.668 20 11.668C21.5916 11.668 22.8864 12.9628 22.8864 14.5543V18.8612H13.6866V18.8612ZM20.0001 10.4959C17.7624 10.4959 15.9418 12.3165 15.9418 14.5542V15.5466H14.5884V14.5542C14.5884 11.5702 17.0161 9.14258 20.0001 9.14258C22.9841 9.14258 25.4118 11.5702 25.4118 14.5542V18.8612H24.0584V14.5542C24.0584 12.3165 22.2379 10.4959 20.0001 10.4959Z" fill="black"/>
<path d="M20.0008 27.7671C20.3245 27.7671 20.5868 27.5048 20.5868 27.1812V25.1505C21.3639 24.9019 21.9284 24.1729 21.9284 23.3143C21.9284 22.2514 21.0637 21.3867 20.0008 21.3867C18.9379 21.3867 18.0732 22.2514 18.0732 23.3143C18.0732 24.1729 18.6376 24.902 19.4149 25.1505V27.1812C19.4149 27.5048 19.6771 27.7671 20.0008 27.7671ZM20.0008 22.5586C20.4175 22.5586 20.7564 22.8976 20.7564 23.3142C20.7564 23.7309 20.4175 24.0698 20.0008 24.0698C19.5842 24.0698 19.2452 23.7309 19.2452 23.3142C19.2452 22.8976 19.5842 22.5586 20.0008 22.5586Z" fill="black"/>
</svg>
