<svg width="60" height="60" viewBox="0 0 60 60" fill="none" xmlns="http://www.w3.org/2000/svg">
<g opacity="0.5" clip-path="url(#clip0)">
<path d="M12.4113 45.5719L8.58595 41.5008C7.35783 40.1937 6.67416 38.4677 6.67416 36.6741V22.2584C6.67416 20.9686 5.77815 19.852 4.51909 19.5726C2.80113 19.1913 1.17188 20.4986 1.17188 22.2584V40.4284C1.17188 42.5525 1.83234 44.624 3.06198 46.356L5.15178 49.2999L10.1514 56.3427L11.9156 58.8279H25.2443L23.3243 49.6768C22.4587 45.5512 20.0168 41.9263 16.5186 39.5742L12.4193 36.8178C11.1978 35.9965 9.55719 36.206 8.58126 37.3076C7.49587 38.5328 7.52458 40.3833 8.64794 41.5738C10.8927 43.9525 14.2325 47.5089 14.2325 47.5089" fill="#FFCDAC"/>
<path d="M47.5889 45.5719L51.4142 41.5008C52.6424 40.1937 53.326 38.4677 53.326 36.6741V22.2584C53.326 20.9686 54.222 19.852 55.4811 19.5726C57.1991 19.1913 58.8283 20.4986 58.8283 22.2584V40.4284C58.8283 42.5525 58.1678 44.624 56.9382 46.356L54.8484 49.2999L49.8487 56.3427L48.0846 58.8279H34.7559L36.6759 49.6768C37.5415 45.5512 39.9833 41.9263 43.4816 39.5742L47.5809 36.8178C48.8024 35.9965 50.443 36.206 51.4189 37.3076C52.5043 38.5328 52.4756 40.3833 51.3522 41.5738C49.1075 43.9525 45.7677 47.5089 45.7677 47.5089" fill="#FFCDAC"/>
<path d="M32.8281 24.8062C33.3876 24.2253 34.1112 23.7963 34.9391 23.5979L37.9314 22.8808L37.9327 22.8828L37.9314 22.8808V21.054H41.5855V22.8866L44.57 23.5996C46.5215 24.0658 47.8984 25.8102 47.8984 27.8167V30.0053H41.2828L32.8281 24.8062Z" fill="#7D9BFF"/>
<path d="M27.1865 24.8003C26.627 24.2194 25.9034 23.7904 25.0755 23.592L22.0832 22.8749L22.0819 22.8769L22.0832 22.8749V21.0481H18.4291V22.8808L15.4446 23.5938C13.493 24.0599 12.1162 25.8044 12.1162 27.8108V29.9994H18.7318L27.1865 24.8003Z" fill="#7D9BFF"/>
<path d="M27.4588 24.7346L23.2909 25.7334C20.5746 26.3844 18.6592 28.8131 18.6592 31.6062V35.8202H41.3412V31.6097C41.3412 28.815 39.4236 26.3853 36.7053 25.736L32.5483 24.7429" fill="#78D2FA"/>
<path d="M32.5474 22.1902V24.7428L30.004 30.5272L27.458 24.7347V22.1902" fill="#FFB487"/>
<path d="M35.6879 13.4238V16.9482C35.6879 20.0813 33.1479 22.6212 30.0148 22.6212C26.8817 22.6212 24.3418 20.0813 24.3418 16.9482V13.4238" fill="#FFCDAC"/>
<path d="M30.0148 7.5C26.8817 7.5 24.3418 10.0399 24.3418 13.173V14.5387H27.1155C28.9593 14.5387 30.7086 13.7224 31.8927 12.3091L35.6879 14.5387V13.173C35.6879 10.0399 33.1481 7.5 30.0148 7.5Z" fill="#BEBEBE"/>
<path d="M24.3315 15.5547V14.5742C24.3315 12.3248 22.5079 10.5012 20.2585 10.5012C18.0091 10.5012 16.1855 12.3248 16.1855 14.5742V15.5547H18.9931C20.7513 15.5547 22.4765 15.0774 23.9846 14.1736" fill="#F5B955"/>
<path d="M24.3315 14.7542V17.2845C24.3315 19.5339 22.5079 21.3574 20.2585 21.3574C18.0091 21.3574 16.1855 19.5339 16.1855 17.2845V14.7542" fill="#FFCDAC"/>
<path d="M35.6836 15.5605V14.58C35.6836 12.3306 37.5071 10.5071 39.7565 10.5071C42.006 10.5071 43.8295 12.3306 43.8295 14.58V15.5605H41.0219C39.2638 15.5605 37.5385 15.0832 36.0305 14.1795" fill="#F5B955"/>
<path d="M35.6836 14.7603V17.2906C35.6836 19.54 37.5071 21.3635 39.7565 21.3635C42.006 21.3635 43.8295 19.54 43.8295 17.2906V14.7603" fill="#FFCDAC"/>
<path d="M11.107 55.6643C10.7325 55.1365 10.0009 55.0124 9.47309 55.3871C8.9454 55.7617 8.82118 56.4932 9.19595 57.021L10.9602 59.5062C11.1887 59.8281 11.5499 59.9998 11.9168 59.9998C12.1514 59.9998 12.3882 59.9295 12.5941 59.7833C13.1218 59.4087 13.246 58.6772 12.8713 58.1494L11.107 55.6643Z" fill="black"/>
<path d="M24.4711 49.4362C23.5375 44.9864 20.9453 41.1387 17.1724 38.6017L13.073 35.8452C11.4293 34.7402 9.21981 34.9778 7.84591 36.3788V22.2582C7.84591 20.4048 6.58228 18.83 4.77291 18.4284C3.60514 18.169 2.40069 18.45 1.46777 19.1985C0.534959 19.9469 0 21.0622 0 22.2582V40.4283C0 42.8087 0.728435 45.0931 2.10644 47.0343L4.19623 49.9781C4.42475 50.3 4.78592 50.4717 5.15283 50.4717C5.38744 50.4717 5.62427 50.4014 5.83017 50.2553C6.35787 49.8806 6.48208 49.1491 6.10732 48.6213L4.01752 45.6775C2.92253 44.1349 2.34374 42.3198 2.34374 40.4282V22.2582C2.34374 21.7768 2.55913 21.3279 2.9346 21.0265C3.30995 20.7252 3.79475 20.6121 4.26514 20.7165C4.99346 20.8781 5.50217 21.5121 5.50217 22.2582V36.6741C5.50217 38.7148 6.25193 40.659 7.61399 42.1717C7.67235 42.2417 7.73235 42.3109 7.79575 42.3781C8.57399 43.2027 9.48899 44.1744 10.3508 45.0904L11.5572 46.3744C11.5611 46.3785 11.5653 46.382 11.5693 46.386C12.6014 47.4837 13.3625 48.2943 13.3784 48.3111C13.8213 48.7828 14.5631 48.8062 15.0349 48.3632C15.5067 47.9201 15.53 47.1785 15.0868 46.7067C15.0654 46.684 13.6937 45.2232 12.1271 43.5581L9.44012 40.6984C9.43332 40.6912 9.42711 40.6835 9.42031 40.6763C8.79032 39.9228 8.79817 38.8302 9.45852 38.0847C10.0427 37.4254 11.0346 37.2988 11.7655 37.7902L15.8645 40.5467C19.128 42.741 21.3699 46.0689 22.1773 49.9175L24.0974 59.0685C24.2133 59.6208 24.7004 60 25.2431 60C25.3228 60 25.4038 59.9917 25.4849 59.9748C26.1183 59.8419 26.524 59.2205 26.3911 58.5871L24.4711 49.4362Z" fill="black"/>
<path d="M8.67471 52.2381C8.29854 51.7113 7.56683 51.5889 7.04007 51.9649C6.51331 52.3408 6.39097 53.0726 6.76679 53.5994L6.77429 53.6099C7.00304 53.9304 7.36339 54.1013 7.72925 54.1013C7.96479 54.1013 8.20257 54.0305 8.40893 53.8832C8.93569 53.5073 9.05803 52.7754 8.68221 52.2487L8.67471 52.2381Z" fill="black"/>
<path d="M58.5325 19.1988C57.5997 18.4503 56.3947 18.1697 55.2275 18.4287C53.4181 18.8302 52.1544 20.4051 52.1544 22.2585V36.3791C50.7806 34.9781 48.5709 34.7405 46.9273 35.8455L42.8279 38.6019C39.0549 41.1388 36.4628 44.9866 35.5292 49.4364L33.6092 58.5875C33.4763 59.2209 33.882 59.8421 34.5154 59.975C34.5965 59.992 34.6776 60.0002 34.7572 60.0002C35.3 60.0002 35.787 59.6209 35.9029 59.0686L37.8229 49.9176C38.6304 46.0691 40.8722 42.7411 44.1356 40.5469L48.235 37.7905C48.9656 37.299 49.9575 37.4256 50.5419 38.0849C51.2014 38.8295 51.2102 39.9203 50.5826 40.6738C50.5751 40.682 50.5679 40.6904 50.5604 40.6986C50.5604 40.6986 44.9349 46.6844 44.9136 46.7069C44.4706 47.1787 44.4939 47.9203 44.9656 48.3634C45.4373 48.8064 46.1789 48.7831 46.622 48.3113C46.6379 48.2944 51.4264 43.203 52.2047 42.3784C52.2681 42.3112 52.3281 42.242 52.3864 42.172C53.7484 40.6594 54.4983 38.7151 54.4983 36.6744V22.2584C54.4983 21.5123 55.007 20.8783 55.7354 20.7167C56.2057 20.6124 56.6903 20.7255 57.0659 21.0266C57.4414 21.3279 57.6568 21.7769 57.6568 22.2584V40.4285C57.6568 42.3201 57.078 44.1352 55.983 45.6778L47.1294 58.1497C46.7548 58.6773 46.8789 59.4089 47.4066 59.7836C47.6126 59.9297 47.8493 60 48.0839 60C48.4507 60 48.812 59.8282 49.0405 59.5064L57.8941 47.0346C59.2721 45.0934 60.0005 42.809 60.0005 40.4286V22.2584C60.0002 21.0624 59.4653 19.9472 58.5325 19.1988Z" fill="black"/>
<path d="M41.3411 36.9921C41.9882 36.9921 42.513 36.4675 42.513 35.8202V31.6098C42.513 31.4646 42.5071 31.3207 42.4987 31.1774H47.8989C48.546 31.1774 49.0708 30.6528 49.0708 30.0055V27.8169C49.0708 25.2576 47.3322 23.0547 44.8428 22.4601L42.7579 21.962V21.5882C44.113 20.639 45.0015 19.0672 45.0015 17.2909V14.5804C45.0015 11.6884 42.6487 9.33561 39.7566 9.33561C38.4588 9.33561 37.2705 9.81045 36.3538 10.5942C35.3331 8.0946 32.8769 6.32812 30.0149 6.32812C27.1492 6.32812 24.6906 8.09917 23.6723 10.6036C22.7541 9.81421 21.5615 9.33538 20.2584 9.33538C17.3663 9.33538 15.0135 11.6881 15.0135 14.5802V14.7603V17.2906C15.0135 19.0669 15.9021 20.6388 17.2571 21.588V21.9618L15.1722 22.4599C12.6829 23.0546 10.9443 25.2573 10.9443 27.8167V30.0053C10.9443 30.6525 11.4691 31.1772 12.1162 31.1772H17.5012C17.4929 31.3193 17.4871 31.4622 17.4871 31.6062V35.82C17.4871 36.4672 18.0119 36.9919 18.659 36.9919H25.7031C26.3502 36.9919 26.875 36.4672 26.875 35.82C26.875 35.1728 26.3502 34.6481 25.7031 34.6481H24.4923V32.2265C24.4923 31.5792 23.9676 31.0546 23.3205 31.0546C22.6734 31.0546 22.1486 31.5792 22.1486 32.2265V34.6484H19.831V31.6064C19.831 29.3462 21.3661 27.3999 23.5639 26.8732L26.7797 26.1026L28.9318 30.9989C29.1189 31.4244 29.5398 31.6992 30.0045 31.6992H30.0046C30.4693 31.6992 30.8903 31.4245 31.0773 30.999L33.2272 26.11L36.4329 26.8758C38.6327 27.4014 40.1691 29.348 40.1691 31.6098V34.6484H37.8515V32.2265C37.8515 31.5792 37.3268 31.0546 36.6797 31.0546C36.0326 31.0546 35.5078 31.5792 35.5078 32.2265V34.6484H34.1797C33.5326 34.6484 33.0078 35.173 33.0078 35.8202C33.0078 36.4675 33.5326 36.9921 34.1797 36.9921H41.3411ZM26.2867 22.7747C25.9856 22.642 25.6718 22.5358 25.3484 22.4583L23.255 21.9567V21.5915C23.6328 21.3275 23.9744 21.0154 24.2706 20.6636C24.794 21.4699 25.4816 22.1593 26.2867 22.6844V22.7747ZM17.3574 17.2906V16.7325H18.993C20.4277 16.7325 21.8433 16.448 23.1596 15.9027V17.2905C23.1596 18.8901 21.8582 20.1916 20.2585 20.1916C18.6588 20.1916 17.3574 18.8903 17.3574 17.2906ZM25.5138 16.9482V15.7105H27.1157C28.974 15.7105 30.741 15.0194 32.0952 13.7868L34.5118 15.2067V17.1196C34.4212 19.5223 32.4395 21.4494 30.015 21.4494C27.533 21.4495 25.5138 19.4302 25.5138 16.9482ZM33.72 22.7785V22.6992C34.5316 22.1744 35.2254 21.4832 35.7528 20.6735C36.0471 21.0213 36.3858 21.3299 36.7599 21.5915V21.9567L34.6664 22.4583C34.3401 22.5366 34.0235 22.6441 33.72 22.7785ZM36.8556 17.2906V17.1195C36.857 17.0625 36.8599 17.0056 36.8599 16.9482V15.9045C38.1749 16.4487 39.5889 16.7326 41.0221 16.7326H42.6577V17.2907C42.6577 18.8903 41.3564 20.1918 39.7566 20.1918C38.1569 20.1918 36.8556 18.8903 36.8556 17.2906ZM39.7565 11.6791C41.2919 11.6791 42.5524 12.8781 42.6513 14.3888H41.022C39.6523 14.3888 38.3045 14.0591 37.0929 13.4312C37.5386 12.4013 38.565 11.6791 39.7565 11.6791ZM25.5138 13.173C25.5138 10.6911 27.533 8.67187 30.015 8.67187C32.2536 8.67187 34.1156 10.3146 34.4594 12.4577L32.4866 11.2986C31.9931 11.0087 31.3624 11.1176 30.9948 11.5564C30.0307 12.707 28.6168 13.3668 27.1157 13.3668H25.5138V13.173ZM20.2585 11.6791C21.4502 11.6791 22.4764 12.4015 22.9221 13.4311C21.7104 14.059 20.3627 14.3887 18.993 14.3887H17.3637C17.4626 12.8781 18.7232 11.6791 20.2585 11.6791ZM23.0178 24.594C20.7122 25.1464 18.9003 26.7538 18.0379 28.8335H13.2881V27.8168C13.2881 26.3466 14.2867 25.0811 15.7168 24.7395L18.7013 24.0265C19.2288 23.9006 19.6009 23.4291 19.6009 22.8868V22.4928C19.8166 22.5199 20.0357 22.5354 20.2585 22.5354C20.4796 22.5354 20.6972 22.5201 20.9112 22.4934V22.8277C20.9104 22.8452 20.91 22.8626 20.9099 22.8801C20.9097 23.2646 21.0987 23.6412 21.4458 23.8658C21.5766 23.9505 21.7179 24.0056 21.8622 24.0331L23.6103 24.4519L23.0178 24.594ZM30.0048 27.6155L28.6303 24.4886V23.6524C29.0776 23.7446 29.5406 23.7932 30.0148 23.7932C30.4808 23.7932 30.936 23.746 31.3761 23.6568V24.4966L30.0048 27.6155ZM36.9774 24.5962L36.389 24.4557L38.1465 24.0345C38.2927 24.0073 38.4364 23.9515 38.569 23.8658C38.9155 23.6416 39.1039 23.2649 39.1039 22.8804C39.1039 22.8713 39.1038 22.862 39.1036 22.8529V22.4934C39.3177 22.5201 39.5352 22.5354 39.7563 22.5354C39.9791 22.5354 40.1982 22.5199 40.4138 22.4928V22.8868C40.4138 23.4291 40.786 23.9006 41.3135 24.0265L44.298 24.7395C45.728 25.0812 46.7268 26.3466 46.7268 27.8168V28.8335H41.9608C41.0976 26.7538 39.2845 25.1473 36.9774 24.5962Z" fill="black"/>
<path d="M30 34.6487C29.6905 34.6487 29.3895 34.7729 29.1715 34.9909C28.9523 35.21 28.8281 35.5112 28.8281 35.8206C28.8281 36.1288 28.9523 36.4299 29.1715 36.6491C29.3895 36.867 29.6906 36.9924 30 36.9924C30.3082 36.9924 30.6094 36.867 30.8284 36.6491C31.0464 36.4299 31.1719 36.1288 31.1719 35.8206C31.1719 35.5112 31.0465 35.21 30.8284 34.9909C30.6093 34.7729 30.3082 34.6487 30 34.6487Z" fill="black"/>
<path d="M29.999 4.09721C30.6461 4.09721 31.1709 3.57256 31.1709 2.92534V1.17187C31.1709 0.524646 30.6461 0 29.999 0C29.3519 0 28.8271 0.524646 28.8271 1.17187V2.92534C28.8271 3.57256 29.3519 4.09721 29.999 4.09721Z" fill="black"/>
<path d="M24.0262 5.48045C24.2549 5.70908 24.5547 5.82334 24.8544 5.82334C25.1545 5.82334 25.4545 5.70873 25.6833 5.47975C26.1407 5.0219 26.1404 4.27987 25.6825 3.82249L24.4532 2.59437C23.9954 2.13687 23.2535 2.13722 22.796 2.59507C22.3385 3.05292 22.3389 3.79495 22.7968 4.25233L24.0262 5.48045Z" fill="black"/>
<path d="M35.126 5.84628C35.4261 5.84628 35.7262 5.73167 35.955 5.50257L37.1748 4.2816C37.6322 3.82375 37.6318 3.08172 37.174 2.62434C36.7161 2.16696 35.974 2.16719 35.5167 2.62516L34.2969 3.84613C33.8395 4.30398 33.8399 5.04601 34.2977 5.50339C34.5265 5.73202 34.8262 5.84628 35.126 5.84628Z" fill="black"/>
</g>
<defs>
<clipPath id="clip0">
<rect width="60" height="60" fill="white"/>
</clipPath>
</defs>
</svg>
