<svg width="70" height="23" viewBox="0 0 70 23" fill="none" xmlns="http://www.w3.org/2000/svg">
<g clip-path="url(#clip0)">
<path d="M36.2024 7.22742C36.1625 10.3762 39.0086 12.1334 41.1526 13.1781C43.3555 14.2501 44.0954 14.9375 44.087 15.896C44.0701 17.3631 42.3297 18.0106 40.7007 18.0358C37.8588 18.0799 36.2066 17.2686 34.8929 16.6548L33.8693 21.4452C35.1872 22.0526 37.6276 22.5823 40.1584 22.6055C46.0985 22.6055 49.9851 19.6732 50.0061 15.1266C50.0292 9.35672 42.0249 9.03722 42.0796 6.45809C42.0985 5.67616 42.8447 4.84167 44.48 4.62937C45.2893 4.52217 47.5237 4.4402 50.0566 5.60679L51.0508 0.971935C49.6887 0.47587 47.9378 0.000823975 45.758 0.000823975C40.1668 0.000823975 36.234 2.97302 36.2024 7.22742ZM60.6043 0.400198C59.5197 0.400198 58.6053 1.03289 58.1975 2.00401L49.7118 22.2649H55.6478L56.8291 19.0006H64.083L64.7683 22.2649H70.0001L65.4346 0.400198H60.6043ZM61.4346 6.30675L63.1477 14.5171H58.4561L61.4346 6.30675ZM29.0053 0.400198L24.3263 22.2649H29.9827L34.6596 0.400198H29.0053ZM20.6373 0.400198L14.7497 15.2822L12.3681 2.62829C12.0886 1.21576 10.985 0.400198 9.75959 0.400198H0.134649L0.00012207 1.03499C1.97598 1.4638 4.22089 2.15535 5.58087 2.89524C6.41325 3.34717 6.65077 3.74234 6.92403 4.81645L11.4349 22.2649H17.4129L26.5775 0.400198H20.6373Z" fill="url(#paint0_linear)"/>
</g>
<defs>
<linearGradient id="paint0_linear" x1="32.1821" y1="23.059" x2="32.8363" y2="-0.156372" gradientUnits="userSpaceOnUse">
<stop stop-color="#222357"/>
<stop offset="1" stop-color="#254AA5"/>
</linearGradient>
<clipPath id="clip0">
<rect width="70" height="22.6953" fill="white"/>
</clipPath>
</defs>
</svg>
