<svg width="81" height="26" viewBox="0 0 81 26" fill="none" xmlns="http://www.w3.org/2000/svg">
<path d="M32.9205 0.667969L28.8783 25.822H35.3392L39.3789 0.667969H32.9205ZM52.4089 10.9143C50.1511 9.79935 48.767 9.04685 48.767 7.90649C48.7946 6.86966 49.9374 5.80743 52.4895 5.80743C54.5886 5.7547 56.1314 6.248 57.3018 6.73881L57.8882 7.0005L58.7665 1.73765C57.4904 1.24436 55.4669 0.700817 52.9676 0.700817C46.5873 0.700817 42.0946 4.01808 42.0668 8.76252C42.014 12.2636 45.2833 14.2065 47.7299 15.3719C50.2292 16.5675 51.08 17.3426 51.08 18.4049C51.0524 20.0358 49.059 20.7883 47.199 20.7883C44.6219 20.7883 43.2375 20.4007 41.1359 19.4919L40.2851 19.1044L39.3816 24.5737C40.8994 25.2484 43.6905 25.8421 46.5876 25.8725C53.3682 25.8725 57.7802 22.6055 57.8357 17.5491C57.8578 14.7754 56.1339 12.6509 52.4089 10.9143ZM75.3302 0.745814H70.3316C68.7912 0.745814 67.6208 1.18887 66.9538 2.76952L57.3568 25.822H64.1373L66.0048 20.831H73.5909L74.5598 25.8421H80.5401L75.3302 0.745814ZM67.8852 15.7943C68.0161 15.807 70.4878 7.64701 70.4878 7.64701L72.456 15.7943C72.456 15.7943 69.1614 15.7943 67.8852 15.7943ZM23.4796 0.667969L17.1496 17.7578L16.46 14.3875C15.2896 10.4989 11.6201 6.27312 7.5249 4.17405L13.3214 25.7969H20.1574L30.3157 0.670728H23.4796V0.667969Z" fill="#2394BC"/>
<path d="M14.3311 3.91102C13.8378 1.99304 12.2646 0.69948 10.1279 0.671875H0.102998L-0.000244141 1.13729C7.81991 3.06521 14.3838 8.99747 16.5132 14.5775L14.3311 3.91102Z" fill="#EFC75E"/>
</svg>
