<svg width="24" height="24" viewBox="0 0 24 24" fill="none" xmlns="http://www.w3.org/2000/svg">
<g clip-path="url(#clip0)">
<path d="M11.4177 0.0138795C5.07937 0.315677 0.0775067 5.59432 0.0967349 11.9399C0.10259 13.8726 0.569176 15.6968 1.39226 17.3086L0.128533 23.4429C0.0601726 23.7747 0.359444 24.0653 0.689079 23.9872L6.69994 22.5631C8.24423 23.3323 9.97879 23.7767 11.8145 23.8047C18.293 23.9036 23.6948 18.7596 23.8968 12.2836C24.1132 5.34171 18.3839 -0.317879 11.4177 0.0138795ZM18.59 18.4934C16.8297 20.2537 14.4892 21.2231 11.9997 21.2231C10.542 21.2231 9.14646 20.8961 7.85163 20.2511L7.01454 19.8341L3.32926 20.7073L4.10499 16.9416L3.69259 16.134C3.0204 14.8176 2.67958 13.394 2.67958 11.903C2.67958 9.4135 3.64902 7.07305 5.40935 5.31267C7.15396 3.56806 9.53263 2.58283 11.9999 2.58283C14.4893 2.58289 16.8297 3.55233 18.5901 5.31261C20.3504 7.07294 21.3198 9.41339 21.3199 11.9028C21.3198 14.3701 20.3346 16.7488 18.59 18.4934Z" fill="#7AD06D"/>
<path d="M17.776 14.4829L15.4704 13.8209C15.1673 13.7339 14.8409 13.8199 14.62 14.0449L14.0562 14.6194C13.8185 14.8616 13.4577 14.9394 13.1431 14.8121C12.0524 14.3707 9.75809 12.3308 9.17218 11.3104C9.00314 11.0161 9.03109 10.6481 9.23864 10.3796L9.73089 9.74274C9.92374 9.49324 9.96444 9.15815 9.8369 8.86972L8.86688 6.67581C8.63453 6.15034 7.96304 5.99737 7.52435 6.36839C6.88086 6.91264 6.11736 7.73968 6.02454 8.65592C5.8609 10.2713 6.55369 12.3077 9.1735 14.7528C12.2001 17.5776 14.6238 17.9508 16.2018 17.5686C17.0969 17.3518 17.8121 16.4827 18.2636 15.7711C18.5713 15.2859 18.3283 14.6415 17.776 14.4829Z" fill="#7AD06D"/>
</g>
<defs>
<clipPath id="clip0">
<rect width="24" height="24" fill="white"/>
</clipPath>
</defs>
</svg>
