<svg width="632" height="389" viewBox="0 0 632 389" fill="none" xmlns="http://www.w3.org/2000/svg">
<path d="M315.999 109.367C348.034 109.367 372.448 121.121 389.24 144.631C406.291 168.14 414.816 201.984 414.816 246.161C414.816 290.08 406.291 323.923 389.24 347.691C372.448 371.459 348.034 383.343 315.999 383.343C283.964 383.343 259.421 371.459 242.37 347.691C225.578 323.923 217.182 290.08 217.182 246.161C217.182 201.984 225.578 168.14 242.37 144.631C259.421 121.121 283.964 109.367 315.999 109.367ZM315.999 154.706C307.215 154.706 300.24 157.548 295.073 163.232C289.906 168.915 286.031 178.345 283.447 191.521C281.122 204.696 279.96 222.91 279.96 246.161C279.96 269.412 281.122 287.755 283.447 301.188C286.031 314.364 289.906 323.794 295.073 329.477C300.24 335.161 307.215 338.003 315.999 338.003C324.783 338.003 331.758 335.29 336.925 329.865C342.092 324.181 345.838 314.752 348.163 301.576C350.747 288.142 352.038 269.67 352.038 246.161C352.038 222.651 350.747 204.309 348.163 191.133C345.838 177.699 342.092 168.269 336.925 162.844C331.758 157.419 324.783 154.706 315.999 154.706Z" fill="#3C3F59"/>
<path fill-rule="evenodd" clip-rule="evenodd" d="M472.91 17.5496C471.578 21.0764 470.246 24.6037 468.913 28.1306C468.059 30.3907 467.206 32.6503 466.352 34.9104C466.049 35.7117 465.88 36.5337 465.295 37.09C463.914 38.3998 461.437 39.2334 459.778 40.1548C458.666 40.7723 457.555 41.3897 456.443 42.0072C455.87 42.3258 454.6 42.7258 454.198 43.2546C453.756 43.8371 453.965 44.9071 453.965 45.7127V52.6683V65.7742C459.706 65.0564 465.447 64.3391 471.188 63.6213C463.539 72.4468 455.891 81.2719 448.242 90.0975C446.357 92.2723 444.069 94.3658 442.664 96.8963C439.675 102.283 436.753 107.708 433.798 113.113C431.048 118.145 428.297 123.177 425.547 128.208L450.292 127.155C456.698 126.882 463.28 127.292 469.452 125.476C474.541 123.98 479.629 122.483 484.718 120.987C485.394 120.787 487.503 120.562 487.982 120.017C488.431 119.507 488.422 117.579 488.549 116.927C490.951 104.582 494.008 90.9784 501.018 80.3522C506.044 72.7349 512.825 66.0657 519.036 59.4232C521.46 56.8307 523.926 54.2691 526.264 51.5979C526.863 50.9137 527.728 50.1373 528.124 49.3063C528.38 48.7694 528.738 47.7463 528.579 47.2697C528.51 47.063 526.912 46.3216 526.683 46.1743C525.064 45.1336 523.458 44.0709 521.85 43.0134C517.33 40.0416 512.814 37.0624 508.268 34.1302C504.724 31.8439 501.189 29.4197 497.451 27.455C493.576 25.4184 489.309 23.985 485.246 22.3759C481.141 20.7496 477.028 19.1418 472.91 17.5496Z" fill="#FF5678"/>
<path fill-rule="evenodd" clip-rule="evenodd" d="M573.534 90.004C579.706 94.3877 586.785 97.3824 593.234 101.33C594.848 102.318 599.877 104.37 599.828 106.203C599.8 107.275 598.289 108.619 597.627 109.361C596.493 110.634 595.427 111.919 594.38 113.265C589.592 119.429 585.082 125.651 579.891 131.505C579.11 132.386 576.756 136.59 575.996 134.502C575.652 133.555 575.935 132.491 575.038 131.608C574.576 131.154 572.79 130.903 573.31 129.928C573.657 130.084 574.004 130.24 574.351 130.396C574.081 129.616 574.101 128.762 573.697 128.026C573.446 127.568 572.956 127.351 572.786 126.836C572.551 126.124 572.949 125.296 572.883 124.562C572.817 123.83 572.437 123.138 572.211 122.448C570.868 118.354 570.386 114.227 569.698 110.003C569.018 105.823 567.958 101.774 567.543 97.5481C567.103 93.0843 566.564 88.6296 565.846 84.2015C567.128 84.3815 568.114 85.7753 569.022 86.5633C570.448 87.8016 571.996 88.9112 573.534 90.004ZM568.697 133.22C568.402 132.988 568.172 132.704 568.005 132.368C571.03 130.869 569.205 133.426 568.697 133.22ZM566.857 130.024C565.539 130.387 564.591 130.461 563.575 129.918C563.478 129.867 563.589 129.471 563.415 129.389C563.263 129.319 563.031 129.406 562.901 129.34C562.459 129.115 561.684 129.608 561.608 128.746C563.291 128.231 564.946 127.281 566.722 127.121C569.191 126.898 569.077 129.412 566.857 130.024ZM561.08 125.055C559.282 125.476 557.799 126.458 555.888 126.202C554.094 125.961 552.535 125.031 551.119 123.959C554.66 122.956 558.373 122.776 561.911 121.806C563.062 121.49 564.576 120.658 565.817 120.993C567.196 121.366 567.283 122.658 567.697 123.834C565.49 124.231 563.266 124.544 561.08 125.055ZM549.829 120.067C548.101 120.48 546.334 121.383 544.889 119.825C544.656 119.573 544.452 119.824 544.479 119.05C544.508 118.233 545.249 117.707 545.887 117.419C547.386 116.743 549.488 117.18 551.08 117.081C553.62 116.923 556.205 116.395 558.718 115.988C560.457 115.707 562.254 115.083 564.032 115.206C565.405 115.301 567.061 116.471 565.06 117.325C563.239 118.102 560.507 117.983 558.533 118.32C555.616 118.817 552.708 119.379 549.829 120.067ZM548.141 111.936C548.253 112.05 548.365 112.164 548.477 112.279C548.458 112.274 549.139 111.723 549.32 111.707C550.196 111.631 551.077 111.691 551.955 111.641C553.977 111.527 556.015 111.175 558.001 110.787C559.618 110.471 561.266 109.926 562.931 110.063C564.373 110.181 564.524 110.476 564.619 111.867C560.939 111.867 557.148 111.79 553.532 112.569C551.178 113.076 548.583 114.585 547.404 111.864C547.649 111.888 547.895 111.912 548.141 111.936ZM550.441 106.046C551.354 106.741 553.841 105.586 554.935 105.47C556.122 105.345 557.24 105.214 558.391 104.918C559.411 104.656 562.787 103.344 563.57 104.598C564.77 106.52 559.911 106.873 559.141 106.968C555.91 107.367 552.558 107.721 549.414 108.568C549.757 107.728 550.099 106.887 550.441 106.046ZM554.873 99.5193C555.109 100.408 562.415 97.1343 562.548 99.5133C562.65 101.339 555.319 102.248 554.001 102.088C554.31 101.247 555.131 100.495 554.873 99.5193ZM557.326 93.936C557.481 92.1444 557.722 92.1547 559.158 91.9859C560.254 91.8572 561.76 91.2148 561.475 93.1679C561.231 94.8402 557.17 95.744 557.326 93.936ZM559.937 87.7715C560.283 86.8095 561.061 88.1043 561.077 88.5934C561.121 89.8951 560.134 89.6135 559.184 89.6135C559.449 89.0055 559.7 88.3906 559.937 87.7715ZM571.962 80.5511C571.768 80.3177 570.681 80.2286 570.371 80.1154C569.61 79.8364 569.718 79.2417 568.744 79.8282C568.695 79.7791 568.788 79.3382 568.735 79.3179C568.708 79.3076 568.026 79.0501 567.804 78.908C567.269 78.5653 566.786 78.2299 566.295 77.7997C565.772 77.3429 565.248 76.6798 564.651 76.316C564.399 76.1627 564.194 75.9452 563.89 75.8983C563.102 75.7769 563.328 76.3254 562.64 76.4344C562.215 76.5015 561.907 76.0064 561.352 76.2199C560.873 76.4042 560.595 77.0764 560.381 77.4764C559.605 78.9321 559.006 80.499 558.246 81.9703C554.36 89.4938 549.942 96.7318 546.178 104.325C544.365 107.984 542.473 111.667 541.196 115.555C540.276 118.359 538.198 122.455 539.986 125.257C541.286 127.294 543.889 128.173 545.965 129.158C549.09 130.639 551.971 132.575 555.13 134.011C558.897 135.723 562.555 137.514 566.227 139.426C567.793 140.242 569.206 141.417 570.767 142.189C571.722 142.661 573.196 141.855 573.507 142.938C574.703 141.489 576.64 142.455 578.025 141.435C578.839 140.834 579.434 139.652 580.113 138.913C581.132 137.804 582.237 136.776 583.277 135.687C587.402 131.362 591.211 126.857 594.965 122.212C598.55 117.776 602.738 113.585 605.766 108.728C606.969 106.801 607.187 104.779 606.393 102.65C605.814 101.096 604.418 98.7503 602.424 99.7789C603.18 98.5234 600.263 97.1826 599.378 96.9371C599.365 96.9337 599.19 97.8982 598.944 97.8741C599.031 97.8827 598.202 95.7371 597.838 95.462C596.756 94.6435 595.44 93.6884 594.26 93.0146C593.178 92.3967 592.035 92.0906 590.987 91.3991C589.716 90.5612 588.549 89.5674 587.273 88.7351C586.041 87.9316 584.668 86.9818 583.307 86.4293C582.126 85.9501 581.066 85.8562 580.004 85.0709C578.69 84.0991 577.544 83.4398 576.028 82.7703C574.717 82.1912 572.9 81.6853 571.962 80.5511Z" fill="#4E5274"/>
<path fill-rule="evenodd" clip-rule="evenodd" d="M612.241 205.963C610.27 207.821 606.68 210.314 603.843 209.18C602.417 208.611 601.2 207.361 599.902 206.555C598.377 205.607 596.943 204.66 595.65 203.397C593.07 200.877 591.117 197.196 588.071 195.224C587.047 194.561 585.048 194.419 584.338 193.36C584.019 192.885 583.99 192.165 584.048 191.616C584.176 190.433 584.814 190.503 583.747 189.635H585.404C585.436 188.995 584.797 188.942 584.321 189.025C584.542 188.01 584.768 184.038 582.918 185.838C581.315 187.398 582.117 189.986 580.982 191.676C580.112 192.97 577.805 191.922 577.494 190.499C577.354 189.859 578.058 188.861 578.142 188.234C578.327 186.844 577.706 185.642 576.804 184.589C574.826 185.907 575.947 188.634 574.82 190.366C573.8 191.933 571.528 191.202 569.975 190.926C568.113 190.596 566.008 190.93 564.227 190.491C561.537 189.827 562.542 186.669 562.276 184.631C561.99 182.447 559.783 179.417 560.447 177.214C561.159 174.849 565.322 174.338 567.312 173.764C571.86 172.452 578.348 172.199 581.729 168.527C584.418 171.526 586.582 174.96 589.402 177.848C592.449 180.966 595.703 183.846 598.628 187.09C601.673 190.467 604.815 193.778 607.748 197.252C609.029 198.768 610.152 200.401 611.476 201.881C612.654 203.196 613.894 204.406 612.241 205.963ZM477.056 147.632C478.454 146.888 478.631 147.354 478.631 148.885C478.229 148.15 477.83 147.953 477.056 147.632ZM465.206 177.387V174.689C466.554 174.654 465.725 176.962 465.206 177.387ZM464.877 181.405C464.877 180.21 464.845 179.073 465.189 177.911C465.37 179.177 465.715 180.273 464.877 181.405ZM470.67 263.482C471.907 263.598 473.814 262.746 474.855 263.717C475.924 264.714 475.839 267.618 476.092 268.966C476.51 271.193 476.881 273.428 477.234 275.666C477.465 277.134 477.751 278.624 476.092 279.185C473.64 280.014 470.137 278.831 467.581 278.723C462.533 278.511 457.487 278.216 452.435 278.113C447.538 278.014 442.63 278.092 437.755 278.602C435.553 278.832 433.4 279.238 431.221 279.606C430.072 279.8 426.994 280.612 425.956 279.643C424.004 277.82 427.249 273.564 428.645 272.362C431.236 270.131 434.92 268.522 438.169 267.554C439.905 267.036 442.8 265.582 444.167 267.208C445.216 268.455 445.175 270.12 446.678 271.065C450.162 273.255 448.124 266.974 445.947 266.2C447.408 262.779 450.195 267.61 451.35 268.77C451.762 269.183 453.099 270.544 453.68 269.86C454.115 269.347 453.246 267.511 453.085 267.012C452.841 266.253 452.222 265.099 452.4 264.276C452.722 262.788 454.81 262.382 456.061 262.258C458.001 262.066 459.903 262.681 461.821 262.886C464.762 263.201 467.726 263.206 470.67 263.482ZM451.194 123.239C447.365 123.544 443.512 122.958 439.692 123.437C436.077 123.891 432.672 125.218 429.264 126.437C434.33 114.557 440.883 103.742 448.871 93.6113C452.848 88.5654 457.127 83.5543 461.425 78.7788C463.425 76.557 465.493 74.4089 467.558 72.2495C469.4 70.3231 470.72 67.0516 472.93 65.6131C474.817 64.3851 478.115 65.2608 480.206 65.3371C482.569 65.4232 485.445 65.638 487.75 64.8514C489.42 64.2813 489.88 62.7601 487.789 62.7097C485.323 62.6498 482.897 62.9069 480.399 62.6757C473.926 62.0776 467.687 61.0946 461.162 61.6522C459.667 61.7796 457.699 62.4165 456.232 62.2253C455.177 62.0871 455.871 62.6175 455.137 61.771C454.857 61.4472 454.518 60.686 454.435 60.2558C453.968 57.8399 455.294 54.3875 455.612 51.9552C455.905 49.7041 455.645 47.23 456.195 45.0379C456.695 43.0431 458.22 42.777 460.098 42.5639C465.237 41.9804 470.48 41.67 475.641 41.2304C487.42 40.2271 499.573 38.7136 511.272 41.1929C515.496 42.0881 520.647 43.4724 524.421 45.689C525.601 46.3818 526.792 47.1977 526.362 48.6333C525.917 50.1235 523.734 51.6977 522.653 52.6794C514.662 59.9338 506.944 67.3332 501.33 76.6414C494.172 88.5111 490.064 101.331 487.653 114.932C487.135 117.858 486.653 119.39 483.643 120.232C480.411 121.137 477.291 121.725 473.94 122C466.365 122.622 458.766 122.635 451.194 123.239ZM453.76 44.6328C453.18 48.9536 452.394 53.265 452.316 57.6198C452.287 59.2646 452.131 60.0888 450.382 60.4556C448.32 60.8879 446.224 61.21 444.152 61.6586C434.154 63.8253 424.346 66.4863 414.565 69.4814C405.059 72.3929 395.71 75.6683 385.99 77.8251C381.809 78.753 376.917 79.3782 373.109 81.4325C369.013 83.643 369.552 87.2672 369.184 91.2479C368.693 96.5664 367.115 101.716 366.561 107.032C366.296 109.573 366.054 112.128 366.094 114.685C366.128 116.864 366.44 119.273 364.975 121.107C362.037 117.179 360.644 112.237 360.065 107.422C359.783 105.081 359.895 102.722 359.814 100.371C359.749 98.4773 359.791 95.4658 358.558 93.8847C355.877 90.4487 352.391 104.219 352.059 105.689C351.502 108.164 351.042 110.66 350.487 113.135C350.24 114.232 349.924 118.221 348.454 118.618C345.408 119.442 346.077 110.882 346.028 109.578C345.932 106.948 345.866 104.314 345.928 101.681C345.973 99.7802 346.34 97.7177 346.122 95.8163C345.586 91.1476 342.961 96.0665 342.223 97.8043C340.358 102.191 339.515 106.887 337.842 111.345C337.564 112.086 336.91 114.582 335.875 114.629C334.723 114.68 334.732 112.102 334.666 111.349C334.283 106.983 332.992 102.648 333.382 98.2374C333.775 93.7835 335.337 89.2048 337.546 85.3309C342.217 77.1405 350.652 72.4377 358.731 68.1539C367.977 63.2522 377.739 59.3796 387.709 56.2248C399.7 52.4305 412.012 49.3605 424.398 47.1758C430.699 46.0644 437.098 45.2696 443.464 44.6323C445.701 44.4084 447.939 44.2775 450.148 43.8517C450.981 43.6907 453.989 42.9255 453.76 44.6328ZM460.201 30.6498C457.042 30.6748 453.815 29.1432 450.737 28.5103C447.073 27.7559 443.494 26.6644 439.836 25.8768C432.674 24.335 425.507 22.8314 418.351 21.2555C415.244 20.5713 412.123 19.9758 409.028 19.2408C405.717 18.4546 402.141 17.5779 398.752 18.4249C393.616 19.7088 391.446 25.3283 389.56 29.7137C388.228 32.8113 387.184 36.2641 385.107 38.9595C384.367 39.9205 383.315 41.0667 381.974 40.7554C379.482 40.1776 379.878 36.8802 380.195 35.0576C380.655 32.4126 381.307 29.7985 381.828 27.1656C382.038 26.1029 383.667 19.1478 380.759 20.2247C378.603 21.0234 377.462 26.2842 376.645 28.1632C376.039 29.5596 375.396 30.9469 374.715 32.3088C373.807 34.1254 371.214 40.1952 368.345 39.4125C364.238 38.2921 368.177 27.4954 368.877 25.2198C369.261 23.9707 373.435 14.4976 369.912 15.2717C368.411 15.602 366.95 18.3891 366.184 19.5444C364.828 21.5935 363.475 23.6572 362.198 25.7567C360.885 27.9161 360.214 30.3738 358.911 32.5017C358.225 33.6216 356.826 35.114 355.461 34.0772C353.331 32.4621 354.593 26.8439 354.966 24.7195C355.66 20.7698 357.383 16.7206 359.747 13.4917C363.3 8.64 370.004 7.07227 375.641 6.12973C382.917 4.91292 390.295 5.24576 397.602 5.96568C405.819 6.7756 413.911 7.64278 422.011 9.29878C430.175 10.9677 438.342 12.6233 446.38 14.8304C450.166 15.8702 454.007 16.7921 457.74 18.0128C461.708 19.3101 465.581 20.9248 469.659 21.8596C468.225 25.4398 466.79 29.0201 465.355 32.6007C463.982 31.2423 462.108 30.6343 460.201 30.6498ZM530.524 40.5156C531.782 39.8275 533.172 39.5029 533.631 37.9821C534.037 36.6383 533.343 35.1157 533.012 33.8257C532.084 30.214 531.84 26.4728 532.661 22.8185C533.445 24.0159 536.382 28.6218 538.168 25.8334C539.245 24.1515 536.359 21.7321 535.516 20.5498C537.365 19.4087 540.006 16.3465 542.136 18.1932C543.513 19.3872 544.096 20.5368 545.952 21.1173C548.204 21.8221 550.325 21.6606 552.625 21.466C554.235 21.33 554.623 21.1151 555.252 22.3552C555.746 23.33 556.001 24.5365 556.29 25.5832C556.858 27.6469 558.174 31.7133 556.616 33.6466C555.25 35.3401 549.952 33.8882 549.216 36.0742C548.814 37.2665 550.73 37.3091 551.462 37.899C552.368 38.6292 553.118 39.7914 553.61 40.8295C553.975 41.5972 554.53 42.8657 553.909 43.6506C553.051 44.7365 551.461 43.9128 550.77 43.1236C549.852 42.0751 549.554 40.6418 548.788 39.4999C547.382 37.4047 547.298 39.0714 546.915 40.5759C546.518 42.1389 545.577 42.0312 544.137 42.2319C541.61 42.5845 539.056 43.0818 536.596 43.7591C535.336 44.1062 534.114 44.5484 532.913 45.0651C532.139 45.3975 530.798 46.4046 529.958 46.4142C528.403 46.4317 527.324 43.8298 526.521 42.7443C527.854 41.9998 529.184 41.2484 530.524 40.5156ZM614.068 199.839C610.183 195.175 606.818 190.108 602.984 185.403C599.204 180.763 594.829 176.705 590.586 172.502C588.583 170.519 586.665 168.343 584.454 166.585C582.805 165.274 581.536 165.253 579.552 165.834C573.916 167.485 568.177 169.472 562.843 171.935C557.876 174.23 553.352 177.175 547.966 178.454C542.468 179.76 536.751 180.18 531.116 179.856C525.336 179.524 519.884 178.321 514.388 176.554C509.182 174.88 503.754 173.418 499.302 170.1C494.635 166.622 491.029 161.619 487.687 156.913C485.995 154.531 484.316 152.03 483.176 149.33C482.187 146.987 481.541 144.222 479.766 142.313C479.331 142.93 478.789 143.459 478.568 144.183C478.467 144.513 479.061 144.502 479 144.764C478.885 145.257 478.229 145.76 477.847 146.028C476.477 146.993 476.469 146.225 476.828 148.029C477.037 149.08 476.641 151.452 474.927 150.677C475.558 151.433 474.555 152.387 474.227 153.009C474.002 152.751 473.722 152.661 473.387 152.739C474.014 153.987 473.644 154.02 473.036 155.012C472.925 155.193 472.532 156.142 472.588 156.062C471.967 156.946 471.25 157.169 470.888 158.27C470.59 159.175 470.667 160.169 470.335 161.073C469.934 160.519 469.533 159.965 469.132 159.411C469.214 159.847 469.378 160.492 469.568 160.887C469.688 161.134 470.201 161.711 470.194 161.846C470.166 162.349 469.538 162.228 469.358 162.663C469.022 163.478 469.508 163.598 469.325 164.393C469.115 165.306 468.551 164.941 468.282 165.719C468.232 165.867 468.628 166.448 468.565 166.767C468.477 167.217 468.068 167.469 467.924 167.869C467.557 168.888 467.691 169.634 467.181 170.611C466.984 170.99 466.697 171.242 466.558 171.673C466.436 172.052 466.698 172.858 466.463 173.197C465.327 174.833 465.487 172.015 465.573 171.317C466.296 165.449 468.616 159.394 470.738 153.909C471.793 151.185 472.82 148.375 474.143 145.765C474.675 144.714 475.289 143.629 476.169 142.825C477.281 141.808 478.86 141.401 479.868 140.266C479.709 140.445 480.96 139.261 480.76 139.65C480.939 139.302 480.626 138.831 480.737 138.494C480.875 138.076 481.137 137.988 481.428 137.622C481.951 136.965 482.572 136.638 481.751 135.801C482.97 135.531 483.553 135.136 483.797 133.83C483.975 132.874 483.616 132.937 484.243 132.3C484.872 131.66 485.19 132.16 485.587 131.052C486.061 129.726 486.376 127.923 486.66 126.536C486.908 125.325 486.306 123.543 487.327 122.688C488.62 121.605 489.777 122.064 489.545 119.886C489.319 117.763 489.979 116.477 490.642 114.468C491.965 110.457 492.477 106.222 493.637 102.163C496.113 93.502 500.487 85.6926 505.191 78.0684C509.537 71.0233 515.613 65.021 521.481 59.2405C523.087 57.6573 524.676 56.0512 526.118 54.3156C527.361 52.8211 527.928 50.7861 529.123 49.3674C529.848 48.5058 531.199 48.1372 532.212 47.6804C533.902 46.9183 535.915 45.9241 537.822 46.0782C537.064 48.6328 536.817 51.618 539.054 53.5337C541.767 55.8575 544.226 53.4432 546.713 52.1184C551.246 49.7032 557.729 51.9203 561.682 48.3004C562.624 47.4384 562.886 46.061 563.864 45.2558C564.583 44.6655 565.604 44.5157 566.413 44.0756C568.869 42.7387 570.062 40.2913 569.105 37.5877C568.231 35.1162 566.873 34.2589 569.896 33.0063C572.351 31.9902 573.284 30.459 572.173 27.7331C571.114 25.1341 569.173 24.8349 567.337 23.1341C565.559 21.4867 567.602 19.5693 568.934 18.3327C570.652 16.7374 570.981 15.2997 568.989 13.6407C566.903 11.9038 563.926 11.9645 561.494 12.8235C558.744 13.7944 556.933 15.4087 555.77 18.0244C554.585 20.6875 551.648 19.9444 549.269 19.202C546.994 18.4925 546.402 16.9613 544.909 15.3126C543.248 13.4788 539.862 15.047 537.903 15.8849C533.077 17.9473 528.281 21.2025 528.09 26.9684C527.975 30.4065 529.429 33.3288 530.186 36.556C530.877 39.5072 526.136 39.2747 525.315 42.1294C516.557 37.493 506.803 36.0742 497.012 35.7586C486.606 35.4227 476.051 35.1536 465.734 36.795C468.129 32.6227 469.393 28.0474 471.477 23.761C472.077 22.527 472.335 22.6325 473.659 23.0053C476.201 23.7214 478.725 24.5227 481.262 25.2603C490.532 27.9548 499.619 31.2014 508.582 34.7571C509.453 35.1028 511.398 36.0626 512.161 35.0189C513.042 33.8154 511.004 32.3316 510.179 31.7262C506.57 29.0786 502.098 27.4717 498.056 25.6142C489.219 21.5543 479.434 19.627 470.214 16.6117C450.308 10.1009 429.716 5.1562 409.03 1.89027C403.982 1.09328 398.88 0.976591 393.81 0.384978C389.319 -0.139034 384.82 -0.126977 380.329 0.414258C372.036 1.41449 362.42 3.57254 357.736 11.1645C353.507 18.0193 350.685 25.7261 351.764 33.8572C352.088 36.2994 353.122 39.1916 356.136 38.5621C358.226 38.1255 359.336 36.3493 360.307 34.6158C361.773 31.9971 363.222 29.3783 364.811 26.8297C365.4 30.6511 363.258 34.4087 363.595 38.3016C363.824 40.9432 365.284 45.1167 368.713 44.3688C373.414 43.3441 375.348 36.0006 377.609 32.4776C377.723 35.1911 376.772 37.8654 377.063 40.5849C377.35 43.2713 379.449 45.8074 382.397 45.4392C385.178 45.0922 386.985 42.113 388.166 39.8702C389.81 36.7489 390.99 33.4025 392.596 30.2606C394.1 27.3154 395.882 23.8092 399.474 23.2559C402.68 22.7616 406.353 23.9057 409.52 24.3776C418.303 25.6865 426.91 27.9152 435.597 29.7159C444.912 31.6461 454.446 32.8186 463.474 35.9334C460.3 40.2538 451.993 39.3203 447.264 39.784C440.118 40.485 432.881 41.0125 425.775 42.0467C418.758 43.0681 411.887 44.8812 404.924 46.1975C397.998 47.5069 391.084 48.8184 384.382 51.0514C371.939 55.1974 359.288 60.4444 348.325 67.6785C343.224 71.0448 338.692 74.892 335.541 80.2053C332.37 85.5518 330.846 91.5975 330.265 97.7474C329.903 101.577 330.518 104.891 331.26 108.618C331.797 111.317 331.971 115.835 334.134 117.811C338.264 121.582 341.693 106.284 342.455 104.437C343.004 107.465 342.107 124.522 348.733 123.135C351.69 122.516 352.361 118.457 352.851 116.013C353.746 111.556 354.547 107.009 356.078 102.717C357.06 108.5 357.469 114.526 359.585 120.05C360.99 123.718 365 130.228 367.796 123.947C369.893 119.237 369.174 113.831 369.425 108.83C369.704 103.289 371.295 97.9438 371.858 92.4565C372.076 90.3308 371.878 87.935 374.015 86.7751C375.848 85.7796 378.53 85.4553 380.532 84.8995C386.462 83.2529 392.432 81.7395 398.334 79.9926C404.239 78.2445 410.062 76.2022 415.888 74.2091C421.46 72.3029 427.149 71.2192 432.789 69.5869C435.996 68.6585 439.163 67.6876 442.415 66.9125C443.928 66.5522 445.459 66.2714 446.969 65.8981C448.088 65.6217 449.562 64.5784 450.713 64.5969C451.897 64.6163 452.342 65.6187 453.7 65.6975C455.161 65.7818 456.648 65.4593 458.101 65.3478C461.643 65.0761 465.407 64.6369 468.941 65.1278C466.817 67.6467 463.949 69.3879 461.435 71.4745C458.536 73.881 455.731 76.4795 453.254 79.3213C448.272 85.0394 443.563 91.0834 439.187 97.2781C434.872 103.389 431.397 110.077 428.376 116.909C426.871 120.314 425.409 123.793 424.37 127.371C423.942 128.841 423.594 130.317 422.823 131.654C422.115 132.88 421.118 133.937 421.954 135.418C422.53 135.057 423.047 134.61 423.568 134.177C422.966 138.414 421.668 142.513 421.001 146.738C420.343 150.9 420.37 155.18 420.412 159.383C420.502 168.186 421.156 176.789 422.942 185.424C424.748 194.154 427.068 202.819 429.993 211.241C432.809 219.351 435.635 227.855 439.566 235.498C443.764 243.662 448.758 252.245 454.835 259.156C450.865 260.781 445.814 260.477 441.61 261.132C437.217 261.817 433.416 263.109 429.672 265.54C425.884 268.001 423.827 271.168 423.303 275.654C422.931 278.846 421.826 283.267 426.015 284.105C429.028 284.709 432.396 283.718 435.414 283.473C440.695 283.045 445.983 282.777 451.275 282.547C456.554 282.316 461.834 282.114 467.114 281.95C469.597 281.873 472.082 281.834 474.565 281.745C475.678 281.705 476.352 281.688 477.35 282.01C478.139 282.264 478.081 282.793 478.959 282.139C480.376 281.086 480.085 277.764 480.045 276.303C479.985 274.049 479.771 271.769 479.331 269.558C479.071 268.244 475.903 259.773 478.366 259.417C475.505 256.272 474.362 251.783 473.077 247.842C471.467 242.905 470.053 237.982 468.943 232.904C466.573 222.058 465.525 211.092 465.525 199.994C476.513 206.767 488.138 210.435 501.079 210.844C513.946 211.251 528.081 210.195 540.299 205.914C545.957 203.932 551.025 201.329 555.876 197.822C557.614 196.565 559.477 193.718 561.759 193.767C564.482 193.825 567.532 194.856 570.237 195.297C575.409 196.14 582.159 196.616 586.538 199.815C588.917 201.553 590.621 203.985 592.744 205.987C594.359 207.511 596.494 208.338 598.097 209.861C599.826 211.505 599.139 213.652 602.006 213.785C604.457 213.898 607.144 212.912 609.258 211.755C613.475 209.446 617.966 204.517 614.068 199.839Z" fill="#4C5071"/>
<path fill-rule="evenodd" clip-rule="evenodd" d="M383.99 196.911C384.231 196.345 384.472 195.779 384.713 195.213C385.011 196.2 385.094 196.691 383.99 196.911ZM384.311 199.527C383.789 199.62 383.995 197.982 383.995 197.696C384.897 198.207 384.15 198.819 384.311 199.527ZM383.497 194.8C383.942 194.537 384.387 194.275 384.833 194.011C384.213 195.16 384.456 194.442 384.712 195.21C384.244 195.344 383.789 195.187 383.497 194.8ZM380.858 203.779C379.189 209.834 373.889 214.609 368.29 217.083C365.073 218.504 361.909 218.86 358.435 218.701C357.095 218.64 355.518 218.205 354.229 218.286C353.236 218.348 353.281 218.391 352.458 219.232C352.094 218.562 352.358 218.091 351.628 217.701C350.718 217.215 350.339 217.781 349.888 218.455C349.297 217.843 349.055 217.523 348.289 217.159C348.313 217.17 347.555 217.142 347.586 217.151C347.449 217.109 346.626 216.579 346.368 216.483C345.309 216.086 344.086 215.923 343.109 215.353C342.255 214.856 341.551 213.459 340.574 214.532C340.573 212.739 338.158 211.996 337.026 211.057C335.257 209.589 333.851 207.417 332.969 205.315C332.029 203.074 331.715 200.925 331.275 198.616C330.967 197.002 328.954 194.669 330.163 193.04C330.451 193.723 330.316 194.423 330.794 195.042C331.225 194.212 331.462 193.284 331.656 192.376C331.752 191.931 332.306 190.625 332.243 190.238C332.115 189.445 331.133 189.402 331.677 188.429C332.806 189.658 333.717 187.501 332.865 186.641C332.443 187.116 332.289 187.655 332.095 188.243C330.985 186.003 334.057 186.724 333.385 184.701C334.506 184.486 335.15 184.203 335.577 183.095C336.051 181.863 335.702 181.594 336.778 180.779C337.149 180.499 338.196 180.097 338.388 179.636C338.758 178.746 337.815 178.482 338.641 177.648C338.92 178.138 340.008 179.107 340.603 178.185C340.723 178.001 340.222 177.87 340.586 177.447C341.126 176.82 341.729 176.205 342.642 176.337C341.919 174.53 346.536 174.387 347.718 173.961C348.903 173.534 349.908 173.254 351.165 173.155C352.42 173.056 352.482 172.688 353.545 171.933C353.635 173.014 353.895 172.776 354.664 172.967C354.848 172.65 355.038 172.614 355.232 172.86C355.425 173.044 355.661 173.13 355.939 173.119C356.361 173.141 356.839 173.086 357.282 173.095C358.32 173.116 359.391 173.029 360.409 173.051C360.672 173.007 360.917 172.916 361.147 172.777C361.243 172.958 361.339 173.139 361.435 173.32C361.975 173.388 362.016 174.064 362.68 173.324C362.876 174.264 363.44 173.775 364.036 174.03C364.58 174.263 364.666 174.635 365.168 174.895C365.497 175.162 365.851 175.197 366.229 175.001C366.589 175.268 366.954 175.527 367.324 175.778C368.006 176.163 368.811 176.399 369.53 176.704C370.008 176.901 370.484 177.106 370.955 177.319C370.969 177.888 371.225 178.089 371.721 177.922C372.169 178.297 372.295 178.282 372.73 178.921C373.715 180.368 374.589 181.492 375.833 182.785C381.242 188.409 382.904 196.359 380.858 203.779ZM382.518 179.867C380.076 176.597 376.62 172.853 373.514 170.788C371.94 169.741 369.73 167.861 367.805 167.307C367.349 167.176 366.877 167.168 366.428 167.03C366.081 166.923 365.893 166.568 365.497 166.504C365.221 166.459 365.19 167.078 364.897 167.021C364.283 166.901 363.894 166.292 363.46 165.911C362.529 167.515 362.023 164.817 360.656 166.631C359.028 164.079 355.205 164.637 352.606 164.766C351.835 164.804 351.473 165.078 350.789 165.281C350.153 165.47 350.091 165.422 349.396 165.416C347.666 165.403 346.131 165.62 344.532 166.38C341.846 167.656 339.381 169.644 336.83 171.181C333.978 172.9 331.408 175.087 329.227 177.6C321.341 186.688 319.233 199.953 325.521 210.488C335.508 227.221 361.27 229.009 375.868 217.656C387.146 208.884 391.438 191.809 382.518 179.867Z" fill="#4E5274"/>
<path fill-rule="evenodd" clip-rule="evenodd" d="M515.134 132.78C514.854 133.449 512.237 133.224 512.179 132.435C512.094 131.257 515.621 131.618 515.134 132.78ZM517.915 132.343C519.398 132.463 521.835 133.471 523.265 132.862C525.446 131.933 523.155 130.507 521.985 130.08C520.794 129.647 519.02 129.877 518.408 128.632C517.947 127.696 519.085 125.081 517.673 125.501C516.191 125.942 516.622 129.687 514.296 128.425C513.187 127.823 513.64 124.153 511.782 126.028C511.273 126.541 511.229 127.482 510.556 127.865C509.868 128.255 509.006 127.848 508.281 127.882C506.36 127.972 505.748 129.769 507.694 130.482C508.415 130.746 511.13 131.068 509.485 132.245C508.449 132.986 506.147 131.43 505.257 132.721C504.033 134.494 507.31 134.534 508.19 135.065C509.682 135.963 508.45 138.061 508.569 139.555C508.751 141.838 510.077 141.361 510.559 139.429C510.967 137.79 510.461 135.43 512.932 136.082C516.956 137.143 510.694 142.252 513.642 143.559C515.521 144.392 515.788 139.886 515.934 139.111C516.474 136.247 518.083 136.915 520.52 137.003C523.367 137.105 524.054 134.999 521.039 134.396C520.077 134.204 518.754 134.447 517.918 133.834C517.424 133.472 516.745 132.248 517.915 132.343Z" fill="black"/>
<path fill-rule="evenodd" clip-rule="evenodd" d="M412.8 225.905C410.495 225.08 406.641 225.258 406.071 228.233C405.832 229.479 406.297 230.797 407.157 231.702C408.155 232.751 409.744 232.848 409.659 231.021C409.6 229.756 408.396 228.658 410.512 228.403C411.829 228.245 413.776 229.229 413.842 230.684C413.99 233.962 408.315 234.219 406.224 233.652C402.073 232.528 403.201 228.18 406.051 226.196C406.787 225.683 408.9 224.894 408.997 223.829C409.125 222.416 407.379 222.705 406.523 222.891C400.231 224.261 398.859 234.801 405.434 236.788C408.419 237.69 412.624 236.759 414.423 234.055C416.11 231.52 416.133 227.098 412.8 225.905Z" fill="#4E5274"/>
<g filter="url(#filter0_d)">
<path fill-rule="evenodd" clip-rule="evenodd" d="M320.372 151.287C318.406 152.234 316.439 153.181 314.472 154.128C313.822 152.737 312.724 148.936 311.075 148.451C308.405 147.665 310.105 151.808 310.566 152.755C310.944 153.533 311.822 154.739 311.609 155.666C311.323 156.916 309.56 157.359 308.637 158.003C306.354 159.599 306.372 162.95 309.679 161.53C311.55 160.726 313.867 158.497 315.301 161.028C315.964 162.196 317.533 168.72 319.172 164.453C320.186 161.812 315.305 159.067 317.711 156.832C318.486 156.113 319.392 156.053 320.166 155.639C322.035 154.641 320.981 152.796 320.372 151.287Z" fill="#4E5274"/>
</g>
<path fill-rule="evenodd" clip-rule="evenodd" d="M423.598 124.006C423.197 125.118 422.826 126.24 422.498 127.371C422.435 127.588 422.373 127.805 422.312 128.022L422.312 128.022C421.958 129.274 421.608 130.514 420.951 131.654C420.838 131.848 420.719 132.038 420.601 132.227C419.973 133.226 419.379 134.172 420.083 135.418C420.591 135.099 421.054 134.713 421.514 134.328L421.514 134.328C421.575 134.278 421.635 134.227 421.696 134.177C421.38 136.401 420.873 138.586 420.365 140.772L420.365 140.772C419.906 142.751 419.446 144.73 419.129 146.738C418.471 150.9 418.498 155.18 418.54 159.383C418.63 168.186 419.284 176.789 421.07 185.424C422.876 194.154 425.196 202.819 428.121 211.241C428.354 211.911 428.586 212.583 428.819 213.258L428.822 213.264C431.413 220.754 434.088 228.488 437.694 235.498C441.892 243.662 446.886 252.245 452.963 259.156C450.331 260.234 447.224 260.463 444.203 260.686H444.203C442.668 260.8 441.155 260.912 439.738 261.132C435.345 261.817 431.544 263.109 427.8 265.54C424.012 268.001 421.955 271.168 421.432 275.654C421.392 275.99 421.345 276.341 421.296 276.699C420.885 279.739 420.396 283.355 424.143 284.105C426.221 284.521 428.468 284.179 430.653 283.846C431.636 283.697 432.606 283.549 433.542 283.473C438.823 283.045 444.111 282.777 449.404 282.547C454.682 282.316 459.962 282.114 465.242 281.95C466.314 281.917 467.387 281.891 468.459 281.864H468.46C469.871 281.83 471.282 281.796 472.693 281.745C473.806 281.705 474.48 281.688 475.478 282.01C475.727 282.09 475.892 282.198 476.028 282.287C476.324 282.48 476.486 282.586 477.087 282.139C478.363 281.191 478.254 278.402 478.19 276.79C478.183 276.612 478.177 276.449 478.173 276.303C478.113 274.049 477.899 271.769 477.46 269.558C477.41 269.311 477.259 268.811 477.061 268.159L477.061 268.158L477.06 268.158C476.206 265.344 474.495 259.706 476.494 259.417C474.001 256.676 472.812 252.914 471.697 249.384L471.697 249.382C471.532 248.862 471.37 248.348 471.205 247.842C469.595 242.905 468.181 237.982 467.071 232.904C464.701 222.058 463.653 211.092 463.653 199.994C474.641 206.767 486.266 210.435 499.208 210.844C512.074 211.251 526.209 210.195 538.427 205.914C544.085 203.932 549.153 201.329 554.004 197.822C554.538 197.435 555.084 196.899 555.651 196.342C556.927 195.088 558.307 193.733 559.887 193.766C561.623 193.804 563.492 194.236 565.319 194.659L565.32 194.659C566.359 194.9 567.384 195.137 568.365 195.297C569.205 195.434 570.088 195.561 570.995 195.692L570.995 195.692C575.669 196.367 580.999 197.136 584.666 199.815C586.134 200.888 587.346 202.225 588.557 203.562L588.558 203.563L588.558 203.563C589.309 204.392 590.06 205.221 590.872 205.987C591.677 206.746 592.61 207.332 593.543 207.918C594.482 208.507 595.42 209.097 596.225 209.861C596.868 210.472 597.177 211.153 597.458 211.774C597.934 212.823 598.333 213.701 600.134 213.785C602.585 213.898 605.272 212.912 607.386 211.755C611.603 209.446 616.094 204.517 612.196 199.839C610.151 197.383 608.249 194.816 606.348 192.249C604.638 189.94 602.928 187.631 601.113 185.403C598.051 181.646 594.602 178.271 591.147 174.892C590.335 174.098 589.522 173.303 588.714 172.502C588.155 171.949 587.603 171.38 587.049 170.81L587.046 170.807L587.046 170.807C585.616 169.335 584.175 167.851 582.582 166.585C580.933 165.273 579.664 165.253 577.681 165.834C572.044 167.485 566.305 169.472 560.971 171.935C559.51 172.61 558.088 173.341 556.671 174.07C553.269 175.818 549.896 177.551 546.094 178.454C540.596 179.76 534.879 180.18 529.244 179.856C523.464 179.524 518.013 178.321 512.516 176.554C511.917 176.361 511.314 176.171 510.711 175.981L510.706 175.979C506.07 174.518 501.368 173.035 497.43 170.1C492.763 166.622 489.157 161.619 485.815 156.913C484.124 154.531 482.444 152.03 481.305 149.33C481.051 148.729 480.82 148.1 480.586 147.465C479.91 145.625 479.214 143.732 477.894 142.313C477.777 142.479 477.652 142.639 477.527 142.798L477.527 142.799C477.19 143.23 476.858 143.654 476.696 144.183C476.642 144.359 476.786 144.438 476.922 144.513C477.042 144.579 477.156 144.642 477.128 144.764C477.013 145.257 476.357 145.76 475.975 146.028C475.591 146.299 475.313 146.433 475.121 146.526C474.953 146.608 474.85 146.657 474.798 146.739C474.717 146.868 474.76 147.076 474.871 147.611C474.896 147.732 474.925 147.871 474.956 148.029C475.165 149.08 474.769 151.452 473.055 150.677C473.541 151.259 473.058 151.959 472.66 152.534L472.66 152.534L472.66 152.535C472.541 152.706 472.431 152.866 472.355 153.009C472.13 152.751 471.85 152.661 471.515 152.739C472.024 153.752 471.876 153.965 471.477 154.539L471.477 154.539C471.385 154.672 471.279 154.825 471.164 155.012C471.053 155.193 470.66 156.142 470.716 156.062C470.479 156.4 470.228 156.641 469.987 156.872C469.599 157.245 469.24 157.59 469.016 158.27C468.873 158.703 468.817 159.157 468.76 159.611C468.698 160.106 468.636 160.602 468.463 161.073C468.062 160.519 467.661 159.964 467.26 159.411C467.342 159.847 467.506 160.492 467.696 160.887C467.748 160.995 467.876 161.166 468.002 161.335C468.165 161.554 468.326 161.77 468.322 161.846C468.307 162.119 468.116 162.208 467.915 162.302C467.745 162.381 467.569 162.464 467.486 162.663C467.304 163.105 467.364 163.343 467.427 163.595C467.481 163.807 467.537 164.03 467.453 164.393C467.342 164.877 467.131 165.002 466.917 165.128L466.917 165.128C466.728 165.24 466.536 165.354 466.41 165.719C466.389 165.783 466.45 165.927 466.521 166.096C466.616 166.319 466.729 166.585 466.693 166.767C466.644 167.017 466.496 167.206 466.35 167.393C466.233 167.543 466.116 167.691 466.052 167.869C465.895 168.307 465.829 168.694 465.766 169.07L465.766 169.071C465.682 169.571 465.6 170.053 465.31 170.611C465.231 170.761 465.139 170.891 465.048 171.02C464.908 171.217 464.77 171.413 464.686 171.673C464.633 171.836 464.652 172.08 464.672 172.331C464.698 172.661 464.725 173.005 464.591 173.197C463.455 174.833 463.615 172.015 463.701 171.317C464.424 165.449 466.744 159.394 468.866 153.909C469.014 153.527 469.162 153.143 469.31 152.759L469.31 152.759C470.215 150.4 471.134 148.009 472.271 145.765C472.803 144.714 473.417 143.629 474.297 142.825C474.802 142.364 475.402 142.028 476.002 141.693L476.002 141.693C476.724 141.289 477.445 140.886 477.996 140.266C477.947 140.32 478.029 140.249 478.16 140.135L478.16 140.134C478.462 139.871 479.027 139.379 478.888 139.65C478.985 139.462 478.938 139.238 478.892 139.018C478.853 138.832 478.814 138.649 478.865 138.494C478.954 138.226 479.093 138.094 479.259 137.937C479.351 137.849 479.452 137.754 479.556 137.622C479.646 137.509 479.739 137.406 479.827 137.308C480.25 136.838 480.559 136.494 479.879 135.801C481.098 135.531 481.681 135.136 481.925 133.83C481.989 133.486 481.983 133.275 481.979 133.114C481.972 132.829 481.969 132.708 482.371 132.3C482.618 132.048 482.817 131.973 482.992 131.907C483.262 131.804 483.474 131.724 483.715 131.052C484.109 129.951 484.392 128.521 484.64 127.273L484.64 127.273L484.64 127.273C484.691 127.018 484.74 126.771 484.788 126.536C484.873 126.12 484.858 125.638 484.843 125.149V125.149C484.831 124.762 484.819 124.371 484.856 124.006H434.813C432.649 124.54 430.542 125.301 428.442 126.059L428.441 126.06C428.092 126.186 427.742 126.312 427.392 126.437C427.74 125.622 428.095 124.812 428.456 124.006H423.598ZM610.369 205.963C608.398 207.821 604.808 210.314 601.971 209.18C601.081 208.825 600.273 208.204 599.475 207.592L599.475 207.592C598.994 207.223 598.518 206.858 598.03 206.555C596.505 205.607 595.071 204.66 593.778 203.397C592.779 202.422 591.875 201.272 590.964 200.115C589.522 198.283 588.066 196.433 586.199 195.224C585.804 194.968 585.264 194.79 584.708 194.607C583.824 194.315 582.902 194.01 582.466 193.36C582.147 192.885 582.118 192.165 582.176 191.616C582.217 191.234 582.312 190.983 582.385 190.788C582.538 190.381 582.598 190.223 581.875 189.635H583.533C583.564 188.995 582.925 188.942 582.449 189.025C582.671 188.01 582.896 184.038 581.046 185.838C580.16 186.701 580.009 187.877 579.859 189.042C579.738 189.985 579.617 190.92 579.11 191.676C578.24 192.97 575.933 191.922 575.622 190.499C575.538 190.116 575.758 189.603 575.965 189.119L575.965 189.119C576.104 188.796 576.237 188.485 576.27 188.234C576.455 186.844 575.834 185.642 574.932 184.589C573.785 185.353 573.68 186.591 573.575 187.834C573.498 188.735 573.422 189.639 572.948 190.366C572.062 191.727 570.232 191.354 568.749 191.052C568.524 191.007 568.307 190.963 568.103 190.926C567.243 190.774 566.331 190.763 565.423 190.752H565.423C564.365 190.74 563.313 190.727 562.355 190.491C560.351 189.996 560.398 188.117 560.442 186.348C560.457 185.743 560.472 185.15 560.404 184.631C560.294 183.793 559.902 182.831 559.497 181.838L559.497 181.838C558.847 180.244 558.166 178.572 558.575 177.214C559.16 175.269 562.079 174.578 564.204 174.074L564.205 174.074C564.664 173.966 565.087 173.866 565.44 173.764C566.641 173.417 567.978 173.144 569.357 172.863C573.199 172.08 577.369 171.229 579.857 168.527C581.051 169.858 582.141 171.275 583.231 172.692C584.597 174.467 585.962 176.242 587.53 177.848C588.723 179.068 589.947 180.252 591.171 181.435L591.173 181.438L591.174 181.438C593.076 183.278 594.977 185.116 596.756 187.09C597.688 188.123 598.628 189.149 599.568 190.176C601.703 192.507 603.84 194.841 605.876 197.252C606.435 197.914 606.964 198.598 607.493 199.282C608.176 200.165 608.858 201.047 609.604 201.881C609.66 201.943 609.715 202.004 609.771 202.066C610.892 203.31 611.945 204.479 610.369 205.963ZM475.184 147.631C476.582 146.888 476.759 147.354 476.759 148.885C476.357 148.15 475.958 147.953 475.184 147.631ZM463.334 177.387V174.689C464.682 174.654 463.853 176.962 463.334 177.387ZM463.005 181.405C463.005 181.31 463.005 181.216 463.005 181.122C463.002 180.03 463 178.981 463.317 177.911C463.342 178.086 463.371 178.259 463.398 178.429L463.399 178.43L463.399 178.43C463.571 179.483 463.727 180.431 463.005 181.405ZM468.798 263.482C469.218 263.522 469.714 263.45 470.228 263.375C471.229 263.23 472.295 263.075 472.983 263.717C473.768 264.449 473.93 266.207 474.062 267.624C474.109 268.138 474.152 268.607 474.22 268.966C474.638 271.193 475.009 273.428 475.362 275.666L475.381 275.788C475.607 277.215 475.833 278.639 474.22 279.185C472.586 279.738 470.485 279.396 468.509 279.075L468.509 279.075L468.509 279.075C467.52 278.915 466.562 278.759 465.709 278.723C464.19 278.659 462.672 278.588 461.153 278.516L461.152 278.516L461.15 278.516C457.622 278.351 454.094 278.185 450.563 278.113C445.666 278.014 440.758 278.092 435.883 278.602C434.099 278.788 432.346 279.09 430.586 279.394L430.572 279.396C430.165 279.467 429.757 279.537 429.349 279.606C429.181 279.634 428.973 279.675 428.737 279.722C427.347 279.999 424.971 280.471 424.084 279.643C422.132 277.82 425.377 273.564 426.773 272.362C429.364 270.131 433.049 268.522 436.297 267.554C436.596 267.464 436.93 267.347 437.284 267.223C438.985 266.626 441.163 265.862 442.295 267.208C442.722 267.715 442.968 268.291 443.211 268.86C443.566 269.69 443.914 270.505 444.806 271.065C448.29 273.255 446.252 266.974 444.075 266.2C445.251 263.447 447.285 266.037 448.637 267.759C448.965 268.177 449.253 268.543 449.478 268.77L449.496 268.788C449.927 269.22 451.235 270.535 451.808 269.86C452.16 269.445 451.657 268.16 451.367 267.422C451.3 267.249 451.244 267.107 451.213 267.012C451.153 266.825 451.07 266.613 450.981 266.389L450.981 266.388C450.712 265.703 450.394 264.896 450.528 264.276C450.85 262.788 452.938 262.382 454.189 262.258C455.476 262.13 456.748 262.358 458.018 262.586C458.661 262.702 459.304 262.817 459.949 262.886C461.518 263.054 463.092 263.134 464.667 263.214H464.668C466.046 263.284 467.424 263.353 468.798 263.482Z" fill="#2BA9C0"/>
<path fill-rule="evenodd" clip-rule="evenodd" d="M617.723 56.7587C616.551 56.3298 615.1 55.4923 613.797 55.7778C612.411 56.0809 611.854 57.4683 610.847 58.3023C608.109 60.5701 606.514 57.1901 605.009 55.3378C603.588 53.5888 601.855 53.1642 599.85 54.2389C599.051 54.6674 595.687 56.6304 596.273 57.8881C596.695 58.7931 598.358 57.9806 598.925 57.783C600.156 57.3546 601.299 56.9796 602.558 57.6043C604.92 58.7755 605.533 61.9872 608.39 62.4879C611.344 63.0059 611.441 60.1942 613.55 59.1359C614.963 58.4267 615.948 59.6823 617.312 59.4321C618.611 59.194 619.212 57.3029 617.723 56.7587Z" fill="#4E5274"/>
<path fill-rule="evenodd" clip-rule="evenodd" d="M593.87 68.0902C594.915 68.3171 595.597 66.2904 596.251 65.7763C597.336 64.9242 599.217 64.7524 600.322 65.6101C602.48 67.2842 601.736 70.8984 604.808 71.8405C607.554 72.6827 608.847 69.0663 611.159 68.166C612.503 67.6424 613.978 67.2997 613.453 65.4211C613.091 64.122 612.024 63.7883 610.864 64.2873C608.871 65.1442 608.194 68.6349 605.83 68.6973C603.385 68.7619 603.12 65.2368 602.07 63.7013C600.47 61.3611 597.18 60.7958 595.31 63.0335C594.746 63.7087 591.88 67.6592 593.87 68.0902Z" fill="#4E5274"/>
<path fill-rule="evenodd" clip-rule="evenodd" d="M545.536 28.1281C546.99 29.1227 549.887 29.0883 551.226 27.8547C552.589 26.5996 550.769 26.4067 549.659 26.445C548.805 26.4747 547.207 26.8979 547.694 25.4232C548.126 24.1147 550.499 24.7808 550.697 23.3444C548.911 23.024 546.943 23.1394 545.622 24.5435C544.666 25.5584 544.175 27.1968 545.536 28.1281Z" fill="#3C3F59"/>
<path d="M632.001 280.779V326.506H602.549V383.084H542.871L542.484 326.506H432.041V285.817L506.445 114.533L558.372 133.909L495.207 280.779H543.259L549.847 218.776H602.549V280.779H632.001Z" fill="#3C3F59"/>
<path d="M199.96 285.946V331.673H170.508V388.251H110.83L110.443 331.673H0V290.984L74.4037 119.7L126.331 139.076L63.1656 285.946H111.218L117.806 223.943H170.508V285.946H199.96Z" fill="#3C3F59"/>
<path fill-rule="evenodd" clip-rule="evenodd" d="M477.228 281.726C477.792 281.739 478.293 281.807 478.923 282.01C479.172 282.09 479.337 282.198 479.473 282.287C479.769 282.48 479.931 282.586 480.533 282.139C480.98 281.807 481.257 281.248 481.425 280.593L477.228 281.726ZM467.353 200.151C478.265 206.823 489.811 210.439 502.653 210.845C515.519 211.251 529.654 210.195 541.872 205.914C547.53 203.932 552.598 201.329 557.449 197.822C557.983 197.435 558.529 196.899 559.096 196.342C560.372 195.088 561.752 193.733 563.332 193.767C565.068 193.804 566.937 194.236 568.764 194.659L568.765 194.659C569.804 194.9 570.829 195.137 571.81 195.297C572.65 195.434 573.533 195.561 574.44 195.692L574.44 195.692C579.114 196.367 584.444 197.136 588.111 199.815C589.579 200.888 590.791 202.225 592.002 203.562L592.003 203.563L592.003 203.563L592.003 203.563C592.754 204.392 593.505 205.221 594.317 205.987C595.122 206.746 596.055 207.332 596.988 207.918C597.927 208.507 598.865 209.097 599.67 209.861C600.313 210.472 600.622 211.153 600.903 211.774C601.38 212.823 601.778 213.701 603.579 213.785C606.03 213.898 608.717 212.912 610.831 211.755C615.048 209.446 619.539 204.517 615.642 199.839C613.596 197.383 611.695 194.816 609.793 192.249C608.083 189.94 606.373 187.631 604.558 185.403C601.497 181.646 598.047 178.271 594.592 174.892C593.78 174.098 592.967 173.303 592.159 172.503C591.601 171.949 591.048 171.381 590.495 170.811L590.494 170.81L590.492 170.808L590.491 170.807C589.061 169.335 587.62 167.851 586.027 166.585C584.378 165.274 583.109 165.253 581.126 165.834C575.489 167.485 569.75 169.472 564.416 171.935C562.955 172.61 561.533 173.341 560.116 174.07C556.714 175.818 553.341 177.551 549.539 178.454C544.041 179.76 538.324 180.18 532.689 179.856C526.909 179.524 521.458 178.321 515.961 176.554C515.362 176.361 514.759 176.171 514.156 175.981L514.151 175.979C509.515 174.518 504.813 173.035 500.875 170.1C496.208 166.622 492.602 161.619 489.26 156.913C487.569 154.532 485.889 152.03 484.75 149.33C484.496 148.729 484.265 148.1 484.031 147.465C483.355 145.625 482.659 143.732 481.339 142.313C481.222 142.479 481.097 142.639 480.972 142.798L480.972 142.799C480.635 143.23 480.303 143.654 480.141 144.183C480.087 144.359 480.231 144.438 480.368 144.513C480.487 144.579 480.601 144.642 480.573 144.764C480.458 145.257 479.802 145.76 479.42 146.028C479.036 146.299 478.758 146.433 478.566 146.526C478.398 146.608 478.296 146.657 478.243 146.739C478.162 146.868 478.205 147.076 478.316 147.611L478.316 147.611L478.316 147.611C478.341 147.732 478.37 147.871 478.401 148.029C478.61 149.08 478.214 151.452 476.5 150.677C476.986 151.26 476.503 151.959 476.105 152.534L476.105 152.534L476.105 152.535L476.105 152.535C475.986 152.706 475.876 152.867 475.8 153.009C475.575 152.751 475.295 152.661 474.96 152.739C475.469 153.752 475.321 153.965 474.922 154.539L474.922 154.539L474.922 154.539L474.922 154.539C474.83 154.672 474.724 154.825 474.609 155.012C474.498 155.193 474.105 156.142 474.161 156.062C473.924 156.4 473.673 156.641 473.432 156.872C473.044 157.245 472.685 157.59 472.461 158.27C472.318 158.703 472.262 159.157 472.205 159.612C472.143 160.106 472.081 160.602 471.908 161.073C471.507 160.519 471.106 159.965 470.705 159.411C470.787 159.847 470.951 160.492 471.141 160.887C471.193 160.995 471.321 161.166 471.447 161.335C471.61 161.554 471.771 161.77 471.767 161.846C471.752 162.119 471.561 162.208 471.36 162.302C471.19 162.382 471.014 162.464 470.932 162.663C470.749 163.106 470.809 163.343 470.872 163.595C470.926 163.808 470.982 164.03 470.898 164.393C470.787 164.877 470.576 165.002 470.362 165.128L470.362 165.129C470.173 165.24 469.982 165.354 469.856 165.719C469.834 165.783 469.895 165.927 469.966 166.096C470.061 166.319 470.174 166.585 470.138 166.767C470.089 167.017 469.941 167.206 469.795 167.393C469.678 167.543 469.561 167.692 469.497 167.87C469.34 168.307 469.275 168.694 469.211 169.071L469.211 169.071C469.127 169.571 469.045 170.053 468.755 170.611C468.677 170.761 468.584 170.891 468.493 171.02C468.353 171.217 468.215 171.413 468.131 171.673C468.078 171.837 468.097 172.08 468.117 172.331C468.143 172.661 468.17 173.005 468.036 173.197C466.9 174.833 467.06 172.016 467.146 171.317C467.869 165.449 470.189 159.394 472.312 153.909C472.458 153.531 472.604 153.151 472.75 152.769L472.755 152.759L472.755 152.759C473.66 150.4 474.579 148.009 475.716 145.765C476.248 144.714 476.862 143.629 477.742 142.825C478.247 142.364 478.848 142.028 479.447 141.693C480.169 141.289 480.89 140.886 481.441 140.266C481.393 140.32 481.474 140.249 481.605 140.135L481.605 140.135L481.605 140.135C481.907 139.871 482.472 139.379 482.333 139.65C482.43 139.462 482.383 139.238 482.337 139.018C482.298 138.832 482.259 138.649 482.31 138.494C482.399 138.226 482.538 138.094 482.704 137.937C482.796 137.849 482.897 137.754 483.001 137.622C483.091 137.509 483.184 137.406 483.272 137.308C483.695 136.838 484.004 136.494 483.324 135.801C484.543 135.531 485.126 135.136 485.37 133.83C485.434 133.487 485.429 133.275 485.424 133.115C485.417 132.829 485.414 132.708 485.816 132.3C486.063 132.049 486.262 131.973 486.437 131.907C486.707 131.804 486.919 131.724 487.16 131.052C487.554 129.951 487.837 128.521 488.085 127.274L488.085 127.273L488.085 127.273L488.085 127.272C488.136 127.018 488.185 126.771 488.233 126.536C488.318 126.12 488.303 125.638 488.288 125.149V125.149C488.276 124.762 488.264 124.371 488.301 124.006H446.791L467.353 200.151ZM605.416 209.18C608.253 210.314 611.843 207.821 613.814 205.963C615.39 204.479 614.337 203.31 613.216 202.066C613.16 202.004 613.105 201.943 613.049 201.881C612.303 201.047 611.621 200.165 610.938 199.282C610.409 198.598 609.88 197.914 609.322 197.253C607.285 194.841 605.148 192.508 603.013 190.177C602.073 189.149 601.133 188.123 600.201 187.09C598.422 185.116 596.521 183.278 594.619 181.438L594.618 181.438L594.616 181.435C593.392 180.252 592.168 179.068 590.975 177.848C589.407 176.242 588.042 174.467 586.676 172.692C585.586 171.275 584.496 169.858 583.302 168.527C580.814 171.229 576.644 172.08 572.802 172.863C571.423 173.145 570.087 173.417 568.885 173.764C568.532 173.866 568.109 173.966 567.65 174.074L567.65 174.074L567.649 174.075C565.524 174.578 562.605 175.269 562.02 177.214C561.611 178.572 562.293 180.244 562.942 181.838L562.943 181.839C563.347 182.831 563.739 183.793 563.849 184.631C563.917 185.15 563.902 185.743 563.887 186.348C563.843 188.117 563.796 189.996 565.8 190.491C566.758 190.727 567.81 190.74 568.868 190.752H568.868C569.776 190.763 570.688 190.774 571.548 190.926C571.752 190.963 571.969 191.007 572.194 191.053C573.677 191.355 575.507 191.727 576.393 190.366C576.867 189.639 576.943 188.735 577.02 187.834C577.125 186.591 577.23 185.353 578.377 184.589C579.279 185.642 579.9 186.844 579.715 188.234C579.682 188.485 579.549 188.796 579.41 189.119L579.41 189.119L579.41 189.119C579.203 189.603 578.983 190.116 579.067 190.499C579.378 191.922 581.685 192.97 582.555 191.676C583.062 190.921 583.183 189.985 583.304 189.042C583.454 187.877 583.605 186.701 584.491 185.838C586.341 184.039 586.116 188.01 585.894 189.025C586.37 188.942 587.009 188.995 586.978 189.635H585.32C586.043 190.223 585.983 190.381 585.83 190.788C585.757 190.983 585.662 191.234 585.621 191.616C585.563 192.165 585.592 192.885 585.911 193.36C586.347 194.01 587.269 194.315 588.154 194.607C588.709 194.79 589.249 194.968 589.644 195.224C591.511 196.433 592.967 198.283 594.409 200.115C595.32 201.272 596.224 202.422 597.223 203.397C598.516 204.66 599.95 205.607 601.475 206.555C601.963 206.858 602.439 207.223 602.92 207.592L602.92 207.592C603.718 208.204 604.526 208.825 605.416 209.18ZM478.629 147.632C480.027 146.888 480.204 147.354 480.204 148.885C479.802 148.15 479.403 147.953 478.629 147.632ZM466.779 177.387V174.689C468.127 174.654 467.298 176.962 466.779 177.387ZM466.45 181.122C466.45 181.216 466.45 181.31 466.45 181.405C467.172 180.431 467.016 179.483 466.844 178.43L466.844 178.43L466.843 178.429L466.843 178.428C466.816 178.258 466.787 178.086 466.762 177.911C466.445 178.981 466.447 180.03 466.45 181.122Z" fill="#2BA9C0"/>
<defs>
<filter id="filter0_d" x="297.043" y="138.352" width="34.1807" height="37.5315" filterUnits="userSpaceOnUse" color-interpolation-filters="sRGB">
<feFlood flood-opacity="0" result="BackgroundImageFix"/>
<feColorMatrix in="SourceAlpha" type="matrix" values="0 0 0 0 0 0 0 0 0 0 0 0 0 0 0 0 0 0 127 0"/>
<feOffset/>
<feGaussianBlur stdDeviation="5"/>
<feColorMatrix type="matrix" values="0 0 0 0 0 0 0 0 0 0 0 0 0 0 0 0 0 0 0.16 0"/>
<feBlend mode="normal" in2="BackgroundImageFix" result="effect1_dropShadow"/>
<feBlend mode="normal" in="SourceGraphic" in2="effect1_dropShadow" result="shape"/>
</filter>
</defs>
</svg>
