<svg width="1440" height="1583" viewBox="0 0 1440 1583" fill="none" xmlns="http://www.w3.org/2000/svg">
<g opacity="0.2">
<mask id="mask0" mask-type="alpha" maskUnits="userSpaceOnUse" x="1319" y="675" width="133" height="265">
<path d="M1451.36 675.152C1434.03 675.152 1416.86 678.567 1400.85 685.2C1384.83 691.834 1370.28 701.557 1358.02 713.814C1345.76 726.072 1336.04 740.623 1329.41 756.638C1322.77 772.653 1319.36 789.818 1319.36 807.152C1319.36 824.487 1322.77 841.652 1329.41 857.667C1336.04 873.682 1345.76 888.233 1358.02 900.49C1370.28 912.748 1384.83 922.471 1400.85 929.104C1416.86 935.738 1434.03 939.152 1451.36 939.152L1451.36 675.152Z" fill="#CBD5E0"/>
</mask>
<g mask="url(#mask0)">
<path d="M1405.01 1429.8L2007.46 827.344M1402.89 1427.68L2005.34 825.222M1400.76 1425.56L2003.22 823.101M1398.64 1423.43L2001.1 820.98M1396.52 1421.31L1998.98 818.858M1394.4 1419.19L1996.86 816.737M1392.28 1417.07L1994.73 814.616M1390.16 1414.95L1992.61 812.494M1388.04 1412.83L1990.49 810.373M1385.91 1410.71L1988.37 808.252M1383.79 1408.59L1986.25 806.13M1381.67 1406.46L1984.13 804.009M1379.55 1404.34L1982.01 801.887M1377.43 1402.22L1979.88 799.766M1375.31 1400.1L1977.76 797.645M1373.19 1397.98L1975.64 795.523M1371.07 1395.86L1973.52 793.402M1368.94 1393.74L1971.4 791.281M1366.82 1391.61L1969.28 789.159M1364.7 1389.49L1967.16 787.038M1362.58 1387.37L1965.03 784.917M1360.46 1385.25L1962.91 782.795M1358.34 1383.13L1960.79 780.674M1356.22 1381.01L1958.67 778.552M1354.09 1378.89L1956.55 776.431M1351.97 1376.76L1954.43 774.31M1349.85 1374.64L1952.31 772.188M1347.73 1372.52L1950.19 770.067M1345.61 1370.4L1948.06 767.946M1343.49 1368.28L1945.94 765.824M1341.37 1366.16L1943.82 763.703M1339.24 1364.04L1941.7 761.582M1337.12 1361.92L1939.58 759.46M1335 1359.79L1937.46 757.339M1332.88 1357.67L1935.34 755.218M1330.76 1355.55L1933.21 753.096M1328.64 1353.43L1931.09 750.975M1326.52 1351.31L1928.97 748.853M1324.4 1349.19L1926.85 746.732M1322.27 1347.07L1924.73 744.611M1320.15 1344.94L1922.61 742.489M1318.03 1342.82L1920.49 740.368M1315.91 1340.7L1918.36 738.247M1313.79 1338.58L1916.24 736.125M1311.67 1336.46L1914.12 734.004M1309.55 1334.34L1912 731.883M1307.42 1332.22L1909.88 729.761M1305.3 1330.09L1907.76 727.64M1303.18 1327.97L1905.64 725.518M1301.06 1325.85L1903.52 723.397M1298.94 1323.73L1901.39 721.276M1296.82 1321.61L1899.27 719.154M1294.7 1319.49L1897.15 717.033M1292.58 1317.37L1895.03 714.912M1290.45 1315.25L1892.91 712.79M1288.33 1313.12L1890.79 710.669M1286.21 1311L1888.67 708.548M1284.09 1308.88L1886.54 706.426M1281.97 1306.76L1884.42 704.305M1279.85 1304.64L1882.3 702.183M1277.73 1302.52L1880.18 700.062M1275.6 1300.4L1878.06 697.941M1273.48 1298.27L1875.94 695.819M1271.36 1296.15L1873.82 693.698M1269.24 1294.03L1871.7 691.577M1267.12 1291.91L1869.57 689.455M1265 1289.79L1867.45 687.334M1262.88 1287.67L1865.33 685.213M1260.75 1285.55L1863.21 683.091M1258.63 1283.42L1861.09 680.97M1256.51 1281.3L1858.97 678.848M1254.39 1279.18L1856.85 676.727M1252.27 1277.06L1854.72 674.606M1250.15 1274.94L1852.6 672.484M1248.03 1272.82L1850.48 670.363M1245.91 1270.7L1848.36 668.242M1243.78 1268.58L1846.24 666.12M1241.66 1266.45L1844.12 663.999M1239.54 1264.33L1842 661.878M1237.42 1262.21L1839.87 659.756M1235.3 1260.09L1837.75 657.635M1233.18 1257.97L1835.63 655.513M1231.06 1255.85L1833.51 653.392M1228.93 1253.73L1831.39 651.271M1226.81 1251.6L1829.27 649.149M1224.69 1249.48L1827.15 647.028M1222.57 1247.36L1825.02 644.907M1220.45 1245.24L1822.9 642.785M1218.33 1243.12L1820.78 640.664M1216.21 1241L1818.66 638.543M1214.08 1238.88L1816.54 636.421M1211.96 1236.75L1814.42 634.3M1209.84 1234.63L1812.3 632.178M1207.72 1232.51L1810.18 630.057M1205.6 1230.39L1808.05 627.936M1203.48 1228.27L1805.93 625.814M1201.36 1226.15L1803.81 623.693M1199.24 1224.03L1801.69 621.572M1197.11 1221.91L1799.57 619.45M1194.99 1219.78L1797.45 617.329M1192.87 1217.66L1795.33 615.208M1190.75 1215.54L1793.2 613.086M1188.63 1213.42L1791.08 610.965M1186.51 1211.3L1788.96 608.843M1184.39 1209.18L1786.84 606.722M1182.26 1207.06L1784.72 604.601M1180.14 1204.93L1782.6 602.479M1178.02 1202.81L1780.48 600.358M1175.9 1200.69L1778.36 598.237M1173.78 1198.57L1776.23 596.115M1171.66 1196.45L1774.11 593.994M1169.54 1194.33L1771.99 591.873M1167.41 1192.21L1769.87 589.751M1165.29 1190.08L1767.75 587.63M1163.17 1187.96L1765.63 585.509M1161.05 1185.84L1763.51 583.387M1158.93 1183.72L1761.38 581.266M1156.81 1181.6L1759.26 579.144M1154.69 1179.48L1757.14 577.023M1152.57 1177.36L1755.02 574.902M1150.44 1175.24L1752.9 572.78M1148.32 1173.11L1750.78 570.659M1146.2 1170.99L1748.66 568.538M1144.08 1168.87L1746.53 566.416M1141.96 1166.75L1744.41 564.295M1139.84 1164.63L1742.29 562.173M1137.72 1162.51L1740.17 560.052M1135.59 1160.39L1738.05 557.931M1133.47 1158.26L1735.93 555.809M1131.35 1156.14L1733.81 553.688M1129.23 1154.02L1731.69 551.567M1127.11 1151.9L1729.56 549.445M1124.99 1149.78L1727.44 547.324M1122.87 1147.66L1725.32 545.203M1120.74 1145.54L1723.2 543.081M1118.62 1143.41L1721.08 540.96M1116.5 1141.29L1718.96 538.839M1114.38 1139.17L1716.84 536.717M1112.26 1137.05L1714.71 534.596M1110.14 1134.93L1712.59 532.474M1108.02 1132.81L1710.47 530.353M1105.9 1130.69L1708.35 528.232M1103.77 1128.57L1706.23 526.11M1101.65 1126.44L1704.11 523.989M1099.53 1124.32L1701.99 521.868M1097.41 1122.2L1699.86 519.746M1095.29 1120.08L1697.74 517.625M1093.17 1117.96L1695.62 515.503M1091.05 1115.84L1693.5 513.382M1088.92 1113.72L1691.38 511.261M1086.8 1111.59L1689.26 509.139M1084.68 1109.47L1687.14 507.018M1082.56 1107.35L1685.02 504.897M1080.44 1105.23L1682.89 502.775M1078.32 1103.11L1680.77 500.654M1076.2 1100.99L1678.65 498.533M1074.07 1098.87L1676.53 496.411M1071.95 1096.74L1674.41 494.29M1069.83 1094.62L1672.29 492.169M1067.71 1092.5L1670.17 490.047M1065.59 1090.38L1668.04 487.926M1063.47 1088.26L1665.92 485.804M1061.35 1086.14L1663.8 483.683M1059.23 1084.02L1661.68 481.562M1057.1 1081.9L1659.56 479.44M1054.98 1079.77L1657.44 477.319M1052.86 1077.65L1655.32 475.198M1050.74 1075.53L1653.19 473.076M1048.62 1073.41L1651.07 470.955M1046.5 1071.29L1648.95 468.834M1044.38 1069.17L1646.83 466.712M1042.25 1067.05L1644.71 464.591M1040.13 1064.92L1642.59 462.469M1038.01 1062.8L1640.47 460.348M1035.89 1060.68L1638.35 458.227M1033.77 1058.56L1636.22 456.105M1031.65 1056.44L1634.1 453.984M1029.53 1054.32L1631.98 451.863M1027.4 1052.2L1629.86 449.741M1025.28 1050.07L1627.74 447.62M1023.16 1047.95L1625.62 445.499M1021.04 1045.83L1623.5 443.377M1018.92 1043.71L1621.37 441.256M1016.8 1041.59L1619.25 439.134M1014.68 1039.47L1617.13 437.013M1012.56 1037.35L1615.01 434.892M1010.43 1035.23L1612.89 432.77M1008.31 1033.1L1610.77 430.649M1006.19 1030.98L1608.65 428.528M1004.07 1028.86L1606.52 426.406M1001.95 1026.74L1604.4 424.285M999.827 1024.62L1602.28 422.164M997.706 1022.5L1600.16 420.042M995.584 1020.38L1598.04 417.921M993.463 1018.25L1595.92 415.8M991.342 1016.13L1593.8 413.678M989.22 1014.01L1591.68 411.557M987.099 1011.89L1589.55 409.435M984.977 1009.77L1587.43 407.314M982.856 1007.65L1585.31 405.193M980.735 1005.53L1583.19 403.071M978.613 1003.4L1581.07 400.95M976.492 1001.28L1578.95 398.829M974.371 999.162L1576.83 396.707M972.249 997.041L1574.7 394.586M970.128 994.919L1572.58 392.465M968.007 992.798L1570.46 390.343M965.885 990.677L1568.34 388.222M963.764 988.555L1566.22 386.1M961.642 986.434L1564.1 383.979M959.521 984.313L1561.98 381.858M957.4 982.191L1559.85 379.736M955.278 980.07L1557.73 377.615M953.157 977.949L1555.61 375.494M951.036 975.827L1553.49 373.372M948.914 973.706L1551.37 371.251M946.793 971.584L1549.25 369.129M944.672 969.463L1547.13 367.008M942.55 967.342L1545.01 364.887M940.429 965.22L1542.88 362.765M938.307 963.099L1540.76 360.644M936.186 960.978L1538.64 358.523M934.065 958.856L1536.52 356.401M931.943 956.735L1534.4 354.28M929.822 954.614L1532.28 352.159M927.701 952.492L1530.16 350.037M925.579 950.371L1528.03 347.916M923.458 948.25L1525.91 345.795M921.337 946.128L1523.79 343.673M919.215 944.007L1521.67 341.552M917.094 941.885L1519.55 339.431M914.972 939.764L1517.43 337.309M912.851 937.643L1515.31 335.188M910.73 935.521L1513.18 333.066M908.608 933.4L1511.06 330.945M906.487 931.279L1508.94 328.824M904.366 929.157L1506.82 326.702M902.244 927.036L1504.7 324.581M900.123 924.915L1502.58 322.46M898.002 922.793L1500.46 320.338M895.88 920.672L1498.34 318.217M893.759 918.55L1496.21 316.095M891.637 916.429L1494.09 313.974M889.516 914.308L1491.97 311.853M887.395 912.186L1489.85 309.731M885.273 910.065L1487.73 307.61M883.152 907.944L1485.61 305.489M881.031 905.822L1483.49 303.367M878.909 903.701L1481.36 301.246M876.788 901.58L1479.24 299.125M874.667 899.458L1477.12 297.003M872.545 897.337L1475 294.882M870.424 895.215L1472.88 292.76M868.302 893.094L1470.76 290.639M866.181 890.973L1468.64 288.518M864.06 888.851L1466.51 286.396M861.938 886.73L1464.39 284.275M859.817 884.609L1462.27 282.154M857.696 882.487L1460.15 280.032M855.574 880.366L1458.03 277.911M853.453 878.245L1455.91 275.79M851.332 876.123L1453.79 273.668M849.21 874.002L1451.67 271.547M847.089 871.88L1449.54 269.426M844.968 869.759L1447.42 267.304M842.846 867.638L1445.3 265.183M840.725 865.516L1443.18 263.061M838.603 863.395L1441.06 260.94M836.482 861.274L1438.94 258.819M834.361 859.152L1436.82 256.697M832.239 857.031L1434.69 254.576M830.118 854.91L1432.57 252.455M827.997 852.788L1430.45 250.333M825.875 850.667L1428.33 248.212M823.754 848.546L1426.21 246.091M821.633 846.424L1424.09 243.969M819.511 844.303L1421.97 241.848M817.39 842.181L1419.84 239.726M815.268 840.06L1417.72 237.605M813.147 837.939L1415.6 235.484M811.026 835.817L1413.48 233.362M808.904 833.696L1411.36 231.241M806.783 831.575L1409.24 229.12M804.662 829.453L1407.12 226.998M802.54 827.332L1405 224.877M800.419 825.211L1402.87 222.756M798.298 823.089L1400.75 220.634M796.176 820.968L1398.63 218.513M794.055 818.846L1396.51 216.391M791.933 816.725L1394.39 214.27M789.812 814.604L1392.27 212.149M787.691 812.482L1390.15 210.027M785.569 810.361L1388.02 207.906M783.448 808.24L1385.9 205.785M781.327 806.118L1383.78 203.663M779.205 803.997L1381.66 201.542M777.084 801.875L1379.54 199.421M774.963 799.754L1377.42 197.299M772.841 797.633L1375.3 195.178M770.72 795.511L1373.17 193.056M768.598 793.39L1371.05 190.935M766.477 791.269L1368.93 188.814M764.356 789.147L1366.81 186.692M762.234 787.026L1364.69 184.571" stroke="#219BB2"/>
</g>
</g>
<g opacity="0.2">
<mask id="mask1" mask-type="alpha" maskUnits="userSpaceOnUse" x="477" y="1008" width="149" height="75">
<path d="M477.36 1008.15C477.36 1017.87 479.274 1027.49 482.993 1036.47C486.712 1045.45 492.163 1053.61 499.034 1060.48C505.906 1067.35 514.064 1072.8 523.042 1076.52C532.02 1080.24 541.643 1082.15 551.36 1082.15C561.078 1082.15 570.701 1080.24 579.679 1076.52C588.657 1072.8 596.815 1067.35 603.686 1060.48C610.558 1053.61 616.009 1045.45 619.727 1036.47C623.446 1027.49 625.36 1017.87 625.36 1008.15L477.36 1008.15Z" fill="#CBD5E0"/>
</mask>
<g mask="url(#mask1)">
<path d="M900.42 1034.14L562.68 696.398M899.231 1035.33L561.491 697.587M898.041 1036.52L560.302 698.777M896.852 1037.71L559.112 699.966M895.663 1038.9L557.923 701.155M894.474 1040.08L556.734 702.344M893.284 1041.27L555.545 703.534M892.095 1042.46L554.355 704.723M890.906 1043.65L553.166 705.912M889.717 1044.84L551.977 707.101M888.527 1046.03L550.788 708.291M887.338 1047.22L549.598 709.48M886.149 1048.41L548.409 710.669M884.96 1049.6L547.22 711.858M883.77 1050.79L546.031 713.048M882.581 1051.98L544.841 714.237M881.392 1053.17L543.652 715.426M880.203 1054.36L542.463 716.615M879.013 1055.54L541.274 717.805M877.824 1056.73L540.084 718.994M876.635 1057.92L538.895 720.183M875.446 1059.11L537.706 721.372M874.256 1060.3L536.517 722.562M873.067 1061.49L535.327 723.751M871.878 1062.68L534.138 724.94M870.689 1063.87L532.949 726.129M869.499 1065.06L531.76 727.319M868.31 1066.25L530.57 728.508M867.121 1067.44L529.381 729.697M865.932 1068.63L528.192 730.886M864.742 1069.82L527.003 732.076M863.553 1071L525.813 733.265M862.364 1072.19L524.624 734.454M861.175 1073.38L523.435 735.643M859.986 1074.57L522.246 736.833M858.796 1075.76L521.056 738.022M857.607 1076.95L519.867 739.211M856.418 1078.14L518.678 740.4M855.229 1079.33L517.489 741.59M854.039 1080.52L516.299 742.779M852.85 1081.71L515.11 743.968M851.661 1082.9L513.921 745.157M850.472 1084.09L512.732 746.347M849.282 1085.28L511.542 747.536M848.093 1086.47L510.353 748.725M846.904 1087.65L509.164 749.914M845.715 1088.84L507.975 751.104M844.525 1090.03L506.785 752.293M843.336 1091.22L505.596 753.482M842.147 1092.41L504.407 754.671M840.958 1093.6L503.218 755.861M839.768 1094.79L502.028 757.05M838.579 1095.98L500.839 758.239M837.39 1097.17L499.65 759.428M836.201 1098.36L498.461 760.618M835.011 1099.55L497.271 761.807M833.822 1100.74L496.082 762.996M832.633 1101.93L494.893 764.185M831.444 1103.11L493.704 765.375M830.254 1104.3L492.514 766.564M829.065 1105.49L491.325 767.753M827.876 1106.68L490.136 768.942M826.687 1107.87L488.947 770.132M825.497 1109.06L487.757 771.321M824.308 1110.25L486.568 772.51M823.119 1111.44L485.379 773.699M821.93 1112.63L484.19 774.889M820.74 1113.82L483 776.078M819.551 1115.01L481.811 777.267M818.362 1116.2L480.622 778.456M817.173 1117.39L479.433 779.646M815.983 1118.57L478.243 780.835M814.794 1119.76L477.054 782.024M813.605 1120.95L475.865 783.213M812.416 1122.14L474.676 784.403M811.226 1123.33L473.486 785.592M810.037 1124.52L472.297 786.781M808.848 1125.71L471.108 787.97M807.659 1126.9L469.919 789.16M806.469 1128.09L468.729 790.349M805.28 1129.28L467.54 791.538M804.091 1130.47L466.351 792.727M802.902 1131.66L465.162 793.917M801.712 1132.85L463.972 795.106M800.523 1134.04L462.783 796.295M799.334 1135.22L461.594 797.484M798.145 1136.41L460.405 798.674M796.955 1137.6L459.215 799.863M795.766 1138.79L458.026 801.052M794.577 1139.98L456.837 802.241M793.388 1141.17L455.648 803.431M792.198 1142.36L454.458 804.62M791.009 1143.55L453.269 805.809M789.82 1144.74L452.08 806.998M788.631 1145.93L450.891 808.188M787.441 1147.12L449.701 809.377M786.252 1148.31L448.512 810.566M785.063 1149.5L447.323 811.755M783.874 1150.68L446.134 812.945M782.684 1151.87L444.944 814.134M781.495 1153.06L443.755 815.323M780.306 1154.25L442.566 816.512M779.117 1155.44L441.377 817.702M777.927 1156.63L440.187 818.891M776.738 1157.82L438.998 820.08M775.549 1159.01L437.809 821.269M774.36 1160.2L436.62 822.459M773.17 1161.39L435.43 823.648M771.981 1162.58L434.241 824.837M770.792 1163.77L433.052 826.026M769.603 1164.96L431.863 827.215M768.413 1166.14L430.673 828.405M767.224 1167.33L429.484 829.594M766.035 1168.52L428.295 830.783M764.846 1169.71L427.106 831.972M763.656 1170.9L425.916 833.162M762.467 1172.09L424.727 834.351M761.278 1173.28L423.538 835.54M760.089 1174.47L422.349 836.73M758.899 1175.66L421.159 837.919M757.71 1176.85L419.97 839.108M756.521 1178.04L418.781 840.297M755.332 1179.23L417.592 841.486M754.142 1180.42L416.402 842.676M752.953 1181.6L415.213 843.865M751.764 1182.79L414.024 845.054M750.575 1183.98L412.835 846.243M749.385 1185.17L411.645 847.433M748.196 1186.36L410.456 848.622M747.007 1187.55L409.267 849.811M745.818 1188.74L408.078 851M744.628 1189.93L406.888 852.19M743.439 1191.12L405.699 853.379M742.25 1192.31L404.51 854.568M741.061 1193.5L403.321 855.757M739.871 1194.69L402.131 856.947M738.682 1195.88L400.942 858.136M737.493 1197.07L399.753 859.325M736.304 1198.25L398.564 860.514M735.114 1199.44L397.374 861.704M733.925 1200.63L396.185 862.893M732.736 1201.82L394.996 864.082M731.547 1203.01L393.807 865.271M730.357 1204.2L392.617 866.461M729.168 1205.39L391.428 867.65M727.979 1206.58L390.239 868.839M726.79 1207.77L389.05 870.028M725.6 1208.96L387.86 871.218M724.411 1210.15L386.671 872.407M723.222 1211.34L385.482 873.596M722.033 1212.53L384.293 874.785M720.843 1213.71L383.103 875.975M719.654 1214.9L381.914 877.164M718.465 1216.09L380.725 878.353M717.276 1217.28L379.536 879.542M716.086 1218.47L378.347 880.732M714.897 1219.66L377.157 881.921M713.708 1220.85L375.968 883.11M712.519 1222.04L374.779 884.299M711.329 1223.23L373.59 885.489M710.14 1224.42L372.4 886.678M708.951 1225.61L371.211 887.867M707.762 1226.8L370.022 889.056M706.572 1227.99L368.833 890.246M705.383 1229.17L367.643 891.435M704.194 1230.36L366.454 892.624M703.005 1231.55L365.265 893.813M701.815 1232.74L364.076 895.003M700.626 1233.93L362.886 896.192M699.437 1235.12L361.697 897.381M698.248 1236.31L360.508 898.57M697.058 1237.5L359.319 899.76M695.869 1238.69L358.129 900.949M694.68 1239.88L356.94 902.138M693.491 1241.07L355.751 903.327M692.301 1242.26L354.562 904.517M691.112 1243.45L353.372 905.706M689.923 1244.64L352.183 906.895M688.734 1245.82L350.994 908.084M687.544 1247.01L349.805 909.274M686.355 1248.2L348.615 910.463M685.166 1249.39L347.426 911.652M683.977 1250.58L346.237 912.841M682.787 1251.77L345.048 914.031M681.598 1252.96L343.858 915.22M680.409 1254.15L342.669 916.409M679.22 1255.34L341.48 917.598M678.03 1256.53L340.291 918.788M676.841 1257.72L339.101 919.977M675.652 1258.91L337.912 921.166M674.463 1260.1L336.723 922.355M673.273 1261.28L335.534 923.545M672.084 1262.47L334.344 924.734M670.895 1263.66L333.155 925.923M669.706 1264.85L331.966 927.112M668.516 1266.04L330.777 928.302M667.327 1267.23L329.587 929.491M666.138 1268.42L328.398 930.68M664.949 1269.61L327.209 931.869M663.759 1270.8L326.02 933.059M662.57 1271.99L324.83 934.248M661.381 1273.18L323.641 935.437M660.192 1274.37L322.452 936.626M659.002 1275.56L321.263 937.816M657.813 1276.74L320.073 939.005M656.624 1277.93L318.884 940.194M655.435 1279.12L317.695 941.383M654.245 1280.31L316.506 942.573M653.056 1281.5L315.316 943.762M651.867 1282.69L314.127 944.951M650.678 1283.88L312.938 946.14M649.488 1285.07L311.749 947.33M648.299 1286.26L310.559 948.519M647.11 1287.45L309.37 949.708M645.921 1288.64L308.181 950.897M644.731 1289.83L306.992 952.087M643.542 1291.02L305.802 953.276M642.353 1292.21L304.613 954.465M641.164 1293.39L303.424 955.654M639.974 1294.58L302.235 956.844M638.785 1295.77L301.045 958.033M637.596 1296.96L299.856 959.222M636.407 1298.15L298.667 960.411M635.217 1299.34L297.478 961.601M634.028 1300.53L296.288 962.79M632.839 1301.72L295.099 963.979M631.65 1302.91L293.91 965.168M630.46 1304.1L292.721 966.358M629.271 1305.29L291.531 967.547M628.082 1306.48L290.342 968.736M626.893 1307.67L289.153 969.925M625.703 1308.85L287.964 971.115M624.514 1310.04L286.774 972.304M623.325 1311.23L285.585 973.493M622.136 1312.42L284.396 974.682M620.946 1313.61L283.207 975.872M619.757 1314.8L282.017 977.061M618.568 1315.99L280.828 978.25M617.379 1317.18L279.639 979.439M616.189 1318.37L278.45 980.629M615 1319.56L277.26 981.818M613.811 1320.75L276.071 983.007M612.622 1321.94L274.882 984.196M611.432 1323.13L273.693 985.386M610.243 1324.31L272.503 986.575M609.054 1325.5L271.314 987.764M607.865 1326.69L270.125 988.953M606.675 1327.88L268.936 990.143M605.486 1329.07L267.746 991.332M604.297 1330.26L266.557 992.521M603.108 1331.45L265.368 993.71M601.918 1332.64L264.179 994.9M600.729 1333.83L262.989 996.089M599.54 1335.02L261.8 997.278M598.351 1336.21L260.611 998.467M597.162 1337.4L259.422 999.657M595.972 1338.59L258.232 1000.85M594.783 1339.77L257.043 1002.04M593.594 1340.96L255.854 1003.22M592.405 1342.15L254.665 1004.41M591.215 1343.34L253.475 1005.6M590.026 1344.53L252.286 1006.79M588.837 1345.72L251.097 1007.98M587.648 1346.91L249.908 1009.17M586.458 1348.1L248.718 1010.36M585.269 1349.29L247.529 1011.55M584.08 1350.48L246.34 1012.74M582.891 1351.67L245.151 1013.93M581.701 1352.86L243.961 1015.12M580.512 1354.05L242.772 1016.31M579.323 1355.24L241.583 1017.5M578.134 1356.42L240.394 1018.68M576.944 1357.61L239.204 1019.87M575.755 1358.8L238.015 1021.06M574.566 1359.99L236.826 1022.25M573.377 1361.18L235.637 1023.44M572.187 1362.37L234.447 1024.63M570.998 1363.56L233.258 1025.82M569.809 1364.75L232.069 1027.01M568.62 1365.94L230.88 1028.2M567.43 1367.13L229.69 1029.39M566.241 1368.32L228.501 1030.58M565.052 1369.51L227.312 1031.77M563.863 1370.7L226.123 1032.96M562.673 1371.88L224.933 1034.14M561.484 1373.07L223.744 1035.33M560.295 1374.26L222.555 1036.52M559.106 1375.45L221.366 1037.71M557.916 1376.64L220.176 1038.9M556.727 1377.83L218.987 1040.09M555.538 1379.02L217.798 1041.28M554.349 1380.21L216.609 1042.47M553.159 1381.4L215.419 1043.66M551.97 1382.59L214.23 1044.85M550.781 1383.78L213.041 1046.04M549.592 1384.97L211.852 1047.23M548.402 1386.16L210.662 1048.42M547.213 1387.34L209.473 1049.6M546.024 1388.53L208.284 1050.79M544.835 1389.72L207.095 1051.98M543.645 1390.91L205.905 1053.17M542.456 1392.1L204.716 1054.36M541.267 1393.29L203.527 1055.55M540.078 1394.48L202.338 1056.74" stroke="#219BB2" stroke-width="0.560606"/>
</g>
</g>
<g opacity="0.3">
<path d="M797.328 345.242C1177.5 414.555 984.312 -31.8174 1290.69 -121.189" stroke="#4DB8D6" stroke-width="0.6"/>
<path d="M801.676 350.244C1181.85 419.557 988.66 -26.8155 1295.04 -116.187" stroke="#4DB8D6" stroke-width="0.6"/>
<path d="M806.026 355.246C1186.2 424.559 993.009 -21.8135 1299.39 -111.185" stroke="#4DB8D6" stroke-width="0.6"/>
<path d="M810.375 360.246C1190.55 429.559 997.359 -16.8135 1303.74 -106.185" stroke="#4DB8D6" stroke-width="0.6"/>
<path d="M814.725 365.248C1194.9 434.561 1001.71 -11.8116 1308.09 -101.183" stroke="#4DB8D6" stroke-width="0.6"/>
<path d="M819.074 370.248C1199.25 439.561 1006.06 -6.81155 1312.44 -96.183" stroke="#4DB8D6" stroke-width="0.6"/>
<path d="M823.423 375.25C1203.6 444.563 1010.41 -1.8096 1316.79 -91.1811" stroke="#4DB8D6" stroke-width="0.6"/>
<path d="M827.774 380.25C1207.95 449.563 1014.76 3.1904 1321.14 -86.1811" stroke="#4DB8D6" stroke-width="0.6"/>
<path d="M832.122 385.252C1212.3 454.565 1019.11 8.19235 1325.49 -81.1791" stroke="#4DB8D6" stroke-width="0.6"/>
<path d="M836.472 390.252C1216.65 459.565 1023.46 13.1924 1329.84 -76.1791" stroke="#4DB8D6" stroke-width="0.6"/>
<path d="M840.821 395.254C1220.99 464.567 1027.8 18.1943 1334.18 -71.1772" stroke="#4DB8D6" stroke-width="0.6"/>
<path d="M845.171 400.256C1225.34 469.568 1032.15 23.1963 1338.53 -66.1752" stroke="#4DB8D6" stroke-width="0.6"/>
<path d="M849.521 405.256C1229.69 474.568 1036.5 28.1963 1342.88 -61.1752" stroke="#4DB8D6" stroke-width="0.6"/>
<path d="M853.87 410.258C1234.04 479.57 1040.85 33.1982 1347.23 -56.1733" stroke="#4DB8D6" stroke-width="0.6"/>
<path d="M858.219 415.258C1238.39 484.57 1045.2 38.1982 1351.58 -51.1733" stroke="#4DB8D6" stroke-width="0.6"/>
<path d="M862.57 420.26C1242.74 489.572 1049.55 43.2002 1355.93 -46.1713" stroke="#4DB8D6" stroke-width="0.6"/>
<path d="M866.919 425.26C1247.09 494.572 1053.9 48.2002 1360.28 -41.1713" stroke="#4DB8D6" stroke-width="0.6"/>
<path d="M871.268 430.262C1251.44 499.574 1058.25 53.2021 1364.63 -36.1694" stroke="#4DB8D6" stroke-width="0.6"/>
<path d="M875.617 435.262C1255.79 504.574 1062.6 58.2021 1368.98 -31.1694" stroke="#4DB8D6" stroke-width="0.6"/>
<path d="M879.967 440.264C1260.14 509.576 1066.95 63.2041 1373.33 -26.1674" stroke="#4DB8D6" stroke-width="0.6"/>
<path d="M884.317 445.264C1264.49 514.576 1071.3 68.2041 1377.68 -21.1674" stroke="#4DB8D6" stroke-width="0.6"/>
<path d="M888.666 450.266C1268.84 519.578 1075.65 73.206 1382.03 -16.1655" stroke="#4DB8D6" stroke-width="0.6"/>
<path d="M893.015 455.268C1273.19 524.58 1080 78.208 1386.38 -11.1635" stroke="#4DB8D6" stroke-width="0.6"/>
<path d="M897.365 460.268C1277.54 529.58 1084.35 83.208 1390.73 -6.1635" stroke="#4DB8D6" stroke-width="0.6"/>
<path d="M901.715 465.27C1281.89 534.582 1088.7 88.2099 1395.08 -1.16155" stroke="#4DB8D6" stroke-width="0.6"/>
<path d="M906.064 470.27C1286.24 539.582 1093.05 93.2099 1399.43 3.83845" stroke="#4DB8D6" stroke-width="0.6"/>
<path d="M910.412 475.272C1290.59 544.584 1097.4 98.2119 1403.78 8.8404" stroke="#4DB8D6" stroke-width="0.6"/>
<path d="M914.763 480.272C1294.94 549.584 1101.75 103.212 1408.13 13.8404" stroke="#4DB8D6" stroke-width="0.6"/>
<path d="M919.113 485.274C1299.29 554.586 1106.1 108.214 1412.48 18.8424" stroke="#4DB8D6" stroke-width="0.6"/>
<path d="M923.462 490.274C1303.64 559.586 1110.45 113.214 1416.83 23.8424" stroke="#4DB8D6" stroke-width="0.6"/>
<path d="M927.811 495.276C1307.98 564.588 1114.79 118.216 1421.17 28.8443" stroke="#4DB8D6" stroke-width="0.6"/>
<path d="M932.161 500.276C1312.33 569.588 1119.14 123.216 1425.52 33.8443" stroke="#4DB8D6" stroke-width="0.6"/>
<path d="M936.51 505.278C1316.68 574.59 1123.49 128.218 1429.87 38.8463" stroke="#4DB8D6" stroke-width="0.6"/>
<path d="M940.86 510.28C1321.03 579.592 1127.84 133.22 1434.22 43.8482" stroke="#4DB8D6" stroke-width="0.6"/>
<path d="M945.209 515.28C1325.38 584.592 1132.19 138.22 1438.57 48.8482" stroke="#4DB8D6" stroke-width="0.6"/>
<path d="M949.559 520.281C1329.73 589.594 1136.54 143.222 1442.92 53.8502" stroke="#4DB8D6" stroke-width="0.6"/>
<path d="M953.908 525.281C1334.08 594.594 1140.89 148.222 1447.27 58.8502" stroke="#4DB8D6" stroke-width="0.6"/>
<path d="M958.258 530.281C1338.43 599.594 1145.24 153.222 1451.62 63.8502" stroke="#4DB8D6" stroke-width="0.6"/>
<path d="M962.607 535.283C1342.78 604.596 1149.59 158.224 1455.97 68.8521" stroke="#4DB8D6" stroke-width="0.6"/>
<path d="M966.957 540.285C1347.13 609.598 1153.94 163.226 1460.32 73.8541" stroke="#4DB8D6" stroke-width="0.6"/>
<path d="M971.306 545.285C1351.48 614.598 1158.29 168.226 1464.67 78.8541" stroke="#4DB8D6" stroke-width="0.6"/>
<path d="M975.656 550.287C1355.83 619.6 1162.64 173.228 1469.02 83.856" stroke="#4DB8D6" stroke-width="0.6"/>
<path d="M980.005 555.287C1360.18 624.6 1166.99 178.228 1473.37 88.856" stroke="#4DB8D6" stroke-width="0.6"/>
<path d="M984.355 560.289C1364.53 629.602 1171.34 183.229 1477.72 93.858" stroke="#4DB8D6" stroke-width="0.6"/>
<path d="M988.704 565.289C1368.88 634.602 1175.69 188.229 1482.07 98.858" stroke="#4DB8D6" stroke-width="0.6"/>
<path d="M993.053 570.291C1373.23 639.604 1180.04 193.231 1486.42 103.86" stroke="#4DB8D6" stroke-width="0.6"/>
<path d="M997.403 575.293C1377.58 644.606 1184.39 198.233 1490.77 108.862" stroke="#4DB8D6" stroke-width="0.6"/>
<path d="M1001.75 580.293C1381.93 649.606 1188.74 203.233 1495.12 113.862" stroke="#4DB8D6" stroke-width="0.6"/>
<path d="M1006.1 585.295C1386.28 654.608 1193.09 208.235 1499.47 118.864" stroke="#4DB8D6" stroke-width="0.6"/>
<path d="M1010.45 590.295C1390.62 659.608 1197.44 213.235 1503.81 123.864" stroke="#4DB8D6" stroke-width="0.6"/>
<path d="M1014.8 595.297C1394.97 664.609 1201.78 218.237 1508.16 128.866" stroke="#4DB8D6" stroke-width="0.6"/>
<path d="M1019.15 600.297C1399.32 669.609 1206.13 223.237 1512.51 133.866" stroke="#4DB8D6" stroke-width="0.6"/>
<path d="M1023.5 605.299C1403.67 674.611 1210.48 228.239 1516.86 138.868" stroke="#4DB8D6" stroke-width="0.6"/>
<path d="M1027.85 610.299C1408.02 679.611 1214.83 233.239 1521.21 143.868" stroke="#4DB8D6" stroke-width="0.6"/>
<path d="M1016.51 646.274C1011.77 285.974 1418.88 537.725 1558.01 271.614" stroke="#4DB8D6" stroke-width="0.6"/>
<path d="M1012.31 641.45C1007.57 281.15 1414.68 532.901 1553.81 266.79" stroke="#4DB8D6" stroke-width="0.6"/>
<path d="M1008.12 636.626C1003.38 276.326 1410.49 528.077 1549.62 261.966" stroke="#4DB8D6" stroke-width="0.6"/>
<path d="M1003.92 631.801C999.181 271.501 1406.29 523.253 1545.42 257.142" stroke="#4DB8D6" stroke-width="0.6"/>
<path d="M999.722 626.975C994.985 266.675 1402.09 518.427 1541.23 252.316" stroke="#4DB8D6" stroke-width="0.6"/>
<path d="M995.527 622.151C990.79 261.851 1397.9 513.602 1537.03 247.491" stroke="#4DB8D6" stroke-width="0.6"/>
<path d="M991.331 617.327C986.593 257.027 1393.7 508.778 1532.83 242.667" stroke="#4DB8D6" stroke-width="0.6"/>
<path d="M987.135 612.502C982.398 252.203 1389.51 503.954 1528.64 237.843" stroke="#4DB8D6" stroke-width="0.6"/>
<path d="M982.937 607.676C978.2 247.376 1385.31 499.128 1524.44 233.017" stroke="#4DB8D6" stroke-width="0.6"/>
<path d="M978.742 602.852C974.004 242.552 1381.11 494.304 1520.25 228.193" stroke="#4DB8D6" stroke-width="0.6"/>
<path d="M974.545 598.028C969.808 237.728 1376.92 489.479 1516.05 223.368" stroke="#4DB8D6" stroke-width="0.6"/>
<path d="M970.349 593.202C965.612 232.902 1372.72 484.653 1511.85 218.542" stroke="#4DB8D6" stroke-width="0.6"/>
<path d="M966.154 588.377C961.417 228.078 1368.52 479.829 1507.66 213.718" stroke="#4DB8D6" stroke-width="0.6"/>
<path d="M961.958 583.553C957.22 223.253 1364.33 475.005 1503.46 208.894" stroke="#4DB8D6" stroke-width="0.6"/>
<path d="M957.76 578.727C953.023 218.427 1360.13 470.179 1499.26 204.068" stroke="#4DB8D6" stroke-width="0.6"/>
<path d="M953.565 573.903C948.828 213.603 1355.93 465.354 1495.07 199.243" stroke="#4DB8D6" stroke-width="0.6"/>
<path d="M949.368 569.077C944.63 208.777 1351.74 460.528 1490.87 194.417" stroke="#4DB8D6" stroke-width="0.6"/>
<path d="M945.172 564.252C940.435 203.953 1347.54 455.704 1486.68 189.593" stroke="#4DB8D6" stroke-width="0.6"/>
<path d="M940.974 559.428C936.237 199.128 1343.34 450.88 1482.48 184.769" stroke="#4DB8D6" stroke-width="0.6"/>
<path d="M936.779 554.602C932.042 194.302 1339.15 446.054 1478.28 179.943" stroke="#4DB8D6" stroke-width="0.6"/>
<path d="M932.583 549.778C927.845 189.478 1334.95 441.229 1474.09 175.118" stroke="#4DB8D6" stroke-width="0.6"/>
<path d="M928.387 544.954C923.65 184.654 1330.76 436.405 1469.89 170.294" stroke="#4DB8D6" stroke-width="0.6"/>
<path d="M924.191 540.129C919.454 179.829 1326.56 431.581 1465.69 165.47" stroke="#4DB8D6" stroke-width="0.6"/>
<path d="M919.995 535.303C915.257 175.003 1322.36 426.755 1461.5 160.644" stroke="#4DB8D6" stroke-width="0.6"/>
<path d="M915.797 530.479C911.06 170.179 1318.17 421.931 1457.3 155.819" stroke="#4DB8D6" stroke-width="0.6"/>
<path d="M911.602 525.653C906.865 165.353 1313.97 417.104 1453.11 150.993" stroke="#4DB8D6" stroke-width="0.6"/>
<path d="M907.406 520.829C902.668 160.529 1309.78 412.28 1448.91 146.169" stroke="#4DB8D6" stroke-width="0.6"/>
<path d="M903.211 516.004C898.473 155.704 1305.58 407.456 1444.71 141.345" stroke="#4DB8D6" stroke-width="0.6"/>
<path d="M899.013 511.18C894.276 150.88 1301.38 402.632 1440.52 136.521" stroke="#4DB8D6" stroke-width="0.6"/>
<path d="M894.817 506.354C890.08 146.054 1297.19 397.806 1436.32 131.694" stroke="#4DB8D6" stroke-width="0.6"/>
<path d="M890.621 501.53C885.883 141.23 1292.99 392.981 1432.12 126.87" stroke="#4DB8D6" stroke-width="0.6"/>
<path d="M886.424 496.706C881.687 136.406 1288.79 388.157 1427.93 122.046" stroke="#4DB8D6" stroke-width="0.6"/>
<path d="M882.228 491.879C877.491 131.579 1284.6 383.331 1423.73 117.22" stroke="#4DB8D6" stroke-width="0.6"/>
<path d="M878.032 487.055C873.294 126.755 1280.4 378.507 1419.54 112.396" stroke="#4DB8D6" stroke-width="0.6"/>
<path d="M873.836 482.231C869.098 121.931 1276.21 373.682 1415.34 107.571" stroke="#4DB8D6" stroke-width="0.6"/>
<path d="M869.639 477.405C864.902 117.105 1272.01 368.856 1411.14 102.745" stroke="#4DB8D6" stroke-width="0.6"/>
<path d="M865.443 472.581C860.706 112.281 1267.81 364.032 1406.95 97.921" stroke="#4DB8D6" stroke-width="0.6"/>
<path d="M861.248 467.754C856.51 107.454 1263.62 359.206 1402.75 93.0949" stroke="#4DB8D6" stroke-width="0.6"/>
<path d="M857.05 462.93C852.313 102.63 1259.42 354.382 1398.55 88.2706" stroke="#4DB8D6" stroke-width="0.6"/>
<path d="M852.854 458.106C848.117 97.806 1255.22 349.557 1394.36 83.4464" stroke="#4DB8D6" stroke-width="0.6"/>
<path d="M848.659 453.282C843.921 92.9818 1251.03 344.733 1390.16 78.6222" stroke="#4DB8D6" stroke-width="0.6"/>
<path d="M844.461 448.456C839.724 88.1556 1246.83 339.907 1385.96 73.796" stroke="#4DB8D6" stroke-width="0.6"/>
<path d="M840.266 443.631C835.529 83.3314 1242.64 335.083 1381.77 68.9718" stroke="#4DB8D6" stroke-width="0.6"/>
<path d="M836.07 438.807C831.333 78.5072 1238.44 330.259 1377.57 64.1476" stroke="#4DB8D6" stroke-width="0.6"/>
<path d="M831.874 433.981C827.136 73.681 1234.24 325.432 1373.38 59.3214" stroke="#4DB8D6" stroke-width="0.6"/>
<path d="M827.677 429.157C822.94 68.8568 1230.05 320.608 1369.18 54.4972" stroke="#4DB8D6" stroke-width="0.6"/>
<path d="M823.48 424.333C818.743 64.0326 1225.85 315.784 1364.98 49.673" stroke="#4DB8D6" stroke-width="0.6"/>
<path d="M819.285 419.506C814.547 59.2064 1221.65 310.958 1360.79 44.8468" stroke="#4DB8D6" stroke-width="0.6"/>
<path d="M815.088 414.682C810.351 54.3822 1217.46 306.134 1356.59 40.0226" stroke="#4DB8D6" stroke-width="0.6"/>
<path d="M810.891 409.858C806.154 49.558 1213.26 301.309 1352.39 35.1984" stroke="#4DB8D6" stroke-width="0.6"/>
<path d="M806.696 405.032C801.958 44.7318 1209.07 296.483 1348.2 30.3722" stroke="#4DB8D6" stroke-width="0.6"/>
<path d="M802.5 400.208C797.762 39.9076 1204.87 291.659 1344 25.548" stroke="#4DB8D6" stroke-width="0.6"/>
<path d="M798.303 395.383C793.566 35.0834 1200.67 286.835 1339.81 20.7238" stroke="#4DB8D6" stroke-width="0.6"/>
<path d="M794.107 390.559C789.37 30.2592 1196.48 282.011 1335.61 15.8995" stroke="#4DB8D6" stroke-width="0.6"/>
</g>
<g opacity="0.3">
<path d="M-109.254 1103.04C347.626 1186.34 115.457 649.9 483.654 542.497" stroke="#4DB8D6" stroke-width="0.6"/>
<path d="M-104.031 1109.05C352.849 1192.35 120.679 655.91 488.877 548.506" stroke="#4DB8D6" stroke-width="0.6"/>
<path d="M-98.8039 1115.06C358.076 1198.36 125.907 661.92 494.104 554.516" stroke="#4DB8D6" stroke-width="0.6"/>
<path d="M-93.5774 1121.07C363.303 1204.37 131.134 667.932 499.331 560.528" stroke="#4DB8D6" stroke-width="0.6"/>
<path d="M-88.3488 1127.08C368.531 1210.38 136.362 673.941 504.559 566.538" stroke="#4DB8D6" stroke-width="0.6"/>
<path d="M-83.1242 1133.09C373.756 1216.39 141.587 679.949 509.784 572.545" stroke="#4DB8D6" stroke-width="0.6"/>
<path d="M-77.8957 1139.1C378.984 1222.4 146.815 685.961 515.013 578.557" stroke="#4DB8D6" stroke-width="0.6"/>
<path d="M-72.6682 1145.11C384.212 1228.41 152.043 691.971 520.24 584.567" stroke="#4DB8D6" stroke-width="0.6"/>
<path d="M-67.4426 1151.12C389.438 1234.42 157.268 697.981 525.466 590.577" stroke="#4DB8D6" stroke-width="0.6"/>
<path d="M-62.2151 1157.13C394.665 1240.43 162.496 703.992 530.693 596.588" stroke="#4DB8D6" stroke-width="0.6"/>
<path d="M-56.9885 1163.14C399.892 1246.44 167.722 710.002 535.92 602.598" stroke="#4DB8D6" stroke-width="0.6"/>
<path d="M-51.76 1169.15C405.12 1252.45 172.951 716.012 541.148 608.608" stroke="#4DB8D6" stroke-width="0.6"/>
<path d="M-46.5334 1175.16C410.347 1258.46 178.177 722.022 546.375 614.618" stroke="#4DB8D6" stroke-width="0.6"/>
<path d="M-41.3059 1181.17C415.574 1264.47 183.405 728.031 551.602 620.627" stroke="#4DB8D6" stroke-width="0.6"/>
<path d="M-36.0793 1187.18C420.801 1270.48 188.632 734.041 556.829 626.637" stroke="#4DB8D6" stroke-width="0.6"/>
<path d="M-30.8508 1193.19C426.029 1276.49 193.86 740.053 562.057 632.649" stroke="#4DB8D6" stroke-width="0.6"/>
<path d="M-25.6242 1199.2C431.256 1282.5 199.087 746.063 567.284 638.659" stroke="#4DB8D6" stroke-width="0.6"/>
<path d="M-20.3977 1205.21C436.482 1288.51 204.313 752.074 572.511 644.67" stroke="#4DB8D6" stroke-width="0.6"/>
<path d="M-15.1721 1211.22C441.708 1294.52 209.539 758.082 577.736 650.678" stroke="#4DB8D6" stroke-width="0.6"/>
<path d="M-9.94357 1217.23C446.937 1300.53 214.767 764.092 582.965 656.688" stroke="#4DB8D6" stroke-width="0.6"/>
<path d="M-4.71603 1223.24C452.164 1306.54 219.995 770.104 588.192 662.7" stroke="#4DB8D6" stroke-width="0.6"/>
<path d="M0.510529 1229.25C457.391 1312.55 225.221 776.113 593.419 668.709" stroke="#4DB8D6" stroke-width="0.6"/>
<path d="M5.73612 1235.26C462.616 1318.56 230.447 782.121 598.644 674.717" stroke="#4DB8D6" stroke-width="0.6"/>
<path d="M10.9646 1241.27C467.845 1324.57 235.676 788.133 603.873 680.729" stroke="#4DB8D6" stroke-width="0.6"/>
<path d="M16.1912 1247.28C473.071 1330.58 240.902 794.143 609.099 686.739" stroke="#4DB8D6" stroke-width="0.6"/>
<path d="M21.4187 1253.29C478.299 1336.59 246.13 800.152 614.327 692.749" stroke="#4DB8D6" stroke-width="0.6"/>
<path d="M26.6443 1259.3C483.524 1342.6 251.355 806.164 619.553 698.76" stroke="#4DB8D6" stroke-width="0.6"/>
<path d="M31.8738 1265.31C488.754 1348.61 256.585 812.172 624.782 704.768" stroke="#4DB8D6" stroke-width="0.6"/>
<path d="M37.1004 1271.32C493.98 1354.62 261.811 818.184 630.009 710.78" stroke="#4DB8D6" stroke-width="0.6"/>
<path d="M42.3279 1277.33C499.208 1360.63 267.039 824.193 635.236 716.79" stroke="#4DB8D6" stroke-width="0.6"/>
<path d="M47.5545 1283.34C504.435 1366.64 272.265 830.203 640.463 722.799" stroke="#4DB8D6" stroke-width="0.6"/>
<path d="M52.7801 1289.35C509.66 1372.65 277.491 836.215 645.688 728.811" stroke="#4DB8D6" stroke-width="0.6"/>
<path d="M58.0086 1295.36C514.889 1378.66 282.719 842.225 650.917 734.821" stroke="#4DB8D6" stroke-width="0.6"/>
<path d="M63.2351 1301.37C520.115 1384.67 287.946 848.234 656.143 740.831" stroke="#4DB8D6" stroke-width="0.6"/>
<path d="M68.4627 1307.38C525.343 1390.68 293.174 854.244 661.371 746.84" stroke="#4DB8D6" stroke-width="0.6"/>
<path d="M73.6892 1313.39C530.569 1396.69 298.4 860.254 666.598 752.85" stroke="#4DB8D6" stroke-width="0.6"/>
<path d="M78.9158 1319.4C535.796 1402.7 303.627 866.264 671.824 758.86" stroke="#4DB8D6" stroke-width="0.6"/>
<path d="M84.1433 1325.41C541.023 1408.71 308.854 872.275 677.052 764.872" stroke="#4DB8D6" stroke-width="0.6"/>
<path d="M89.3699 1331.42C546.25 1414.72 314.081 878.285 682.278 770.881" stroke="#4DB8D6" stroke-width="0.6"/>
<path d="M94.5994 1337.43C551.48 1420.73 319.31 884.295 687.508 776.891" stroke="#4DB8D6" stroke-width="0.6"/>
<path d="M99.824 1343.44C556.704 1426.74 324.535 890.305 692.732 782.901" stroke="#4DB8D6" stroke-width="0.6"/>
<path d="M105.053 1349.45C561.933 1432.75 329.763 896.314 697.961 788.911" stroke="#4DB8D6" stroke-width="0.6"/>
<path d="M110.279 1355.46C567.159 1438.76 334.99 902.324 703.187 794.92" stroke="#4DB8D6" stroke-width="0.6"/>
<path d="M115.507 1361.47C572.387 1444.77 340.218 908.336 708.415 800.932" stroke="#4DB8D6" stroke-width="0.6"/>
<path d="M120.733 1367.48C577.613 1450.78 345.444 914.346 713.641 806.942" stroke="#4DB8D6" stroke-width="0.6"/>
<path d="M125.96 1373.49C582.84 1456.79 350.671 920.356 718.868 812.952" stroke="#4DB8D6" stroke-width="0.6"/>
<path d="M131.186 1379.5C588.066 1462.8 355.897 926.365 724.095 818.961" stroke="#4DB8D6" stroke-width="0.6"/>
<path d="M136.415 1385.51C593.295 1468.81 361.126 932.375 729.323 824.971" stroke="#4DB8D6" stroke-width="0.6"/>
<path d="M141.641 1391.52C598.521 1474.82 366.352 938.385 734.55 830.981" stroke="#4DB8D6" stroke-width="0.6"/>
<path d="M146.868 1397.54C603.748 1480.83 371.579 944.397 739.776 836.993" stroke="#4DB8D6" stroke-width="0.6"/>
<path d="M152.095 1403.54C608.976 1486.84 376.806 950.404 745.004 843.001" stroke="#4DB8D6" stroke-width="0.6"/>
<path d="M157.323 1409.55C614.203 1492.85 382.034 956.416 750.231 849.012" stroke="#4DB8D6" stroke-width="0.6"/>
<path d="M162.55 1415.56C619.43 1498.86 387.26 962.426 755.458 855.022" stroke="#4DB8D6" stroke-width="0.6"/>
<path d="M167.776 1421.57C624.656 1504.87 392.487 968.436 760.684 861.032" stroke="#4DB8D6" stroke-width="0.6"/>
<path d="M154.15 1464.81C148.457 1031.81 637.705 1334.36 804.912 1014.55" stroke="#4DB8D6" stroke-width="0.6"/>
<path d="M149.105 1459.01C143.412 1026.01 632.661 1328.56 799.867 1008.76" stroke="#4DB8D6" stroke-width="0.6"/>
<path d="M144.063 1453.21C138.37 1020.22 627.619 1322.76 794.825 1002.96" stroke="#4DB8D6" stroke-width="0.6"/>
<path d="M139.018 1447.42C133.325 1014.42 622.574 1316.97 789.78 997.162" stroke="#4DB8D6" stroke-width="0.6"/>
<path d="M133.975 1441.61C128.282 1008.62 617.531 1311.16 784.737 991.361" stroke="#4DB8D6" stroke-width="0.6"/>
<path d="M128.935 1435.82C123.242 1002.82 612.491 1305.37 779.697 985.564" stroke="#4DB8D6" stroke-width="0.6"/>
<path d="M123.891 1430.02C118.198 997.022 607.447 1299.57 774.653 979.765" stroke="#4DB8D6" stroke-width="0.6"/>
<path d="M118.849 1424.22C113.156 991.223 602.405 1293.77 769.611 973.966" stroke="#4DB8D6" stroke-width="0.6"/>
<path d="M113.804 1418.42C108.11 985.426 597.359 1287.97 764.565 968.169" stroke="#4DB8D6" stroke-width="0.6"/>
<path d="M108.763 1412.62C103.07 979.627 592.319 1282.17 759.525 962.371" stroke="#4DB8D6" stroke-width="0.6"/>
<path d="M103.72 1406.83C98.0263 973.829 587.275 1276.38 754.481 956.572" stroke="#4DB8D6" stroke-width="0.6"/>
<path d="M98.6765 1401.03C92.9833 968.032 582.232 1270.58 749.438 950.775" stroke="#4DB8D6" stroke-width="0.6"/>
<path d="M93.6336 1395.23C87.9404 962.231 577.189 1264.78 744.395 944.974" stroke="#4DB8D6" stroke-width="0.6"/>
<path d="M88.5916 1389.43C82.8984 956.434 572.147 1258.98 739.353 939.177" stroke="#4DB8D6" stroke-width="0.6"/>
<path d="M83.5476 1383.63C77.8544 950.635 567.103 1253.18 734.309 933.378" stroke="#4DB8D6" stroke-width="0.6"/>
<path d="M78.5056 1377.83C72.8124 944.836 562.061 1247.38 729.267 927.58" stroke="#4DB8D6" stroke-width="0.6"/>
<path d="M73.4607 1372.03C67.7675 939.038 557.016 1241.58 724.222 921.781" stroke="#4DB8D6" stroke-width="0.6"/>
<path d="M68.4197 1366.24C62.7265 933.239 551.975 1235.79 719.181 915.982" stroke="#4DB8D6" stroke-width="0.6"/>
<path d="M63.3738 1360.44C57.6806 927.442 546.929 1229.99 714.135 910.185" stroke="#4DB8D6" stroke-width="0.6"/>
<path d="M58.3328 1354.64C52.6396 921.643 541.888 1224.19 709.094 904.386" stroke="#4DB8D6" stroke-width="0.6"/>
<path d="M53.2898 1348.84C47.5966 915.846 536.845 1218.39 704.052 898.589" stroke="#4DB8D6" stroke-width="0.6"/>
<path d="M48.2478 1343.04C42.5546 910.047 531.803 1212.59 699.01 892.79" stroke="#4DB8D6" stroke-width="0.6"/>
<path d="M43.2049 1337.25C37.5116 904.249 526.76 1206.8 693.967 886.992" stroke="#4DB8D6" stroke-width="0.6"/>
<path d="M38.1619 1331.45C32.4687 898.45 521.717 1201 688.924 881.193" stroke="#4DB8D6" stroke-width="0.6"/>
<path d="M33.118 1325.65C27.4247 892.651 516.673 1195.2 683.88 875.394" stroke="#4DB8D6" stroke-width="0.6"/>
<path d="M28.076 1319.85C22.3827 886.854 511.631 1189.4 678.838 869.597" stroke="#4DB8D6" stroke-width="0.6"/>
<path d="M23.033 1314.05C17.3398 881.053 506.588 1183.6 673.795 863.796" stroke="#4DB8D6" stroke-width="0.6"/>
<path d="M17.992 1308.25C12.2987 875.256 501.547 1177.8 668.754 857.999" stroke="#4DB8D6" stroke-width="0.6"/>
<path d="M12.9471 1302.45C7.25383 869.458 496.502 1172 663.709 852.201" stroke="#4DB8D6" stroke-width="0.6"/>
<path d="M7.90506 1296.66C2.21183 863.661 491.46 1166.21 658.667 846.404" stroke="#4DB8D6" stroke-width="0.6"/>
<path d="M2.86112 1290.86C-2.83211 857.862 486.416 1160.41 653.623 840.605" stroke="#4DB8D6" stroke-width="0.6"/>
<path d="M-2.18185 1285.06C-7.87508 852.063 481.373 1154.61 648.58 834.806" stroke="#4DB8D6" stroke-width="0.6"/>
<path d="M-7.22482 1279.26C-12.918 846.264 476.33 1148.81 643.537 829.007" stroke="#4DB8D6" stroke-width="0.6"/>
<path d="M-12.2668 1273.46C-17.96 840.465 471.288 1143.01 638.495 823.208" stroke="#4DB8D6" stroke-width="0.6"/>
<path d="M-17.3108 1267.67C-23.004 834.668 466.244 1137.22 633.451 817.412" stroke="#4DB8D6" stroke-width="0.6"/>
<path d="M-22.3537 1261.87C-28.047 828.87 461.202 1131.42 628.408 811.613" stroke="#4DB8D6" stroke-width="0.6"/>
<path d="M-27.3977 1256.07C-33.0909 823.071 456.158 1125.62 623.364 805.814" stroke="#4DB8D6" stroke-width="0.6"/>
<path d="M-32.4377 1250.27C-38.1309 817.272 451.118 1119.82 618.324 800.015" stroke="#4DB8D6" stroke-width="0.6"/>
<path d="M-37.4826 1244.47C-43.1759 811.473 446.073 1114.02 613.279 794.216" stroke="#4DB8D6" stroke-width="0.6"/>
<path d="M-42.5256 1238.67C-48.2188 805.676 441.03 1108.22 608.236 788.419" stroke="#4DB8D6" stroke-width="0.6"/>
<path d="M-47.5676 1232.87C-53.2608 799.877 435.988 1102.42 603.194 782.621" stroke="#4DB8D6" stroke-width="0.6"/>
<path d="M-52.6106 1227.08C-58.3038 794.079 430.945 1096.63 598.151 776.822" stroke="#4DB8D6" stroke-width="0.6"/>
<path d="M-57.6526 1221.28C-63.3458 788.282 425.903 1090.83 593.109 771.025" stroke="#4DB8D6" stroke-width="0.6"/>
<path d="M-62.6965 1215.48C-68.3897 782.483 420.859 1085.03 588.065 765.226" stroke="#4DB8D6" stroke-width="0.6"/>
<path d="M-67.7395 1209.68C-73.4327 776.686 415.816 1079.23 583.022 759.429" stroke="#4DB8D6" stroke-width="0.6"/>
<path d="M-72.7824 1203.88C-78.4757 770.887 410.773 1073.43 577.979 753.63" stroke="#4DB8D6" stroke-width="0.6"/>
<path d="M-77.8254 1198.09C-83.5186 765.088 405.73 1067.64 572.936 747.831" stroke="#4DB8D6" stroke-width="0.6"/>
<path d="M-82.8684 1192.29C-88.5616 759.29 400.687 1061.84 567.893 742.033" stroke="#4DB8D6" stroke-width="0.6"/>
<path d="M-87.9113 1186.49C-93.6046 753.491 395.644 1056.04 562.85 736.234" stroke="#4DB8D6" stroke-width="0.6"/>
<path d="M-92.9553 1180.69C-98.6485 747.694 390.6 1050.24 557.806 730.437" stroke="#4DB8D6" stroke-width="0.6"/>
<path d="M-97.9963 1174.89C-103.69 741.895 385.559 1044.44 552.765 724.638" stroke="#4DB8D6" stroke-width="0.6"/>
<path d="M-103.039 1169.09C-108.733 736.096 380.516 1038.64 547.722 718.839" stroke="#4DB8D6" stroke-width="0.6"/>
<path d="M-108.083 1163.3C-113.776 730.299 375.472 1032.85 542.678 713.042" stroke="#4DB8D6" stroke-width="0.6"/>
<path d="M-113.125 1157.5C-118.818 724.501 370.43 1027.05 537.636 707.244" stroke="#4DB8D6" stroke-width="0.6"/>
</g>
<circle opacity="0.5" cx="130.36" cy="238.152" r="203" stroke="#219BB2" stroke-opacity="0.1" stroke-width="85.1748"/>
</svg>
