<svg width="138" height="138" viewBox="0 0 138 138" fill="none" xmlns="http://www.w3.org/2000/svg">
<g clip-path="url(#clip0)">
<path d="M103.482 82.4695C118.424 67.5272 137.964 58.9067 137.964 40.5165C137.964 30.4593 129.918 22.126 119.861 22.126C112.677 22.126 106.356 26.4362 103.482 32.4706C100.608 26.4362 94.2869 22.126 87.1031 22.126C77.0459 22.126 69 30.459 69 40.5165C69 59.1941 89.402 67.8146 103.482 82.4695Z" fill="#66C6B9"/>
<path d="M110.091 85.0562C106.355 88.7918 100.896 88.7918 97.1602 85.0562C98.5968 83.332 101.183 81.8954 101.183 79.5967C102.62 79.5967 104.344 79.5967 105.781 79.5967C105.781 81.8954 108.654 83.0449 110.091 85.0562Z" fill="#66C6B9"/>
<path d="M129.056 33.0452C131.067 35.3439 131.929 38.2175 130.78 39.0796C129.63 39.9416 127.044 39.0796 125.033 36.4934C123.021 34.1947 122.159 31.3211 123.309 30.4591C124.171 29.597 126.757 30.7463 129.056 33.0452Z" fill="white"/>
<path d="M106.356 81.3198H100.896C100.322 81.3198 100.034 81.0324 100.034 80.4577C100.034 79.8831 100.322 79.5957 100.896 79.5957H106.356C106.931 79.5957 107.218 79.8831 107.218 80.4577C107.218 80.7449 106.931 81.3198 106.356 81.3198Z" fill="#415A6B"/>
<path d="M98.3103 87.3544C98.0229 87.3544 97.4482 87.067 97.4482 86.7798C97.4482 86.2052 97.7357 85.9178 98.0229 85.6303C98.8849 85.3429 99.4595 85.0557 99.4595 83.6188C99.747 81.6072 101.758 80.1706 102.046 79.8831C102.333 79.5957 102.908 79.5957 103.195 80.1706C103.483 80.458 103.483 81.0326 102.908 81.3201C102.333 81.6075 101.184 82.7567 101.184 83.9062C101.184 85.9175 100.322 86.7795 98.3103 87.3544Z" fill="#415A6B"/>
<path d="M108.081 99.4225C103.196 91.0894 105.207 80.4574 105.207 80.4574V80.1699H103.483C103.195 81.032 101.471 91.3766 106.644 100.285C111.241 108.618 104.345 123.56 104.345 123.847C104.057 124.422 104.345 124.709 104.632 124.997H104.92C105.207 124.997 105.494 124.709 105.782 124.422C106.069 123.847 113.253 108.618 108.081 99.4225Z" fill="#415A6B"/>
<path d="M36.2423 63.2171C52.0466 47.4128 72.4484 38.5051 72.4484 19.2526C72.4484 8.62051 63.8279 0 53.4833 0C46.0122 0 39.4033 4.31025 36.5297 10.9192C33.0815 4.31025 26.4725 0 19.0012 0C8.65664 0 0.0361328 8.62051 0.0361328 19.2526C0.0361328 38.7923 21.5874 47.7002 36.2423 63.2171Z" fill="#F3705A"/>
<path d="M42.8511 65.8036C38.8283 69.5392 33.3685 69.5392 29.3457 65.8036C30.7824 63.792 33.656 62.6428 33.656 60.0566C35.3801 60.0566 36.8167 60.0566 38.5408 60.0566C38.5408 62.3554 41.4141 63.792 42.8511 65.8036Z" fill="#F3705A"/>
<path d="M62.9655 11.2065C65.2642 13.7927 65.8391 16.6663 64.6896 17.5283C63.5401 18.6778 60.6668 17.5283 58.6553 14.9422C56.3566 12.356 55.7817 9.48244 56.9312 8.62038C58.0807 7.47089 60.6668 8.62038 62.9655 11.2065Z" fill="white"/>
<path d="M39.1148 61.7798H33.3679C32.7933 61.7798 32.5059 61.4923 32.5059 60.9177C32.5059 60.3431 32.7933 60.0557 33.3679 60.0557H39.1148C39.6894 60.0557 39.9769 60.3431 39.9769 60.9177C40.2643 61.2052 39.6894 61.7798 39.1148 61.7798Z" fill="#415A6B"/>
<path d="M30.782 68.1016C30.4945 68.1016 29.9199 67.8141 29.9199 67.5269C29.9199 66.9523 30.2074 66.6649 30.4945 66.3775C31.3566 66.09 31.9312 65.8028 32.2186 64.3659C32.5061 62.3544 34.5173 60.6303 34.8048 60.3431C35.0922 60.0557 35.6668 60.0557 35.9543 60.6305C36.2417 60.918 36.2417 61.4926 35.6668 61.78C35.0922 62.0675 33.9427 63.2167 33.6553 64.3662C33.6553 66.6649 32.7932 67.5269 30.782 68.1016Z" fill="#415A6B"/>
<path d="M40.8393 80.7445C35.9544 71.8365 37.6785 60.9173 37.9657 60.9173V60.6299H36.2416C35.9542 61.4919 34.2301 72.4112 39.4024 81.6065C44.2872 90.227 37.1037 106.031 36.8162 106.319C36.5288 106.893 36.8162 107.468 37.3908 107.468H37.6783C37.9657 107.468 38.2529 107.181 38.5403 106.893C38.8278 106.606 46.2991 90.227 40.8393 80.7445Z" fill="#415A6B"/>
<path d="M69.0001 106.607C83.3675 92.527 101.758 84.1939 101.758 66.9529C101.758 57.4704 93.9996 49.7119 84.517 49.7119C77.6206 49.7119 71.8737 53.7347 69.0001 59.4819C66.1265 53.735 60.3796 49.7119 53.4832 49.7119C44.0006 49.7119 36.2422 57.4704 36.2422 66.9529C36.2422 84.4814 55.7822 92.5273 69.0001 106.607Z" fill="#FFD15C"/>
<path d="M75.0345 108.619C71.5863 112.067 66.414 112.067 62.9658 108.619C64.4025 106.894 66.9886 105.745 66.9886 103.446C68.4253 103.446 69.8622 103.446 71.2989 103.446C71.2991 105.745 73.8853 106.894 75.0345 108.619Z" fill="#FFD15C"/>
<path d="M93.1377 59.4811C95.1493 61.7798 95.7239 64.366 94.8618 65.228C93.9998 66.0901 91.4136 65.228 89.4021 62.9293C87.3905 60.6306 86.8159 58.0444 87.678 57.1824C88.5403 56.3203 91.1264 57.1824 93.1377 59.4811Z" fill="white"/>
<path d="M71.8732 105.17H66.7009C66.1263 105.17 65.8389 104.883 65.8389 104.308C65.8389 103.734 66.1263 103.446 66.7009 103.446H71.8732C72.4478 103.446 72.7353 103.734 72.7353 104.308C72.4478 104.883 72.1607 105.17 71.8732 105.17Z" fill="#415A6B"/>
<path d="M64.115 110.917C63.8275 110.917 63.2529 110.63 63.2529 110.343C63.2529 109.768 63.5404 109.481 63.8275 109.193C64.6896 108.906 65.2642 108.619 65.2642 107.469C65.5516 105.458 67.5629 104.021 67.5629 104.021C67.8504 103.733 68.425 103.733 68.7124 104.308C68.9998 104.596 68.9998 105.17 68.425 105.458C67.8503 105.745 66.7009 106.894 66.7009 107.756C66.7011 109.481 65.8391 110.63 64.115 110.917Z" fill="#415A6B"/>
<path d="M72.4479 137.354C72.4479 138.216 74.172 138.216 74.172 137.354C75.3215 132.469 75.8961 126.722 73.31 122.412C68.7123 114.366 70.7238 104.596 70.7238 104.596V104.309H68.9997C68.7123 105.171 67.2756 114.941 71.8733 123.274C74.172 127.297 73.5974 132.756 72.4479 137.354Z" fill="#415A6B"/>
</g>
<defs>
<clipPath id="clip0">
<rect width="138" height="138" fill="white"/>
</clipPath>
</defs>
</svg>
