<svg width="1440" height="3884" viewBox="0 0 1440 3884" fill="none" xmlns="http://www.w3.org/2000/svg">
<g opacity="0.2">
<path d="M1500.89 805.031C1534.11 608.047 1442.39 404.548 1088.47 1022.09C688.794 1719.45 694.637 1356.63 534.365 1786.75C374.093 2216.86 23.9153 2289.34 -130.901 2704.81" stroke="#219BB2"/>
<path d="M1486.91 865.422C1520.13 668.438 1428.42 464.939 1074.49 1082.48C674.818 1779.84 680.661 1417.02 520.389 1847.14C360.117 2277.25 9.93873 2349.73 -144.877 2765.2" stroke="#219BB2"/>
<path d="M1472.94 925.813C1506.15 728.829 1414.44 525.33 1060.51 1142.87C660.841 1840.23 666.684 1477.41 506.412 1907.53C346.14 2337.64 -4.03783 2410.12 -158.854 2825.59" stroke="#219BB2"/>
<path d="M1458.96 986.204C1492.18 789.22 1400.46 585.721 1046.54 1203.26C646.864 1900.62 652.708 1537.8 492.435 1967.92C332.163 2398.03 -18.0144 2470.51 -172.83 2885.98" stroke="#219BB2"/>
<path d="M1444.99 1046.59C1478.2 849.611 1386.49 646.111 1032.56 1263.65C632.89 1961.01 638.733 1598.19 478.461 2028.31C318.189 2458.42 -31.989 2530.9 -186.805 2946.37" stroke="#219BB2"/>
<path d="M1431.01 1106.99C1464.22 910.001 1372.51 706.502 1018.59 1324.04C618.913 2021.4 624.756 1658.58 464.484 2088.7C304.212 2518.82 -45.9656 2591.29 -200.782 3006.76" stroke="#219BB2"/>
<path d="M1417.03 1167.38C1450.25 970.392 1358.53 766.893 1004.61 1384.43C604.937 2081.79 610.78 1718.98 450.508 2149.09C290.236 2579.21 -59.9421 2651.68 -214.758 3067.15" stroke="#219BB2"/>
<path d="M1403.06 1227.77C1436.27 1030.78 1344.56 827.284 990.632 1444.82C590.96 2142.18 596.803 1779.37 436.531 2209.48C276.259 2639.6 -73.9187 2712.07 -228.735 3127.55" stroke="#219BB2"/>
<path d="M1389.08 1288.16C1422.29 1091.17 1330.58 887.674 976.655 1505.22C576.984 2202.57 582.827 1839.76 422.555 2269.87C262.283 2699.99 -87.8952 2772.46 -242.711 3187.94" stroke="#219BB2"/>
<path d="M1375.1 1348.55C1408.32 1151.56 1316.61 948.065 962.679 1565.61C563.007 2262.97 568.85 1900.15 408.578 2330.26C248.306 2760.38 -101.872 2832.85 -256.688 3248.33" stroke="#219BB2"/>
<path d="M1361.13 1408.94C1394.34 1211.96 1302.63 1008.46 948.702 1626C549.03 2323.36 554.874 1960.54 394.601 2390.65C234.329 2820.77 -115.848 2893.24 -270.664 3308.72" stroke="#219BB2"/>
<path d="M1347.15 1469.33C1380.37 1272.35 1288.65 1068.85 934.726 1686.39C535.054 2383.75 540.897 2020.93 380.625 2451.04C220.353 2881.16 -129.825 2953.64 -284.641 3369.11" stroke="#219BB2"/>
<path d="M1333.17 1529.72C1366.39 1332.74 1274.68 1129.24 920.749 1746.78C521.077 2444.14 526.92 2081.32 366.648 2511.44C206.376 2941.55 -143.801 3014.03 -298.617 3429.5" stroke="#219BB2"/>
<path d="M1319.2 1590.11C1352.41 1393.13 1260.7 1189.63 906.774 1807.17C507.103 2504.53 512.946 2141.71 352.674 2571.83C192.402 3001.94 -157.776 3074.42 -312.592 3489.89" stroke="#219BB2"/>
</g>
<g opacity="0.1">
<path d="M1434.78 698.047C1510.04 579.139 1515.51 321.109 1136.29 425.922C708.059 544.284 814.946 265.914 600.282 431.423C385.618 596.932 164.092 278.153 -43.2643 438.027" stroke="#219BB2"/>
<path d="M1409.53 730.433C1484.79 611.524 1490.26 353.494 1111.04 458.308C682.809 576.669 789.696 298.3 575.032 463.808C360.368 629.317 138.842 310.538 -68.5143 470.412" stroke="#219BB2"/>
<path d="M1384.28 762.817C1459.54 643.909 1465.01 385.879 1085.79 490.693C657.559 609.054 764.446 330.684 549.782 496.193C335.118 661.702 113.592 342.923 -93.7643 502.797" stroke="#219BB2"/>
<path d="M1359.03 795.203C1434.29 676.295 1439.76 418.265 1060.54 523.078C632.311 641.44 739.198 363.07 524.534 528.579C309.87 694.088 88.3436 375.309 -119.012 535.183" stroke="#219BB2"/>
<path d="M1333.78 827.589C1409.04 708.68 1414.51 450.65 1035.29 555.464C607.061 673.825 713.948 395.456 499.284 560.964C284.62 726.473 63.0936 407.694 -144.262 567.568" stroke="#219BB2"/>
<path d="M1308.53 859.974C1383.79 741.065 1389.26 483.035 1010.04 587.849C581.811 706.21 688.698 427.841 474.034 593.349C259.37 758.858 37.8436 440.079 -169.512 599.953" stroke="#219BB2"/>
<path d="M1283.28 892.358C1358.55 773.45 1364.02 515.42 984.797 620.234C556.563 738.595 663.45 460.225 448.786 625.734C234.122 791.243 12.5956 472.464 -194.76 632.338" stroke="#219BB2"/>
<path d="M1258.03 924.744C1333.3 805.836 1338.77 547.806 959.547 652.619C531.313 770.981 638.2 492.611 423.536 658.12C208.872 823.629 -12.6544 504.85 -220.01 664.724" stroke="#219BB2"/>
<path d="M1232.78 957.129C1308.05 838.221 1313.52 580.191 934.297 685.005C506.063 803.366 612.95 524.996 398.286 690.505C183.622 856.014 -37.9044 537.235 -245.26 697.109" stroke="#219BB2"/>
<path d="M1207.53 989.515C1282.8 870.606 1288.27 612.576 909.047 717.39C480.813 835.751 587.7 557.382 373.036 722.89C158.372 888.399 -63.1544 569.62 -270.51 729.494" stroke="#219BB2"/>
<path d="M1182.28 1021.9C1257.55 902.991 1263.02 644.961 883.797 749.775C455.563 868.136 562.45 589.767 347.786 755.275C133.122 920.784 -88.4044 602.005 -295.76 761.879" stroke="#219BB2"/>
<path d="M1157.04 1054.28C1232.3 935.376 1237.77 677.346 858.549 782.16C430.315 900.521 537.202 622.152 322.538 787.661C107.874 953.169 -113.652 634.39 -321.008 794.265" stroke="#219BB2"/>
<path d="M1131.79 1086.67C1207.05 967.762 1212.52 709.732 833.299 814.546C405.065 932.907 511.952 654.537 297.288 820.046C82.6243 985.555 -138.902 666.776 -346.258 826.65" stroke="#219BB2"/>
<path d="M1106.54 1119.06C1181.8 1000.15 1187.27 742.117 808.049 846.931C379.815 965.292 486.702 686.922 272.038 852.431C57.3743 1017.94 -164.152 699.161 -371.508 859.035" stroke="#219BB2"/>
</g>
</svg>
