<svg id="Layer_1" data-name="Layer 1" xmlns="http://www.w3.org/2000/svg" viewBox="0 0 322.87 103.32"><path d="M222.82,15.5a2.55,2.55,0,0,1,1.94.74,2.92,2.92,0,0,1,.68,2V54.71a2.92,2.92,0,0,1-.68,2,2.51,2.51,0,0,1-1.94.73,2.45,2.45,0,0,1-1.88-.73,2.87,2.87,0,0,1-.68-2V18.27a2.85,2.85,0,0,1,.68-2A2.42,2.42,0,0,1,222.82,15.5Z" fill="#199ab1"/><path d="M256.67,28.59a2.53,2.53,0,0,1,1.93.74,2.94,2.94,0,0,1,.69,2.09V54.83a2.67,2.67,0,0,1-.71,1.92,2.57,2.57,0,0,1-1.91.73,2.43,2.43,0,0,1-1.85-.74,2.72,2.72,0,0,1-.72-2v-1.5H254a10.46,10.46,0,0,1-4.09,3.4,13.49,13.49,0,0,1-5.87,1.2q-5.89,0-9-3.36t-3-9.79V31.42a2.87,2.87,0,0,1,.72-2.09,2.54,2.54,0,0,1,1.9-.74,2.42,2.42,0,0,1,1.88.74,2.92,2.92,0,0,1,.69,2.08V44.18a9.48,9.48,0,0,0,2.06,6.56c1.38,1.56,3.38,2.26,6,2.26a8.2,8.2,0,0,0,6.43-2.67,10.49,10.49,0,0,0,2.38-7.27V31.41a2.92,2.92,0,0,1,.69-2.08A2.42,2.42,0,0,1,256.67,28.59Z" fill="#199ab1"/><path d="M270.38,37.29A2.39,2.39,0,0,0,272,39.72a8.1,8.1,0,0,0,2.33.56,32.27,32.27,0,0,0,3.68.18,32.68,32.68,0,0,1,6,.56,10.51,10.51,0,0,1,3.92,1.56A5.8,5.8,0,0,1,290,45.2a9.87,9.87,0,0,1,.65,3.76,7.59,7.59,0,0,1-3.25,6.56c-2.17,1.54-5.22,2.32-9.16,2.32a26.33,26.33,0,0,1-7.54-.92,12.69,12.69,0,0,1-5.11-2.86,2.5,2.5,0,0,1-.77-1.82,2.45,2.45,0,0,1,.68-1.8,2.25,2.25,0,0,1,1.68-.68,3,3,0,0,1,1.89.77c2.12,1.8,5.05,2.71,8.79,2.71a11.08,11.08,0,0,0,5.6-1.18,3.61,3.61,0,0,0,2-3.24,3.18,3.18,0,0,0-.38-1.6,3,3,0,0,0-1.3-1.09,8.57,8.57,0,0,0-2.48-.65,31.1,31.1,0,0,0-3.86-.2,27.82,27.82,0,0,1-5.69-.5A11.06,11.06,0,0,1,268,43.3a5.48,5.48,0,0,1-2.12-2.47,8.9,8.9,0,0,1-.65-3.57,7.76,7.76,0,0,1,3.33-6.58c2.22-1.63,5.22-2.45,9-2.44a22.35,22.35,0,0,1,6.25.76,13,13,0,0,1,4.66,2.48,2.66,2.66,0,0,1,.94,2,2.57,2.57,0,0,1-.68,1.89,2.3,2.3,0,0,1-1.73.71,2.28,2.28,0,0,1-1.54-.53,11.83,11.83,0,0,0-7.52-2.66,10.89,10.89,0,0,0-5.49,1.19A3.6,3.6,0,0,0,270.38,37.29Z" fill="#199ab1"/><path d="M203,18.86l-3.91,2.56-1.1.71-8.32,5.47-3.48,2.3-.68.44v-12h13.75A13.56,13.56,0,0,1,203,18.86Z" fill="#199ab1"/><path d="M212.62,32v.8a13.47,13.47,0,0,1-13.29,12.89,13,13,0,0,1-8.83-3.47v13.5a2.35,2.35,0,0,1-2.3,2.4h-.36a2.35,2.35,0,0,1-2.31-2.39h0V42.11l4-4.44,1.11-1.25,12.18-13.6,1.37-1.51,1.37-1.6a13.43,13.43,0,0,1,6.94,10.84,1.9,1.9,0,0,0,.09.71Z" fill="#199ab1"/><path d="M36.71,35.92l-.38-.07c-6.26-1.17-9-2.14-9-4.83A4.33,4.33,0,0,1,30,27a13.91,13.91,0,0,1,5.89-1.24c3.42,0,6.87.54,8.92,3.85l.14.21a2.67,2.67,0,0,0,.45.74,2.34,2.34,0,0,0,.32.31,2.84,2.84,0,0,0,3.56.12l.19-.15a2.84,2.84,0,0,0,1-2.12,2.32,2.32,0,0,0-.07-.59,2.37,2.37,0,0,0-.32-.85c0-.07-.09-.14-.14-.21l-.29-.44c-3.59-5.36-8.07-6.45-13.69-6.45-4.89,0-9.3,1.52-11.8,4.08a9.24,9.24,0,0,0-2.65,6.88c0,7.56,7.66,9.06,13.81,10.26s9.87,2.14,9.84,5.7c0,5-6.44,5.57-9.2,5.57-3.72,0-8.4-1.81-10.15-5.27L25.09,46h0a2.85,2.85,0,0,0-1.86-1.21,2.09,2.09,0,0,0-.5,0,2.86,2.86,0,0,0-1.28.3,2.67,2.67,0,0,0-1,.76,2.85,2.85,0,0,0-.45,2.7h0l.07.12a2,2,0,0,0,.18.36l.47.93c3,6,9.88,8.22,15.32,8.22a20.58,20.58,0,0,0,9.54-2.06,9.78,9.78,0,0,0,5.43-9c0-8.47-7.88-10-14.21-11.2" fill="#484e73"/><path d="M163.84,36.57H142.43l-.38.07a2.9,2.9,0,0,0-1.71,1.19v.05a2.77,2.77,0,0,0-.45,1.53,2.92,2.92,0,0,0,.47,1.57,2.51,2.51,0,0,0,.51.57,2.71,2.71,0,0,0,1.2.62h22.24V42.1c3.45,0,4.78-1.79,5.22-3.69a19.23,19.23,0,0,0-18.75-18.62h-.28A18.58,18.58,0,0,0,143.91,21,19.35,19.35,0,0,0,131.8,35.48a19.94,19.94,0,0,0,1.47,12.11v.12a18.43,18.43,0,0,0,1.62,2.79.44.44,0,0,0,.08.11A19.05,19.05,0,0,0,142.64,57h0a20.6,20.6,0,0,0,8.3,1.68H152a18.74,18.74,0,0,0,4.19-.83l.13-.05c3-.88,7.1-2.65,9.77-6.13l.15-.21a2.87,2.87,0,0,0,.26-.49.3.3,0,0,1,.06-.18,2.79,2.79,0,0,0,.11-.76,1.55,1.55,0,0,0,0-.43h0v-.19h0V49.3a2.54,2.54,0,0,0-2.13-1.74h-.3a2.56,2.56,0,0,0-2,.92,10.07,10.07,0,0,1-1.55,1.37,14.68,14.68,0,0,1-3,1.61h-.06a18.11,18.11,0,0,1-6.66,1.3c-6,0-12.32-3.67-13-11.85a15.44,15.44,0,0,1,0-2.72v-.12a15.79,15.79,0,0,1,.43-2.55,14.14,14.14,0,0,1,1.65-4A12.58,12.58,0,0,1,151,25.62a16.06,16.06,0,0,1,5.9,1l.39.16.43.2h.05l.49.25a12.12,12.12,0,0,1,6.33,9.3Z" fill="#484e73"/><path d="M128.88,19.85a2.73,2.73,0,0,0-.5-.05,3.16,3.16,0,0,0-2.31,1.09,3.42,3.42,0,0,0-.33.51c0,.1-.09.2-.13.3a.75.75,0,0,0-.07.12l-.2.51-2.84,7.1v.1l-2,5.21-.1.26h0l-.49,1.18-2.77,6.73-2.94,7.14-3-7.21-2.77-6.73-.49-1.18-.11-.25-2-5.22v-.1L103,22.26l-.2-.51a.41.41,0,0,0-.07-.11.78.78,0,0,0-.13-.3,2.55,2.55,0,0,0-.33-.52A3.16,3.16,0,0,0,100,19.73a2.07,2.07,0,0,0-.5.06A2.93,2.93,0,0,0,97,22.69a3.36,3.36,0,0,0,.06.63h0a3.38,3.38,0,0,0,.13.42h0l.34.85h0l9.39,23.46h0v.13h0l.67,1.6,2.79,6.65h0l.12.28a4,4,0,0,0,3.65,2.35,3.9,3.9,0,0,0,1.54-.32,4.18,4.18,0,0,0,.87-.5l.25-.21a3.7,3.7,0,0,0,.92-1.19l.22-.52h0v-.13l2.65-6.33.67-1.6h0v-.13h0l9.39-23.46h0l.34-.85h0a2.8,2.8,0,0,0,.13-.41h0a3.36,3.36,0,0,0,.06-.63,3,3,0,0,0-2.43-2.91" fill="#484e73"/><path d="M92.83,22.4a1.61,1.61,0,0,0,0-.31h0a2.79,2.79,0,0,0-2.31-2.44H90a2.86,2.86,0,0,0-1.25.29,3,3,0,0,0-.94.75h0a2.81,2.81,0,0,0-.62,1.46,1.82,1.82,0,0,0,0,.33v.32h0V26a17.62,17.62,0,0,0-13.7-6c-11,0-19.31,8.36-19.31,19.46S62.51,59,73.52,59a17.64,17.64,0,0,0,13.7-6.16V56h0v.22A2.81,2.81,0,0,0,90,58.88a2.75,2.75,0,0,0,1.68-.57l.18-.14a2.72,2.72,0,0,0,.37-.39,2.83,2.83,0,0,0,.57-1.5h0V22.4M84,49a13.6,13.6,0,0,1-10.5,4.4c-7.94,0-13.7-5.92-13.7-14.06s5.76-14,13.7-14c9.63,0,14,7.27,14,14A14.48,14.48,0,0,1,84,49" fill="#484e73"/><path d="M24,84.86,22.34,90H20.17L25.7,73.72h2.53L33.78,90H31.54L29.8,84.86Zm5.34-1.64-1.6-4.68c-.36-1.06-.6-2-.84-3h-.05c-.24,1-.51,2-.82,3l-1.59,4.7Z" fill="#199ab1"/><path d="M41.29,73.93a30.47,30.47,0,0,1,4.46-.34c3,0,5.17.7,6.59,2a7.49,7.49,0,0,1,2.29,5.84,8.59,8.59,0,0,1-2.34,6.32c-1.52,1.52-4,2.34-7.19,2.34a34,34,0,0,1-3.81-.19Zm2.1,14.38a12.82,12.82,0,0,0,2.12.12c4.49,0,6.93-2.51,6.93-6.9,0-3.83-2.15-6.27-6.59-6.27a11.85,11.85,0,0,0-2.46.22Z" fill="#199ab1"/><path d="M57.29,81.94c0-1.37,0-2.56-.1-3.64h1.86l.07,2.29h.1A3.5,3.5,0,0,1,62.45,78a2.31,2.31,0,0,1,.61.08v2a3.17,3.17,0,0,0-.73-.07,3,3,0,0,0-2.85,2.72,5.86,5.86,0,0,0-.09,1V90h-2.1Z" fill="#199ab1"/><path d="M66.12,84.52a3.74,3.74,0,0,0,4,4.06,7.81,7.81,0,0,0,3.23-.6l.36,1.51a9.41,9.41,0,0,1-3.88.73c-3.6,0-5.75-2.37-5.75-5.89S66.17,78,69.57,78c3.81,0,4.83,3.36,4.83,5.5a6.6,6.6,0,0,1-.08,1ZM72.35,83c0-1.35-.56-3.45-2.95-3.45-2.15,0-3.09,2-3.25,3.45Z" fill="#199ab1"/><path d="M83.5,90l-.17-1.47h-.08a4.35,4.35,0,0,1-3.57,1.73,3.33,3.33,0,0,1-3.57-3.35c0-2.82,2.51-4.37,7-4.34V82.3a2.4,2.4,0,0,0-2.65-2.7,5.81,5.81,0,0,0-3,.87L77,79.07a7.19,7.19,0,0,1,3.83-1c3.57,0,4.44,2.44,4.44,4.78v4.37a16,16,0,0,0,.2,2.8Zm-.32-6c-2.31,0-4.94.36-4.94,2.63a1.87,1.87,0,0,0,2,2,2.9,2.9,0,0,0,2.82-2,2.32,2.32,0,0,0,.12-.68Z" fill="#199ab1"/><path d="M88.66,81.46c0-1.21,0-2.2-.1-3.16h1.86l.1,1.88h.07A4,4,0,0,1,94.26,78a3.45,3.45,0,0,1,3.3,2.34h0a4.81,4.81,0,0,1,1.31-1.52A4,4,0,0,1,101.5,78c1.54,0,3.83,1,3.83,5.07V90h-2.07V83.37c0-2.25-.82-3.6-2.53-3.6a2.74,2.74,0,0,0-2.51,1.93,3.41,3.41,0,0,0-.17,1.06V90H96V83c0-1.86-.82-3.21-2.43-3.21a2.91,2.91,0,0,0-2.64,2.12,3,3,0,0,0-.16,1v7H88.66Z" fill="#199ab1"/><path d="M108.57,87.42a7.43,7.43,0,0,0,3.76,1.06c2.15,0,3.41-1.13,3.41-2.77s-.87-2.39-3.07-3.24c-2.65-.94-4.29-2.31-4.29-4.6,0-2.54,2.1-4.42,5.26-4.42a7.37,7.37,0,0,1,3.59.8L116.65,76a6.45,6.45,0,0,0-3.09-.77c-2.22,0-3.06,1.32-3.06,2.43,0,1.52,1,2.27,3.23,3.14,2.75,1.06,4.15,2.39,4.15,4.78s-1.85,4.68-5.69,4.68a8.39,8.39,0,0,1-4.15-1Z" fill="#199ab1"/><path d="M123.17,75V78.3h3v1.62h-3v6.29c0,1.45.41,2.27,1.59,2.27a4.8,4.8,0,0,0,1.23-.14l.1,1.59a5.16,5.16,0,0,1-1.88.29,3,3,0,0,1-2.3-.89,4.35,4.35,0,0,1-.82-3V79.92h-1.81V78.3h1.81V75.5Z" fill="#199ab1"/><path d="M135.07,90l-.17-1.47h-.08a4.35,4.35,0,0,1-3.57,1.73,3.33,3.33,0,0,1-3.57-3.35c0-2.82,2.51-4.37,7-4.34V82.3a2.4,2.4,0,0,0-2.65-2.7,5.81,5.81,0,0,0-3,.87l-.48-1.4a7.19,7.19,0,0,1,3.83-1c3.57,0,4.44,2.44,4.44,4.78v4.37A16,16,0,0,0,137,90Zm-.32-6c-2.31,0-4.94.36-4.94,2.63a1.87,1.87,0,0,0,2,2,2.9,2.9,0,0,0,2.82-2,2.32,2.32,0,0,0,.12-.68Z" fill="#199ab1"/><path d="M140.23,81.94c0-1.37,0-2.56-.1-3.64H142l.07,2.29h.1A3.5,3.5,0,0,1,145.39,78a2.25,2.25,0,0,1,.61.08v2a3.17,3.17,0,0,0-.73-.07,3,3,0,0,0-2.84,2.72,5.81,5.81,0,0,0-.1,1V90h-2.1Z" fill="#199ab1"/><path d="M151.26,75V78.3h3v1.62h-3v6.29c0,1.45.41,2.27,1.59,2.27a4.8,4.8,0,0,0,1.23-.14l.1,1.59a5.16,5.16,0,0,1-1.88.29,3,3,0,0,1-2.29-.89,4.31,4.31,0,0,1-.82-3V79.92h-1.82V78.3h1.82V75.5Z" fill="#199ab1"/><path d="M161.88,73.72H164v14.5h7V90h-9.05Z" fill="#199ab1"/><path d="M179.66,90l-.17-1.47h-.07a4.35,4.35,0,0,1-3.57,1.73,3.33,3.33,0,0,1-3.57-3.35c0-2.82,2.51-4.37,7-4.34V82.3a2.4,2.4,0,0,0-2.65-2.7,5.81,5.81,0,0,0-3,.87l-.49-1.4A7.25,7.25,0,0,1,177,78c3.57,0,4.44,2.44,4.44,4.78v4.37a17,17,0,0,0,.19,2.8Zm-.31-6c-2.32,0-4.95.36-4.95,2.63a1.88,1.88,0,0,0,2,2,2.9,2.9,0,0,0,2.83-2,2.32,2.32,0,0,0,.12-.68Z" fill="#199ab1"/><path d="M184.73,90c.05-.8.1-2,.1-3V72.85h2.1v7.33h0A4.34,4.34,0,0,1,191,78c2.89,0,4.94,2.42,4.92,6,0,4.18-2.63,6.25-5.24,6.25a4.16,4.16,0,0,1-3.91-2.19h-.07l-.1,1.93Zm2.2-4.68a4.77,4.77,0,0,0,.09.77,3.27,3.27,0,0,0,3.19,2.48c2.22,0,3.55-1.81,3.55-4.48,0-2.34-1.21-4.35-3.48-4.35a3.38,3.38,0,0,0-3.23,2.61,4.06,4.06,0,0,0-.12.87Z" fill="#199ab1"/><path d="M198.27,87.81a5.58,5.58,0,0,0,2.8.84c1.54,0,2.27-.77,2.27-1.74s-.61-1.57-2.17-2.14c-2.1-.75-3.09-1.91-3.09-3.31,0-1.88,1.52-3.43,4-3.43a5.78,5.78,0,0,1,2.87.73l-.53,1.54a4.57,4.57,0,0,0-2.39-.67c-1.26,0-2,.72-2,1.59s.7,1.4,2.22,2c2,.77,3.07,1.78,3.07,3.52,0,2-1.6,3.5-4.37,3.5a6.68,6.68,0,0,1-3.28-.8Z" fill="#199ab1"/><path d="M213.31,73.91a23.94,23.94,0,0,1,4-.32A6.65,6.65,0,0,1,221.89,75a4.34,4.34,0,0,1,1.43,3.4,4.78,4.78,0,0,1-1.26,3.47,6.75,6.75,0,0,1-5,1.79,7.28,7.28,0,0,1-1.69-.15V90h-2.09Zm2.09,7.84a7.1,7.1,0,0,0,1.74.17c2.53,0,4.08-1.23,4.08-3.48s-1.52-3.18-3.84-3.18a8.63,8.63,0,0,0-2,.17Z" fill="#199ab1"/><path d="M225.69,81.94c0-1.37,0-2.56-.1-3.64h1.86l.07,2.29h.09A3.52,3.52,0,0,1,230.85,78a2.18,2.18,0,0,1,.6.08v2a3.08,3.08,0,0,0-.72-.07,3,3,0,0,0-2.85,2.72,5.81,5.81,0,0,0-.1,1V90h-2.09Z" fill="#199ab1"/><path d="M243.9,84c0,4.32-3,6.2-5.81,6.2-3.16,0-5.6-2.31-5.6-6,0-3.91,2.56-6.21,5.79-6.21S243.9,80.47,243.9,84Zm-9.26.12c0,2.56,1.47,4.49,3.54,4.49s3.55-1.91,3.55-4.54c0-2-1-4.48-3.5-4.48S234.64,81.94,234.64,84.16Z" fill="#199ab1"/><path d="M256.67,72.85V87c0,1,0,2.22.1,3h-1.91l-.1-2h0a4.34,4.34,0,0,1-4,2.29c-2.82,0-5-2.39-5-5.93,0-3.89,2.39-6.28,5.24-6.28a3.91,3.91,0,0,1,3.52,1.79h.05v-7Zm-2.12,10.2a3.92,3.92,0,0,0-.1-.89,3.12,3.12,0,0,0-3.06-2.46c-2.2,0-3.5,1.93-3.5,4.51,0,2.37,1.15,4.32,3.45,4.32A3.19,3.19,0,0,0,254.45,86a3.82,3.82,0,0,0,.1-.92Z" fill="#199ab1"/><path d="M270,86.79c0,1.21,0,2.27.09,3.19h-1.88l-.12-1.91H268a4.38,4.38,0,0,1-3.86,2.17c-1.83,0-4-1-4-5.11V78.3h2.12v6.47c0,2.22.68,3.71,2.61,3.71a3,3,0,0,0,3-3V78.3H270Z" fill="#199ab1"/><path d="M281.82,89.54a7.85,7.85,0,0,1-3.36.68c-3.52,0-5.81-2.39-5.81-6a5.93,5.93,0,0,1,6.27-6.2,7.06,7.06,0,0,1,2.94.6l-.48,1.64a4.9,4.9,0,0,0-2.46-.55c-2.68,0-4.13,2-4.13,4.41,0,2.7,1.74,4.37,4.06,4.37a6,6,0,0,0,2.6-.58Z" fill="#199ab1"/><path d="M287.17,75V78.3h3.05v1.62h-3.05v6.29c0,1.45.41,2.27,1.6,2.27a4.93,4.93,0,0,0,1.23-.14l.09,1.59a5.16,5.16,0,0,1-1.88.29,3,3,0,0,1-2.29-.89,4.35,4.35,0,0,1-.82-3V79.92h-1.81V78.3h1.81V75.5Z" fill="#199ab1"/></svg>
