<svg width="271.87" height="103.32" xmlns="http://www.w3.org/2000/svg">
 <g>
  <title>Layer 1</title>
  <path id="svg_1" fill="#199ab1" d="m203.82,15.5a2.55,2.55 0 0 1 1.94,0.74a2.92,2.92 0 0 1 0.68,2l0,36.47a2.92,2.92 0 0 1 -0.68,2a2.51,2.51 0 0 1 -1.94,0.73a2.45,2.45 0 0 1 -1.88,-0.73a2.87,2.87 0 0 1 -0.68,-2l0,-36.44a2.85,2.85 0 0 1 0.68,-2a2.42,2.42 0 0 1 1.88,-0.77z"/>
  <path id="svg_2" fill="#199ab1" d="m237.67,28.59a2.53,2.53 0 0 1 1.93,0.74a2.94,2.94 0 0 1 0.69,2.09l0,23.41a2.67,2.67 0 0 1 -0.71,1.92a2.57,2.57 0 0 1 -1.91,0.73a2.43,2.43 0 0 1 -1.85,-0.74a2.72,2.72 0 0 1 -0.72,-2l0,-1.5l-0.1,0a10.46,10.46 0 0 1 -4.09,3.4a13.49,13.49 0 0 1 -5.87,1.2q-5.89,0 -9,-3.36t-3,-9.79l0,-13.27a2.87,2.87 0 0 1 0.72,-2.09a2.54,2.54 0 0 1 1.9,-0.74a2.42,2.42 0 0 1 1.88,0.74a2.92,2.92 0 0 1 0.69,2.08l0,12.77a9.48,9.48 0 0 0 2.06,6.56c1.38,1.56 3.38,2.26 6,2.26a8.2,8.2 0 0 0 6.43,-2.67a10.49,10.49 0 0 0 2.38,-7.27l0,-11.65a2.92,2.92 0 0 1 0.69,-2.08a2.42,2.42 0 0 1 1.88,-0.74z"/>
  <path id="svg_3" fill="#199ab1" d="m251.38,37.29a2.39,2.39 0 0 0 1.62,2.43a8.1,8.1 0 0 0 2.33,0.56a32.27,32.27 0 0 0 3.68,0.18a32.68,32.68 0 0 1 6,0.56a10.51,10.51 0 0 1 3.92,1.56a5.8,5.8 0 0 1 2.07,2.62a9.87,9.87 0 0 1 0.65,3.76a7.59,7.59 0 0 1 -3.25,6.56c-2.17,1.54 -5.22,2.32 -9.16,2.32a26.33,26.33 0 0 1 -7.54,-0.92a12.69,12.69 0 0 1 -5.11,-2.86a2.5,2.5 0 0 1 -0.77,-1.82a2.45,2.45 0 0 1 0.68,-1.8a2.25,2.25 0 0 1 1.68,-0.68a3,3 0 0 1 1.89,0.77c2.12,1.8 5.05,2.71 8.79,2.71a11.08,11.08 0 0 0 5.6,-1.18a3.61,3.61 0 0 0 2,-3.24a3.18,3.18 0 0 0 -0.38,-1.6a3,3 0 0 0 -1.3,-1.09a8.57,8.57 0 0 0 -2.48,-0.65a31.1,31.1 0 0 0 -3.86,-0.2a27.82,27.82 0 0 1 -5.69,-0.5a11.06,11.06 0 0 1 -3.75,-1.48a5.48,5.48 0 0 1 -2.12,-2.47a8.9,8.9 0 0 1 -0.65,-3.57a7.76,7.76 0 0 1 3.33,-6.58c2.22,-1.63 5.22,-2.45 9,-2.44a22.35,22.35 0 0 1 6.25,0.76a13,13 0 0 1 4.66,2.48a2.66,2.66 0 0 1 0.94,2a2.57,2.57 0 0 1 -0.68,1.89a2.3,2.3 0 0 1 -1.73,0.71a2.28,2.28 0 0 1 -1.54,-0.53a11.83,11.83 0 0 0 -7.52,-2.66a10.89,10.89 0 0 0 -5.49,1.19a3.6,3.6 0 0 0 -2.07,3.21z"/>
  <path id="svg_4" fill="#199ab1" d="m184,18.86l-3.91,2.56l-1.1,0.71l-8.32,5.47l-3.48,2.3l-0.68,0.44l0,-12l13.75,0a13.56,13.56 0 0 1 3.74,0.52z"/>
  <path id="svg_5" fill="#199ab1" d="m193.62,32l0,0.8a13.47,13.47 0 0 1 -13.29,12.89a13,13 0 0 1 -8.83,-3.47l0,13.5a2.35,2.35 0 0 1 -2.3,2.4l-0.36,0a2.35,2.35 0 0 1 -2.31,-2.39l0,0l0,-13.62l4,-4.44l1.11,-1.25l12.18,-13.6l1.37,-1.51l1.37,-1.6a13.43,13.43 0 0 1 6.94,10.84a1.9,1.9 0 0 0 0.09,0.71l0.03,0.74z"/>
  <path id="svg_6" fill="#484e73" d="m17.71,35.92l-0.38,-0.07c-6.26,-1.17 -9,-2.14 -9,-4.83a4.33,4.33 0 0 1 2.67,-4.02a13.91,13.91 0 0 1 5.89,-1.24c3.42,0 6.87,0.54 8.92,3.85l0.14,0.21a2.67,2.67 0 0 0 0.45,0.74a2.34,2.34 0 0 0 0.32,0.31a2.84,2.84 0 0 0 3.56,0.12l0.19,-0.15a2.84,2.84 0 0 0 1,-2.12a2.32,2.32 0 0 0 -0.07,-0.59a2.37,2.37 0 0 0 -0.32,-0.85c0,-0.07 -0.09,-0.14 -0.14,-0.21l-0.29,-0.44c-3.59,-5.36 -8.07,-6.45 -13.69,-6.45c-4.89,0 -9.3,1.52 -11.8,4.08a9.24,9.24 0 0 0 -2.65,6.88c0,7.56 7.66,9.06 13.81,10.26s9.87,2.14 9.84,5.7c0,5 -6.44,5.57 -9.2,5.57c-3.72,0 -8.4,-1.81 -10.15,-5.27l-0.72,-1.4l0,0a2.85,2.85 0 0 0 -1.86,-1.21a2.09,2.09 0 0 0 -0.5,0a2.86,2.86 0 0 0 -1.28,0.3a2.67,2.67 0 0 0 -1,0.76a2.85,2.85 0 0 0 -0.45,2.7l0,0l0.07,0.12a2,2 0 0 0 0.18,0.36l0.47,0.93c3,6 9.88,8.22 15.32,8.22a20.58,20.58 0 0 0 9.54,-2.06a9.78,9.78 0 0 0 5.43,-9c0,-8.47 -7.88,-10 -14.21,-11.2"/>
  <path id="svg_7" fill="#484e73" d="m144.84,36.57l-21.41,0l-0.38,0.07a2.9,2.9 0 0 0 -1.71,1.19l0,0.05a2.77,2.77 0 0 0 -0.45,1.53a2.92,2.92 0 0 0 0.47,1.57a2.51,2.51 0 0 0 0.51,0.57a2.71,2.71 0 0 0 1.2,0.62l22.24,0l0,-0.07c3.45,0 4.78,-1.79 5.22,-3.69a19.23,19.23 0 0 0 -18.75,-18.62l-0.28,0a18.58,18.58 0 0 0 -6.59,1.21a19.35,19.35 0 0 0 -12.11,14.48a19.94,19.94 0 0 0 1.47,12.11l0,0.12a18.43,18.43 0 0 0 1.62,2.79a0.44,0.44 0 0 0 0.08,0.11a19.05,19.05 0 0 0 7.67,6.39l0,0a20.6,20.6 0 0 0 8.3,1.68l1.06,0a18.74,18.74 0 0 0 4.19,-0.83l0.13,-0.05c3,-0.88 7.1,-2.65 9.77,-6.13l0.15,-0.21a2.87,2.87 0 0 0 0.26,-0.49a0.3,0.3 0 0 1 0.06,-0.18a2.79,2.79 0 0 0 0.11,-0.76a1.55,1.55 0 0 0 0,-0.43l0,0l0,-0.19l0,0l0,-0.11a2.54,2.54 0 0 0 -2.13,-1.74l-0.3,0a2.56,2.56 0 0 0 -2,0.92a10.07,10.07 0 0 1 -1.55,1.37a14.68,14.68 0 0 1 -3,1.61l-0.06,0a18.11,18.11 0 0 1 -6.66,1.3c-6,0 -12.32,-3.67 -13,-11.85a15.44,15.44 0 0 1 0,-2.72l0,-0.12a15.79,15.79 0 0 1 0.43,-2.55a14.14,14.14 0 0 1 1.65,-4a12.58,12.58 0 0 1 10.95,-5.9a16.06,16.06 0 0 1 5.9,1l0.39,0.16l0.43,0.2l0.05,0l0.49,0.25a12.12,12.12 0 0 1 6.33,9.3l-0.75,0.04z"/>
  <path id="svg_8" fill="#484e73" d="m109.88,19.85a2.73,2.73 0 0 0 -0.5,-0.05a3.16,3.16 0 0 0 -2.31,1.09a3.42,3.42 0 0 0 -0.33,0.51c0,0.1 -0.09,0.2 -0.13,0.3a0.75,0.75 0 0 0 -0.07,0.12l-0.2,0.51l-2.84,7.1l0,0.1l-2,5.21l-0.1,0.26l0,0l-0.49,1.18l-2.77,6.73l-2.94,7.14l-3,-7.21l-2.77,-6.73l-0.49,-1.18l-0.11,-0.25l-2,-5.22l0,-0.1l-2.83,-7.1l-0.2,-0.51a0.41,0.41 0 0 0 -0.07,-0.11a0.78,0.78 0 0 0 -0.13,-0.3a2.55,2.55 0 0 0 -0.33,-0.52a3.16,3.16 0 0 0 -2.27,-1.09a2.07,2.07 0 0 0 -0.5,0.06a2.93,2.93 0 0 0 -2.5,2.9a3.36,3.36 0 0 0 0.06,0.63l0,0a3.38,3.38 0 0 0 0.13,0.42l0,0l0.34,0.85l0,0l9.39,23.46l0,0l0,0.13l0,0l0.67,1.6l2.79,6.65l0,0l0.12,0.28a4,4 0 0 0 3.65,2.35a3.9,3.9 0 0 0 1.54,-0.32a4.18,4.18 0 0 0 0.87,-0.5l0.25,-0.21a3.7,3.7 0 0 0 0.92,-1.19l0.22,-0.52l0,0l0,-0.13l2.65,-6.33l0.67,-1.6l0,0l0,-0.13l0,0l9.39,-23.46l0,0l0.34,-0.85l0,0a2.8,2.8 0 0 0 0.13,-0.41l0,0a3.36,3.36 0 0 0 0.06,-0.63a3,3 0 0 0 -2.43,-2.91"/>
  <path id="svg_9" fill="#484e73" d="m73.83,22.4a1.61,1.61 0 0 0 0,-0.31l0,0a2.79,2.79 0 0 0 -2.31,-2.44l-0.52,0a2.86,2.86 0 0 0 -1.25,0.29a3,3 0 0 0 -0.94,0.75l0,0a2.81,2.81 0 0 0 -0.62,1.46a1.82,1.82 0 0 0 0,0.33l0,0.32l0,0l0,3.2a17.62,17.62 0 0 0 -13.7,-6c-11,0 -19.31,8.36 -19.31,19.46s8.33,19.54 19.34,19.54a17.64,17.64 0 0 0 13.7,-6.16l0,3.16l0,0l0,0.22a2.81,2.81 0 0 0 2.78,2.66a2.75,2.75 0 0 0 1.68,-0.57l0.18,-0.14a2.72,2.72 0 0 0 0.37,-0.39a2.83,2.83 0 0 0 0.57,-1.5l0,0l0,-33.88m-8.8,26.6a13.6,13.6 0 0 1 -10.5,4.4c-7.94,0 -13.7,-5.92 -13.7,-14.06s5.76,-14 13.7,-14c9.63,0 14,7.27 14,14a14.48,14.48 0 0 1 -3.5,9.66"/>
  <path id="svg_10" fill="#199ab1" d="m5,84.86l-1.66,5.14l-2.17,0l5.53,-16.28l2.53,0l5.55,16.28l-2.24,0l-1.74,-5.14l-5.8,0zm5.34,-1.64l-1.6,-4.68c-0.36,-1.06 -0.6,-2 -0.84,-3l-0.05,0c-0.24,1 -0.51,2 -0.82,3l-1.59,4.7l4.9,-0.02z"/>
  <path id="svg_11" fill="#199ab1" d="m22.29,73.93a30.47,30.47 0 0 1 4.46,-0.34c3,0 5.17,0.7 6.59,2a7.49,7.49 0 0 1 2.29,5.84a8.59,8.59 0 0 1 -2.34,6.32c-1.52,1.52 -4,2.34 -7.19,2.34a34,34 0 0 1 -3.81,-0.19l0,-15.97zm2.1,14.38a12.82,12.82 0 0 0 2.12,0.12c4.49,0 6.93,-2.51 6.93,-6.9c0,-3.83 -2.15,-6.27 -6.59,-6.27a11.85,11.85 0 0 0 -2.46,0.22l0,12.83z"/>
  <path id="svg_12" fill="#199ab1" d="m38.29,81.94c0,-1.37 0,-2.56 -0.1,-3.64l1.86,0l0.07,2.29l0.1,0a3.5,3.5 0 0 1 3.23,-2.59a2.31,2.31 0 0 1 0.61,0.08l0,2a3.17,3.17 0 0 0 -0.73,-0.07a3,3 0 0 0 -2.85,2.72a5.86,5.86 0 0 0 -0.09,1l0,6.27l-2.1,0l0,-8.06z"/>
  <path id="svg_13" fill="#199ab1" d="m47.12,84.52a3.74,3.74 0 0 0 4,4.06a7.81,7.81 0 0 0 3.23,-0.6l0.36,1.51a9.41,9.41 0 0 1 -3.88,0.73c-3.6,0 -5.75,-2.37 -5.75,-5.89s2.09,-6.33 5.49,-6.33c3.81,0 4.83,3.36 4.83,5.5a6.6,6.6 0 0 1 -0.08,1l-8.2,0.02zm6.23,-1.52c0,-1.35 -0.56,-3.45 -2.95,-3.45c-2.15,0 -3.09,2 -3.25,3.45l6.2,0z"/>
  <path id="svg_14" fill="#199ab1" d="m64.5,90l-0.17,-1.47l-0.08,0a4.35,4.35 0 0 1 -3.57,1.73a3.33,3.33 0 0 1 -3.57,-3.35c0,-2.82 2.51,-4.37 7,-4.34l0,-0.27a2.4,2.4 0 0 0 -2.65,-2.7a5.81,5.81 0 0 0 -3,0.87l-0.46,-1.4a7.19,7.19 0 0 1 3.83,-1c3.57,0 4.44,2.44 4.44,4.78l0,4.37a16,16 0 0 0 0.2,2.8l-1.97,-0.02zm-0.32,-6c-2.31,0 -4.94,0.36 -4.94,2.63a1.87,1.87 0 0 0 2,2a2.9,2.9 0 0 0 2.82,-2a2.32,2.32 0 0 0 0.12,-0.68l0,-1.95z"/>
  <path id="svg_15" fill="#199ab1" d="m69.66,81.46c0,-1.21 0,-2.2 -0.1,-3.16l1.86,0l0.1,1.88l0.07,0a4,4 0 0 1 3.67,-2.18a3.45,3.45 0 0 1 3.3,2.34l0,0a4.81,4.81 0 0 1 1.31,-1.52a4,4 0 0 1 2.63,-0.82c1.54,0 3.83,1 3.83,5.07l0,6.93l-2.07,0l0,-6.63c0,-2.25 -0.82,-3.6 -2.53,-3.6a2.74,2.74 0 0 0 -2.51,1.93a3.41,3.41 0 0 0 -0.17,1.06l0,7.24l-2.05,0l0,-7c0,-1.86 -0.82,-3.21 -2.43,-3.21a2.91,2.91 0 0 0 -2.64,2.12a3,3 0 0 0 -0.16,1l0,7l-2.11,0l0,-8.45z"/>
  <path id="svg_16" fill="#199ab1" d="m89.57,87.42a7.43,7.43 0 0 0 3.76,1.06c2.15,0 3.41,-1.13 3.41,-2.77s-0.87,-2.39 -3.07,-3.24c-2.65,-0.94 -4.29,-2.31 -4.29,-4.6c0,-2.54 2.1,-4.42 5.26,-4.42a7.37,7.37 0 0 1 3.59,0.8l-0.58,1.75a6.45,6.45 0 0 0 -3.09,-0.77c-2.22,0 -3.06,1.32 -3.06,2.43c0,1.52 1,2.27 3.23,3.14c2.75,1.06 4.15,2.39 4.15,4.78s-1.85,4.68 -5.69,4.68a8.39,8.39 0 0 1 -4.15,-1l0.53,-1.84z"/>
  <path id="svg_17" fill="#199ab1" d="m104.17,75l0,3.3l3,0l0,1.62l-3,0l0,6.29c0,1.45 0.41,2.27 1.59,2.27a4.8,4.8 0 0 0 1.23,-0.14l0.1,1.59a5.16,5.16 0 0 1 -1.88,0.29a3,3 0 0 1 -2.3,-0.89a4.35,4.35 0 0 1 -0.82,-3l0,-6.41l-1.81,0l0,-1.62l1.81,0l0,-2.8l2.08,-0.5z"/>
  <path id="svg_18" fill="#199ab1" d="m116.07,90l-0.17,-1.47l-0.08,0a4.35,4.35 0 0 1 -3.57,1.73a3.33,3.33 0 0 1 -3.57,-3.35c0,-2.82 2.51,-4.37 7,-4.34l0,-0.27a2.4,2.4 0 0 0 -2.65,-2.7a5.81,5.81 0 0 0 -3,0.87l-0.48,-1.4a7.19,7.19 0 0 1 3.83,-1c3.57,0 4.44,2.44 4.44,4.78l0,4.37a16,16 0 0 0 0.18,2.78l-1.93,0zm-0.32,-6c-2.31,0 -4.94,0.36 -4.94,2.63a1.87,1.87 0 0 0 2,2a2.9,2.9 0 0 0 2.82,-2a2.32,2.32 0 0 0 0.12,-0.68l0,-1.95z"/>
  <path id="svg_19" fill="#199ab1" d="m121.23,81.94c0,-1.37 0,-2.56 -0.1,-3.64l1.87,0l0.07,2.29l0.1,0a3.5,3.5 0 0 1 3.22,-2.59a2.25,2.25 0 0 1 0.61,0.08l0,2a3.17,3.17 0 0 0 -0.73,-0.07a3,3 0 0 0 -2.84,2.72a5.81,5.81 0 0 0 -0.1,1l0,6.27l-2.1,0l0,-8.06z"/>
  <path id="svg_20" fill="#199ab1" d="m132.26,75l0,3.3l3,0l0,1.62l-3,0l0,6.29c0,1.45 0.41,2.27 1.59,2.27a4.8,4.8 0 0 0 1.23,-0.14l0.1,1.59a5.16,5.16 0 0 1 -1.88,0.29a3,3 0 0 1 -2.29,-0.89a4.31,4.31 0 0 1 -0.82,-3l0,-6.41l-1.82,0l0,-1.62l1.82,0l0,-2.8l2.07,-0.5z"/>
  <path id="svg_21" fill="#199ab1" d="m142.88,73.72l2.12,0l0,14.5l7,0l0,1.78l-9.05,0l-0.07,-16.28z"/>
  <path id="svg_22" fill="#199ab1" d="m160.66,90l-0.17,-1.47l-0.07,0a4.35,4.35 0 0 1 -3.57,1.73a3.33,3.33 0 0 1 -3.57,-3.35c0,-2.82 2.51,-4.37 7,-4.34l0,-0.27a2.4,2.4 0 0 0 -2.65,-2.7a5.81,5.81 0 0 0 -3,0.87l-0.49,-1.4a7.25,7.25 0 0 1 3.86,-1.07c3.57,0 4.44,2.44 4.44,4.78l0,4.37a17,17 0 0 0 0.19,2.8l-1.97,0.05zm-0.31,-6c-2.32,0 -4.95,0.36 -4.95,2.63a1.88,1.88 0 0 0 2,2a2.9,2.9 0 0 0 2.83,-2a2.32,2.32 0 0 0 0.12,-0.68l0,-1.95z"/>
  <path id="svg_23" fill="#199ab1" d="m165.73,90c0.05,-0.8 0.1,-2 0.1,-3l0,-14.15l2.1,0l0,7.33l0,0a4.34,4.34 0 0 1 4.07,-2.18c2.89,0 4.94,2.42 4.92,6c0,4.18 -2.63,6.25 -5.24,6.25a4.16,4.16 0 0 1 -3.91,-2.19l-0.07,0l-0.1,1.93l-1.87,0.01zm2.2,-4.68a4.77,4.77 0 0 0 0.09,0.77a3.27,3.27 0 0 0 3.19,2.48c2.22,0 3.55,-1.81 3.55,-4.48c0,-2.34 -1.21,-4.35 -3.48,-4.35a3.38,3.38 0 0 0 -3.23,2.61a4.06,4.06 0 0 0 -0.12,0.87l0,2.1z"/>
  <path id="svg_24" fill="#199ab1" d="m179.27,87.81a5.58,5.58 0 0 0 2.8,0.84c1.54,0 2.27,-0.77 2.27,-1.74s-0.61,-1.57 -2.17,-2.14c-2.1,-0.75 -3.09,-1.91 -3.09,-3.31c0,-1.88 1.52,-3.43 4,-3.43a5.78,5.78 0 0 1 2.87,0.73l-0.53,1.54a4.57,4.57 0 0 0 -2.39,-0.67c-1.26,0 -2,0.72 -2,1.59s0.7,1.4 2.22,2c2,0.77 3.07,1.78 3.07,3.52c0,2 -1.6,3.5 -4.37,3.5a6.68,6.68 0 0 1 -3.28,-0.8l0.6,-1.63z"/>
  <path id="svg_25" fill="#199ab1" d="m194.31,73.91a23.94,23.94 0 0 1 4,-0.32a6.65,6.65 0 0 1 4.58,1.41a4.34,4.34 0 0 1 1.43,3.4a4.78,4.78 0 0 1 -1.26,3.47a6.75,6.75 0 0 1 -5,1.79a7.28,7.28 0 0 1 -1.69,-0.15l0,6.49l-2.09,0l0.03,-16.09zm2.09,7.84a7.1,7.1 0 0 0 1.74,0.17c2.53,0 4.08,-1.23 4.08,-3.48s-1.52,-3.18 -3.84,-3.18a8.63,8.63 0 0 0 -2,0.17l0.02,6.32z"/>
  <path id="svg_26" fill="#199ab1" d="m206.69,81.94c0,-1.37 0,-2.56 -0.1,-3.64l1.86,0l0.07,2.29l0.09,0a3.52,3.52 0 0 1 3.24,-2.59a2.18,2.18 0 0 1 0.6,0.08l0,2a3.08,3.08 0 0 0 -0.72,-0.07a3,3 0 0 0 -2.85,2.72a5.81,5.81 0 0 0 -0.1,1l0,6.27l-2.09,0l0,-8.06z"/>
  <path id="svg_27" fill="#199ab1" d="m224.9,84c0,4.32 -3,6.2 -5.81,6.2c-3.16,0 -5.6,-2.31 -5.6,-6c0,-3.91 2.56,-6.21 5.79,-6.21s5.62,2.48 5.62,6.01zm-9.26,0.12c0,2.56 1.47,4.49 3.54,4.49s3.55,-1.91 3.55,-4.54c0,-2 -1,-4.48 -3.5,-4.48s-3.59,2.35 -3.59,4.57l0,-0.04z"/>
  <path id="svg_28" fill="#199ab1" d="m237.67,72.85l0,14.15c0,1 0,2.22 0.1,3l-1.91,0l-0.1,-2l0,0a4.34,4.34 0 0 1 -4,2.29c-2.82,0 -5,-2.39 -5,-5.93c0,-3.89 2.39,-6.28 5.24,-6.28a3.91,3.91 0 0 1 3.52,1.79l0.05,0l0,-7l2.1,-0.02zm-2.12,10.2a3.92,3.92 0 0 0 -0.1,-0.89a3.12,3.12 0 0 0 -3.06,-2.46c-2.2,0 -3.5,1.93 -3.5,4.51c0,2.37 1.15,4.32 3.45,4.32a3.19,3.19 0 0 0 3.11,-2.53a3.82,3.82 0 0 0 0.1,-0.92l0,-2.03z"/>
  <path id="svg_29" fill="#199ab1" d="m251,86.79c0,1.21 0,2.27 0.09,3.19l-1.88,0l-0.12,-1.91l-0.09,0a4.38,4.38 0 0 1 -3.86,2.17c-1.83,0 -4,-1 -4,-5.11l0,-6.83l2.12,0l0,6.47c0,2.22 0.68,3.71 2.61,3.71a3,3 0 0 0 3,-3l0,-7.18l2.13,0l0,8.49z"/>
  <path id="svg_30" fill="#199ab1" d="m262.82,89.54a7.85,7.85 0 0 1 -3.36,0.68c-3.52,0 -5.81,-2.39 -5.81,-6a5.93,5.93 0 0 1 6.27,-6.2a7.06,7.06 0 0 1 2.94,0.6l-0.48,1.64a4.9,4.9 0 0 0 -2.46,-0.55c-2.68,0 -4.13,2 -4.13,4.41c0,2.7 1.74,4.37 4.06,4.37a6,6 0 0 0 2.6,-0.58l0.37,1.63z"/>
  <path id="svg_31" fill="#199ab1" d="m268.17,75l0,3.3l3.05,0l0,1.62l-3.05,0l0,6.29c0,1.45 0.41,2.27 1.6,2.27a4.93,4.93 0 0 0 1.23,-0.14l0.09,1.59a5.16,5.16 0 0 1 -1.88,0.29a3,3 0 0 1 -2.29,-0.89a4.35,4.35 0 0 1 -0.82,-3l0,-6.41l-1.81,0l0,-1.62l1.81,0l0,-2.8l2.07,-0.5z"/>
 </g>
</svg>
