<svg width="1093" height="265" viewBox="0 0 1093 265" fill="none" xmlns="http://www.w3.org/2000/svg">
<g opacity="0.1">
<circle cx="2.5" cy="2.5" r="2.5" fill="white"/>
<circle cx="17.5" cy="2.5" r="2.5" fill="white"/>
<circle cx="32.5" cy="2.5" r="2.5" fill="white"/>
<circle cx="47.5" cy="2.5" r="2.5" fill="white"/>
<circle cx="62.5" cy="2.5" r="2.5" fill="white"/>
<circle cx="77.5" cy="2.5" r="2.5" fill="white"/>
<circle cx="92.5" cy="2.5" r="2.5" fill="white"/>
<circle cx="107.5" cy="2.5" r="2.5" fill="white"/>
<circle cx="2.5" cy="17.5" r="2.5" fill="white"/>
<circle cx="17.5" cy="17.5" r="2.5" fill="white"/>
<circle cx="32.5" cy="17.5" r="2.5" fill="white"/>
<circle cx="47.5" cy="17.5" r="2.5" fill="white"/>
<circle cx="62.5" cy="17.5" r="2.5" fill="white"/>
<circle cx="77.5" cy="17.5" r="2.5" fill="white"/>
<circle cx="92.5" cy="17.5" r="2.5" fill="white"/>
<circle cx="107.5" cy="17.5" r="2.5" fill="white"/>
<circle cx="2.5" cy="32.5" r="2.5" fill="white"/>
<circle cx="17.5" cy="32.5" r="2.5" fill="white"/>
<circle cx="32.5" cy="32.5" r="2.5" fill="white"/>
<circle cx="47.5" cy="32.5" r="2.5" fill="white"/>
<circle cx="62.5" cy="32.5" r="2.5" fill="white"/>
<circle cx="77.5" cy="32.5" r="2.5" fill="white"/>
<circle cx="92.5" cy="32.5" r="2.5" fill="white"/>
<circle cx="107.5" cy="32.5" r="2.5" fill="white"/>
<circle cx="2.5" cy="47.5" r="2.5" fill="white"/>
<circle cx="17.5" cy="47.5" r="2.5" fill="white"/>
<circle cx="32.5" cy="47.5" r="2.5" fill="white"/>
<circle cx="47.5" cy="47.5" r="2.5" fill="white"/>
<circle cx="62.5" cy="47.5" r="2.5" fill="white"/>
<circle cx="77.5" cy="47.5" r="2.5" fill="white"/>
<circle cx="92.5" cy="47.5" r="2.5" fill="white"/>
<circle cx="107.5" cy="47.5" r="2.5" fill="white"/>
<circle cx="2.5" cy="62.5" r="2.5" fill="white"/>
<circle cx="17.5" cy="62.5" r="2.5" fill="white"/>
<circle cx="32.5" cy="62.5" r="2.5" fill="white"/>
<circle cx="47.5" cy="62.5" r="2.5" fill="white"/>
<circle cx="62.5" cy="62.5" r="2.5" fill="white"/>
<circle cx="77.5" cy="62.5" r="2.5" fill="white"/>
<circle cx="92.5" cy="62.5" r="2.5" fill="white"/>
<circle cx="107.5" cy="62.5" r="2.5" fill="white"/>
<circle cx="2.5" cy="77.5" r="2.5" fill="white"/>
<circle cx="17.5" cy="77.5" r="2.5" fill="white"/>
<circle cx="32.5" cy="77.5" r="2.5" fill="white"/>
<circle cx="47.5" cy="77.5" r="2.5" fill="white"/>
<circle cx="62.5" cy="77.5" r="2.5" fill="white"/>
<circle cx="77.5" cy="77.5" r="2.5" fill="white"/>
<circle cx="92.5" cy="77.5" r="2.5" fill="white"/>
<circle cx="107.5" cy="77.5" r="2.5" fill="white"/>
<circle cx="2.5" cy="92.5" r="2.5" fill="white"/>
<circle cx="17.5" cy="92.5" r="2.5" fill="white"/>
<circle cx="32.5" cy="92.5" r="2.5" fill="white"/>
<circle cx="47.5" cy="92.5" r="2.5" fill="white"/>
<circle cx="62.5" cy="92.5" r="2.5" fill="white"/>
<circle cx="77.5" cy="92.5" r="2.5" fill="white"/>
<circle cx="92.5" cy="92.5" r="2.5" fill="white"/>
<circle cx="107.5" cy="92.5" r="2.5" fill="white"/>
<circle cx="2.5" cy="107.5" r="2.5" fill="white"/>
<circle cx="17.5" cy="107.5" r="2.5" fill="white"/>
<circle cx="32.5" cy="107.5" r="2.5" fill="white"/>
<circle cx="47.5" cy="107.5" r="2.5" fill="white"/>
<circle cx="62.5" cy="107.5" r="2.5" fill="white"/>
<circle cx="77.5" cy="107.5" r="2.5" fill="white"/>
<circle cx="92.5" cy="107.5" r="2.5" fill="white"/>
<circle cx="107.5" cy="107.5" r="2.5" fill="white"/>
</g>
<g opacity="0.1">
<circle cx="985.5" cy="157.5" r="2.5" fill="white"/>
<circle cx="1000.5" cy="157.5" r="2.5" fill="white"/>
<circle cx="1015.5" cy="157.5" r="2.5" fill="white"/>
<circle cx="1030.5" cy="157.5" r="2.5" fill="white"/>
<circle cx="1045.5" cy="157.5" r="2.5" fill="white"/>
<circle cx="1060.5" cy="157.5" r="2.5" fill="white"/>
<circle cx="1075.5" cy="157.5" r="2.5" fill="white"/>
<circle cx="1090.5" cy="157.5" r="2.5" fill="white"/>
<circle cx="985.5" cy="172.5" r="2.5" fill="white"/>
<circle cx="1000.5" cy="172.5" r="2.5" fill="white"/>
<circle cx="1015.5" cy="172.5" r="2.5" fill="white"/>
<circle cx="1030.5" cy="172.5" r="2.5" fill="white"/>
<circle cx="1045.5" cy="172.5" r="2.5" fill="white"/>
<circle cx="1060.5" cy="172.5" r="2.5" fill="white"/>
<circle cx="1075.5" cy="172.5" r="2.5" fill="white"/>
<circle cx="1090.5" cy="172.5" r="2.5" fill="white"/>
<circle cx="985.5" cy="187.5" r="2.5" fill="white"/>
<circle cx="1000.5" cy="187.5" r="2.5" fill="white"/>
<circle cx="1015.5" cy="187.5" r="2.5" fill="white"/>
<circle cx="1030.5" cy="187.5" r="2.5" fill="white"/>
<circle cx="1045.5" cy="187.5" r="2.5" fill="white"/>
<circle cx="1060.5" cy="187.5" r="2.5" fill="white"/>
<circle cx="1075.5" cy="187.5" r="2.5" fill="white"/>
<circle cx="1090.5" cy="187.5" r="2.5" fill="white"/>
<circle cx="985.5" cy="202.5" r="2.5" fill="white"/>
<circle cx="1000.5" cy="202.5" r="2.5" fill="white"/>
<circle cx="1015.5" cy="202.5" r="2.5" fill="white"/>
<circle cx="1030.5" cy="202.5" r="2.5" fill="white"/>
<circle cx="1045.5" cy="202.5" r="2.5" fill="white"/>
<circle cx="1060.5" cy="202.5" r="2.5" fill="white"/>
<circle cx="1075.5" cy="202.5" r="2.5" fill="white"/>
<circle cx="1090.5" cy="202.5" r="2.5" fill="white"/>
<circle cx="985.5" cy="217.5" r="2.5" fill="white"/>
<circle cx="1000.5" cy="217.5" r="2.5" fill="white"/>
<circle cx="1015.5" cy="217.5" r="2.5" fill="white"/>
<circle cx="1030.5" cy="217.5" r="2.5" fill="white"/>
<circle cx="1045.5" cy="217.5" r="2.5" fill="white"/>
<circle cx="1060.5" cy="217.5" r="2.5" fill="white"/>
<circle cx="1075.5" cy="217.5" r="2.5" fill="white"/>
<circle cx="1090.5" cy="217.5" r="2.5" fill="white"/>
<circle cx="985.5" cy="232.5" r="2.5" fill="white"/>
<circle cx="1000.5" cy="232.5" r="2.5" fill="white"/>
<circle cx="1015.5" cy="232.5" r="2.5" fill="white"/>
<circle cx="1030.5" cy="232.5" r="2.5" fill="white"/>
<circle cx="1045.5" cy="232.5" r="2.5" fill="white"/>
<circle cx="1060.5" cy="232.5" r="2.5" fill="white"/>
<circle cx="1075.5" cy="232.5" r="2.5" fill="white"/>
<circle cx="1090.5" cy="232.5" r="2.5" fill="white"/>
<circle cx="985.5" cy="247.5" r="2.5" fill="white"/>
<circle cx="1000.5" cy="247.5" r="2.5" fill="white"/>
<circle cx="1015.5" cy="247.5" r="2.5" fill="white"/>
<circle cx="1030.5" cy="247.5" r="2.5" fill="white"/>
<circle cx="1045.5" cy="247.5" r="2.5" fill="white"/>
<circle cx="1060.5" cy="247.5" r="2.5" fill="white"/>
<circle cx="1075.5" cy="247.5" r="2.5" fill="white"/>
<circle cx="1090.5" cy="247.5" r="2.5" fill="white"/>
<circle cx="985.5" cy="262.5" r="2.5" fill="white"/>
<circle cx="1000.5" cy="262.5" r="2.5" fill="white"/>
<circle cx="1015.5" cy="262.5" r="2.5" fill="white"/>
<circle cx="1030.5" cy="262.5" r="2.5" fill="white"/>
<circle cx="1045.5" cy="262.5" r="2.5" fill="white"/>
<circle cx="1060.5" cy="262.5" r="2.5" fill="white"/>
<circle cx="1075.5" cy="262.5" r="2.5" fill="white"/>
<circle cx="1090.5" cy="262.5" r="2.5" fill="white"/>
</g>
</svg>
