<svg width="449" height="356" viewBox="0 0 449 356" fill="none" xmlns="http://www.w3.org/2000/svg">
<path fill-rule="evenodd" clip-rule="evenodd" d="M148.768 131.141C152.623 138.663 156.695 145.986 160.808 153.371C162.985 157.281 170.006 173.451 171.819 174.069C173.772 174.734 185.733 167.714 189.166 166.339C195.267 163.895 201.063 161.581 207.436 160.074C214.571 158.386 221.763 157.142 229.164 157.769C232.406 158.045 237.771 158.827 234.549 154.282C232.201 150.967 229.926 147.915 226.736 145.521C224.414 143.778 221.011 140.581 218.293 139.417C215.441 138.195 211.234 138.466 208.169 138.538C204.856 138.616 189.062 143.534 188.194 138.408C186.583 139.871 185.645 139.305 183.799 140.019C181.718 140.825 180.421 142.388 178.355 143.332C177.015 143.945 174.544 146.367 173.054 146.381C171.074 146.401 170.54 144.764 169.118 143.555C165.931 140.847 161.688 139.065 158.23 136.712C155.185 134.64 152.286 132.48 148.768 131.141ZM183.465 71.6797C183.736 75.1138 182.808 78.3047 182.83 81.8381C182.839 83.3801 182.91 84.9214 182.441 86.407C182.019 87.7387 182.314 90.1311 182.09 91.5255C186.031 90.328 193.353 88.5521 197.377 90.1669C201.224 91.7107 201.708 98.8495 201.844 102.322C201.936 104.688 200.884 108.334 201.681 110.599C202.053 111.656 202.057 111.997 202.033 112.092L202.03 112.103C202.106 112.063 202.415 112.064 203.504 112.849C204.585 113.626 205.874 114.054 206.941 114.912C208.882 116.475 209.215 118.246 210.172 120.511C211.103 122.711 213.581 124.667 216.348 124.587C214.124 120.564 211.036 116.806 212.808 112.081C214.145 108.515 211.802 104.329 209.958 100.942C209.348 99.8195 202.582 91.2233 205.58 90.6173C207.527 90.2234 211.995 99.3484 212.85 100.942C215.235 99.3325 216.306 97.3494 214.47 94.926C213.061 93.0649 211.33 91.4736 209.958 89.5466C207.73 86.419 205.559 82.6861 202.914 79.908C198.267 75.0302 190.156 71.7094 183.465 71.6797ZM202.03 112.103C202.004 112.12 202.015 112.138 202.027 112.111L202.03 112.103ZM121.019 66.35C118.05 69.189 114.294 71.5439 111.425 74.5232C108.913 77.1316 105.531 81.5188 104.338 85.0033C110.46 86.181 120.633 89.7883 123.071 96.201C132.592 87.4771 136.276 103.426 138.165 110.095C143.738 107.689 142.627 99.6765 142.553 94.9985C142.495 91.2876 140.231 86.8954 145.63 86.5913C149.664 86.365 153.582 88.0048 157.221 89.5403C161.761 91.4564 166.524 94.3229 170.191 97.6152L174.012 94.6464C167.744 91.1341 164.477 84.4186 160.808 78.2695C159.637 76.3092 158.074 74.1293 157.221 72.0102C156.63 70.5449 156.215 67.5871 155.567 66.2842C154.549 64.236 144.604 63.6721 141.97 63.1443C135.015 61.751 126.703 60.9159 121.019 66.35Z" fill="#2BA9C0"/>
<path fill-rule="evenodd" clip-rule="evenodd" d="M122.605 111.866C120.036 111.735 117.478 112.308 114.909 112.058C117.14 110.119 119.37 108.181 121.6 106.242C122.586 107.969 122.657 109.933 122.605 111.866ZM183.553 72.0082C190.202 72.0373 198.313 75.3707 202.932 80.239C205.379 82.8192 207.401 86.2837 209.471 89.1825C210.859 91.1273 212.215 93.0043 213.9 94.7134C216.358 97.2043 215.654 97.7738 212.886 99.6495C212.009 98.0107 207.363 89.249 205.416 89.6431C202.457 90.2423 208.172 99.4975 208.796 100.65C210.644 104.062 213.629 108.827 212.288 112.424C210.518 117.174 213.084 119.88 215.312 123.927C212.973 123.995 212.742 123.084 211.936 121.092C210.9 118.532 209.77 116.394 207.58 114.624C205.884 113.254 203.11 112.676 202.313 111.022C201.328 108.976 201.946 104.937 201.866 102.662C201.745 99.2042 201.736 91.0304 197.918 89.4942C193.919 87.8845 186.727 89.4017 182.817 90.5939C183.306 87.5469 184.845 85.5565 184.824 82.1705C184.802 78.6262 183.824 75.4638 183.553 72.0082ZM234.635 128.555C231.156 127.456 227.859 126.298 224.28 125.549C220.536 124.765 220.285 123.868 218.174 120.662C216.574 118.233 214.632 116.339 215.086 113.363C215.377 111.454 216.424 110.525 216.109 108.378C215.914 107.048 215.291 105.595 214.842 104.33C214.291 102.778 213.148 101.018 215.804 100.941C217.271 100.899 217.343 101.671 218.335 102.968C220.167 105.363 222.275 107.538 224.225 109.835C227.61 113.823 231.2 118.067 234.979 121.759C239.14 125.821 242.73 130.72 245.419 135.92C245.916 136.881 248.936 142.537 247.647 143.646C246.465 144.665 239.884 142.289 238.684 142.011C233.506 140.811 227.627 140.383 222.734 138.204C220.242 137.093 214.74 135.768 212.771 134.05C210.941 132.453 211.023 128.584 212.086 126.333C215.058 128.179 236.551 135.144 234.635 128.555ZM169.928 96.8103C166.458 93.6815 162.355 91.1717 158.07 89.3118C154.237 87.6482 149.475 85.794 145.211 86.0829C139.898 86.4421 142.118 90.7136 142.137 94.3511C142.162 99.1776 144.281 106.131 138.507 108.635C136.622 101.952 132.649 86.1481 123.131 94.9054C120.698 88.4794 112.023 86.3046 105.914 85.1244C107.022 81.8778 110.385 78.9391 112.716 76.5021C115.632 73.4538 117.935 69.881 120.856 66.8903C126.628 60.9843 137.083 62.881 144.391 64.3532C146.829 64.8441 153.9 65.4612 155.082 67.2488C155.823 68.3701 155.409 71.1093 155.958 72.4801C156.715 74.3692 158.008 76.1201 159.045 77.8647C162.83 84.2306 166.681 90.6376 173.158 94.2827L169.928 96.8103ZM148.748 131.105C152.174 132.418 154.695 134.612 157.735 136.46C161.42 138.701 165.742 140.799 169.049 143.567C170.259 144.579 170.939 146.328 172.61 146.441C174.063 146.54 176.277 144.855 177.565 144.266C179.726 143.276 181.79 141.776 183.962 140.894C185.746 140.168 186.536 140.317 188.08 138.906C188.947 144.052 204.704 139.242 208.009 139.164C211.067 139.091 215.263 139.453 218.109 140.68C220.821 141.848 222.941 144.421 225.262 146.174C228.444 148.577 231.48 151.008 233.823 154.335C237.037 158.897 232.188 157.606 228.954 157.33C221.573 156.7 214.393 158.455 207.277 160.148C200.917 161.662 194.635 163.477 188.547 165.931C185.122 167.312 181.518 168.581 178.298 170.375C176.6 171.321 173.846 173.637 171.898 172.969C170.111 172.357 168.331 167.246 167.248 165.204C165.144 161.241 162.931 157.345 160.759 153.42C156.657 146.007 152.593 138.656 148.748 131.105ZM190.917 229.217C188.805 228.006 185.362 228.333 183.027 227.825C180.388 227.252 177.734 226.318 175.218 225.344C172.67 224.359 170.262 223.35 167.934 222.117C166.869 221.553 165.45 220.997 164.466 220.215C163.673 219.584 163.384 218.412 162.652 217.84C160.745 216.347 160.184 217.284 159.928 214.404C159.651 211.275 161.41 209.503 163.599 207.162C165.559 205.066 168.105 203.255 170.568 201.781C171.658 201.129 172.822 200.395 173.934 199.773C175.616 198.831 177.87 197.264 178.752 199.287C176.914 199.755 176.509 202.098 178.168 202.94C179.079 203.402 180.458 202.723 181.486 203.215C183.072 203.974 184.598 206.092 185.955 207.232C190.411 210.976 194.673 212.38 200.506 212.681C212.693 213.308 225.456 211.921 237.409 210.118C240.485 209.654 243.556 210.157 246.661 210.046C249.682 209.938 252.832 209.279 255.802 208.769C261.522 207.789 267.552 206.982 273.183 205.539C279.994 203.793 286.828 201.536 293.222 198.612C299.356 195.807 306.288 191.172 313.177 190.815C310.237 193.688 305.832 194.795 302.296 196.687C299.406 198.233 294.886 199.225 293.06 201.773C291.871 203.43 291.275 206.476 290.377 208.42C289.384 210.571 288.468 212.756 287.549 214.94C286.625 217.137 285.663 219.335 284.914 221.598C284.449 223.002 284.249 225.912 283.153 226.872C281.404 228.404 275.549 229.084 273.191 229.593C268.789 230.545 263.769 230.419 259.279 230.484C257.424 230.512 255.554 230.764 253.781 230.799C251.291 230.846 251.529 230.416 251.564 228.259C251.585 226.964 251.559 224.608 249.823 225.674C248.64 226.402 249.454 229.622 249.673 230.766C239.763 231.751 229.424 232.246 219.561 231.917C209.861 231.592 200.498 230.344 190.917 229.217ZM146.163 206.513C144.415 193.981 142.284 181.239 139.899 168.869C137.489 156.37 134.591 143.983 131.331 131.53C133.484 131.016 135.637 130.503 137.79 129.989C137.87 132.613 138.759 134.892 139.138 137.504C139.661 141.109 140.661 144.61 141.26 148.203C142.397 155.033 144.505 161.716 146.361 168.377C148.254 175.167 148.886 182.162 150.625 188.987C152.058 194.609 152.79 200.802 153.59 206.582C155.531 220.604 158.297 234.653 160.402 248.683C162.376 261.835 162.574 275.256 162.46 288.532C162.39 296.637 161.151 304.719 161.216 312.835C161.232 314.841 161.063 316.841 160.958 318.844C160.885 320.258 161.645 324.175 161 325.359C160.592 326.109 158.838 326.8 158.217 327.841C157.234 329.487 157.027 331.455 155.45 332.701C154.171 327.553 154.775 320.758 155.055 315.504C155.325 310.442 154.8 305.21 154.696 300.07C154.495 289.987 153.959 280.051 153.441 269.963C152.874 258.9 151.259 247.568 149.682 236.587C148.247 226.604 147.29 216.443 146.163 206.513ZM192.966 49.3498C193.659 49.2852 194.353 49.2212 195.046 49.1566C194.942 50.6149 195.251 52.9765 194.221 53.7373C193.441 54.3138 191.86 54.1244 190.914 54.3087C187.813 54.9137 184.219 55.4198 181.141 54.3176C179.945 53.8893 180.713 53.2185 179.066 53.4972C177.082 53.8336 177.806 54.1472 177.234 55.3825C176.792 56.3358 176.565 57.9582 176.064 59.1029C175.393 60.6347 174.035 63.3757 174.616 65.1444C175.18 66.8637 177.287 67.3831 178.182 69.3305C178.848 70.778 178.691 72.8824 179.037 74.4769C179.498 76.6035 180.082 78.7218 180.34 80.8877C180.664 83.6161 180.553 86.8177 177.166 87.2409C174.022 87.6343 171.774 86.6258 169.666 84.3408C165.64 79.9787 161.043 73.8206 158.678 68.3334C158.401 67.6923 157.721 66.6223 157.816 65.9363C158.003 64.5787 158.085 65.9527 158.516 65.0101C158.928 64.1087 159.574 63.2908 159.953 62.2906C161.319 58.6968 162.287 54.9301 162.835 51.1261C163.083 49.403 163.166 47.7009 163.124 45.9607C163.11 45.3665 162.752 43.5826 162.966 43.1759C163.183 42.7635 164.315 42.5734 164.668 42.1642C165.323 41.4059 166.448 39.2648 167.173 38.6972C168.065 37.9997 170.06 38.5521 170.423 37.1648C171.003 34.9444 157.284 31.3279 163.693 28.3651C168.478 26.153 175.818 37.3352 177.491 28.5361C177.781 27.012 177.228 24.943 177.898 23.5462C178.639 22.0024 180.654 21.4253 182.062 20.674C183.858 19.7162 185.673 18.7317 187.418 17.6827C188.616 16.9637 190.341 15.0544 191.615 14.8795C191.114 17.4711 192.076 20.0399 192.091 22.6264C189.331 21.8808 187.431 21.8649 184.706 23.1908C183.408 23.8217 178.519 27.4028 180.996 29.1253C183.003 27.9413 185.15 26.9144 187.387 26.2182C188.27 25.9433 189.371 25.5695 190.31 25.5505C192.488 25.5068 192.182 25.7342 192.999 27.3737C193.788 28.953 193.619 33.0718 195.349 34.0804C197.139 35.1231 195.759 33.6635 197.287 34.0005C198.159 34.1931 199.109 34.8399 199.907 35.2054C198.814 36.39 196.607 37.4714 195.882 38.7871C194.824 40.7053 195.191 44.6728 195.025 46.7715C193.64 46.2768 192.182 46.2565 190.778 45.8891C189.459 45.5432 187.629 44.0463 187.491 46.247C187.338 48.6992 191.222 49.3498 192.966 49.3498ZM174.941 113.913C174.833 111.794 174.715 109.676 174.479 107.566C174.32 106.148 172.972 102.038 173.734 100.794C174.562 99.4399 177.34 99.3537 178.676 99.0287C181.238 98.4054 183.695 97.8948 186.299 97.483C188.694 97.1048 190.951 97.025 193.365 96.9154C195.993 96.797 196.644 96.1008 197.225 98.9914C197.682 101.264 198.294 103.632 198.379 105.959C198.459 108.143 197.798 110.039 199.967 111.511C195.205 111.511 189.002 107.279 184.656 111.064C178.439 116.475 189.258 118.034 192.111 119.229C189.739 120.38 186.218 121.283 185.102 123.911C183.849 126.856 185.667 128.108 188.449 128.344C188.187 129.479 187.186 130.216 186.887 131.581C186.451 133.583 187.868 132.92 186.059 134.468C183.678 136.506 178.776 137.869 175.856 139.167C175.172 139.472 174.48 139.758 173.781 140.026C172.687 140.998 171.879 140.813 171.357 139.471C169.859 138.524 168.526 136.413 167.197 135.185C164.24 132.452 160.977 130.054 157.464 128.08C158.921 127.478 160.663 128.838 162.06 128.177C163.19 127.641 162.764 126.668 163.44 125.938C163.169 124.988 163.456 124.64 164.3 124.895C164.721 124.94 165.114 124.868 165.477 124.682C166.183 123.807 166.501 123.521 166.548 122.171C166.597 120.739 165.766 120.233 165.448 119.087C164.411 118.382 164.434 117.689 165.518 117.009C165.964 116.282 166.207 115.494 166.247 114.643C166.453 111.484 163.564 110.21 161.361 108.539C165.306 108.107 165.155 103.488 162.426 101.47C159.596 99.3765 153.606 100.234 150.184 100.706C149.473 100.803 147.551 101.719 146.831 101.135C146.39 100.777 146.702 97.751 146.681 97.217C146.635 96.0045 146.34 94.5589 146.534 93.3527C146.939 90.827 146.08 92.0991 147.902 92.0288C152.237 91.8609 157.758 95.6383 161.572 97.4191C165.842 99.4126 168.585 99.7192 168.63 104.662C168.672 109.342 169.987 114.005 170.561 118.61C170.812 120.622 170.991 131.071 174.68 127.215C176.11 125.719 175.193 123.419 175.087 121.574C174.943 119.036 175.028 116.458 174.941 113.913ZM413.444 270.574C411.334 270.948 407.896 269.739 405.594 269.612C401.567 269.391 397.421 269.008 393.477 268.172C390.391 267.518 386.874 266.942 385.21 263.961C383.723 261.296 383.197 257.96 382.396 255.052C381.97 253.508 380.872 251.27 380.872 249.673C380.872 247.596 381.153 248.005 383.323 246.869C386.069 245.431 388.741 243.427 391.703 242.611C392.599 242.436 393.495 242.265 394.392 242.097C395.553 241.425 396.208 241.756 396.36 243.088C397.493 244.28 398.157 246.477 399.108 247.872C401.275 251.05 403.848 253.217 407.21 255.05C413.26 258.348 418.897 260.894 425.377 263.05C428.948 264.238 432.241 265.906 435.731 267.216C438.527 268.265 442.387 268.585 444.535 270.921C446.958 273.557 443.233 274.515 441.162 276.297C439.466 277.757 439.433 278.093 437.112 277.384C435.383 276.855 433.85 275.846 432.19 275.161C426.503 272.816 419.619 271.256 413.444 270.574ZM283.466 312.384C285.585 311.926 287.705 311.469 289.825 311.012C287.74 314.896 283.356 320.579 286.503 325.074C287.679 326.753 289.635 327.232 291.382 328.084C293.497 329.116 295.45 330.437 297.449 331.665C305.694 336.732 314.073 341.87 322.761 346.218C320.041 347.094 315.859 347.7 313.059 346.937C309.797 346.047 306.777 344.006 303.428 343.114C297.421 341.514 291.097 340.151 284.994 339.33C280.005 338.659 267.518 340.175 268.124 332.687C268.7 325.577 272.955 318.794 274.221 311.766C277.328 312.454 280.292 312.334 283.466 312.384ZM157.125 198.592C154.709 186.757 153.265 174.722 150.416 162.972C148.994 157.11 147.992 151.168 146.603 145.305C145.957 142.577 145.469 139.823 144.839 137.1C144.202 134.344 142.83 131.8 142.517 128.951C144.826 129.521 145.359 134.798 146.059 136.784C147.343 140.426 148.743 143.926 150.393 147.413C153.015 152.956 155.797 158.304 158.756 163.678C161.875 169.346 165.169 174.798 169.066 179.974C170.346 181.675 172.083 183.008 172.909 184.873C174.207 187.808 174.752 191.306 175.992 194.36C175.118 194.802 172.864 194.913 171.793 195.124C169.802 195.516 168.407 195.864 166.495 196.809C163.125 198.474 160.295 200.447 158.044 203.442C157.478 201.905 157.331 200.219 157.125 198.592ZM251.031 288.888C251.071 277.49 251.233 265.995 251.046 254.682C250.994 251.54 250.738 248.151 250.281 245.034C249.995 243.074 248.308 238.909 249.417 237.97C250.364 237.166 255.365 237.695 256.593 237.667C258.973 237.612 261.346 237.506 263.731 237.327C263.731 241.551 262.077 246.348 261.309 250.527C260.593 254.424 260.004 258.344 259.413 262.259C258.134 270.738 257.77 279.335 256.381 287.837C255.122 295.546 253.462 303.222 252.546 310.93C252.044 315.161 251.027 319.152 250.237 323.381C249.825 325.586 248.32 334.668 246.426 335.561C246.025 332.303 247.661 328.369 247.955 325.075C248.257 321.674 248.491 318.25 249.044 314.831C249.693 310.817 250.02 306.704 250.269 302.641C250.421 300.154 250.467 297.675 250.683 295.191C250.838 293.388 251.522 290.656 251.031 288.888ZM191.518 136.476C191.439 135.235 194.658 135.285 195.257 133.858C196.473 130.961 193.702 131.483 191.997 131.183C192.605 129.572 203.983 130.159 201.332 125.81C199.493 122.793 192.52 127.411 190.656 124.543C189.432 122.66 192.765 122.401 194.087 122.212C196.076 121.928 200.763 122.847 200.609 120.271C200.414 117.034 191.303 114.799 188.748 113.848C189.031 111.632 199.997 114.783 201.583 115.681C205.175 117.715 207.927 121.364 208.454 125.42C209.068 130.138 206.671 133.854 201.949 135.012C199.98 135.495 198.524 135.549 196.703 136.275C195.504 136.752 191.624 137.942 190.803 136.738C191.041 136.651 191.279 136.563 191.518 136.476ZM127.145 107.126C126.964 105.111 125.264 101.317 127.222 99.9935C129.962 98.1406 131.098 101.194 131.719 103.028C132.478 105.267 135.67 110.749 132.879 112.144C132.23 112.469 129.153 112.091 128.61 111.877C127.098 112.27 126.611 111.705 127.145 110.181V107.126ZM194.021 269.855C194.193 264.348 191.723 257.727 190.323 252.333C188.735 246.221 187.899 239.987 186.217 233.943C188.088 234.168 189.976 234.351 191.824 234.726C194.346 235.237 194.391 235.156 194.21 237.625C193.939 241.332 194.294 244.967 194.485 248.673C194.869 256.093 193.933 263.635 194.556 271.008C194.001 271.149 193.823 270.764 194.021 269.855ZM124.208 125.516C118.15 126.441 112.344 128.358 106.831 130.934C103.792 132.354 100.445 133.879 97.0496 134.446C93.2767 135.076 89.2759 134.781 85.423 135.024C84.0648 135.109 80.4944 135.768 79.17 134.971C77.8581 134.181 77.961 132.842 77.8994 131.246C77.74 127.142 79.6017 123.123 81.2755 119.441C82.7111 116.282 83.7968 113.869 86.0249 111.152C88.886 107.661 91.3776 103.895 94.0571 100.251C96.0775 97.5052 98.1189 94.7983 100.178 92.0554C101.651 90.0916 101.581 89.4156 103.802 89.6355C105.988 89.8521 108.189 91.1419 110.248 91.8254C113.305 92.8402 117.006 93.3971 119.794 95.0194C121.596 96.0685 121.676 96.2617 121.655 98.0924C121.636 99.7978 121.085 101.878 120.063 103.212C117.94 105.981 114.42 107.447 111.4 108.829C109.652 109.628 108.142 110.761 106.587 111.863C104.911 113.051 101.53 113.751 100.247 115.106C96.5137 119.051 103.31 118.271 105.209 118.152C109.307 117.894 113.383 117.934 117.512 117.931C122.018 117.927 126.488 117.718 130.931 117.865C133.533 117.95 136.518 116.633 138.204 114.438C139.02 113.374 139.338 112.369 140.406 111.265C141.804 109.82 143.021 108.298 144.723 107.18C147.507 105.35 152.566 104.315 155.881 104.998C154.694 105.163 149.112 107.06 151.569 109.444C151.868 109.734 155.459 109.924 156.239 110.282C157.648 110.927 159.423 111.866 160.249 113.229C157.844 112.827 148.923 112.361 153.474 116.967C154.591 118.098 157.798 119.226 155.069 120.428C154.443 120.705 153.188 120.314 152.381 120.563C151.181 120.933 150.201 121.925 149.077 122.453C145.89 123.954 141.496 124.879 138.17 124.55C133.57 124.095 128.777 124.915 124.208 125.516ZM246.188 264.304C246.031 270.921 246.27 277.577 246.129 284.224C245.977 291.323 245.065 298.28 244.63 305.307C244.24 311.605 243.388 317.783 242.695 324.052C242.297 327.662 241.838 331.114 241.226 334.697C240.653 338.05 240.555 341.005 244.571 341.906C252.25 343.631 253.443 332.606 254.927 327.96C257.142 321.027 258.562 313.749 259.66 306.562C261.703 293.178 264.42 279.979 265.481 266.481C266.133 258.169 267.08 249.942 267.617 241.638C267.723 240.01 267.307 237.503 268.739 236.778C269.6 236.343 271.972 236.339 273.059 236.024C276.088 235.144 278.881 233.85 281.837 232.506C279.739 243.451 279.047 254.342 277.473 265.383C276.639 271.241 275.041 277.312 273.657 283.079C272.223 289.054 271.904 295.487 270.249 301.332C269.52 303.909 268.903 304.959 269.961 307.603C271.259 310.849 270.398 311.625 268.77 314.813C265.777 320.678 263.492 327.599 263.999 334.211C264.413 339.611 268.501 342.437 273.565 343.894C279.899 345.716 286.532 345.501 292.904 347.57C298.456 349.372 304.097 350.704 309.489 353.083C311.663 354.042 313.728 355.18 316.142 355.356C319.453 355.597 321.686 353.679 324.813 353.279C326.767 353.03 329.629 353.961 330.755 351.916C331.647 350.295 330.637 346.758 329.517 345.453C326.369 341.785 320.066 338.59 315.821 336.426C310.929 333.932 306.195 330.81 301.662 327.592C298.915 325.64 296.113 323.767 293.367 321.812C291.551 320.518 290.861 320.51 291.047 318.454C291.195 316.815 291.935 315.225 292.064 313.546C292.163 312.26 291.712 310.507 292.321 309.668C292.769 309.049 294.45 308.612 295.111 308.144C297.528 306.433 298.077 304.317 299.175 301.716C301.669 295.807 304.534 290.063 306.941 284.107C312.111 271.317 315.266 257.869 319.552 244.819C323.93 231.486 327.845 217.489 330.257 203.657C333.484 204.637 336.529 208.973 339.099 211.119C342.571 214.019 346.128 216.823 349.532 219.803C355.113 224.687 360.763 229.437 365.375 235.286C367.597 238.103 369.416 241.135 371.427 244.094C372.589 245.804 373.673 247.739 374.931 249.366C375.133 249.627 375.139 250.163 375.356 250.385C375.836 250.874 376.751 250.223 377.058 250.545C378.954 252.524 378.929 258.143 379.52 260.754C380.334 264.353 381.249 268.491 384.064 270.971C388.413 274.802 396.433 275.395 401.937 275.594C409 275.849 415.852 277.814 422.553 279.924C425.679 280.908 428.723 282.059 431.86 283.014C433.665 283.565 435.723 284.661 437.651 284.45C439.974 284.196 441.809 282.244 443.512 280.794C446.235 278.473 448.756 276.186 448.669 272.379C448.57 268.348 446.383 265.306 442.937 263.305C436.275 259.434 428.824 256.953 421.643 254.279C418.891 253.253 416.536 252.119 413.904 250.738C410.187 248.787 405.907 247.194 402.609 244.619C401.636 243.859 398.062 241.53 397.757 240.329C397.717 240.172 398.61 238.338 398.614 238.048C398.623 237.299 398.179 236.489 397.906 235.849C396.188 231.817 393.306 227.935 391.103 224.134C387.068 217.171 383.017 210.171 378.339 203.622C369.01 190.565 358.531 177.781 347.22 166.383C341.706 160.827 336.942 154.524 331.35 149.045C329.135 146.874 326.796 145.107 324.067 143.698C321.024 142.128 317.609 141.82 314.121 141.34C305.669 140.179 298.611 142.674 290.676 144.846C283.174 146.898 275.665 148.63 268.122 150.768C259.837 153.115 251.638 155.367 243.38 157.926C238.968 159.293 234.428 160.132 229.995 161.444C227.86 162.075 219.79 166.031 218.01 164.732C223.617 162.106 229.361 159.712 235.359 158.128C237.126 157.661 238.254 158.178 238.189 156.153C238.152 155.049 236.909 153.558 236.461 152.649C235.39 150.473 234.176 148.347 233.127 146.164C236.93 147.242 247.152 150.972 250.017 147.116C253.016 143.08 250.512 135.167 248.633 131.215C243.727 120.9 235.382 112.291 227.251 104.515C225.493 102.834 221.701 100.638 220.764 98.4972C220.479 97.846 221.099 96.8895 220.456 96.0438C220.074 95.5408 218.538 95.1968 217.924 94.6545C215.688 92.6793 213.905 88.5231 212.36 85.9334C210.742 83.2215 209.284 80.2846 207.251 77.8514C203.926 73.8725 200.493 69.6548 195.108 68.7242C192.467 68.2681 189.661 68.5114 187.131 67.6011C184.069 66.5001 181.161 64.7656 178.07 63.6253C178.837 62.0518 179.458 59.5495 180.946 59.3778C182.379 59.2119 184.48 60.4408 186.119 60.4319C188.513 60.4186 190.557 60.0366 192.868 59.5812C195.426 59.0763 196.268 59.1681 197.2 56.3992C198.178 53.4985 197.932 50.1296 197.924 47.1168C197.92 45.6446 197.627 43.817 197.753 42.372C197.941 40.1947 198.365 40.1111 200.075 38.7263C202.212 36.9963 204.846 34.7069 202.229 31.701C200.814 30.0767 197.908 31.3399 196.656 29.5947C195.38 27.8171 195.441 23.3517 195.053 21.2638C198.986 23.1933 197.544 15.9799 197.544 14.2441C197.545 11.7184 199.241 7.17638 196.8 5.07512C195.665 4.09955 194.822 4.90661 193.525 4.34598C192.045 3.70616 191.113 2.02807 189.538 1.37748C186.409 0.0839117 183.213 1.64164 179.999 1.38445C176.314 1.08988 172.693 0.521014 168.987 1.11142C167.23 1.39015 166.491 2.05594 165.006 2.80218C163.577 3.51992 162.127 3.7163 160.576 4.17811C159.194 4.58924 157.984 4.79702 157.051 5.9981C156.313 6.94832 156.613 8.5466 155.869 9.36569C155.134 10.1727 153.681 10.0556 152.805 11.014C151.964 11.9338 151.461 13.4542 151.025 14.5989C150.434 16.1408 150.365 16.7198 149.325 17.9538C148.419 19.0307 147.115 19.8967 146.358 21.125C144.577 24.0207 144.531 28.208 145.1 31.4653C145.293 32.5746 146.904 35.4417 146.652 36.3856C146.412 37.2839 144.901 37.0476 144.217 37.6158C143.626 38.1068 143.106 40.2942 142.64 40.4278C141.633 40.7161 140.391 38.7314 139.628 38.4336C138.302 37.9161 137.747 37.3852 137.012 39.3357C136.468 40.7832 137.226 42.7477 137.626 44.1293C138.134 45.8878 138.695 48.0056 140.041 49.3352C141.623 50.8987 142.89 50.0441 144.636 50.886C147.253 52.1479 146.481 56.0932 149.701 57.2208C152.769 58.2952 156.149 54.9149 158.47 53.361C157.989 57.1334 156.18 60.7683 157.048 64.6345C149.991 61.875 143.012 57.9588 135.321 57.096C131.4 56.6558 127.439 56.1344 123.737 57.7593C119.404 59.661 116.749 63.8559 113.816 67.3413C108.304 73.8922 102.649 80.2593 97.3582 87.0211C92.5059 93.2235 88.4149 100.41 83.0736 106.218C77.6581 112.108 73.5709 121.663 74.1639 129.818C74.2173 130.555 74.7888 132.227 74.6992 133.021C74.6294 133.629 74.0757 134.4 74.0845 134.89C74.1144 136.54 74.6611 137.491 76.2371 138.406C78.9693 139.994 83.0406 140.798 86.1284 141.192C90.2309 141.716 95.2552 141.772 99.3596 141.213C103.593 140.635 107.314 138.27 111.207 136.841C114.621 135.587 118.051 134.804 121.639 134.004C123.618 133.562 125.809 132.34 127.032 133.523C128.155 134.61 128.388 140.187 128.65 141.67C131.489 157.744 134.862 173.273 137.851 189.266C141.237 207.392 143.552 225.512 145.907 243.792C148.048 260.409 148.748 277.214 149.226 293.816C149.455 301.735 149.488 309.569 149.44 317.495C149.412 321.933 147.189 336.749 153.781 337.316C157.655 337.65 160.755 332.106 161.793 329.083C163.352 324.541 164.164 319.65 164.413 314.879C164.916 305.22 165.576 295.553 165.966 285.89C166.389 275.421 165.851 264.759 164.989 254.324C164.121 243.82 161.934 233.469 161.264 222.949C163.276 225.814 163.92 226.353 167.271 227.601C170.778 228.908 174.151 230.453 177.69 231.672C178.894 232.086 180.773 232.346 181.759 233.024C183.581 234.276 182.384 232.856 182.966 235.292C183.587 237.895 183.704 241.02 183.869 243.694C184.644 256.247 188.128 268.71 189.735 281.196C190.123 284.211 189.569 297.008 194.768 292.975C198.771 289.869 198.692 280.113 199.261 275.543C200.02 269.451 199.597 263.188 199.477 257.06C199.341 250.08 199.223 242.759 197.555 235.944C200.54 235.434 204.693 236.824 207.698 237.057C210.3 237.26 212.893 237.388 215.481 237.53C221.651 237.868 228.007 238.138 234.282 238.017C235.424 237.995 242.887 236.952 243.84 237.793C244.15 238.066 244.245 241.821 244.302 242.28C244.522 244.006 244.82 245.729 245.042 247.445C245.751 252.931 246.391 258.821 246.188 264.304Z" fill="#3C3F59"/>
<path fill-rule="evenodd" clip-rule="evenodd" d="M135.365 316.436C130.656 318.273 125.658 318.94 120.909 320.613C116.663 322.109 112.72 324.12 108.54 325.64C108.295 323.705 108.165 320.427 108.881 318.603C109.895 316.02 112.564 315.957 115.191 315.037C121.586 312.797 128.312 312.325 134.66 309.709C133.573 311.798 134.059 314.563 135.365 316.436ZM54.0734 309.681C64.2439 309.979 73.9638 312.341 83.9872 313.802C88.8649 314.513 93.747 315.147 98.6291 315.81C100.508 316.065 103.932 315.765 105.297 317.388C106.43 318.733 105.189 323.322 105.692 325.293C103.636 325.445 99.9863 323.528 97.755 323.211C94.2808 322.718 90.8521 322.027 87.3417 321.807C81.782 321.457 76.3192 321.16 70.769 320.543C65.125 319.915 59.6636 318.748 53.9745 318.321C51.2089 318.113 50.0965 318.631 49.9336 315.717C49.8695 314.578 49.713 312.671 50.0331 311.547C49.5216 310.166 49.9754 309.496 51.3946 309.535C52.296 309.434 53.1885 309.482 54.0734 309.681ZM73.7445 300.381C70.9941 300.124 68.2323 299.755 65.4749 299.6C64.9158 299.568 62.0799 299.739 61.6165 299.22C60.9611 298.486 61.6913 295.802 61.8118 294.971C62.2206 292.146 62.6726 290.504 65.7595 290.498C68.3648 290.492 71.0619 291.041 73.657 291.295C85.4375 292.447 97.1585 292.934 108.809 295.123C108.1 298.137 107.295 301.246 108.143 304.329C102.554 304.616 96.4182 303.543 90.9561 302.442C85.3735 301.317 79.45 300.758 73.7445 300.381ZM92.3899 272.002C96.5988 272.021 101.047 273.872 105.201 273.459C105.263 274.23 103.933 273.59 103.566 274.312C102.782 274.314 102.509 274.569 102.749 275.079C102.734 275.427 102.912 275.631 103.284 275.69C103.467 275.706 103.65 275.722 103.833 275.738C104.636 275.763 104.768 276.304 104.227 277.361C104.459 278.67 104.111 280.332 104.06 281.646C96.5963 280.633 89.3454 279.578 81.8289 279.126C78.2805 278.912 74.7346 278.913 71.1906 278.622C67.291 278.301 63.0345 278.989 59.2224 278.26C57.1845 277.87 57.3981 277.897 57.5464 275.252C57.637 273.645 57.6034 271.738 58.9143 270.565C61.1037 268.608 66.0891 269.739 68.707 269.808C76.5918 270.016 84.6104 270.747 92.3899 272.002ZM88.0815 309.776C76.8061 308.754 65.6156 306.515 54.2762 306.515C55.0781 305.716 56.8244 305.51 57.8221 305.073C58.9599 304.576 60.0337 303.518 61.1456 303.083C63.3768 302.211 65.6473 303.423 67.9388 303.946C73.4668 305.209 79.1387 305.253 84.6756 306.492C90.3995 307.772 96.1982 308.953 102.028 309.605C104.804 309.915 107.782 310.543 110.525 309.811C110.748 309.652 110.971 309.493 111.194 309.335C111.433 308.316 112.099 308.044 113.19 308.519C114.577 308.255 116.342 308.595 117.738 308.63C117.794 309.187 112.638 310.931 111.655 311.364C109.286 312.405 107.68 313.167 105.15 312.721C99.4538 311.716 93.8503 310.518 88.0815 309.776ZM127.746 276.874C127.305 278.589 125.455 277.809 123.862 277.998C121.724 278.25 119.596 278.987 117.526 279.542C113.765 280.55 110.003 281.545 106.258 282.611C106.406 281.102 106.071 277.666 106.87 276.326C107.709 274.922 111.685 274.307 113.537 273.879C118.204 272.801 123.189 273.414 127.931 273.641C127.847 274.717 127.785 275.795 127.746 276.874ZM82.9135 287.6C78.4852 287.225 74.0519 286.934 69.6109 286.779C64.5336 286.601 68.224 285.791 68.3311 282.701C75.0046 283.763 81.737 283.973 88.3895 284.881C93.9011 285.634 100.467 287.6 106.089 286.544C108.74 286.046 111.447 285.854 114.268 285.573C116.929 285.307 119.44 284.07 122.069 283.763C125.019 283.417 128.034 285.073 130.969 285.51C132.214 285.696 132.503 286.538 133.09 285.043C133.7 283.493 131.954 282.226 131.267 281.299C130.465 280.216 130.798 281.974 130.353 280.283C130.228 279.809 130.566 278.618 130.628 278.108C130.786 276.817 131.192 275.417 131.255 274.129C131.314 272.946 131.324 271.14 130.037 270.45C129.252 270.028 128.695 270.643 128.011 270.524C122.666 269.596 116.38 269.52 110.961 270.415C105.085 271.385 100.028 268.817 94.237 267.775C87.4438 266.553 80.5789 266.37 73.7267 265.854C67.8678 265.413 57.1629 263.124 54.931 270.593C54.2991 272.71 53.3781 278.535 55.0787 280.336C57.31 282.701 62.4767 281.946 65.3621 282.561C64.9304 283.786 63.6456 284.619 64.0899 286.079C60.0464 286.269 59.3314 290.081 58.6982 293.64C58.0427 297.322 59.3213 298.785 55.7956 300.703C50.8818 303.375 45.6765 306.073 45.7728 312.437C45.821 315.637 46.1798 320.462 49.4715 322.122C52.6916 323.746 57.935 323.472 61.484 324.061C68.3565 325.203 75.2531 326.543 82.1674 327.229C89.5298 327.959 97.0147 328.559 104.389 328.885C108.407 329.064 111.878 329.67 115.759 328.32C119.574 326.993 123.307 326.024 127.243 325.039C131.129 324.068 143.026 322.759 139.559 316.126C139.004 315.064 137.109 314.22 136.802 313.217C136.309 311.598 137.977 310.335 137.907 308.872C137.78 306.195 134.754 305.859 132.665 305.859C136.246 303.624 131.451 300.978 131.479 299.08C131.529 295.736 135.696 293.566 135.931 290.763C136.504 283.943 114.825 291.045 111.489 292.52C114.057 296.321 125.972 293.032 129.521 292.456C129.037 293.725 128.574 294.866 128.434 296.165C128.32 297.224 128.726 298.434 128.355 299.5C127.769 301.185 127.789 300.863 125.716 301.322C124.182 301.662 122.665 302.055 121.136 302.415C118.788 302.968 115.093 304.452 112.766 304.371C110.725 304.3 111.129 304.931 110.755 302.669C110.553 301.453 110.897 300.16 111.102 298.969C111.53 296.473 112.157 294.11 109.973 292.319C107.89 290.611 103.5 289.798 100.945 289.195C95.2753 287.858 88.7312 287.531 82.9135 287.6Z" fill="#333333"/>
<path fill-rule="evenodd" clip-rule="evenodd" d="M55.9324 244.991C62.0904 243.962 68.3468 243.708 74.5773 244.02C74.2397 245.559 73.9021 247.097 73.5638 248.635C67.7269 247.135 61.8055 246.256 55.9324 244.991ZM106.005 256.928C108.474 256.748 106.756 257.85 106.147 259.463C105.397 261.445 105.558 263.951 105.386 266.037C98.16 263.287 89.7531 261.678 82.0711 260.752C78.4278 260.314 74.7318 260.188 71.0682 260C69.9854 259.945 66.0744 260.398 65.2822 259.67C64.6941 259.129 65.1067 256.146 65.6719 255.488C68.7468 251.911 80.6329 254.999 84.933 255.32C91.9836 255.846 98.9052 257.103 106.005 256.928ZM95.7426 247.341C89.345 247.955 83.1673 247.896 76.769 248.853C77.2541 244.794 76.6742 243.758 81.2878 243.543C85.399 243.351 89.4975 243.196 93.5897 243.198C102.792 243.203 111.973 243.028 121.185 243.028V247.153C112.665 246.282 104.28 247.854 95.7426 247.341ZM126.508 262.511C122.47 262.493 118.654 264.014 114.616 264.408C112.199 264.644 112.958 264.943 111.282 266.154C108.67 268.041 107.918 267.036 108.245 264.472C109.355 255.8 120.356 257.745 126.695 257.263C126.279 259.331 127.236 261.085 128.647 262.511H126.508ZM82.8646 251.377C88.6722 251.471 94.4868 251.8 100.254 251.68C102.835 251.626 106.18 251.115 108.71 251.555C110.563 251.876 112.113 252.818 114.146 253.169C111.16 254.774 109.646 253.689 106.507 253.324C103.371 252.96 100.188 252.967 97.0384 252.776C91.8666 252.464 86.354 251.227 81.2585 251.564C81.1657 250.847 81.7004 250.785 82.8646 251.377ZM128.928 270.158C131.593 270.153 127.927 267.128 127.445 266.828C130.396 266.828 131.11 265.062 130.255 262.225C129.45 259.553 128.854 260.371 130.88 258.145C132.405 256.47 132.636 255.235 130.838 253.362C129.008 251.456 125.303 251.995 123.681 250.422C120.921 247.745 124.483 242.411 120.659 240.36C118.073 238.974 113.906 239.146 111.052 238.853C108.293 238.57 105.438 238.515 102.66 238.478C96.6067 238.395 90.3184 239.408 84.2914 239.966C82.094 240.169 79.6238 241.055 77.4589 241.057C75.2513 241.059 72.9388 240.568 70.6594 240.624C68.0092 240.691 65.4564 240.496 62.7236 240.93C60.6299 241.263 55.741 241.438 54.1406 242.992C48.808 248.169 61.4539 250.546 63.6297 251.128C61.4151 253.549 61.5073 256.749 61.8411 259.798C60.7869 259.798 58.9697 259.34 58.4242 260.52C57.7464 261.985 60.2547 262.366 60.8479 262.537C64.2598 263.52 68.2527 263.251 71.7688 263.608C78.7985 264.322 85.743 264.734 92.6995 266.063C96.0898 266.71 99.4596 267.512 102.847 268.143C103.432 268.252 104.02 268.339 104.611 268.405C105.518 268.328 105.811 268.895 105.491 270.111C106.431 270.57 109.937 269.427 111.021 269.253C117.228 268.248 122.78 268.665 128.928 270.158Z" fill="#333333"/>
<path fill-rule="evenodd" clip-rule="evenodd" d="M3.60645 330.307C7.60942 333.451 11.3304 336.418 15.6655 339.15C12.6011 339.054 2.40986 334.177 3.60645 330.307ZM5.16997 325.183C7.35462 323.309 9.52469 323.501 12.229 322.933C14.7192 322.41 17.139 321.509 19.6241 320.91C21.5742 320.44 23.5047 319.804 25.4479 319.359C28.1922 318.731 28.4628 319.422 30.9865 320.857C39.9362 325.948 49.9513 329.45 59.3782 333.582C56.6105 336.014 50.3841 336.119 46.9249 336.894C44.3993 337.46 41.996 338.233 39.5769 339.129C37.3244 339.964 33.6953 341.883 31.3199 341.947C29.3146 342.001 27.6845 340.032 25.9581 338.971C23.6872 337.575 21.4265 336.204 19.1379 334.843C14.2946 331.962 9.76617 328.433 5.16997 325.183ZM45.6162 345.803C46.6492 344.811 49.7592 344.854 51.0547 344.552C53.6063 343.956 56.1205 343.338 58.7064 342.891C62.9027 342.167 69.5314 341.842 69.9871 336.409C70.3667 331.894 64.9003 330.822 61.7029 329.292C56.895 326.991 51.9895 324.867 47.0593 322.838C42.4371 320.936 37.7471 319.327 33.0406 317.683C32.1229 317.363 31.3776 317.407 30.6284 316.674C30.0371 316.095 30.2197 314.972 29.5719 314.367C28.0882 312.982 26.1634 313.711 24.3806 314.066C20.332 314.872 16.1281 315.93 12.2684 317.425C8.25715 318.979 4.6693 319.303 3.70595 323.842C1.65502 322.881 0.112366 322.742 0.357643 325.564C0.42926 326.393 1.03263 327.295 1.17777 328.15C1.39072 329.411 1.01741 330.74 1.22846 332.004C1.99597 336.6 8.20517 340.005 12.0529 341.81C16.7974 344.035 22.9191 347.323 28.2163 347.757C33.8607 348.22 40.0123 346.007 45.6162 345.803Z" fill="#333333"/>
<path fill-rule="evenodd" clip-rule="evenodd" d="M117.465 269.552C119.148 269.562 120.832 269.573 122.514 269.584C120.834 269.269 119.151 269.265 117.465 269.552Z" fill="#333333"/>
<path fill-rule="evenodd" clip-rule="evenodd" d="M215.917 91.8362C216.422 92.6756 216.926 93.5151 217.432 94.3557C217.26 93.2733 216.875 92.3456 215.917 91.8362Z" fill="#333333"/>
<path fill-rule="evenodd" clip-rule="evenodd" d="M117.465 293.638C116.453 293.647 115.442 293.655 114.436 293.664C115.449 293.656 116.457 293.647 117.465 293.638Z" fill="#333333"/>
<path fill-rule="evenodd" clip-rule="evenodd" d="M94.2402 238.82C95.419 238.756 96.5964 238.692 97.7744 238.629C96.5964 238.692 95.419 238.756 94.2402 238.82Z" fill="#333333"/>
<path fill-rule="evenodd" clip-rule="evenodd" d="M114.436 269.578C115.446 269.568 116.456 269.559 117.465 269.549C116.451 269.274 115.441 269.283 114.436 269.578Z" fill="#333333"/>
<path fill-rule="evenodd" clip-rule="evenodd" d="M74.2535 126.606C74.2818 125.597 74.3101 124.589 74.3389 123.582C74.3096 124.591 74.2818 125.598 74.2535 126.606Z" fill="#333333"/>
<path fill-rule="evenodd" clip-rule="evenodd" d="M245.928 278.785C245.949 277.944 245.97 277.104 245.99 276.265C245.969 277.106 245.949 277.945 245.928 278.785Z" fill="#333333"/>
<path fill-rule="evenodd" clip-rule="evenodd" d="M218.441 237.716C217.766 237.716 217.092 237.717 216.422 237.718C217.098 237.718 217.77 237.717 218.441 237.716Z" fill="#333333"/>
<path fill-rule="evenodd" clip-rule="evenodd" d="M128.067 56.7239C128.909 56.7849 129.751 56.8453 130.592 56.9063C129.75 56.8453 128.909 56.7849 128.067 56.7239Z" fill="#333333"/>
<path fill-rule="evenodd" clip-rule="evenodd" d="M64.4521 240.75C65.4619 240.744 66.4724 240.737 67.4814 240.731C66.4724 240.737 65.4619 240.744 64.4521 240.75Z" fill="#333333"/>
<path fill-rule="evenodd" clip-rule="evenodd" d="M149.488 302.973C149.513 302.3 149.539 301.627 149.563 300.958C149.539 301.631 149.513 302.303 149.488 302.973Z" fill="#333333"/>
<path fill-rule="evenodd" clip-rule="evenodd" d="M148.49 277.274C148.509 276.602 148.527 275.929 148.545 275.258C148.526 275.931 148.508 276.602 148.49 277.274Z" fill="#333333"/>
<path fill-rule="evenodd" clip-rule="evenodd" d="M165.717 288.864C165.693 289.537 165.668 290.21 165.644 290.879C165.668 290.206 165.693 289.535 165.717 288.864Z" fill="#333333"/>
<path fill-rule="evenodd" clip-rule="evenodd" d="M214.402 237.223C213.896 237.216 213.389 237.209 212.888 237.202C213.396 237.209 213.899 237.216 214.402 237.223Z" fill="#333333"/>
<path fill-rule="evenodd" clip-rule="evenodd" d="M67.9863 263.449C67.4801 263.427 66.974 263.405 66.4717 263.383C66.9795 263.405 67.4835 263.427 67.9863 263.449Z" fill="#333333"/>
<path fill-rule="evenodd" clip-rule="evenodd" d="M164.715 304.988C164.686 305.66 164.657 306.334 164.629 307.003C164.657 306.329 164.686 305.658 164.715 304.988Z" fill="#333333"/>
<path fill-rule="evenodd" clip-rule="evenodd" d="M110.597 301.461C110.631 302.134 110.665 302.807 110.699 303.477C110.665 302.803 110.631 302.132 110.597 301.461Z" fill="#333333"/>
<path fill-rule="evenodd" clip-rule="evenodd" d="M168.789 1.20717C169.502 1.11647 170.216 1.02652 170.93 0.935818C170.222 1.09908 169.447 0.493645 168.789 1.20717Z" fill="#333333"/>
<path fill-rule="evenodd" clip-rule="evenodd" d="M199.48 259.637C199.499 260.31 199.518 260.983 199.538 261.653C199.519 260.978 199.5 260.308 199.48 259.637Z" fill="#333333"/>
<path fill-rule="evenodd" clip-rule="evenodd" d="M242.876 321.114C242.911 320.441 242.946 319.769 242.98 319.098C242.946 319.77 242.911 320.442 242.876 321.114Z" fill="#333333"/>
<path fill-rule="evenodd" clip-rule="evenodd" d="M79.5986 264.44C79.0912 264.43 78.5851 264.419 78.084 264.409C78.5921 264.42 79.0954 264.43 79.5986 264.44Z" fill="#333333"/>
<path fill-rule="evenodd" clip-rule="evenodd" d="M251.011 142.227C251.007 142.9 251.003 143.573 251 144.242C251.004 143.568 251.007 142.898 251.011 142.227Z" fill="#333333"/>
<path fill-rule="evenodd" clip-rule="evenodd" d="M261.605 293.399C261.607 294.072 261.61 294.745 261.613 295.415C261.611 294.741 261.608 294.07 261.605 293.399Z" fill="#333333"/>
<path fill-rule="evenodd" clip-rule="evenodd" d="M135.771 289.367C135.789 290.04 135.806 290.713 135.826 291.383C136.102 290.692 136.071 290.022 135.771 289.367Z" fill="#333333"/>
<path fill-rule="evenodd" clip-rule="evenodd" d="M149.014 286.344C149.02 285.672 149.025 284.999 149.03 284.329C149.025 285.003 149.02 285.673 149.014 286.344Z" fill="#333333"/>
<path fill-rule="evenodd" clip-rule="evenodd" d="M45.7715 346.036C45.2646 346.049 44.7576 346.063 44.2568 346.078C44.7658 346.064 45.2686 346.05 45.7715 346.036Z" fill="#333333"/>
<path fill-rule="evenodd" clip-rule="evenodd" d="M63.9473 282.07C63.6097 282.064 63.2711 282.058 62.9375 282.052C63.2773 282.058 63.612 282.064 63.9473 282.07Z" fill="#333333"/>
<path fill-rule="evenodd" clip-rule="evenodd" d="M76.5693 283.573C76.2307 283.572 75.8931 283.572 75.5596 283.571C75.8982 283.572 76.2341 283.573 76.5693 283.573Z" fill="#333333"/>
<path fill-rule="evenodd" clip-rule="evenodd" d="M273.19 286.847C273.211 286.343 273.231 285.838 273.251 285.335C273.23 285.84 273.21 286.344 273.19 286.847Z" fill="#333333"/>
<path fill-rule="evenodd" clip-rule="evenodd" d="M66.4717 286.465C66.9102 286.908 67.4744 286.647 67.9863 286.675C67.4813 286.605 66.9762 286.535 66.4717 286.465Z" fill="#333333"/>
<path fill-rule="evenodd" clip-rule="evenodd" d="M126.553 270.343C127.219 270.658 127.893 270.701 128.572 270.365C127.899 270.358 127.226 270.351 126.553 270.343Z" fill="#333333"/>
<path fill-rule="evenodd" clip-rule="evenodd" d="M82.6279 287.612C83.3013 287.606 83.9748 287.601 84.6475 287.595C83.974 287.601 83.3006 287.606 82.6279 287.612Z" fill="#333333"/>
<path fill-rule="evenodd" clip-rule="evenodd" d="M110.901 270.058C111.575 269.997 112.248 269.936 112.921 269.875C112.248 269.936 111.575 269.997 110.901 270.058Z" fill="#333333"/>
<path fill-rule="evenodd" clip-rule="evenodd" d="M265.122 267.699C265.135 268.204 265.148 268.709 265.162 269.211C265.149 268.705 265.136 268.202 265.122 267.699Z" fill="#333333"/>
<path fill-rule="evenodd" clip-rule="evenodd" d="M149.059 294.911C149.032 294.406 149.007 293.901 148.981 293.399C149.007 293.905 149.032 294.408 149.059 294.911Z" fill="#333333"/>
<path fill-rule="evenodd" clip-rule="evenodd" d="M79.5986 265.851C80.2716 265.908 80.9452 265.964 81.6182 266.02C80.9445 265.964 80.2716 265.908 79.5986 265.851Z" fill="#333333"/>
<path fill-rule="evenodd" clip-rule="evenodd" d="M245.937 264.172C245.95 263.667 245.964 263.162 245.979 262.66C245.965 263.166 245.95 263.669 245.937 264.172Z" fill="#333333"/>
<path fill-rule="evenodd" clip-rule="evenodd" d="M161.583 225.371C161.623 225.876 161.663 226.38 161.702 226.883C161.662 226.378 161.622 225.875 161.583 225.371Z" fill="#333333"/>
<path fill-rule="evenodd" clip-rule="evenodd" d="M69.501 240.62C70.1753 240.969 70.8482 240.925 71.5205 240.616C70.8476 240.617 70.1739 240.619 69.501 240.62Z" fill="#333333"/>
<path fill-rule="evenodd" clip-rule="evenodd" d="M149.48 310.531C149.51 310.027 149.54 309.522 149.569 309.02C149.54 309.525 149.51 310.028 149.48 310.531Z" fill="#333333"/>
<path fill-rule="evenodd" clip-rule="evenodd" d="M149.494 314.563C149.515 314.059 149.537 313.554 149.558 313.051C149.536 313.556 149.515 314.059 149.494 314.563Z" fill="#333333"/>
<path fill-rule="evenodd" clip-rule="evenodd" d="M244.958 248.047C244.95 247.542 244.944 247.037 244.937 246.535C244.944 247.041 244.951 247.543 244.958 248.047Z" fill="#333333"/>
<path fill-rule="evenodd" clip-rule="evenodd" d="M101.309 328.435C100.971 328.425 100.633 328.415 100.299 328.407C100.638 328.417 100.974 328.425 101.309 328.435Z" fill="#333333"/>
<path fill-rule="evenodd" clip-rule="evenodd" d="M264.093 332.704C264.12 332.199 264.148 331.695 264.175 331.192C264.147 331.696 264.12 332.2 264.093 332.704Z" fill="#333333"/>
<path fill-rule="evenodd" clip-rule="evenodd" d="M154.826 336.977C154.488 336.984 154.15 336.99 153.816 336.997C154.156 336.991 154.491 336.984 154.826 336.977Z" fill="#333333"/>
<path fill-rule="evenodd" clip-rule="evenodd" d="M81.6182 240.314C82.2911 240.263 82.9647 240.212 83.6377 240.161C82.9647 240.212 82.2911 240.263 81.6182 240.314Z" fill="#333333"/>
<path fill-rule="evenodd" clip-rule="evenodd" d="M78.084 240.845L79.5986 240.635L78.084 240.845Z" fill="#333333"/>
<path fill-rule="evenodd" clip-rule="evenodd" d="M154.617 293.902C154.588 292.39 154.561 290.878 154.532 289.367C154.561 290.88 154.589 292.391 154.617 293.902Z" fill="#333333"/>
<path fill-rule="evenodd" clip-rule="evenodd" d="M193.981 238.473C193.964 239.649 193.947 240.826 193.929 242C193.946 240.822 193.964 239.648 193.981 238.473Z" fill="#333333"/>
<path fill-rule="evenodd" clip-rule="evenodd" d="M281.047 312.28C281.89 312.29 282.734 312.3 283.571 312.311C282.726 312.301 281.886 312.29 281.047 312.28Z" fill="#333333"/>
<path fill-rule="evenodd" clip-rule="evenodd" d="M211.878 212.037C212.722 212.024 213.565 212.011 214.402 211.999C213.556 212.012 212.717 212.025 211.878 212.037Z" fill="#333333"/>
<path fill-rule="evenodd" clip-rule="evenodd" d="M233.588 231.671C232.746 231.671 231.904 231.67 231.063 231.669C231.905 231.669 232.746 231.67 233.588 231.671Z" fill="#333333"/>
<path fill-rule="evenodd" clip-rule="evenodd" d="M222.48 211.498C223.156 211.509 223.831 211.52 224.5 211.531C223.823 211.52 223.151 211.509 222.48 211.498Z" fill="#333333"/>
<path fill-rule="evenodd" clip-rule="evenodd" d="M277.008 312.301C277.683 312.297 278.358 312.294 279.027 312.29C278.35 312.294 277.679 312.297 277.008 312.301Z" fill="#333333"/>
<path fill-rule="evenodd" clip-rule="evenodd" d="M186.129 54.8873C185.288 54.8288 184.446 54.7709 183.604 54.7124C184.446 54.7709 185.288 54.8288 186.129 54.8873Z" fill="#333333"/>
<path fill-rule="evenodd" clip-rule="evenodd" d="M174.818 114.008C174.787 113.168 174.756 112.328 174.724 111.489C174.756 112.329 174.787 113.169 174.818 114.008Z" fill="#333333"/>
<path fill-rule="evenodd" clip-rule="evenodd" d="M195.217 121.818C195.723 121.818 196.23 121.819 196.731 121.819C196.223 121.819 195.72 121.819 195.217 121.818Z" fill="#333333"/>
<path fill-rule="evenodd" clip-rule="evenodd" d="M238.132 209.994C238.638 210 239.145 210.005 239.646 210.011C239.138 210.006 238.635 210 238.132 209.994Z" fill="#333333"/>
<path fill-rule="evenodd" clip-rule="evenodd" d="M249.744 230.581C249.071 230.635 248.397 230.69 247.725 230.745C248.398 230.69 249.071 230.635 249.744 230.581Z" fill="#333333"/>
<path fill-rule="evenodd" clip-rule="evenodd" d="M251.024 256.109C251.014 255.437 251.003 254.765 250.993 254.094C251.003 254.767 251.014 255.438 251.024 256.109Z" fill="#333333"/>
<path fill-rule="evenodd" clip-rule="evenodd" d="M193.197 229.25C192.524 229.184 191.851 229.118 191.178 229.052C191.851 229.118 192.524 229.184 193.197 229.25Z" fill="#333333"/>
<path fill-rule="evenodd" clip-rule="evenodd" d="M147.062 217.309C147.021 216.636 146.981 215.963 146.941 215.293C146.981 215.966 147.022 216.638 147.062 217.309Z" fill="#333333"/>
<path fill-rule="evenodd" clip-rule="evenodd" d="M138.165 124.417C137.492 124.364 136.819 124.312 136.146 124.26C136.819 124.312 137.492 124.364 138.165 124.417Z" fill="#333333"/>
<path fill-rule="evenodd" clip-rule="evenodd" d="M206.829 212.53C207.335 212.524 207.842 212.519 208.344 212.515C207.835 212.519 207.332 212.524 206.829 212.53Z" fill="#333333"/>
<path fill-rule="evenodd" clip-rule="evenodd" d="M250.971 293.902C250.996 293.398 251.021 292.893 251.045 292.391C251.021 292.895 250.996 293.399 250.971 293.902Z" fill="#333333"/>
<path fill-rule="evenodd" clip-rule="evenodd" d="M194.362 268.203C193.259 270.934 193.879 269 193.85 269.631C194.79 269.757 194.961 269.281 194.362 268.203Z" fill="#333333"/>
<path fill-rule="evenodd" clip-rule="evenodd" d="M240.656 210.03C241.162 210.012 241.67 209.994 242.171 209.975C241.661 209.993 241.16 210.011 240.656 210.03Z" fill="#333333"/>
<path fill-rule="evenodd" clip-rule="evenodd" d="M137.455 158.856C137.423 158.184 137.391 157.512 137.36 156.84C137.391 157.513 137.424 158.184 137.455 158.856Z" fill="#333333"/>
<path fill-rule="evenodd" clip-rule="evenodd" d="M251.006 288.863C251.007 288.19 251.009 287.519 251.011 286.847C251.009 287.521 251.008 288.192 251.006 288.863Z" fill="#333333"/>
<path fill-rule="evenodd" clip-rule="evenodd" d="M251.06 273.746C251.025 273.242 250.989 272.737 250.954 272.234C250.989 272.739 251.025 273.243 251.06 273.746Z" fill="#333333"/>
<path fill-rule="evenodd" clip-rule="evenodd" d="M146.062 207.734C146.016 207.23 145.968 206.726 145.921 206.223C145.968 206.728 146.016 207.231 146.062 207.734Z" fill="#333333"/>
<path fill-rule="evenodd" clip-rule="evenodd" d="M257.639 275.258C257.594 275.763 257.548 276.268 257.503 276.77C257.549 276.266 257.594 275.762 257.639 275.258Z" fill="#333333"/>
<path fill-rule="evenodd" clip-rule="evenodd" d="M258.654 271.227C258.604 271.731 258.555 272.236 258.505 272.738C258.555 272.233 258.604 271.73 258.654 271.227Z" fill="#333333"/>
<path fill-rule="evenodd" clip-rule="evenodd" d="M157.66 202.192C157.622 201.688 157.585 201.183 157.547 200.68C157.585 201.185 157.623 201.688 157.66 202.192Z" fill="#333333"/>
<path fill-rule="evenodd" clip-rule="evenodd" d="M415.346 270.55C414.673 270.497 414 270.444 413.326 270.392C414.001 270.445 414.674 270.497 415.346 270.55Z" fill="#333333"/>
<path fill-rule="evenodd" clip-rule="evenodd" d="M162.119 282.817C162.138 283.322 162.158 283.828 162.177 284.329C162.157 283.822 162.138 283.32 162.119 282.817Z" fill="#333333"/>
<path fill-rule="evenodd" clip-rule="evenodd" d="M154.127 284.329C154.09 283.825 154.052 283.32 154.014 282.817C154.052 283.322 154.09 283.825 154.127 284.329Z" fill="#333333"/>
<path fill-rule="evenodd" clip-rule="evenodd" d="M157.179 200.176C157.126 199.671 157.072 199.167 157.019 198.664C157.072 199.169 157.126 199.672 157.179 200.176Z" fill="#333333"/>
<path fill-rule="evenodd" clip-rule="evenodd" d="M411.307 270.067C410.633 270.001 409.96 269.935 409.287 269.869C409.96 269.935 410.634 270.001 411.307 270.067Z" fill="#333333"/>
<path fill-rule="evenodd" clip-rule="evenodd" d="M197.236 212.013C197.574 212.016 197.913 212.02 198.246 212.024C197.906 212.02 197.571 212.016 197.236 212.013Z" fill="#333333"/>
<path fill-rule="evenodd" clip-rule="evenodd" d="M251.006 269.211C251.007 268.706 251.009 268.202 251.011 267.699C251.009 268.205 251.007 268.707 251.006 269.211Z" fill="#333333"/>
<path fill-rule="evenodd" clip-rule="evenodd" d="M153.019 268.203C153.198 267.682 153.286 267.169 152.94 266.691C152.967 267.196 152.993 267.7 153.019 268.203Z" fill="#333333"/>
<path fill-rule="evenodd" clip-rule="evenodd" d="M161.62 258.629C161.634 259.133 161.649 259.638 161.663 260.14C161.648 259.635 161.634 259.132 161.62 258.629Z" fill="#333333"/>
<path fill-rule="evenodd" clip-rule="evenodd" d="M161.184 308.516C161.152 309.02 161.121 309.525 161.089 310.028C161.121 309.523 161.152 309.019 161.184 308.516Z" fill="#333333"/>
<path fill-rule="evenodd" clip-rule="evenodd" d="M124.028 125.239C123.523 125.311 123.018 125.383 122.514 125.454C123.019 125.382 123.523 125.311 124.028 125.239Z" fill="#333333"/>
<path fill-rule="evenodd" clip-rule="evenodd" d="M126.048 125.285C125.37 125.326 124.626 125.001 124.028 125.477L126.048 125.285Z" fill="#333333"/>
<path fill-rule="evenodd" clip-rule="evenodd" d="M212.383 231.676C211.71 231.673 211.036 231.669 210.363 231.666C211.036 231.669 211.71 231.673 212.383 231.676Z" fill="#333333"/>
<path fill-rule="evenodd" clip-rule="evenodd" d="M197.236 124.755L195.217 124.93C195.891 124.871 196.563 124.813 197.236 124.755Z" fill="#333333"/>
<path fill-rule="evenodd" clip-rule="evenodd" d="M230.559 231.538C229.885 231.541 229.212 231.544 228.539 231.547C229.215 231.872 229.888 231.904 230.559 231.538Z" fill="#333333"/>
<path fill-rule="evenodd" clip-rule="evenodd" d="M248.929 316.075C248.968 315.569 249.006 315.065 249.045 314.563C249.006 315.068 248.968 315.571 248.929 316.075Z" fill="#333333"/>
<path fill-rule="evenodd" clip-rule="evenodd" d="M175.284 125.598C175.277 125.093 175.27 124.589 175.262 124.086C175.27 124.591 175.277 125.095 175.284 125.598Z" fill="#333333"/>
<path fill-rule="evenodd" clip-rule="evenodd" d="M217.937 231.752C217.263 231.698 216.59 231.643 215.917 231.589C216.591 231.643 217.263 231.698 217.937 231.752Z" fill="#333333"/>
<path fill-rule="evenodd" clip-rule="evenodd" d="M160.65 320.61C160.639 321.114 160.628 321.619 160.617 322.122C160.628 321.616 160.639 321.113 160.65 320.61Z" fill="#333333"/>
<path fill-rule="evenodd" clip-rule="evenodd" d="M158.865 112.844C158.192 112.78 157.519 112.716 156.846 112.652C157.519 112.716 158.192 112.78 158.865 112.844Z" fill="#333333"/>
<path fill-rule="evenodd" clip-rule="evenodd" d="M150.1 241.496C150.053 240.992 150.007 240.488 149.961 239.985C150.007 240.49 150.054 240.993 150.1 241.496Z" fill="#333333"/>
<path fill-rule="evenodd" clip-rule="evenodd" d="M126.863 106.953C126.824 106.449 126.786 105.945 126.748 105.442C126.786 105.946 126.825 106.45 126.863 106.953Z" fill="#333333"/>
<path fill-rule="evenodd" clip-rule="evenodd" d="M174.784 63.6172C174.775 64.1215 174.765 64.6264 174.755 65.1289C174.764 64.6234 174.774 64.1203 174.784 63.6172Z" fill="#333333"/>
<path fill-rule="evenodd" clip-rule="evenodd" d="M192.692 54.2109C192.019 54.2669 191.345 54.3233 190.673 54.3787C191.346 54.3228 192.019 54.2669 192.692 54.2109Z" fill="#333333"/>
<path fill-rule="evenodd" clip-rule="evenodd" d="M293.669 340.613C292.996 340.548 292.323 340.482 291.649 340.416C292.323 340.482 292.996 340.548 293.669 340.613Z" fill="#333333"/>
<path fill-rule="evenodd" clip-rule="evenodd" d="M191.683 49.2566C192.021 49.2561 192.359 49.2556 192.692 49.2556C192.353 49.2566 192.018 49.2566 191.683 49.2566Z" fill="#333333"/>
<path fill-rule="evenodd" clip-rule="evenodd" d="M315.884 347.175C315.21 346.828 314.537 346.927 313.864 347.178C314.537 347.177 315.211 347.176 315.884 347.175Z" fill="#333333"/>
<path fill-rule="evenodd" clip-rule="evenodd" d="M53.8496 317.929C52.6713 317.868 51.4931 317.808 50.3154 317.749C51.4931 317.808 52.6713 317.869 53.8496 317.929Z" fill="#333333"/>
<path fill-rule="evenodd" clip-rule="evenodd" d="M53.8496 309.248C54.5249 309.263 55.1996 309.279 55.8691 309.294C55.1926 309.279 54.5211 309.263 53.8496 309.248Z" fill="#333333"/>
<path fill-rule="evenodd" clip-rule="evenodd" d="M63.9473 299.255C63.1058 299.191 62.2643 299.126 61.4229 299.062C62.2077 299.555 63.1058 299.191 63.9473 299.255Z" fill="#333333"/>
<path fill-rule="evenodd" clip-rule="evenodd" d="M73.54 300.292C72.6983 300.231 71.8573 300.171 71.0156 300.11C71.8567 300.171 72.6983 300.231 73.54 300.292Z" fill="#333333"/>
<path fill-rule="evenodd" clip-rule="evenodd" d="M87.6768 309.351C87.0036 309.298 86.3304 309.246 85.6572 309.193C86.3304 309.246 87.0036 309.298 87.6768 309.351Z" fill="#333333"/>
<path fill-rule="evenodd" clip-rule="evenodd" d="M84.1426 309.352C83.4694 309.299 82.7962 309.245 82.123 309.192C82.7962 309.245 83.4694 309.298 84.1426 309.352Z" fill="#333333"/>
<path fill-rule="evenodd" clip-rule="evenodd" d="M81.6182 308.858C80.9452 308.798 80.2722 308.739 79.5986 308.679C80.2716 308.739 80.9446 308.798 81.6182 308.858Z" fill="#333333"/>
<path fill-rule="evenodd" clip-rule="evenodd" d="M78.084 291.631C78.5905 291.634 79.0969 291.638 79.5986 291.64C79.0901 291.636 78.587 291.633 78.084 291.631Z" fill="#333333"/>
<path fill-rule="evenodd" clip-rule="evenodd" d="M65.4619 319.391C64.7887 319.335 64.1156 319.277 63.4424 319.221C64.0706 319.661 64.7804 319.408 65.4619 319.391Z" fill="#333333"/>
<path fill-rule="evenodd" clip-rule="evenodd" d="M84.6475 279.134C83.9747 279.07 83.3013 279.006 82.6279 278.942C83.3013 279.006 83.9747 279.07 84.6475 279.134Z" fill="#333333"/>
<path fill-rule="evenodd" clip-rule="evenodd" d="M87.1719 270.975C87.6788 270.975 88.1851 270.974 88.6865 270.974C88.1775 270.974 87.6747 270.975 87.1719 270.975Z" fill="#333333"/>
<path fill-rule="evenodd" clip-rule="evenodd" d="M92.2207 271.981C92.5586 271.983 92.8966 271.984 93.2305 271.986C92.8908 271.984 92.5558 271.982 92.2207 271.981Z" fill="#333333"/>
<path fill-rule="evenodd" clip-rule="evenodd" d="M104.338 273.384C104.508 273.799 105.4 273.746 105.345 273.32C105.01 273.341 104.674 273.363 104.338 273.384Z" fill="#333333"/>
<path fill-rule="evenodd" clip-rule="evenodd" d="M127.845 275.258C127.824 275.762 127.803 276.267 127.783 276.77C127.804 276.265 127.824 275.761 127.845 275.258Z" fill="#333333"/>
<path fill-rule="evenodd" clip-rule="evenodd" d="M58.8984 277.929C58.3937 277.92 57.8885 277.912 57.3838 277.904C57.8824 278.26 58.3882 278.21 58.8984 277.929Z" fill="#333333"/>
<path fill-rule="evenodd" clip-rule="evenodd" d="M78.084 270.464C78.4219 270.469 78.7599 270.474 79.0938 270.478C78.754 270.474 78.419 270.469 78.084 270.464Z" fill="#333333"/>
<path fill-rule="evenodd" clip-rule="evenodd" d="M91.2109 302.311C90.5375 302.248 89.8641 302.185 89.1914 302.123C89.8648 302.185 90.5375 302.248 91.2109 302.311Z" fill="#333333"/>
<path fill-rule="evenodd" clip-rule="evenodd" d="M99.2891 303.314L97.2695 303.138L99.2891 303.314Z" fill="#333333"/>
<path fill-rule="evenodd" clip-rule="evenodd" d="M59.9082 318.436C59.2353 318.373 58.5616 318.31 57.8887 318.247C58.5616 318.31 59.2353 318.373 59.9082 318.436Z" fill="#333333"/>
<path fill-rule="evenodd" clip-rule="evenodd" d="M84.1426 321.471C83.4682 321.225 82.7939 321.141 82.123 321.477C82.7967 321.475 83.4696 321.473 84.1426 321.471Z" fill="#333333"/>
<path fill-rule="evenodd" clip-rule="evenodd" d="M85.2129 252.011L86.1621 251.684C84.984 251.669 83.806 251.654 82.6279 251.64C82.6252 251.641 85.0772 252.022 85.2129 252.011Z" fill="#333333"/>
<path fill-rule="evenodd" clip-rule="evenodd" d="M94.2402 243.261C95.0838 243.26 95.9273 243.26 96.7646 243.259C95.9199 243.26 95.0801 243.261 94.2402 243.261Z" fill="#333333"/>
<path fill-rule="evenodd" clip-rule="evenodd" d="M126.048 262.523C125.208 262.187 124.366 262.253 123.523 262.514C124.365 262.517 125.206 262.52 126.048 262.523Z" fill="#333333"/>
<path fill-rule="evenodd" clip-rule="evenodd" d="M75.0547 254.337C75.5613 254.343 76.0679 254.349 76.5693 254.355C76.061 254.348 75.5578 254.343 75.0547 254.337Z" fill="#333333"/>
<path fill-rule="evenodd" clip-rule="evenodd" d="M85.6572 247.713C84.8153 247.768 83.9734 247.823 83.1328 247.878C83.9741 247.822 84.816 247.768 85.6572 247.713Z" fill="#333333"/>
<path fill-rule="evenodd" clip-rule="evenodd" d="M96.2598 252.924C95.4181 252.864 94.5764 252.805 93.7354 252.745C94.5764 252.805 95.4181 252.864 96.2598 252.924Z" fill="#333333"/>
<path fill-rule="evenodd" clip-rule="evenodd" d="M89.6963 251.912C89.0233 251.855 88.3503 251.798 87.6768 251.741C88.3503 251.798 89.0233 251.855 89.6963 251.912Z" fill="#333333"/>
<path fill-rule="evenodd" clip-rule="evenodd" d="M95.25 247.208C94.5764 247.263 93.9034 247.319 93.2305 247.374C93.904 247.318 94.577 247.263 95.25 247.208Z" fill="#333333"/>
<path fill-rule="evenodd" clip-rule="evenodd" d="M104.843 256.876C105.181 256.869 105.518 256.862 105.853 256.855C105.513 256.862 105.178 256.869 104.843 256.876Z" fill="#333333"/>
<path fill-rule="evenodd" clip-rule="evenodd" d="M94.2402 251.858C94.5786 251.837 94.9163 251.816 95.25 251.795C94.9105 251.816 94.5757 251.837 94.2402 251.858Z" fill="#333333"/>
<path fill-rule="evenodd" clip-rule="evenodd" d="M100.804 251.841C101.142 251.831 101.48 251.822 101.813 251.813C101.474 251.823 101.139 251.832 100.804 251.841Z" fill="#333333"/>
<path fill-rule="evenodd" clip-rule="evenodd" d="M82.6279 251.372C82.6279 251.502 81.1073 250.84 81.1133 251.456L82.6279 251.372Z" fill="#333333"/>
<path fill-rule="evenodd" clip-rule="evenodd" d="M88.1816 243.259C88.5199 243.26 88.8576 243.26 89.1914 243.261C88.8514 243.26 88.5171 243.26 88.1816 243.259Z" fill="#333333"/>
<path fill-rule="evenodd" clip-rule="evenodd" d="M267.415 219.362C266.868 217.136 267.017 215.393 265.07 216.816C264.001 217.597 262.24 221.559 262.373 222.901C262.538 224.556 263.294 225.216 264.855 224.689C266.65 224.083 267.362 221.028 267.415 219.362Z" fill="#333333"/>
<path fill-rule="evenodd" clip-rule="evenodd" d="M169.049 205.843C164.527 205.843 166.5 210.646 170.269 210.753C172.001 210.803 174.493 210.462 173.931 208.148C173.631 206.913 169.238 205.248 169.049 205.843Z" fill="#333333"/>
<path fill-rule="evenodd" clip-rule="evenodd" d="M217.546 215.293C214.282 216.869 218.874 223.791 221.84 222.077C225.638 219.884 218.888 216.28 217.546 215.293Z" fill="#333333"/>
<path fill-rule="evenodd" clip-rule="evenodd" d="M225.488 221.844C224.419 223.007 219.605 226.95 222.258 228.536C225.522 230.486 228.006 224.049 225.488 221.844Z" fill="#333333"/>
<path fill-rule="evenodd" clip-rule="evenodd" d="M280.2 218.82C281.261 216.771 279.8 211.408 276.558 212.388C273.295 213.375 278.404 218.276 280.2 218.82Z" fill="#333333"/>
<path fill-rule="evenodd" clip-rule="evenodd" d="M208.172 220.001C206.055 219.151 206.458 221.668 206.138 222.479C205.776 223.402 203.912 225.648 204.379 226.629C205.073 228.086 206.732 227.157 207.632 226.212C209.211 224.554 209.099 221.894 208.172 220.001Z" fill="#333333"/>
<path fill-rule="evenodd" clip-rule="evenodd" d="M240.434 222.334C242.198 222.334 246.41 217.256 243.936 216.405C240.864 215.347 238.295 222.707 240.434 222.334Z" fill="#333333"/>
<path fill-rule="evenodd" clip-rule="evenodd" d="M179.46 214.285C177.844 214.683 175.706 219.25 178.141 219.779C180.837 220.366 181.319 215.548 179.46 214.285Z" fill="#333333"/>
<path fill-rule="evenodd" clip-rule="evenodd" d="M189.258 222.851C190.525 220.415 190.837 215.201 187.743 219.386C187.072 220.293 186.381 219.926 186.725 221.422C187.026 222.728 188.227 222.851 189.258 222.851Z" fill="#333333"/>
<path fill-rule="evenodd" clip-rule="evenodd" d="M256.012 210.254C254.721 212.194 255.102 218.279 257.801 214.68C258.949 213.15 258.158 210.326 256.012 210.254Z" fill="#333333"/>
<path fill-rule="evenodd" clip-rule="evenodd" d="M191.083 27.3853C188.577 26.7395 187.976 32.6367 189.437 33.2867C191.484 34.1964 191.227 28.3717 191.083 27.3853Z" fill="#333333"/>
<path fill-rule="evenodd" clip-rule="evenodd" d="M32.5657 326.984C34.8917 326.848 38.1501 326.215 34.6267 324.567C32.3914 323.524 29.0676 323.451 26.7073 323.879C25.0804 324.174 22.639 325.52 25.1218 327.265C26.5751 328.286 30.7989 327.034 32.5657 326.984Z" fill="#333333"/>
<path fill-rule="evenodd" clip-rule="evenodd" d="M35.1726 331.191C35.8452 331.116 36.5172 331.04 37.1885 330.965C36.6491 329.988 35.0824 329.783 35.1726 331.191Z" fill="#333333"/>
<path fill-rule="evenodd" clip-rule="evenodd" d="M32.1396 326.887C31.4647 326.901 30.7898 326.916 30.1201 326.931C30.797 326.916 31.4686 326.901 32.1396 326.887Z" fill="#333333"/>
</svg>
