<svg width="28" height="28" viewBox="0 0 28 28" fill="none" xmlns="http://www.w3.org/2000/svg">
<path d="M26.81 6.23C26.0505 4.879 25.2262 4.6305 23.548 4.536C21.8715 4.42225 17.6558 4.375 14.0035 4.375C10.3442 4.375 6.12675 4.42225 4.452 4.53425C2.77725 4.6305 1.95125 4.87725 1.18475 6.23C0.4025 7.57925 0 9.90325 0 13.9948C0 13.9983 0 14 0 14C0 14.0035 0 14.0053 0 14.0053V14.0087C0 18.0828 0.4025 20.4242 1.18475 21.7595C1.95125 23.1105 2.7755 23.3555 4.45025 23.4692C6.12675 23.5673 10.3442 23.625 14.0035 23.625C17.6558 23.625 21.8715 23.5672 23.5497 23.471C25.228 23.3573 26.0522 23.1123 26.8118 21.7613C27.601 20.426 28 18.0845 28 14.0105C28 14.0105 28 14.0053 28 14.0018C28 14.0018 28 13.9983 28 13.9965C28 9.90325 27.601 7.57925 26.81 6.23ZM10.5 19.25V8.75L19.25 14L10.5 19.25Z" fill="#3B3E59"/>
</svg>
